<svg version="1.1" id="Capa_1" xmlns="http://www.w3.org/2000/svg" x="0" y="0" viewBox="0 0 872 828" xml:space="preserve"><style>.st0{fill:#5cb4ff}.st2{fill:#c1c4c5}.st3{fill:#0795ff}.st4{fill:#394c98}.st9{fill:#077de8}</style><path class="st0" d="M145.3 481h55.2v260.8h-55.2zm594 0h55.2v260.8h-55.2z"/><path class="st4" d="M145.3 480.6h12.3v260.9h-12.3zm27.6 0h12.3v260.9h-12.3zm25.3-65.8l70.2 53.5-.6 273.2-69.6-.7z"/><path transform="rotate(-180 793.607 611.02)" class="st4" d="M787.5 480.6h12.3v260.9h-12.3z"/><path transform="rotate(-180 765.986 611.02)" class="st4" d="M759.8 480.6h12.3v260.9h-12.3z"/><path class="st4" d="M746.8 414.8l-70.2 53.5.7 273.2 69.5-.7z"/><path class="st3" d="M532.5 673.3h35.8v68.5h-35.8z"/><path class="st0" d="M422 673.3h103.3v68.5H422z"/><path class="st2" d="M575.4 673.3h35.8v68.5h-35.8z"/><path class="st9" d="M618.4 479.9h49v57.3h-49zm0 64.5h49v57.3h-49zm0 64.4h49v57.3h-49zm0 64.5h49v68.5h-49z"/><path class="st3" d="M376 673.3h38.9v68.5H376z"/><path class="st9" d="M277.2 479.9h48.6v57.3h-48.6z"/><path class="st2" d="M333 673.3h35.8v68.5H333z"/><path class="st3" d="M612.1 244.7H332.6c-30.6 0-55.4 24.8-55.4 55.4v108.3h390.2V300c0-30.6-24.8-55.3-55.3-55.3z"/><path class="st9" d="M277.2 415.5h48.6v57.3h-48.6zm0 193.3h48.6v57.3h-48.6zm0 64.5h48.6v68.5h-48.6zm0-128.9h48.6v57.3h-48.6z"/><path class="st3" d="M333 608.8h81.8v57.3H333zm199.5-64.4h78.8v57.3h-78.8zm0 64.4h78.8v57.3h-78.8zm0-128.9h78.8v57.3h-78.8zm0-64.4h78.8v57.3h-78.8z"/><path class="st0" d="M422 415.5h103.3v57.3H422zm0 128.9h103.3v57.3H422z"/><path class="st3" d="M333 479.9h81.8v57.3H333zm0 64.5h81.8v57.3H333zm0-128.9h81.8v57.3H333z"/><path class="st0" d="M422 479.9h103.3v57.3H422zm0 128.9h103.3v57.3H422z"/><path class="st9" d="M618.4 415.5h49v57.3h-49z"/><path class="st4" d="M451.1 356.2c-4.6 0-8.4 3.8-8.4 8.4 0 4.6 3.8 8.4 8.4 8.4 4.6 0 8.4-3.8 8.4-8.4 0-4.7-3.8-8.4-8.4-8.4zm-25.3-67.4v8.4h8.4l15.1 32-5.9 10.1c-.4 1.3-.8 2.9-.8 4.2 0 4.6 3.8 8.4 8.4 8.4h50.5v-8.4h-48.8c-.4 0-.8-.4-.8-.8v-.4l3.8-7.1h31.2c3.3 0 5.9-1.7 7.2-4.2l15.1-27.4c.8-.8.8-1.3.8-2.1 0-2.5-1.7-4.2-4.2-4.2h-62.3l-3.8-8.4h-13.9zm67.4 67.4c-4.6 0-8.4 3.8-8.4 8.4 0 4.6 3.8 8.4 8.4 8.4 4.6 0 8.4-3.8 8.4-8.4 0-4.7-3.8-8.4-8.4-8.4zm0 0"/><circle class="st3" cx="147.7" cy="363.4" r="6.3"/><path class="st3" d="M211.5 356.3c-1.3 0-2.5-.5-3.5-1.5l-31.5-35c-1.7-1.9-1.6-4.9.3-6.6 1.9-1.7 4.9-1.6 6.6.3l31.5 35c1.7 1.9 1.6 4.9-.3 6.6-.8.8-1.9 1.2-3.1 1.2zM756.3 371h-23.1c-1.3 0-2.4-.7-3.1-1.8l-11.6-20c-.6-1.1-.6-2.5 0-3.6l11.6-20c.6-1.1 1.8-1.8 3.1-1.8h23.1c1.3 0 2.4.7 3.1 1.8l11.6 20c.6 1.1.6 2.5 0 3.6l-11.6 20c-.6 1.1-1.8 1.8-3.1 1.8zm-21-7.1h19l9.5-16.5-9.5-16.5h-19l-9.5 16.5 9.5 16.5z"/></svg>