<svg version="1.1" id="Capa_1" xmlns="http://www.w3.org/2000/svg" x="0" y="0" viewBox="0 0 1096 772" xml:space="preserve"><style>.st0{fill:#5cb4ff}.st3{fill:#0795ff}.st4{fill:#394c98}.st6{fill:#eee}</style><path d="M872.5 715S733.3 420.2 769.2 73l-288.8 3s58.4 345.7-116.7 636l508.8 3z" fill="#076cd4"/><path class="st4" d="M771.7 549.2h196V715h-196z"/><path class="st4" d="M801.9 579.3l23.9-429.2h20.4l22.2 434.6c0-.1-66.5-8.1-66.5-5.4zm77.1-10.6l17.8-372.5h20.3l18.7 384.9z"/><path class="st3" d="M691.7 281l-87 50-17-50-85 49-18-49-85 48-18-48-85 49-18-49-93 54v380l526 2V339z"/><path class="st3" d="M345.5 347h61v61h-61zm0 79.5h61v61h-61zm0 79.5h61v61h-61zm-71-159h61v61h-61zm0 79.5h61v61h-61zm-71 79.5h61v61h-61zm0-79.5h61v61h-61zm0-79.5h61v61h-61zm71 159h61v61h-61zm17.2 102h61v99h-61zm68 0h61v99h-61zm56.8-102h61v61h-61zm0-79.5h61v61h-61zm0-79.5h61v61h-61zm71 159h61v61h-61zm0-79.5h61v61h-61zm0-79.5h61v61h-61zm61.2 272.4h54V707h-54zm9.8-113.4h61v61h-61zm0-79.5h61v61h-61zm0-79.5h61v61h-61zm71 159h61v61h-61zm0-79.5h61v61h-61zm0-79.5h61v61h-61z"/><path class="st0" d="M384.4 610h57v95h-57z"/><path class="st6" d="M439.4 612v91h-53v-91h53m4-4h-61v99h61v-99z"/><path class="st0" d="M347.5 349h57v57h-57z"/><path class="st6" d="M402.5 351v53h-53v-53h53m4-4h-61v61h61v-61z"/><path class="st0" d="M418.5 349h57v57h-57z"/><path class="st6" d="M473.5 351v53h-53v-53h53m4-4h-61v61h61v-61z"/><path class="st0" d="M489.5 349h57v57h-57z"/><path class="st6" d="M544.5 351v53h-53v-53h53m4-4h-61v61h61v-61z"/><path class="st0" d="M560.5 349h57v57h-57z"/><path class="st6" d="M615.5 351v53h-53v-53h53m4-4h-61v61h61v-61z"/><path class="st0" d="M631.5 349h57v57h-57z"/><path class="st6" d="M686.5 351v53h-53v-53h53m4-4h-61v61h61v-61z"/><path class="st0" d="M347.5 428.5h57v57h-57z"/><path class="st6" d="M402.5 430.5v53h-53v-53h53m4-4h-61v61h61v-61z"/><path class="st0" d="M418.5 428.5h57v57h-57z"/><path class="st6" d="M473.5 430.5v53h-53v-53h53m4-4h-61v61h61v-61z"/><path class="st0" d="M489.5 428.5h57v57h-57z"/><path class="st6" d="M544.5 430.5v53h-53v-53h53m4-4h-61v61h61v-61z"/><path class="st0" d="M560.5 428.5h57v57h-57z"/><path class="st6" d="M615.5 430.5v53h-53v-53h53m4-4h-61v61h61v-61z"/><path class="st0" d="M631.5 428.5h57v57h-57z"/><path class="st6" d="M686.5 430.5v53h-53v-53h53m4-4h-61v61h61v-61z"/><path class="st0" d="M347.5 508h57v57h-57z"/><path class="st6" d="M402.5 510v53h-53v-53h53m4-4h-61v61h61v-61z"/><path class="st0" d="M418.5 508h57v57h-57z"/><path class="st6" d="M473.5 510v53h-53v-53h53m4-4h-61v61h61v-61z"/><path class="st0" d="M489.5 508h57v57h-57z"/><path class="st6" d="M544.5 510v53h-53v-53h53m4-4h-61v61h61v-61z"/><path class="st0" d="M560.5 508h57v57h-57z"/><path class="st6" d="M615.5 510v53h-53v-53h53m4-4h-61v61h61v-61z"/><path class="st0" d="M631.5 508h57v57h-57z"/><path class="st6" d="M686.5 510v53h-53v-53h53m4-4h-61v61h61v-61z"/><path class="st0" d="M452.4 610h57v95h-57z"/><path class="st6" d="M507.4 612v91h-53v-91h53m4-4h-61v99h61v-99z"/><path fill="#c1c4c5" d="M628.7 621.4h50V705h-50z"/><path class="st6" d="M676.7 623.4V703h-46v-79.6h46m4-4h-54V707h54v-87.6z"/><path class="st4" d="M42.2 567.8h304v150h-304z"/><path class="st4" d="M58.2 547.8h249v29h-249z"/><path class="st4" d="M205.2 498.8h104v90h-104zm-73-136h1c16.6 0 30 13.4 30 30v156h-61v-156c0-16.5 13.5-30 30-30z"/><path class="st4" d="M262.2 362.8h1c16.6 0 30 13.4 30 30v156h-61v-156c0-16.5 13.5-30 30-30z"/><path class="st4" d="M253.2 356.8h18v18h-18zm-19.6 84h-34.3c-3.3 0-6-2.7-6-6v-84.3c0-3.3-2.7-6-6-6h-44.7c-3.3 0-6 2.7-6 6v11.3c0 3.3-2.7 6-6 6s-6-2.7-6-6v-23.3c0-3.3 2.7-6 6-6h68.7c3.3 0 6 2.7 6 6v84.3c0 3.3 2.7 6 6 6h22.3c3.3 0 6 2.7 6 6 0 3.4-2.7 6-6 6z"/><path class="st4" d="M217.6 503.8c-2.8 0-5-2.2-5-5v-91.7c0-2.8 2.2-5 5-5h18c2.8 0 5 2.2 5 5s-2.2 5-5 5h-8c-2.8 0-5 2.2-5 5v81.7c0 2.8-2.3 5-5 5z"/><path class="st4" d="M237.1 473h-55.8c-1.9 0-3.5-1.6-3.5-3.5v-40.3c0-1.9-1.6-3.5-3.5-3.5h-20.5c-1.9 0-3.5-1.6-3.5-3.5s1.6-3.5 3.5-3.5h27.5c1.9 0 3.5 1.6 3.5 3.5v40.3c0 1.9 1.6 3.5 3.5 3.5h48.8c1.9 0 3.5 1.6 3.5 3.5s-1.6 3.5-3.5 3.5zM80.2 551.5c-3.3 0-6-2.7-6-6v-102c0-3.3 2.7-6 6-6h23c3.3 0 6 2.7 6 6s-2.7 6-6 6h-11c-3.3 0-6 2.7-6 6v90c0 3.3-2.7 6-6 6z"/><path d="M85.2 596.8h36v18h-36zm0 26h36v18h-36zm43-26h36v18h-36zm0 26h36v18h-36zm43-26h36v18h-36zm0 26h36v18h-36zm43-26h36v18h-36zm0 26h36v18h-36zm43-26h36v18h-36zm0 26h36v18h-36z" fill="#dededf"/><path class="st3" d="M433.9 210.8c-1.5 0-2.9-.8-3.6-2.3L419.1 185l-26.6 12.7c-2 1-4.4.1-5.3-1.9L376 172.3l-23.5 11.2c-2 1-4.4.1-5.3-1.9-1-2-.1-4.4 1.9-5.3l27.1-12.9c1-.5 2.1-.5 3.1-.2 1 .4 1.8 1.1 2.3 2l11.2 23.5 26.6-12.7c2-1 4.4-.1 5.3 1.9l12.9 27.1c1 2 .1 4.4-1.9 5.3-.7.4-1.2.5-1.8.5zm584.3 203.8c-.7 0-1.3-.2-1.9-.6-.8-.7-1.3-1.7-1.1-2.8l5.8-39.8c.2-1.1.9-2 1.9-2.4 1-.4 2.1-.2 3 .4l31.6 24.9c.8.7 1.3 1.7 1.1 2.8-.2 1.1-.9 2-1.9 2.4l-37.4 14.9c-.3.1-.7.2-1.1.2zm8-37.2l-4.3 29.5 27.7-11-23.4-18.5z"/><circle class="st3" cx="995.6" cy="464.9" r="6.3"/></svg>