<svg version="1.1" id="Capa_1" xmlns="http://www.w3.org/2000/svg" x="0" y="0" viewBox="0 0 685.3 640.1" xml:space="preserve"><style>.st1{fill:#e5e9ea}.st2{fill:#c1c4c5}.st3{fill:#0795ff}.st4{fill:#394c98}</style><path class="st1" d="M413.3 333.9h116.4v196H413.3z"/><path class="st2" d="M427.8 346.4h91.9v169.5h-91.9z"/><path class="st3" d="M165 333.7h239.8v190H165z"/><path class="st4" d="M160.1 273.3l27-71.6h338l28.8 72zM551 520.8V308.2H160.8V544H551v-23.2zm-188.6 0H210.5m-12.2 0H182v-177h213.2v177.1h-20.4m140.2-.1v-.2h-95.8v.2h4.3V343.1h100.3v177.7H515z"/><circle class="st3" cx="527.8" cy="119.8" r="7.3"/><path class="st3" d="M102 403.2c-14.3 0-25.9-11.6-25.9-25.9s11.6-25.9 25.9-25.9c14.3 0 25.9 11.6 25.9 25.9s-11.6 25.9-25.9 25.9zm0-43.6c-9.7 0-17.6 7.9-17.6 17.6 0 9.7 7.9 17.6 17.6 17.6s17.6-7.9 17.6-17.6c.1-9.7-7.8-17.6-17.6-17.6zm478.6-177.3c-.7 0-1.4-.2-1.9-.6-.8-.5-1.3-1.3-1.5-2.2l-4.1-19.9c-.4-1.9.8-3.8 2.8-4.2l19.9-4.1c.9-.2 1.9 0 2.7.5.8.5 1.3 1.3 1.5 2.2l4.1 19.9c.4 1.9-.8 3.8-2.8 4.2l-19.9 4.1c-.3.1-.5.1-.8.1zm.1-20.8l2.7 13 13-2.7-2.7-13-13 2.7z"/><path d="M196.1 304.4c0 12.7 10.3 23 23 23s23-10.3 23-23V290h-46v14.4zm91.9 0c0 12.7 10.3 23 23 23s23-10.3 23-23V290h-46v14.4zm92 0c0 12.7 10.3 23 23 23s23-10.3 23-23V290h-46v14.4zm91.9-14.4v14.3c0 12.7 10.3 23 23 23s23-10.3 23-23V290h-46z" fill="#e0e0e0"/><path d="M196.1 290h46l5.5-16.7h-43.8zm91.9 0h46l1.1-16.7h-43.8zm90.9-16.7L380 290h45.9l-3.3-16.7zm131.3 0h-43.8l5.5 16.7h46z" fill="#eee"/><path d="M150.1 304.4c0 12.7 10.3 23 23 23s23-10.3 23-23V290h-46v14.4zm92 0c0 12.7 10.3 23 23 23s23-10.3 23-23V290h-46v14.4zm91.9 0c0 12.7 10.3 23 23 23s23-10.3 23-23V290h-46v14.4zm91.9 0c0 12.7 10.3 23 23 23s23-10.3 23-23V290h-46v14.4zm92-14.4v14.3c0 12.7 10.3 23 23 23s23-10.3 23-23V290h-46z" fill="#0783de"/><path class="st3" d="M150.1 290h46l7.7-16.7H160zm92 0H288l3.3-16.7h-43.7zm93-16.7L334 290h46l-1.1-16.7zm87.5 0l3.3 16.7h46l-5.5-16.7zm131.3 0h-43.7l7.7 16.7h45.9z"/><circle class="st4" cx="442.2" cy="430.6" r="5.9"/><path fill="none" stroke="#e5e9ea" stroke-width="4" stroke-miterlimit="10" d="M183.6 345.2h209.8v174.3H183.6z"/><path class="st4" d="M208.8 453.2h144.8v17H208.8z"/><path class="st4" d="M217.3 460.3h11.4v57.1h-11.4zm115.1 0h11.4v57.1h-11.4z"/><path class="st2" d="M220.2 407.7h31.2v45.4h-31.2zm92.3 18.5h29.8v27h-29.8z"/><path class="st1" d="M264.2 389.3H304v63.9h-39.8z"/></svg>