<svg xmlns="http://www.w3.org/2000/svg" width="14" height="20"><g data-name="Group 2468"><g data-name="Group 2413"><g data-name="Group 2410"><path data-name="Path 697" d="M13.961 1.2l-1.989 9-1.989-.4 1.79-7.8H2.326l1.691 7.8-1.989.4-1.989-9a.78.78 0 0 1 .2-.8.9.9 0 0 1 .8-.4h11.927a.9.9 0 0 1 .8.4.78.78 0 0 1 .195.8z" fill="#a2a2a2"/></g><g data-name="Group 2412"><g data-name="Group 2411"><path data-name="Path 698" d="M10.978 19.991c-.2 0-.3 0-.4-.1l-3.58-1.8-3.58 1.8a1.084 1.084 0 0 1-1.094-.1.908.908 0 0 1-.3-1l.895-3.6-1.785-2.594a.912.912 0 0 1 0-1 1.043 1.043 0 0 1 .895-.5h2.387l1.691-3.4a1.026 1.026 0 0 1 1.79 0l1.691 3.4h2.387a1.043 1.043 0 0 1 .895.5.912.912 0 0 1 0 1l-1.79 2.6.895 3.6a.908.908 0 0 1-.3 1 1.432 1.432 0 0 1-.697.194zm-3.978-4c.2 0 .3 0 .4.1l2.088 1-.5-1.9a1.067 1.067 0 0 1 .1-.8l.994-1.4H8.989a.956.956 0 0 1-.895-.6L7 10.191l-1.094 2.2a1.143 1.143 0 0 1-.895.6H3.918l.994 1.4a.758.758 0 0 1 .1.8l-.5 1.9 2.088-1a.6.6 0 0 1 .4-.094z" fill="#a2a2a2"/></g></g></g><g data-name="Group 2416"><path data-name="Path 699" d="M8.392 5.299v.7H5.907v-.6l1.193-1.1a.545.545 0 0 0 .3-.5c0-.2-.1-.3-.4-.3a.858.858 0 0 0-.6.3l-.7-.4a1.425 1.425 0 0 1 1.293-.7 1.058 1.058 0 0 1 1.193 1 1.352 1.352 0 0 1-.5 1l-.6.6h1.293z" fill="#a2a2a2"/></g></g></svg>