<svg data-name="Group 2467" xmlns="http://www.w3.org/2000/svg" width="14" height="20"><g data-name="Group 2405"><g data-name="Group 2402"><path data-name="Path 694" d="M14 1.2l-2 9-2-.4L11.8 2H2.3L4 9.8l-2 .4-2-9A1.077 1.077 0 0 1 .2.4.91.91 0 0 1 1 0h12a.91.91 0 0 1 .8.4 1.077 1.077 0 0 1 .2.8z" fill="#ffad17"/></g><g data-name="Group 2404"><g data-name="Group 2403"><path data-name="Path 695" d="M11 19.991c-.2 0-.3 0-.4-.1L7 18.097l-3.6 1.8a1.1 1.1 0 0 1-1.1-.1.9.9 0 0 1-.3-1l.9-3.6-1.8-2.6a.908.908 0 0 1 0-1 .961.961 0 0 1 .9-.6h2.4l1.7-3.4a1.034 1.034 0 0 1 1.8 0l1.7 3.4H12a1.05 1.05 0 0 1 .9.5.908.908 0 0 1 0 1l-1.8 2.6.9 3.6a.9.9 0 0 1-.3 1 1.33 1.33 0 0 1-.7.294zm-4-3.994c.2 0 .3 0 .4.1l2.1 1-.5-1.9a1.344 1.344 0 0 1 .2-.8l1-1.4H9a.961.961 0 0 1-.9-.6l-1.1-2.2-1.1 2.2a.961.961 0 0 1-.9.6H3.9l1 1.4a2.483 2.483 0 0 1 .1.8l-.5 1.9 2.1-1c.1-.1.2-.1.4-.1z" fill="#ffad17"/></g></g></g><g data-name="Group 2406"><path data-name="Line 3" fill="#767677" d="M8.5 1.999h-3"/></g><g data-name="Group 2407"><path data-name="Line 4" fill="#767677" d="M8.5 1.999h-3"/></g><g data-name="Group 2408"><path data-name="Path 696" d="M7.6 2.799v3.2h-.9v-2.5h-.6v-.7z" fill="#ffad17"/></g></svg>