<?xml version="1.0" encoding="utf-8"?>
<!-- Generator: Adobe Illustrator 22.1.0, SVG Export Plug-In . SVG Version: 6.00 Build 0)  -->
<svg version="1.1" id="Layer_1" xmlns="http://www.w3.org/2000/svg" xmlns:xlink="http://www.w3.org/1999/xlink" x="0px" y="0px"
	 viewBox="0 0 1056.2 999" style="enable-background:new 0 0 1056.2 999;" xml:space="preserve">
<style type="text/css">
	.st0{opacity:0.82;fill:#EEF5FB;enable-background:new    ;}
	.st1{opacity:0.2;fill:#D5E1F4;enable-background:new    ;}
	.st2{opacity:0.72;fill:#CFE2F6;enable-background:new    ;}
	.st3{opacity:0.82;fill:#C9DBEC;enable-background:new    ;}
	.st4{opacity:0.39;fill:#FFFFFF;enable-background:new    ;}
	.st5{fill:#49070B;}
	.st6{fill:#320304;}
	.st7{fill:#F19200;}
	.st8{fill:#E26906;}
	.st9{fill:#F7CCA9;}
	.st10{fill:#FFFFFF;}
	.st11{fill:#D84914;}
	.st12{fill:#FBCE00;}
	.st13{fill:#951F23;}
	.st14{fill:#C3BC4B;}
	.st15{fill:#B22424;}
	.st16{fill:#85A828;}
	.st17{fill:#6F8931;}
	.st18{fill:#FDDA5B;}
	.st19{fill:#EB8F00;}
	.st20{fill:#EF874F;}
	.st21{fill:#E10414;}
	.st22{fill:#F9CE30;}
	.st23{opacity:0.48;fill:none;stroke:url(#SVGID_1_);stroke-miterlimit:10;enable-background:new    ;}
	.st24{opacity:0.48;fill:none;stroke:url(#SVGID_2_);stroke-miterlimit:10;enable-background:new    ;}
	.st25{opacity:0.48;fill:none;stroke:url(#SVGID_3_);stroke-miterlimit:10;enable-background:new    ;}
	.st26{opacity:0.48;fill:none;stroke:url(#SVGID_4_);stroke-miterlimit:10;enable-background:new    ;}
	.st27{fill:#1EA07C;}
	.st28{opacity:0.6;}
	.st29{fill:#808080;}
	.st30{fill:#F4CC6A;}
	.st31{fill:#FFFFFF;stroke:#F4CC6A;stroke-width:0.5;stroke-miterlimit:10;}
	.st32{fill:#1B3D7A;}
	.st33{opacity:0.24;fill:url(#SVGID_5_);enable-background:new    ;}
	.st34{fill:#3F4042;}
	.st35{fill:#2D3324;}
	.st36{fill:#003D86;}
	.st37{fill:#003473;}
	.st38{fill:#00397E;}
	.st39{fill:#003677;}
	.st40{fill:#E4AC9A;}
	.st41{fill:#00387B;}
	.st42{fill:#F1BBAB;}
	.st43{fill:#FFC8BF;}
	.st44{fill:#4A2B12;}
	.st45{fill:#003B81;}
	.st46{fill:#0000FF;}
	.st47{fill:#BCBEC0;}
	.st48{fill:#FF0000;}
	.st49{fill:#4F0B42;}
	.st50{font-family:'Gilroy-ExtraBold';}
	.st51{font-size:4.518px;}
	.st52{font-family:'Gilroy-Light';}
	.st53{font-size:3.3884px;}
	.st54{fill:url(#SVGID_6_);}
	.st55{fill:url(#SVGID_7_);}
	.st56{fill:url(#SVGID_8_);}
	.st57{fill:url(#SVGID_9_);}
	.st58{fill:url(#SVGID_10_);}
	.st59{opacity:0.63;fill:url(#SVGID_11_);enable-background:new    ;}
	.st60{opacity:0.65;fill:url(#SVGID_12_);enable-background:new    ;}
	.st61{fill:url(#SVGID_13_);}
</style>
<g>
	<g>
		<polygon id="XMLID_1_" class="st0" points="807.2,760.4 807.2,415.1 334.9,142.4 334.9,487.7 		"/>
		<polygon class="st1" points="335.8,486.9 352.4,475.1 824.4,747.6 808.1,760.3 808.1,759.6 		"/>
		<polygon class="st2" points="823.8,403.3 823.8,748.6 807.2,758.7 807.2,415.8 823.5,403.1 		"/>
		<polygon class="st3" points="334.9,142.4 351.5,130.6 823.5,403.1 807.2,415.8 807.2,415.1 		"/>
	</g>
	<polygon class="st4" points="568.4,277.6 503.4,239.8 629.4,657 698.4,695.9 	"/>
	<polygon class="st4" points="477.6,225.3 465.4,218.9 591.4,633.1 607.6,643.5 	"/>
</g>
<g>
	<g>
		<g>
			<path class="st5" d="M450.4,479.3L450.4,479.3c-0.1,0-0.1,0-0.2,0s-0.1-0.1-0.2-0.2c0-0.1-0.1-0.2-0.1-0.2c0-0.1,0-0.1,0.1-0.1
				h0.1c0.1,0,0.1,0,0.2,0s0.1,0.1,0.2,0.2s0.1,0.2,0.1,0.2c0,0.1,0,0.1-0.1,0.1l0,0l-0.1-0.2c0,0,0,0,0.1,0s0-0.1,0-0.1
				s0-0.1-0.1-0.1h-0.1h-0.1c0,0-0.1,0-0.1,0.1v0.1c0,0,0,0.1,0.1,0.1h0.1L450.4,479.3z"/>
			<path class="st5" d="M453.5,482.6c-0.3,0.1-0.6,0.1-1-0.1s-0.7-0.5-1-1s-0.5-0.9-0.5-1.2c0-0.4,0.1-0.6,0.4-0.7l0.4-0.2
				c0.3-0.1,0.6-0.1,1,0.1s0.7,0.5,1,1s0.5,0.9,0.5,1.2c0,0.4-0.1,0.6-0.4,0.7L453.5,482.6z M453.4,481.5c0.2-0.1,0.3-0.2,0.3-0.4
				c0-0.2,0-0.4-0.2-0.6s-0.3-0.4-0.5-0.5s-0.4-0.1-0.5,0l-0.4,0.2c-0.2,0.1-0.3,0.2-0.3,0.4c0,0.2,0,0.4,0.2,0.6
				c0.1,0.2,0.3,0.4,0.5,0.4c0.2,0.1,0.4,0.1,0.5,0L453.4,481.5z"/>
			<path class="st5" d="M456,483.3l-0.7,1.9l0,0l2-0.4l0.9,1l-1.9,1.6l-0.6-0.8l0.5-0.4l0.9-0.7l0,0l-2,0.3l-0.4-0.5l0.7-1.9l0,0
				l-0.8,0.8l-0.5,0.4l-0.6-0.8l1.9-1.6L456,483.3z"/>
			<path class="st5" d="M458.3,488.4l-0.5,0.7l-0.7-0.7l1.4-2.2l1.3,1.2c0.4,0.4,0.6,0.7,0.7,1.1c0.1,0.3,0.1,0.6,0,0.8
				c-0.1,0.2-0.4,0.3-0.7,0.2c-0.3-0.1-0.6-0.3-1-0.7L458.3,488.4z M458.5,488l0.5,0.5c0.2,0.2,0.3,0.2,0.4,0.3c0.1,0,0.2,0,0.3-0.1
				c0.1-0.1,0.1-0.2,0-0.4c0-0.1-0.1-0.3-0.3-0.4l-0.5-0.5L458.5,488z"/>
			<path class="st5" d="M461.8,492.1l-1-0.9l-0.4,0.3l-0.8-0.6l2-1.7l0.8,0.7l0.1,3.4l-0.8-0.6L461.8,492.1z M461.1,490.9l0.7,0.6
				v-1.2l0,0L461.1,490.9z"/>
			<path class="st5" d="M466,495.8l-0.8-0.5l-0.9-2.7l0,0l-0.3,1.9l-0.8-0.5l0.5-3l0.8,0.5l0.9,2.7l0,0l0.3-1.9l0.8,0.5L466,495.8z"
				/>
			<path class="st5" d="M468.1,495.1L468.1,495.1l0.7-1.1l0.9,0.5l-1.1,1.5v1.1l-0.8-0.4v-1.2l-1.2-2.7l0.9,0.5L468.1,495.1z"/>
			<path class="st5" d="M474.4,499.5l-0.8-0.3l-1.7-2.7l0,0l0.5,2.3l-0.8-0.3l-0.7-3.6l0.8,0.3l1.7,2.7l0,0l-0.5-2.3l0.8,0.3
				L474.4,499.5z"/>
			<path class="st5" d="M476.8,499.3l-1-0.2l0.1,0.7l-0.7-0.1l-0.2-3.5l0.8,0.1l2.3,3.9l-0.7-0.1L476.8,499.3z M475.7,498.5l0.7,0.1
				l-0.8-1.4l0,0L475.7,498.5z"/>
			<path class="st5" d="M477.6,496.5l1.9,2.6l0,0l-0.6-2.6h0.9l1.8,3.7h-0.7l-0.4-0.9l-0.8-1.7l0,0l0.6,2.7h-0.5l-1.9-2.6l0,0
				l0.9,1.7l0.4,0.9h-0.7l-1.8-3.7L477.6,496.5z"/>
			<path class="st5" d="M483,497.9l-1,0.3l0.6,0.9l1.2-0.3l0.4,0.7l-1.8,0.5l-2.2-3.7l1.8-0.5l0.4,0.7l-1.2,0.3l0.5,0.8l1-0.3
				L483,497.9z"/>
		</g>
		<g>
			<path class="st6" d="M492.2,482.7c-1.3-6-4.4-12.4-8.8-18c-4.2-5.5-9.6-10.4-15.4-13.6s-11.2-4.2-15.4-3.4
				c-4.3,0.9-7.5,3.7-8.9,8.3l-0.5-0.4c1.4-4.6,4.6-7.6,9-8.5c4.3-0.9,9.8,0.2,15.7,3.5c5.9,3.3,11.4,8.2,15.7,13.8
				c4.4,5.7,7.6,12.2,8.9,18.3L492.2,482.7L492.2,482.7z M443.7,467L443.7,467c1.3,6,4.4,12.4,8.8,18c4.2,5.5,9.6,10.4,15.4,13.6
				s11.2,4.2,15.4,3.4c4.3-0.9,7.5-3.7,8.9-8.3l0.5,0.4c-1.4,4.6-4.6,7.6-9,8.5c-4.3,0.9-9.8-0.2-15.7-3.5
				c-5.9-3.3-11.4-8.2-15.7-13.8c-4.4-5.8-7.6-12.2-8.9-18.3L443.7,467z"/>
		</g>
		<g>
			<g>
				<path class="st6" d="M475.7,464C475.7,464,475.8,464.1,475.7,464c0.4,0.2,0.7,0.5,0.8,0.8c0.1,0.2,0.1,0.4,0.2,0.6
					c0.1,0.5,0.2,0.9,0.3,1.4l0,0c0.1,0,0.4-0.3,0.6-0.2c0.7,0.5,0.3,3.7,0.3,4.1c1.5,0.8,1.5,0.6,0.9,1.6l-1.6,2.7l-0.7-0.9
					c-0.4-0.6-0.9-1.2-1.4-1.7c-1.2-1.3-2.5-2.5-3.8-3.6c-4.6-3.6-9-4.7-12.7-4.1l-0.5,0.1l-0.4-0.6c-0.1-0.2-0.2-0.4-0.3-0.6
					c-0.3-0.6-0.4-1-0.6-1.6c-0.9-2.5,0.4-1.1,0.4-1.1c-0.8-2.5-0.9-2.9-0.5-2.6c0.2,0.1,0.4,0.4,0.8,0.7c0-0.8-0.1-4.6,0.5-4
					c0,0,0.1,0,0.1,0.1c0.2,0.1,0.4,0.7,0.6,0.9c0.2-0.6,0.4-2.6,1.4-2.1c0.2,0.1,0.3,0.2,0.5,0.4l0.1,0.1c0.1-0.2,0.1-0.3,0.2-0.4
					c0.2-0.4,0.7-1.2,1.4-0.7c0.2,0.1,0.3,0.4,0.4,0.6c0,0.1,0.1,0.1,0.2,0.2c0.1-0.1,0.2-0.3,0.3-0.4c0.1-0.2,0.3-0.5,0.5-0.6
					c0.3-0.1,0.6-0.4,1-0.1c0.3,0.2,0.5,1.2,0.6,1.4c0.1-0.1,0.1-0.2,0.2-0.2c0.3-0.3,0.7-2,1.4-1.5c0.1,0.1,0.8,1.9,0.9,2.2
					c0.2-0.4,0.8-0.9,1.1-0.8c0.4,0.2,1.2,2.9,1.4,3.4c0.2-0.1,0.5-0.7,0.8-0.5c0.6,0.4,0.8,1,0.9,1.5l0,0c0.1,0,0.1,0,0.2,0
					c0.4-0.1,1.3-0.3,1.7,0c0.3,0.3,0.6,2.3,0.7,2.7l0,0c0.3,0.1,0.6,0.4,0.7,0.7c0.2,0.4,0.4,1,0.4,1.4
					C475.7,463.8,475.7,463.9,475.7,464z"/>
			</g>
			<g>
				<path class="st7" d="M458.1,464.1c-0.9-1.5-1.5-3.3-1.1-2.9s0.7,0.5,0.7,0.4s-0.8-2.4-0.6-2.3c0.2,0.1,0.7,0.5,0.7,0.5
					s-0.2-4,0.2-3.9c0.4,0.1,0.9,1.3,1.2,0.6c0.3-0.7,0.6-2.4,0.9-1.9c0.4,0.5,0.8,1.3,0.9,0.9s0.9-2,1.2-1.5c0.3,0.5,0.8,1.3,1,1
					c0.1-0.3,0.9-1.4,1.3-1.1c0.3,0.3,0.3,1.2,0.8,1.2s1.2-1.7,1.5-1c0.4,0.7,0.9,2.6,1,2.4c0.2-0.2,0.7-2.1,1.2-1.1
					c0.4,1,0.9,2.9,1.2,2.7c0.2-0.2,0.8-0.9,1.1,0.4c0.3,1.3,0.2,1.1,1.2,0.9c0.9-0.2,1-0.5,1.5,1.9s0.4,0.3,0.8,1s0.5,2.3,0.8,2.5
					s0.3-0.9,0.6,0.3c0.3,1.2,0.2,2.1,0.5,2.3c0.3,0.2,0.6-0.5,0.7,0.3s0.1,3.1,0.1,3.1l0.9,0.5l-1.5,2.4
					C476.9,473.9,468.5,462.5,458.1,464.1z"/>
			</g>
			<g>
				<path class="st8" d="M458.4,456.3c0.2,0.2,0.3,0.4,0.5,0.5c0.2,0.3,0.5,0.6,0.7,0.1c0.2-0.6,0.5-1.9,0.8-2
					c0.2,0.4,0.5,0.8,0.6,0.7c0.2,0.3,0.4,0.5,0.4,0.2c0.1-0.4,0.6-1.5,1-1.6c0.2,0.4,0.5,0.8,0.7,0.8c0.2,0.3,0.4,0.5,0.5,0.3
					c0.1-0.3,0.7-1.1,1.1-1.1c0.1,0.4,0.2,0.9,0.6,0.9c0.1,0.2,0.2,0.3,0.4,0.3c0.4,0,0.9-1.1,1.3-1.2c0.4,0.8,0.8,2.4,0.9,2.2
					c0,0,0-0.1,0.1-0.1c0.1,0.3,0.2,0.5,0.3,0.5c0.1-0.1,0.5-1.2,0.8-1.3c0.4,1.1,0.9,2.9,1.2,2.7c0,0,0,0,0.1,0
					c0.1,0.3,0.2,0.4,0.3,0.4c0.1-0.1,0.4-0.4,0.6-0.4c0,0.1,0.1,0.3,0.1,0.4c0.2,0.9,0.2,1.1,0.5,1c0.2,0.5,0.3,0.3,1,0.2
					c0.3-0.1,0.5-0.1,0.7-0.1c0.1,0.3,0.2,0.8,0.4,1.7c0.3,1.4,0.4,1.2,0.5,1c0.2,0.8,0.3,0.4,0.4,0.3c0.3,0.8,0.4,2.1,0.7,2.3
					c0.1,0.1,0.1,0,0.2,0c0.1,0.2,0.1,0.3,0.2,0.4s0.2,0,0.2-0.1v0.1c0.3,1.2,0.2,2.1,0.5,2.3c0.1,0,0.1,0,0.2,0
					c0.1-0.1,0.3-0.3,0.4-0.2c0,0,0.1,0.1,0.1,0.2c0.1,0.2,0.1,0.5,0.1,0.6c0.1,1,0.1,2.7,0.1,2.7c0.1,0.1,0.9,0.4,0.9,0.5l-0.1,0.1
					l-1.4,2.3c-0.5-0.6-1.5-1.9-3-3.2c-3.3-3.2-9.1-7.4-15.6-6.5c-0.8-1.4-1.2-2.9-0.9-2.5c0.4,0.4,0.7,0.5,0.7,0.4
					s-0.8-2.4-0.6-2.3c0.2,0.1,0.7,0.5,0.7,0.5S457.9,456.2,458.4,456.3L458.4,456.3z"/>
			</g>
			<g>
				<path class="st6" d="M457.8,462.9c0-0.2,0-0.4,0-0.7c0.3-5,4.9-6.3,10.4-2.9c4.8,2.9,8.6,8.3,9.2,13.1c0.7,0.5,1.3,1.2,1.7,2
					c0.4,0.7,0.5,1.4,0.4,1.9c-0.2,1.3-1.5,1.6-3,0.7c-1.7,2.6-5.4,2.9-9.5,0.4c-3.2-2-6.1-5.3-7.8-8.8c-0.2-0.1-0.3-0.2-0.5-0.3
					c-1.5-0.9-2.7-2.7-2.6-4.1C456.2,463.3,456.8,462.8,457.8,462.9z"/>
			</g>
			<g>
				<path class="st9" d="M468.1,459.5c-5.1-3.1-9.4-1.7-9.7,3.1c0,0.3,0,0.7,0,1.1c-0.9-0.3-1.6,0-1.7,0.9c-0.1,1,0.8,2.5,2,3.2
					c0.3,0.2,0.5,0.3,0.8,0.3c1.5,3.4,4.2,6.8,7.5,8.7c4,2.5,7.6,2,9.1-0.7c0.1,0.1,0.2,0.2,0.3,0.2c1.2,0.7,2.2,0.5,2.4-0.5
					c0.2-1-0.7-2.4-1.8-3.1c-0.1-0.1-0.2-0.1-0.2-0.1C476.5,468.1,472.8,462.4,468.1,459.5z"/>
			</g>
			<g>
				<path class="st6" d="M468.1,467.1c-2.9-1.7-5.9-2.4-7.1-1.5c-0.3,0.3-0.1,1-0.2,1.4c-0.3,2.2,2.4,5.8,6.1,8s6.9,2.2,7.3,0
					c0.1-0.8,0.6-1.4,0-2.5C473.1,470.8,470.4,468.5,468.1,467.1z"/>
			</g>
			<g>
				<path class="st10" d="M463.2,466.1c0.9-0.2,2.8,0.3,5.2,1.7c2.4,1.4,2.6,1.8,2.3,1.8C470.4,469.8,465.7,468,463.2,466.1z"/>
			</g>
			<g>
				<g>
					<path class="st11" d="M467.9,474.6c-5.8-2.8-10.3-1-10,2.2c0.5,6.5,21.6,16.5,21.1,10.1C478.7,483.7,473.7,477.4,467.9,474.6z"
						/>
				</g>
				<g>
					<path class="st12" d="M458.1,475.4c0.9,1.6,2.2,3.7,3.1,5.1c1.3,2.1,0.7,1.5,2.6,1.8c1.4,0.2,2.8,0.6,5.6,1.2
						c3,0.6,7,2.4,9,3.4c2.5,1.2,2.8,1.6,1.2-0.6l-3.4-4.4C476.3,481.9,465.2,475.1,458.1,475.4z"/>
				</g>
				<g>
					<path class="st13" d="M468.4,477.4c6.3,3,11.4,5.5,11.6,7.5s-4.8,1.2-11.1-1.8c-6.3-3-11.5-7.1-11.7-9.1
						C457,472,462.1,474.4,468.4,477.4z"/>
				</g>
				<g>
					<path class="st14" d="M457.5,469.6c-0.5-0.4-2-0.8-2.2-0.1c-0.1,0.7,0.4,1.5,0.9,1.9s0.7,0.5,0.6,1.5c-0.1,0.9,0.4,2.4,2,2.7
						c1.6,0.4,2,0.8,3,2.3c1,1.6,2.3,2.1,3.6,1.9c1.2-0.2,2.7,1.3,4.4,2.6c1.7,1.3,2.4,0.8,3.5,0.5s1.8,0.9,3.2,2
						c1.4,1.1,1.6,0.4,2.4-0.7s0.8-0.8,1.7-0.9c0.9-0.1,1.1-1.2-0.3-2.6s-2.5-2-4.2-3C474.3,476.8,457.5,469.6,457.5,469.6z"/>
				</g>
				<g>
					<path class="st11" d="M467.5,469.2c-5.8-2.8-10.3-1.7-10.1,1c0.2,2.7,5,5.9,10.8,8.7c5.8,2.8,10.5,4.1,10.3,1.4
						C478.3,477.6,473.3,472,467.5,469.2z"/>
				</g>
			</g>
			<g>
				<path class="st6" d="M463.3,462.1c-0.5-1.1-1.7-1.5-2.2-0.8c-0.1,0.1-0.3,0.1-0.4-0.1c-0.2-0.2-0.2-0.4-0.2-0.5
					c0.8-1,2.6-0.3,3.4,1.5c0.1,0.2,0,0.3-0.2,0.3C463.6,462.5,463.4,462.3,463.3,462.1z"/>
			</g>
			<g>
				<path class="st6" d="M470.1,465.6c0.7-0.7,1.7,0.3,2.4,1.5c0.1,0.2,0.3,0.3,0.4,0.3s0.2-0.2,0.1-0.4c-1.1-1.8-2.5-3-3.5-2.1
					c-0.1,0.1,0,0.3,0.1,0.5S470,465.7,470.1,465.6z"/>
			</g>
			<g>
				<path class="st6" d="M479.6,484.1c0.2,0.4,0.3,0.7,0.3,1.1c0,0.5-0.1,0.8-0.4,1c0.2,0.3,0.5,0.6,0.7,0.9
					c0.3,0.4,0.5,0.3,0.4,0.6c-0.1,0.3-0.6,0.2-1,0c-0.2-0.1-0.5-0.2-0.7-0.4c0,0.1,0,0.1,0,0.2c-1.5,4.6-13.2-0.6-17.7-4.2
					c-1.7-1.4-3.7-3.5-4.4-5.5c-0.2-0.4-0.2-0.8-0.3-1.2c0-0.3,0-0.7,0.1-1c-0.2-0.2-0.3-0.5-0.4-0.7c-0.5-0.8-0.7-1.9-0.7-2.5
					c0-0.1,0-0.3,0-0.4c-0.1-0.1-0.2-0.2-0.2-0.2c-0.9-0.8-1.4-2-1.2-2.8c0.1-0.6,0.7-0.7,1.3-0.6c0.3,0,0.6,0.1,0.9,0.2
					c0.5-1.2,2.1-1.7,3.4-1.8c2.1-0.1,4.6,0.5,7.1,1.7c2.4,1.1,4.9,2.9,7.1,5c1.5,1.4,3.2,3.4,4,5.2c0.7,0.5,1.3,1,2,1.7
					c0.8,0.9,1.5,1.9,1.3,2.8c-0.1,0.5-0.5,0.8-1,0.9C480,484.1,479.9,484.1,479.6,484.1C479.8,484.1,479.7,484.1,479.6,484.1z"/>
			</g>
			<g>
				<path class="st11" d="M456.7,474.6c0.1,0.3,0.4,0.6,0.6,1c-0.1,0.3-0.2,0.7-0.1,1.1c0.5,6.4,21,16.3,21.1,10.3
					c2.1,1,2.2,1.2,0.7-0.8l-0.4-0.5c0.4-0.2,0.7-0.5,0.6-0.9c0-0.4-0.2-0.8-0.6-1.2c0.4-0.4,0.6-0.2,1.2-0.3
					c0.9-0.1,1.1-1.2-0.3-2.6c-0.7-0.7-1.4-1.3-2.1-1.7c-1.2-2.9-5.6-7.5-10.7-9.9c-5.3-2.5-9.5-1.8-10.1,0.3
					c-0.6-0.3-2-0.7-2.1-0.1c-0.1,0.7,0.4,1.5,0.9,1.9s0.7,0.5,0.6,1.5C456.1,473.3,456.3,474,456.7,474.6z"/>
			</g>
			<g>
				<path class="st11" d="M467.3,474.5c-5.8-2.8-10.3-1-10,2.2c0.5,6.5,21.6,16.5,21.1,10.1C478.1,483.6,473.1,477.3,467.3,474.5z"
					/>
			</g>
			<g>
				<path class="st15" d="M458.6,474c-0.7,0.5-1.2,1.1-1.3,1.9c1.3,1.6,3.2,4.2,4,5.3c0.7,1,0.1,0.6,2.4,1.2
					c4.8,1.4,11.2,3.2,13.4,4.5c2.2,1.3,0.8,0.5,1.2,0.7c0.1-0.2,0.1-0.5,0.1-0.8c0-0.4-0.1-0.8-0.3-1.3c-3.8-2.7-9.7-6.7-12.9-8.6
					C462.4,475.3,460.1,474.2,458.6,474z"/>
			</g>
			<g>
				<path class="st12" d="M457.5,475.3c0.9,1.6,2.2,3.7,3.1,5.1c1.3,2.1,0.7,1.5,2.6,1.8c1.4,0.2,2.8,0.6,5.6,1.2c3,0.6,7,2.4,9,3.4
					c2.5,1.2,2.8,1.6,1.2-0.6l-3.4-4.4C475.6,481.8,464.6,475,457.5,475.3z"/>
			</g>
			<g>
				<path class="st6" d="M467.8,477.3c6.3,3,11.4,5.5,11.6,7.5s-4.8,1.2-11.1-1.8c-6.3-3-11.5-7.1-11.7-9.1
					C456.4,471.9,461.5,474.3,467.8,477.3z"/>
			</g>
			<g>
				<path class="st16" d="M456.9,469.5c-0.5-0.4-2-0.8-2.2-0.1c-0.1,0.7,0.4,1.5,0.9,1.9s0.7,0.5,0.6,1.5c-0.1,0.9,0.4,2.4,2,2.7
					c1.6,0.4,2,0.8,3,2.3c1,1.6,2.3,2.1,3.6,1.9c1.2-0.2,2.7,1.3,4.4,2.6c1.7,1.3,2.4,0.8,3.5,0.5s1.8,0.9,3.2,2
					c1.4,1.1,1.6,0.4,2.4-0.7s0.8-0.8,1.7-0.9c0.9-0.1,1.1-1.2-0.3-2.6s-2.5-2-4.2-3C473.7,476.8,456.9,469.5,456.9,469.5z"/>
			</g>
			<g>
				<path class="st17" d="M456.9,469.5c-0.3-0.2-0.9-0.4-1.4-0.5l0,0c0.1,3.5,4.8,7.7,11.4,10.8c6.5,3.1,12.5,3.9,12.7,0.8
					c-1.3-1.3-2.4-1.9-4.1-2.9C473.7,476.8,456.9,469.5,456.9,469.5z"/>
			</g>
			<g>
				<path class="st6" d="M466.8,468.7c2.6,1.3,5.5,3.3,7.8,5.7c1.5,1.6,3.5,4.1,3.6,5.9c0,0.3,0,0.6-0.1,0.8
					c-1,2.7-10.9-1.8-14.4-3.7c-1.1-0.6-2.4-1.4-3.5-2.2c-1.4-1-3.4-2.6-4-4.3c-0.1-0.3-0.2-0.6-0.2-0.9c-0.1-1.9,1.8-2.7,3.2-2.9
					C461.5,466.8,464.2,467.5,466.8,468.7z"/>
			</g>
			<g>
				<path class="st15" d="M466.9,469.1c-5.8-2.8-10.3-1.7-10.1,1c0.2,2.7,5,5.9,10.8,8.7c5.8,2.8,10.5,4.1,10.3,1.4
					C477.7,477.5,472.7,471.9,466.9,469.1z"/>
			</g>
			<g>
				<path class="st11" d="M466.9,469.1c-5.6-2.7-10-1.8-10.1,0.7l0,0c0.4,2.8,5.3,5.6,11,7.9c5,2,9,2.9,9.8,1.3
					C476.4,476.1,471.9,471.6,466.9,469.1z"/>
			</g>
			<g>
				<path class="st8" d="M475.1,476c-1.7-2.4-4.9-5.2-8.4-6.9c-2.8-1.3-5.2-1.7-6.9-1.3C453.8,469.2,481.5,484.9,475.1,476z"/>
			</g>
			<g>
				<path class="st8" d="M469,484.3c-3.8-1.1-5.8-0.6-1.7,1.4c4,2,9.3,3.6,10,2.6C477.9,487.2,476,486.6,469,484.3z"/>
			</g>
			<g>
				<path class="st18" d="M459.7,478.6c1.4,2,1.2,2.6,2.3,2.7c1.1,0.2,3.8,1.2,2.4,0.2c-1.4-1.1-3.3-2.1-4.4-3
					C459,477.7,459.7,478.6,459.7,478.6z"/>
			</g>
			<g>
				<path class="st8" d="M459.2,470.9c0.1,0.1,0,0.4-0.1,0.5c-0.2,0.2-0.6-0.3-0.4-0.5C458.8,470.8,459.1,470.8,459.2,470.9z"/>
			</g>
			<g>
				<path class="st11" d="M474.2,477.1c-0.1,0-0.1,0.3,0,0.6c0.1,0.3,0.6,0.4,0.4,0C474.5,477.5,474.3,477.1,474.2,477.1z"/>
			</g>
			<g>
				<path class="st11" d="M470.8,475.1c-0.1,0,0,0.4,0.1,0.6c0.2,0.4,0.6,0.4,0.4,0C471.2,475.5,470.9,475.1,470.8,475.1z"/>
			</g>
			<g>
				<path class="st11" d="M472.1,474.1c-0.1,0,0,0.4,0.1,0.6c0.2,0.4,0.6,0.4,0.4,0C472.5,474.5,472.2,474.1,472.1,474.1z"/>
			</g>
			<g>
				<path class="st19" d="M471.8,486.8c2.7,1,5.3,1,4,0.2c-0.7-0.4-2.3-0.8-4.2-1.4C466.1,483.6,463.9,483.8,471.8,486.8z"/>
			</g>
			<g>
				<path class="st8" d="M461.5,472c0.1,0.1,0,0.4-0.2,0.4c-0.2,0.1-0.6-0.3-0.4-0.5C461.1,471.9,461.4,471.9,461.5,472z"/>
			</g>
			<g>
				<path class="st6" d="M456.5,473.1c0.2,0.1,0.3,0.2,0.5,0.3c0.9,0.6,1.6,1.4,2.2,2.3c0.8,1.3,1.4,2.7,1.3,3.9
					c0,0.9-0.5,1.6-1.3,1.7c-0.4,0-0.8,0-1.2-0.2c-1-0.4-1.9-1.1-2.7-2.1c-2.3-2.9-2.2-5-1.5-7c0.1-0.3,0-0.8,0.1-1.1
					c0.2-0.4,0.7-0.5,1.4,0.1C455.9,471.5,456.3,472.4,456.5,473.1z"/>
			</g>
			<g>
				<path class="st9" d="M454.4,472.4c-0.1,0.4-0.3,0.7-0.4,1.1c-0.8,1.8,1.4,6.1,3.9,7c1.9,0.7,2.9-1.2,0.8-4.6
					c-0.2-0.4-0.5-0.8-0.8-1c-1.2-1.3-2-1-3.1-1.1c0.3-0.4,0.6-0.6,1.1-0.6c-0.1-0.3-0.2-0.9-0.4-1.2c-0.3-0.5-0.8-0.6-0.9-0.4
					C454.3,471.7,454.5,472.3,454.4,472.4z"/>
			</g>
			<g>
				<path class="st6" d="M478.6,484.1c0-0.1,0-0.3,0-0.4c0-0.5,0.2-0.9,0.6-0.9c0.5,0,1,0.5,1.4,1l0.1,0.2l0.1,0.2
					c0.3,0.8,0.7,1.5,1.1,2.3c1.2,2.3,1,4.5-0.2,5.4c-0.6,0.4-1.4,0.5-2.4,0c-0.4-0.2-0.9-0.5-1.3-0.8c-1-0.8-1.7-2-2-3.1
					c-0.4-1.3-0.2-2.4,0.3-3.2c0.4-0.5,0.9-0.8,1.7-0.7C478.3,484,478.5,484,478.6,484.1z"/>
			</g>
			<g>
				<path class="st9" d="M480.6,484.8c0.8,1.8,1.7,2.5,1.5,4.5c-0.3,2.3-1.6,2.4-2.8,1.9c-1.9-0.8-3.6-3.9-2.3-5.9
					c0.4-0.6,1.1-0.7,1.6-0.6l0,0c1.6,0.9,2.1,1.6,2.6,2.4c-0.2-0.9-0.5-1.6-2-2.6c0-0.3,0-0.8,0.2-1c0.1-0.1,0.3-0.1,0.5,0.1
					C480.3,483.9,480.5,484.5,480.6,484.8z"/>
			</g>
			<g>
				<path class="st6" d="M458.4,462.3c0,1.2,0.1,2.3,0.1,3.6c-0.6-1.6-0.6-2.7-0.6-4.1c0-0.2,0.2-0.2,0.3-0.1
					C458.4,461.8,458.4,462.1,458.4,462.3z"/>
			</g>
			<g>
				<path class="st20" d="M471.5,462.9c2.7,2.9,4.7,7.9,5,11.4c0-0.4,0.2-1.8,0-2.9c-0.8-4.3-4.2-9.3-8.4-11.9
					c-1.4-0.8-2.7-1.3-3.9-1.5C466.6,458.8,468.8,460,471.5,462.9z"/>
			</g>
			<g>
				<path class="st20" d="M477,473.3c0,0.1,0,0.2,0,0.4c0,0.3-0.1,0.6-0.2,0.9s-0.2,0.5-0.4,0.8c0-0.1,0-0.1,0-0.2l-0.1,0.3
					c0,0,1.8,0.8,2,0c0.1-0.5-0.2-1-0.6-1.5C477.5,473.8,477.3,473.6,477,473.3C477.1,473.4,477.1,473.4,477,473.3z"/>
			</g>
			<g>
				<path class="st20" d="M458.5,465.7c-0.1-0.3-0.2-0.6-0.2-0.8c-0.1-0.3-0.1-0.5-0.2-0.8c-0.2,0-0.3,0-0.5,0
					c-0.3,0.1-0.5,0.4-0.4,1c0.2,0.9,0.7,1.5,1.1,1.7c0.1,0.1,0.2,0.1,0.2,0.2c0.1,0,0.1,0,0.2,0L458.5,465.7z"/>
			</g>
			<g>
				<path class="st20" d="M465.6,464.4c0.2,0.4,0.3,0.9,1.4,1.3c1.2,0.4,0.9-0.5,0-1.1C466.2,464,465.7,463.7,465.6,464.4z"/>
			</g>
			<g>
				<path class="st6" d="M465.7,464.6c-1-1,1.4-0.7,1.8,0.4c0.1,0.2,0,0.5-0.2,0.5c-0.1-0.4,0.2-0.4-0.4-0.7
					C466.2,464.3,465.7,464,465.7,464.6z"/>
			</g>
			<g>
				<path class="st10" d="M458.9,465.2c-1-5.3,1.6-8.3,6.6-6.5c-1.7-0.3-3-0.4-4.3,0.3C459,460.1,458.9,462.3,458.9,465.2z"/>
			</g>
			<g>
				<path class="st10" d="M466.1,463.1c0.1,0.1,0,0.3,0,0.5c0,0.3-0.4,0.1-0.4-0.2C465.7,463.2,465.9,463,466.1,463.1z"/>
			</g>
			<g>
				<path class="st6" d="M477.2,471.9c0.2,1.6-0.1,2.4-0.8,3.5c0.3-1.5,0.3-2.6,0.2-4.1c0-0.2,0.1,0.1,0.3,0.2
					C477,471.5,477.2,471.7,477.2,471.9z"/>
			</g>
			<g>
				<path class="st20" d="M457.6,479.1c-1.7-0.9-3.1-3.1-3.8-4.6c0.1,2,2,5.2,4,6c0.4,0.1,0.7,0.2,1,0.1c0.2,0,0.3-0.1,0.5-0.2
					l0.1-0.1c0.1-0.1,0.1-0.1,0.1-0.2c0.1-0.2,0.2-0.4,0.2-0.7c-0.2,0.1-0.5,0.1-0.8,0.1c-0.1,0-0.2,0-0.3,0c-0.1,0-0.2,0-0.3-0.1
					l0,0C458.1,479.3,457.8,479.2,457.6,479.1z"/>
			</g>
			<g>
				<path class="st20" d="M478.6,489.5c-0.1-0.1-0.3-0.3-0.4-0.4c0,0,0-0.1-0.1-0.1c-0.1-0.1-0.1-0.2-0.2-0.3
					c-0.1-0.1-0.1-0.2-0.2-0.4l0,0c-0.2-0.4-0.2-0.7-0.3-1.1c0-0.2,0-0.4,0-0.6c0-0.1,0-0.1,0-0.2s0-0.3,0.1-0.4c0,0,0,0,0-0.1
					s0.1-0.3,0.1-0.4s0.1-0.1,0.1-0.2s0.1-0.1,0.1-0.2s0.1-0.1,0.2-0.2s0.2-0.2,0.2-0.2s0,0,0.1-0.1h-0.1c-0.1,0-0.3,0-0.4,0l0,0
					h-0.1c-0.2,0-0.3,0.1-0.4,0.2s-0.2,0.2-0.3,0.3c0,0,0,0,0,0.1c0,0,0,0.1-0.1,0.1c-0.1,0.1-0.1,0.3-0.2,0.4l0,0v0.1
					c0,0.1,0,0.1,0,0.2c0,0.2-0.1,0.3-0.1,0.5c0,0.1,0,0.2,0,0.4c0,0.5,0.1,1,0.3,1.4c0,0.1,0.1,0.2,0.1,0.3l0,0
					c0,0.1,0.1,0.1,0.1,0.2c0.1,0.1,0.1,0.2,0.2,0.3c0,0.1,0.1,0.1,0.1,0.2c0.5,0.8,1.2,1.4,2,1.8c0.6,0.3,1.3,0.4,1.8,0
					C480.5,491,479.6,490.5,478.6,489.5z"/>
			</g>
			<g>
				<path class="st10" d="M455.4,473.8c1.3,0,2.4,0.6,3.3,2.4c0.4,0.8,0.4,1,0.7,1.9c-1-2.2-1.7-3.9-3.7-3.8c-0.1,0-0.2-0.1-0.3-0.2
					C455.3,474,455.4,473.9,455.4,473.8z"/>
			</g>
			<g>
				<path class="st10" d="M480.6,486.7c-1.3-1.2-2-2-3-1.4c0-0.1,0-0.1,0.1-0.2c0.7-0.8,2,0.4,3.1,1.4c0.1,0.1,0.2,0.3,0.1,0.3
					C480.8,486.8,480.7,486.8,480.6,486.7z"/>
			</g>
			<g>
				<path class="st10" d="M459.1,457.5c0-1.3,0.3-2,0.9-2.9c-0.2,1-0.5,1.8-0.5,3c0,0.1,0,0.2-0.2,0.2
					C459.2,457.8,459.1,457.6,459.1,457.5z"/>
			</g>
			<g>
				<path class="st10" d="M460.8,456c0.4-1.1,0.4-1.4,1.2-2.1c-0.4,0.9-0.5,1.4-0.8,2.4c0,0.1-0.1,0.1-0.3,0
					C460.9,456.3,460.8,456.1,460.8,456z"/>
			</g>
			<g>
				<path class="st10" d="M463,455.3c0.2-0.6,0.7-1.4,1.4-1.4c0,0-0.8,1.2-0.9,1.7c0,0.1-0.1,0.1-0.2,0.1
					C463,455.6,463,455.4,463,455.3z"/>
			</g>
			<g>
				<path class="st6" d="M470.3,484.1c-0.6-0.3-0.9-0.1-1.6-0.3c-1.8-0.5-4.1-1.2-5.5-1.5c1.5-0.1,5.4,0.6,7.1,1.3
					c0.1,0.1,0.2,0.2,0.2,0.3C470.5,484.1,470.4,484.1,470.3,484.1z"/>
			</g>
			<g>
				<path class="st6" d="M460.2,479.5c0.7,1.3,0.4,0.7,1,1.9c-0.9-1.2-0.5-0.6-1.3-1.8c-0.1-0.1-0.1-0.3,0-0.3
					C460,479.3,460.1,479.3,460.2,479.5z"/>
			</g>
			<g>
				<path class="st8" d="M457.3,471.8c-2.1-3.9,2.1-4.5,4.4-4.2c1.3,0.2,2.5,0.6,3.9,1.2c-1.2-0.2-2.5-0.5-3.7-0.6
					c-1.6-0.1-5.6,0.5-3.9,3.4c0.2,0.3,0.1,0.6,0,0.6C457.8,472.2,457.5,472.1,457.3,471.8z"/>
			</g>
			<g>
				<path class="st19" d="M462.3,468.2c-1.2-0.3-4.4-0.2-2.2,1.3c1.2,0.8,1.6,0.3,3.3,0.3c1.5,0.1,4.2,0.8,5.1,1.1
					C470.2,471.8,467,469.1,462.3,468.2z"/>
			</g>
			<g>
				<path class="st10" d="M456.7,469.9c0.4-1.3,0.7-1.8,1.8-2.2c1.1-0.4,2.3-0.5,3.7,0c-1.3,0-2.3,0-3.4,0.5c-1,0.5-1.3,0.9-1.5,2.1
					c0,0.2-0.2,0.2-0.3,0.1C456.8,470.2,456.6,470,456.7,469.9z"/>
			</g>
			<g>
				<path class="st21" d="M469.4,484.3c1.1,0.9,2.3,1.8,4.1,2.5c2.4,1,2.7-1,2-1.6s-1.6-1.6-2.7-1.7c-1-0.1-1.7,0.1-2.5,0.1
					C469.1,483.5,468.2,483.3,469.4,484.3z"/>
			</g>
			<g>
				<path class="st6" d="M468.4,482.9c1,1.5,3.8,3.2,5.1,4c-1.7-0.8-4.2-2-5.6-3.9c-0.1-0.2-0.1-0.3,0.1-0.4
					C468.1,482.6,468.3,482.7,468.4,482.9z"/>
			</g>
			<g>
				<path class="st6" d="M476,485.5c0.1,1.2,0,1.6-1,1.7c0.6-0.6,0.7-0.6,0.5-1.9c0-0.1,0.1-0.2,0.2-0.2
					C475.9,485.2,476,485.3,476,485.5z"/>
			</g>
			<g>
				<path class="st6" d="M469.8,483.4c1.5,1.5,3.6,3.1,5,2.9c-1,0.9-3.9-1.3-5.3-2.6c-0.1-0.1-0.2-0.3-0.1-0.4
					C469.5,483.2,469.7,483.2,469.8,483.4z"/>
			</g>
			<g>
				<path class="st6" d="M475.1,484.4c0.7,0.8,0.3,1.7-0.1,1.7c0.2-0.3,0.5-0.9,0-1.5c-0.1-0.1-0.1-0.2-0.1-0.2
					C475,484.3,475.1,484.3,475.1,484.4z"/>
			</g>
			<g>
				<path class="st22" d="M473.3,485c0.2,0.1,0.5,0.8,0,0.6C472.9,485.3,473.2,484.9,473.3,485z"/>
			</g>
			<g>
				<path class="st22" d="M472.2,484.1c0.1,0.2-0.1,0.6-0.4,0.2C471.5,483.8,472.1,483.9,472.2,484.1z"/>
			</g>
			<g>
				<path class="st22" d="M474.2,484.6c0-0.1,0.7,0.3,0.6,0.4C474.6,485.2,474.2,484.7,474.2,484.6z"/>
			</g>
		</g>
		<g>
			<g>
				
					<ellipse transform="matrix(0.7719 -0.6357 0.6357 0.7719 -198.1568 424.8395)" class="st6" cx="493" cy="488.6" rx="1" ry="1.8"/>
			</g>
			<g>
				<path class="st6" d="M442.9,462.4c0.8,0.4,1.4,0.2,1.4-0.6c0-0.7-0.6-1.7-1.4-2.1s-1.4-0.2-1.4,0.6
					C441.5,461,442.1,461.9,442.9,462.4z"/>
			</g>
		</g>
		<g>
			<g>
				<path class="st5" d="M452.4,473.4c-1.1-2.9-1.7-5.6-1.7-8.1c0-4.6,2.1-7.9,5.6-9l0.3,0.5c-3.4,1.1-5.4,4.3-5.4,8.8
					c0,2.4,0.5,5.1,1.6,7.9L452.4,473.4z M483.9,489.7l-0.4-0.4c0.8-1.4,1.2-3.2,1.2-5.3c0-4.7-2.1-10.4-5.9-15.6l0.3-0.2
					c3.9,5.3,6.1,11.1,6.1,16C485.1,486.4,484.7,488.2,483.9,489.7z"/>
			</g>
		</g>
		<g>
			<path class="st5" d="M460.5,485.7l0.8,0.8l-0.1,0.2l-1.1-1.1l0.8-1.2l0.3,0.3L460.5,485.7z"/>
			<path class="st5" d="M463,487.5c-0.1,0.2-0.2,0.2-0.4,0.2c-0.2,0-0.4-0.1-0.6-0.3c-0.2-0.2-0.4-0.4-0.5-0.6s-0.1-0.4,0-0.6
				l0.1-0.2c0.1-0.2,0.2-0.2,0.4-0.2c0.2,0,0.4,0.1,0.6,0.3c0.2,0.2,0.4,0.4,0.5,0.6s0.1,0.4,0,0.6L463,487.5z M462.7,487
				c0-0.1,0.1-0.2,0-0.4c0-0.1-0.1-0.3-0.2-0.4s-0.2-0.2-0.3-0.1c-0.1,0-0.2,0.1-0.2,0.2l-0.1,0.2c-0.1,0.1-0.1,0.2,0,0.4
				c0,0.1,0.1,0.2,0.2,0.4c0.1,0.1,0.2,0.2,0.3,0.2c0.1,0,0.2-0.1,0.2-0.2L462.7,487z"/>
			<path class="st5" d="M464.5,489.2c-0.1,0-0.2,0-0.3,0c-0.1,0-0.3-0.1-0.5-0.3c-0.2-0.2-0.4-0.4-0.5-0.6s-0.1-0.4-0.1-0.6l0.1-0.3
				c0.1-0.2,0.2-0.3,0.3-0.3c0.2,0,0.4,0.1,0.6,0.2c0.2,0.2,0.4,0.4,0.5,0.5c0.1,0.2,0.1,0.4,0.1,0.5l0,0l-0.3-0.3
				c0-0.1,0-0.2,0-0.3c0-0.1-0.1-0.2-0.2-0.3c-0.1-0.1-0.2-0.1-0.3-0.1c-0.1,0-0.2,0.1-0.2,0.2l-0.1,0.3c0,0.1,0,0.2,0,0.4
				c0.1,0.1,0.1,0.2,0.3,0.3c0.1,0.1,0.2,0.1,0.2,0.1c0.1,0,0.1,0,0.1,0l0.1-0.3L464,488l0.1-0.2l0.7,0.5L464.5,489.2z"/>
			<path class="st5" d="M466.3,490c0,0.2-0.1,0.3-0.3,0.4c-0.2,0-0.4,0-0.6-0.2s-0.4-0.4-0.5-0.6s-0.2-0.5-0.1-0.7v-0.3
				c0-0.2,0.1-0.3,0.3-0.4c0.2,0,0.4,0,0.6,0.2s0.4,0.4,0.5,0.6s0.2,0.5,0.1,0.7V490z M466,489.4c0-0.1,0-0.3-0.1-0.4
				s-0.2-0.2-0.3-0.3c-0.1-0.1-0.2-0.1-0.3-0.1c-0.1,0-0.1,0.1-0.2,0.2v0.3c0,0.1,0,0.3,0.1,0.4s0.2,0.2,0.3,0.3
				c0.1,0.1,0.2,0.1,0.3,0.1c0.1,0,0.1-0.1,0.2-0.2V489.4z"/>
			<path class="st5" d="M467.1,491.2v-1.8l0.7,0.4c0.2,0.1,0.4,0.3,0.6,0.5s0.2,0.4,0.2,0.7v0.3c0,0.2-0.1,0.4-0.2,0.4
				c-0.1,0.1-0.3,0-0.6-0.1L467.1,491.2z M467.5,489.9v1.3l0.3,0.1c0.1,0.1,0.2,0.1,0.3,0c0.1,0,0.1-0.1,0.1-0.3v-0.3
				c0-0.1,0-0.3-0.1-0.4s-0.2-0.2-0.3-0.3L467.5,489.9z"/>
			<path class="st5" d="M470,491.9l-0.8-0.4v0.5l0.9,0.4v0.3l-1.3-0.6l-0.2-1.9l1.3,0.6v0.3l-0.9-0.4v0.5l0.8,0.4L470,491.9z"/>
			<path class="st5" d="M471.3,492.7c0-0.1,0-0.1-0.1-0.2s-0.2-0.1-0.3-0.2c-0.2-0.2-0.4-0.3-0.5-0.4s-0.2-0.3-0.2-0.4
				c0-0.2,0-0.3,0.1-0.3c0.1-0.1,0.3,0,0.5,0c0.2,0.1,0.4,0.2,0.5,0.4c0.1,0.2,0.2,0.3,0.3,0.5l0,0l-0.4-0.1c0-0.1-0.1-0.2-0.1-0.3
				c-0.1-0.1-0.2-0.1-0.3-0.2c-0.1,0-0.2,0-0.2,0l-0.1,0.1c0,0.1,0.1,0.1,0.1,0.2c0.1,0.1,0.2,0.1,0.3,0.3c0.2,0.1,0.4,0.3,0.5,0.4
				s0.2,0.3,0.2,0.5s0,0.3-0.1,0.3c-0.1,0.1-0.3,0-0.5,0c-0.2-0.1-0.4-0.2-0.6-0.4c-0.2-0.2-0.3-0.4-0.3-0.6l0,0l0.4,0.1
				c0,0.1,0.1,0.2,0.1,0.3c0.1,0.1,0.2,0.1,0.3,0.2c0.1,0,0.2,0,0.2,0S471.3,492.8,471.3,492.7z"/>
			<path class="st5" d="M472.4,493.5l-0.4-0.1l-0.5-2l0.4,0.1L472.4,493.5z"/>
			<path class="st5" d="M474,493.7c0,0.1-0.1,0.1-0.2,0.2c-0.1,0-0.2,0-0.4,0c-0.2-0.1-0.4-0.2-0.6-0.4c-0.2-0.2-0.3-0.4-0.4-0.7
				l-0.1-0.4c-0.1-0.2-0.1-0.4,0-0.6c0.1-0.1,0.2-0.2,0.5-0.1c0.2,0.1,0.4,0.2,0.6,0.3c0.2,0.1,0.3,0.3,0.3,0.5l0,0l-0.3-0.1
				c0-0.1-0.1-0.2-0.2-0.3c-0.1-0.1-0.2-0.1-0.3-0.2c-0.1,0-0.2,0-0.2,0.1s0,0.2,0,0.4l0.1,0.4c0,0.2,0.1,0.3,0.2,0.4
				s0.2,0.2,0.3,0.2c0.1,0,0.2,0,0.2,0h0.1l-0.1-0.4l-0.3-0.1l-0.1-0.3l0.7,0.2L474,493.7z"/>
			<path class="st5" d="M475.8,494.2h-0.3l-1.2-1.5l0,0l0.5,1.4h-0.3l-0.8-2.1h0.3l1.2,1.5l0,0l-0.5-1.4h0.3L475.8,494.2z"/>
		</g>
	</g>
</g>
<g>
	
		<linearGradient id="SVGID_1_" gradientUnits="userSpaceOnUse" x1="-70.9042" y1="2520.5085" x2="30.3558" y2="2520.5085" gradientTransform="matrix(1.1501 0.5853 1.087585e-02 -0.864 470.3047 2548.4358)">
		<stop  offset="0" style="stop-color:#8A8A8A"/>
		<stop  offset="0.4018" style="stop-color:#868686"/>
		<stop  offset="0.7788" style="stop-color:#7B7B7B"/>
		<stop  offset="1" style="stop-color:#707070"/>
	</linearGradient>
	<path class="st23" d="M519.6,338.4l-89.3-50.1c-7.1-4-13-1.7-13.1,5.1l-0.8,66.3c-0.1,6.8,5.6,15.6,12.8,19.6l89.3,50.1
		c7.1,4,13,1.7,13.1-5.1l0.8-66.3C532.5,351.2,526.7,342.4,519.6,338.4z"/>
</g>
<g>
	
		<linearGradient id="SVGID_2_" gradientUnits="userSpaceOnUse" x1="571.1988" y1="475.65" x2="688.0461" y2="475.65" gradientTransform="matrix(1 0 0 -1 0 920)">
		<stop  offset="0" style="stop-color:#8A8A8A"/>
		<stop  offset="0.4018" style="stop-color:#868686"/>
		<stop  offset="0.7788" style="stop-color:#7B7B7B"/>
		<stop  offset="1" style="stop-color:#707070"/>
	</linearGradient>
	<path class="st24" d="M674.9,423.9l-89.3-50.1c-7.1-4-13-1.7-13.1,5.1l-0.8,66.3c-0.1,6.8,5.6,15.6,12.8,19.6l89.3,50.1
		c7.1,4,13,1.7,13.1-5.1l0.8-66.3C687.7,436.7,682,427.9,674.9,423.9z"/>
</g>
<g>
	
		<linearGradient id="SVGID_3_" gradientUnits="userSpaceOnUse" x1="-70.4632" y1="2381.9185" x2="30.7969" y2="2381.9185" gradientTransform="matrix(1.1501 0.5853 1.087585e-02 -0.864 470.3047 2548.4358)">
		<stop  offset="0" style="stop-color:#8A8A8A"/>
		<stop  offset="0.4018" style="stop-color:#868686"/>
		<stop  offset="0.7788" style="stop-color:#7B7B7B"/>
		<stop  offset="1" style="stop-color:#707070"/>
	</linearGradient>
	<path class="st25" d="M518.6,458.4l-89.3-50.1c-7.1-4-13-1.7-13.1,5.1l-0.8,66.3c-0.1,6.8,5.6,15.6,12.8,19.6l89.3,50.1
		c7.1,4,13,1.7,13.1-5.1l0.8-66.3C531.5,471.2,525.7,462.4,518.6,458.4z"/>
</g>
<g>
	
		<linearGradient id="SVGID_4_" gradientUnits="userSpaceOnUse" x1="64.639" y1="2374.4824" x2="165.899" y2="2374.4824" gradientTransform="matrix(1.1501 0.5853 1.087585e-02 -0.864 470.3047 2548.4358)">
		<stop  offset="0" style="stop-color:#8A8A8A"/>
		<stop  offset="0.4018" style="stop-color:#868686"/>
		<stop  offset="0.7788" style="stop-color:#7B7B7B"/>
		<stop  offset="1" style="stop-color:#707070"/>
	</linearGradient>
	<path class="st26" d="M673.9,543.9l-89.3-50.1c-7.1-4-13-1.7-13.1,5.1l-0.8,66.3c-0.1,6.8,5.6,15.6,12.8,19.6l89.3,50.1
		c7.1,4,13,1.7,13.1-5.1l0.8-66.3C686.7,556.7,681,547.9,673.9,543.9z"/>
</g>
<g>
	<g>
		<g>
			<g>
				<path class="st27" d="M616.1,430.5l-2.2,3c-0.1,0.1-0.3,0.2-0.4,0.3l-0.3,0.1c-0.2,0-0.5,0.1-0.8,0l0,0
					c-0.2-0.1-0.8-0.3-1.8-1.4c-0.1,0-0.1,0.1-0.1,0.1c-0.1,0-0.1,0.1-0.2,0.1c-0.1,0.1-0.3,0.1-0.4,0.1c-0.1,0-0.1,0-0.1,0h-0.2
					c-0.2,0-0.4,0-0.7-0.1c-1-0.3-2-1-2.2-2.3c0.1-1.5,1.9-1.8,3.2,0.4v0.1c0.7-0.8,1.8-2.2,1.8-3.2c0-0.2-0.1-0.5-0.4-0.8
					c-0.7-0.8-1.9-0.6-2.7-0.4c0,0-0.3,0.1-0.7,0.4c-0.3,0.2-0.6,0.5-0.9,0.8l-0.8,1.7l0,0l-1.9,3.7c-0.1,0.2-0.2,0.4-0.4,0.6
					c-1.4,2.6-2.8,1.2-2.8,1.2c-0.2-0.2-0.3-0.4-0.4-0.6c-0.5-1.1,0.1-2.2,0.1-2.2l0,0c0.4-0.7,1-1.3,1.5-1.7c0.2-0.1,1-0.8,1.9-0.9
					l0.1-0.2l1.2-2.3l1.5-3c-1.4,0.4-3.6-0.6-4.8-2.8c-1.8-0.7-3.5-1.7-5.4-2.5c-1.8-0.8-4.3-1-3.9,1.5c0.2,0.8,0.9,2.2,1.8,2.4
					c0.4,0.1,0.9-0.1,0.6-0.7c-0.1-0.3-0.4-0.5-0.6-0.5l0,0c-0.3,0-0.6-0.2-0.7-0.5c-0.2-0.3-0.1-0.6,0.1-0.6
					c0.3-0.1,0.8,0.5,1.1,0.8c0.2,0.2,0.4,0.5,0.5,0.8c0.5,1,0,1.4-0.8,1.3c-1.1-0.1-2.3-1.8-2.4-3c-0.4-3,2.3-2.6,4.3-1.8
					c1.7,0.7,3.5,1.6,5.3,2.4c-0.2-0.6-0.1-1.3,0.4-1.4s1.2,0.4,1.4,1.1c0.1,0.4-0.1,0.7-0.4,0.8c-0.2,0.1-0.5,0-0.8,0
					c0.8,1.3,2.1,2.2,3.2,2.3c0.2,0,0.5,0,0.7,0c0,0,0.1,0,0.3-0.1c0.1,0,0.3-0.1,0.5-0.1c0,0,0,0,0.1,0c0,0,0.4-0.1,0.7,0.1
					c0.6,0.2,0.5,0.9,0.5,1.1l-0.8,1.6l0.6-0.1c0.2,0,0.5,0,0.8-0.1l0,0c0.5,0,1,0.1,1.8,0.3c2.3,1,2.1,3.1,1.2,4.6
					c0,0-0.4,0.7-1,1.2c-0.1,0-0.1,0.1-0.2,0.1c0,0-0.1,0-0.1,0.1c0.4,0.4,0.8,0.8,1.2,1c0.3,0.1,0.5,0.1,0.8,0
					c0.3-0.2,0.7-0.5,1-0.9l1.6-2.3L616.1,430.5z M604.1,430.3c-1.4,0.8-2.9,2.3-2.6,3.6c0.1,0.1,0.2,0.2,0.3,0.2
					c0.4-0.1,0.9-1,0.9-1l1.3-2.6L604.1,430.3z M602.6,420.8L602.6,420.8c0.4,0.2,0.9,0.2,1-0.2c0.1-0.4-0.4-0.9-0.8-0.8
					C602.5,419.8,602.4,420.3,602.6,420.8z M609.5,431.3L609.5,431.3l-0.2-0.3c-0.2-0.4-0.5-0.7-0.9-0.9c-0.6-0.2-1,0-1.1,0.5
					c0,0.4,0.3,1.1,1.1,1.1C608.9,431.6,609.3,431.5,609.5,431.3z"/>
			</g>
			<g>
				<path class="st27" d="M626.6,436.7c-1.4,1.9-3.8,4.9-6.1,3.1c-0.5-0.4-0.9-0.9-1.2-1.3c-0.2-0.4-0.3-0.8-0.4-1.1
					c-0.1-0.8,0.1-1.6,0.3-2.3c-1.1,1.1-2.4,1.9-3.7,0.9c-0.4-0.3-0.8-0.7-1-1.1c-0.1-0.3-0.2-0.6-0.3-0.9c-0.1-1,0.3-2,0.6-2.6l0,0
					l1.2-2.4c0,0,0.3-0.3,0.9,0.2c0.6,0.5,0.4,1,0.4,1c-0.9,1.8-1.1,2.4-1.3,3c-0.1,0.2-0.5,1.2,0,2c0,0,0.4,0.6,1,0.7
					c0.7,0,1.5-0.7,2.1-1.4c0.4-0.4,0.7-0.8,1-1.3l1.3-2.4c0,0,0.4-0.4,1.1,0.2c0.7,0.6,0.5,1.2,0.5,1.2c-1.1,2.2-1.7,3.4-2.1,4.2
					c-0.1,0.3-0.6,1.4,0,2.5c0,0,0.6,0.8,1.3,0.8c0.9,0,1.8-0.8,2.5-1.6c0.5-0.5,0.8-1,1.3-1.6L626.6,436.7z"/>
			</g>
			<g>
				<path class="st27" d="M635.4,442c-2.2,3.1-3.7,3.4-4.7,2.8c-2.8-1.6-1.9-5.6-1.9-5.6c0.2-1,0.6-2.1,1.3-3.1c0,0,0.7-1-0.3-1.5
					c-0.5-0.2-0.9-0.4-1.4-0.7c-0.5,0.9-1.2,2-2.2,3.3l-0.4-0.4c0,0,1.1-1.6,2.1-3.3c-1.4-1-2.5-2.5-2-4c0.3-1,1.3-1.7,2.9-0.5
					c0.8,0.7,0.8,1.7,0.6,2.4c-0.1,0.5-0.3,1.1-0.7,1.8c0.4,0.3,0.8,0.5,1.2,0.6c0.7,0.2,1.5,0.4,2.1,0.9c1,0.9,0.1,2.1-0.6,3.7l0,0
					c-0.1,0.3-1.1,2.4-0.7,4.4c0.1,0.5,0.3,0.9,0.7,1.2c0.8,0.6,2-0.5,2.8-1.4c0.5-0.6,0.8-1.1,0.8-1.1L635.4,442z M628.9,431.2
					c0.1-0.2,0.3-1.3-0.5-1.8c-1.5-0.5-1.4,2.2-0.1,3.5C628.5,432.3,628.7,431.7,628.9,431.2z"/>
			</g>
			<g>
				<path class="st27" d="M658.4,451.6c-0.6,1.4-2.6,1-4.4,0.2c-1.8-0.8-3.5-2-5.3-2.7c0.2,0.8-0.2,1.8-1.3,1
					c-0.3-0.2-0.5-0.6-0.6-0.9c-0.1-0.7,0.6-0.9,1.3-0.7c-1.3-2.3-4.1-3.2-5.1-1.9l0,0c0,0-1.4,2.2-3.3,3c-1,0.4-2.1,0.5-3.2-0.2
					c-1.5-1-2.7-2.9-2.8-4.5c-0.1-2.3,1.3-4.8,3.7-4.3c1.5,0.3,2.9,1.8,2.4,3.3c-0.6,1.8-2.9,1-3.8,0.1c-0.1-0.2,0-0.2,0.1-0.2
					c0.1,0.1,0.5,0.3,0.9,0.4c1.2,0.4,2.6-1,1.3-2c-2.3-0.9-4.3,3.4-2,6c0.4,0.5,2.9,2.7,6.1-1.9l0.1-0.1l0,0c1.1-1.5,4.4-0.8,6,2.3
					c1.8,0.8,3.6,1.9,5.4,2.8c1.6,0.8,3.4,1.2,4.1-0.1c0.3-0.7-0.3-3-1.7-3.4c-0.4-0.1-1,0-0.7,0.7c0.1,0.2,0.3,0.5,0.6,0.5l0,0
					c0.2,0,0.6,0.2,0.7,0.6c0.1,0.3,0.1,0.6-0.2,0.6c-0.4,0-0.8-0.5-1.1-0.9c-0.2-0.2-0.4-0.5-0.5-0.8c-0.5-1,0.1-1.4,0.9-1.2
					C657.8,447.6,658.9,450.4,658.4,451.6z M648.3,448.8c-0.4-0.1-0.9-0.2-1,0.2c-0.2,0.4,0.3,0.8,0.7,0.8
					C648.2,449.8,648.4,449.8,648.3,448.8z"/>
			</g>
		</g>
		<g>
			<g>
				<path d="M643.8,455.2C643.9,455.2,643.9,455.2,643.8,455.2c0.1,0,0.1,0.1,0.1,0.1s0,0,0.1,0c0,0,0,0,0.1,0l-0.1,1l1.2,0.7l0.1-1
					c0,0,0,0,0.1,0c0,0,0,0,0.1,0c0,0,0,0,0.1,0c0,0,0,0,0.1,0l-0.1,2.3c0,0,0,0-0.1,0c0,0,0,0-0.1,0c0,0,0,0-0.1,0c0,0,0,0-0.1,0
					l0.1-1.1l-1.2-0.7l-0.1,1.1c0,0,0,0-0.1,0c0,0,0,0-0.1,0c0,0,0,0-0.1,0c0,0,0,0-0.1,0L643.8,455.2z"/>
			</g>
			<g>
				<path d="M647.6,457.4C647.6,457.4,647.6,457.5,647.6,457.4c0.1,0,0.1,0.1,0.1,0.1s0,0,0.1,0c0,0,0,0,0.1,0l0.7,2.8
					c0,0,0,0-0.1,0c0,0,0,0-0.1,0c0,0,0,0-0.1,0c0,0,0,0-0.1,0l-0.2-0.7l-1-0.6l-0.2,0.5c0,0,0,0-0.1,0c0,0,0,0-0.1,0c0,0,0,0-0.1,0
					c0,0,0,0-0.1,0L647.6,457.4z M648.1,459.3l-0.4-1.5l-0.5,1L648.1,459.3z"/>
			</g>
			<g>
				<path d="M649.9,458.8C649.9,458.8,650,458.9,649.9,458.8c0.1,0,0.1,0.1,0.1,0.1s0,0,0.1,0c0,0,0,0,0.1,0l1,2.6l0.1-1.9
					c0,0,0,0,0.1,0c0,0,0,0,0.1,0c0,0,0,0,0.1,0c0,0,0,0,0.1,0l-0.1,2.3c0,0,0,0-0.1,0c0,0,0,0-0.1,0c0,0,0,0-0.1,0c0,0,0,0-0.1,0
					l-1.1-2.6l-0.1,1.9c0,0,0,0-0.1,0c0,0,0,0-0.1,0c0,0,0,0-0.1,0c0,0,0,0-0.1,0L649.9,458.8z"/>
			</g>
			<g>
				<path d="M653.1,460.7c0,0,0.1,0,0.1,0.1c0,0,0.1,0,0.1,0.1c0.1,0,0.1,0.1,0.2,0.1c0.1,0,0.1,0.1,0.1,0.1
					c0.2,0.1,0.4,0.3,0.5,0.4c0.2,0.1,0.3,0.3,0.4,0.5c0.1,0.2,0.2,0.3,0.2,0.5s0.1,0.4,0,0.5c0,0.8-0.5,0.9-1.3,0.5
					c0,0-0.1-0.1-0.2-0.1c-0.1,0-0.1-0.1-0.2-0.1s-0.1-0.1-0.1-0.1l-0.1-0.1L653.1,460.7z M653.2,463l0.1,0.1c0.1,0,0.1,0.1,0.2,0.1
					c0.2,0.1,0.3,0.2,0.4,0.2c0.1,0,0.2,0.1,0.3,0c0.1,0,0.2-0.1,0.2-0.2c0.1-0.1,0.1-0.2,0.1-0.4c0-0.3-0.1-0.6-0.2-0.9
					c-0.2-0.3-0.4-0.5-0.7-0.7c-0.1,0-0.1-0.1-0.2-0.1c-0.1,0-0.1-0.1-0.1-0.1L653.2,463z"/>
			</g>
			<g>
				<path d="M656.4,462.7L656.4,462.7c0.1,0,0.1,0.1,0.1,0.1s0.1,0,0.1,0.1h0.1l0.6,1.9l0.8-1.1c0,0,0,0,0.1,0h0.1c0,0,0,0,0.1,0
					h0.1v2.4c0,0,0,0-0.1,0c0,0,0,0-0.1,0c0,0,0,0-0.1,0c0,0,0,0-0.1,0v-2l-0.8,1.1l0,0l0,0l0,0l0,0l-0.6-1.9l-0.2,1.9
					c0,0,0,0-0.1,0c0,0,0,0-0.1,0c0,0,0,0-0.1,0c0,0,0,0-0.1,0L656.4,462.7z"/>
			</g>
			<g>
				<path d="M660.4,465.1C660.4,465.1,660.5,465.1,660.4,465.1c0.1,0,0.1,0.1,0.1,0.1s0,0,0.1,0c0,0,0,0,0.1,0l0.7,2.8
					c0,0,0,0-0.1,0s0,0-0.1,0c0,0,0,0-0.1,0c0,0,0,0-0.1,0l-0.2-0.7l-1-0.6l-0.2,0.5c0,0,0,0-0.1,0c0,0,0,0-0.1,0c0,0,0,0-0.1,0
					c0,0,0,0-0.1,0L660.4,465.1z M660.9,467l-0.4-1.5l-0.5,1L660.9,467z"/>
			</g>
			<g>
				<path d="M662.8,466.5c0,0,0.1,0,0.1,0.1c0,0,0.1,0,0.1,0.1c0.1,0,0.1,0.1,0.2,0.1c0.1,0,0.1,0.1,0.1,0.1
					c0.2,0.1,0.4,0.3,0.5,0.4c0.2,0.1,0.3,0.3,0.4,0.5c0.1,0.2,0.2,0.3,0.2,0.5s0.1,0.4,0,0.5c0,0.8-0.5,0.9-1.3,0.5
					c0,0-0.1-0.1-0.2-0.1c-0.1,0-0.1-0.1-0.2-0.1c-0.1,0-0.1-0.1-0.1-0.1l-0.1-0.1L662.8,466.5z M662.9,468.8l0.1,0.1
					c0.1,0,0.1,0.1,0.2,0.1c0.2,0.1,0.3,0.2,0.4,0.2c0.1,0,0.2,0.1,0.3,0c0.1,0,0.2-0.1,0.2-0.2c0.1-0.1,0.1-0.2,0.1-0.4
					c0-0.3-0.1-0.6-0.2-0.9c-0.2-0.3-0.4-0.5-0.7-0.7c-0.1,0-0.1-0.1-0.2-0.1c-0.1,0-0.1-0.1-0.1-0.1L662.9,468.8z"/>
			</g>
			<g>
				<path d="M666,468.4l1.3,0.8l0,0c0,0,0,0,0,0.1c0,0,0,0,0,0.1l0,0l-1.1-0.6v0.8l0.9,0.5l0,0c0,0,0,0,0,0.1c0,0,0,0,0,0.1l0,0
					l-0.9-0.5l-0.1,0.9l1.1,0.7l0,0c0,0,0,0,0,0.1c0,0,0,0,0,0.1l0,0l-1.3-0.8L666,468.4z"/>
			</g>
		</g>
		<g>
			<g>
				<path d="M624,444.9L624,444.9c-0.1-0.7-1-1.3-1.2-0.8c0,0,0,0,0,0.1c-0.1,0.3,0.1,0.9,0.6,1.1
					C623.8,445.6,624.1,445.4,624,444.9z"/>
			</g>
			<g>
				<path d="M620.6,442.5c-0.7-0.4-0.8,0.6-0.1,1.1C621.2,444,621.3,442.9,620.6,442.5z"/>
			</g>
			<g>
				<path d="M617.7,440.9c-0.4-0.2-0.5,0.1-0.3,0.4c0,0.1,0.1,0.2,0.2,0.3c0.1,0.1,0.2,0.1,0.3,0
					C618.1,441.6,618.1,441.1,617.7,440.9z"/>
			</g>
			<g>
				<path d="M626.3,445.9c0.7,0.4,0.7,1.5,0,1.1C625.5,446.5,625.5,445.4,626.3,445.9z"/>
			</g>
			<g>
				<path d="M629.1,447.8c0.4,0.2,0.4,0.7,0.2,0.7c-0.1,0-0.1,0.1-0.3,0c-0.1-0.1-0.2-0.2-0.3-0.3
					C628.7,447.9,628.8,447.5,629.1,447.8z"/>
			</g>
		</g>
		<g>
			<g>
				<path d="M643.9,452.7C643.9,452.7,644,452.7,643.9,452.7c0.1,0.1,0.2,0.2,0.2,0.2l0.1,0.1c0,0,0.1,0.1,0.2,0.1
					c0.1,0.1,0.2,0.1,0.3,0.1s0.1,0,0.2,0c0.1,0,0.1,0,0.1-0.1c0,0,0-0.1,0-0.2s0-0.1,0-0.2s0-0.1-0.1-0.2c0-0.1-0.1-0.1-0.2-0.2
					c-0.1-0.1-0.2-0.2-0.3-0.3c-0.1-0.1-0.2-0.2-0.2-0.2c-0.1-0.1-0.1-0.2-0.2-0.2c-0.1-0.1-0.1-0.2-0.1-0.2c0-0.1,0-0.2,0-0.3
					c0-0.2,0.1-0.3,0.2-0.3c0.1,0,0.3,0,0.6,0.2c0,0,0.1,0.1,0.2,0.1c0.1,0,0.1,0.1,0.1,0.1l0.1,0.1l0.1,0.1v0.1v0.1
					c-0.1,0-0.1-0.1-0.2-0.2c-0.1-0.1-0.2-0.1-0.3-0.2c-0.2-0.1-0.3-0.2-0.4-0.1c-0.1,0-0.1,0.1-0.1,0.2s0,0.1,0,0.2
					s0.1,0.1,0.1,0.2s0.1,0.1,0.2,0.2c0.1,0.1,0.1,0.1,0.2,0.2c0.1,0.1,0.2,0.2,0.3,0.3c0.1,0.1,0.1,0.2,0.2,0.3
					c0.1,0.1,0.1,0.2,0.1,0.3c0,0.1,0,0.2,0,0.3c0,0.1,0,0.2-0.1,0.3c0,0.1-0.1,0.1-0.2,0.1c-0.1,0-0.2,0-0.3,0s-0.2-0.1-0.4-0.2
					c-0.1-0.1-0.2-0.2-0.3-0.2c-0.1-0.1-0.2-0.1-0.2-0.2C643.8,452.8,643.8,452.8,643.9,452.7L643.9,452.7z"/>
			</g>
			<g>
				<path d="M646.5,454.5v-0.1v-0.1c0,0,0.1,0,0.1,0.1l0.1,0.1v0.1v0.1c0,0-0.1,0-0.1-0.1C646.6,454.6,646.6,454.5,646.5,454.5z"/>
			</g>
			<g>
				<path d="M650.4,454.7l-0.4-0.3l0,0c0,0,0,0,0-0.1c0,0,0,0,0-0.1l0,0l0.7,0.4l-0.1,1.9c0,0.1,0,0.2-0.1,0.2l-0.1,0.1
					c-0.1,0-0.1,0-0.2,0c-0.1,0-0.1-0.1-0.2-0.1c-0.1,0-0.1-0.1-0.2-0.1c-0.1,0-0.1-0.1-0.1-0.1c0-0.1,0-0.1,0.1-0.2l0.1,0.1
					l0.1,0.1c0,0,0.1,0,0.1,0.1h0.1h0.1c0,0,0-0.1,0-0.2L650.4,454.7z"/>
			</g>
			<g>
				<path d="M652.7,455.8L652.7,455.8c0.1,0,0.1,0.1,0.1,0.1s0,0,0.1,0c0,0,0,0,0.1,0l0.7,2.8c0,0,0,0-0.1,0c0,0,0,0-0.1,0
					c0,0,0,0-0.1,0c0,0,0,0-0.1,0l-0.2-0.7l-1-0.6l-0.2,0.5c0,0,0,0-0.1,0c0,0,0,0-0.1,0c0,0,0,0-0.1,0c0,0,0,0-0.1,0L652.7,455.8z
					 M653.2,457.7l-0.4-1.5l-0.5,1L653.2,457.7z"/>
			</g>
			<g>
				<path d="M655.1,457.3L655.1,457.3c0.1,0,0.1,0.1,0.1,0.1s0.1,0,0.1,0.1h0.1l0.6,1.9l0.8-1.1c0,0,0,0,0.1,0h0.1c0,0,0,0,0.1,0
					h0.1v2.4c0,0,0,0-0.1,0c0,0,0,0-0.1,0c0,0,0,0-0.1,0c0,0,0,0-0.1,0v-2l-0.8,1.1l0,0l0,0l0,0l0,0l-0.6-1.9l-0.2,1.9
					c0,0,0,0-0.1,0c0,0,0,0-0.1,0c0,0,0,0-0.1,0c0,0,0,0-0.1,0L655.1,457.3z"/>
			</g>
			<g>
				<path d="M658.6,459.4l1.3,0.8l0,0c0,0,0,0,0,0.1c0,0,0,0,0,0.1l0,0l-1.1-0.6v0.8l0.9,0.5l0,0c0,0,0,0,0,0.1c0,0,0,0,0,0.1l0,0
					l-0.9-0.5l-0.1,0.9l1.1,0.7l0,0c0,0,0,0,0,0.1c0,0,0,0,0,0.1l0,0l-1.3-0.8L658.6,459.4z"/>
			</g>
			<g>
				<path d="M661.1,463L661.1,463c0.1,0.1,0.2,0.2,0.2,0.2l0.1,0.1c0.1,0,0.1,0.1,0.2,0.1c0.1,0.1,0.2,0.1,0.3,0.1s0.1,0,0.2,0
					c0.1,0,0.1,0,0.1-0.1c0,0,0-0.1,0-0.2s0-0.1,0-0.2s0-0.1-0.1-0.2c0-0.1-0.1-0.1-0.2-0.2c-0.1-0.1-0.2-0.2-0.3-0.3
					c-0.1-0.1-0.2-0.2-0.2-0.2c-0.1-0.1-0.1-0.2-0.2-0.2c-0.1-0.1-0.1-0.2-0.1-0.2c0-0.1,0-0.2,0-0.3c0-0.2,0.1-0.3,0.2-0.3
					c0.1,0,0.3,0,0.6,0.2c0,0,0.1,0.1,0.2,0.1c0.1,0,0.1,0.1,0.1,0.1l0.1,0.1l0.1,0.1v0.1v0.1c-0.1,0-0.1-0.1-0.2-0.2
					c-0.1-0.1-0.2-0.1-0.3-0.2c-0.2-0.1-0.3-0.2-0.4-0.1c-0.1,0-0.1,0.1-0.1,0.2s0,0.1,0,0.2s0.1,0.1,0.1,0.2s0.1,0.1,0.2,0.2
					c0.1,0.1,0.1,0.1,0.2,0.2c0.1,0.1,0.2,0.2,0.3,0.3s0.1,0.2,0.2,0.3c0.1,0.1,0.1,0.2,0.1,0.3s0,0.2,0,0.3c0,0.1,0,0.2-0.1,0.3
					c0,0.1-0.1,0.1-0.2,0.1c-0.1,0-0.2,0-0.3,0s-0.2-0.1-0.4-0.2c-0.1-0.1-0.2-0.2-0.3-0.2c-0.1-0.1-0.2-0.1-0.2-0.2
					C661,463.1,661,463.1,661.1,463L661.1,463z"/>
			</g>
		</g>
	</g>
</g>
<g class="st28">
	<path class="st29" d="M585.4,348.2l2.5,1.4l3.1,10.7l3.2-7.2l1.9,1.1l3.2,10.8l3.1-7.2l2.4,1.4l-4.5,9.6l-2-1.1l-3.2-10.5l-3.2,6.9
		l-2-1.1L585.4,348.2z"/>
	<path class="st29" d="M610.8,362.8l2.3,1.3v12.1l-2.3-1.3V362.8z"/>
	<path class="st29" d="M620.2,368.2l2.1,1.2l6.9,12.3v-8.3l2.2,1.3v12.1l-1.9-1.1l-7.1-12.7v8.6l-2.2-1.3V368.2z"/>
	<path class="st29" d="M638.5,378.7l2.1,1.2l6.9,12.3v-8.3l2.2,1.3v12.1l-1.9-1.1l-7.1-12.7v8.6l-2.2-1.3V378.7z"/>
	<path class="st29" d="M656.7,389.1l9.6,5.5v1.9l-7.3-4.2v3.1l6.5,3.7v1.9l-6.5-3.7v3.2l7.4,4.2v1.9l-9.7-5.5V389.1z"/>
	<path class="st29" d="M672.8,398.3l5.8,3.3c3,1.7,4.8,4.3,4.8,6.6c0,2-1.3,2.4-3.1,1.9l3.5,6.6l-2.7-1.5l-3.2-6l-2.8-1.6v4.2
		l-2.3-1.3V398.3z M678.4,407.5c1.6,0.9,2.7,0.7,2.7-0.5c0-1.3-1-2.6-2.7-3.5l-3.3-1.9v4.1L678.4,407.5z"/>
</g>
<g>
	<g>
		<path class="st10" d="M591.6,480.9c-5.3,0-10.7-6.1-13.2-14.8c-3-10.4-0.9-20.6,4.7-23.2c0.9-0.4,1.8-0.6,2.8-0.6
			c5.3,0,10.7,6.1,13.2,14.8c3,10.4,0.9,20.6-4.7,23.2C593.5,480.7,592.6,480.9,591.6,480.9z"/>
		<path class="st30" d="M586,443.2c4.7,0,9.8,5.7,12.2,14.1c2.9,9.8,0.9,19.7-4.3,22.1c-0.8,0.3-1.6,0.5-2.4,0.5
			c-4.7,0-9.8-5.7-12.2-14.1c-2.9-9.8-0.9-19.7,4.3-22.1C584.4,443.4,585.2,443.2,586,443.2 M585.8,441.2L585.8,441.2
			c-1.1,0-2.2,0.2-3.2,0.7c-6.1,2.8-8.4,13.5-5.3,24.3c2.6,9.2,8.5,15.6,14.2,15.6c1.1,0,2.2-0.2,3.2-0.7c6.1-2.8,8.4-13.5,5.3-24.3
			C597.5,447.7,591.6,441.2,585.8,441.2L585.8,441.2z"/>
	</g>
	
		<ellipse transform="matrix(0.977 -0.2134 0.2134 0.977 -84.9026 136.2561)" class="st31" cx="588.7" cy="461.4" rx="8.8" ry="16.9"/>
	<polygon class="st30" points="588.1,450.9 589.8,459.1 595.5,461.8 591,464.3 592.7,472.5 588.2,465.8 583.6,468.2 585.3,461.6 
		580.6,454.8 586.3,457.5 	"/>
</g>
<g>
	<path class="st32" d="M394.6,452.4c0,0-7.6-6.8-22.9,10.7s-20.2,56.8-20.2,56.8s-4,23.4-2.7,29s15.6,42.9,36.5,54.8
		c20.9,11.9,6.6-13.9,6.6-13.9s-14-33.5-17-46.6s15.3-35.2,15.3-35.2L394.6,452.4z"/>
	
		<linearGradient id="SVGID_5_" gradientUnits="userSpaceOnUse" x1="-3881.8896" y1="-211.0743" x2="-3529.896" y2="-28.7918" gradientTransform="matrix(-1 -2.156642e-03 -2.156641e-03 -0.79 -3423.5972 633.6971)">
		<stop  offset="8.892801e-02" style="stop-color:#000000"/>
		<stop  offset="0.168" style="stop-color:#272727"/>
		<stop  offset="0.294" style="stop-color:#606060"/>
		<stop  offset="0.4205" style="stop-color:#909090"/>
		<stop  offset="0.5448" style="stop-color:#B8B8B8"/>
		<stop  offset="0.6664" style="stop-color:#D7D7D7"/>
		<stop  offset="0.7844" style="stop-color:#EDEDED"/>
		<stop  offset="0.8975" style="stop-color:#FAFAFA"/>
		<stop  offset="1" style="stop-color:#FFFFFF"/>
	</linearGradient>
	<path class="st33" d="M131,635C131.1,635,131.1,635,131,635c0.5,4.2,10.1,10.7,24,15.3c5.2,2.3,10.4,4.5,15.5,6.8
		c0.7,1.1,1.1,2.1,1.4,3.3l-0.1-0.1c-1,0.4-1.7,1-1.3,1.9c-1,0.4-1.8,0.8-1.6,1.4l0,0c-4.2,0.9-7.8,1.8-9.9,2.2
		c-2.8,0.6-5.6,1.4-6.9,2.6c-6.5,3.3,15.8,21.2,28.9,32.6c16.5,10.1,29.4,18.4,47.5,28.5c0.9,0.3,1.9,0.6,3.1,0.9l0,0
		c0.2,0.1,0.4,0.1,0.7,0.2c3,1.7,5.2,3.2,6.8,4.3c-0.1,0-0.3,0.1-0.4,0.2l-9-2.2c-0.9-0.2-2.3-0.5-3.2-0.6c-3-0.3-5.1,0.2-6.2,0.8
		c-1,0.5-1.5,1.1-1.7,1.9c-0.3,1.1,0.3,2.5,1.9,4c0.2,0.2,0.4,0.3,0.6,0.5l6.6,5.1l6.7,2.3l11.7,9c0.6,0.4,1.2,0.8,1.9,1.2
		c0.5,0.2,1,0.5,1.5,0.7c0.3,0.1,0.5,0.2,0.8,0.3c0.5,0.2,1,0.3,1.6,0.5l38.6,9.6l0.1,0.1c2.2,1.5,4.1,2.8,5.4,3.8
		c1.5,4.1,3.4,6.9,8.9,11.8c0.8,0.7,1.8,1.6,3,2.5c7.4,5.9,69.9,41.3,70,41c2.2-5.6,0.4-8.6,0.4-8.6c-0.1,0-3-6.6-3-6.6
		c1.1,0.3-3.8-15.3-2.7-15.3c33.9,22.5,45.4,53.5,45.4,53.5c28.5,0.5,25.7-11,33.8-18.3c4.7-4.3,17.7-8.5,14-9.5
		c-14.7-4-34.9-17.7-43.6-21c-2.1-0.8-90.6-67-109.4-76.1c0.1-0.2,0.1-0.6-0.3-1c-5.9-3.7-16.6-11.4-28.2-19.9
		c-5.8-5.2-11.6-10.5-18.9-15.9c-15.3-11.3-29.4-21.5-50.9-25.8c-0.6-0.2-1.2-0.3-1.8-0.4c0.2-0.3-0.1-0.6-0.7-1.2
		c-3-3.1-5.4-5.7-9.8-8.7c-2.7-1.8-4.2-1.7-6-3.4c-0.8-0.8-0.6-1.2-1.8-2.3c-0.5-0.5-1.1-0.9-2-1.4c-1.3-0.7-2.7-1.4-4.2-2.1l0,0
		c-0.1-0.1-0.3-0.1-0.4-0.2c0.1,0,0.1,0.1,0.2,0.1c-1-0.6-1.9-1.1-2.8-1.5c1.1-0.3,2-0.7,2.7-1.1c0.5-0.3,0.8-0.7,0.9-1.1
		c-0.1,0-0.2,0-0.3,0h0.1c-3.4-0.3-6.9-0.9-10.4-1.7c-0.2,0-0.4-0.1-0.6-0.1c-0.2,0-0.4-0.1-0.7-0.2c-4.7-1.1-9.9-2.4-15.3-3.6
		c0.6,0.1,1.2,0.1,2,0.1c-5-0.8-10.9-2.1-16-2.6c-1.2-0.1-2.5-0.2-3.8-0.3l0,0h-0.1c-4.9-0.2-9.8,0-11.9,0.8l0,0
		c-0.5,0.2-0.9,0.4-1.2,0.6C129.6,632.9,129.6,633.8,131,635z M206.2,701.1c8.4,4.3,15.2,8,17.8,10.2c1.6,1.4,2.7,2.6,3.4,3.6
		c-6.3-3.9-13-7.8-20.2-11.5C206.9,702.7,206.5,701.9,206.2,701.1z"/>
	<path class="st34" d="M398.6,809.2c-1.7,1.7-3.7,2.6-7.7,5.2l0.1,3.6c-4,7.5-7.9,11-13.3,9.6c-7.5-2-9.8-3.7-10.1-9
		c-1.1-9-1.4-10.7,0.8-17.5c7.2-5.1,10.7-6.2,15.9-8.1c4.3-1.5,10.7-5.5,16.9-7.3c3.6-1.1,5.9,1.9,6.2,4.3
		C407.9,795.6,403.2,804.1,398.6,809.2z"/>
	<path class="st35" d="M398.6,809.2c-1.7,1.7-3.7,2.6-7.7,5.2l0.1,3.6c-4,7.5-7.9,11-13.3,9.6c-7.5-2-9.8-3.7-10.1-9
		c-0.6-5-1-7.7-0.8-10.3c10.1,4.7,18.4,4,27.4-5.8c2.7-2.9,10.6-10.6,11.1-16.1c1.2,0.9,2,2.4,2.1,3.7
		C407.9,795.6,403.2,804.1,398.6,809.2z"/>
	<path class="st36" d="M365.4,739.7c0.3-11.9,2.4-23.7,6.1-32.5c2.3-5.5,3.3-11.5,3.2-17.6c-0.4-17.8-1.9-48.5-2.4-64.2
		c-0.6-18-0.7-29.5,4.2-41.3l40.3,22.3c-0.2,1.8-0.4,4-0.5,6.7l0.8,0.4c-0.5,5.2-1.3,13.6-2.3,23.4c-1.7,28-4.2,64.2-8.2,75.2l0,0
		c-4.1,27.7-10.3,60.6-15.3,87c-0.8,3.1-3.3,7.1-7.6,9.4c-0.6,0.3-1.2,0.6-1.8,0.8c-0.1,0.1-0.3,0.1-0.4,0.2
		c-0.6,0.2-1.2,0.5-1.8,0.7l0,0l0,0c-5.9,1.9-12.3,1.6-13.9-2.3C366.5,783.6,365,753.2,365.4,739.7z"/>
	<path class="st37" d="M372.7,630c0.4-1.1,3.2-43.9,3.7-45l40.3,22.3c-0.2,1.8-0.4,4-0.5,6.7l0.8,0.4c-0.5,5.2-1.3,13.6-2.3,23.4
		c-1.7,28-4.2,64.2-8.2,75.2l0,0c-4.1,27.7-10.3,60.6-15.3,87c-0.8,3.1-3.3,7.1-7.6,9.4c-0.6,0.3-1.2,0.6-1.8,0.8
		c-0.1,0.1-0.3,0.1-0.4,0.2c-0.6,0.2-1.2,0.5-1.8,0.7l0,0l0,0c-0.4,0.1-0.7,0.2-1.1,0.3c3.9-28.3,19.8-120.7,20.7-144.3
		C400,646.7,381.4,636.2,372.7,630z"/>
	<path class="st34" d="M423.3,834c2.1-0.6,7.2-9,14.7-7.6c9.1,1.6,19.4-3.8,27.5-4.2c1.4-0.1,3.3-0.5,4.2,0.1c4,2.8,4.5,5.7,1.3,9.7
		c-2.4,2.9-6.7,6.6-10.5,9.2c-4,2.8-7.1,5.1-11.9,7.3c-3.6,1.6-6.1,1.5-9.3,2.8l-0.1,2.9c-2.6,2.3-5.5,3.8-7.3,4
		c-4.6,0.6-10.2-2.3-14.2-6.3c-0.6-4.7-2.4-9.4-0.2-16.5L423.3,834z"/>
	<path class="st35" d="M472.1,824.6c1.6,2.2,1.3,4.5-1.1,7.4s-6.7,6.6-10.5,9.2c-4,2.8-7.1,5.1-11.9,7.3c-3.6,1.6-6.1,1.5-9.3,2.8
		l-0.1,2.9c-2.6,2.3-5.5,3.8-7.3,4c-4.6,0.6-10.2-2.3-14.2-6.3c-0.5-3.6-1.6-7.2-1.2-11.8c10.3,7.4,16.3,2,20.2,1.6
		c5.7-0.5,14-0.2,26.5-9.8C465.9,829.7,469,827.2,472.1,824.6z"/>
	<path class="st36" d="M412.1,746c1.4-5.2,2.1-10.7,1.8-16.1c-0.9-18.1-2.3-53.3-4.1-69.4c-1.9-16.7-11.2-46.4-2.9-67.2l33,34.8
		l14-8.1c2.2,9,3,19.3,3.1,30.2c1.8,30.2-5.7,63.3-8.7,83.9c0,0.1,0,0.3-0.1,0.4c-3.8,26.7-2.4,63.3-3.5,91.1
		c-0.1,1.9-0.2,3.7-0.3,5.4c0,0.3-0.1,0.5-0.2,0.8c0,0.1-0.1,0.2-0.1,0.4c0,0.1-0.1,0.3-0.1,0.4c-0.1,0.1-0.1,0.3-0.2,0.4
		c-0.1,0.1-0.1,0.2-0.2,0.3c-0.1,0.2-0.2,0.3-0.3,0.5c-0.1,0.1-0.1,0.2-0.2,0.3c-0.1,0.2-0.3,0.3-0.4,0.5c-0.1,0.1-0.1,0.2-0.2,0.2
		c-0.1,0.2-0.3,0.3-0.5,0.5c-0.1,0.1-0.1,0.1-0.2,0.2c-0.2,0.2-0.4,0.4-0.5,0.5s-0.1,0.1-0.2,0.2c-0.2,0.2-0.4,0.4-0.6,0.5
		c-0.1,0-0.1,0.1-0.2,0.1c-0.2,0.2-0.5,0.4-0.7,0.5c-0.1,0-0.1,0.1-0.2,0.1c-0.2,0.2-0.5,0.4-0.7,0.5c-0.1,0-0.1,0.1-0.2,0.1
		c-0.3,0.2-0.5,0.3-0.8,0.5l-0.1,0.1c-0.3,0.2-0.6,0.3-0.9,0.5l-0.1,0.1c-0.3,0.2-0.6,0.3-0.9,0.5c0,0-0.1,0-0.1,0.1
		c-0.3,0.1-0.6,0.3-0.9,0.4c-0.1,0-0.1,0-0.2,0.1c-0.3,0.1-0.6,0.3-0.9,0.4c-0.1,0-0.1,0-0.2,0.1c-0.3,0.1-0.6,0.2-0.9,0.3
		c-0.1,0-0.1,0-0.2,0.1l0,0c-6.2,2.2-13.2,2.3-17.2-1.6c-2.2-24.1-6.3-59.9-5.5-73.2C410.2,758.2,410.4,752.5,412.1,746z"/>
	<path class="st38" d="M441.2,772c0-3.3-0.8-8.9-1.9-14.6c-1.6-8.1-3.9-16.5-5.6-19.4c1.9-1.3,4-2.7,6.2-6c3.1-4.5,6.5-12.4,10.3-28
		c4.5-18.5-0.7-54.2-4.4-74.8l8.1-4.7c2.2,9,3,19.3,3.1,30.2c1.8,30.2-5.7,63.3-8.7,83.9c0,0.1,0,0.3-0.1,0.4
		c-3.8,26.7-2.4,63.3-3.5,91.1c-0.1,1.9-0.2,3.7-0.3,5.4c0,0.3-0.1,0.5-0.2,0.8c0,0.1-0.1,0.2-0.1,0.4c0,0.1-0.1,0.3-0.1,0.4
		c-0.1,0.1-0.1,0.3-0.2,0.4c-0.1,0.1-0.1,0.2-0.2,0.3c-0.1,0.2-0.2,0.3-0.3,0.5c-0.1,0.1-0.1,0.2-0.2,0.3c-0.1,0.2-0.3,0.3-0.4,0.5
		c-0.1,0.1-0.1,0.2-0.2,0.2c-0.1,0.2-0.3,0.3-0.5,0.5c-0.1,0.1-0.1,0.1-0.2,0.2c-0.2,0.2-0.4,0.4-0.5,0.5s-0.1,0.1-0.2,0.2
		c-0.2,0.2-0.4,0.4-0.6,0.5c-0.1,0-0.1,0.1-0.2,0.1c-0.2,0.2-0.5,0.4-0.7,0.5c-0.1,0-0.1,0.1-0.2,0.1c-0.2,0.2-0.5,0.4-0.7,0.5
		c-0.1,0-0.1,0.1-0.2,0.1c-0.1,0.1-0.2,0.1-0.3,0.2C445.7,816,441.2,779.5,441.2,772z"/>
	<path class="st39" d="M449,672.5c-4.3-16.3-34.3-16.8-41.5-24.8c-2.1-13.7-5.4-42.4-0.6-54.3l33,34.8l14-8.1c2.2,9,3,19.3,3.1,30.2
		c1.2,20.3-5.7,66-8.7,84.3C449.1,721,453,688,449,672.5z"/>
	<path class="st40" d="M379.5,585.3c-7.2,17.8-3.2,22.5,2.5,40.7l6.5,0.2l0.5-28.6l0.5-11.2L379.5,585.3z"/>
	<path class="st36" d="M369.2,498.8c-3.2-17.4-2.7-40.7,15.9-48.5c2.2-0.9,5-1.1,8.2-0.7c9,1.2,21.3,6.4,32.4,12.3l-0.1-1.7
		c10.1,5.1,24.5,15,29.5,19c3,2.4,5.7,4.4,7.3,8.3c7.3,18.7,2.7,46.7-2.1,65c-0.6,3.5-1.1,7-1.5,10.5c0.3,18.2,3.1,46.1,1.7,77.4
		c-1.4,2.8-3.5,5-6,6.7c-3.7,2.7-8.3,4.1-13.3,4.5c-1.9,0.2-3.8,0.3-5.6,0.2c0,0,0,0,0-0.1c-11.3-0.4-23.7-5.8-31.1-9.1
		c-8.9-4-30.7-13.6-33.1-20.7c-3.5-26.6,8.7-60.4,7.8-76.9C378.3,529.6,372.8,518.5,369.2,498.8z"/>
	<path class="st41" d="M435.6,651.8c8.9,0.4,20.4-2.5,24.9-11.4c1.4-32.1-1.2-60.4-0.8-78.5c0.4-16.6,11.4-52.2,2.8-74.3
		c-1.5-3.9-4.2-5.8-7.3-8.3c-5-4-19.4-13.8-29.5-19l0.3,5.4c4.8,3,7.7,5.1,10.7,7.8c3.6,3.3,4,8.9,0.9,12.6
		c-14.4,17.2-14,36.2-3.3,73.3C439.4,577.3,436,626.2,435.6,651.8z"/>
	<path class="st42" d="M443.5,450c-2.3,1.1-13.7-0.5-13.4,0.5c0.2,4.7,1.4,7.7,2,13.4c-16.6,0.9-26.7-0.7-30-9.6
		c0.4-5,0.8-10.5-0.6-12.7c-2.7-4.3-8.2-9.1-10.1-15.7c-3.1-10.5-2-22.1,7.8-29.8c17.8-14.1,40.6-4.1,46.4,16.6
		c1.1,4-2.1,6.2-1.9,9.7c0,0.7,0.9,1.4,1.6,2.9C446.4,427.4,446.3,448.6,443.5,450z"/>
	<path class="st40" d="M443.4,449.9c-2.3,1.1-13.6-0.4-13.3,0.6c0.2,4.7,1.4,7.7,2,13.4c-1.7,0.1-3.3,0.2-4.8,0.2
		c-5.3-7.2-10.5-12.1-24.7-17c-0.1-2.3-0.3-4.3-1-5.5c-2.7-4.3-8.2-9.1-10.1-15.7c-3.1-10.5-2-22.1,7.8-29.8
		c17.8-14.1,40.6-4.1,46.4,16.6c1.1,4-2.1,6.2-1.9,9.7c0,0.7,0.9,1.4,1.6,2.9C446.4,427.4,446.2,448.5,443.4,449.9z"/>
	<path class="st42" d="M443.1,450c-1.2,0.6-6.2,0.2-9.8-1.2c-2.3-0.9-4-2.9-4.4-3c-1.5-0.6-4.9-5.4,0.3-13.1
		c5.1-7.5-25.9,11.7-27.6,9c-2.7-4.3-8.2-9.1-10.1-15.7c-3.1-10.5-2-22.1,7.8-29.8c17.8-14.1,40.6-4.1,46.4,16.6
		c1.1,4-2.1,6.2-1.9,9.7c0,0.7,0.9,1.4,1.6,2.9C446.4,427.4,445.8,448.5,443.1,450z"/>
	<path class="st43" d="M443.6,449.9c-0.5,0.3-3.3,0.2-4.7-0.3c-1.6-1.7-3.2-5.3-3.1-7c0.2-6.8,3.7-12.3,3.6-15.1
		c0-5.8-2-2.9,0.2-9.2c1.7-4.8-0.5-5.6-1.5-9.7c2.5-0.9,3.6-2.8,4-4c1.5,2.5,2.7,5.3,3.5,8.3c1.1,4-2.1,6.2-1.9,9.7
		c0,0.7,0.9,1.4,1.6,2.9C446.4,427.4,446.3,448.3,443.6,449.9z"/>
	<path class="st40" d="M430.3,432.9c-6.4-5.9-12.5,13-2.3,12.8C424,441.4,427.1,434.7,430.3,432.9z"/>
	<path class="st43" d="M430.3,435.6c1-2.6,0.1-3.6-1-3.3c-1.3,0.3-3.1,2.2-4,4.9c-1.5,4.4,0.7,10,4.9,7.8c-3.7,0.2-3.3-4.2-2.2-6.9
		C428.7,436.2,429.8,434.9,430.3,435.6z"/>
	<path class="st40" d="M428.6,436.8c1,1.9,1.4,3,1.1,3.7c-0.2,0.5-0.9,1-2.1-0.1C427.5,439.1,428,437.8,428.6,436.8z"/>
	<path class="st44" d="M401.5,446.2c-1-7.1-7.8-13.1-10.2-20.9c-3-10-1.9-21,7.4-28.4c13.3-10.6,29.6-6.9,38.6,4.7
		c0.5,0.7-4.6,3.1-2.9,6.9c2.4,6.3,2.4,9.2,1.4,10.6c-3.8,5.4-3.8,6.2-3.6,14.4l-2.1,1.7c-0.9-6.4-3.7-5.9-6.5-3.8
		c-4.9,3.8-2.5,17.2-13.7,17.7C406.7,449.2,403,448.2,401.5,446.2z"/>
	<path class="st44" d="M404.1,411.4c9,2.2,24.3-1.3,32-7.1c2-1.5,3.4-3,4.4-4.6c2.9-4.7-0.7-10.5-6.2-10.5c-3.5,0-6.8-1.2-12.6-1.2
		c-3,0-10.7-2.1-19.9,3.9c-3.1,2.1-10.1,8.2-7.8,13.2C395,407.4,399.3,410.3,404.1,411.4z"/>
	<path class="st10" d="M402.4,451c-0.3,6.9,17.2,10,28.9,6.8c0,0,1.5,4.9,1.5,7.9c-12.1,6-27.7,4.9-32.3-5.2
		C399.4,458.3,402.2,455.2,402.4,451z"/>
	<path class="st36" d="M402.3,451.7c-0.4,6.9,16.8,11,29.4,7.9c0,0,4.3,4.4,4.3,7.4c-13,6-31.5,4.9-36.4-5.2
		C398.5,459.5,399.8,454.5,402.3,451.7z"/>
	<polygon class="st45" points="396.7,639.4 398.6,576 394.1,602.9 392.8,635.8 	"/>
	<path class="st41" d="M431.2,469.2c0,0-16.5,5-27.5-2.3c-6.8-4.5-4.3-13.3-4.3-13.3s-5.2,10.1,6.8,16.3
		C418,476,431.2,469.2,431.2,469.2z"/>
	<path class="st45" d="M406.2,470c0,0-8.6,13.3-7.6,29c1,15.8,2.6,59.5,0.1,72.3c1.1-9.3,3.1-34.6,1-64
		C397.8,481,406.2,470,406.2,470z"/>
	<path class="st43" d="M577.3,470.1c4.4-4.1,7.1-6.9,5.1-8.1c-1.9-1.1-5,2.5-9.7,5.7c-3.5,2.3-7.3,4.7-8.4,5
		c-2.6,0.6-0.3-2.9,1.3-5.7c1.6-2.7-0.7-6.8-2.2-3.7c-2,4.1-7.2,7.5-9.4,13.2c-1.1,2.8-3.1,6.4-4.5,7.5c-0.8,0.6-2.4,1.5-4.2,2.3
		c2.9,3.4,1.6,9.2,3.8,12.7c0.4,0.6,4,2.1,4.5,2.8c1.3-0.9,4.8-3.5,6-4.5c0,0,1.3-1.4,4.2-2.4c2.7-0.9,8.3-2.7,11-3.9
		c3.7-1.7,1.9-4,2.5-5.2c1.9-4.1-1.4-5.1-1.4-5.1s1.8-3.1,0.8-4.5c-1.1-1.4-3.2-2-3.2-2S575,472.2,577.3,470.1z"/>
	<path class="st36" d="M547.6,483.4l14.3,21.3c0,0-44,31.3-56.5,34c-11.1,2.4-41.5-12.5-58.5-21c-16.3-8.1-24.8-23-10.3-36
		c11.4-10.3,38.8,10.8,38.8,10.8l26,15C501.4,507.4,519.4,498.9,547.6,483.4z"/>
</g>
<g>
	<g>
		<path class="st46" d="M606.9,567l-0.1,1.2l-3.7-2.2l0.3-6.3l1.2,0.7l-0.3,5.1L606.9,567z"/>
		<path class="st46" d="M612.9,568.5c0,0.5-0.1,1-0.3,1.3s-0.4,0.5-0.6,0.7c-0.3,0.1-0.6,0.2-0.9,0.1c-0.3-0.1-0.7-0.2-1.1-0.4
			c-0.4-0.2-0.7-0.5-1.1-0.8c-0.3-0.3-0.6-0.7-0.8-1.1c-0.2-0.4-0.4-0.9-0.5-1.4s-0.2-1-0.1-1.5c0-0.5,0.1-1,0.3-1.3
			s0.4-0.5,0.7-0.7c0.3-0.1,0.6-0.2,0.9-0.1c0.3,0.1,0.7,0.2,1.1,0.4c0.4,0.2,0.7,0.5,1.1,0.8c0.3,0.3,0.6,0.7,0.8,1.1
			c0.2,0.4,0.4,0.9,0.5,1.4C612.9,567.5,613,568,612.9,568.5z M608.7,566c0,0.3,0,0.6,0.1,0.9c0.1,0.3,0.1,0.6,0.3,0.8
			c0.1,0.3,0.3,0.5,0.4,0.7c0.2,0.2,0.4,0.4,0.6,0.5c0.2,0.1,0.4,0.2,0.6,0.2c0.2,0,0.4,0,0.5-0.1s0.2-0.3,0.3-0.5s0.1-0.5,0.1-0.8
			s0-0.6-0.1-0.9c-0.1-0.3-0.1-0.6-0.3-0.8c-0.1-0.3-0.3-0.5-0.4-0.7c-0.2-0.2-0.4-0.4-0.6-0.5c-0.2-0.1-0.4-0.2-0.6-0.2
			c-0.2,0-0.3,0-0.5,0.1c-0.1,0.1-0.2,0.3-0.3,0.5C608.8,565.5,608.7,565.7,608.7,566z"/>
		<path class="st46" d="M616.8,568.7c-0.6-0.3-1-0.4-1.3-0.2s-0.4,0.6-0.5,1.3c0,0.3,0,0.6,0.1,0.9c0.1,0.3,0.1,0.6,0.3,0.8
			c0.1,0.3,0.3,0.5,0.5,0.7s0.4,0.4,0.7,0.5c0.1,0.1,0.3,0.1,0.4,0.2c0.1,0.1,0.2,0.1,0.3,0.1l0.1-2.2l1.2,0.7l-0.2,3.1
			c-0.2,0-0.4-0.1-0.7-0.2c-0.3-0.1-0.7-0.3-1.2-0.6c-0.4-0.2-0.8-0.5-1.1-0.9c-0.3-0.3-0.6-0.7-0.8-1.1c-0.2-0.4-0.4-0.9-0.5-1.3
			c-0.1-0.5-0.2-1-0.1-1.5c0-0.5,0.1-0.9,0.3-1.3c0.2-0.3,0.4-0.5,0.6-0.7c0.3-0.1,0.6-0.2,0.9-0.1c0.3,0.1,0.7,0.2,1.1,0.4
			c0.3,0.2,0.5,0.3,0.7,0.5s0.4,0.3,0.5,0.5c0.1,0.1,0.3,0.3,0.4,0.4c0.1,0.1,0.2,0.2,0.2,0.3l-0.4,0.9c-0.2-0.2-0.4-0.4-0.6-0.6
			C617.3,569,617.1,568.8,616.8,568.7z"/>
		<path class="st46" d="M624.9,575.6c0,0.5-0.1,1-0.3,1.3s-0.4,0.5-0.6,0.7c-0.3,0.1-0.6,0.2-0.9,0.1c-0.3-0.1-0.7-0.2-1.1-0.4
			c-0.4-0.2-0.7-0.5-1.1-0.8c-0.3-0.3-0.6-0.7-0.8-1.1c-0.2-0.4-0.4-0.9-0.5-1.4s-0.2-1-0.1-1.5c0-0.5,0.1-1,0.3-1.3
			s0.4-0.5,0.7-0.7c0.3-0.1,0.6-0.2,0.9-0.1c0.3,0.1,0.7,0.2,1.1,0.4c0.4,0.2,0.7,0.5,1.1,0.8c0.3,0.3,0.6,0.7,0.8,1.1
			c0.2,0.4,0.4,0.9,0.5,1.4C624.9,574.5,624.9,575,624.9,575.6z M620.6,573.1c0,0.3,0,0.6,0.1,0.9c0.1,0.3,0.1,0.6,0.3,0.8
			c0.1,0.3,0.3,0.5,0.4,0.7c0.2,0.2,0.4,0.4,0.6,0.5c0.2,0.1,0.4,0.2,0.6,0.2c0.2,0,0.4,0,0.5-0.1s0.2-0.3,0.3-0.5s0.1-0.5,0.1-0.8
			s0-0.6-0.1-0.9c-0.1-0.3-0.1-0.6-0.3-0.8c-0.1-0.3-0.3-0.5-0.4-0.7c-0.2-0.2-0.4-0.4-0.6-0.5c-0.2-0.1-0.4-0.2-0.6-0.2
			c-0.2,0-0.3,0-0.5,0.1c-0.1,0.1-0.2,0.3-0.3,0.5C620.7,572.5,620.7,572.8,620.6,573.1z"/>
		<path class="st46" d="M630,575.3l-0.1,1.2l-1.7-1l-0.3,5.1l-1.2-0.7l0.3-5.1l-1.7-1l0.1-1.2L630,575.3z"/>
		<path class="st46" d="M630.5,582.1l0.3-6.3l3.7,2.2l-0.1,1.2l-2.5-1.5l-0.1,1.2l2.2,1.3l-0.1,1.2l-2.2-1.3l-0.1,1.5l2.7,1.6
			l-0.1,1.2L630.5,582.1z"/>
		<path class="st46" d="M638.7,586.9c-0.1-0.4-0.3-0.9-0.5-1.4s-0.4-0.9-0.6-1.3c-0.1,0-0.2,0.1-0.3,0.2c-0.1,0.1-0.2,0.2-0.4,0.3
			c-0.1,0.1-0.2,0.2-0.4,0.4c-0.1,0.1-0.2,0.3-0.2,0.3l-1.4-0.8c0.3-0.4,0.6-0.7,0.9-1c0.3-0.3,0.7-0.7,1.1-1l-1.6-4.2l1.5,0.9
			l1,2.4l1.2-1.2l1.4,0.8l-2,2c0.4,0.9,0.8,1.8,1.1,2.5s0.5,1.3,0.7,1.8L638.7,586.9z"/>
		<path class="st46" d="M645.5,584.5l-0.1,1.2l-1.7-1l-0.3,5.1l-1.2-0.7l0.3-5.1l-1.7-1l0.1-1.2L645.5,584.5z"/>
	</g>
	<g>
		<path class="st47" d="M606.6,573.5c0.2,0.1,0.3,0.2,0.4,0.1c0.1,0,0.1-0.1,0.1-0.2c0-0.1,0-0.2,0-0.2c0-0.1-0.1-0.2-0.1-0.2
			c-0.1-0.1-0.1-0.2-0.2-0.3c-0.1-0.1-0.2-0.2-0.3-0.3s-0.2-0.2-0.3-0.3s-0.2-0.2-0.2-0.3c-0.1-0.1-0.1-0.2-0.2-0.4s-0.1-0.3,0-0.4
			c0-0.3,0.1-0.5,0.3-0.5c0.2-0.1,0.5,0,0.8,0.2c0.2,0.1,0.3,0.2,0.5,0.4c0.1,0.1,0.3,0.2,0.3,0.4l-0.2,0.4
			c-0.1-0.1-0.2-0.2-0.3-0.3s-0.2-0.2-0.4-0.3c-0.1-0.1-0.3-0.1-0.3-0.1c-0.1,0-0.1,0.1-0.1,0.2c0,0.1,0,0.1,0,0.2
			c0,0.1,0.1,0.1,0.1,0.2c0,0.1,0.1,0.1,0.2,0.2c0.1,0.1,0.1,0.2,0.2,0.2c0.1,0.1,0.3,0.3,0.4,0.4c0.1,0.1,0.2,0.3,0.3,0.4
			c0.1,0.1,0.1,0.3,0.2,0.4c0,0.1,0,0.3,0,0.4c0,0.3-0.1,0.5-0.3,0.5c-0.2,0.1-0.5,0-0.8-0.2c-0.1-0.1-0.2-0.1-0.3-0.2
			c-0.1-0.1-0.2-0.2-0.3-0.2c-0.1-0.1-0.1-0.1-0.2-0.2c-0.1-0.1-0.1-0.1-0.1-0.2l0.2-0.4c0.1,0.1,0.2,0.2,0.3,0.3
			C606.3,573.3,606.4,573.4,606.6,573.5z"/>
		<path class="st47" d="M611.1,576.1v0.5l-1.9-1.1l0.2-3.4l0.5,0.3l-0.1,2.8L611.1,576.1z"/>
		<path class="st47" d="M615.3,577.4c0,0.3-0.1,0.5-0.2,0.7c-0.1,0.2-0.2,0.3-0.3,0.4c-0.1,0.1-0.3,0.1-0.5,0.1s-0.4-0.1-0.6-0.2
			c-0.2-0.1-0.4-0.3-0.6-0.4c-0.2-0.2-0.3-0.4-0.4-0.6c-0.1-0.2-0.2-0.5-0.3-0.7c-0.1-0.3-0.1-0.5-0.1-0.8s0.1-0.5,0.2-0.7
			c0.1-0.2,0.2-0.3,0.3-0.4c0.1-0.1,0.3-0.1,0.5-0.1s0.4,0.1,0.6,0.2c0.2,0.1,0.4,0.3,0.5,0.4c0.2,0.2,0.3,0.4,0.4,0.6
			c0.1,0.2,0.2,0.5,0.3,0.7C615.3,576.8,615.3,577.1,615.3,577.4z M613,576c0,0.2,0,0.4,0,0.5c0,0.2,0.1,0.3,0.2,0.5
			c0.1,0.1,0.2,0.3,0.3,0.4c0.1,0.1,0.2,0.2,0.4,0.3c0.1,0.1,0.3,0.1,0.4,0.1c0.1,0,0.2,0,0.3-0.1s0.1-0.2,0.2-0.3
			c0-0.1,0.1-0.3,0.1-0.5s0-0.4,0-0.5c0-0.2-0.1-0.3-0.2-0.5c-0.1-0.1-0.2-0.3-0.3-0.4c-0.1-0.1-0.2-0.2-0.4-0.3
			c-0.1-0.1-0.3-0.1-0.4-0.1c-0.1,0-0.2,0-0.3,0.1s-0.1,0.2-0.2,0.3C613,575.7,613,575.8,613,576z"/>
		<path class="st47" d="M618.3,577.9c-0.3-0.2-0.5-0.2-0.7-0.1c-0.2,0.1-0.3,0.4-0.3,0.7c0,0.2,0,0.4,0,0.5c0,0.2,0.1,0.3,0.2,0.5
			c0.1,0.2,0.2,0.3,0.3,0.4c0.1,0.1,0.2,0.2,0.4,0.3c0.1,0.1,0.2,0.1,0.2,0.1c0.1,0,0.1,0.1,0.2,0.1l0.1-1.2l0.5,0.3l-0.1,1.6
			c-0.1,0-0.2-0.1-0.4-0.1c-0.2-0.1-0.4-0.2-0.6-0.3c-0.2-0.1-0.4-0.3-0.6-0.5c-0.2-0.2-0.3-0.4-0.4-0.6c-0.1-0.2-0.2-0.5-0.3-0.7
			c-0.1-0.3-0.1-0.5-0.1-0.8s0.1-0.5,0.2-0.7c0.1-0.2,0.2-0.3,0.3-0.4c0.1-0.1,0.3-0.1,0.5-0.1s0.4,0.1,0.6,0.2
			c0.1,0.1,0.3,0.2,0.4,0.2c0.1,0.1,0.2,0.2,0.3,0.2c0.1,0.1,0.1,0.1,0.2,0.2c0,0.1,0.1,0.1,0.1,0.1l-0.2,0.4
			c-0.1-0.1-0.2-0.2-0.3-0.3C618.6,578.1,618.5,578,618.3,577.9z"/>
		<path class="st47" d="M622.7,583.5c0-0.2-0.1-0.3-0.1-0.5s-0.1-0.3-0.1-0.5l-1.3-0.7c0,0.1-0.1,0.2-0.1,0.3s-0.1,0.2-0.1,0.3
			l-0.6-0.3c0.1-0.3,0.3-0.6,0.4-0.8c0.1-0.2,0.2-0.5,0.3-0.7s0.2-0.4,0.3-0.6s0.2-0.4,0.3-0.6l0.5,0.3c0.1,0.3,0.2,0.6,0.3,0.9
			c0.1,0.3,0.2,0.6,0.2,0.9c0.1,0.3,0.2,0.7,0.3,1c0.1,0.4,0.2,0.8,0.3,1.2L622.7,583.5z M622,580.3c-0.1,0.1-0.2,0.3-0.3,0.5
			s-0.2,0.4-0.3,0.6l1,0.6c-0.1-0.3-0.2-0.7-0.2-1C622.1,580.7,622,580.5,622,580.3z"/>
		<path class="st47" d="M626.6,585.8c-0.1-0.2-0.2-0.5-0.3-0.8s-0.2-0.6-0.3-0.9c-0.1-0.3-0.2-0.6-0.4-0.9c-0.1-0.3-0.2-0.5-0.4-0.8
			l-0.1,2.4l-0.5-0.3l0.2-3.4l0.4,0.3c0.1,0.2,0.2,0.4,0.3,0.7s0.2,0.5,0.4,0.8c0.1,0.3,0.2,0.6,0.4,0.8c0.1,0.3,0.2,0.5,0.3,0.8
			l0.1-2.2l0.5,0.3L627,586L626.6,585.8z"/>
		<path class="st47" d="M630.8,584.8l0.5,0.3l-0.2,3.4l-0.5-0.3l0.1-1.5l-1.3-0.8l-0.1,1.5l-0.5-0.3l0.2-3.4l0.5,0.3l-0.1,1.3
			l1.3,0.8L630.8,584.8z"/>
		<path class="st47" d="M632.9,589.5l0.2-3.4l1.9,1.1v0.5l-1.4-0.8v0.8l1.2,0.7v0.5l-1.2-0.7l-0.1,1l1.5,0.9v0.5L632.9,589.5z"/>
		<path class="st47" d="M637.4,588.6c0.4,0.3,0.7,0.5,1,0.8c0.2,0.3,0.3,0.6,0.3,1c0,0.5-0.2,0.6-0.6,0.6c0.1,0.1,0.1,0.2,0.2,0.4
			c0.1,0.1,0.1,0.3,0.2,0.5c0.1,0.2,0.1,0.3,0.2,0.5c0.1,0.2,0.1,0.3,0.2,0.5l-0.6-0.4c0-0.1-0.1-0.3-0.2-0.5
			c-0.1-0.2-0.1-0.3-0.2-0.5c-0.1-0.1-0.1-0.3-0.2-0.4c-0.1-0.1-0.1-0.3-0.2-0.4c0,0-0.1,0-0.1-0.1h-0.1l-0.3-0.2l-0.1,1.3l-0.5-0.3
			l0.2-3.3c0.1,0,0.3,0.1,0.4,0.2C637.1,588.5,637.3,588.6,637.4,588.6z M637.4,589.2c-0.1-0.1-0.2-0.1-0.3-0.2l-0.1,1.1l0.2,0.1
			c0.1,0.1,0.2,0.1,0.3,0.2c0.1,0,0.2,0.1,0.3,0.1s0.1,0,0.2-0.1c0-0.1,0.1-0.1,0.1-0.2c0-0.1,0-0.2,0-0.3s-0.1-0.2-0.1-0.3
			c-0.1-0.1-0.1-0.2-0.2-0.2C637.6,589.3,637.5,589.3,637.4,589.2z"/>
		<path class="st47" d="M640.1,593.7l0.2-3.4l1.9,1.1v0.5l-1.4-0.8v0.8l1.2,0.7v0.5l-1.2-0.7l-0.1,1l1.5,0.9v0.5L640.1,593.7z"/>
	</g>
	<path class="st48" d="M633.5,541.6l-3.8,1.9l-3.4-6.1l-1.7,0.9l10.8,19.9l-6.7,3.4l-1.8-3.3l4.7-2.4l-12.4-22.7l-14,7.1l12.4,22.7
		l3.8-1.9l3.4,6.1l1.7-0.9l-10.9-19.9l6.7-3.4l1.8,3.3l-4.7,2.4l12.4,22.7l14-7.1L633.5,541.6z M612.3,544.6l7.5,13.7l-2,1l-9.3-17
		l10.5-5.4l1.8,3.3L612.3,544.6z M622.8,550.7l2.9-1.5l2.6,4.7l-2.9,1.5L622.8,550.7z M630.3,564.4l8.4-4.3l-7.5-13.7l2-1l9.3,17
		l-10.5,5.4L630.3,564.4z"/>
</g>
<g>
	<g>
		<text transform="matrix(1.0363 0.642 0.1794 0.9838 450.6886 363.5488)" class="st49 st50 st51">Lorem ipsum</text>
		<text transform="matrix(1.0363 0.642 0.1794 0.9838 461.1107 375.2521)" class="st49 st52 st53">YOUR SLOGAN</text>
	</g>
	<g>
		
			<linearGradient id="SVGID_6_" gradientUnits="userSpaceOnUse" x1="215.9334" y1="-510.5369" x2="227.2709" y2="-496.899" gradientTransform="matrix(1.2741 0.5743 0.1769 0.8646 272.7778 661.1015)">
			<stop  offset="0" style="stop-color:#34D66B"/>
			<stop  offset="7.852859e-02" style="stop-color:#27CA6B;stop-opacity:0.9983"/>
			<stop  offset="0.247" style="stop-color:#12B56C;stop-opacity:0.9945"/>
			<stop  offset="0.4112" style="stop-color:#05A96C;stop-opacity:0.9909"/>
			<stop  offset="0.5649" style="stop-color:#01A56C;stop-opacity:0.9874"/>
			<stop  offset="0.9675" style="stop-color:#002E4F;stop-opacity:0.97"/>
		</linearGradient>
		<polygon class="st54" points="457.5,334.4 454.7,339.6 470.1,366.5 479.8,372.6 		"/>
		
			<linearGradient id="SVGID_7_" gradientUnits="userSpaceOnUse" x1="222.4905" y1="-511.8873" x2="222.4905" y2="-511.8873" gradientTransform="matrix(1.2741 0.5743 0.1769 0.8646 272.7778 661.1015)">
			<stop  offset="5.000000e-03" style="stop-color:#01B89D"/>
			<stop  offset="0.3348" style="stop-color:#01958E;stop-opacity:0.9901"/>
			<stop  offset="1" style="stop-color:#00466A;stop-opacity:0.97"/>
		</linearGradient>
		<path class="st55" d="M465.7,346.3"/>
		
			<linearGradient id="SVGID_8_" gradientUnits="userSpaceOnUse" x1="240.1264" y1="-508.0306" x2="228.3683" y2="-514.7358" gradientTransform="matrix(1.2741 0.5743 0.1769 0.8646 272.7778 661.1015)">
			<stop  offset="0" style="stop-color:#222961"/>
			<stop  offset="0.1127" style="stop-color:#203262;stop-opacity:0.9966"/>
			<stop  offset="0.2947" style="stop-color:#1C4A63;stop-opacity:0.9912"/>
			<stop  offset="0.5231" style="stop-color:#147065;stop-opacity:0.9843"/>
			<stop  offset="0.7864" style="stop-color:#0AA668;stop-opacity:0.9764"/>
			<stop  offset="1" style="stop-color:#00D66B;stop-opacity:0.97"/>
		</linearGradient>
		<polygon class="st56" points="466.5,347.1 469,341.4 481.8,349.6 488.2,360.4 		"/>
		
			<linearGradient id="SVGID_9_" gradientUnits="userSpaceOnUse" x1="222.9032" y1="-516.7826" x2="247.3817" y2="-506.8333" gradientTransform="matrix(1.2741 0.5743 0.1769 0.8646 272.7778 661.1015)">
			<stop  offset="0" style="stop-color:#222961;stop-opacity:0"/>
			<stop  offset="0.1315" style="stop-color:#20325F;stop-opacity:0.1276"/>
			<stop  offset="0.3438" style="stop-color:#1A495A;stop-opacity:0.3335"/>
			<stop  offset="0.6103" style="stop-color:#117053;stop-opacity:0.592"/>
			<stop  offset="0.9179" style="stop-color:#04A648;stop-opacity:0.8903"/>
			<stop  offset="1" style="stop-color:#00B545;stop-opacity:0.97"/>
		</linearGradient>
		<polygon class="st57" points="466.5,347.1 469,341.4 481.8,349.6 488.2,360.4 		"/>
		
			<linearGradient id="SVGID_10_" gradientUnits="userSpaceOnUse" x1="239.745" y1="-512.2837" x2="224.4663" y2="-488.5688" gradientTransform="matrix(1.2741 0.5743 0.1769 0.8646 272.7778 661.1015)">
			<stop  offset="5.000000e-03" style="stop-color:#01C270"/>
			<stop  offset="0.4351" style="stop-color:#019567"/>
			<stop  offset="1" style="stop-color:#00555B"/>
		</linearGradient>
		<polyline class="st58" points="470.1,366.5 479.8,372.6 488.2,360.4 481.8,349.6 		"/>
		
			<linearGradient id="SVGID_11_" gradientUnits="userSpaceOnUse" x1="235.3111" y1="-516.5991" x2="230.5475" y2="-509.2052" gradientTransform="matrix(1.2741 0.5743 0.1769 0.8646 272.7778 661.1015)">
			<stop  offset="0" style="stop-color:#222961"/>
			<stop  offset="0.3708" style="stop-color:#222B61;stop-opacity:0.6292"/>
			<stop  offset="0.5192" style="stop-color:#203263;stop-opacity:0.4808"/>
			<stop  offset="0.6278" style="stop-color:#1E3E65;stop-opacity:0.3722"/>
			<stop  offset="0.7171" style="stop-color:#1A5067;stop-opacity:0.2829"/>
			<stop  offset="0.7943" style="stop-color:#16666B;stop-opacity:0.2057"/>
			<stop  offset="0.8633" style="stop-color:#108270;stop-opacity:0.1367"/>
			<stop  offset="0.9262" style="stop-color:#0AA376;stop-opacity:7.377154e-02"/>
			<stop  offset="0.9826" style="stop-color:#03C97C;stop-opacity:1.738203e-02"/>
			<stop  offset="1" style="stop-color:#00D67E;stop-opacity:0"/>
		</linearGradient>
		<path class="st59" d="M481.8,349.6c-0.4,0-7.3,2.3-7.3,2.3l4,2.6L481.8,349.6z"/>
		
			<linearGradient id="SVGID_12_" gradientUnits="userSpaceOnUse" x1="227.5543" y1="-506.5906" x2="223.2341" y2="-489.9276" gradientTransform="matrix(1.2741 0.5743 0.1769 0.8646 272.7778 661.1015)">
			<stop  offset="1.000000e-02" style="stop-color:#01C49D;stop-opacity:0"/>
			<stop  offset="7.470310e-02" style="stop-color:#05AF93;stop-opacity:6.339598e-02"/>
			<stop  offset="0.2274" style="stop-color:#0D837E;stop-opacity:0.213"/>
			<stop  offset="0.3821" style="stop-color:#145F6D;stop-opacity:0.3646"/>
			<stop  offset="0.5366" style="stop-color:#194360;stop-opacity:0.516"/>
			<stop  offset="0.691" style="stop-color:#1D2F57;stop-opacity:0.6673"/>
			<stop  offset="0.8454" style="stop-color:#1F2351;stop-opacity:0.8186"/>
			<stop  offset="1" style="stop-color:#201F4F;stop-opacity:0.97"/>
		</linearGradient>
		<polygon class="st60" points="470.1,366.5 470.3,356.4 473.6,361.8 		"/>
		
			<linearGradient id="SVGID_13_" gradientUnits="userSpaceOnUse" x1="236.9511" y1="-500.302" x2="225.4064" y2="-504.0632" gradientTransform="matrix(1.2741 0.5743 0.1769 0.8646 272.7778 661.1015)">
			<stop  offset="1.000000e-02" style="stop-color:#01C49D;stop-opacity:0"/>
			<stop  offset="0.2126" style="stop-color:#169B91;stop-opacity:0.1965"/>
			<stop  offset="0.5904" style="stop-color:#3A547B;stop-opacity:0.5628"/>
			<stop  offset="0.8627" style="stop-color:#50286E;stop-opacity:0.8268"/>
			<stop  offset="1" style="stop-color:#591769;stop-opacity:0.96"/>
		</linearGradient>
		<polyline class="st61" points="470.1,366.5 479.8,372.6 488.2,360.4 481.8,349.6 		"/>
	</g>
</g>
</svg>
