<svg version="1.1" id="Layer_1" xmlns="http://www.w3.org/2000/svg" x="0" y="0" viewBox="0 0 925.5 1194.9" xml:space="preserve"><style>.st4{fill:#9093aa}.st6{opacity:.42}.st7{fill:#b2b4bd}.st14{fill:#003d86}.st15{fill:#0f293f}.st16{fill:#093070}.st18{fill:#c3e0ff}.st20{fill:#003473}.st23{fill:#8fc0e6}.st24{fill:#e2f0ff}.st25{fill:#cddcf1}.st26{fill:#9542c3}.st30{fill:#004a90}.st32{fill:#ffc8bf}.st34{fill:#4a2b12}.st91{fill:#fff}.st103{opacity:.22}.st104{fill:#8c9dbe}.st105{fill:#e5b7a9}.st116{fill:#d9ddf0}.st118{fill:#f0f8fd}.st119{opacity:.63}.st120{fill:#3d952d}.st121{fill:#00c700}.st122{fill:#7da66b}</style><linearGradient id="SVGID_1_" gradientUnits="userSpaceOnUse" x1="360.209" y1="864.692" x2="863.329" y2="654.283" gradientTransform="translate(0 114)"><stop offset=".346" stop-color="#b8b8b8"/><stop offset=".452" stop-color="#c9c9c9"/><stop offset=".674" stop-color="#e6e6e6"/><stop offset=".864" stop-color="#f9f9f9"/><stop offset="1" stop-color="#fff"/></linearGradient><path fill="url(#SVGID_1_)" d="M773.1 780.5l16.9-7.6-14-7-15.7 7.5-58.1-32.4-386.3 123.6 47.7 234.4 22.9-14.8 17.5 8.8 457-267z"/><linearGradient id="XMLID_12_" gradientUnits="userSpaceOnUse" x1="732.162" y1="675.045" x2="370.907" y2="923.959" gradientTransform="translate(0 114)"><stop offset="0" stop-color="#c8b9b2"/><stop offset=".431" stop-color="#ccbcb5"/><stop offset=".835" stop-color="#d7c6be"/><stop offset="1" stop-color="#deccc3"/></linearGradient><path id="XMLID_2_" fill="url(#XMLID_12_)" d="M628.3 945.1l109.6-62.2V700.6l-109.6 62.2z"/><path id="XMLID_1_" d="M441.1 612.7c-.1 0-1.8 211-1.8 211l189 121.4v-226L441.1 612.7z" fill="#b9ada6"/><path d="M519.2 908.7l33.5-12 36.7-100.9-102.9 58.6 5.8 26.5 26.9 27.8z" fill="#aa9f99"/><path class="st4" d="M322.8 606.4l10.3-4.6c1.6-.2 3.1 0 4.6.7l93.5 47.6-20.1 6.5-88.3-46.7-.6-1.6c-.4-.9-.3-1.8.6-1.9z"/><path id="XMLID_6_" d="M414.3 655.6c-.3-2.1-1.6-4-3.5-5l-84.5-44.1c-2.6-1.4-6.1.2-6.2 3.8l-.4 8.9c-.2 4.3 1.6 8 4.8 9.6l84.6 43.5c6.8 3.6 4.8-7.4 5.2-16.7z" fill="#a5a5b2"/><g class="st6"><path class="st4" d="M331.7 616.8h.4c-.6-.4-1.3-.6-1.9-.5-1.7.2-2.9 2.2-2.6 4.4.3 2 1.7 3.5 3.3 3.5-.9-.6-1.6-1.7-1.8-3-.3-2.2.9-4.2 2.6-4.4z"/><path class="st7" d="M333.8 619.8c-.2-1.3-.9-2.4-1.8-3h-.4c-1.7.2-2.9 2.2-2.6 4.4.2 1.3.9 2.4 1.8 3h.4c1.8-.2 2.9-2.2 2.6-4.4z"/></g><path d="M408.4 981.2l22.1-20.4c17.7-16.3 38.2-29.4 60.4-38.7l61.2-25.6-65.7-42.1-89 51.4L392 961l16.4 20.2z" fill="#ababab"/><path d="M414.3 655.5l16.8-5.4-93.5-47.6c-1.4-.7-3-.9-4.6-.7l-10.3 4.6c-.2 0-.4.1-.6.3-1.2.7-2.1 1.9-2.2 3.7l-.4 8.9c-.2 4.3 1.6 8 4.8 9.6l84.6 43.5c6.9 3.6 4.8-7.4 5.3-16.7.1-.1.1-.2.1-.2z" opacity=".34" fill="#b2b4ff"/><path d="M338.5 772.1c-15.5 7.7-36.6 9.7-45.5 4 0 0-14.4-14-54.5-35.5-12.3-6.6-32.9-8.7-40-12.7-8.5-4.9-19.9-3.2-1.8-12.7l104.8-52.9c16.4-8 40.4-11.8 53.2-4.2l50.9 12.4 34.9 24.1c11.4 4.4-2.6 26.6-18.1 34.3-10.5 5.2-80.8 41.6-80.8 41.6-.9.6-2 1.1-3.1 1.6z" fill="#775654"/><path d="M208.8 714.6c-16.2 8.5-29.5 1-28.3-17 0 0 7.1-40 8.5-111.8.4-22-8.3-38.6-7.7-51.8.6-15.9 7.5-25.8 27.3-36l95.9-55.7c17.1-8.8 33.7-1.3 32.5 23.4l13.9 57.2-6.8 74.6c1.3 16.6-29.3 58.8-45.5 67.3-11 5.7-86.3 47.9-86.3 47.9-1.2.7-2.3 1.4-3.5 1.9z" fill="#805b5a"/><path id="XMLID_3_" d="M402.1 831.2L200.4 721.6c-6.5-3.8-14.4-4.1-15 5.4l-.1 13.2c0 7 3.7 13.4 9.7 16.9l179.7 103.7c13 7.5 29.2-1.9 29.2-16.9l-1.8-12.7z" fill="#966a6a"/><linearGradient id="SVGID_2_" gradientUnits="userSpaceOnUse" x1="180.507" y1="498.563" x2="220.416" y2="498.563" gradientTransform="translate(0 114)"><stop offset=".165" stop-color="#c3817b"/><stop offset=".426" stop-color="#b57872"/><stop offset=".723" stop-color="#a9716b"/></linearGradient><path d="M210.1 514.3c-4.5-9.4-17.7-9.9-23.1-1-3.8 6.3-5.5 13.3-5.8 20.8-.5 13.2 8.2 29.8 7.7 51.8-1.4 71.8-8.5 111.8-8.5 111.8-.9 13.1 5.9 20.6 15.9 20.5 7.5-.1 13.8-5.7 15.3-13 7-34.8 16.4-153.6-1.5-190.9z" fill="url(#SVGID_2_)"/><path class="st14" d="M391.5 666.1s-5.3-12.5-28-19.7 7.6 26.3 7.6 26.3l20.4-6.6z"/><path class="st15" d="M519.2 908.7c9.3-1.7 8.7-12.8 2.5-16-5.8-1.4-34.9-18.8-34.9-33.3 0-6.1-3.9-7.1-6.8-5.3 0 0-7.7-1.2-14.1 12.1-5.7 11.9-22.3 4.1-22.1-3.4-1.1 14.3-1.4 25.4-1.4 25.4s3.5 9.3 23.2 9c-.1-1.4-.2-3.6-.2-3.6s6.4 1.6 9.6 4c8.1 5.9 14.7 16.4 44.2 11.1z"/><path class="st16" d="M337.7 640.3c-28.4-10.9-8.9 2.5-24 27.2-14.1 23.1-28.5 35.3-.4 44.2 1.9.6 29.1 12.4 33.7 13.5 0 0 33.6 4.4 80.2 16.7 20 5.3 24.2 12.5 39.2-1.7l12.3-14.2c0-13.9-3.7-25.1-15.3-31.1-36.3-18.7-112.7-49.6-125.7-54.6z"/><path class="st16" d="M488.2 853c-.5-4.9 2.2-3.9 1.5-9.5-4.7-34.7-.7-135.2 0-137l-27.1-4.1c-16.1 9.8-24.7 41-25.1 50.1-1 23 3.4 52.2 6.5 94.6.6 8.7-3 10.7-1.5 26.8 16.4 9 51.8 4.5 53.3-1.2-1.8-5-6.7-10.2-7.6-19.7zM327 687.4c-20.8-22.2-57.1 50.6-32 65.9 1.7 1.1 61.1 51.7 79 41.5l15.3-10.8c3.3-13.5.9-23.8-7.5-33.9-24.9-29.8-43.4-50.5-54.8-62.7z"/><path class="st15" d="M363 934.3c-.6-1-.9-2.2-.9-3.4l-.5-11.6.6-.3c0-1 .2-2 .5-2.8 1.7-3.9 6.9-8.2 9.9-12.1 2.9-3.9 8.7-1.7 11.2-1.5 2.4.2 7.3 6.6 7.3 7.5 0 1 5 8.5 6.4 19.9 1.7 14.1 12.4 25.3 16 37 2.4 7.7-1.1 11.2-1.1 11.2s-4.8 5.6-15.7 4.6c-17.4-1.5-32.7-14.7-30.5-38.9.1-1.1.1-2.2.1-3.3l-3.3-6.3z"/><path class="st16" d="M403.1 769.2l-33.5-9.5c-16.1 9.8-19.6 40.9-20.2 50-1.1 16.6 4.8 57.2 7.7 95.2.3 3.5 0 11 .5 16 22.9 21.5 40.5 8.6 42 2.9-6.7-80.2 2.7-152.8 3.5-154.6zm-108.2-15.9s-37.3-25.6-37.3-52.7v-28.8c0-18.7 21.4-35.5 40-37.5 14.5-1.6 32.7.8 65.3 17.1 0 0-25.3 3.3-31 44.9 17.4 16.2-37 57-37 57zm70.4-243.4c-4.3-6.2-32.3-11.6-33.1 25.9-2.4 6.3-13.2 15.1 7.8 46.2 2.8 4.2 44 25.1 38.1-3.8-1.8-9-4.6-16.2-12.8-68.3z"/><ellipse transform="rotate(-45.637 411.242 620.886)" cx="411.3" cy="620.9" rx="18.1" ry="10.5" fill="#1d2d58"/><path class="st18" d="M426.8 612.5c-1.1-1.1-2.5-2.2-6.1-5.1-1.7-.7-3.9-.9-6.6-.1-7.3 2.1-14.8 9.7-16.7 17.1-.6 2.5-.6 4.7.1 6.3 2.2 1.6 4.2 2.9 5.8 4-1.2-1.7-1.5-4.1-.8-7.1 1.8-7.1 9-14.4 16-16.4 4.2-1.2 7.4-.1 8.9 2.4-.2-.4-.3-.8-.6-1.1z"/><path class="st16" d="M397 624.9c2-7.9 10.1-16.1 17.9-18.3 4.7-1.3 7.9 1 10 2.7-.1-.5-.3-1-.6-1.3-3.4-3.2-8.8-5.1-58.3-45.5-19.6-16-40.4 8.2-31.7 19.3 1.2 5.9 49.6 41.6 64.8 52.4-1.4-1.8-2.9-5.9-2.1-9.3z"/><path d="M364.9 514.1c-13.2 2-15.3 12.7-28.3 14.9-.1.2-.2.5-.3.7 1.7 24.2 4 33 6.4 57 1.3 2.2 11 11.4 21.9 20.8.6.6-7-10 .2-32.9-.2-14.9 2.4-47 .1-60.5z" fill="#082c67"/><path class="st14" d="M271.4 490.2s6.5-8.7 14.4-9.8l10.8 17.6-28 4.5 2.8-12.3zm61.8 137.6s25-11.1 25.2-20.2c.5-36.5 7.9-82.5 7-97.6-13.5.5-16.4 10-29.8 10.6-1.6 35.7-2 71.3-2.4 107.2z"/><path class="st14" d="M360.4 571.1c-1.6 18.6-2.2 31.5-2.1 42.2 0 11.7 1.2 21.2 1.8 27 .3 2.4 1.5 4.6 3.4 6 2.8 2.1 8.2 5.7 18.2 11.3 0 0-6.3-.3-13.9 8.2-7.8 8.7-12.3 22.2-20.1 20.1-6.3-1.6-11.4-6.8-11.4-31.7.5-25.4-.7-17.3-3.3-42.6 10.5-5.1 16.9-35.3 27.4-40.5z"/><path class="st14" d="M339.3 620.4s-58.1 33.9-76.1 2.1c-22.9-40.3-35.4-38.1-33.2-68.6 0 0 7.6-51.5 34.2-23.8 27.4 28.7 72.9 55.6 75.1 90.3z"/><path class="st14" d="M344.1 487.2c-16.8-3-37.8-4.2-57.5-1.5V549c21.6 3 45-.3 62.7-8.3 22.3-10 22.5-48.6-5.2-53.5z"/><path class="st20" d="M340.5 497.4c5.5 4.2 8.7 9.9 8.7 9.9l-4.2 2.6 10.2 5.2s-1.3 54.2-14.6 88.5c-10.5 27.1 5.2-74.2 5.2-74.2l-7.1-15.3-3.2-11.8s3.3-6.2 5-4.9z"/><path class="st14" d="M337.8 613.9c9.5-31.9 15.1-65.1 16.2-98.5-4.6-2.1-6.9-3.1-11.4-5.2 2.2-1.3 3.3-2 5.5-3.4 0 0-9.1-16.1-23.2-21-5.6-2.4-6.3.5-12.1-.1 2 36.4 8.6 72.6 13.1 108.8 10.9 8.8 11.5 20.5 11.9 19.4z"/><path class="st14" d="M276.5 489.5s-19.3 9.1-39.3 37.5c-8.7 12.3-9.8 35-5.4 38.6 22.4 18.3 68.3-8 96.1-15.6 17.8-4.9-51.4-60.5-51.4-60.5z"/><path d="M321.4 513.8v-20.1s5.6 4.3 9.1 13.5l-9.1 6.6z" fill="#d3a494"/><path d="M288.4 449.2s-5.9-13.8-6.5-21.5c19 14.6 28.8 21.9 48.8 36.7-5 18.3-8.1 37.5-10.3 56.2 0 0 1.6 12.1-15.1 9.8-21.8-3-26.2-20.6-26.2-20.6l9.3-60.6z" fill="#edb7a5"/><path class="st18" d="M427.8 620c-1.8 7.1-9 14.4-16 16.4s-11.3-2.2-9.4-9.2c1.8-7.1 9-14.4 16-16.4s11.2 2.2 9.4 9.2z"/><path class="st23" d="M427.4 620c-1.7 6.7-8.5 13.7-15.2 15.6-6.7 1.9-10.7-2.1-9-8.8s8.5-13.7 15.2-15.6c6.7-1.9 10.8 2.1 9 8.8z"/><path class="st24" d="M329.1 502.2c14.6 30.5 5.2 105.4 5.2 105.4-7.3-17.7-44.9-62.2-59.5-100.1 0 0 36.4 10.3 44 10.7 7.7.4 10.3-16 10.3-16z"/><path class="st25" d="M300.5 540.1s16.5-11.1 17.6-11.5-9-9.1-9-9.1l-8.6 20.6z"/><path class="st24" d="M318.3 518.1h.5c7.6.4 10.3-16 10.3-16 14.6 30.5 9.8 52.9 5.5 104.1 0 0-.8-5.7-1.2-6.3-3.6-30.8-7.4-51.6-15.1-81.8z"/><path class="st25" d="M334.2 532.6l-15.7-5-.8-10s11.3-.8 16.4 13.7l.1 1.3z"/><path class="st26" d="M320 579.3c-1.7-13.4-3.9-46.6-3.9-46.6s4.7-9 9.8-2.9l11.4 46.6s-1.1 19.7-1.9 26.1c-.3 2-9.2-13.5-15.4-23.2z"/><path class="st20" d="M269.8 504.6s-7.3 9.5 6.6 43.1c1.6 0 11.4-3.6 11.4-3.6l-9.6 11.3s45.8 36.9 54.5 51.1c3.9 6.3 6.6 12.8 6.6 12.8s-2.5-23.9-37.3-65.6c-30-35.9-32.2-49.1-32.2-49.1z"/><linearGradient id="SVGID_3_" gradientUnits="userSpaceOnUse" x1="325.121" y1="387.955" x2="354.556" y2="375.644" gradientTransform="translate(0 114)"><stop offset=".431"/><stop offset=".649"/><stop offset=".745" stop-color="#2f2f2f"/><stop offset=".963" stop-color="#a5a5a5"/><stop offset="1" stop-color="#bababa"/></linearGradient><path d="M324 505.9s20.9 4 29.9-14c-6.2-4.7-15.2-6.6-20.6-1.2-10.4 10.6-9.3 15.2-9.3 15.2z" opacity=".09" fill="url(#SVGID_3_)"/><path class="st26" d="M327 516.3c-1.1 5.8.2 10.1-1.3 14.6 0 0-4.5-.4-9.6 1.7-3.3-3.6-4-8.5-5.2-10.8 4.6-3 1.8-1.4 5.5-3.8.6-.4 1.2-.5 1.9-.5 3.3.3 5.2-1.9 8.7-1.2z"/><path class="st24" d="M283.2 482.9l-.6 4.6s-5.2 18 35 30.1c0 0-6.2 1.7-17.1 22.5 0 0-30.7-32.3-27.8-40.7 3.8-10.9 10.5-16.5 10.5-16.5zm42.4 20.6c-.1-2.4-.2-5.2-.2-7.6 0 0 6.5 7.8 8 16.7 2.1 12.7.8 19.9.8 19.9-10.7-14.4-16.6-15-16.6-15s7.8-8.3 8-14z"/><path class="st14" d="M279.4 485.6c-2.6 3.4-5.9 16.7 2.1 30.9 21.6 38.4 57.8 72.5 57.8 103.9-4.2-25.1-47-55.5-59.8-65.3 7.9-9 9.6-12.2 9.6-12.2l-12.2 2.2s-10.5-24.5-9.4-41.6c.4-5.8 1.7-10 4-13.2 1.3-1.9 3-3.4 5-4.7h2.9zm-23.9 108.6c7.6 38.1-6 59.3-7.3 107.9 0 0 19.1 17.4 62.3 14.7 5-.3 27.8-12.2 28.7-49.8v-46.6c-31.5-9.2-51.4-17.1-83.7-26.2z"/><linearGradient id="SVGID_4_" gradientUnits="userSpaceOnUse" x1="228.395" y1="498.868" x2="261.234" y2="480.408" gradientTransform="translate(0 114)"><stop offset=".431"/><stop offset=".649"/><stop offset=".745" stop-color="#2f2f2f"/><stop offset=".963" stop-color="#a5a5a5"/><stop offset="1" stop-color="#bababa"/></linearGradient><path d="M227.9 555.3c-.6-7.5 20.2-16.8 36.7 10.8 5.2 5 8.7 38 18.3 76.4.4 1.5-13.4 10-25 10.4-6.8.3-12.8-4.3-14.4-10.9-4.4-17.8-12.5-44.9-15.6-86.7z" opacity=".09" fill="url(#SVGID_4_)"/><path class="st4" d="M179.4 664.1l10.3-4.6c1.6-.2 3.1 0 4.6.7l93.5 47.6-20.1 6.5-88.3-46.7-.6-1.6c-.4-.9-.3-1.8.6-1.9z"/><linearGradient id="XMLID_13_" gradientUnits="userSpaceOnUse" x1="176.285" y1="583.281" x2="271.005" y2="583.281" gradientTransform="translate(0 114)"><stop offset="0" stop-color="#c2c2c2"/><stop offset=".505" stop-color="silver"/><stop offset=".687" stop-color="#b9b9b9"/><stop offset=".817" stop-color="#adadad"/><stop offset=".921" stop-color="#9d9d9d"/><stop offset="1" stop-color="#8a8a8a"/></linearGradient><path id="XMLID_4_" d="M270.9 713.4c-.3-2.1-1.6-4-3.5-5l-84.5-44.1c-2.6-1.4-6.1.2-6.2 3.8l-.4 8.9c-.2 4.3 1.6 8 4.8 9.6l84.6 43.5c6.8 3.5 4.8-7.5 5.2-16.7z" fill="url(#XMLID_13_)"/><g class="st6"><path class="st4" d="M188.3 674.5h.4c-.6-.4-1.3-.6-1.9-.5-1.7.2-2.9 2.2-2.6 4.4.3 2 1.7 3.5 3.3 3.5-.9-.6-1.6-1.7-1.8-3-.3-2.2.9-4.2 2.6-4.4z"/><path class="st7" d="M190.4 677.5c-.2-1.3-.9-2.4-1.8-3h-.4c-1.7.2-2.9 2.2-2.6 4.4.2 1.3.9 2.4 1.8 3h.4c1.8-.2 2.9-2.2 2.6-4.4z"/></g><path class="st30" d="M232.3 535.8c2.5-7.1 20.7-7.6 32.3 22.4 4.3 5.8.9 65.9 2.5 93.1.1 1.5-12.8 17-24.3 15.5-6.7-.9-11.5-6.4-12.4-13.1-1.7-13.3-12.1-78.2 1.9-117.9z"/><path d="M347.3 421.2s6.7 11.2-.7 38.9l-22.4-41 23.1 2.1z" fill="#421718"/><path class="st32" d="M284.5 417.1c13-10.1 57.3-13.5 62.1 23.6.9 7 .7 19.4-.6 28.3-2.3 16.1-3.7 26.4-9.7 32.3-1.6 1.6-4.2 1.8-8.9 2-8.6.4-31.6-11.1-36.4-22.9l-1.9-11.4c.2 0-17.1-42.2-4.6-51.9z"/><path d="M337.2 496.2c3.1-6.1 3.5-19.8 3.5-31.5 0-3.6 4.5-4.6 4.7-7.6.3-5.4-.6-12.4-1.2-16.9-2.5-19.6-20.3-27.9-34.5-29.9 16.3.2 33.9 7.7 36.8 30.3.9 7 .7 19.4-.6 28.3-2.3 16.1-3.7 26.4-9.7 32.3-1.6 1.6-4.2 1.8-8.9 2-1.2.2 6.4 0 9.9-7z" opacity=".77" fill="#edb7a5"/><path class="st34" d="M291.2 411.8c6.7-12.3 24.8-11.9 39.2-3.7 8.5 4.9 16 11.7 20.4 16.1 2.5 2.5 3.6 6 2.9 9.5-1.1 5.3-3.3 12.7-11.9 14.3-3.4 1.3-13.5 1.9-24.9.1-5.4-.9-8.9 6.4-10 12.2-.2 1-.9 1.9-1.8 2.4l-10.3 4.7-1.1-1.7c-2.8 1.5-6.4-5.3-6.4-5.3l-2.4 13.1s-6.5-6.7-10.2-19.7c-5.7-19.6 3-39.4 16.5-42z"/><path class="st32" d="M282.1 454.7c-4.8 7.3 5 20.3 10.7 19.5 3.5-.5 2.9-12.5 2.9-12.5s-7.3-16.6-13.6-7z"/><path class="st34" d="M288.6 451.9s6.1 2.7 6.8 20c.6 1.5 2.4 2.4 4 3.4l1.3-22.5-12.1-.9z"/><path class="st20" d="M330.5 658.6c1.3 8.1-2.8 18.8-9.1 24-6.3 5.2-12.5 2.8-13.8-5.3s2.8-18.8 9.1-24c6.3-5.1 12.5-2.8 13.8 5.3z"/><path class="st30" d="M308.5 677.5c-1.3-8.1 2.1-17.2 8.5-22.3 3.8-3.1 7.3-5.2 10-3.3-.3-.4-.7-.7-1.1-.9-4.3-1.6-5.4-1-67-18.3-24.4-6.9-33.4 25.3-21 32 3.4 5 57 16.6 75.2 20.5-1.9-1.4-4.1-4.3-4.6-7.7z"/><path d="M463.4 695c-18.4-9.6-54.8-25.4-80.3-36.2-5.8.5-12.1 7.7-14.6 13.4 0 0 86.9 26 95 30.9 7 4.2 14 9.9 15 25.4.1-1.4.2-2.2.2-2.4 0-13.9-3.7-25.1-15.3-31.1z" fill="#5f6065"/><linearGradient id="XMLID_14_" gradientUnits="userSpaceOnUse" x1="362.469" y1="867.8" x2="376.794" y2="867.8" gradientTransform="translate(0 114)"><stop offset="0" stop-color="#c8b9b2"/><stop offset=".431" stop-color="#ccbcb5"/><stop offset=".835" stop-color="#d7c6be"/><stop offset="1" stop-color="#deccc3"/></linearGradient><path id="XMLID_987_" fill="url(#XMLID_14_)" d="M362.5 1099l14.3-8.4v-226l-14.3 8.4z"/><linearGradient id="XMLID_15_" gradientUnits="userSpaceOnUse" x1="1302.702" y1="394.447" x2="-116.101" y2="992.888" gradientTransform="translate(0 114)"><stop offset="0" stop-color="#beaaa1"/><stop offset=".603" stop-color="#d4c2b9"/><stop offset="1" stop-color="#deccc3"/></linearGradient><path id="XMLID_986_" d="M187.7 784.4c-.1 0-.1 209.2-.1 209.2l176 105.3V873l-175.9-88.6z" fill="url(#XMLID_15_)"/><linearGradient id="XMLID_16_" gradientUnits="userSpaceOnUse" x1="163.7" y1="615.3" x2="753.9" y2="615.3" gradientTransform="translate(0 114)"><stop offset=".111" stop-color="#e2cec9"/><stop offset=".513" stop-color="#e0cdc5"/><stop offset=".615" stop-color="#deccc3"/></linearGradient><path id="XMLID_8_" d="M382.3 899.7l371.6-214.5c0-.1-218.6-126.3-218.6-126.3L163.7 773.5l218.6 126.2z" fill="url(#XMLID_16_)"/><linearGradient id="XMLID_17_" gradientUnits="userSpaceOnUse" x1="382.3" y1="686.1" x2="753.9" y2="686.1" gradientTransform="translate(0 114)"><stop offset="0" stop-color="#c8b9b2"/><stop offset=".431" stop-color="#ccbcb5"/><stop offset=".835" stop-color="#d7c6be"/><stop offset="1" stop-color="#deccc3"/></linearGradient><path id="XMLID_385_" fill="url(#XMLID_17_)" d="M382.3 915l371.6-214.6v-15.2L382.3 899.8z"/><linearGradient id="XMLID_18_" gradientUnits="userSpaceOnUse" x1="163.7" y1="730.25" x2="382.3" y2="730.25" gradientTransform="translate(0 114)"><stop offset=".111" stop-color="#e2cec9"/><stop offset=".513" stop-color="#e0cdc5"/><stop offset=".615" stop-color="#deccc3"/></linearGradient><path id="XMLID_384_" fill="url(#XMLID_18_)" d="M382.3 899.8L163.7 773.5v15.3L382.3 915z"/><path d="M384.8 666.4l-54.3 31.3c-1.2.7-1.1 1.9.2 2.6l52.8 30.5c.4.2.8.4 1.2.5l.1-64.9z" fill="#eaf3ff"/><path class="st4" d="M502.1 662.4l-52.8-30.5c-1.3-.8-3.4-.8-4.6-.1l-58.2 33.6v66c.6-.1 1.1-.2 1.5-.4l114.3-66c1.3-.7 1.2-1.8-.2-2.6z"/><path d="M383.6 730.9c1.3.7 3.2.8 4.4.2v-6.3h-4.4v6.1z" fill="#a5a3b9"/><linearGradient id="SVGID_5_" gradientUnits="userSpaceOnUse" x1="329.686" y1="582.95" x2="332.386" y2="582.95" gradientTransform="translate(0 114)"><stop offset=".481" stop-color="#b5cad5"/><stop offset=".953" stop-color="#b5cad5"/></linearGradient><path fill="url(#SVGID_5_)" d="M329.7 695.1h2.7v3.7h-2.7z"/><path fill="#aeaeae" d="M500.5 660.2h2.7v3.7h-2.7z"/><linearGradient id="SVGID_6_" gradientUnits="userSpaceOnUse" x1="329.659" y1="563.618" x2="503.241" y2="563.618" gradientTransform="translate(0 114)"><stop offset=".201" stop-color="#dfe9f4"/><stop offset=".515" stop-color="#dfe9f4"/><stop offset=".525" stop-color="#dfe9f4"/></linearGradient><path d="M444.8 628l-114.3 66c-1.2.7-1.1 1.9.2 2.6l52.8 30.5c1.3.8 3.4.8 4.6.1l114.3-66c1.2-.7 1.1-1.9-.2-2.6l-52.8-30.5c-1.4-.7-3.4-.8-4.6-.1z" fill="url(#SVGID_6_)"/><linearGradient id="SVGID_7_" gradientUnits="userSpaceOnUse" x1="436.388" y1="534.55" x2="465.077" y2="534.55" gradientTransform="translate(0 114)"><stop offset=".201" stop-color="#d2d9e7"/><stop offset=".71" stop-color="#d2d9e7"/><stop offset=".727" stop-color="#d2d9e7"/></linearGradient><path d="M445.1 656.6l19.6-11.3c.5-.3.5-.7 0-1l-6.7-3.8c-.5-.3-1.2-.3-1.7 0l-19.6 11.3c-.5.3-.5.7 0 1l6.7 3.8c.5.3 1.2.3 1.7 0z" fill="url(#SVGID_7_)"/><linearGradient id="SVGID_8_" gradientUnits="userSpaceOnUse" x1="349.325" y1="584.807" x2="378.014" y2="584.807" gradientTransform="translate(0 114)"><stop offset=".201" stop-color="#d2d9e7"/><stop offset=".71" stop-color="#d2d9e7"/><stop offset=".727" stop-color="#d2d9e7"/></linearGradient><path d="M358.1 706.9l19.6-11.3c.5-.3.5-.7 0-1l-6.7-3.8c-.5-.3-1.2-.3-1.7 0L349.7 702c-.5.3-.5.7 0 1l6.7 3.8c.4.3 1.2.3 1.7.1z" fill="url(#SVGID_8_)"/><linearGradient id="SVGID_9_" gradientUnits="userSpaceOnUse" x1="372.995" y1="574.85" x2="388.806" y2="574.85" gradientTransform="translate(0 114)"><stop offset=".201" stop-color="#d2d9e7"/><stop offset=".71" stop-color="#d2d9e7"/><stop offset=".727" stop-color="#d2d9e7"/></linearGradient><path d="M381.7 693.2l6.8-3.9c.5-.3.5-.7 0-1l-6.7-3.8c-.5-.3-1.2-.3-1.7 0l-6.8 3.9c-.5.3-.5.7 0 1l6.7 3.8c.5.3 1.2.3 1.7 0z" fill="url(#SVGID_9_)"/><linearGradient id="SVGID_10_" gradientUnits="userSpaceOnUse" x1="383.5" y1="568.75" x2="399.311" y2="568.75" gradientTransform="translate(0 114)"><stop offset=".201" stop-color="#d2d9e7"/><stop offset=".71" stop-color="#d2d9e7"/><stop offset=".727" stop-color="#d2d9e7"/></linearGradient><path d="M392.2 687.1l6.8-3.9c.5-.3.5-.7 0-1l-6.7-3.8c-.5-.3-1.2-.3-1.7 0l-6.8 3.9c-.5.3-.5.7 0 1l6.7 3.8c.5.3 1.2.3 1.7 0z" fill="url(#SVGID_10_)"/><linearGradient id="SVGID_11_" gradientUnits="userSpaceOnUse" x1="394.005" y1="562.712" x2="409.817" y2="562.712" gradientTransform="translate(0 114)"><stop offset=".201" stop-color="#d2d9e7"/><stop offset=".71" stop-color="#d2d9e7"/><stop offset=".727" stop-color="#d2d9e7"/></linearGradient><path d="M402.7 681.1l6.8-3.9c.5-.3.5-.7 0-1l-6.7-3.8c-.5-.3-1.2-.3-1.7 0l-6.8 3.9c-.5.3-.5.7 0 1l6.7 3.8c.5.2 1.2.2 1.7 0z" fill="url(#SVGID_11_)"/><linearGradient id="SVGID_12_" gradientUnits="userSpaceOnUse" x1="404.51" y1="556.65" x2="420.321" y2="556.65" gradientTransform="translate(0 114)"><stop offset=".201" stop-color="#d2d9e7"/><stop offset=".71" stop-color="#d2d9e7"/><stop offset=".727" stop-color="#d2d9e7"/></linearGradient><path d="M413.2 675l6.8-3.9c.5-.3.5-.7 0-1l-6.7-3.8c-.5-.3-1.2-.3-1.7 0l-6.8 3.9c-.5.3-.5.7 0 1l6.7 3.8c.5.3 1.2.3 1.7 0z" fill="url(#SVGID_12_)"/><linearGradient id="SVGID_13_" gradientUnits="userSpaceOnUse" x1="415.015" y1="550.55" x2="430.826" y2="550.55" gradientTransform="translate(0 114)"><stop offset=".201" stop-color="#d2d9e7"/><stop offset=".71" stop-color="#d2d9e7"/><stop offset=".727" stop-color="#d2d9e7"/></linearGradient><path d="M423.7 668.9l6.8-3.9c.5-.3.5-.7 0-1l-6.7-3.8c-.5-.3-1.2-.3-1.7 0l-6.8 3.9c-.5.3-.5.7 0 1l6.7 3.8c.5.3 1.3.3 1.7 0z" fill="url(#SVGID_13_)"/><linearGradient id="SVGID_14_" gradientUnits="userSpaceOnUse" x1="425.52" y1="544.55" x2="441.331" y2="544.55" gradientTransform="translate(0 114)"><stop offset=".201" stop-color="#d2d9e7"/><stop offset=".71" stop-color="#d2d9e7"/><stop offset=".727" stop-color="#d2d9e7"/></linearGradient><path d="M434.2 662.9l6.8-3.9c.5-.3.5-.7 0-1l-6.7-3.8c-.5-.3-1.2-.3-1.7 0l-6.8 3.9c-.5.3-.5.7 0 1l6.7 3.8c.5.3 1.3.3 1.7 0z" fill="url(#SVGID_14_)"/><linearGradient id="SVGID_15_" gradientUnits="userSpaceOnUse" x1="452.19" y1="539.35" x2="475.786" y2="539.35" gradientTransform="translate(0 114)"><stop offset=".201" stop-color="#d2d9e7"/><stop offset=".71" stop-color="#d2d9e7"/><stop offset=".727" stop-color="#d2d9e7"/></linearGradient><path d="M461 659.9l14.4-8.3c.5-.3.5-.8 0-1.1l-6.4-3.7c-.5-.3-1.4-.3-2 0l-14.4 8.3c-.5.3-.5.8 0 1.1l6.4 3.7c.5.3 1.4.3 2 0z" fill="url(#SVGID_15_)"/><linearGradient id="SVGID_16_" gradientUnits="userSpaceOnUse" x1="360.371" y1="592.35" x2="383.967" y2="592.35" gradientTransform="translate(0 114)"><stop offset=".201" stop-color="#d2d9e7"/><stop offset=".71" stop-color="#d2d9e7"/><stop offset=".727" stop-color="#d2d9e7"/></linearGradient><path d="M369.1 712.9l14.4-8.3c.5-.3.5-.8 0-1.1l-6.4-3.7c-.5-.3-1.4-.3-2 0l-14.4 8.3c-.5.3-.5.8 0 1.1l6.4 3.7c.6.3 1.5.3 2 0z" fill="url(#SVGID_16_)"/><linearGradient id="SVGID_17_" gradientUnits="userSpaceOnUse" x1="378.925" y1="583.95" x2="394.575" y2="583.95" gradientTransform="translate(0 114)"><stop offset=".201" stop-color="#d2d9e7"/><stop offset=".71" stop-color="#d2d9e7"/><stop offset=".727" stop-color="#d2d9e7"/></linearGradient><path d="M387.7 702.2l6.5-3.7c.5-.3.5-.8 0-1.1l-6.4-3.7c-.5-.3-1.4-.3-2 0l-6.5 3.7c-.5.3-.5.8 0 1.1l6.4 3.7c.6.3 1.4.3 2 0z" fill="url(#SVGID_17_)"/><linearGradient id="SVGID_18_" gradientUnits="userSpaceOnUse" x1="389.325" y1="577.95" x2="404.975" y2="577.95" gradientTransform="translate(0 114)"><stop offset=".201" stop-color="#d2d9e7"/><stop offset=".71" stop-color="#d2d9e7"/><stop offset=".727" stop-color="#d2d9e7"/></linearGradient><path d="M398.1 696.2l6.5-3.7c.5-.3.5-.8 0-1.1l-6.4-3.7c-.5-.3-1.4-.3-2 0l-6.5 3.7c-.5.3-.5.8 0 1.1l6.4 3.7c.6.3 1.5.3 2 0z" fill="url(#SVGID_18_)"/><linearGradient id="SVGID_19_" gradientUnits="userSpaceOnUse" x1="399.752" y1="571.95" x2="415.402" y2="571.95" gradientTransform="translate(0 114)"><stop offset=".201" stop-color="#d2d9e7"/><stop offset=".71" stop-color="#d2d9e7"/><stop offset=".727" stop-color="#d2d9e7"/></linearGradient><path d="M408.5 690.2l6.5-3.7c.5-.3.5-.8 0-1.1l-6.4-3.7c-.5-.3-1.4-.3-2 0l-6.5 3.7c-.5.3-.5.8 0 1.1l6.4 3.7c.6.3 1.5.3 2 0z" fill="url(#SVGID_19_)"/><linearGradient id="SVGID_20_" gradientUnits="userSpaceOnUse" x1="410.166" y1="565.95" x2="425.816" y2="565.95" gradientTransform="translate(0 114)"><stop offset=".201" stop-color="#d2d9e7"/><stop offset=".71" stop-color="#d2d9e7"/><stop offset=".727" stop-color="#d2d9e7"/></linearGradient><path d="M418.9 684.2l6.5-3.7c.5-.3.5-.8 0-1.1l-6.4-3.7c-.5-.3-1.4-.3-2 0l-6.5 3.7c-.5.3-.5.8 0 1.1l6.4 3.7c.6.3 1.5.3 2 0z" fill="url(#SVGID_20_)"/><linearGradient id="SVGID_21_" gradientUnits="userSpaceOnUse" x1="420.579" y1="559.95" x2="436.229" y2="559.95" gradientTransform="translate(0 114)"><stop offset=".201" stop-color="#d2d9e7"/><stop offset=".71" stop-color="#d2d9e7"/><stop offset=".727" stop-color="#d2d9e7"/></linearGradient><path d="M429.3 678.2l6.5-3.7c.5-.3.5-.8 0-1.1l-6.4-3.7c-.5-.3-1.4-.3-2 0l-6.5 3.7c-.5.3-.5.8 0 1.1l6.4 3.7c.6.3 1.5.3 2 0z" fill="url(#SVGID_21_)"/><linearGradient id="SVGID_22_" gradientUnits="userSpaceOnUse" x1="430.992" y1="553.888" x2="446.642" y2="553.888" gradientTransform="translate(0 114)"><stop offset=".201" stop-color="#d2d9e7"/><stop offset=".71" stop-color="#d2d9e7"/><stop offset=".727" stop-color="#d2d9e7"/></linearGradient><path d="M439.8 672.1l6.5-3.7c.5-.3.5-.8 0-1.1l-6.4-3.7c-.5-.3-1.4-.3-2 0l-6.5 3.7c-.5.3-.5.8 0 1.1l6.4 3.7c.5.4 1.4.4 2 0z" fill="url(#SVGID_22_)"/><linearGradient id="SVGID_23_" gradientUnits="userSpaceOnUse" x1="441.406" y1="547.888" x2="457.056" y2="547.888" gradientTransform="translate(0 114)"><stop offset=".201" stop-color="#d2d9e7"/><stop offset=".71" stop-color="#d2d9e7"/><stop offset=".727" stop-color="#d2d9e7"/></linearGradient><path d="M450.2 666.1l6.5-3.7c.5-.3.5-.8 0-1.1l-6.4-3.7c-.5-.3-1.4-.3-2 0l-6.5 3.7c-.5.3-.5.8 0 1.1l6.4 3.7c.5.4 1.4.4 2 0z" fill="url(#SVGID_23_)"/><linearGradient id="SVGID_24_" gradientUnits="userSpaceOnUse" x1="361.376" y1="556.6" x2="419.212" y2="556.6" gradientTransform="translate(0 114)"><stop offset=".201" stop-color="#d2d9e7"/><stop offset=".71" stop-color="#d2d9e7"/><stop offset=".727" stop-color="#d2d9e7"/></linearGradient><path d="M418.9 658.9L370 687.1c-.4.2-1 .2-1.4 0l-7-4c-.4-.2-.4-.6 0-.8l48.9-28.2c.4-.2 1-.2 1.4 0l7 4c.4.2.4.5 0 .8z" fill="url(#SVGID_24_)"/><linearGradient id="SVGID_25_" gradientUnits="userSpaceOnUse" x1="351.084" y1="574.65" x2="367.082" y2="574.65" gradientTransform="translate(0 114)"><stop offset=".201" stop-color="#d2d9e7"/><stop offset=".71" stop-color="#d2d9e7"/><stop offset=".727" stop-color="#d2d9e7"/></linearGradient><path d="M366.8 689l-7.1 4.1c-.4.2-1 .2-1.4 0l-7-4c-.4-.2-.4-.6 0-.8l7.1-4.1c.4-.2 1-.2 1.4 0l7 4c.4.2.4.6 0 .8z" fill="url(#SVGID_25_)"/><linearGradient id="SVGID_26_" gradientUnits="userSpaceOnUse" x1="338.207" y1="581.25" x2="356.993" y2="581.25" gradientTransform="translate(0 114)"><stop offset=".201" stop-color="#d2d9e7"/><stop offset=".71" stop-color="#d2d9e7"/><stop offset=".727" stop-color="#d2d9e7"/></linearGradient><path d="M356.7 694.8l-9.9 5.7c-.4.2-1 .2-1.4 0l-7-4c-.4-.2-.4-.6 0-.8l9.9-5.7c.4-.2 1-.2 1.4 0l7 4c.4.2.4.6 0 .8z" fill="url(#SVGID_26_)"/><linearGradient id="SVGID_27_" gradientUnits="userSpaceOnUse" x1="438.475" y1="524.65" x2="454.472" y2="524.65" gradientTransform="translate(0 114)"><stop offset=".201" stop-color="#d2d9e7"/><stop offset=".71" stop-color="#d2d9e7"/><stop offset=".727" stop-color="#d2d9e7"/></linearGradient><path d="M447.1 643.1l7.1-4.1c.4-.2.4-.6 0-.8l-7-4c-.4-.2-1-.2-1.4 0l-7.1 4.1c-.4.2-.4.6 0 .8l7 4c.4.2 1 .2 1.4 0z" fill="url(#SVGID_27_)"/><linearGradient id="SVGID_28_" gradientUnits="userSpaceOnUse" x1="426.912" y1="535.9" x2="436.209" y2="535.9" gradientTransform="translate(0 114)"><stop offset=".201" stop-color="#d2d9e7"/><stop offset=".71" stop-color="#d2d9e7"/><stop offset=".727" stop-color="#d2d9e7"/></linearGradient><path d="M436 649.5l-5.2 3c-.3.2-.8.1-1.2-.1l-2.4-1.4c-.4-.2-.5-.5-.2-.7l5.2-3c.3-.2.8-.1 1.2.1l2.4 1.4c.4.2.5.5.2.7z" fill="url(#SVGID_28_)"/><linearGradient id="SVGID_29_" gradientUnits="userSpaceOnUse" x1="415.019" y1="537.4" x2="424.316" y2="537.4" gradientTransform="translate(0 114)"><stop offset=".201" stop-color="#d2d9e7"/><stop offset=".71" stop-color="#d2d9e7"/><stop offset=".727" stop-color="#d2d9e7"/></linearGradient><path d="M424.1 651l-5.2 3c-.3.2-.8.1-1.2-.1l-2.4-1.4c-.4-.2-.5-.5-.2-.7l5.2-3c.3-.2.8-.1 1.2.1l2.4 1.4c.4.3.5.6.2.7z" fill="url(#SVGID_29_)"/><linearGradient id="SVGID_30_" gradientUnits="userSpaceOnUse" x1="422.442" y1="533.1" x2="431.738" y2="533.1" gradientTransform="translate(0 114)"><stop offset=".201" stop-color="#d2d9e7"/><stop offset=".71" stop-color="#d2d9e7"/><stop offset=".727" stop-color="#d2d9e7"/></linearGradient><path d="M431.6 646.7l-5.2 3c-.3.2-.8.1-1.2-.1l-2.4-1.4c-.4-.2-.5-.5-.2-.7l5.2-3c.3-.2.8-.1 1.2.1l2.4 1.4c.4.3.5.6.2.7z" fill="url(#SVGID_30_)"/><linearGradient id="SVGID_31_" gradientUnits="userSpaceOnUse" x1="429.864" y1="528.9" x2="439.161" y2="528.9" gradientTransform="translate(0 114)"><stop offset=".201" stop-color="#d2d9e7"/><stop offset=".71" stop-color="#d2d9e7"/><stop offset=".727" stop-color="#d2d9e7"/></linearGradient><path d="M439 642.5l-5.2 3c-.3.2-.8.1-1.2-.1l-2.4-1.4c-.4-.2-.5-.5-.2-.7l5.2-3c.3-.2.8-.1 1.2.1l2.4 1.4c.4.2.5.5.2.7z" fill="url(#SVGID_31_)"/><linearGradient id="SVGID_32_" gradientUnits="userSpaceOnUse" x1="465.216" y1="544.8" x2="486.465" y2="544.8" gradientTransform="translate(0 114)"><stop offset=".201" stop-color="#d2d9e7"/><stop offset=".71" stop-color="#d2d9e7"/><stop offset=".727" stop-color="#d2d9e7"/></linearGradient><path d="M474 664.7l12.1-7c.5-.3.5-.8 0-1.1l-6.4-3.7c-.5-.3-1.4-.3-1.9 0l-12.1 7c-.5.3-.5.8 0 1.1l6.4 3.7c.5.3 1.3.3 1.9 0z" fill="url(#SVGID_32_)"/><linearGradient id="SVGID_33_" gradientUnits="userSpaceOnUse" x1="371.008" y1="600.8" x2="386.694" y2="600.8" gradientTransform="translate(0 114)"><stop offset=".201" stop-color="#d2d9e7"/><stop offset=".71" stop-color="#d2d9e7"/><stop offset=".727" stop-color="#d2d9e7"/></linearGradient><path d="M379.8 719.1l6.5-3.8c.5-.3.5-.8 0-1.1l-6.4-3.7c-.5-.3-1.4-.3-1.9 0l-6.5 3.8c-.5.3-.5.8 0 1.1l6.4 3.7c.5.3 1.3.3 1.9 0z" fill="url(#SVGID_33_)"/><linearGradient id="SVGID_34_" gradientUnits="userSpaceOnUse" x1="381.43" y1="594.8" x2="397.115" y2="594.8" gradientTransform="translate(0 114)"><stop offset=".201" stop-color="#d2d9e7"/><stop offset=".71" stop-color="#d2d9e7"/><stop offset=".727" stop-color="#d2d9e7"/></linearGradient><path d="M390.2 713.1l6.5-3.8c.5-.3.5-.8 0-1.1l-6.4-3.7c-.5-.3-1.4-.3-1.9 0l-6.5 3.8c-.5.3-.5.8 0 1.1l6.4 3.7c.5.3 1.4.3 1.9 0z" fill="url(#SVGID_34_)"/><linearGradient id="SVGID_35_" gradientUnits="userSpaceOnUse" x1="391.851" y1="588.8" x2="407.537" y2="588.8" gradientTransform="translate(0 114)"><stop offset=".201" stop-color="#d2d9e7"/><stop offset=".71" stop-color="#d2d9e7"/><stop offset=".727" stop-color="#d2d9e7"/></linearGradient><path d="M400.6 707.1l6.5-3.8c.5-.3.5-.8 0-1.1l-6.4-3.7c-.5-.3-1.4-.3-1.9 0l-6.5 3.8c-.5.3-.5.8 0 1.1l6.4 3.7c.5.3 1.4.3 1.9 0z" fill="url(#SVGID_35_)"/><linearGradient id="SVGID_36_" gradientUnits="userSpaceOnUse" x1="402.272" y1="582.737" x2="417.958" y2="582.737" gradientTransform="translate(0 114)"><stop offset=".201" stop-color="#d2d9e7"/><stop offset=".71" stop-color="#d2d9e7"/><stop offset=".727" stop-color="#d2d9e7"/></linearGradient><path d="M411 701l6.5-3.8c.5-.3.5-.8 0-1.1l-6.4-3.7c-.5-.3-1.4-.3-1.9 0l-6.5 3.8c-.5.3-.5.8 0 1.1l6.4 3.7c.5.4 1.4.4 1.9 0z" fill="url(#SVGID_36_)"/><linearGradient id="SVGID_37_" gradientUnits="userSpaceOnUse" x1="412.693" y1="576.7" x2="428.379" y2="576.7" gradientTransform="translate(0 114)"><stop offset=".201" stop-color="#d2d9e7"/><stop offset=".71" stop-color="#d2d9e7"/><stop offset=".727" stop-color="#d2d9e7"/></linearGradient><path d="M421.4 695l6.5-3.8c.5-.3.5-.8 0-1.1l-6.4-3.7c-.5-.3-1.4-.3-1.9 0l-6.5 3.8c-.5.3-.5.8 0 1.1l6.4 3.7c.6.3 1.4.3 1.9 0z" fill="url(#SVGID_37_)"/><linearGradient id="SVGID_38_" gradientUnits="userSpaceOnUse" x1="423.115" y1="570.7" x2="438.8" y2="570.7" gradientTransform="translate(0 114)"><stop offset=".201" stop-color="#d2d9e7"/><stop offset=".71" stop-color="#d2d9e7"/><stop offset=".727" stop-color="#d2d9e7"/></linearGradient><path d="M431.9 689l6.5-3.8c.5-.3.5-.8 0-1.1l-6.4-3.7c-.5-.3-1.4-.3-1.9 0l-6.5 3.8c-.5.3-.5.8 0 1.1l6.4 3.7c.5.3 1.3.3 1.9 0z" fill="url(#SVGID_38_)"/><linearGradient id="SVGID_39_" gradientUnits="userSpaceOnUse" x1="433.536" y1="564.7" x2="449.222" y2="564.7" gradientTransform="translate(0 114)"><stop offset=".201" stop-color="#d2d9e7"/><stop offset=".71" stop-color="#d2d9e7"/><stop offset=".727" stop-color="#d2d9e7"/></linearGradient><path d="M442.3 683l6.5-3.8c.5-.3.5-.8 0-1.1l-6.4-3.7c-.5-.3-1.4-.3-1.9 0l-6.5 3.8c-.5.3-.5.8 0 1.1l6.4 3.7c.5.3 1.4.3 1.9 0z" fill="url(#SVGID_39_)"/><linearGradient id="SVGID_40_" gradientUnits="userSpaceOnUse" x1="443.957" y1="558.7" x2="459.643" y2="558.7" gradientTransform="translate(0 114)"><stop offset=".201" stop-color="#d2d9e7"/><stop offset=".71" stop-color="#d2d9e7"/><stop offset=".727" stop-color="#d2d9e7"/></linearGradient><path d="M452.7 677l6.5-3.8c.5-.3.5-.8 0-1.1l-6.4-3.7c-.5-.3-1.4-.3-1.9 0l-6.5 3.8c-.5.3-.5.8 0 1.1l6.4 3.7c.5.3 1.4.3 1.9 0z" fill="url(#SVGID_40_)"/><linearGradient id="SVGID_41_" gradientUnits="userSpaceOnUse" x1="454.378" y1="552.7" x2="470.064" y2="552.7" gradientTransform="translate(0 114)"><stop offset=".201" stop-color="#d2d9e7"/><stop offset=".71" stop-color="#d2d9e7"/><stop offset=".727" stop-color="#d2d9e7"/></linearGradient><path d="M463.1 671l6.5-3.8c.5-.3.5-.8 0-1.1l-6.4-3.7c-.5-.3-1.4-.3-1.9 0l-6.5 3.8c-.5.3-.5.8 0 1.1l6.4 3.7c.5.3 1.4.3 1.9 0z" fill="url(#SVGID_41_)"/><linearGradient id="SVGID_42_" gradientUnits="userSpaceOnUse" x1="481.105" y1="548.7" x2="494.33" y2="548.7" gradientTransform="translate(0 114)"><stop offset=".201" stop-color="#d2d9e7"/><stop offset=".71" stop-color="#d2d9e7"/><stop offset=".727" stop-color="#d2d9e7"/></linearGradient><path d="M493.9 662.3l-6.9 4c-.5.3-1.4.3-1.9 0l-3.6-2.1c-.5-.3-.5-.8 0-1.1l6.9-4c.5-.3 1.4-.3 1.9 0l3.6 2.1c.6.3.6.8 0 1.1z" fill="url(#SVGID_42_)"/><linearGradient id="SVGID_43_" gradientUnits="userSpaceOnUse" x1="470.057" y1="555" x2="483.282" y2="555" gradientTransform="translate(0 114)"><stop offset=".201" stop-color="#d2d9e7"/><stop offset=".71" stop-color="#d2d9e7"/><stop offset=".727" stop-color="#d2d9e7"/></linearGradient><path d="M482.9 668.6l-6.9 4c-.5.3-1.4.3-1.9 0l-3.6-2.1c-.5-.3-.5-.8 0-1.1l6.9-4c.5-.3 1.4-.3 1.9 0l3.6 2.1c.5.3.5.8 0 1.1z" fill="url(#SVGID_43_)"/><linearGradient id="SVGID_44_" gradientUnits="userSpaceOnUse" x1="459.009" y1="561.4" x2="472.234" y2="561.4" gradientTransform="translate(0 114)"><stop offset=".201" stop-color="#d2d9e7"/><stop offset=".71" stop-color="#d2d9e7"/><stop offset=".727" stop-color="#d2d9e7"/></linearGradient><path d="M471.8 675l-6.9 4c-.5.3-1.4.3-1.9 0l-3.6-2.1c-.5-.3-.5-.8 0-1.1l6.9-4c.5-.3 1.4-.3 1.9 0l3.6 2.1c.6.3.6.8 0 1.1z" fill="url(#SVGID_44_)"/><linearGradient id="SVGID_45_" gradientUnits="userSpaceOnUse" x1="447.961" y1="567.8" x2="461.185" y2="567.8" gradientTransform="translate(0 114)"><stop offset=".201" stop-color="#d2d9e7"/><stop offset=".71" stop-color="#d2d9e7"/><stop offset=".727" stop-color="#d2d9e7"/></linearGradient><path d="M460.8 681.4l-6.9 4c-.5.3-1.4.3-1.9 0l-3.6-2.1c-.5-.3-.5-.8 0-1.1l6.9-4c.5-.3 1.4-.3 1.9 0l3.6 2.1c.5.3.5.8 0 1.1z" fill="url(#SVGID_45_)"/><linearGradient id="SVGID_46_" gradientUnits="userSpaceOnUse" x1="436.925" y1="574.2" x2="450.15" y2="574.2" gradientTransform="translate(0 114)"><stop offset=".201" stop-color="#d2d9e7"/><stop offset=".71" stop-color="#d2d9e7"/><stop offset=".727" stop-color="#d2d9e7"/></linearGradient><path d="M449.7 687.8l-6.9 4c-.5.3-1.4.3-1.9 0l-3.6-2.1c-.5-.3-.5-.8 0-1.1l6.9-4c.5-.3 1.4-.3 1.9 0l3.6 2.1c.6.3.6.8 0 1.1z" fill="url(#SVGID_46_)"/><linearGradient id="SVGID_47_" gradientUnits="userSpaceOnUse" x1="425.865" y1="580.6" x2="439.089" y2="580.6" gradientTransform="translate(0 114)"><stop offset=".201" stop-color="#d2d9e7"/><stop offset=".71" stop-color="#d2d9e7"/><stop offset=".727" stop-color="#d2d9e7"/></linearGradient><path d="M438.7 694.2l-6.9 4c-.5.3-1.4.3-1.9 0l-3.6-2.1c-.5-.3-.5-.8 0-1.1l6.9-4c.5-.3 1.4-.3 1.9 0l3.6 2.1c.5.3.5.8 0 1.1z" fill="url(#SVGID_47_)"/><linearGradient id="SVGID_48_" gradientUnits="userSpaceOnUse" x1="414.825" y1="586.9" x2="428.05" y2="586.9" gradientTransform="translate(0 114)"><stop offset=".201" stop-color="#d2d9e7"/><stop offset=".71" stop-color="#d2d9e7"/><stop offset=".727" stop-color="#d2d9e7"/></linearGradient><path d="M427.6 700.5l-6.9 4c-.5.3-1.4.3-1.9 0l-3.6-2.1c-.5-.3-.5-.8 0-1.1l6.9-4c.5-.3 1.4-.3 1.9 0l3.6 2.1c.6.3.6.8 0 1.1z" fill="url(#SVGID_48_)"/><linearGradient id="SVGID_49_" gradientUnits="userSpaceOnUse" x1="403.769" y1="593.3" x2="416.993" y2="593.3" gradientTransform="translate(0 114)"><stop offset=".201" stop-color="#d2d9e7"/><stop offset=".71" stop-color="#d2d9e7"/><stop offset=".727" stop-color="#d2d9e7"/></linearGradient><path d="M416.6 706.9l-6.9 4c-.5.3-1.4.3-1.9 0l-3.6-2.1c-.5-.3-.5-.8 0-1.1l6.9-4c.5-.3 1.4-.3 1.9 0l3.6 2.1c.5.3.5.8 0 1.1z" fill="url(#SVGID_49_)"/><linearGradient id="SVGID_50_" gradientUnits="userSpaceOnUse" x1="392.725" y1="599.7" x2="405.95" y2="599.7" gradientTransform="translate(0 114)"><stop offset=".201" stop-color="#d2d9e7"/><stop offset=".71" stop-color="#d2d9e7"/><stop offset=".727" stop-color="#d2d9e7"/></linearGradient><path d="M405.5 713.3l-6.9 4c-.5.3-1.4.3-1.9 0l-3.6-2.1c-.5-.3-.5-.8 0-1.1l6.9-4c.5-.3 1.4-.3 1.9 0l3.6 2.1c.6.3.6.8 0 1.1z" fill="url(#SVGID_50_)"/><linearGradient id="SVGID_51_" gradientUnits="userSpaceOnUse" x1="381.673" y1="606.1" x2="394.897" y2="606.1" gradientTransform="translate(0 114)"><stop offset=".201" stop-color="#d2d9e7"/><stop offset=".71" stop-color="#d2d9e7"/><stop offset=".727" stop-color="#d2d9e7"/></linearGradient><path d="M394.5 719.7l-6.9 4c-.5.3-1.4.3-1.9 0l-3.6-2.1c-.5-.3-.5-.8 0-1.1l6.9-4c.5-.3 1.4-.3 1.9 0l3.6 2.1c.5.3.5.8 0 1.1z" fill="url(#SVGID_51_)"/><path class="st91" d="M445.1 655.4l19.6-11.3c.5-.3.5-.7 0-1l-6.7-3.8c-.5-.3-1.2-.3-1.7 0l-19.6 11.3c-.5.3-.5.7 0 1l6.7 3.8c.5.3 1.2.3 1.7 0zm-87 50.3l19.6-11.3c.5-.3.5-.7 0-1l-6.7-3.8c-.5-.3-1.2-.3-1.7 0l-19.6 11.3c-.5.3-.5.7 0 1l6.7 3.8c.4.3 1.2.3 1.7 0zm23.6-13.7l6.8-3.9c.5-.3.5-.7 0-1l-6.7-3.8c-.5-.3-1.2-.3-1.7 0l-6.8 3.9c-.5.3-.5.7 0 1l6.7 3.8c.5.3 1.2.3 1.7 0zm10.5-6l6.8-3.9c.5-.3.5-.7 0-1l-6.7-3.8c-.5-.3-1.2-.3-1.7 0l-6.8 3.9c-.5.3-.5.7 0 1l6.7 3.8c.5.2 1.2.2 1.7 0zm10.5-6.1l6.8-3.9c.5-.3.5-.7 0-1l-6.7-3.8c-.5-.3-1.2-.3-1.7 0l-6.8 3.9c-.5.3-.5.7 0 1l6.7 3.8c.5.3 1.2.3 1.7 0zm10.5-6.1l6.8-3.9c.5-.3.5-.7 0-1l-6.7-3.8c-.5-.3-1.2-.3-1.7 0l-6.8 3.9c-.5.3-.5.7 0 1l6.7 3.8c.5.3 1.2.3 1.7 0zm10.5-6l6.8-3.9c.5-.3.5-.7 0-1l-6.7-3.8c-.5-.3-1.2-.3-1.7 0l-6.8 3.9c-.5.3-.5.7 0 1l6.7 3.8c.5.3 1.3.3 1.7 0zm10.5-6.1l6.8-3.9c.5-.3.5-.7 0-1l-6.7-3.8c-.5-.3-1.2-.3-1.7 0l-6.8 3.9c-.5.3-.5.7 0 1l6.7 3.8c.5.3 1.3.3 1.7 0zm26.8-3l14.4-8.3c.5-.3.5-.8 0-1.1l-6.4-3.7c-.5-.3-1.4-.3-2 0l-14.4 8.3c-.5.3-.5.8 0 1.1l6.4 3.7c.5.4 1.4.4 2 0zm-91.9 53.1l14.4-8.3c.5-.3.5-.8 0-1.1l-6.4-3.7c-.5-.3-1.4-.3-2 0l-14.4 8.3c-.5.3-.5.8 0 1.1l6.4 3.7c.6.3 1.5.3 2 0zm18.6-10.8l6.5-3.7c.5-.3.5-.8 0-1.1l-6.4-3.7c-.5-.3-1.4-.3-2 0l-6.5 3.7c-.5.3-.5.8 0 1.1l6.4 3.7c.6.4 1.4.4 2 0zm10.4-6l6.5-3.7c.5-.3.5-.8 0-1.1l-6.4-3.7c-.5-.3-1.4-.3-2 0l-6.5 3.7c-.5.3-.5.8 0 1.1l6.4 3.7c.6.3 1.5.3 2 0zm10.4-6l6.5-3.7c.5-.3.5-.8 0-1.1l-6.4-3.7c-.5-.3-1.4-.3-2 0l-6.5 3.7c-.5.3-.5.8 0 1.1l6.4 3.7c.6.3 1.5.3 2 0zm10.4-6l6.5-3.7c.5-.3.5-.8 0-1.1l-6.4-3.7c-.5-.3-1.4-.3-2 0l-6.5 3.7c-.5.3-.5.8 0 1.1l6.4 3.7c.6.3 1.5.3 2 0zm10.4-6l6.5-3.7c.5-.3.5-.8 0-1.1l-6.4-3.7c-.5-.3-1.4-.3-2 0l-6.5 3.7c-.5.3-.5.8 0 1.1l6.4 3.7c.6.3 1.5.3 2 0zm10.5-6l6.5-3.7c.5-.3.5-.8 0-1.1l-6.4-3.7c-.5-.3-1.4-.3-2 0l-6.5 3.7c-.5.3-.5.8 0 1.1l6.4 3.7c.5.3 1.4.3 2 0zm10.4-6l6.5-3.7c.5-.3.5-.8 0-1.1l-6.4-3.7c-.5-.3-1.4-.3-2 0l-6.5 3.7c-.5.3-.5.8 0 1.1l6.4 3.7c.5.3 1.4.3 2 0zm-31.3-7.3L370 685.9c-.4.2-1 .2-1.4 0l-7-4c-.4-.2-.4-.6 0-.8l48.9-28.2c.4-.2 1-.2 1.4 0l7 4c.4.2.4.6 0 .8zm-52.1 30.1l-7.1 4.1c-.4.2-1 .2-1.4 0l-7-4c-.4-.2-.4-.6 0-.8l7.1-4.1c.4-.2 1-.2 1.4 0l7 4c.4.2.4.6 0 .8zm-10.1 5.8l-9.9 5.7c-.4.2-1 .2-1.4 0l-7-4c-.4-.2-.4-.6 0-.8l9.9-5.7c.4-.2 1-.2 1.4 0l7 4c.4.3.4.6 0 .8zm90.4-51.7l7.1-4.1c.4-.2.4-.6 0-.8l-7-4c-.4-.2-1-.2-1.4 0l-7.1 4.1c-.4.2-.4.6 0 .8l7 4c.4.2 1 .2 1.4 0zm-11.1 6.4l-5.2 3c-.3.2-.8.1-1.2-.1l-2.4-1.4c-.4-.2-.5-.5-.2-.7l5.2-3c.3-.2.8-.1 1.2.1l2.4 1.4c.4.2.5.6.2.7zm-11.9 1.6l-5.2 3c-.3.2-.8.1-1.2-.1l-2.4-1.4c-.4-.2-.5-.5-.2-.7l5.2-3c.3-.2.8-.1 1.2.1l2.4 1.4c.4.2.5.5.2.7zm7.5-4.3l-5.2 3c-.3.2-.8.1-1.2-.1l-2.4-1.4c-.4-.2-.5-.5-.2-.7l5.2-3c.3-.2.8-.1 1.2.1l2.4 1.4c.4.2.5.5.2.7zm7.4-4.3l-5.2 3c-.3.2-.8.1-1.2-.1l-2.4-1.4c-.4-.2-.5-.5-.2-.7l5.2-3c.3-.2.8-.1 1.2.1l2.4 1.4c.4.2.5.5.2.7zm35 22.2l12.1-7c.5-.3.5-.8 0-1.1l-6.4-3.7c-.5-.3-1.4-.3-1.9 0l-12.1 7c-.5.3-.5.8 0 1.1l6.4 3.7c.5.3 1.3.3 1.9 0zm-94.2 54.4l6.5-3.8c.5-.3.5-.8 0-1.1l-6.4-3.7c-.5-.3-1.4-.3-1.9 0l-6.5 3.8c-.5.3-.5.8 0 1.1l6.4 3.7c.5.3 1.3.3 1.9 0zm10.4-6l6.5-3.8c.5-.3.5-.8 0-1.1l-6.4-3.7c-.5-.3-1.4-.3-1.9 0l-6.5 3.8c-.5.3-.5.8 0 1.1l6.4 3.7c.5.3 1.4.3 1.9 0zm10.4-6l6.5-3.8c.5-.3.5-.8 0-1.1l-6.4-3.7c-.5-.3-1.4-.3-1.9 0l-6.5 3.8c-.5.3-.5.8 0 1.1l6.4 3.7c.5.3 1.4.3 1.9 0zm10.4-6l6.5-3.8c.5-.3.5-.8 0-1.1l-6.4-3.7c-.5-.3-1.4-.3-1.9 0l-6.5 3.8c-.5.3-.5.8 0 1.1l6.4 3.7c.5.3 1.4.3 1.9 0zm10.4-6l6.5-3.8c.5-.3.5-.8 0-1.1l-6.4-3.7c-.5-.3-1.4-.3-1.9 0l-6.5 3.8c-.5.3-.5.8 0 1.1l6.4 3.7c.6.3 1.4.3 1.9 0zm10.5-6.1l6.5-3.8c.5-.3.5-.8 0-1.1l-6.4-3.7c-.5-.3-1.4-.3-1.9 0l-6.5 3.8c-.5.3-.5.8 0 1.1l6.4 3.7c.5.4 1.3.4 1.9 0zm10.4-6l6.5-3.8c.5-.3.5-.8 0-1.1l-6.4-3.7c-.5-.3-1.4-.3-1.9 0L434 677c-.5.3-.5.8 0 1.1l6.4 3.7c.5.3 1.4.3 1.9 0zm10.4-6l6.5-3.8c.5-.3.5-.8 0-1.1l-6.4-3.7c-.5-.3-1.4-.3-1.9 0l-6.5 3.8c-.5.3-.5.8 0 1.1l6.4 3.7c.5.3 1.4.3 1.9 0zm10.4-6l6.5-3.8c.5-.3.5-.8 0-1.1l-6.4-3.7c-.5-.3-1.4-.3-1.9 0l-6.5 3.8c-.5.3-.5.8 0 1.1l6.4 3.7c.5.3 1.4.3 1.9 0zm30.8-8.7l-6.9 4c-.5.3-1.4.3-1.9 0l-3.6-2.1c-.5-.3-.5-.8 0-1.1l6.9-4c.5-.3 1.4-.3 1.9 0l3.6 2.1c.6.3.6.8 0 1.1zm-11 6.4l-6.9 4c-.5.3-1.4.3-1.9 0l-3.6-2.1c-.5-.3-.5-.8 0-1.1l6.9-4c.5-.3 1.4-.3 1.9 0l3.6 2.1c.5.3.5.8 0 1.1zm-11.1 6.4l-6.9 4c-.5.3-1.4.3-1.9 0l-3.6-2.1c-.5-.3-.5-.8 0-1.1l6.9-4c.5-.3 1.4-.3 1.9 0l3.6 2.1c.6.3.6.8 0 1.1zm-11 6.3l-6.9 4c-.5.3-1.4.3-1.9 0l-3.6-2.1c-.5-.3-.5-.8 0-1.1l6.9-4c.5-.3 1.4-.3 1.9 0l3.6 2.1c.5.3.5.8 0 1.1zm-11.1 6.4l-6.9 4c-.5.3-1.4.3-1.9 0l-3.6-2.1c-.5-.3-.5-.8 0-1.1l6.9-4c.5-.3 1.4-.3 1.9 0l3.6 2.1c.6.3.6.8 0 1.1zm-11 6.4l-6.9 4c-.5.3-1.4.3-1.9 0l-3.6-2.1c-.5-.3-.5-.8 0-1.1l6.9-4c.5-.3 1.4-.3 1.9 0l3.6 2.1c.5.3.5.8 0 1.1zm-11.1 6.4l-6.9 4c-.5.3-1.4.3-1.9 0l-3.6-2.1c-.5-.3-.5-.8 0-1.1l6.9-4c.5-.3 1.4-.3 1.9 0l3.6 2.1c.6.3.6.8 0 1.1zm-11 6.4l-6.9 4c-.5.3-1.4.3-1.9 0l-3.6-2.1c-.5-.3-.5-.8 0-1.1l6.9-4c.5-.3 1.4-.3 1.9 0l3.6 2.1c.5.2.5.7 0 1.1zm-11.1 6.3l-6.9 4c-.5.3-1.4.3-1.9 0l-3.6-2.1c-.5-.3-.5-.8 0-1.1l6.9-4c.5-.3 1.4-.3 1.9 0l3.6 2.1c.6.3.6.8 0 1.1zm-11 6.4l-6.9 4c-.5.3-1.4.3-1.9 0l-3.6-2.1c-.5-.3-.5-.8 0-1.1l6.9-4c.5-.3 1.4-.3 1.9 0l3.6 2.1c.5.3.5.8 0 1.1z"/><linearGradient id="SVGID_52_" gradientUnits="userSpaceOnUse" x1="372.193" y1="562.883" x2="326.404" y2="566.636" gradientTransform="translate(0 114)"><stop offset=".346" stop-color="#8a8a8a"/><stop offset=".486" stop-color="#8e8e8e"/><stop offset=".634" stop-color="#9b9b9b"/><stop offset=".784" stop-color="#afafaf"/><stop offset=".936" stop-color="#cdcdcd" stop-opacity="0"/><stop offset="1" stop-color="#dbdbdb" stop-opacity="0"/></linearGradient><path d="M315.3 685.8s5.3 1.3 13.2 2.7c7.9 1.5 20.7 5.8 20.7 5.8l2.3-.9-6.4-9 14.3 7.2-3.2-11 11 4.5-5.7-10.1s12.8.5 11.4.3c-1.5-.2-6.4-12-7.6-12.5h-10.8l-39.2 23z" opacity=".51" fill="url(#SVGID_52_)"/><path fill="#dac8c2" d="M371 840.9l70-41.3-80.8-46.1-63 34.2z"/><path class="st18" d="M327 654.9c-1.3-.5-2.8-.9-6.7-2-1.6 0-3.5.7-5.3 2.2-5.2 4.2-8.5 13-7.5 19.6.4 2.2 1.2 3.9 2.4 5 2.3.5 4.3.9 6 1.3-1.5-1-2.7-2.8-3.1-5.5-1-6.3 2.2-14.7 7.2-18.8 3-2.4 5.9-2.7 8-1.2-.4-.3-.7-.5-1-.6z"/><path class="st23" d="M330.4 660.6c1 6.4-2.2 14.9-7.2 18.9-5 4.1-9.9 2.2-10.9-4.2s2.2-14.9 7.2-18.9c5-4 9.9-2.1 10.9 4.2z"/><path d="M330.5 657.2c-1.2-.4-2.7-.8-7.2-2.1-1.2.3-2.5.9-3.8 2-4.9 4-8 12.2-7 18.3.1.7.3 1.4.5 2 3.7.9 7 1.6 9.2 2-1.3-.8-3.3-2.8-3.6-5.1-.8-5.3 1.8-12.3 6-15.6 2.5-2 4.9-2.2 6.7-1-.3-.2-.5-.5-.8-.5z" fill="#e3b1a2"/><linearGradient id="SVGID_53_" gradientUnits="userSpaceOnUse" x1="314.402" y1="561.498" x2="376.497" y2="561.498" gradientTransform="translate(0 114)"><stop offset=".049" stop-color="#edb7a5"/><stop offset="1" stop-color="#e0b192"/></linearGradient><path d="M366.9 661c-.7-1-1.8-1.6-2.9-1.7l-1.2-.2-7.8-1.6c-3.8-.8-6-.9-8.2-.9h-21.6c-14 4.6-11.1 17.7-8.7 20.1 1.3 1.3 4.4 4.9 15.9 4.7l6.4 1.8c.9.3 1.7.9 2.2 1.7 1.4 2.3 4.5 7.2 6.7 8.7 3 2 5.1-.4 5.1-.4l-7.7-13.3 4.4.7c1.1.2 2 .8 2.6 1.7 1.6 2.6 4.9 7.8 7.3 9.4 3.2 2.2 5.6-.4 5.6-.4l-8.8-15.3c-.6-1-1.6-1.8-2.7-2l-6.4-1.4v-.1l10.1 1.6c1.1.2 2 .8 2.6 1.7 1.6 2.6 4.9 7.8 7.3 9.4 3.2 2.2 5.6-.4 5.6-.4l-8.8-15.3c-.6-1-1.6-1.8-2.7-2l-10.1-2.3.1-.1 9.8.6c1.1.1 2.1.6 2.7 1.5 1.7 2.3 5.3 6.8 7.6 8.1 3.2 1.7 5.2-.9 5.2-.9l-9.6-13.4z" fill="url(#SVGID_53_)"/><path id="XMLID_445_" d="M371.1 837.9l53.9-32.8c0-.1-79.4-44.6-79.4-44.6l-53.9 32.1 79.4 45.3z" fill="#edf5f7"/><path id="XMLID_7_" class="st91" d="M371.1 837.9l-79.5-45.2v3.1l79.4 45.1z"/><path fill="#d8e0e2" d="M371.1 837.9v3l53.8-33 .1-2.7z"/><path id="XMLID_10_" d="M369.9 829.8l53.9-32.8c0-.1-79.4-44.6-79.4-44.6l-53.9 32.1 79.4 45.3z" fill="#cce3d6"/><path id="XMLID_9_" fill="#dbecdd" d="M369.9 829.8l-79.4-45.2v3l79.3 45.1z"/><path fill="#bacfc4" d="M369.9 829.8v2.9l53.8-33 .1-2.7z"/><linearGradient id="SVGID_54_" gradientUnits="userSpaceOnUse" x1="418.758" y1="526.34" x2="430.653" y2="503.089" gradientTransform="translate(0 114)"><stop offset=".346" stop-color="#8a8a8a"/><stop offset=".486" stop-color="#8e8e8e"/><stop offset=".634" stop-color="#9b9b9b"/><stop offset=".784" stop-color="#afafaf"/><stop offset=".936" stop-color="#cdcdcd"/><stop offset="1" stop-color="#dbdbdb"/></linearGradient><path d="M395.9 639.2s8.5.4 18.3 3.9C423 646.3 448 629 448 629l-17.3-9.7-34.8 19.9z" opacity=".15" fill="url(#SVGID_54_)"/><path d="M366.4 817.2l35-21.8m-82.8-11.7l35-21.8m-31.5 23.8l35-21.7m-31.8 23.5l35-21.8m3.5 49.7l34.9-21.7m-52.4 4.6l35-21.8" opacity=".18" fill="none" stroke="#8c9dbe" stroke-width=".25" stroke-miterlimit="10"/><g class="st103"><path class="st104" d="M354.6 813.4l-5.7-2.6 45.3-27.5 5.7 2.6z"/></g><g class="st103"><path class="st104" d="M344.9 808.2l-5.6-2.7 45.3-27.4 5.7 2.6z"/></g><g class="st103"><path class="st104" d="M305.6 787.2l-5.7-2.6 45.4-27.5 5.6 2.6z"/></g><path class="st105" d="M418.8 612.2c-1-.1-2.1-.1-3.4.3-5.3 1.5-10.7 7-12.1 12.3-.3 1.3-.4 2.4-.2 3.4 2.1 1.4 4.2 2.6 5.6 3.5-.8-1.1-2.1-3.4-1.6-5.5 1.1-4.8 4.5-9.1 9.2-10.6 2.2-.7 4.8-.9 6.3-.1-.1-.2-.1-.4-.2-.6-.7-.5-1.8-1.3-3.6-2.7zm25 12l-3.1 4s2.8 6.2 4.8 7.8c2 1.7 3.8.1 3.8.1l-5.5-11.9z"/><path class="st105" d="M435 618.3c-1.3-.4-1.3 5.4-1.3 5.4l7 4.6 3.1-4c0-.1-6.3-5.2-8.8-6z"/><linearGradient id="SVGID_55_" gradientUnits="userSpaceOnUse" x1="406.526" y1="517.854" x2="451.308" y2="517.854" gradientTransform="translate(0 114)"><stop offset=".049" stop-color="#edb7a5"/><stop offset="1" stop-color="#e0b192"/></linearGradient><path d="M451.3 640.9l-6.4-14-5.3-3.4c-.9-.6-1.7-1.3-2.2-2.2l-1.3-1.9c-.4-.6-.9-1-1.6-1.2l-11.5-3.8c-4.7-1.3-9.9 1.3-13.6 4.6-2.5 2.2-4.4 11.4-.6 14l3.5 6.7c.4.7.9 1.3 1.4 1.8l6.3 5.5c2-.6 2.7-4.4.4-6.9l-2-2c-.6-.6-1-1.2-1.2-2l-.9-3c1.8-.2 3.5-.4 5-.7 1.3-.2 2.7.1 3.8.9l6.1 4.3s3.5 8.6 6.1 10.9c2.7 2.4 5.1.3 5.1.3l-6.3-15.3 1.7 1.1s3.8 8.4 6.5 10.7c2.8 2.3 5.1.1 5.1.1l-1.9-4.2c2.2 1.2 3.8-.3 3.8-.3z" fill="url(#SVGID_55_)"/><linearGradient id="SVGID_56_" gradientUnits="userSpaceOnUse" x1="495.2" y1="472.2" x2="715" y2="472.2" gradientTransform="matrix(1 0 0 -1 0 1194)"><stop offset=".364" stop-color="#c7b7ae"/><stop offset=".813" stop-color="#c7b7ae" stop-opacity=".2"/></linearGradient><path fill="url(#SVGID_56_)" d="M495.2 787.7l120.7-68.8 99.1-54.8-15.2-8.2-111.9 60.6-51.3 17.5z"/><linearGradient id="SVGID_57_" gradientUnits="userSpaceOnUse" x1="394.7" y1="518.423" x2="597.5" y2="518.423" gradientTransform="translate(0 114)"><stop offset=".201" stop-color="#d2d9e7"/><stop offset=".71" stop-color="#d2d9e7"/><stop offset=".727" stop-color="#d2d9e7"/></linearGradient><path d="M398 653.8L586.4 545c1.1-.7 2.2-.7 3-.2 0-.1 8.1 4.6 8.1 4.6L591 679.6c0 3.4-2.1 7.4-4.7 8.9l-51.2 31.9-140.4-63c.9-1.6 2-2.9 3.3-3.6z" fill="url(#SVGID_57_)"/><linearGradient id="SVGID_58_" gradientUnits="userSpaceOnUse" x1="393.3" y1="615.75" x2="535.2" y2="615.75" gradientTransform="translate(0 114)"><stop offset=".201" stop-color="#d2d9e7"/><stop offset=".71" stop-color="#d2d9e7"/><stop offset=".727" stop-color="#d2d9e7"/></linearGradient><path d="M535.2 720.3l-131.8 82-8.1-4.7c-1.2-.5-2-1.9-2-4v-131c0-1.8.6-3.7 1.5-5.4l140.4 63.1z" fill="url(#SVGID_58_)"/><path class="st4" d="M406.1 801.9l188.4-108.8c2.6-1.5 4.7-5.5 4.7-8.9v-131c0-3.4-2.1-5-4.7-3.5L406.1 658.5c-2.6 1.5-4.7 5.5-4.7 8.9v131c0 3.4 2.1 5 4.7 3.5z"/><linearGradient id="SVGID_59_" gradientUnits="userSpaceOnUse" x1="537.881" y1="579.361" x2="519.804" y2="584.146" gradientTransform="translate(0 114)"><stop offset=".346" stop-color="#8a8a8a"/><stop offset=".37" stop-color="#929292"/><stop offset=".458" stop-color="#adadad"/><stop offset=".555" stop-color="#c2c2c2"/><stop offset=".663" stop-color="#d0d0d0"/><stop offset=".793" stop-color="#d9d9d9"/><stop offset="1" stop-color="#dbdbdb"/></linearGradient><path opacity=".24" fill="url(#SVGID_59_)" d="M534.4 727.4l4.4-67.4 15.7 55.4z"/><linearGradient id="SVGID_60_" gradientUnits="userSpaceOnUse" x1="393.3" y1="546.65" x2="406.268" y2="546.65" gradientTransform="translate(0 114)"><stop offset=".481" stop-color="#b5cad5"/><stop offset=".953" stop-color="#b5cad5"/></linearGradient><path d="M401.4 667.6l-8.1-4.7v-.2c0-3.4 2.1-7.4 4.7-8.9l.2-.1 8.1 4.7-.2.1c-2.6 1.5-4.7 5.5-4.7 8.9v.2z" fill="url(#SVGID_60_)"/><path class="st4" d="M528.7 743.3l25.2 10.4c.1.9-.2 1.6-.8 2.1-.1.1-.2.1-.2.1l-58.6 33.8-23.1-13.3 57.5-33.1z"/><path class="st4" d="M468.9 772.4l55.1-31.8 27 11.3-58.8 33.9z"/><linearGradient id="SVGID_61_" gradientUnits="userSpaceOnUse" x1="480" y1="609.85" x2="554" y2="609.85" gradientTransform="translate(0 114)"><stop offset=".481" stop-color="#b5cad5"/><stop offset=".953" stop-color="#b5cad5"/></linearGradient><path fill="url(#SVGID_61_)" d="M554 753.7l-58.8 34L480 694l58.8-34z"/><linearGradient id="SVGID_62_" gradientUnits="userSpaceOnUse" x1="468.872" y1="628.096" x2="495.203" y2="628.096" gradientTransform="translate(0 114)"><stop offset=".201" stop-color="#d2d9e7"/><stop offset=".71" stop-color="#d2d9e7"/><stop offset=".727" stop-color="#d2d9e7"/></linearGradient><path d="M492 784.4l-12-74V694l15.2 93.7c.3 1.8-1.6 3.1-3.2 2.2l-23.1-13.3v-4.2l22.1 12.7c.5.3 1.1-.1 1-.7z" fill="url(#SVGID_62_)"/><path class="st4" d="M396.5 687.9l1.4.8v61.2l-1.4-.8zm32.9 87.1l2.4-1.4v-8l-2.4 1.3zm-5.2 3l2.4-1.4v-8l-2.4 1.3zm-5.2 3l2.4-1.4v-8l-2.4 1.3zm-5.1 3l2.3-1.4v-8l-2.3 1.3zm169-99.8l2.4-1.3v-8.1l-2.4 1.3zm-5.2 3l2.4-1.3v-8.1l-2.4 1.3zm-5.2 3l2.4-1.3v-8.1l-2.4 1.3zm-5.2 3l2.4-1.3v-8.1l-2.4 1.3zm-132.2 72.9c0 1.1.8 1.5 1.7 1 .9-.5 1.7-1.8 1.7-2.9s-.8-1.5-1.7-1c-1 .5-1.7 1.8-1.7 2.9zm6.7-3.9c0 1.1.8 1.5 1.7 1 .9-.5 1.7-1.8 1.7-2.9s-.8-1.5-1.7-1c-1 .5-1.7 1.8-1.7 2.9z"/><path id="XMLID_5_" opacity=".23" fill="#fff" d="M382.3 899.8L163.7 773.5v15.3L382.3 915z"/><linearGradient id="SVGID_63_" gradientUnits="userSpaceOnUse" x1="254.496" y1="579.282" x2="287.152" y2="545.752" gradientTransform="translate(0 114)"><stop offset=".431"/><stop offset=".649"/><stop offset=".745" stop-color="#2f2f2f"/><stop offset=".963" stop-color="#a5a5a5"/><stop offset="1" stop-color="#bababa"/></linearGradient><path d="M233.5 661.7c-4-6.8 8.7 21.6 16.3 26.8 7.6 5.2 32.3 16.3 32.3 16.3l33.2-19-67.8-16.5s-11.5-3.3-14-7.6z" opacity=".09" fill="url(#SVGID_63_)"/><path class="st116" d="M464.4 414.3l-23.1 12.8c-11.4 6.3-20.5 20.5-20.1 31.5l2.5 59.2c.1 2 .8 3.9 1.9 5.2 3.9 4.6 16.6 11.7 19.8 10.4l100-59.6-65-53.8-16-5.7z"/><path d="M739 342.1l-1-43.2c-.1-2.9-1.2-10.2-1.8-13.3-.7-3.7-14.6-9.2-15.3-9.5-3.4-1.5-7.3.6-15.2 4.2l-241.3 134 16 5.8 65 53.8L709 376.4c11.4-6.3 30.4-23.3 30-34.3z" fill="#cbcfe1"/><path class="st116" d="M704.2 238.9l-263.6 157c-3.3 1.3-16-5.8-19.8-10.4-1.2-1.4-1.8-3.3-1.9-5.2l-2.5-59.2c-.4-11 8.6-25.2 20.1-31.5l264.4-146.8c7.9-3.6 11.9-5.7 15.2-4.2.7.3 14.6 5.8 15.3 9.5.6 3.1 1.7 10.4 1.8 13.3l1 43.2c.4 11-18.6 28-30 34.3z"/><path class="st118" d="M716.1 246.2L451.7 393.1c-11.4 6.3-21.1 2.5-21.5-8.4l-2-56.2c-.4-11 8.6-25.2 20.1-31.5l264.4-146.8c18-9 21.1-2.5 21.5 8.4l2 56.2c.4 10.9-8.7 25.1-20.1 31.4z"/><path class="st91" d="M550.7 239.7l29.1-16-3.7 100.4-30.4 16.6zm35.1-19.3l6.5-3.7-3.7 100.4-7.8 4.3z"/><g class="st119"><path class="st120" d="M686.3 238.5l-12.1-24.7 4.5-5.5 8 16.4 17-46.4h2.9l-17.4 60.2z"/><path class="st121" d="M689.2 238.5l-12.1-24.7 4.5-5.5 8 16.4 17-46.4 4.3.9z"/><path class="st122" d="M674.2 213.8h2.9l4.5-5.5h-2.9z"/></g><path class="st118" d="M720.9 383.7L456.5 530.6c-11.4 6.3-21.1 2.5-21.5-8.4l-2-56.2c-.4-11 8.6-25.2 20.1-31.5l264.4-146.8c18-9 21.1-2.5 21.5 8.4l2 56.2c.4 10.9-8.7 25.1-20.1 31.4z"/><path d="M610.3 347.1l29.1-16-3.6 100.3-30.4 16.7zm35.1-19.4l6.5-3.6-3.6 100.3-7.8 4.3z" opacity=".67" fill="#fff"/><g class="st119"><path class="st120" d="M691.1 376L679 351.3l4.5-5.5 8 16.4 17-46.4h2.9L694 376z"/><path class="st121" d="M694 376l-12.1-24.7 4.5-5.5 8 16.4 17-46.4 4.3.9z"/><path class="st122" d="M679 351.3h2.9l4.5-5.5h-2.9z"/></g><path opacity=".68" fill="#f0f8fd" d="M491.9 504v104.6l6-3 .7-103.6z"/><path d="M467.1 326c-.2.3-.7.7-1.3 1.1-1.4.8-2.6.1-2.6-2.2-.1-2.2 1-4.3 2.5-5.2.6-.3 1-.4 1.2-.4l-.1.8c-.2 0-.6 0-1 .3-1.2.7-1.9 2.2-1.9 4 .1 1.7.8 2.4 2 1.7.4-.2.8-.6 1.1-.9l.1.8zm3.3-2.8c0 .4 0 .9.1 1.2l-.6.3-.1-.6c-.2.5-.6 1.1-1.1 1.4-.7.4-1.1-.1-1.2-.8 0-1.2.7-2.3 2.1-3.1v-.1c0-.4-.1-1.1-.9-.7-.3.2-.7.5-.9.9l-.2-.5c.3-.4.7-.9 1.2-1.1 1.1-.6 1.4.3 1.5 1.3l.1 1.8zm-.7-1c-.7.4-1.5 1-1.5 2 0 .6.3.7.6.5.5-.3.8-.9.9-1.3v-1.2zm2.3-3.8l.1 2.1v2c.2-.7.3-1.2.5-1.9l1-3.2.8-.4.2 5-.6.4-.1-2.1v-2.1c-.2.8-.4 1.3-.6 1.9-.3 1-.7 2.2-1 3.3l-.8.4-.2-5 .7-.4zm.3-2.2c0 .4.2.7.5.5.3-.2.5-.6.5-1.1l.5-.3c0 .9-.4 1.5-1 1.8-.7.4-.9-.1-1-.8l.5-.1zm5.7-1.1v.7l-1.1.6.2 4.3-.7.4-.2-4.3-1.1.6v-.7l2.9-1.6zm2.3.4c0-.6-.1-1.2-.1-1.6l.6-.3.1.8c.2-.8.7-1.4 1.3-1.7.9-.5 1.6.2 1.6 1.7.1 1.8-.7 3.1-1.6 3.6-.5.3-.9.2-1.2-.2l.1 2.7-.7.4-.1-5.4zm.7 1v.4c.1.6.6.8 1 .5.7-.4 1.1-1.4 1-2.6 0-1-.5-1.6-1.2-1.3-.5.3-.9.9-1 1.7v.4l.2.9zm4.2-5.4l.1 1.7c.1-.1.3-.3.6-.4.8-.4 1.6-.4 1.6.8 0 .5-.1 1-.3 1.4-.4.7-1 1.1-1.5 1.4-.4.2-.7.4-1 .5l-.2-5 .7-.4zm.1 4.4c.1 0 .3-.1.5-.2.5-.3 1-.9 1-1.7 0-.8-.6-.8-1.1-.5-.2.1-.4.2-.5.3l.1 2.1zm3.1-6.2l.2 5-.7.4-.2-5 .7-.4zm3.8-3.9c-.2.2-.5.5-.8.7-.6.5-1 1-1.3 1.7-.2.6-.3 1.3-.3 1.9.2-.9.7-1.6 1.2-1.8.9-.5 1.6 0 1.6 1.6.1 1.6-.5 3-1.6 3.6-1.3.7-1.8-.8-1.8-2.4 0-1.1.1-2.2.5-3.1.3-.9.8-1.5 1.5-2.1.3-.2.7-.5.9-.8l.1.7zm-1.2 3.1c-.4.2-.7.7-.8 1.1-.1.4-.2.8-.1 1.2 0 .8.4 1.9 1.1 1.5.7-.4 1-1.5.9-2.5 0-.8-.3-1.7-1.1-1.3zm5.2.4c0 .4 0 .9.1 1.2l-.6.3-.1-.6c-.2.5-.6 1.1-1.1 1.4-.7.4-1.1-.1-1.2-.8 0-1.2.7-2.3 2.1-3.1v-.1c0-.4-.1-1.1-.9-.7-.3.2-.7.5-.9.9l-.2-.5c.3-.4.7-.9 1.2-1.1 1.1-.6 1.4.3 1.5 1.3l.1 1.8zm-.7-1c-.7.4-1.5 1-1.5 2 0 .6.3.7.6.5.5-.3.8-.9.9-1.3v-1.2zm4.1-4.8v.7l-1.1.6.2 4.3-.7.4-.2-4.3-1.1.6v-.7l2.9-1.6zm.9 2.2c.1 1.2.6 1.4 1.3 1 .5-.3.8-.5 1-.8l.1.6c-.2.3-.6.7-1.2 1-1.1.6-1.8 0-1.9-1.5s.6-3.1 1.6-3.7c1.2-.7 1.6.6 1.6 1.5v.4l-2.5 1.5zm2-1.7c0-.6-.2-1.4-1-1-.7.4-.9 1.4-1 2l2-1zm2-3.2l.1 2.2.2-.1 1.3-2.9.8-.4-1.5 3.1c.6-.2 1 .1 1.3.9.1.3.2.7.4 1l-.7.4c-.1-.2-.2-.5-.4-.8-.3-.7-.6-.9-1.2-.5l-.1.1.1 2.2-.7.4-.2-5 .6-.6zm5.7 1.7c-.2.2-.5.6-1 .9-1.1.6-1.9 0-1.9-1.6-.1-1.5.7-3.1 1.9-3.8.4-.2.7-.3.9-.2l-.1.8c-.2 0-.4 0-.8.2-.8.5-1.3 1.6-1.2 2.6 0 1.2.6 1.6 1.3 1.2.4-.2.6-.5.8-.7l.1.6zm3.2-6.7v.7l-1.1.6.2 4.3-.7.4-.2-4.3-1.1.6v-.7l2.9-1.6zm5.2-2.9l.2 5-.7.4-.2-4.3-1.7.9.2 4.3-.7.4-.2-5 3.1-1.7zm4.5 0c.1 1.9-.9 3.2-1.7 3.7-1 .5-1.8 0-1.8-1.6-.1-1.7.7-3.1 1.7-3.7 1-.5 1.8.1 1.8 1.6zm-2.9 1.7c0 1.1.5 1.7 1.2 1.3.6-.4 1.1-1.4 1-2.6 0-.9-.4-1.7-1.2-1.3-.7.5-1 1.7-1 2.6zm3.7-4.6l.8-.5.7 2.2c.1.3.3.8.4 1.2.1-.4.2-1.3.4-2l.5-2.5.8-.5.4 4.9-.6.4-.2-2.4c0-.5-.1-1.2-.1-1.8-.1.5-.2 1-.4 1.9l-.6 2.9-.5.3-.7-2.1c-.1-.4-.3-1-.4-1.5v4.2l-.6.3.1-5zm8.2-2c.1 1.9-.9 3.2-1.7 3.7-1 .5-1.8 0-1.8-1.6-.1-1.7.7-3.1 1.7-3.7 1-.6 1.7 0 1.8 1.6zm-2.9 1.6c0 1.1.5 1.7 1.2 1.3.6-.4 1.1-1.4 1-2.6 0-.9-.4-1.7-1.2-1.3-.7.5-1 1.7-1 2.6zm3.9-4.7l1.3 1.5.1-.1-.1-2.2.6-.4.1 2.2.1-.1 1.1-2.9.8-.4-1.4 3.1c.6-.2.9 0 1.1.7.1.4.3.9.4 1.2l-.7.4c-.1-.2-.3-.6-.4-1-.3-.7-.6-.8-1.1-.5l-.1.1.1 2.2-.6.4-.1-2.2-.1.1c-.5.3-.8.7-1 1.7-.1.5-.2 1-.3 1.3l-.6.4c.1-.5.2-1.1.4-1.6.2-.9.5-1.6 1-1.9l-1.5-1.5.9-.5zm5.1-.1c.1 1.2.6 1.4 1.3 1 .5-.3.8-.5 1-.8l.1.6c-.2.3-.6.7-1.2 1-1.1.6-1.8 0-1.9-1.5-.1-1.5.6-3.1 1.6-3.7 1.2-.7 1.6.6 1.6 1.5v.4l-2.5 1.5zm2-1.8c0-.6-.2-1.4-1-1-.7.4-.9 1.4-1 2l2-1zm3.8-4.2v.7l-1.1.6.2 4.3-.7.4-.2-4.3-1.1.6v-.7l2.9-1.6zm5.1-2.8l.2 4.3.4-.2v2.3l-.5.3-.1-1.6-2.5 1.4v1.6l-.5.3-.1-2.2.3-.2c.1-.4.3-.8.3-1.2.1-.7.2-1.4.1-2.1V277l2.4-1.4zm-1.8 2.6c0 .7 0 1.4-.1 2-.1.4-.2.8-.3 1.1l1.7-.9-.1-3.6-1.2.7v.7zm3.6-3.6l.1 2.1v2c.2-.7.3-1.2.5-1.9l1-3.2.8-.4.2 5-.6.4-.1-2.1v-2.1c-.2.8-.4 1.3-.6 1.9-.3 1-.7 2.2-1 3.3l-.8.4-.2-5 .7-.4zm3.9 0l.3-.2c.6-.3.9-.9.9-1.3s-.3-.6-.7-.3c-.3.2-.6.5-.9.9l-.2-.5c.4-.5.8-.9 1.2-1.1.6-.3 1.3-.3 1.3.6 0 .6-.4 1.3-.8 1.6.5-.2 1 0 1 .7 0 1.1-.8 1.9-1.5 2.4-.4.2-.9.3-1.2.3l.2-.7c.3.1.6 0 1-.2.6-.3.9-.9.9-1.4 0-.7-.5-.6-1.1-.3l-.3.2-.1-.7zm5.6-1.4c0 .4 0 .9.1 1.2l-.6.3-.1-.6c-.2.5-.6 1.1-1.1 1.4-.7.4-1.1-.1-1.2-.8 0-1.2.7-2.3 2.1-3.1v-.1c0-.4-.1-1.1-.9-.7-.3.2-.7.5-.9.9l-.2-.5c.3-.4.7-.9 1.2-1.1 1.1-.6 1.4.3 1.5 1.3l.1 1.8zm-.7-1c-.7.4-1.5 1-1.5 2 0 .6.3.7.6.5.5-.3.8-.9.9-1.3v-1.2zm2.2-3.7l.1 2.1v2c.2-.7.3-1.2.5-1.9l1-3.2.8-.4.2 5-.6.4-.1-2.1v-2.1c-.2.8-.4 1.3-.6 1.9-.3 1-.7 2.2-1 3.3l-.8.4-.2-5 .7-.4zm.4-2.3c0 .4.2.7.5.5.3-.2.5-.6.5-1.1l.5-.3c0 .9-.4 1.5-1 1.8-.7.4-.9-.1-1-.8l.5-.1zm3.8-.1l.1 2 1.7-1-.1-2 .7-.4.2 5-.7.4-.1-2.3-1.7 1 .1 2.3-.7.4-.2-5 .7-.4zm4 .6c.1 1.2.6 1.4 1.3 1 .5-.3.8-.5 1-.8l.1.6c-.2.3-.6.7-1.2 1-1.1.6-1.8 0-1.9-1.5-.1-1.5.6-3.1 1.6-3.7 1.2-.7 1.6.6 1.6 1.5v.4l-2.5 1.5zm1.9-1.8c0-.6-.2-1.4-1-1-.7.4-.9 1.4-1 2l2-1zm1.5-1.2c0-.6-.1-1.2-.1-1.6l.6-.3.1.8c.2-.8.7-1.4 1.3-1.7.9-.5 1.6.2 1.6 1.7.1 1.8-.7 3.1-1.6 3.6-.5.3-.9.2-1.2-.2l.1 2.7-.7.4-.1-5.4zm.7 1v.4c.1.6.6.8 1 .5.7-.4 1.1-1.4 1-2.6 0-1-.5-1.6-1.2-1.3-.5.3-.9.9-1 1.7v.4l.2.9zm3.7-5.1l.9 2.5.3.9c.1-.3.1-.8.2-1.2l.6-3.4.7-.4-.9 4.1c-.4 2-.7 3-1.1 3.8-.3.6-.6.9-.8 1l-.2-.7c.2-.2.4-.4.6-.8.2-.3.4-.8.5-1.3v-.2c0-.1 0-.1-.1-.2l-1.5-3.9.8-.2zm2.7 4.9c.1-.7.3-1.9.4-2.7l.7-.5c-.2 1-.4 2.3-.6 2.9l-.5.3zm3.4-8.2c.3-.2.7-.5 1.2-.8.6-.3 1.6-.8 1.7.4 0 .6-.3 1.2-.7 1.6.5-.2.9 0 1 .7 0 1.3-1.2 2.2-1.9 2.6l-1 .5-.3-5zm.7 4c.2-.1.3-.1.5-.3.5-.3 1.1-.8 1.1-1.5s-.6-.6-1.2-.2l-.5.3.1 1.7zm0-2.3l.5-.3c.5-.3 1-.8 1-1.4 0-.5-.3-.6-1-.2-.2.1-.4.2-.5.3v1.6zm3.5-1.4c.1 1.2.6 1.4 1.3 1 .5-.3.8-.5 1-.8l.1.6c-.2.3-.6.7-1.2 1-1.1.6-1.8 0-1.9-1.5-.1-1.5.6-3.1 1.6-3.7 1.2-.7 1.6.6 1.6 1.5v.4l-2.5 1.5zm1.9-1.7c0-.6-.2-1.4-1-1-.7.4-.9 1.4-1 2l2-1zm1.5-1.2c0-.6-.1-1.2-.1-1.6l.6-.3.1.8c.2-.8.7-1.4 1.3-1.7.9-.5 1.6.2 1.6 1.7.1 1.8-.7 3.1-1.6 3.6-.5.3-.9.2-1.2-.2l.1 2.7-.7.4-.1-5.4zm.7.9v.4c.1.6.6.8 1 .5.7-.4 1.1-1.4 1-2.6 0-1-.5-1.6-1.2-1.3-.5.3-.9.9-1 1.7v.4l.2.9zm6.3-1.6c-.2.2-.5.6-1 .9-1.1.6-1.9 0-1.9-1.6-.1-1.5.7-3.1 1.9-3.8.4-.2.7-.3.9-.2l-.1.8c-.2 0-.4 0-.8.2-.8.5-1.3 1.6-1.2 2.6 0 1.2.6 1.6 1.3 1.2.4-.2.6-.5.8-.7l.1.6zm3.2-6.7v.7l-1.1.6.2 4.3-.7.4-.2-4.3-1.1.6v-.7l2.9-1.6zm3.2 2.1c0 .4 0 .9.1 1.2l-.6.3-.1-.6c-.2.5-.6 1.1-1.1 1.4-.7.4-1.1-.1-1.2-.8 0-1.2.7-2.3 2.1-3.1v-.1c0-.4-.1-1.1-.9-.7-.3.2-.7.5-.9.9l-.2-.5c.3-.4.7-.9 1.2-1.1 1.1-.6 1.4.3 1.5 1.3l.1 1.8zm-.6-1c-.7.4-1.5 1-1.5 2 0 .6.3.7.6.5.5-.3.8-.9.9-1.3v-1.2zm4.4-4.9l.2 5-.7.4-.2-4.3-1.3.7v1.3c0 1.4 0 2.4-.5 3.1-.2.3-.4.5-.7.7l-.1-.7.4-.4c.3-.5.3-1.3.3-2.4l-.1-2 2.7-1.4zm1.7-1l.1 1.7c.2-.1.4-.3.6-.4.8-.5 1.7-.6 1.8.8 0 .5-.1 1-.3 1.4-.4.7-1 1.2-1.6 1.5-.4.2-.7.4-1 .5l-.2-5 .6-.5zm.1 4.4c.1 0 .3-.1.5-.2.5-.3 1.1-.9 1.1-1.7 0-.9-.7-.7-1.2-.4-.2.1-.3.2-.5.3l.1 2zm3.7-6.5l.2 4.3 1.3-.7-.2-4.3.7-.4.2 4.3 1.3-.7-.2-4.3.6-.4.2 4.3.4-.2v2.3l-.5.3-.1-1.6-4.3 2.4-.2-5 .6-.3zm5.6-3.1l.1 2.1v2c.2-.7.3-1.2.5-1.9l1-3.2.8-.4.2 5-.6.4-.1-2.1v-2.1c-.2.8-.4 1.3-.6 1.9-.3 1-.7 2.2-1 3.3l-.8.4-.2-5 .7-.4zm4.2-2.4l.1 2.2.2-.1 1.3-2.9.8-.4-1.5 3.1c.6-.2 1 .1 1.3.9.1.3.2.7.4 1l-.7.3c-.1-.2-.2-.5-.4-.8-.3-.7-.6-.9-1.2-.5l-.1.1.1 2.2-.7.4-.2-5 .6-.5zm3.3-1.8l.9 2.5.3.9c.1-.3.1-.8.2-1.2l.6-3.4.7-.4-.9 4.1c-.4 2-.7 3-1.1 3.8-.3.6-.6.9-.8 1l-.2-.7c.2-.2.4-.4.6-.8.2-.3.4-.8.5-1.3v-.2c0-.1 0-.1-.1-.2l-1.5-3.9.8-.2zm2.7 5c.1-.7.3-1.9.4-2.7l.7-.5c-.2 1-.4 2.3-.6 2.9l-.5.3zm-166.3 98.7c.3-.2.7-.5 1.2-.8.6-.3 1.6-.8 1.7.4 0 .6-.3 1.2-.7 1.6.5-.2.9 0 1 .7 0 1.3-1.2 2.2-1.9 2.6l-1 .5-.3-5zm.8 4c.2-.1.3-.1.5-.3.5-.3 1.1-.8 1.1-1.5s-.6-.6-1.2-.2l-.5.3.1 1.7zm-.1-2.3l.5-.3c.5-.3 1-.8 1-1.4 0-.5-.3-.6-1-.2-.2.1-.4.2-.5.3v1.6zm3.5-1.4c.1 1.2.6 1.4 1.3 1 .5-.3.8-.5 1-.8l.1.6c-.2.3-.6.7-1.2 1-1.1.6-1.8 0-1.9-1.5-.1-1.5.6-3.1 1.6-3.7 1.2-.7 1.6.6 1.6 1.5v.4l-2.5 1.5zm2-1.8c0-.6-.2-1.4-1-1-.7.4-.9 1.4-1 2l2-1zm4.1-6.1c-.2.2-.5.5-.8.7-.6.5-1 1-1.3 1.7-.2.6-.3 1.3-.3 1.9.2-.9.7-1.6 1.2-1.8.9-.5 1.6 0 1.6 1.6.1 1.6-.5 3-1.6 3.6-1.3.7-1.8-.8-1.8-2.4 0-1.1.1-2.2.5-3.1.3-.9.8-1.5 1.5-2.1.3-.2.7-.5.9-.8l.1.7zm-1.2 3.1c-.4.2-.7.7-.8 1.1-.1.4-.2.8-.1 1.2 0 .8.4 1.9 1.1 1.5.7-.4 1-1.5.9-2.5-.1-.8-.3-1.7-1.1-1.3zm2.5-2.1l.8-.5.7 2.2c.1.3.3.8.4 1.2.1-.4.2-1.3.4-2l.5-2.5.8-.5.4 4.9-.6.4-.2-2.4c0-.5-.1-1.2-.1-1.8-.1.5-.2 1-.4 1.9l-.6 2.9-.5.3-.7-2.1c-.1-.4-.3-1-.4-1.5v4.2l-.6.3.1-5zm7.5-.2c0 .4 0 .9.1 1.2l-.6.3-.1-.6c-.2.5-.6 1.1-1.1 1.4-.7.4-1.1-.1-1.2-.8 0-1.2.7-2.3 2.1-3.1v-.1c0-.4-.1-1.1-.9-.7-.3.2-.7.5-.9.9l-.2-.5c.3-.4.7-.9 1.2-1.1 1.1-.6 1.4.3 1.5 1.3l.1 1.8zm-.7-1c-.7.4-1.5 1-1.5 2 0 .6.3.7.6.5.5-.3.8-.9.9-1.3V328zm4.4-.1c-.2.2-.5.6-1 .9-1.1.6-1.9 0-1.9-1.6-.1-1.5.7-3.1 1.9-3.8.4-.2.7-.3.9-.2l-.1.8c-.2 0-.4 0-.8.2-.8.5-1.3 1.6-1.2 2.6 0 1.2.6 1.6 1.3 1.2.4-.2.6-.5.8-.7l.1.6zm3.2-6.7v.7l-1.1.6.2 4.3-.7.4-.2-4.3-1.1.6v-.7l2.9-1.6zm1 2.2c.1 1.2.6 1.4 1.3 1 .5-.3.8-.5 1-.8l.1.6c-.2.3-.6.7-1.2 1-1.1.6-1.8 0-1.9-1.5-.1-1.5.6-3.1 1.6-3.7 1.2-.7 1.6.6 1.6 1.5v.4l-2.5 1.5zm1.9-1.7c0-.6-.2-1.4-1-1-.7.4-.9 1.4-1 2l2-1zm1.5-1.2c0-.6-.1-1.2-.1-1.6l.6-.3.1.8c.2-.8.7-1.4 1.3-1.7.9-.5 1.6.2 1.6 1.7.1 1.8-.7 3.1-1.6 3.6-.5.3-.9.2-1.2-.2l.1 2.7-.7.4-.1-5.4zm.7 1v.4c.1.6.6.8 1 .5.7-.4 1.1-1.4 1-2.6 0-1-.5-1.6-1.2-1.3-.5.3-.9.9-1 1.7v.4l.2.9zm3.7-5.1l.9 2.5.3.9c.1-.3.1-.8.2-1.2l.6-3.4.7-.4-.9 4.1c-.4 2-.7 3-1.1 3.8-.3.6-.6.9-.8 1l-.2-.7c.2-.2.4-.4.6-.8.2-.3.4-.8.5-1.3v-.2c0-.1 0-.1-.1-.2l-1.5-3.9.8-.2zm7.7.6c-.2.2-.5.6-1 .9-1.1.6-1.9 0-1.9-1.6-.1-1.5.7-3.1 1.9-3.8.4-.2.7-.3.9-.2l-.1.8c-.2 0-.4 0-.8.2-.8.5-1.3 1.6-1.2 2.6 0 1.2.6 1.6 1.3 1.2.4-.2.6-.5.8-.7l.1.6zm2.8-6.5v.7l-1.6.9.2 4.3-.7.4-.2-5 2.3-1.3zm1 2.2c.1 1.2.6 1.4 1.3 1 .5-.3.8-.5 1-.8l.1.6c-.2.3-.6.7-1.2 1-1.1.6-1.8 0-1.9-1.5-.1-1.5.6-3.1 1.6-3.7 1.2-.7 1.6.6 1.6 1.5v.4l-2.5 1.5zm1.9-1.7c0-.6-.2-1.4-1-1-.7.4-.9 1.4-1 2l2-1zm2-3.2l.1 2 1.7-1-.1-2 .7-.4.2 5-.7.4-.1-2.3-1.7 1 .1 2.3-.7.4-.2-5 .7-.4zm4 .5c.1 1.2.6 1.4 1.3 1 .5-.3.8-.5 1-.8l.1.6c-.2.3-.6.7-1.2 1-1.1.6-1.8 0-1.9-1.5-.1-1.5.6-3.1 1.6-3.7 1.2-.7 1.6.6 1.6 1.5v.4l-2.5 1.5zm1.9-1.7c0-.6-.2-1.4-1-1-.7.4-.9 1.4-1 2l2-1zm1.5-1.2c0-.6-.1-1.2-.1-1.6l.6-.3.1.8c.2-.8.7-1.4 1.3-1.7.9-.5 1.6.2 1.6 1.7.1 1.8-.7 3.1-1.6 3.6-.5.3-.9.2-1.2-.2l.1 2.7-.7.4-.1-5.4zm.7 1v.4c.1.6.6.8 1 .5.7-.4 1.1-1.4 1-2.6 0-1-.5-1.6-1.2-1.3-.5.3-.9.9-1 1.7v.4l.2.9zm4.1-5.4l.1 2.1v2c.2-.7.3-1.2.5-1.9l1-3.2.8-.4.2 5-.6.4-.1-2.1v-2.1c-.2.8-.4 1.3-.6 1.9-.3 1-.7 2.2-1 3.3l-.8.4-.2-5 .7-.4zm3.7-.3c0-.6-.1-1.2-.1-1.6l.6-.3.1.8c.2-.8.7-1.4 1.3-1.7.9-.5 1.6.2 1.6 1.7.1 1.8-.7 3.1-1.6 3.6-.5.3-.9.2-1.2-.2l.1 2.7-.7.4-.1-5.4zm.7.9v.4c.1.6.6.8 1 .5.7-.4 1.1-1.4 1-2.6 0-1-.5-1.6-1.2-1.3-.5.3-.9.9-1 1.7v.4l.2.9zm6.9-4.3c.1 1.9-.9 3.2-1.7 3.7-1 .5-1.8 0-1.8-1.6-.1-1.7.7-3.1 1.7-3.7 1-.6 1.7.1 1.8 1.6zm-2.9 1.6c0 1.1.5 1.7 1.2 1.3.6-.4 1.1-1.4 1-2.6 0-.9-.4-1.7-1.2-1.3-.7.5-1 1.7-1 2.6zm3.6-4.5c.3-.2.7-.5 1.2-.8.6-.3 1.6-.8 1.7.4 0 .6-.3 1.2-.7 1.6.5-.2.9 0 1 .7 0 1.3-1.2 2.2-1.9 2.6l-1 .5-.3-5zm.8 4c.2-.1.3-.1.5-.3.5-.3 1.1-.8 1.1-1.5s-.6-.6-1.2-.2l-.5.3.1 1.7zm-.1-2.3l.5-.3c.5-.3 1-.8 1-1.4 0-.5-.3-.6-1-.2-.2.1-.4.2-.5.3v1.6zm5.8-1.5c0 .4 0 .9.1 1.2l-.6.3-.1-.6c-.2.5-.6 1.1-1.1 1.4-.7.4-1.1-.1-1.2-.8 0-1.2.7-2.3 2.1-3.1v-.1c0-.4-.1-1.1-.9-.7-.3.2-.7.5-.9.9l-.2-.5c.3-.4.7-.9 1.2-1.1 1.1-.6 1.4.3 1.5 1.3l.1 1.8zm-.7-1c-.7.4-1.5 1-1.5 2 0 .6.3.7.6.5.5-.3.8-.9.9-1.3v-1.2zm4.1-4.7v.7l-1.1.6.2 4.3-.7.4-.2-4.3-1.1.6v-.7l2.9-1.6zm1.2-.7l.1 1.7c.2-.1.4-.3.6-.4.8-.5 1.7-.6 1.8.8 0 .5-.1 1-.3 1.4-.4.7-1 1.2-1.6 1.5-.4.2-.7.4-1 .5l-.2-5 .6-.5zm.1 4.4c.1 0 .3-.1.5-.2.5-.3 1.1-.9 1.1-1.7 0-.9-.7-.7-1.2-.4-.2.1-.3.2-.5.3l.1 2zm5.3-7.4l.1 2 1.7-1-.1-2 .7-.4.2 5-.7.4-.1-2.3-1.7 1 .1 2.3-.7.4-.2-5 .7-.4zm3.9.6c.1 1.2.6 1.4 1.3 1 .5-.3.8-.5 1-.8l.1.6c-.2.3-.6.7-1.2 1-1.1.6-1.8 0-1.9-1.5-.1-1.5.6-3.1 1.6-3.7 1.2-.7 1.6.6 1.6 1.5v.4l-2.5 1.5zm1.9-1.8c0-.6-.2-1.4-1-1-.7.4-.9 1.4-1 2l2-1zm4.2.6c-.2.2-.5.6-1 .9-1.1.6-1.9 0-1.9-1.6-.1-1.5.7-3.1 1.9-3.8.4-.2.7-.3.9-.2l-.1.8c-.2 0-.4 0-.8.2-.8.5-1.3 1.6-1.2 2.6 0 1.2.6 1.6 1.3 1.2.4-.2.6-.5.8-.7l.1.6zm1.3-5.7l.1 2.2.2-.1 1.3-2.9.8-.4-1.5 3.1c.6-.2 1 .1 1.3.9.1.3.2.7.4 1l-.7.4c-.1-.2-.2-.5-.4-.8-.3-.7-.6-.9-1.2-.5l-.1.1.1 2.2-.7.4-.2-5 .6-.6zm6.3-.9c.1 1.9-.9 3.2-1.7 3.7-1 .5-1.8 0-1.8-1.6-.1-1.7.7-3.1 1.7-3.7 1-.6 1.7 0 1.8 1.6zm-2.9 1.6c0 1.1.5 1.7 1.2 1.3.6-.4 1.1-1.4 1-2.6 0-.9-.4-1.7-1.2-1.3-.7.5-1 1.7-1 2.6zm6.4-6.1l.2 5-.7.4-.2-4.3-1.3.7v1.3c0 1.4 0 2.4-.5 3.1-.2.3-.4.5-.7.7l-.1-.7.4-.4c.3-.5.3-1.3.3-2.4l-.1-2 2.7-1.4zm1.7-1l.1 1.7c.2-.1.4-.3.6-.4.8-.5 1.7-.6 1.8.8 0 .5-.1 1-.3 1.4-.4.7-1 1.2-1.6 1.5-.4.2-.7.4-1 .5l-.2-5 .6-.5zm.2 4.4c.1 0 .3-.1.5-.2.5-.3 1.1-.9 1.1-1.7 0-.9-.7-.7-1.2-.4-.2.1-.3.2-.5.3l.1 2zm3.6-6.5l.1 2.2.2-.1 1.3-2.9.8-.4-1.5 3.1c.6-.2 1 .1 1.3.9.1.3.2.7.4 1l-.7.4c-.1-.2-.2-.5-.4-.8-.3-.7-.6-.9-1.2-.5l-.1.1.1 2.2-.7.4-.2-5 .6-.6zm6.3-1c.1 1.9-.9 3.2-1.7 3.7-1 .5-1.8 0-1.8-1.6-.1-1.7.7-3.1 1.7-3.7 1-.5 1.8.1 1.8 1.6zm-2.9 1.7c0 1.1.5 1.7 1.2 1.3.6-.4 1.1-1.4 1-2.6 0-.9-.4-1.7-1.2-1.3-.7.5-1 1.7-1 2.6zm8-3.1c0 .4 0 .9.1 1.2l-.6.3-.1-.6c-.2.5-.6 1.1-1.1 1.4-.7.4-1.1-.1-1.2-.8 0-1.2.7-2.3 2.1-3.1v-.1c0-.4-.1-1.1-.9-.7-.3.2-.7.5-.9.9l-.1-.5c.3-.4.7-.9 1.2-1.1 1.1-.6 1.4.3 1.5 1.3v1.8zm-.7-1c-.7.4-1.5 1-1.5 2 0 .6.3.7.6.5.5-.3.8-.9.9-1.3V267zm4.3-6.6c-.2.2-.5.5-.8.7-.6.5-1 1-1.3 1.7-.2.6-.3 1.3-.3 1.9.2-.9.7-1.6 1.2-1.8.9-.5 1.6 0 1.6 1.6.1 1.6-.5 3-1.6 3.6-1.3.7-1.8-.8-1.8-2.4 0-1.1.1-2.2.5-3.1.3-.9.8-1.5 1.5-2.1.3-.2.7-.5.9-.8l.1.7zm-1.2 3.1c-.4.2-.7.7-.8 1.1-.1.4-.2.8-.1 1.2 0 .8.4 1.9 1.1 1.5.7-.4 1-1.5.9-2.5 0-.9-.3-1.8-1.1-1.3zm2.9-.2l.3-.2c.6-.3.9-.9.9-1.3s-.3-.6-.7-.3c-.3.2-.6.5-.9.9l-.2-.5c.4-.5.8-.9 1.2-1.1.6-.3 1.3-.3 1.3.6 0 .6-.4 1.3-.8 1.6.5-.2 1 0 1 .7 0 1.1-.8 1.9-1.5 2.4-.4.2-.9.3-1.2.3l.2-.7c.3.1.6 0 1-.2.6-.3.9-.9.9-1.4 0-.7-.5-.6-1.1-.3l-.3.2-.1-.7zm5.6-1.3c0 .4 0 .9.1 1.2l-.6.3-.1-.6c-.2.5-.6 1.1-1.1 1.4-.7.4-1.1-.1-1.2-.8 0-1.2.7-2.3 2.1-3.1v-.1c0-.4-.1-1.1-.9-.7-.3.2-.7.5-.9.9l-.2-.5c.3-.4.7-.9 1.2-1.1 1.1-.6 1.4.3 1.5 1.3l.1 1.8zm-.7-1c-.7.4-1.5 1-1.5 2 0 .6.3.7.6.5.5-.3.8-.9.9-1.3V261zm2.2-3.8l.2 4.3 1.7-.9-.2-4.3.7-.4.2 4.3.4-.2v2.3l-.5.3-.1-1.6-2.8 1.6-.2-5 .6-.4zm4 .5c.1 1.2.6 1.4 1.3 1 .5-.3.8-.5 1-.8l.1.6c-.2.3-.6.7-1.2 1-1.1.6-1.8 0-1.9-1.5-.1-1.5.6-3.1 1.6-3.7 1.2-.7 1.6.6 1.6 1.5v.4l-2.5 1.5zm1.9-1.7c0-.6-.2-1.4-1-1-.7.4-.9 1.4-1 2l2-1zm1.4-2.8c.3-.2.7-.5 1.2-.8.6-.3 1.6-.8 1.7.4 0 .6-.3 1.2-.7 1.6.5-.2.9 0 1 .7 0 1.3-1.2 2.2-1.9 2.6l-1 .5-.3-5zm.8 4c.2-.1.3-.1.5-.3.5-.3 1.1-.8 1.1-1.5s-.6-.6-1.2-.2l-.5.3.1 1.7zm-.1-2.3l.5-.3c.5-.3 1-.8 1-1.4 0-.5-.3-.6-1-.2-.2.1-.4.2-.5.3v1.6zm7.4-8c-.2.2-.5.5-.8.7-.6.5-1 1-1.3 1.7-.2.6-.3 1.3-.3 1.9.2-.9.7-1.6 1.2-1.8.9-.5 1.6 0 1.6 1.6.1 1.6-.5 3-1.6 3.6-1.3.7-1.8-.8-1.8-2.4 0-1.1.1-2.2.5-3.1.3-.9.8-1.5 1.5-2.1.3-.2.7-.5.9-.8l.1.7zm-1.2 3.1c-.4.2-.7.7-.8 1.1-.1.4-.2.8-.1 1.2 0 .8.4 1.9 1.1 1.5.7-.4 1-1.5.9-2.5-.1-.8-.3-1.7-1.1-1.3zm5.9-1.4c.1 1.9-.9 3.2-1.7 3.7-1 .5-1.8 0-1.8-1.6-.1-1.7.7-3.1 1.7-3.7 1-.6 1.7.1 1.8 1.6zm-2.9 1.6c0 1.1.5 1.7 1.2 1.3.6-.4 1.1-1.4 1-2.6 0-.9-.4-1.7-1.2-1.3-.7.5-1 1.7-1 2.6zm6.4-6.1l.2 5-.7.4-.2-4.3-1.3.7v1.3c0 1.4 0 2.4-.5 3.1-.2.3-.4.5-.7.7l-.1-.7.4-.4c.3-.5.3-1.3.3-2.4l-.1-2 2.7-1.4zm1.6 1.9c.1 1.2.6 1.4 1.3 1 .5-.3.8-.5 1-.8l.1.6c-.2.3-.6.7-1.2 1-1.1.6-1.8 0-1.9-1.5s.6-3.1 1.6-3.7c1.2-.7 1.6.6 1.6 1.5v.4l-2.5 1.5zm1.9-1.8c0-.6-.2-1.4-1-1-.7.4-.9 1.4-1 2l2-1zm1.8-.3c.1 1.2.6 1.4 1.3 1 .5-.3.8-.5 1-.8l.1.6c-.2.3-.6.7-1.2 1-1.1.6-1.8 0-1.9-1.5-.1-1.5.6-3.1 1.6-3.7 1.2-.7 1.6.6 1.6 1.5v.4l-2.5 1.5zm2-1.8c0-.6-.2-1.4-1-1-.7.4-.9 1.4-1 2l2-1zm3-3.7l.8-.5.7 2.2c.1.3.3.8.4 1.2.1-.4.2-1.3.4-2l.5-2.5.8-.5.4 4.9-.6.4-.2-2.4c0-.5-.1-1.2-.1-1.8-.1.5-.2 1-.4 1.9l-.6 2.9-.5.3-.7-2.1c-.1-.4-.3-1-.4-1.5v4.2l-.6.3.1-5zm5.2-.2c.1 1.2.6 1.4 1.3 1 .5-.3.8-.5 1-.8l.1.6c-.2.3-.6.7-1.2 1-1.1.6-1.8 0-1.9-1.5s.6-3.1 1.6-3.7c1.2-.7 1.6.6 1.6 1.5v.4l-2.5 1.5zm2-1.7c0-.6-.2-1.4-1-1-.7.4-.9 1.4-1 2l2-1zm2-3.2l.1 2 1.7-1-.1-2 .7-.4.2 5-.7.4-.1-2.3-1.7 1 .1 2.3-.7.4-.2-5 .7-.4zm4 .5c.1 1.2.6 1.4 1.3 1 .5-.3.8-.5 1-.8l.1.6c-.2.3-.6.7-1.2 1-1.1.6-1.8 0-1.9-1.5-.1-1.5.6-3.1 1.6-3.7 1.2-.7 1.6.6 1.6 1.5v.4l-2.5 1.5zm1.9-1.7c0-.6-.2-1.4-1-1-.7.4-.9 1.4-1 2l2-1zm1.8-.4c.1 1.2.6 1.4 1.3 1 .5-.3.8-.5 1-.8l.1.6c-.2.3-.6.7-1.2 1-1.1.6-1.8 0-1.9-1.5s.6-3.1 1.6-3.7c1.2-.7 1.6.6 1.6 1.5v.4l-2.5 1.5zm2-1.7c0-.6-.2-1.4-1-1-.7.4-.9 1.4-1 2l2-1zM467.6 348.8c.1 1.9-.9 3.2-1.7 3.7-1 .5-1.8 0-1.8-1.6-.1-1.7.7-3.1 1.7-3.7 1-.6 1.8.1 1.8 1.6zm-2.9 1.6c0 1.1.5 1.7 1.2 1.3.6-.4 1.1-1.4 1-2.6 0-.9-.4-1.7-1.2-1.3-.7.5-1 1.7-1 2.6zm6.5-1.1c-.2.2-.5.6-1 .9-1.1.6-1.9 0-1.9-1.6-.1-1.5.7-3.1 1.9-3.8.4-.2.7-.3.9-.2l-.1.8c-.2 0-.4 0-.8.2-.8.5-1.3 1.6-1.2 2.6 0 1.2.6 1.6 1.3 1.2.4-.2.6-.5.8-.7l.1.6zm.6-5.4l.8-.5.7 2.2c.1.3.3.8.4 1.2.1-.4.2-1.3.4-2l.5-2.5.8-.5.4 4.9-.6.4-.2-2.4c0-.5-.1-1.2-.1-1.8-.1.5-.2 1-.4 1.9l-.6 2.9-.5.3-.7-2.1c-.1-.4-.3-1-.4-1.5v4.2l-.6.3.1-5zm5.4-3l.1 1.7c.1-.1.3-.3.6-.4.8-.4 1.6-.4 1.6.8 0 .5-.1 1-.3 1.4-.4.7-1 1.1-1.5 1.4-.4.2-.7.4-1 .5l-.2-5 .7-.4zm.2 4.4c.1 0 .3-.1.5-.2.5-.3 1-.9 1-1.7 0-.8-.6-.8-1.1-.5-.2.1-.4.2-.5.3l.1 2.1zm3.1-6.2l.2 5-.7.4-.2-5 .7-.4zm3.9 2.8c-.2.2-.5.6-1 .9-1.1.6-1.9 0-1.9-1.6-.1-1.5.7-3.1 1.9-3.8.4-.2.7-.3.9-.2l-.1.8c-.2 0-.4 0-.8.2-.8.5-1.3 1.6-1.2 2.6 0 1.2.6 1.6 1.3 1.2.4-.2.6-.5.8-.7l.1.6zm3.5-6.9l.2 5-.7.4-.2-4.3-1.3.7v1.3c0 1.4 0 2.4-.5 3.1-.2.3-.4.5-.7.7l-.1-.7.4-.4c.3-.5.3-1.3.3-2.4l-.1-2 2.7-1.4zm1.5 1.9c.1 1.2.6 1.4 1.3 1 .5-.3.8-.5 1-.8l.1.6c-.2.3-.6.7-1.2 1-1.1.6-1.8 0-1.9-1.5-.1-1.5.6-3.1 1.6-3.7 1.2-.7 1.6.6 1.6 1.5v.4l-2.5 1.5zm2-1.8c0-.6-.2-1.4-1-1-.7.4-.9 1.4-1 2l2-1zm2-3.2l.1 2 1.7-1-.1-2 .7-.4.2 5-.7.4-.1-2.3-1.7 1 .1 2.3-.7.4-.2-5 .7-.4zm4.1-2.2l.1 2 1.7-1-.1-2 .7-.4.2 5-.7.4-.1-2.3-1.7 1 .1 2.3-.7.4-.2-5 .7-.4zm6.9-1.3c.1 1.9-.9 3.2-1.7 3.7-1 .5-1.8 0-1.8-1.6-.1-1.7.7-3.1 1.7-3.7 1-.6 1.8 0 1.8 1.6zm-2.9 1.6c0 1.1.5 1.7 1.2 1.3.6-.4 1.1-1.4 1-2.6 0-.9-.4-1.7-1.2-1.3-.7.5-1 1.7-1 2.6zm5.9-5.8v.7l-1.6.9.2 4.3-.7.4-.2-5 2.3-1.3zm3.9.3c.1 1.9-.9 3.2-1.7 3.7-1 .5-1.8 0-1.8-1.6-.1-1.7.7-3.1 1.7-3.7 1-.6 1.8.1 1.8 1.6zm-2.9 1.7c0 1.1.5 1.7 1.2 1.3.6-.4 1.1-1.4 1-2.6 0-.9-.4-1.7-1.2-1.3-.7.5-1 1.6-1 2.6zm7.7-6.9v.7l-1.1.6.2 4.3-.7.4-.2-4.3-1.1.6v-.7l2.9-1.6zm1 2.2c.1 1.2.6 1.4 1.3 1 .5-.3.8-.5 1-.8l.1.6c-.2.3-.6.7-1.2 1-1.1.6-1.8 0-1.9-1.5-.1-1.5.6-3.1 1.6-3.7 1.2-.7 1.6.6 1.6 1.5v.4l-2.5 1.5zm1.9-1.7c0-.6-.2-1.4-1-1-.7.4-.9 1.4-1 2l2-1zm2.1-3.2l.1 2.2.2-.1 1.3-2.9.8-.4-1.5 3.1c.6-.2 1 .1 1.3.9.1.3.2.7.4 1l-.7.4c-.1-.2-.2-.5-.4-.8-.3-.7-.6-.9-1.2-.5l-.1.1.1 2.2-.7.4-.2-5 .6-.6zm5.7 1.8c-.2.2-.5.6-1 .9-1.1.6-1.9 0-1.9-1.6-.1-1.5.7-3.1 1.9-3.8.4-.2.7-.3.9-.2l-.1.8c-.2 0-.4 0-.8.2-.8.5-1.3 1.6-1.2 2.6 0 1.2.6 1.6 1.3 1.2.4-.2.6-.5.8-.7l.1.6zm3.2-6.7v.7l-1.1.6.2 4.3-.7.4-.2-4.3-1.2.6v-.7l3-1.6zm3.2 2.1c0 .4 0 .9.1 1.2l-.6.3-.1-.6c-.2.5-.6 1.1-1.1 1.4-.7.4-1.1-.1-1.2-.8 0-1.2.7-2.3 2.1-3.1v-.1c0-.4-.1-1.1-.9-.7-.3.2-.7.5-.9.9l-.2-.5c.3-.4.7-.9 1.2-1.1 1.1-.6 1.4.3 1.5 1.3l.1 1.8zm-.7-1c-.7.4-1.5 1-1.5 2 0 .6.3.7.6.5.5-.3.8-.9.9-1.3v-1.2zm3.3-2.7c0-.6-.1-1.2-.1-1.6l.6-.3.1.8c.2-.8.7-1.4 1.3-1.7.9-.5 1.6.2 1.6 1.7.1 1.8-.7 3.1-1.6 3.6-.5.3-.9.2-1.2-.2l.1 2.7-.7.4-.1-5.4zm.7 1v.4c.1.6.6.8 1 .5.7-.4 1.1-1.4 1-2.6 0-1-.5-1.6-1.2-1.3-.5.3-.9.9-1 1.7v.4l.2.9zm4.2-5.4l.1 1.7c.1-.1.3-.3.6-.4.8-.4 1.6-.4 1.6.8 0 .5-.1 1-.3 1.4-.4.7-1 1.1-1.5 1.4-.4.2-.7.4-1 .5l-.2-5 .7-.4zm.1 4.4c.1 0 .3-.1.5-.2.5-.3 1-.9 1-1.7 0-.8-.6-.8-1.1-.5-.2.1-.4.2-.5.3l.1 2.1zm3.2-6.2l.2 5-.7.4-.2-5 .7-.4zm3.8-3.9c-.2.2-.5.5-.8.7-.6.5-1 1-1.3 1.7-.2.6-.3 1.3-.3 1.9.2-.9.7-1.6 1.2-1.8.9-.5 1.6 0 1.6 1.6.1 1.6-.5 3-1.6 3.6-1.3.7-1.8-.8-1.8-2.4 0-1.1.1-2.2.5-3.1.3-.9.8-1.5 1.5-2.1.3-.2.7-.5.9-.8l.1.7zm-1.3 3.1c-.4.2-.7.7-.8 1.1-.1.4-.2.8-.1 1.2 0 .8.4 1.9 1.1 1.5.7-.4 1-1.5.9-2.5 0-.8-.3-1.7-1.1-1.3zm3.2-2.4l.1 1.7c.1-.1.3-.3.6-.4.8-.4 1.6-.4 1.6.8 0 .5-.1 1-.3 1.4-.4.7-1 1.1-1.5 1.4-.4.2-.7.4-1 .5l-.2-5 .7-.4zm.1 4.4c.1 0 .3-.1.5-.2.5-.3 1-.9 1-1.7 0-.8-.6-.8-1.1-.5-.2.1-.4.2-.5.3l.1 2.1zm3.2-6.2l.2 5-.7.4-.2-5 .7-.4zm3.3-1.9l.1 2 1.7-1-.1-2 .7-.4.2 5-.7.4-.1-2.3-1.7 1 .1 2.3-.7.4-.2-5 .7-.4zm6.2.5c0 .4 0 .9.1 1.2l-.6.3-.1-.6c-.2.5-.6 1.1-1.1 1.4-.7.4-1.1-.1-1.2-.8 0-1.2.7-2.3 2.1-3.1v-.1c0-.4-.1-1.1-.9-.7-.3.2-.7.5-.9.9l-.2-.5c.3-.4.7-.9 1.2-1.1 1.1-.6 1.4.3 1.5 1.3l.1 1.8zm-.7-1c-.7.4-1.5 1-1.5 2 0 .6.3.7.6.5.5-.3.8-.9.9-1.3v-1.2zm3.3-2.7c0-.6-.1-1.2-.1-1.6l.6-.3.1.8c.2-.8.7-1.4 1.3-1.7.9-.5 1.6.2 1.6 1.7.1 1.8-.7 3.1-1.6 3.6-.5.3-.9.2-1.2-.2l.1 2.7-.7.4-.1-5.4zm.7 1v.4c.1.6.6.8 1 .5.7-.4 1.1-1.4 1-2.6 0-1-.5-1.6-1.2-1.3-.5.3-.9.9-1 1.7v.4l.2.9zm3.7-5.1l.9 2.5.3.9c.1-.3.1-.8.2-1.2l.6-3.4.7-.4-.9 4.1c-.4 2-.7 3-1.1 3.8-.3.6-.6.9-.8 1l-.2-.7c.2-.2.4-.4.6-.8.2-.3.4-.8.5-1.3v-.2c0-.1 0-.1-.1-.2l-1.5-3.9.8-.2zm6 1.6c-.2.2-.5.6-1 .9-1.1.6-1.9 0-1.9-1.6-.1-1.5.7-3.1 1.9-3.8.4-.2.7-.3.9-.2l-.1.8c-.2 0-.4 0-.8.2-.8.5-1.3 1.6-1.2 2.6 0 1.2.6 1.6 1.3 1.2.4-.2.6-.5.8-.7l.1.6zm3.4-1.9c-.2.2-.5.6-1 .9-1.1.6-1.9 0-1.9-1.6-.1-1.5.7-3.1 1.9-3.8.4-.2.7-.3.9-.2l-.1.8c-.2 0-.4 0-.8.2-.8.5-1.3 1.6-1.2 2.6 0 1.2.6 1.6 1.3 1.2.4-.2.6-.5.8-.7l.1.6zm1.2-5.6l.1 2.2.2-.1 1.3-2.9.8-.4-1.5 3.1c.6-.2 1 .1 1.3.9.1.3.2.7.4 1l-.7.4c-.1-.2-.2-.5-.4-.8-.3-.7-.6-.9-1.2-.5l-.1.1.1 2.2-.7.4-.2-5 .6-.6zm6.3-1c.1 1.9-.9 3.2-1.7 3.7-1 .5-1.8 0-1.8-1.6-.1-1.7.7-3.1 1.7-3.7 1-.6 1.8.1 1.8 1.6zm-2.9 1.7c0 1.1.5 1.7 1.2 1.3.6-.4 1.1-1.4 1-2.6 0-.9-.4-1.7-1.2-1.3-.7.4-1 1.6-1 2.6zm3.7-4.7l.8-.5.7 2.2c.1.3.3.8.4 1.2.1-.4.2-1.3.4-2l.5-2.5.8-.5.4 4.9-.6.4-.2-2.4c0-.5-.1-1.2-.1-1.8-.1.5-.2 1-.4 1.9l-.6 2.9-.5.3-.7-2.1c-.1-.4-.3-1-.4-1.5v4.2l-.6.3.1-5zm9.3.1l-.7.4-.1-2.1-.5.3c-.3.2-.5.4-.6.6-.3.5-.3 1.1-.5 1.7 0 .2-.1.3-.1.5l-.7.4c.1-.2.1-.4.2-.7.1-.6.2-1.3.5-1.8.1-.2.2-.4.4-.5-.5.2-1 .1-1-.7 0-.5.2-1 .4-1.4.3-.4.7-.8 1.2-1 .4-.2.9-.4 1.2-.5l.3 4.8zm-.9-4.1c-.2.1-.3.1-.6.3-.4.2-1 .7-1 1.4 0 .6.6.6 1 .3.3-.2.4-.2.6-.3v-1.7zm2.1.4l.3-.2c.6-.3.9-.9.9-1.3s-.3-.6-.7-.3c-.3.2-.6.5-.9.9l-.2-.5c.4-.5.8-.9 1.2-1.1.6-.3 1.3-.3 1.3.6 0 .6-.4 1.3-.8 1.6.5-.2 1 0 1 .7 0 1.1-.8 1.9-1.5 2.4-.4.2-.9.3-1.2.3l.2-.7c.3.1.6 0 1-.2.6-.3.9-.9.9-1.4 0-.7-.5-.6-1.1-.3l-.3.2-.1-.7zm3.6-4.1l.1 1.7c.1-.1.3-.3.6-.4.8-.4 1.6-.4 1.6.8 0 .5-.1 1-.3 1.4-.4.7-1 1.1-1.5 1.4-.4.2-.7.4-1 .5l-.2-5 .7-.4zm.1 4.3c.1 0 .3-.1.5-.2.5-.3 1-.9 1-1.7 0-.8-.6-.8-1.1-.5-.2.1-.4.2-.5.3l.1 2.1zm3.2-6.2l.2 5-.7.4-.2-5 .7-.4zm1.7-.9l.1 2.2.2-.1 1.3-2.9.8-.4-1.5 3.1c.6-.2 1 .1 1.3.9.1.3.2.7.4 1l-.7.4c-.1-.2-.2-.5-.4-.8-.3-.7-.6-.9-1.2-.5l-.1.1.1 2.2-.7.4-.2-5 .6-.6zm3.4.8c.1 1.2.6 1.4 1.3 1 .5-.3.8-.5 1-.8l.1.6c-.2.3-.6.7-1.2 1-1.1.6-1.8 0-1.9-1.5-.1-1.5.6-3.1 1.6-3.7 1.2-.7 1.6.6 1.6 1.5v.4l-2.5 1.5zm1.9-1.7c0-.6-.2-1.4-1-1-.7.4-.9 1.4-1 2l2-1zM470 470c0-.6-.1-1.2-.1-1.6l.6-.3.1.8c.2-.8.7-1.4 1.3-1.7.9-.5 1.6.2 1.6 1.7.1 1.8-.7 3.1-1.6 3.6-.5.3-.9.2-1.2-.2l.1 2.7-.7.4-.1-5.4zm.7 1v.4c.1.6.6.8 1 .5.7-.4 1.1-1.4 1-2.6 0-1-.5-1.6-1.2-1.3-.5.3-.9.9-1 1.7v.4l.2.9zm4.2-5.4l.1 1.7c.1-.1.3-.3.6-.4.8-.4 1.6-.4 1.6.8 0 .5-.1 1-.3 1.4-.4.7-1 1.1-1.5 1.4-.4.2-.7.4-1 .5l-.2-5 .7-.4zm.2 4.4c.1 0 .3-.1.5-.2.5-.3 1-.9 1-1.7 0-.8-.6-.8-1.1-.5-.2.1-.4.2-.5.3l.1 2.1zm3.1-6.2l.2 5-.7.4-.2-5 .7-.4zm3.8-3.9c-.2.2-.5.5-.8.7-.6.5-1 1-1.3 1.7-.2.6-.3 1.3-.3 1.9.2-.9.7-1.6 1.2-1.8.9-.5 1.6 0 1.6 1.6.1 1.6-.5 3-1.6 3.6-1.3.7-1.8-.8-1.8-2.4 0-1.1.1-2.2.5-3.1.3-.9.8-1.5 1.5-2.1.3-.2.7-.5.9-.8l.1.7zm-1.2 3.1c-.4.2-.7.7-.8 1.1-.1.4-.2.8-.1 1.2 0 .8.4 1.9 1.1 1.5.7-.4 1-1.5.9-2.5-.1-.8-.3-1.7-1.1-1.3zm5.2.3c0 .4 0 .9.1 1.2l-.6.3-.1-.6c-.2.5-.6 1.1-1.1 1.4-.7.4-1.1-.1-1.2-.8 0-1.2.7-2.3 2.1-3.1v-.1c0-.4-.1-1.1-.9-.7-.3.2-.7.5-.9.9l-.2-.5c.3-.4.7-.9 1.2-1.1 1.1-.6 1.4.3 1.5 1.3l.1 1.8zm-.7-1c-.7.4-1.5 1-1.5 2 0 .6.3.7.6.5.5-.3.8-.9.9-1.3v-1.2zm4-4.7v.7l-1.1.6.2 4.3-.7.4-.2-4.3-1.1.6v-.7l2.9-1.6zm1 2.2c.1 1.2.6 1.4 1.3 1 .5-.3.8-.5 1-.8l.1.6c-.2.3-.6.7-1.2 1-1.1.6-1.8 0-1.9-1.5s.6-3.1 1.6-3.7c1.2-.7 1.6.6 1.6 1.5v.4l-2.5 1.5zm1.9-1.7c0-.6-.2-1.4-1-1-.7.4-.9 1.4-1 2l2-1zm2.1-3.3l.1 2.2.2-.1 1.3-2.9.8-.4-1.5 3.1c.6-.2 1 .1 1.3.9.1.3.2.7.4 1l-.7.4c-.1-.2-.2-.5-.4-.8-.3-.7-.6-.9-1.2-.5l-.1.1.1 2.2-.7.4-.2-5 .6-.6zm5.6 1.8c-.2.2-.5.6-1 .9-1.1.6-1.9 0-1.9-1.6-.1-1.5.7-3.1 1.9-3.8.4-.2.7-.3.9-.2l-.1.8c-.2 0-.4 0-.8.2-.8.5-1.3 1.6-1.2 2.6 0 1.2.6 1.6 1.3 1.2.4-.2.6-.5.8-.7l.1.6zm3.2-6.7v.7l-1.1.6.2 4.3-.7.4-.2-4.3-1.1.6v-.7l2.9-1.6zm5.3-2.9l.2 5-.7.4-.2-4.3-1.7.9.2 4.3-.7.4-.2-5 3.1-1.7zm4.5 0c.1 1.9-.9 3.2-1.7 3.7-1 .5-1.8 0-1.8-1.6-.1-1.7.7-3.1 1.7-3.7 1-.5 1.7.1 1.8 1.6zm-2.9 1.7c0 1.1.5 1.7 1.2 1.3.6-.4 1.1-1.4 1-2.6 0-.9-.4-1.7-1.2-1.3-.8.5-1.1 1.6-1 2.6zm3.7-4.6l.8-.5.7 2.2c.1.3.3.8.4 1.2.1-.4.2-1.3.4-2l.5-2.5.8-.5.4 4.9-.6.4-.2-2.4c0-.5-.1-1.2-.1-1.8-.1.5-.2 1-.4 1.9l-.6 2.9-.5.3-.7-2.1c-.1-.4-.3-1-.4-1.5v4.2l-.6.3.1-5zm8.1-2c.1 1.9-.9 3.2-1.7 3.7-1 .5-1.8 0-1.8-1.6-.1-1.7.7-3.1 1.7-3.7 1-.6 1.8 0 1.8 1.6zm-2.8 1.6c0 1.1.5 1.7 1.2 1.3.6-.4 1.1-1.4 1-2.6 0-.9-.4-1.7-1.2-1.3-.8.5-1.1 1.7-1 2.6zm3.8-4.7l1.3 1.5.1-.1-.1-2.2.6-.4.1 2.2.1-.1 1.1-2.9.8-.4-1.4 3.1c.6-.2.9 0 1.1.7.1.4.3.9.4 1.2l-.7.4c-.1-.2-.3-.6-.4-1-.3-.7-.6-.8-1.1-.5l-.1.1.1 2.2-.6.4-.1-2.2-.1.1c-.5.3-.8.7-1 1.7-.1.5-.2 1-.3 1.3l-.6.4c.1-.5.2-1.1.4-1.6.2-.9.5-1.6 1-1.9l-1.5-1.5.9-.5zm5.2-.2c.1 1.2.6 1.4 1.3 1 .5-.3.8-.5 1-.8l.1.6c-.2.3-.6.7-1.2 1-1.1.6-1.8 0-1.9-1.5-.1-1.5.6-3.1 1.6-3.7 1.2-.7 1.6.6 1.6 1.5v.4l-2.5 1.5zm1.9-1.7c0-.6-.2-1.4-1-1-.7.4-.9 1.4-1 2l2-1zm3.8-4.2v.7l-1.1.6.2 4.3-.7.4-.2-4.3-1.1.6v-.7l2.9-1.6zm5.1-2.8l.2 4.3.4-.2v2.3l-.5.3-.1-1.6-2.5 1.4v1.6l-.5.3-.1-2.2.3-.2c.1-.4.3-.8.3-1.2.1-.7.2-1.4.1-2.1v-1.3l2.4-1.4zm-1.8 2.6c0 .7 0 1.4-.1 2-.1.4-.2.8-.3 1.1l1.7-.9-.1-3.6-1.2.7v.7zm3.6-3.6l.1 2.1v2c.2-.7.3-1.2.5-1.9l1-3.2.8-.4.2 5-.6.4-.1-2.1v-2.1c-.2.8-.4 1.3-.6 1.9-.3 1-.7 2.2-1 3.3l-.8.4-.2-5 .7-.4zm4 0l.3-.2c.6-.3.9-.9.9-1.3s-.3-.6-.7-.3c-.3.2-.6.5-.9.9l-.2-.5c.4-.5.8-.9 1.2-1.1.6-.3 1.3-.3 1.3.6 0 .6-.4 1.3-.8 1.6.5-.2 1 0 1 .7 0 1.1-.8 1.9-1.5 2.4-.4.2-.9.3-1.2.3l.2-.7c.3.1.6 0 1-.2.6-.3.9-.9.9-1.4 0-.7-.5-.6-1.1-.3l-.3.2-.1-.7zm5.5-1.4c0 .4 0 .9.1 1.2l-.6.3-.1-.6c-.2.5-.6 1.1-1.1 1.4-.7.4-1.1-.1-1.2-.8 0-1.2.7-2.3 2.1-3.1v-.1c0-.4-.1-1.1-.9-.7-.3.2-.7.5-.9.9l-.2-.5c.3-.4.7-.9 1.2-1.1 1.1-.6 1.4.3 1.5 1.3l.1 1.8zm-.7-1c-.7.4-1.5 1-1.5 2 0 .6.3.7.6.5.5-.3.8-.9.9-1.3v-1.2zm2.3-3.7l.1 2.1v2c.2-.7.3-1.2.5-1.9l1-3.2.8-.4.2 5-.6.4-.1-2.1v-2.1c-.2.8-.4 1.3-.6 1.9-.3 1-.7 2.2-1 3.3l-.8.4-.2-5 .7-.4zm.3-2.3c0 .4.2.7.5.5.3-.2.5-.6.5-1.1l.5-.3c0 .9-.4 1.5-1 1.8-.7.4-.9-.1-1-.8l.5-.1zm3.9-.1l.1 2 1.7-1-.1-2 .7-.4.2 5-.7.4-.1-2.3-1.7 1 .1 2.3-.7.4-.2-5 .7-.4zm3.9.6c.1 1.2.6 1.4 1.3 1 .5-.3.8-.5 1-.8l.1.6c-.2.3-.6.7-1.2 1-1.1.6-1.8 0-1.9-1.5s.6-3.1 1.6-3.7c1.2-.7 1.6.6 1.6 1.5v.4l-2.5 1.5zm2-1.8c0-.6-.2-1.4-1-1-.7.4-.9 1.4-1 2l2-1zm1.4-1.2c0-.6-.1-1.2-.1-1.6l.6-.3.1.8c.2-.8.7-1.4 1.3-1.7.9-.5 1.6.2 1.6 1.7.1 1.8-.7 3.1-1.6 3.6-.5.3-.9.2-1.2-.2l.1 2.7-.7.4-.1-5.4zm.7 1v.4c.1.6.6.8 1 .5.7-.4 1.1-1.4 1-2.6 0-1-.5-1.6-1.2-1.3-.5.3-.9.9-1 1.7v.4l.2.9zm3.7-5.1l.9 2.5.3.9c.1-.3.1-.8.2-1.2l.6-3.4.7-.4-.9 4.1c-.4 2-.7 3-1.1 3.8-.3.6-.6.9-.8 1l-.2-.7c.2-.2.4-.4.6-.8.2-.3.4-.8.5-1.3v-.2c0-.1 0-.1-.1-.2l-1.5-3.9.8-.2zm-96.4 66.6c.3-.2.7-.5 1.2-.8.6-.3 1.6-.8 1.7.4 0 .6-.3 1.2-.7 1.6.5-.2.9 0 1 .7 0 1.3-1.2 2.2-1.9 2.6l-1 .5-.3-5zm.8 4.1c.2-.1.3-.1.5-.3.5-.3 1.1-.8 1.1-1.5s-.6-.6-1.2-.2l-.4.2v1.8zm0-2.4l.5-.3c.5-.3 1-.8 1-1.4 0-.5-.3-.6-1-.2-.2.1-.4.2-.5.3v1.6zm3.5-1.4c.1 1.2.6 1.4 1.3 1 .5-.3.8-.5 1-.8l.1.6c-.2.3-.6.7-1.2 1-1.1.6-1.8 0-1.9-1.5s.6-3.1 1.6-3.7c1.2-.7 1.6.6 1.6 1.5v.4l-2.5 1.5zm1.9-1.7c0-.6-.2-1.4-1-1-.7.4-.9 1.4-1 2l2-1zm4.2-6.1c-.2.2-.5.5-.8.7-.6.5-1 1-1.3 1.7-.2.6-.3 1.3-.3 1.9.2-.9.7-1.6 1.2-1.8.9-.5 1.6 0 1.6 1.6.1 1.6-.5 3-1.6 3.6-1.3.7-1.8-.8-1.8-2.4 0-1.1.1-2.2.5-3.1.3-.9.8-1.5 1.5-2.1.3-.2.7-.5.9-.8l.1.7zm-1.3 3.1c-.4.2-.7.7-.8 1.1-.1.4-.2.8-.1 1.2 0 .8.4 1.9 1.1 1.5.7-.4 1-1.5.9-2.5 0-.8-.3-1.7-1.1-1.3zm2.6-2.1l.8-.5.7 2.2c.1.3.3.8.4 1.2.1-.4.2-1.3.4-2l.5-2.5.8-.5.4 4.9-.6.4-.2-2.4c0-.5-.1-1.2-.1-1.8-.1.5-.2 1-.4 1.9l-.6 2.9-.5.3-.7-2.1c-.1-.4-.3-1-.4-1.5v4.2l-.6.3.1-5zm7.5-.2c0 .4 0 .9.1 1.2l-.6.3-.1-.6c-.2.5-.6 1.1-1.1 1.4-.7.4-1.1-.1-1.2-.8 0-1.2.7-2.3 2.1-3.1v-.1c0-.4-.1-1.1-.9-.7-.3.2-.7.5-.9.9l-.2-.5c.3-.4.7-.9 1.2-1.1 1.1-.6 1.4.3 1.5 1.3l.1 1.8zm-.7-1.1c-.7.4-1.5 1-1.5 2 0 .6.3.7.6.5.5-.3.8-.9.9-1.3v-1.2zm4.4 0c-.2.2-.5.6-1 .9-1.1.6-1.9 0-1.9-1.6-.1-1.5.7-3.1 1.9-3.8.4-.2.7-.3.9-.2l-.1.8c-.2 0-.4 0-.8.2-.8.5-1.3 1.6-1.2 2.6 0 1.2.6 1.6 1.3 1.2.4-.2.6-.5.8-.7l.1.6zm3.2-6.7v.7l-1.1.6.2 4.3-.7.4-.2-4.3-1.1.6v-.7l2.9-1.6zm.9 2.2c.1 1.2.6 1.4 1.3 1 .5-.3.8-.5 1-.8l.1.6c-.2.3-.6.7-1.2 1-1.1.6-1.8 0-1.9-1.5s.6-3.1 1.6-3.7c1.2-.7 1.6.6 1.6 1.5v.4l-2.5 1.5zm2-1.7c0-.6-.2-1.4-1-1-.7.4-.9 1.4-1 2l2-1zm1.4-1.2c0-.6-.1-1.2-.1-1.6l.6-.3.1.8c.2-.8.7-1.4 1.3-1.7.9-.5 1.6.2 1.6 1.7.1 1.8-.7 3.1-1.6 3.6-.5.3-.9.2-1.2-.2l.1 2.7-.7.4-.1-5.4zm.7 1v.4c.1.6.6.8 1 .5.7-.4 1.1-1.4 1-2.6 0-1-.5-1.6-1.2-1.3-.5.3-.9.9-1 1.7v.4l.2.9zm3.7-5.1l.9 2.5.3.9c.1-.3.1-.8.2-1.2l.6-3.4.7-.4-.9 4.1c-.4 2-.7 3-1.1 3.8-.3.6-.6.9-.8 1l-.2-.7c.2-.2.4-.4.6-.8.2-.3.4-.8.5-1.3v-.2c0-.1 0-.1-.1-.2l-1.5-3.9.8-.2zm7.7.6c-.2.2-.5.6-1 .9-1.1.6-1.9 0-1.9-1.6-.1-1.5.7-3.1 1.9-3.8.4-.2.7-.3.9-.2l-.1.8c-.2 0-.4 0-.8.2-.8.5-1.3 1.6-1.2 2.6 0 1.2.6 1.6 1.3 1.2.4-.2.6-.5.8-.7l.1.6zm2.9-6.5v.7l-1.6.9.2 4.3-.7.4-.2-5 2.3-1.3zm.9 2.2c.1 1.2.6 1.4 1.3 1 .5-.3.8-.5 1-.8l.1.6c-.2.3-.6.7-1.2 1-1.1.6-1.8 0-1.9-1.5-.1-1.5.6-3.1 1.6-3.7 1.2-.7 1.6.6 1.6 1.5v.4l-2.5 1.5zm2-1.7c0-.6-.2-1.4-1-1-.7.4-.9 1.4-1 2l2-1zm2-3.2l.1 2 1.7-1-.1-2 .7-.4.2 5-.7.4-.1-2.3-1.7 1 .1 2.3-.7.4-.2-5 .7-.4zm4 .5c.1 1.2.6 1.4 1.3 1 .5-.3.8-.5 1-.8l.1.6c-.2.3-.6.7-1.2 1-1.1.6-1.8 0-1.9-1.5-.1-1.5.6-3.1 1.6-3.7 1.2-.7 1.6.6 1.6 1.5v.4l-2.5 1.5zm1.9-1.7c0-.6-.2-1.4-1-1-.7.4-.9 1.4-1 2l2-1zm1.4-1.2c0-.6-.1-1.2-.1-1.6l.6-.3.1.8c.2-.8.7-1.4 1.3-1.7.9-.5 1.6.2 1.6 1.7.1 1.8-.7 3.1-1.6 3.6-.5.3-.9.2-1.2-.2l.1 2.7-.7.4-.1-5.4zm.7.9v.4c.1.6.6.8 1 .5.7-.4 1.1-1.4 1-2.6 0-1-.5-1.6-1.2-1.3-.5.3-.9.9-1 1.7v.4l.2.9zm4.2-5.3l.1 2.1v2c.2-.7.3-1.2.5-1.9l1-3.2.8-.4.2 5-.6.4-.1-2.1v-2.1c-.2.8-.4 1.3-.6 1.9-.3 1-.7 2.2-1 3.3l-.8.4-.2-5 .7-.4zm3.6-.3c0-.6-.1-1.2-.1-1.6l.6-.3.1.8c.2-.8.7-1.4 1.3-1.7.9-.5 1.6.2 1.6 1.7.1 1.8-.7 3.1-1.6 3.6-.5.3-.9.2-1.2-.2l.1 2.7-.7.4-.1-5.4zm.7.9v.4c.1.6.6.8 1 .5.7-.4 1.1-1.4 1-2.6 0-1-.5-1.6-1.2-1.3-.5.3-.9.9-1 1.7v.4l.2.9zm6.9-4.3c.1 1.9-.9 3.2-1.7 3.7-1 .5-1.8 0-1.8-1.6-.1-1.7.7-3.1 1.7-3.7 1-.6 1.8 0 1.8 1.6zm-2.8 1.6c0 1.1.5 1.7 1.2 1.3.6-.4 1.1-1.4 1-2.6 0-.9-.4-1.7-1.2-1.3-.8.5-1.1 1.7-1 2.6zm3.6-4.5c.3-.2.7-.5 1.2-.8.6-.3 1.6-.8 1.7.4 0 .6-.3 1.2-.7 1.6.5-.2.9 0 1 .7 0 1.3-1.2 2.2-1.9 2.6l-1 .5-.3-5zm.8 4c.2-.1.3-.1.5-.3.5-.3 1.1-.8 1.1-1.5s-.6-.6-1.2-.2l-.5.3.1 1.7zm-.1-2.3l.5-.3c.5-.3 1-.8 1-1.4 0-.5-.3-.6-1-.2-.2.1-.4.2-.5.3v1.6zm5.8-1.5c0 .4 0 .9.1 1.2l-.6.3-.1-.6c-.2.5-.6 1.1-1.1 1.4-.7.4-1.1-.1-1.2-.8 0-1.2.7-2.3 2.1-3.1v-.1c0-.4-.1-1.1-.9-.7-.3.2-.7.5-.9.9l-.2-.5c.3-.4.7-.9 1.2-1.1 1.1-.6 1.4.3 1.5 1.3l.1 1.8zm-.7-1c-.7.4-1.5 1-1.5 2 0 .6.3.7.6.5.5-.3.8-.9.9-1.3v-1.2zm4-4.7v.7l-1.1.6.2 4.3-.7.4-.2-4.3-1.1.6v-.7l2.9-1.6zm1.3-.7l.1 1.7c.2-.1.4-.3.6-.4.8-.5 1.7-.6 1.8.8 0 .5-.1 1-.3 1.4-.4.7-1 1.2-1.6 1.5-.4.2-.7.4-1 .5l-.2-5 .6-.5zm.1 4.4c.1 0 .3-.1.5-.2.5-.3 1.1-.9 1.1-1.7 0-.9-.7-.7-1.2-.4-.2.1-.3.2-.5.3l.1 2zm5.2-7.4l.1 2 1.7-1-.1-2 .7-.4.2 5-.7.4-.1-2.3-1.7 1 .1 2.3-.7.4-.2-5 .7-.4zm4 .6c.1 1.2.6 1.4 1.3 1 .5-.3.8-.5 1-.8l.1.6c-.2.3-.6.7-1.2 1-1.1.6-1.8 0-1.9-1.5-.1-1.5.6-3.1 1.6-3.7 1.2-.7 1.6.6 1.6 1.5v.4l-2.5 1.5zm1.9-1.8c0-.6-.2-1.4-1-1-.7.4-.9 1.4-1 2l2-1zm4.2.6c-.2.2-.5.6-1 .9-1.1.6-1.9 0-1.9-1.6-.1-1.5.7-3.1 1.9-3.8.4-.2.7-.3.9-.2l-.1.8c-.2 0-.4 0-.8.2-.8.5-1.3 1.6-1.2 2.6 0 1.2.6 1.6 1.3 1.2.4-.2.6-.5.8-.7l.1.6zm1.2-5.7l.1 2.2.2-.1 1.3-2.9.8-.4-1.5 3.1c.6-.2 1 .1 1.3.9.1.3.2.7.4 1l-.7.4c-.1-.2-.2-.5-.4-.8-.3-.7-.6-.9-1.2-.5l-.1.1.1 2.2-.7.4-.2-5 .6-.6zm6.3-1c.1 1.9-.9 3.2-1.7 3.7-1 .5-1.8 0-1.8-1.6-.1-1.7.7-3.1 1.7-3.7 1-.5 1.8.1 1.8 1.6zm-2.8 1.7c0 1.1.5 1.7 1.2 1.3.6-.4 1.1-1.4 1-2.6 0-.9-.4-1.7-1.2-1.3-.8.5-1.1 1.7-1 2.6zm6.4-6.1l.2 5-.7.4-.2-4.3-1.3.7v1.3c0 1.4 0 2.4-.5 3.1-.2.3-.4.5-.7.7l-.1-.7.4-.4c.3-.5.3-1.3.3-2.4l-.1-2 2.7-1.4zm1.7-1l.1 1.7c.2-.1.4-.3.6-.4.8-.5 1.7-.6 1.8.8 0 .5-.1 1-.3 1.4-.4.7-1 1.2-1.6 1.5-.4.2-.7.4-1 .5l-.2-5 .6-.5zm.1 4.4c.1 0 .3-.1.5-.2.5-.3 1.1-.9 1.1-1.7 0-.9-.7-.7-1.2-.4-.2.1-.3.2-.5.3l.1 2zm3.7-6.5l.1 2.2.2-.1 1.3-2.9.8-.4-1.5 3.1c.6-.2 1 .1 1.3.9.1.3.2.7.4 1l-.7.4c-.1-.2-.2-.5-.4-.8-.3-.7-.6-.9-1.2-.5l-.1.1.1 2.2-.7.4-.2-5 .6-.6zm6.3-1c.1 1.9-.9 3.2-1.7 3.7-1 .5-1.8 0-1.8-1.6-.1-1.7.7-3.1 1.7-3.7 1-.6 1.7.1 1.8 1.6zm-2.9 1.7c0 1.1.5 1.7 1.2 1.3.6-.4 1.1-1.4 1-2.6 0-.9-.4-1.7-1.2-1.3-.7.5-1 1.6-1 2.6zm-15.1-4.7c.1 1.9-.9 3.2-1.7 3.7-1 .5-1.8 0-1.8-1.6-.1-1.7.7-3.1 1.7-3.7 1-.5 1.8.1 1.8 1.6zm-2.9 1.7c0 1.1.5 1.7 1.2 1.3.6-.4 1.1-1.4 1-2.6 0-.9-.4-1.7-1.2-1.3-.7.5-1 1.7-1 2.6zm6.5-1.2c-.2.2-.5.6-1 .9-1.1.6-1.9 0-1.9-1.6-.1-1.5.7-3.1 1.9-3.8.4-.2.7-.3.9-.2l-.1.8c-.2 0-.4 0-.8.2-.8.5-1.3 1.6-1.2 2.6 0 1.2.6 1.6 1.3 1.2.4-.2.6-.5.8-.7l.1.6zm.6-5.3l.8-.5.7 2.2c.1.3.3.8.4 1.2.1-.4.2-1.3.4-2l.5-2.5.8-.5.4 4.9-.6.4-.2-2.4c0-.5-.1-1.2-.1-1.8-.1.5-.2 1-.4 1.9l-.6 2.9-.5.3-.7-2.1c-.1-.4-.3-1-.4-1.5v4.2l-.6.3.1-5zm5.4-3l.1 1.7c.1-.1.3-.3.6-.4.8-.4 1.6-.4 1.6.8 0 .5-.1 1-.3 1.4-.4.7-1 1.1-1.5 1.4-.4.2-.7.4-1 .5l-.2-5 .7-.4zm.2 4.4c.1 0 .3-.1.5-.2.5-.3 1-.9 1-1.7 0-.8-.6-.8-1.1-.5-.2.1-.4.2-.5.3l.1 2.1zm3.1-6.2l.2 5-.7.4-.2-5 .7-.4zm3.9 2.8c-.2.2-.5.6-1 .9-1.1.6-1.9 0-1.9-1.6-.1-1.5.7-3.1 1.9-3.8.4-.2.7-.3.9-.2l-.1.8c-.2 0-.4 0-.8.2-.8.5-1.3 1.6-1.2 2.6 0 1.2.6 1.6 1.3 1.2.4-.2.6-.5.8-.7l.1.6zm3.5-6.9l.2 5-.7.4-.2-4.3-1.3.7v1.3c0 1.4 0 2.4-.5 3.1-.2.3-.4.5-.7.7l-.1-.7.4-.4c.3-.5.3-1.3.3-2.4l-.1-2 2.7-1.4zm1.6 1.8c.1 1.2.6 1.4 1.3 1 .5-.3.8-.5 1-.8l.1.6c-.2.3-.6.7-1.2 1-1.1.6-1.8 0-1.9-1.5-.1-1.5.6-3.1 1.6-3.7 1.2-.7 1.6.6 1.6 1.5v.4l-2.5 1.5zm1.9-1.7c0-.6-.2-1.4-1-1-.7.4-.9 1.4-1 2l2-1zm2-3.2l.1 2 1.7-1-.1-2 .7-.4.2 5-.7.4-.1-2.3-1.7 1 .1 2.3-.7.4-.2-5 .7-.4zm4.1-2.3l.1 2 1.7-1-.1-2 .7-.4.2 5-.7.4-.1-2.3-1.7 1 .1 2.3-.7.4-.2-5 .7-.4zm6.9-1.3c.1 1.9-.9 3.2-1.7 3.7-1 .5-1.8 0-1.8-1.6-.1-1.7.7-3.1 1.7-3.7 1-.6 1.8.1 1.8 1.6zm-2.9 1.7c0 1.1.5 1.7 1.2 1.3.6-.4 1.1-1.4 1-2.6 0-.9-.4-1.7-1.2-1.3-.7.4-1 1.6-1 2.6zm5.9-5.9v.7l-1.6.9.2 4.3-.7.4-.2-5 2.3-1.3zm3.9.4c.1 1.9-.9 3.2-1.7 3.7-1 .5-1.8 0-1.8-1.6-.1-1.7.7-3.1 1.7-3.7 1-.6 1.8.1 1.8 1.6zm-2.9 1.6c0 1.1.5 1.7 1.2 1.3.6-.4 1.1-1.4 1-2.6 0-.9-.4-1.7-1.2-1.3-.7.5-1 1.7-1 2.6zm7.8-6.8v.7l-1.1.6.2 4.3-.8.4-.2-4.3-1.1.6v-.7l3-1.6zm.9 2.2c.1 1.2.6 1.4 1.3 1 .5-.3.8-.5 1-.8l.1.6c-.2.3-.6.7-1.2 1-1.1.6-1.8 0-1.9-1.5s.6-3.1 1.6-3.7c1.2-.7 1.6.6 1.6 1.5v.4l-2.5 1.5zm1.9-1.7c0-.6-.2-1.4-1-1-.7.4-.9 1.4-1 2l2-1zm2.1-3.3l.1 2.2.2-.1 1.3-2.9.8-.4-1.5 3.1c.6-.2 1 .1 1.3.9.1.3.2.7.4 1l-.7.4c-.1-.2-.2-.5-.4-.8-.3-.7-.6-.9-1.2-.5l-.1.1.1 2.2-.7.4-.2-5 .6-.6zm5.7 1.8c-.2.2-.5.6-1 .9-1.1.6-1.9 0-1.9-1.6-.1-1.5.7-3.1 1.9-3.8.4-.2.7-.3.9-.2l-.1.8c-.2 0-.4 0-.8.2-.8.5-1.3 1.6-1.2 2.6 0 1.2.6 1.6 1.3 1.2.4-.2.6-.5.8-.7l.1.6zm3.2-6.7v.7l-1.1.6.2 4.3-.7.4-.2-4.3-1.1.6v-.7l2.9-1.6z" fill="#b8ced9"/></svg>