<svg version="1.1" id="Layer_1" xmlns="http://www.w3.org/2000/svg" x="0" y="0" viewBox="0 0 1056.2 999" xml:space="preserve"><style>.st5{fill:#49070b}.st6{fill:#320304}.st8{fill:#e26906}.st9{fill:#f7cca9}.st10{fill:#fff}.st11{fill:#d84914}.st12{fill:#fbce00}.st15{fill:#b22424}.st19{fill:#eb8f00}.st20{fill:#ef874f}.st27{fill:#1ea07c}.st30{fill:#f4cc6a}.st34{fill:#3f4042}.st35{fill:#2d3324}.st36{fill:#003d86}.st40{fill:#e4ac9a}.st41{fill:#00387b}.st42{fill:#f1bbab}.st43{fill:#ffc8bf}.st44{fill:#4a2b12}.st45{fill:#003b81}.st49{fill:#4f0b42}</style><path id="XMLID_1_" opacity=".82" fill="#eef5fb" d="M807.2 760.4V415.1L334.9 142.4v345.3z"/><path opacity=".2" fill="#d5e1f4" d="M335.8 486.9l16.6-11.8 472 272.5-16.3 12.7v-.7z"/><path opacity=".72" fill="#cfe2f6" d="M823.8 403.3v345.3l-16.6 10.1V415.8l16.3-12.7z"/><path opacity=".82" fill="#c9dbec" d="M334.9 142.4l16.6-11.8 472 272.5-16.3 12.7v-.7z"/><path d="M568.4 277.6l-65-37.8 126 417.2 69 38.9zm-90.8-52.3l-12.2-6.4 126 414.2 16.2 10.4z" opacity=".39" fill="#fff"/><path class="st5" d="M450.4 479.3h-.2c-.1 0-.1-.1-.2-.2 0-.1-.1-.2-.1-.2 0-.1 0-.1.1-.1h.3c.1 0 .1.1.2.2s.1.2.1.2c0 .1 0 .1-.1.1l-.1-.2h.1c.1 0 0-.1 0-.1s0-.1-.1-.1h-.2s-.1 0-.1.1v.1s0 .1.1.1h.1l.1.1zm3.1 3.3c-.3.1-.6.1-1-.1s-.7-.5-1-1-.5-.9-.5-1.2c0-.4.1-.6.4-.7l.4-.2c.3-.1.6-.1 1 .1s.7.5 1 1 .5.9.5 1.2c0 .4-.1.6-.4.7l-.4.2zm-.1-1.1c.2-.1.3-.2.3-.4s0-.4-.2-.6-.3-.4-.5-.5-.4-.1-.5 0l-.4.2c-.2.1-.3.2-.3.4s0 .4.2.6c.1.2.3.4.5.4.2.1.4.1.5 0l.4-.1zm2.6 1.8l-.7 1.9 2-.4.9 1-1.9 1.6-.6-.8.5-.4.9-.7-2 .3-.4-.5.7-1.9-.8.8-.5.4-.6-.8 1.9-1.6.6 1.1zm2.3 5.1l-.5.7-.7-.7 1.4-2.2 1.3 1.2c.4.4.6.7.7 1.1.1.3.1.6 0 .8-.1.2-.4.3-.7.2-.3-.1-.6-.3-1-.7l-.5-.4zm.2-.4l.5.5c.2.2.3.2.4.3.1 0 .2 0 .3-.1.1-.1.1-.2 0-.4 0-.1-.1-.3-.3-.4l-.5-.5-.4.6zm3.3 4.1l-1-.9-.4.3-.8-.6 2-1.7.8.7.1 3.4-.8-.6.1-.6zm-.7-1.2l.7.6v-1.2l-.7.6zm4.9 4.9l-.8-.5-.9-2.7-.3 1.9-.8-.5.5-3 .8.5.9 2.7.3-1.9.8.5-.5 3zm2.1-.7l.7-1.1.9.5-1.1 1.5v1.1l-.8-.4v-1.2l-1.2-2.7.9.5.6 1.8zm6.3 4.4l-.8-.3-1.7-2.7.5 2.3-.8-.3-.7-3.6.8.3 1.7 2.7-.5-2.3.8.3.7 3.6zm2.4-.2l-1-.2.1.7-.7-.1-.2-3.5.8.1 2.3 3.9-.7-.1-.6-.8zm-1.1-.8l.7.1-.8-1.4.1 1.3zm1.9-2l1.9 2.6-.6-2.6h.9l1.8 3.7h-.7l-.4-.9-.8-1.7.6 2.7h-.5l-1.9-2.6.9 1.7.4.9h-.7l-1.8-3.7.9-.1zm5.4 1.4l-1 .3.6.9 1.2-.3.4.7-1.8.5-2.2-3.7 1.8-.5.4.7-1.2.3.5.8 1-.3.3.6z"/><path class="st6" d="M492.2 482.7c-1.3-6-4.4-12.4-8.8-18-4.2-5.5-9.6-10.4-15.4-13.6s-11.2-4.2-15.4-3.4c-4.3.9-7.5 3.7-8.9 8.3l-.5-.4c1.4-4.6 4.6-7.6 9-8.5 4.3-.9 9.8.2 15.7 3.5 5.9 3.3 11.4 8.2 15.7 13.8 4.4 5.7 7.6 12.2 8.9 18.3h-.3zM443.7 467c1.3 6 4.4 12.4 8.8 18 4.2 5.5 9.6 10.4 15.4 13.6s11.2 4.2 15.4 3.4c4.3-.9 7.5-3.7 8.9-8.3l.5.4c-1.4 4.6-4.6 7.6-9 8.5-4.3.9-9.8-.2-15.7-3.5-5.9-3.3-11.4-8.2-15.7-13.8-4.4-5.8-7.6-12.2-8.9-18.3h.3z"/><path class="st6" d="M475.7 464s.1.1 0 0c.4.2.7.5.8.8.1.2.1.4.2.6.1.5.2.9.3 1.4.1 0 .4-.3.6-.2.7.5.3 3.7.3 4.1 1.5.8 1.5.6.9 1.6l-1.6 2.7-.7-.9c-.4-.6-.9-1.2-1.4-1.7-1.2-1.3-2.5-2.5-3.8-3.6-4.6-3.6-9-4.7-12.7-4.1l-.5.1-.4-.6-.3-.6c-.3-.6-.4-1-.6-1.6-.9-2.5.4-1.1.4-1.1-.8-2.5-.9-2.9-.5-2.6.2.1.4.4.8.7 0-.8-.1-4.6.5-4 0 0 .1 0 .1.1.2.1.4.7.6.9.2-.6.4-2.6 1.4-2.1.2.1.3.2.5.4l.1.1c.1-.2.1-.3.2-.4.2-.4.7-1.2 1.4-.7.2.1.3.4.4.6 0 .1.1.1.2.2.1-.1.2-.3.3-.4.1-.2.3-.5.5-.6.3-.1.6-.4 1-.1.3.2.5 1.2.6 1.4.1-.1.1-.2.2-.2.3-.3.7-2 1.4-1.5.1.1.8 1.9.9 2.2.2-.4.8-.9 1.1-.8.4.2 1.2 2.9 1.4 3.4.2-.1.5-.7.8-.5.6.4.8 1 .9 1.5h.2c.4-.1 1.3-.3 1.7 0 .3.3.6 2.3.7 2.7.3.1.6.4.7.7.2.4.4 1 .4 1.4v.7z"/><path d="M458.1 464.1c-.9-1.5-1.5-3.3-1.1-2.9s.7.5.7.4-.8-2.4-.6-2.3c.2.1.7.5.7.5s-.2-4 .2-3.9c.4.1.9 1.3 1.2.6.3-.7.6-2.4.9-1.9.4.5.8 1.3.9.9s.9-2 1.2-1.5c.3.5.8 1.3 1 1 .1-.3.9-1.4 1.3-1.1.3.3.3 1.2.8 1.2s1.2-1.7 1.5-1c.4.7.9 2.6 1 2.4.2-.2.7-2.1 1.2-1.1.4 1 .9 2.9 1.2 2.7.2-.2.8-.9 1.1.4.3 1.3.2 1.1 1.2.9.9-.2 1-.5 1.5 1.9s.4.3.8 1 .5 2.3.8 2.5.3-.9.6.3.2 2.1.5 2.3c.3.2.6-.5.7.3s.1 3.1.1 3.1l.9.5-1.5 2.4c0 .2-8.4-11.2-18.8-9.6z" fill="#f19200"/><path class="st8" d="M458.4 456.3c.2.2.3.4.5.5.2.3.5.6.7.1.2-.6.5-1.9.8-2 .2.4.5.8.6.7.2.3.4.5.4.2.1-.4.6-1.5 1-1.6.2.4.5.8.7.8.2.3.4.5.5.3.1-.3.7-1.1 1.1-1.1.1.4.2.9.6.9.1.2.2.3.4.3.4 0 .9-1.1 1.3-1.2.4.8.8 2.4.9 2.2 0 0 0-.1.1-.1.1.3.2.5.3.5.1-.1.5-1.2.8-1.3.4 1.1.9 2.9 1.2 2.7h.1c.1.3.2.4.3.4.1-.1.4-.4.6-.4 0 .1.1.3.1.4.2.9.2 1.1.5 1 .2.5.3.3 1 .2.3-.1.5-.1.7-.1.1.3.2.8.4 1.7.3 1.4.4 1.2.5 1 .2.8.3.4.4.3.3.8.4 2.1.7 2.3.1.1.1 0 .2 0 .1.2.1.3.2.4s.2 0 .2-.1v.1c.3 1.2.2 2.1.5 2.3h.2c.1-.1.3-.3.4-.2 0 0 .1.1.1.2.1.2.1.5.1.6.1 1 .1 2.7.1 2.7.1.1.9.4.9.5l-.1.1-1.4 2.3c-.5-.6-1.5-1.9-3-3.2-3.3-3.2-9.1-7.4-15.6-6.5-.8-1.4-1.2-2.9-.9-2.5.4.4.7.5.7.4s-.8-2.4-.6-2.3c.2.1.7.5.7.5s-.4-4.1.1-4z"/><path class="st6" d="M457.8 462.9v-.7c.3-5 4.9-6.3 10.4-2.9 4.8 2.9 8.6 8.3 9.2 13.1.7.5 1.3 1.2 1.7 2 .4.7.5 1.4.4 1.9-.2 1.3-1.5 1.6-3 .7-1.7 2.6-5.4 2.9-9.5.4-3.2-2-6.1-5.3-7.8-8.8-.2-.1-.3-.2-.5-.3-1.5-.9-2.7-2.7-2.6-4.1.1-.9.7-1.4 1.7-1.3z"/><path class="st9" d="M468.1 459.5c-5.1-3.1-9.4-1.7-9.7 3.1v1.1c-.9-.3-1.6 0-1.7.9-.1 1 .8 2.5 2 3.2.3.2.5.3.8.3 1.5 3.4 4.2 6.8 7.5 8.7 4 2.5 7.6 2 9.1-.7.1.1.2.2.3.2 1.2.7 2.2.5 2.4-.5.2-1-.7-2.4-1.8-3.1-.1-.1-.2-.1-.2-.1-.3-4.5-4-10.2-8.7-13.1z"/><path class="st6" d="M468.1 467.1c-2.9-1.7-5.9-2.4-7.1-1.5-.3.3-.1 1-.2 1.4-.3 2.2 2.4 5.8 6.1 8s6.9 2.2 7.3 0c.1-.8.6-1.4 0-2.5-1.1-1.7-3.8-4-6.1-5.4z"/><path class="st10" d="M463.2 466.1c.9-.2 2.8.3 5.2 1.7 2.4 1.4 2.6 1.8 2.3 1.8-.3.2-5-1.6-7.5-3.5z"/><path class="st11" d="M467.9 474.6c-5.8-2.8-10.3-1-10 2.2.5 6.5 21.6 16.5 21.1 10.1-.3-3.2-5.3-9.5-11.1-12.3z"/><path class="st12" d="M458.1 475.4c.9 1.6 2.2 3.7 3.1 5.1 1.3 2.1.7 1.5 2.6 1.8 1.4.2 2.8.6 5.6 1.2 3 .6 7 2.4 9 3.4 2.5 1.2 2.8 1.6 1.2-.6l-3.4-4.4c.1 0-11-6.8-18.1-6.5z"/><path d="M468.4 477.4c6.3 3 11.4 5.5 11.6 7.5s-4.8 1.2-11.1-1.8-11.5-7.1-11.7-9.1c-.2-2 4.9.4 11.2 3.4z" fill="#951f23"/><path d="M457.5 469.6c-.5-.4-2-.8-2.2-.1-.1.7.4 1.5.9 1.9s.7.5.6 1.5c-.1.9.4 2.4 2 2.7 1.6.4 2 .8 3 2.3 1 1.6 2.3 2.1 3.6 1.9 1.2-.2 2.7 1.3 4.4 2.6 1.7 1.3 2.4.8 3.5.5s1.8.9 3.2 2c1.4 1.1 1.6.4 2.4-.7s.8-.8 1.7-.9c.9-.1 1.1-1.2-.3-2.6s-2.5-2-4.2-3c-1.8-.9-18.6-8.1-18.6-8.1z" fill="#c3bc4b"/><path class="st11" d="M467.5 469.2c-5.8-2.8-10.3-1.7-10.1 1 .2 2.7 5 5.9 10.8 8.7 5.8 2.8 10.5 4.1 10.3 1.4-.2-2.7-5.2-8.3-11-11.1z"/><path class="st6" d="M463.3 462.1c-.5-1.1-1.7-1.5-2.2-.8-.1.1-.3.1-.4-.1-.2-.2-.2-.4-.2-.5.8-1 2.6-.3 3.4 1.5.1.2 0 .3-.2.3-.1 0-.3-.2-.4-.4zm6.8 3.5c.7-.7 1.7.3 2.4 1.5.1.2.3.3.4.3s.2-.2.1-.4c-1.1-1.8-2.5-3-3.5-2.1-.1.1 0 .3.1.5s.4.3.5.2zm9.5 18.5c.2.4.3.7.3 1.1 0 .5-.1.8-.4 1 .2.3.5.6.7.9.3.4.5.3.4.6-.1.3-.6.2-1 0-.2-.1-.5-.2-.7-.4v.2c-1.5 4.6-13.2-.6-17.7-4.2-1.7-1.4-3.7-3.5-4.4-5.5-.2-.4-.2-.8-.3-1.2 0-.3 0-.7.1-1-.2-.2-.3-.5-.4-.7-.5-.8-.7-1.9-.7-2.5v-.4l-.2-.2c-.9-.8-1.4-2-1.2-2.8.1-.6.7-.7 1.3-.6.3 0 .6.1.9.2.5-1.2 2.1-1.7 3.4-1.8 2.1-.1 4.6.5 7.1 1.7 2.4 1.1 4.9 2.9 7.1 5 1.5 1.4 3.2 3.4 4 5.2.7.5 1.3 1 2 1.7.8.9 1.5 1.9 1.3 2.8-.1.5-.5.8-1 .9h-.6c.2 0 .1 0 0 0z"/><path class="st11" d="M456.7 474.6c.1.3.4.6.6 1-.1.3-.2.7-.1 1.1.5 6.4 21 16.3 21.1 10.3 2.1 1 2.2 1.2.7-.8l-.4-.5c.4-.2.7-.5.6-.9 0-.4-.2-.8-.6-1.2.4-.4.6-.2 1.2-.3.9-.1 1.1-1.2-.3-2.6-.7-.7-1.4-1.3-2.1-1.7-1.2-2.9-5.6-7.5-10.7-9.9-5.3-2.5-9.5-1.8-10.1.3-.6-.3-2-.7-2.1-.1-.1.7.4 1.5.9 1.9s.7.5.6 1.5c.1.6.3 1.3.7 1.9z"/><path class="st11" d="M467.3 474.5c-5.8-2.8-10.3-1-10 2.2.5 6.5 21.6 16.5 21.1 10.1-.3-3.2-5.3-9.5-11.1-12.3z"/><path class="st15" d="M458.6 474c-.7.5-1.2 1.1-1.3 1.9 1.3 1.6 3.2 4.2 4 5.3.7 1 .1.6 2.4 1.2 4.8 1.4 11.2 3.2 13.4 4.5 2.2 1.3.8.5 1.2.7.1-.2.1-.5.1-.8 0-.4-.1-.8-.3-1.3-3.8-2.7-9.7-6.7-12.9-8.6-2.8-1.6-5.1-2.7-6.6-2.9z"/><path class="st12" d="M457.5 475.3c.9 1.6 2.2 3.7 3.1 5.1 1.3 2.1.7 1.5 2.6 1.8 1.4.2 2.8.6 5.6 1.2 3 .6 7 2.4 9 3.4 2.5 1.2 2.8 1.6 1.2-.6l-3.4-4.4s-11-6.8-18.1-6.5z"/><path class="st6" d="M467.8 477.3c6.3 3 11.4 5.5 11.6 7.5s-4.8 1.2-11.1-1.8-11.5-7.1-11.7-9.1c-.2-2 4.9.4 11.2 3.4z"/><path d="M456.9 469.5c-.5-.4-2-.8-2.2-.1-.1.7.4 1.5.9 1.9s.7.5.6 1.5c-.1.9.4 2.4 2 2.7 1.6.4 2 .8 3 2.3 1 1.6 2.3 2.1 3.6 1.9 1.2-.2 2.7 1.3 4.4 2.6 1.7 1.3 2.4.8 3.5.5s1.8.9 3.2 2c1.4 1.1 1.6.4 2.4-.7s.8-.8 1.7-.9c.9-.1 1.1-1.2-.3-2.6s-2.5-2-4.2-3c-1.8-.8-18.6-8.1-18.6-8.1z" fill="#85a828"/><path d="M456.9 469.5c-.3-.2-.9-.4-1.4-.5.1 3.5 4.8 7.7 11.4 10.8 6.5 3.1 12.5 3.9 12.7.8-1.3-1.3-2.4-1.9-4.1-2.9-1.8-.9-18.6-8.2-18.6-8.2z" fill="#6f8931"/><path class="st6" d="M466.8 468.7c2.6 1.3 5.5 3.3 7.8 5.7 1.5 1.6 3.5 4.1 3.6 5.9 0 .3 0 .6-.1.8-1 2.7-10.9-1.8-14.4-3.7-1.1-.6-2.4-1.4-3.5-2.2-1.4-1-3.4-2.6-4-4.3-.1-.3-.2-.6-.2-.9-.1-1.9 1.8-2.7 3.2-2.9 2.3-.3 5 .4 7.6 1.6z"/><path class="st15" d="M466.9 469.1c-5.8-2.8-10.3-1.7-10.1 1 .2 2.7 5 5.9 10.8 8.7 5.8 2.8 10.5 4.1 10.3 1.4-.2-2.7-5.2-8.3-11-11.1z"/><path class="st11" d="M466.9 469.1c-5.6-2.7-10-1.8-10.1.7.4 2.8 5.3 5.6 11 7.9 5 2 9 2.9 9.8 1.3-1.2-2.9-5.7-7.4-10.7-9.9z"/><path class="st8" d="M475.1 476c-1.7-2.4-4.9-5.2-8.4-6.9-2.8-1.3-5.2-1.7-6.9-1.3-6 1.4 21.7 17.1 15.3 8.2zm-6.1 8.3c-3.8-1.1-5.8-.6-1.7 1.4 4 2 9.3 3.6 10 2.6.6-1.1-1.3-1.7-8.3-4z"/><path d="M459.7 478.6c1.4 2 1.2 2.6 2.3 2.7 1.1.2 3.8 1.2 2.4.2-1.4-1.1-3.3-2.1-4.4-3-1-.8-.3.1-.3.1z" fill="#fdda5b"/><path class="st8" d="M459.2 470.9c.1.1 0 .4-.1.5-.2.2-.6-.3-.4-.5.1-.1.4-.1.5 0z"/><path class="st11" d="M474.2 477.1c-.1 0-.1.3 0 .6s.6.4.4 0c-.1-.2-.3-.6-.4-.6zm-3.4-2c-.1 0 0 .4.1.6.2.4.6.4.4 0-.1-.2-.4-.6-.5-.6zm1.3-1c-.1 0 0 .4.1.6.2.4.6.4.4 0-.1-.2-.4-.6-.5-.6z"/><path class="st19" d="M471.8 486.8c2.7 1 5.3 1 4 .2-.7-.4-2.3-.8-4.2-1.4-5.5-2-7.7-1.8.2 1.2z"/><path class="st8" d="M461.5 472c.1.1 0 .4-.2.4-.2.1-.6-.3-.4-.5.2 0 .5 0 .6.1z"/><path class="st6" d="M456.5 473.1c.2.1.3.2.5.3.9.6 1.6 1.4 2.2 2.3.8 1.3 1.4 2.7 1.3 3.9 0 .9-.5 1.6-1.3 1.7-.4 0-.8 0-1.2-.2-1-.4-1.9-1.1-2.7-2.1-2.3-2.9-2.2-5-1.5-7 .1-.3 0-.8.1-1.1.2-.4.7-.5 1.4.1.6.5 1 1.4 1.2 2.1z"/><path class="st9" d="M454.4 472.4c-.1.4-.3.7-.4 1.1-.8 1.8 1.4 6.1 3.9 7 1.9.7 2.9-1.2.8-4.6-.2-.4-.5-.8-.8-1-1.2-1.3-2-1-3.1-1.1.3-.4.6-.6 1.1-.6-.1-.3-.2-.9-.4-1.2-.3-.5-.8-.6-.9-.4-.3.1-.1.7-.2.8z"/><path class="st6" d="M478.6 484.1v-.4c0-.5.2-.9.6-.9.5 0 1 .5 1.4 1l.1.2.1.2c.3.8.7 1.5 1.1 2.3 1.2 2.3 1 4.5-.2 5.4-.6.4-1.4.5-2.4 0-.4-.2-.9-.5-1.3-.8-1-.8-1.7-2-2-3.1-.4-1.3-.2-2.4.3-3.2.4-.5.9-.8 1.7-.7.3-.1.5-.1.6 0z"/><path class="st9" d="M480.6 484.8c.8 1.8 1.7 2.5 1.5 4.5-.3 2.3-1.6 2.4-2.8 1.9-1.9-.8-3.6-3.9-2.3-5.9.4-.6 1.1-.7 1.6-.6 1.6.9 2.1 1.6 2.6 2.4-.2-.9-.5-1.6-2-2.6 0-.3 0-.8.2-1 .1-.1.3-.1.5.1.4.3.6.9.7 1.2z"/><path class="st6" d="M458.4 462.3c0 1.2.1 2.3.1 3.6-.6-1.6-.6-2.7-.6-4.1 0-.2.2-.2.3-.1.2.1.2.4.2.6z"/><path class="st20" d="M471.5 462.9c2.7 2.9 4.7 7.9 5 11.4 0-.4.2-1.8 0-2.9-.8-4.3-4.2-9.3-8.4-11.9-1.4-.8-2.7-1.3-3.9-1.5 2.4.8 4.6 2 7.3 4.9zm5.5 10.4v.4c0 .3-.1.6-.2.9s-.2.5-.4.8v-.2l-.1.3s1.8.8 2 0c.1-.5-.2-1-.6-1.5l-.7-.7c.1.1.1.1 0 0zm-18.5-7.6c-.1-.3-.2-.6-.2-.8-.1-.3-.1-.5-.2-.8h-.5c-.3.1-.5.4-.4 1 .2.9.7 1.5 1.1 1.7.1.1.2.1.2.2h.2l-.2-1.3zm7.1-1.3c.2.4.3.9 1.4 1.3 1.2.4.9-.5 0-1.1-.8-.6-1.3-.9-1.4-.2z"/><path class="st6" d="M465.7 464.6c-1-1 1.4-.7 1.8.4.1.2 0 .5-.2.5-.1-.4.2-.4-.4-.7-.7-.5-1.2-.8-1.2-.2z"/><path class="st10" d="M458.9 465.2c-1-5.3 1.6-8.3 6.6-6.5-1.7-.3-3-.4-4.3.3-2.2 1.1-2.3 3.3-2.3 6.2zm7.2-2.1c.1.1 0 .3 0 .5 0 .3-.4.1-.4-.2 0-.2.2-.4.4-.3z"/><path class="st6" d="M477.2 471.9c.2 1.6-.1 2.4-.8 3.5.3-1.5.3-2.6.2-4.1 0-.2.1.1.3.2.1 0 .3.2.3.4z"/><path class="st20" d="M457.6 479.1c-1.7-.9-3.1-3.1-3.8-4.6.1 2 2 5.2 4 6 .4.1.7.2 1 .1.2 0 .3-.1.5-.2l.1-.1c.1-.1.1-.1.1-.2.1-.2.2-.4.2-.7-.2.1-.5.1-.8.1h-.3c-.1 0-.2 0-.3-.1-.2-.1-.5-.2-.7-.3zm21 10.4l-.4-.4s0-.1-.1-.1c-.1-.1-.1-.2-.2-.3-.1-.1-.1-.2-.2-.4-.2-.4-.2-.7-.3-1.1v-.8c0-.1 0-.3.1-.4v-.1c0-.1.1-.3.1-.4s.1-.1.1-.2.1-.1.1-.2.1-.1.2-.2l.2-.2.1-.1h-.6c-.2 0-.3.1-.4.2l-.3.3v.1s0 .1-.1.1c-.1.1-.1.3-.2.4v.3c0 .2-.1.3-.1.5v.4c0 .5.1 1 .3 1.4 0 .1.1.2.1.3 0 .1.1.1.1.2.1.1.1.2.2.3 0 .1.1.1.1.2.5.8 1.2 1.4 2 1.8.6.3 1.3.4 1.8 0-.7-.1-1.6-.6-2.6-1.6z"/><path class="st10" d="M455.4 473.8c1.3 0 2.4.6 3.3 2.4.4.8.4 1 .7 1.9-1-2.2-1.7-3.9-3.7-3.8-.1 0-.2-.1-.3-.2-.1-.1 0-.2 0-.3zm25.2 12.9c-1.3-1.2-2-2-3-1.4 0-.1 0-.1.1-.2.7-.8 2 .4 3.1 1.4.1.1.2.3.1.3s-.2 0-.3-.1zm-21.5-29.2c0-1.3.3-2 .9-2.9-.2 1-.5 1.8-.5 3 0 .1 0 .2-.2.2-.1 0-.2-.2-.2-.3zm1.7-1.5c.4-1.1.4-1.4 1.2-2.1-.4.9-.5 1.4-.8 2.4 0 .1-.1.1-.3 0 0 0-.1-.2-.1-.3zm2.2-.7c.2-.6.7-1.4 1.4-1.4 0 0-.8 1.2-.9 1.7 0 .1-.1.1-.2.1-.3-.1-.3-.3-.3-.4z"/><path class="st6" d="M470.3 484.1c-.6-.3-.9-.1-1.6-.3-1.8-.5-4.1-1.2-5.5-1.5 1.5-.1 5.4.6 7.1 1.3.1.1.2.2.2.3 0 .2-.1.2-.2.2zm-10.1-4.6c.7 1.3.4.7 1 1.9-.9-1.2-.5-.6-1.3-1.8-.1-.1-.1-.3 0-.3s.2 0 .3.2z"/><path class="st8" d="M457.3 471.8c-2.1-3.9 2.1-4.5 4.4-4.2 1.3.2 2.5.6 3.9 1.2-1.2-.2-2.5-.5-3.7-.6-1.6-.1-5.6.5-3.9 3.4.2.3.1.6 0 .6-.2 0-.5-.1-.7-.4z"/><path class="st19" d="M462.3 468.2c-1.2-.3-4.4-.2-2.2 1.3 1.2.8 1.6.3 3.3.3 1.5.1 4.2.8 5.1 1.1 1.7.9-1.5-1.8-6.2-2.7z"/><path class="st10" d="M456.7 469.9c.4-1.3.7-1.8 1.8-2.2 1.1-.4 2.3-.5 3.7 0-1.3 0-2.3 0-3.4.5-1 .5-1.3.9-1.5 2.1 0 .2-.2.2-.3.1-.2-.2-.4-.4-.3-.5z"/><path d="M469.4 484.3c1.1.9 2.3 1.8 4.1 2.5 2.4 1 2.7-1 2-1.6s-1.6-1.6-2.7-1.7c-1-.1-1.7.1-2.5.1-1.2-.1-2.1-.3-.9.7z" fill="#e10414"/><path class="st6" d="M468.4 482.9c1 1.5 3.8 3.2 5.1 4-1.7-.8-4.2-2-5.6-3.9-.1-.2-.1-.3.1-.4.1 0 .3.1.4.3zm7.6 2.6c.1 1.2 0 1.6-1 1.7.6-.6.7-.6.5-1.9 0-.1.1-.2.2-.2.2.1.3.2.3.4z"/><path class="st6" d="M469.8 483.4c1.5 1.5 3.6 3.1 5 2.9-1 .9-3.9-1.3-5.3-2.6-.1-.1-.2-.3-.1-.4.1-.1.3-.1.4.1zm5.3 1c.7.8.3 1.7-.1 1.7.2-.3.5-.9 0-1.5-.1-.1-.1-.2-.1-.2.1-.1.2-.1.2 0z"/><path d="M473.3 485c.2.1.5.8 0 .6-.4-.3-.1-.7 0-.6zm-1.1-.9c.1.2-.1.6-.4.2-.3-.5.3-.4.4-.2zm2 .5c0-.1.7.3.6.4-.2.2-.6-.3-.6-.4z" fill="#f9ce30"/><ellipse transform="rotate(-39.473 493.008 488.592)" class="st6" cx="493" cy="488.6" rx="1" ry="1.8"/><path class="st6" d="M442.9 462.4c.8.4 1.4.2 1.4-.6 0-.7-.6-1.7-1.4-2.1s-1.4-.2-1.4.6c0 .7.6 1.6 1.4 2.1z"/><path class="st5" d="M452.4 473.4c-1.1-2.9-1.7-5.6-1.7-8.1 0-4.6 2.1-7.9 5.6-9l.3.5c-3.4 1.1-5.4 4.3-5.4 8.8 0 2.4.5 5.1 1.6 7.9l-.4-.1zm31.5 16.3l-.4-.4c.8-1.4 1.2-3.2 1.2-5.3 0-4.7-2.1-10.4-5.9-15.6l.3-.2c3.9 5.3 6.1 11.1 6.1 16-.1 2.2-.5 4-1.3 5.5zm-23.4-4l.8.8-.1.2-1.1-1.1.8-1.2.3.3-.7 1zm2.5 1.8c-.1.2-.2.2-.4.2s-.4-.1-.6-.3c-.2-.2-.4-.4-.5-.6s-.1-.4 0-.6l.1-.2c.1-.2.2-.2.4-.2s.4.1.6.3c.2.2.4.4.5.6s.1.4 0 .6l-.1.2zm-.3-.5c0-.1.1-.2 0-.4 0-.1-.1-.3-.2-.4s-.2-.2-.3-.1c-.1 0-.2.1-.2.2l-.1.2c-.1.1-.1.2 0 .4 0 .1.1.2.2.4.1.1.2.2.3.2.1 0 .2-.1.2-.2l.1-.3zm1.8 2.2h-.3c-.1 0-.3-.1-.5-.3-.2-.2-.4-.4-.5-.6s-.1-.4-.1-.6l.1-.3c.1-.2.2-.3.3-.3.2 0 .4.1.6.2l.5.5c.1.2.1.4.1.5l-.3-.3v-.3c0-.1-.1-.2-.2-.3-.1-.1-.2-.1-.3-.1-.1 0-.2.1-.2.2l-.1.3v.4c.1.1.1.2.3.3.1.1.2.1.2.1h.1l.1-.3-.3-.3.1-.2.7.5-.3.9zm1.8.8c0 .2-.1.3-.3.4-.2 0-.4 0-.6-.2s-.4-.4-.5-.6-.2-.5-.1-.7v-.3c0-.2.1-.3.3-.4.2 0 .4 0 .6.2s.4.4.5.6.2.5.1.7v.3zm-.3-.6c0-.1 0-.3-.1-.4l-.3-.3c-.1-.1-.2-.1-.3-.1-.1 0-.1.1-.2.2v.3c0 .1 0 .3.1.4l.3.3c.1.1.2.1.3.1.1 0 .1-.1.2-.2v-.3zm1.1 1.8v-1.8l.7.4c.2.1.4.3.6.5s.2.4.2.7v.3c0 .2-.1.4-.2.4-.1.1-.3 0-.6-.1l-.7-.4zm.4-1.3v1.3l.3.1c.1.1.2.1.3 0 .1 0 .1-.1.1-.3v-.3c0-.1 0-.3-.1-.4l-.3-.3-.3-.1zm2.5 2l-.8-.4v.5l.9.4v.3l-1.3-.6-.2-1.9 1.3.6v.3l-.9-.4v.5l.8.4.2.3zm1.3.8c0-.1 0-.1-.1-.2s-.2-.1-.3-.2c-.2-.2-.4-.3-.5-.4s-.2-.3-.2-.4c0-.2 0-.3.1-.3.1-.1.3 0 .5 0 .2.1.4.2.5.4.1.2.2.3.3.5l-.4-.1c0-.1-.1-.2-.1-.3-.1-.1-.2-.1-.3-.2h-.2l-.1.1c0 .1.1.1.1.2.1.1.2.1.3.3.2.1.4.3.5.4s.2.3.2.5 0 .3-.1.3c-.1.1-.3 0-.5 0-.2-.1-.4-.2-.6-.4-.2-.2-.3-.4-.3-.6l.4.1c0 .1.1.2.1.3.1.1.2.1.3.2h.2s.2-.1.2-.2zm1.1.8l-.4-.1-.5-2 .4.1.5 2zm1.6.2c0 .1-.1.1-.2.2h-.4c-.2-.1-.4-.2-.6-.4-.2-.2-.3-.4-.4-.7l-.1-.4c-.1-.2-.1-.4 0-.6.1-.1.2-.2.5-.1l.6.3c.2.1.3.3.3.5l-.3-.1c0-.1-.1-.2-.2-.3-.1-.1-.2-.1-.3-.2-.1 0-.2 0-.2.1v.4l.1.4c0 .2.1.3.2.4s.2.2.3.2h.3l-.1-.4-.3-.1-.1-.3.7.2.2.9zm1.8.5h-.3l-1.2-1.5.5 1.4h-.3l-.8-2.1h.3l1.2 1.5-.5-1.4h.3l.8 2.1z"/><linearGradient id="SVGID_1_" gradientUnits="userSpaceOnUse" x1="-70.904" y1="2520.508" x2="30.356" y2="2520.508" gradientTransform="matrix(1.1501 .5853 .01088 -.864 470.305 2548.436)"><stop offset="0" stop-color="#8a8a8a"/><stop offset=".402" stop-color="#868686"/><stop offset=".779" stop-color="#7b7b7b"/><stop offset="1" stop-color="#707070"/></linearGradient><path d="M519.6 338.4l-89.3-50.1c-7.1-4-13-1.7-13.1 5.1l-.8 66.3c-.1 6.8 5.6 15.6 12.8 19.6l89.3 50.1c7.1 4 13 1.7 13.1-5.1l.8-66.3c.1-6.8-5.7-15.6-12.8-19.6z" opacity=".48" fill="none" stroke="url(#SVGID_1_)" stroke-miterlimit="10"/><linearGradient id="SVGID_2_" gradientUnits="userSpaceOnUse" x1="571.199" y1="475.65" x2="688.046" y2="475.65" gradientTransform="matrix(1 0 0 -1 0 920)"><stop offset="0" stop-color="#8a8a8a"/><stop offset=".402" stop-color="#868686"/><stop offset=".779" stop-color="#7b7b7b"/><stop offset="1" stop-color="#707070"/></linearGradient><path d="M674.9 423.9l-89.3-50.1c-7.1-4-13-1.7-13.1 5.1l-.8 66.3c-.1 6.8 5.6 15.6 12.8 19.6l89.3 50.1c7.1 4 13 1.7 13.1-5.1l.8-66.3c0-6.8-5.7-15.6-12.8-19.6z" opacity=".48" fill="none" stroke="url(#SVGID_2_)" stroke-miterlimit="10"/><linearGradient id="SVGID_3_" gradientUnits="userSpaceOnUse" x1="-70.463" y1="2381.919" x2="30.797" y2="2381.919" gradientTransform="matrix(1.1501 .5853 .01088 -.864 470.305 2548.436)"><stop offset="0" stop-color="#8a8a8a"/><stop offset=".402" stop-color="#868686"/><stop offset=".779" stop-color="#7b7b7b"/><stop offset="1" stop-color="#707070"/></linearGradient><path d="M518.6 458.4l-89.3-50.1c-7.1-4-13-1.7-13.1 5.1l-.8 66.3c-.1 6.8 5.6 15.6 12.8 19.6l89.3 50.1c7.1 4 13 1.7 13.1-5.1l.8-66.3c.1-6.8-5.7-15.6-12.8-19.6z" opacity=".48" fill="none" stroke="url(#SVGID_3_)" stroke-miterlimit="10"/><linearGradient id="SVGID_4_" gradientUnits="userSpaceOnUse" x1="64.639" y1="2374.482" x2="165.899" y2="2374.482" gradientTransform="matrix(1.1501 .5853 .01088 -.864 470.305 2548.436)"><stop offset="0" stop-color="#8a8a8a"/><stop offset=".402" stop-color="#868686"/><stop offset=".779" stop-color="#7b7b7b"/><stop offset="1" stop-color="#707070"/></linearGradient><path d="M673.9 543.9l-89.3-50.1c-7.1-4-13-1.7-13.1 5.1l-.8 66.3c-.1 6.8 5.6 15.6 12.8 19.6l89.3 50.1c7.1 4 13 1.7 13.1-5.1l.8-66.3c0-6.8-5.7-15.6-12.8-19.6z" opacity=".48" fill="none" stroke="url(#SVGID_4_)" stroke-miterlimit="10"/><path class="st27" d="M616.1 430.5l-2.2 3c-.1.1-.3.2-.4.3l-.3.1c-.2 0-.5.1-.8 0-.2-.1-.8-.3-1.8-1.4-.1 0-.1.1-.1.1-.1 0-.1.1-.2.1-.1.1-.3.1-.4.1h-.3c-.2 0-.4 0-.7-.1-1-.3-2-1-2.2-2.3.1-1.5 1.9-1.8 3.2.4v.1c.7-.8 1.8-2.2 1.8-3.2 0-.2-.1-.5-.4-.8-.7-.8-1.9-.6-2.7-.4 0 0-.3.1-.7.4-.3.2-.6.5-.9.8l-.8 1.7-1.9 3.7c-.1.2-.2.4-.4.6-1.4 2.6-2.8 1.2-2.8 1.2-.2-.2-.3-.4-.4-.6-.5-1.1.1-2.2.1-2.2.4-.7 1-1.3 1.5-1.7.2-.1 1-.8 1.9-.9l.1-.2 1.2-2.3 1.5-3c-1.4.4-3.6-.6-4.8-2.8-1.8-.7-3.5-1.7-5.4-2.5-1.8-.8-4.3-1-3.9 1.5.2.8.9 2.2 1.8 2.4.4.1.9-.1.6-.7-.1-.3-.4-.5-.6-.5-.3 0-.6-.2-.7-.5-.2-.3-.1-.6.1-.6.3-.1.8.5 1.1.8.2.2.4.5.5.8.5 1 0 1.4-.8 1.3-1.1-.1-2.3-1.8-2.4-3-.4-3 2.3-2.6 4.3-1.8 1.7.7 3.5 1.6 5.3 2.4-.2-.6-.1-1.3.4-1.4s1.2.4 1.4 1.1c.1.4-.1.7-.4.8-.2.1-.5 0-.8 0 .8 1.3 2.1 2.2 3.2 2.3h.7s.1 0 .3-.1c.1 0 .3-.1.5-.1h.1s.4-.1.7.1c.6.2.5.9.5 1.1l-.8 1.6.6-.1c.2 0 .5 0 .8-.1.5 0 1 .1 1.8.3 2.3 1 2.1 3.1 1.2 4.6 0 0-.4.7-1 1.2-.1 0-.1.1-.2.1 0 0-.1 0-.1.1.4.4.8.8 1.2 1 .3.1.5.1.8 0 .3-.2.7-.5 1-.9l1.6-2.3.5.4zm-12-.2c-1.4.8-2.9 2.3-2.6 3.6.1.1.2.2.3.2.4-.1.9-1 .9-1l1.3-2.6.1-.2zm-1.5-9.5c.4.2.9.2 1-.2.1-.4-.4-.9-.8-.8-.3 0-.4.5-.2 1zm6.9 10.5l-.2-.3c-.2-.4-.5-.7-.9-.9-.6-.2-1 0-1.1.5 0 .4.3 1.1 1.1 1.1.5-.1.9-.2 1.1-.4z"/><path class="st27" d="M626.6 436.7c-1.4 1.9-3.8 4.9-6.1 3.1-.5-.4-.9-.9-1.2-1.3-.2-.4-.3-.8-.4-1.1-.1-.8.1-1.6.3-2.3-1.1 1.1-2.4 1.9-3.7.9-.4-.3-.8-.7-1-1.1l-.3-.9c-.1-1 .3-2 .6-2.6l1.2-2.4s.3-.3.9.2c.6.5.4 1 .4 1-.9 1.8-1.1 2.4-1.3 3-.1.2-.5 1.2 0 2 0 0 .4.6 1 .7.7 0 1.5-.7 2.1-1.4.4-.4.7-.8 1-1.3l1.3-2.4s.4-.4 1.1.2c.7.6.5 1.2.5 1.2l-2.1 4.2c-.1.3-.6 1.4 0 2.5 0 0 .6.8 1.3.8.9 0 1.8-.8 2.5-1.6.5-.5.8-1 1.3-1.6l.6.2z"/><path class="st27" d="M635.4 442c-2.2 3.1-3.7 3.4-4.7 2.8-2.8-1.6-1.9-5.6-1.9-5.6.2-1 .6-2.1 1.3-3.1 0 0 .7-1-.3-1.5-.5-.2-.9-.4-1.4-.7-.5.9-1.2 2-2.2 3.3l-.4-.4s1.1-1.6 2.1-3.3c-1.4-1-2.5-2.5-2-4 .3-1 1.3-1.7 2.9-.5.8.7.8 1.7.6 2.4-.1.5-.3 1.1-.7 1.8.4.3.8.5 1.2.6.7.2 1.5.4 2.1.9 1 .9.1 2.1-.6 3.7-.1.3-1.1 2.4-.7 4.4.1.5.3.9.7 1.2.8.6 2-.5 2.8-1.4.5-.6.8-1.1.8-1.1l.4.5zm-6.5-10.8c.1-.2.3-1.3-.5-1.8-1.5-.5-1.4 2.2-.1 3.5.2-.6.4-1.2.6-1.7z"/><path class="st27" d="M658.4 451.6c-.6 1.4-2.6 1-4.4.2-1.8-.8-3.5-2-5.3-2.7.2.8-.2 1.8-1.3 1-.3-.2-.5-.6-.6-.9-.1-.7.6-.9 1.3-.7-1.3-2.3-4.1-3.2-5.1-1.9 0 0-1.4 2.2-3.3 3-1 .4-2.1.5-3.2-.2-1.5-1-2.7-2.9-2.8-4.5-.1-2.3 1.3-4.8 3.7-4.3 1.5.3 2.9 1.8 2.4 3.3-.6 1.8-2.9 1-3.8.1-.1-.2 0-.2.1-.2.1.1.5.3.9.4 1.2.4 2.6-1 1.3-2-2.3-.9-4.3 3.4-2 6 .4.5 2.9 2.7 6.1-1.9l.1-.1c1.1-1.5 4.4-.8 6 2.3 1.8.8 3.6 1.9 5.4 2.8 1.6.8 3.4 1.2 4.1-.1.3-.7-.3-3-1.7-3.4-.4-.1-1 0-.7.7.1.2.3.5.6.5.2 0 .6.2.7.6.1.3.1.6-.2.6-.4 0-.8-.5-1.1-.9-.2-.2-.4-.5-.5-.8-.5-1 .1-1.4.9-1.2 1.8.3 2.9 3.1 2.4 4.3zm-10.1-2.8c-.4-.1-.9-.2-1 .2-.2.4.3.8.7.8.2 0 .4 0 .3-1z"/><path d="M643.8 455.2c.1 0 .1 0 0 0 .1 0 .1.1.1.1h.2l-.1 1 1.2.7.1-1h.4l-.1 2.3h-.4l.1-1.1-1.2-.7-.1 1.1h-.4l.2-2.4zm3.8 2.2s0 .1 0 0c.1 0 .1.1.1.1h.2l.7 2.8h-.4l-.2-.7-1-.6-.2.5h-.4l1.2-2.1zm.5 1.9l-.4-1.5-.5 1 .9.5zm1.8-.5s.1.1 0 0c.1 0 .1.1.1.1h.2l1 2.6.1-1.9h.4l-.1 2.3h-.4l-1.1-2.6-.1 1.9h-.4l.3-2.4zm3.2 1.9s.1 0 .1.1c0 0 .1 0 .1.1.1 0 .1.1.2.1s.1.1.1.1c.2.1.4.3.5.4.2.1.3.3.4.5.1.2.2.3.2.5s.1.4 0 .5c0 .8-.5.9-1.3.5 0 0-.1-.1-.2-.1s-.1-.1-.2-.1-.1-.1-.1-.1l-.1-.1.3-2.4zm.1 2.3l.1.1c.1 0 .1.1.2.1.2.1.3.2.4.2.1 0 .2.1.3 0 .1 0 .2-.1.2-.2.1-.1.1-.2.1-.4 0-.3-.1-.6-.2-.9-.2-.3-.4-.5-.7-.7-.1 0-.1-.1-.2-.1s-.1-.1-.1-.1l-.1 2zm3.2-.3c.1 0 .1.1.1.1s.1 0 .1.1h.1l.6 1.9.8-1.1h.4v2.4h-.4v-2l-.8 1.1-.6-1.9-.2 1.9h-.4l.3-2.5zm4 2.4s.1 0 0 0c.1 0 .1.1.1.1h.2l.7 2.8h-.4l-.2-.7-1-.6-.2.5h-.4l1.2-2.1zm.5 1.9l-.4-1.5-.5 1 .9.5zm1.9-.5s.1 0 .1.1c0 0 .1 0 .1.1.1 0 .1.1.2.1s.1.1.1.1c.2.1.4.3.5.4.2.1.3.3.4.5.1.2.2.3.2.5s.1.4 0 .5c0 .8-.5.9-1.3.5 0 0-.1-.1-.2-.1s-.1-.1-.2-.1-.1-.1-.1-.1l-.1-.1.3-2.4zm.1 2.3l.1.1c.1 0 .1.1.2.1.2.1.3.2.4.2.1 0 .2.1.3 0 .1 0 .2-.1.2-.2.1-.1.1-.2.1-.4 0-.3-.1-.6-.2-.9-.2-.3-.4-.5-.7-.7-.1 0-.1-.1-.2-.1s-.1-.1-.1-.1l-.1 2zm3.1-.4l1.3.8v.2l-1.1-.6v.8l.9.5v.2l-.9-.5-.1.9 1.1.7v.2l-1.3-.8.1-2.4zm-42-23.5c-.1-.7-1-1.3-1.2-.8v.1c-.1.3.1.9.6 1.1.4.3.7.1.6-.4zm-3.4-2.4c-.7-.4-.8.6-.1 1.1.7.4.8-.7.1-1.1zm-2.9-1.6c-.4-.2-.5.1-.3.4 0 .1.1.2.2.3.1.1.2.1.3 0 .2 0 .2-.5-.2-.7zm8.6 5c.7.4.7 1.5 0 1.1-.8-.5-.8-1.6 0-1.1zm2.8 1.9c.4.2.4.7.2.7-.1 0-.1.1-.3 0l-.3-.3c0-.3.1-.7.4-.4zm14.8 4.9s.1 0 0 0l.2.2.1.1s.1.1.2.1c.1.1.2.1.3.1h.2c.1 0 .1 0 .1-.1v-.4c0-.1 0-.1-.1-.2 0-.1-.1-.1-.2-.2l-.3-.3-.2-.2c-.1-.1-.1-.2-.2-.2-.1-.1-.1-.2-.1-.2v-.3c0-.2.1-.3.2-.3s.3 0 .6.2c0 0 .1.1.2.1s.1.1.1.1l.1.1.1.1v.2c-.1 0-.1-.1-.2-.2s-.2-.1-.3-.2c-.2-.1-.3-.2-.4-.1-.1 0-.1.1-.1.2v.2c0 .1.1.1.1.2s.1.1.2.2l.2.2.3.3c.1.1.1.2.2.3.1.1.1.2.1.3v.3c0 .1 0 .2-.1.3 0 .1-.1.1-.2.1h-.3c-.1 0-.2-.1-.4-.2-.1-.1-.2-.2-.3-.2-.1-.1-.2-.1-.2-.2 0-.3 0-.3.1-.4zm2.6 1.8v-.2s.1 0 .1.1l.1.1v.2s-.1 0-.1-.1c0 0 0-.1-.1-.1zm3.9.2l-.4-.3v-.2l.7.4-.1 1.9c0 .1 0 .2-.1.2l-.1.1h-.2c-.1 0-.1-.1-.2-.1s-.1-.1-.2-.1-.1-.1-.1-.1c0-.1 0-.1.1-.2l.1.1.1.1s.1 0 .1.1h.2v-.2l.1-1.7zm2.3 1.1c.1 0 .1.1.1.1h.2l.7 2.8h-.4l-.2-.7-1-.6-.2.5h-.4l1.2-2.1zm.5 1.9l-.4-1.5-.5 1 .9.5zm1.9-.4c.1 0 .1.1.1.1s.1 0 .1.1h.1l.6 1.9.8-1.1h.4v2.4h-.4v-2l-.8 1.1-.6-1.9-.2 1.9h-.4l.3-2.5zm3.5 2.1l1.3.8v.2l-1.1-.6v.8l.9.5v.2l-.9-.5-.1.9 1.1.7v.2l-1.3-.8.1-2.4zm2.5 3.6l.2.2.1.1c.1 0 .1.1.2.1.1.1.2.1.3.1h.2c.1 0 .1 0 .1-.1v-.4c0-.1 0-.1-.1-.2 0-.1-.1-.1-.2-.2l-.3-.3-.2-.2c-.1-.1-.1-.2-.2-.2-.1-.1-.1-.2-.1-.2v-.3c0-.2.1-.3.2-.3s.3 0 .6.2c0 0 .1.1.2.1s.1.1.1.1l.1.1.1.1v.2c-.1 0-.1-.1-.2-.2s-.2-.1-.3-.2c-.2-.1-.3-.2-.4-.1-.1 0-.1.1-.1.2v.2c0 .1.1.1.1.2s.1.1.2.2l.2.2.3.3c.1.1.1.2.2.3.1.1.1.2.1.3v.3c0 .1 0 .2-.1.3 0 .1-.1.1-.2.1h-.3c-.1 0-.2-.1-.4-.2-.1-.1-.2-.2-.3-.2-.1-.1-.2-.1-.2-.2 0-.3 0-.3.1-.4z"/><path d="M585.4 348.2l2.5 1.4 3.1 10.7 3.2-7.2 1.9 1.1 3.2 10.8 3.1-7.2 2.4 1.4-4.5 9.6-2-1.1-3.2-10.5-3.2 6.9-2-1.1-4.5-14.8zm25.4 14.6l2.3 1.3v12.1l-2.3-1.3v-12.1zm9.4 5.4l2.1 1.2 6.9 12.3v-8.3l2.2 1.3v12.1l-1.9-1.1-7.1-12.7v8.6l-2.2-1.3v-12.1zm18.3 10.5l2.1 1.2 6.9 12.3v-8.3l2.2 1.3v12.1l-1.9-1.1-7.1-12.7v8.6l-2.2-1.3v-12.1zm18.2 10.4l9.6 5.5v1.9l-7.3-4.2v3.1l6.5 3.7v1.9l-6.5-3.7v3.2l7.4 4.2v1.9l-9.7-5.5v-12zm16.1 9.2l5.8 3.3c3 1.7 4.8 4.3 4.8 6.6 0 2-1.3 2.4-3.1 1.9l3.5 6.6-2.7-1.5-3.2-6-2.8-1.6v4.2l-2.3-1.3v-12.2zm5.6 9.2c1.6.9 2.7.7 2.7-.5 0-1.3-1-2.6-2.7-3.5l-3.3-1.9v4.1l3.3 1.8z" fill="gray" opacity=".6"/><path class="st10" d="M591.6 480.9c-5.3 0-10.7-6.1-13.2-14.8-3-10.4-.9-20.6 4.7-23.2.9-.4 1.8-.6 2.8-.6 5.3 0 10.7 6.1 13.2 14.8 3 10.4.9 20.6-4.7 23.2-.9.4-1.8.6-2.8.6z"/><path class="st30" d="M586 443.2c4.7 0 9.8 5.7 12.2 14.1 2.9 9.8.9 19.7-4.3 22.1-.8.3-1.6.5-2.4.5-4.7 0-9.8-5.7-12.2-14.1-2.9-9.8-.9-19.7 4.3-22.1.8-.3 1.6-.5 2.4-.5m-.2-2c-1.1 0-2.2.2-3.2.7-6.1 2.8-8.4 13.5-5.3 24.3 2.6 9.2 8.5 15.6 14.2 15.6 1.1 0 2.2-.2 3.2-.7 6.1-2.8 8.4-13.5 5.3-24.3-2.5-9.1-8.4-15.6-14.2-15.6z"/><ellipse transform="rotate(-12.321 588.698 461.4)" cx="588.7" cy="461.4" rx="8.8" ry="16.9" fill="#fff" stroke="#f4cc6a" stroke-width=".5" stroke-miterlimit="10"/><path class="st30" d="M588.1 450.9l1.7 8.2 5.7 2.7-4.5 2.5 1.7 8.2-4.5-6.7-4.6 2.4 1.7-6.6-4.7-6.8 5.7 2.7z"/><path d="M394.6 452.4s-7.6-6.8-22.9 10.7-20.2 56.8-20.2 56.8-4 23.4-2.7 29 15.6 42.9 36.5 54.8c20.9 11.9 6.6-13.9 6.6-13.9s-14-33.5-17-46.6 15.3-35.2 15.3-35.2l4.4-55.6z" fill="#1b3d7a"/><linearGradient id="SVGID_5_" gradientUnits="userSpaceOnUse" x1="-3881.89" y1="-211.074" x2="-3529.896" y2="-28.792" gradientTransform="matrix(-1 -.00216 -.00216 -.79 -3423.597 633.697)"><stop offset=".089"/><stop offset=".168" stop-color="#272727"/><stop offset=".294" stop-color="#606060"/><stop offset=".42" stop-color="#909090"/><stop offset=".545" stop-color="#b8b8b8"/><stop offset=".666" stop-color="#d7d7d7"/><stop offset=".784" stop-color="#ededed"/><stop offset=".897" stop-color="#fafafa"/><stop offset="1" stop-color="#fff"/></linearGradient><path d="M131 635c.1 0 .1 0 0 0 .5 4.2 10.1 10.7 24 15.3 5.2 2.3 10.4 4.5 15.5 6.8.7 1.1 1.1 2.1 1.4 3.3l-.1-.1c-1 .4-1.7 1-1.3 1.9-1 .4-1.8.8-1.6 1.4-4.2.9-7.8 1.8-9.9 2.2-2.8.6-5.6 1.4-6.9 2.6-6.5 3.3 15.8 21.2 28.9 32.6 16.5 10.1 29.4 18.4 47.5 28.5.9.3 1.9.6 3.1.9.2.1.4.1.7.2 3 1.7 5.2 3.2 6.8 4.3-.1 0-.3.1-.4.2l-9-2.2c-.9-.2-2.3-.5-3.2-.6-3-.3-5.1.2-6.2.8-1 .5-1.5 1.1-1.7 1.9-.3 1.1.3 2.5 1.9 4 .2.2.4.3.6.5l6.6 5.1 6.7 2.3 11.7 9c.6.4 1.2.8 1.9 1.2.5.2 1 .5 1.5.7.3.1.5.2.8.3.5.2 1 .3 1.6.5l38.6 9.6.1.1c2.2 1.5 4.1 2.8 5.4 3.8 1.5 4.1 3.4 6.9 8.9 11.8.8.7 1.8 1.6 3 2.5 7.4 5.9 69.9 41.3 70 41 2.2-5.6.4-8.6.4-8.6-.1 0-3-6.6-3-6.6 1.1.3-3.8-15.3-2.7-15.3 33.9 22.5 45.4 53.5 45.4 53.5 28.5.5 25.7-11 33.8-18.3 4.7-4.3 17.7-8.5 14-9.5-14.7-4-34.9-17.7-43.6-21-2.1-.8-90.6-67-109.4-76.1.1-.2.1-.6-.3-1-5.9-3.7-16.6-11.4-28.2-19.9-5.8-5.2-11.6-10.5-18.9-15.9-15.3-11.3-29.4-21.5-50.9-25.8-.6-.2-1.2-.3-1.8-.4.2-.3-.1-.6-.7-1.2-3-3.1-5.4-5.7-9.8-8.7-2.7-1.8-4.2-1.7-6-3.4-.8-.8-.6-1.2-1.8-2.3-.5-.5-1.1-.9-2-1.4-1.3-.7-2.7-1.4-4.2-2.1-.1-.1-.3-.1-.4-.2.1 0 .1.1.2.1-1-.6-1.9-1.1-2.8-1.5 1.1-.3 2-.7 2.7-1.1.5-.3.8-.7.9-1.1h-.3.1c-3.4-.3-6.9-.9-10.4-1.7-.2 0-.4-.1-.6-.1-.2 0-.4-.1-.7-.2-4.7-1.1-9.9-2.4-15.3-3.6.6.1 1.2.1 2 .1-5-.8-10.9-2.1-16-2.6-1.2-.1-2.5-.2-3.8-.3h-.1c-4.9-.2-9.8 0-11.9.8-.5.2-.9.4-1.2.6-1 .3-1 1.2.4 2.4zm75.2 66.1c8.4 4.3 15.2 8 17.8 10.2 1.6 1.4 2.7 2.6 3.4 3.6-6.3-3.9-13-7.8-20.2-11.5-.3-.7-.7-1.5-1-2.3z" opacity=".24" fill="url(#SVGID_5_)"/><path class="st34" d="M398.6 809.2c-1.7 1.7-3.7 2.6-7.7 5.2l.1 3.6c-4 7.5-7.9 11-13.3 9.6-7.5-2-9.8-3.7-10.1-9-1.1-9-1.4-10.7.8-17.5 7.2-5.1 10.7-6.2 15.9-8.1 4.3-1.5 10.7-5.5 16.9-7.3 3.6-1.1 5.9 1.9 6.2 4.3.5 5.6-4.2 14.1-8.8 19.2z"/><path class="st35" d="M398.6 809.2c-1.7 1.7-3.7 2.6-7.7 5.2l.1 3.6c-4 7.5-7.9 11-13.3 9.6-7.5-2-9.8-3.7-10.1-9-.6-5-1-7.7-.8-10.3 10.1 4.7 18.4 4 27.4-5.8 2.7-2.9 10.6-10.6 11.1-16.1 1.2.9 2 2.4 2.1 3.7.5 5.5-4.2 14-8.8 19.1z"/><path class="st36" d="M365.4 739.7c.3-11.9 2.4-23.7 6.1-32.5 2.3-5.5 3.3-11.5 3.2-17.6-.4-17.8-1.9-48.5-2.4-64.2-.6-18-.7-29.5 4.2-41.3l40.3 22.3c-.2 1.8-.4 4-.5 6.7l.8.4c-.5 5.2-1.3 13.6-2.3 23.4-1.7 28-4.2 64.2-8.2 75.2-4.1 27.7-10.3 60.6-15.3 87-.8 3.1-3.3 7.1-7.6 9.4-.6.3-1.2.6-1.8.8-.1.1-.3.1-.4.2-.6.2-1.2.5-1.8.7-5.9 1.9-12.3 1.6-13.9-2.3.7-24.3-.8-54.7-.4-68.2z"/><path d="M372.7 630c.4-1.1 3.2-43.9 3.7-45l40.3 22.3c-.2 1.8-.4 4-.5 6.7l.8.4c-.5 5.2-1.3 13.6-2.3 23.4-1.7 28-4.2 64.2-8.2 75.2-4.1 27.7-10.3 60.6-15.3 87-.8 3.1-3.3 7.1-7.6 9.4-.6.3-1.2.6-1.8.8-.1.1-.3.1-.4.2-.6.2-1.2.5-1.8.7-.4.1-.7.2-1.1.3 3.9-28.3 19.8-120.7 20.7-144.3.8-20.4-17.8-30.9-26.5-37.1z" fill="#003473"/><path class="st34" d="M423.3 834c2.1-.6 7.2-9 14.7-7.6 9.1 1.6 19.4-3.8 27.5-4.2 1.4-.1 3.3-.5 4.2.1 4 2.8 4.5 5.7 1.3 9.7-2.4 2.9-6.7 6.6-10.5 9.2-4 2.8-7.1 5.1-11.9 7.3-3.6 1.6-6.1 1.5-9.3 2.8l-.1 2.9c-2.6 2.3-5.5 3.8-7.3 4-4.6.6-10.2-2.3-14.2-6.3-.6-4.7-2.4-9.4-.2-16.5l5.8-1.4z"/><path class="st35" d="M472.1 824.6c1.6 2.2 1.3 4.5-1.1 7.4s-6.7 6.6-10.5 9.2c-4 2.8-7.1 5.1-11.9 7.3-3.6 1.6-6.1 1.5-9.3 2.8l-.1 2.9c-2.6 2.3-5.5 3.8-7.3 4-4.6.6-10.2-2.3-14.2-6.3-.5-3.6-1.6-7.2-1.2-11.8 10.3 7.4 16.3 2 20.2 1.6 5.7-.5 14-.2 26.5-9.8 2.7-2.2 5.8-4.7 8.9-7.3z"/><path class="st36" d="M412.1 746c1.4-5.2 2.1-10.7 1.8-16.1-.9-18.1-2.3-53.3-4.1-69.4-1.9-16.7-11.2-46.4-2.9-67.2l33 34.8 14-8.1c2.2 9 3 19.3 3.1 30.2 1.8 30.2-5.7 63.3-8.7 83.9 0 .1 0 .3-.1.4-3.8 26.7-2.4 63.3-3.5 91.1-.1 1.9-.2 3.7-.3 5.4 0 .3-.1.5-.2.8 0 .1-.1.2-.1.4 0 .1-.1.3-.1.4-.1.1-.1.3-.2.4-.1.1-.1.2-.2.3-.1.2-.2.3-.3.5-.1.1-.1.2-.2.3-.1.2-.3.3-.4.5-.1.1-.1.2-.2.2-.1.2-.3.3-.5.5l-.2.2-.5.5-.2.2c-.2.2-.4.4-.6.5-.1 0-.1.1-.2.1-.2.2-.5.4-.7.5-.1 0-.1.1-.2.1-.2.2-.5.4-.7.5-.1 0-.1.1-.2.1-.3.2-.5.3-.8.5l-.1.1c-.3.2-.6.3-.9.5l-.1.1c-.3.2-.6.3-.9.5 0 0-.1 0-.1.1-.3.1-.6.3-.9.4-.1 0-.1 0-.2.1-.3.1-.6.3-.9.4-.1 0-.1 0-.2.1l-.9.3c-.1 0-.1 0-.2.1-6.2 2.2-13.2 2.3-17.2-1.6-2.2-24.1-6.3-59.9-5.5-73.2.6-8.2.8-13.9 2.5-20.4z"/><path d="M441.2 772c0-3.3-.8-8.9-1.9-14.6-1.6-8.1-3.9-16.5-5.6-19.4 1.9-1.3 4-2.7 6.2-6 3.1-4.5 6.5-12.4 10.3-28 4.5-18.5-.7-54.2-4.4-74.8l8.1-4.7c2.2 9 3 19.3 3.1 30.2 1.8 30.2-5.7 63.3-8.7 83.9 0 .1 0 .3-.1.4-3.8 26.7-2.4 63.3-3.5 91.1-.1 1.9-.2 3.7-.3 5.4 0 .3-.1.5-.2.8 0 .1-.1.2-.1.4 0 .1-.1.3-.1.4-.1.1-.1.3-.2.4-.1.1-.1.2-.2.3-.1.2-.2.3-.3.5-.1.1-.1.2-.2.3-.1.2-.3.3-.4.5-.1.1-.1.2-.2.2-.1.2-.3.3-.5.5l-.2.2-.5.5-.2.2c-.2.2-.4.4-.6.5-.1 0-.1.1-.2.1-.2.2-.5.4-.7.5-.1 0-.1.1-.2.1-.2.2-.5.4-.7.5-.1 0-.1.1-.2.1-.1.1-.2.1-.3.2 7.5-26.7 3-63.2 3-70.7z" fill="#00397e"/><path d="M449 672.5c-4.3-16.3-34.3-16.8-41.5-24.8-2.1-13.7-5.4-42.4-.6-54.3l33 34.8 14-8.1c2.2 9 3 19.3 3.1 30.2 1.2 20.3-5.7 66-8.7 84.3.8-13.6 4.7-46.6.7-62.1z" fill="#003677"/><path class="st40" d="M379.5 585.3c-7.2 17.8-3.2 22.5 2.5 40.7l6.5.2.5-28.6.5-11.2-10-1.1z"/><path class="st36" d="M369.2 498.8c-3.2-17.4-2.7-40.7 15.9-48.5 2.2-.9 5-1.1 8.2-.7 9 1.2 21.3 6.4 32.4 12.3l-.1-1.7c10.1 5.1 24.5 15 29.5 19 3 2.4 5.7 4.4 7.3 8.3 7.3 18.7 2.7 46.7-2.1 65-.6 3.5-1.1 7-1.5 10.5.3 18.2 3.1 46.1 1.7 77.4-1.4 2.8-3.5 5-6 6.7-3.7 2.7-8.3 4.1-13.3 4.5-1.9.2-3.8.3-5.6.2v-.1c-11.3-.4-23.7-5.8-31.1-9.1-8.9-4-30.7-13.6-33.1-20.7-3.5-26.6 8.7-60.4 7.8-76.9-.9-15.4-6.4-26.5-10-46.2z"/><path class="st41" d="M435.6 651.8c8.9.4 20.4-2.5 24.9-11.4 1.4-32.1-1.2-60.4-.8-78.5.4-16.6 11.4-52.2 2.8-74.3-1.5-3.9-4.2-5.8-7.3-8.3-5-4-19.4-13.8-29.5-19l.3 5.4c4.8 3 7.7 5.1 10.7 7.8 3.6 3.3 4 8.9.9 12.6-14.4 17.2-14 36.2-3.3 73.3 5.1 17.9 1.7 66.8 1.3 92.4z"/><path class="st42" d="M443.5 450c-2.3 1.1-13.7-.5-13.4.5.2 4.7 1.4 7.7 2 13.4-16.6.9-26.7-.7-30-9.6.4-5 .8-10.5-.6-12.7-2.7-4.3-8.2-9.1-10.1-15.7-3.1-10.5-2-22.1 7.8-29.8 17.8-14.1 40.6-4.1 46.4 16.6 1.1 4-2.1 6.2-1.9 9.7 0 .7.9 1.4 1.6 2.9 1.1 2.1 1 23.3-1.8 24.7z"/><path class="st40" d="M443.4 449.9c-2.3 1.1-13.6-.4-13.3.6.2 4.7 1.4 7.7 2 13.4-1.7.1-3.3.2-4.8.2-5.3-7.2-10.5-12.1-24.7-17-.1-2.3-.3-4.3-1-5.5-2.7-4.3-8.2-9.1-10.1-15.7-3.1-10.5-2-22.1 7.8-29.8 17.8-14.1 40.6-4.1 46.4 16.6 1.1 4-2.1 6.2-1.9 9.7 0 .7.9 1.4 1.6 2.9 1 2.1.8 23.2-2 24.6z"/><path class="st42" d="M443.1 450c-1.2.6-6.2.2-9.8-1.2-2.3-.9-4-2.9-4.4-3-1.5-.6-4.9-5.4.3-13.1 5.1-7.5-25.9 11.7-27.6 9-2.7-4.3-8.2-9.1-10.1-15.7-3.1-10.5-2-22.1 7.8-29.8 17.8-14.1 40.6-4.1 46.4 16.6 1.1 4-2.1 6.2-1.9 9.7 0 .7.9 1.4 1.6 2.9 1 2 .4 23.1-2.3 24.6z"/><path class="st43" d="M443.6 449.9c-.5.3-3.3.2-4.7-.3-1.6-1.7-3.2-5.3-3.1-7 .2-6.8 3.7-12.3 3.6-15.1 0-5.8-2-2.9.2-9.2 1.7-4.8-.5-5.6-1.5-9.7 2.5-.9 3.6-2.8 4-4 1.5 2.5 2.7 5.3 3.5 8.3 1.1 4-2.1 6.2-1.9 9.7 0 .7.9 1.4 1.6 2.9 1.1 1.9 1 22.8-1.7 24.4z"/><path class="st40" d="M430.3 432.9c-6.4-5.9-12.5 13-2.3 12.8-4-4.3-.9-11 2.3-12.8z"/><path class="st43" d="M430.3 435.6c1-2.6.1-3.6-1-3.3-1.3.3-3.1 2.2-4 4.9-1.5 4.4.7 10 4.9 7.8-3.7.2-3.3-4.2-2.2-6.9.7-1.9 1.8-3.2 2.3-2.5z"/><path class="st40" d="M428.6 436.8c1 1.9 1.4 3 1.1 3.7-.2.5-.9 1-2.1-.1-.1-1.3.4-2.6 1-3.6z"/><path class="st44" d="M401.5 446.2c-1-7.1-7.8-13.1-10.2-20.9-3-10-1.9-21 7.4-28.4 13.3-10.6 29.6-6.9 38.6 4.7.5.7-4.6 3.1-2.9 6.9 2.4 6.3 2.4 9.2 1.4 10.6-3.8 5.4-3.8 6.2-3.6 14.4l-2.1 1.7c-.9-6.4-3.7-5.9-6.5-3.8-4.9 3.8-2.5 17.2-13.7 17.7-3.2.1-6.9-.9-8.4-2.9z"/><path class="st44" d="M404.1 411.4c9 2.2 24.3-1.3 32-7.1 2-1.5 3.4-3 4.4-4.6 2.9-4.7-.7-10.5-6.2-10.5-3.5 0-6.8-1.2-12.6-1.2-3 0-10.7-2.1-19.9 3.9-3.1 2.1-10.1 8.2-7.8 13.2 1 2.3 5.3 5.2 10.1 6.3z"/><path class="st10" d="M402.4 451c-.3 6.9 17.2 10 28.9 6.8 0 0 1.5 4.9 1.5 7.9-12.1 6-27.7 4.9-32.3-5.2-1.1-2.2 1.7-5.3 1.9-9.5z"/><path class="st36" d="M402.3 451.7c-.4 6.9 16.8 11 29.4 7.9 0 0 4.3 4.4 4.3 7.4-13 6-31.5 4.9-36.4-5.2-1.1-2.3.2-7.3 2.7-10.1z"/><path class="st45" d="M396.7 639.4l1.9-63.4-4.5 26.9-1.3 32.9z"/><path class="st41" d="M431.2 469.2s-16.5 5-27.5-2.3c-6.8-4.5-4.3-13.3-4.3-13.3s-5.2 10.1 6.8 16.3c11.8 6.1 25-.7 25-.7z"/><path class="st45" d="M406.2 470s-8.6 13.3-7.6 29c1 15.8 2.6 59.5.1 72.3 1.1-9.3 3.1-34.6 1-64-1.9-26.3 6.5-37.3 6.5-37.3z"/><path class="st43" d="M577.3 470.1c4.4-4.1 7.1-6.9 5.1-8.1-1.9-1.1-5 2.5-9.7 5.7-3.5 2.3-7.3 4.7-8.4 5-2.6.6-.3-2.9 1.3-5.7 1.6-2.7-.7-6.8-2.2-3.7-2 4.1-7.2 7.5-9.4 13.2-1.1 2.8-3.1 6.4-4.5 7.5-.8.6-2.4 1.5-4.2 2.3 2.9 3.4 1.6 9.2 3.8 12.7.4.6 4 2.1 4.5 2.8 1.3-.9 4.8-3.5 6-4.5 0 0 1.3-1.4 4.2-2.4 2.7-.9 8.3-2.7 11-3.9 3.7-1.7 1.9-4 2.5-5.2 1.9-4.1-1.4-5.1-1.4-5.1s1.8-3.1.8-4.5c-1.1-1.4-3.2-2-3.2-2s1.5-2 3.8-4.1z"/><path class="st36" d="M547.6 483.4l14.3 21.3s-44 31.3-56.5 34c-11.1 2.4-41.5-12.5-58.5-21-16.3-8.1-24.8-23-10.3-36 11.4-10.3 38.8 10.8 38.8 10.8l26 15c0-.1 18-8.6 46.2-24.1z"/><path d="M606.9 567l-.1 1.2-3.7-2.2.3-6.3 1.2.7-.3 5.1 2.6 1.5zm6 1.5c0 .5-.1 1-.3 1.3s-.4.5-.6.7c-.3.1-.6.2-.9.1-.3-.1-.7-.2-1.1-.4-.4-.2-.7-.5-1.1-.8-.3-.3-.6-.7-.8-1.1-.2-.4-.4-.9-.5-1.4s-.2-1-.1-1.5c0-.5.1-1 .3-1.3s.4-.5.7-.7c.3-.1.6-.2.9-.1.3.1.7.2 1.1.4.4.2.7.5 1.1.8.3.3.6.7.8 1.1.2.4.4.9.5 1.4 0 .5.1 1 0 1.5zm-4.2-2.5c0 .3 0 .6.1.9.1.3.1.6.3.8.1.3.3.5.4.7.2.2.4.4.6.5.2.1.4.2.6.2.2 0 .4 0 .5-.1s.2-.3.3-.5.1-.5.1-.8 0-.6-.1-.9c-.1-.3-.1-.6-.3-.8-.1-.3-.3-.5-.4-.7-.2-.2-.4-.4-.6-.5-.2-.1-.4-.2-.6-.2-.2 0-.3 0-.5.1-.1.1-.2.3-.3.5 0 .3-.1.5-.1.8zm8.1 2.7c-.6-.3-1-.4-1.3-.2s-.4.6-.5 1.3c0 .3 0 .6.1.9.1.3.1.6.3.8.1.3.3.5.5.7s.4.4.7.5c.1.1.3.1.4.2.1.1.2.1.3.1l.1-2.2 1.2.7-.2 3.1c-.2 0-.4-.1-.7-.2-.3-.1-.7-.3-1.2-.6-.4-.2-.8-.5-1.1-.9-.3-.3-.6-.7-.8-1.1-.2-.4-.4-.9-.5-1.3-.1-.5-.2-1-.1-1.5 0-.5.1-.9.3-1.3.2-.3.4-.5.6-.7.3-.1.6-.2.9-.1.3.1.7.2 1.1.4.3.2.5.3.7.5s.4.3.5.5l.4.4c.1.1.2.2.2.3l-.4.9-.6-.6c-.4-.3-.6-.5-.9-.6zm8.1 6.9c0 .5-.1 1-.3 1.3s-.4.5-.6.7c-.3.1-.6.2-.9.1-.3-.1-.7-.2-1.1-.4-.4-.2-.7-.5-1.1-.8-.3-.3-.6-.7-.8-1.1-.2-.4-.4-.9-.5-1.4s-.2-1-.1-1.5c0-.5.1-1 .3-1.3s.4-.5.7-.7c.3-.1.6-.2.9-.1.3.1.7.2 1.1.4.4.2.7.5 1.1.8.3.3.6.7.8 1.1.2.4.4.9.5 1.4v1.5zm-4.3-2.5c0 .3 0 .6.1.9.1.3.1.6.3.8.1.3.3.5.4.7.2.2.4.4.6.5.2.1.4.2.6.2.2 0 .4 0 .5-.1s.2-.3.3-.5.1-.5.1-.8 0-.6-.1-.9c-.1-.3-.1-.6-.3-.8-.1-.3-.3-.5-.4-.7-.2-.2-.4-.4-.6-.5-.2-.1-.4-.2-.6-.2-.2 0-.3 0-.5.1-.1.1-.2.3-.3.5 0 .2 0 .5-.1.8zm9.4 2.2l-.1 1.2-1.7-1-.3 5.1-1.2-.7.3-5.1-1.7-1 .1-1.2 4.6 2.7zm.5 6.8l.3-6.3 3.7 2.2-.1 1.2-2.5-1.5-.1 1.2 2.2 1.3-.1 1.2-2.2-1.3-.1 1.5 2.7 1.6-.1 1.2-3.7-2.3zm8.2 4.8c-.1-.4-.3-.9-.5-1.4s-.4-.9-.6-1.3c-.1 0-.2.1-.3.2-.1.1-.2.2-.4.3l-.4.4c-.1.1-.2.3-.2.3l-1.4-.8c.3-.4.6-.7.9-1 .3-.3.7-.7 1.1-1l-1.6-4.2 1.5.9 1 2.4 1.2-1.2 1.4.8-2 2c.4.9.8 1.8 1.1 2.5s.5 1.3.7 1.8l-1.5-.7zm6.8-2.4l-.1 1.2-1.7-1-.3 5.1-1.2-.7.3-5.1-1.7-1 .1-1.2 4.6 2.7z" fill="#00f"/><path d="M606.6 573.5c.2.1.3.2.4.1.1 0 .1-.1.1-.2v-.2c0-.1-.1-.2-.1-.2-.1-.1-.1-.2-.2-.3l-.3-.3-.3-.3c-.1-.1-.2-.2-.2-.3-.1-.1-.1-.2-.2-.4s-.1-.3 0-.4c0-.3.1-.5.3-.5.2-.1.5 0 .8.2.2.1.3.2.5.4.1.1.3.2.3.4l-.2.4-.3-.3c-.1-.1-.2-.2-.4-.3-.1-.1-.3-.1-.3-.1-.1 0-.1.1-.1.2v.2c0 .1.1.1.1.2s.1.1.2.2.1.2.2.2l.4.4c.1.1.2.3.3.4.1.1.1.3.2.4v.4c0 .3-.1.5-.3.5-.2.1-.5 0-.8-.2-.1-.1-.2-.1-.3-.2-.1-.1-.2-.2-.3-.2l-.2-.2c-.1-.1-.1-.1-.1-.2l.2-.4.3.3c0 .1.1.2.3.3zm4.5 2.6v.5l-1.9-1.1.2-3.4.5.3-.1 2.8 1.3.9zm4.2 1.3c0 .3-.1.5-.2.7-.1.2-.2.3-.3.4-.1.1-.3.1-.5.1s-.4-.1-.6-.2c-.2-.1-.4-.3-.6-.4-.2-.2-.3-.4-.4-.6-.1-.2-.2-.5-.3-.7-.1-.3-.1-.5-.1-.8s.1-.5.2-.7c.1-.2.2-.3.3-.4.1-.1.3-.1.5-.1s.4.1.6.2c.2.1.4.3.5.4.2.2.3.4.4.6.1.2.2.5.3.7.2.2.2.5.2.8zM613 576v.5c0 .2.1.3.2.5.1.1.2.3.3.4.1.1.2.2.4.3.1.1.3.1.4.1.1 0 .2 0 .3-.1s.1-.2.2-.3c0-.1.1-.3.1-.5v-.5c0-.2-.1-.3-.2-.5-.1-.1-.2-.3-.3-.4-.1-.1-.2-.2-.4-.3-.1-.1-.3-.1-.4-.1-.1 0-.2 0-.3.1s-.1.2-.2.3c-.1.2-.1.3-.1.5zm5.3 1.9c-.3-.2-.5-.2-.7-.1-.2.1-.3.4-.3.7v.5c0 .2.1.3.2.5s.2.3.3.4c.1.1.2.2.4.3.1.1.2.1.2.1.1 0 .1.1.2.1l.1-1.2.5.3-.1 1.6c-.1 0-.2-.1-.4-.1l-.6-.3c-.2-.1-.4-.3-.6-.5-.2-.2-.3-.4-.4-.6-.1-.2-.2-.5-.3-.7-.1-.3-.1-.5-.1-.8s.1-.5.2-.7c.1-.2.2-.3.3-.4.1-.1.3-.1.5-.1s.4.1.6.2c.1.1.3.2.4.2.1.1.2.2.3.2l.2.2c0 .1.1.1.1.1l-.2.4-.3-.3c-.2.2-.3.1-.5 0zm4.4 5.6c0-.2-.1-.3-.1-.5s-.1-.3-.1-.5l-1.3-.7c0 .1-.1.2-.1.3s-.1.2-.1.3l-.6-.3c.1-.3.3-.6.4-.8.1-.2.2-.5.3-.7l.3-.6.3-.6.5.3.3.9c.1.3.2.6.2.9.1.3.2.7.3 1l.3 1.2-.6-.2zm-.7-3.2c-.1.1-.2.3-.3.5l-.3.6 1 .6c-.1-.3-.2-.7-.2-1-.1-.3-.2-.5-.2-.7zm4.6 5.5c-.1-.2-.2-.5-.3-.8l-.3-.9c-.1-.3-.2-.6-.4-.9-.1-.3-.2-.5-.4-.8l-.1 2.4-.5-.3.2-3.4.4.3c.1.2.2.4.3.7s.2.5.4.8c.1.3.2.6.4.8.1.3.2.5.3.8l.1-2.2.5.3-.2 3.4-.4-.2zm4.2-1l.5.3-.2 3.4-.5-.3.1-1.5-1.3-.8-.1 1.5-.5-.3.2-3.4.5.3-.1 1.3 1.3.8.1-1.3zm2.1 4.7l.2-3.4 1.9 1.1v.5l-1.4-.8v.8l1.2.7v.5l-1.2-.7-.1 1 1.5.9v.5l-2.1-1.1zm4.5-.9c.4.3.7.5 1 .8.2.3.3.6.3 1 0 .5-.2.6-.6.6.1.1.1.2.2.4.1.1.1.3.2.5s.1.3.2.5.1.3.2.5l-.6-.4c0-.1-.1-.3-.2-.5s-.1-.3-.2-.5c-.1-.1-.1-.3-.2-.4-.1-.1-.1-.3-.2-.4 0 0-.1 0-.1-.1h-.1l-.3-.2-.1 1.3-.5-.3.2-3.3c.1 0 .3.1.4.2.1.2.3.3.4.3zm0 .6c-.1-.1-.2-.1-.3-.2l-.1 1.1.2.1c.1.1.2.1.3.2.1 0 .2.1.3.1s.1 0 .2-.1c0-.1.1-.1.1-.2v-.3c0-.1-.1-.2-.1-.3-.1-.1-.1-.2-.2-.2-.2-.1-.3-.1-.4-.2zm2.7 4.5l.2-3.4 1.9 1.1v.5l-1.4-.8v.8l1.2.7v.5l-1.2-.7-.1 1 1.5.9v.5l-2.1-1.1z" fill="#bcbec0"/><path d="M633.5 541.6l-3.8 1.9-3.4-6.1-1.7.9 10.8 19.9-6.7 3.4-1.8-3.3 4.7-2.4-12.4-22.7-14 7.1 12.4 22.7 3.8-1.9 3.4 6.1 1.7-.9-10.9-19.9 6.7-3.4 1.8 3.3-4.7 2.4 12.4 22.7 14-7.1-12.3-22.7zm-21.2 3l7.5 13.7-2 1-9.3-17 10.5-5.4 1.8 3.3-8.5 4.4zm10.5 6.1l2.9-1.5 2.6 4.7-2.9 1.5-2.6-4.7zm7.5 13.7l8.4-4.3-7.5-13.7 2-1 9.3 17-10.5 5.4-1.7-3.4z" fill="red"/><text transform="matrix(1.0363 .642 .1794 .9838 450.689 363.549)" class="st49" font-size="4.518" font-family="Gilroy-ExtraBold">Lorem ipsum</text><text transform="matrix(1.0363 .642 .1794 .9838 461.11 375.252)" class="st49" font-size="3.388" font-family="Gilroy-Light">YOUR SLOGAN</text><linearGradient id="SVGID_6_" gradientUnits="userSpaceOnUse" x1="215.933" y1="-510.537" x2="227.271" y2="-496.899" gradientTransform="matrix(1.2741 .5743 .1769 .8646 272.778 661.101)"><stop offset="0" stop-color="#34d66b"/><stop offset=".079" stop-color="#27ca6b" stop-opacity=".998"/><stop offset=".247" stop-color="#12b56c" stop-opacity=".995"/><stop offset=".411" stop-color="#05a96c" stop-opacity=".991"/><stop offset=".565" stop-color="#01a56c" stop-opacity=".987"/><stop offset=".968" stop-color="#002e4f" stop-opacity=".97"/></linearGradient><path fill="url(#SVGID_6_)" d="M457.5 334.4l-2.8 5.2 15.4 26.9 9.7 6.1z"/><linearGradient id="SVGID_7_" gradientUnits="userSpaceOnUse" x1="222.49" y1="-511.887" x2="222.49" y2="-511.887" gradientTransform="matrix(1.2741 .5743 .1769 .8646 272.778 661.101)"><stop offset=".005" stop-color="#01b89d"/><stop offset=".335" stop-color="#01958e" stop-opacity=".99"/><stop offset="1" stop-color="#00466a" stop-opacity=".97"/></linearGradient><linearGradient id="SVGID_8_" gradientUnits="userSpaceOnUse" x1="240.126" y1="-508.031" x2="228.368" y2="-514.736" gradientTransform="matrix(1.2741 .5743 .1769 .8646 272.778 661.101)"><stop offset="0" stop-color="#222961"/><stop offset=".113" stop-color="#203262" stop-opacity=".997"/><stop offset=".295" stop-color="#1c4a63" stop-opacity=".991"/><stop offset=".523" stop-color="#147065" stop-opacity=".984"/><stop offset=".786" stop-color="#0aa668" stop-opacity=".976"/><stop offset="1" stop-color="#00d66b" stop-opacity=".97"/></linearGradient><path fill="url(#SVGID_8_)" d="M466.5 347.1l2.5-5.7 12.8 8.2 6.4 10.8z"/><linearGradient id="SVGID_9_" gradientUnits="userSpaceOnUse" x1="222.903" y1="-516.783" x2="247.382" y2="-506.833" gradientTransform="matrix(1.2741 .5743 .1769 .8646 272.778 661.101)"><stop offset="0" stop-color="#222961" stop-opacity="0"/><stop offset=".132" stop-color="#20325f" stop-opacity=".128"/><stop offset=".344" stop-color="#1a495a" stop-opacity=".334"/><stop offset=".61" stop-color="#117053" stop-opacity=".592"/><stop offset=".918" stop-color="#04a648" stop-opacity=".89"/><stop offset="1" stop-color="#00b545" stop-opacity=".97"/></linearGradient><path fill="url(#SVGID_9_)" d="M466.5 347.1l2.5-5.7 12.8 8.2 6.4 10.8z"/><linearGradient id="SVGID_10_" gradientUnits="userSpaceOnUse" x1="239.745" y1="-512.284" x2="224.466" y2="-488.569" gradientTransform="matrix(1.2741 .5743 .1769 .8646 272.778 661.101)"><stop offset=".005" stop-color="#01c270"/><stop offset=".435" stop-color="#019567"/><stop offset="1" stop-color="#00555b"/></linearGradient><path fill="url(#SVGID_10_)" d="M470.1 366.5l9.7 6.1 8.4-12.2-6.4-10.8"/><linearGradient id="SVGID_11_" gradientUnits="userSpaceOnUse" x1="235.311" y1="-516.599" x2="230.548" y2="-509.205" gradientTransform="matrix(1.2741 .5743 .1769 .8646 272.778 661.101)"><stop offset="0" stop-color="#222961"/><stop offset=".371" stop-color="#222b61" stop-opacity=".629"/><stop offset=".519" stop-color="#203263" stop-opacity=".481"/><stop offset=".628" stop-color="#1e3e65" stop-opacity=".372"/><stop offset=".717" stop-color="#1a5067" stop-opacity=".283"/><stop offset=".794" stop-color="#16666b" stop-opacity=".206"/><stop offset=".863" stop-color="#108270" stop-opacity=".137"/><stop offset=".926" stop-color="#0aa376" stop-opacity=".074"/><stop offset=".983" stop-color="#03c97c" stop-opacity=".017"/><stop offset="1" stop-color="#00d67e" stop-opacity="0"/></linearGradient><path d="M481.8 349.6c-.4 0-7.3 2.3-7.3 2.3l4 2.6 3.3-4.9z" opacity=".63" fill="url(#SVGID_11_)"/><linearGradient id="SVGID_12_" gradientUnits="userSpaceOnUse" x1="227.554" y1="-506.591" x2="223.234" y2="-489.928" gradientTransform="matrix(1.2741 .5743 .1769 .8646 272.778 661.101)"><stop offset=".01" stop-color="#01c49d" stop-opacity="0"/><stop offset=".075" stop-color="#05af93" stop-opacity=".063"/><stop offset=".227" stop-color="#0d837e" stop-opacity=".213"/><stop offset=".382" stop-color="#145f6d" stop-opacity=".365"/><stop offset=".537" stop-color="#194360" stop-opacity=".516"/><stop offset=".691" stop-color="#1d2f57" stop-opacity=".667"/><stop offset=".845" stop-color="#1f2351" stop-opacity=".819"/><stop offset="1" stop-color="#201f4f" stop-opacity=".97"/></linearGradient><path opacity=".65" fill="url(#SVGID_12_)" d="M470.1 366.5l.2-10.1 3.3 5.4z"/><linearGradient id="SVGID_13_" gradientUnits="userSpaceOnUse" x1="236.951" y1="-500.302" x2="225.406" y2="-504.063" gradientTransform="matrix(1.2741 .5743 .1769 .8646 272.778 661.101)"><stop offset=".01" stop-color="#01c49d" stop-opacity="0"/><stop offset=".213" stop-color="#169b91" stop-opacity=".197"/><stop offset=".59" stop-color="#3a547b" stop-opacity=".563"/><stop offset=".863" stop-color="#50286e" stop-opacity=".827"/><stop offset="1" stop-color="#591769" stop-opacity=".96"/></linearGradient><path fill="url(#SVGID_13_)" d="M470.1 366.5l9.7 6.1 8.4-12.2-6.4-10.8"/></svg>