<svg version="1.1" id="Layer_1" xmlns="http://www.w3.org/2000/svg" xmlns:xlink="http://www.w3.org/1999/xlink" x="0" y="0" viewBox="0 0 510.3 505.7" xml:space="preserve"><style>.st0{fill:#cdd5ea}.st12{fill:#a0afd5}.st13{fill:#dce7f5}.st14{fill:#2c2d6f}.st16{fill:#6b78bd}.st22{fill:#007bb1}.st24{fill:#f4f4f4}.st25{fill:#eff6fc}.st26{fill:none}.st28{fill:#ccaf9a}.st29{fill:#4d4239}.st31{fill:#363b47}.st33{fill:#616c84}.st34{fill:#939bb4}.st35,.st36{fill:none;stroke:#bcb1b0;stroke-width:.2051;stroke-miterlimit:10}.st36{stroke:#3c2827}.st37{fill:#bcb1b0}.st38{fill:#6d5a61}.st41{opacity:.82;fill:#eef5fb}.st41,.st42,.st43,.st44{enable-background:new}.st42{opacity:.2;fill:#d5e1f4}.st43{opacity:.72;fill:#cfe2f6}.st44{opacity:.82;fill:#c9dbec}.st49{opacity:.5}.st50{display:none;opacity:.1;enable-background:new}</style><g id="OBJECTS"><path class="st0" d="M240.2 392.2zm-.8-1.3l-5.2-3v-3.6l-2.8-1.6 2.8-2.1v-.6l-3.2 2.5 3.2-2.5-76.8-44.2L100 380l-67.1 16.6 4.9 2.8-4.9-2.8v.6l4.2 2.4-4.2 1.3v4l-4.9 2.5c-.6.3-.9 1-.9 1.6v-.1 2.2c0 .5.3 1.1.8 1.4L117 464c1.3.8 2.9.8 4.2 0l54.3-31.4s3.2-.4 5.9-1.9 3.8-3.7 3.8-3.7l54.1-31.2c.5-.3.8-.8.8-1.3v-2.2c.1-.5-.2-1.1-.7-1.4zM27.2 409.3c0 .1 0 .1.1.2-.1-.1-.1-.1-.1-.2zm.1.4c0 .1.1.1.1.2 0-.1 0-.1-.1-.2zm.3.4c.1.1.2.2.4.3-.2-.1-.3-.2-.4-.3zm211.8-16.5l.3-.3c0 .1-.1.2-.3.3zm.7-.9zm-.2.4c.1 0 .1-.1 0 0 .1-.1.1 0 0 0z"/><path fill="#f5f5f5" d="M391.5 179.3l-5.2-3.1-45.6 25.8 5.3 3.1z"/><linearGradient id="SVGID_1_" gradientUnits="userSpaceOnUse" x1="298.5" y1="-406.85" x2="443.9" y2="-406.85" gradientTransform="matrix(1 0 0 -1 0 -64)"><stop offset=".346" stop-color="#8a8a8a"/><stop offset=".37" stop-color="#929292"/><stop offset=".458" stop-color="#adadad"/><stop offset=".555" stop-color="#c2c2c2"/><stop offset=".663" stop-color="#d0d0d0"/><stop offset=".793" stop-color="#d9d9d9"/><stop offset="1" stop-color="#dbdbdb"/></linearGradient><path d="M443.8 335.6c0-.7-.5-1.4-1.5-1.9l-50.8-30.1c-1.8-1-4.6-1.1-6.2-.2l-85.7 45.2c-.7.4-1.1 1-1.1 1.5v1.5c0 .7.5 1.3 1.5 1.9l56.9 28.6c1.8 1 4.6 1.1 6.2.2l79.7-43.7c.7-.4 1.1-.9 1.1-1.5l-.1-1.5zM299 351.1zm.4.4s0 .1 0 0c0 .1 0 0 0 0zm143.4-14.4c.2-.1.3-.2.5-.3-.2.1-.3.2-.5.3zm1-1.1zm-.2.4l-.1.1s.1 0 .1-.1z" fill="url(#SVGID_1_)"/><linearGradient id="SVGID_2_" gradientUnits="userSpaceOnUse" x1="194.213" y1="-428.002" x2="225.86" y2="-392.821" gradientTransform="matrix(1 0 0 -1 0 -64)"><stop offset=".346" stop-color="#8a8a8a"/><stop offset=".37" stop-color="#929292"/><stop offset=".458" stop-color="#adadad"/><stop offset=".555" stop-color="#c2c2c2"/><stop offset=".663" stop-color="#d0d0d0"/><stop offset=".793" stop-color="#d9d9d9"/><stop offset="1" stop-color="#dbdbdb"/></linearGradient><path opacity=".18" fill="url(#SVGID_2_)" d="M89.9 392.5l84.5-52 70.7 38.5-4.7 3.5 10 6.5-76.2 43.5z"/><path d="M449.6 240.6L248.1 356.9c-3.6 2.1-10 1.8-14.2-.6l-125.1-72.2c-4.2-2.4-4.7-6.1-1-8.2l201.5-116.3c3.6-2.1 10-1.8 14.2.6l125.1 72.2c4.2 2.4 4.6 6.1 1 8.2z" opacity=".3" fill="#1b1c63"/><path d="M450.6 238.6L249.1 354.9c-3.6 2.1-10 1.8-14.2-.6l-125.1-72.2c-4.2-2.4-4.7-6.1-1-8.2l201.5-116.3c3.6-2.1 10-1.8 14.2.6l125.1 72.2c4.2 2.4 4.6 6.1 1 8.2z" fill="#c29cb7"/><path d="M450.6 236.6L249.1 352.9c-3.6 2.1-10 1.8-14.2-.6l-125.1-72.2c-4.2-2.4-4.7-6.1-1-8.2l201.5-116.3c3.6-2.1 10-1.8 14.2.6l125.1 72.2c4.2 2.4 4.6 6.1 1 8.2z" fill="#deccc3"/><path d="M451 229.9c1.8 2.2 1.3 4.6-1.4 6.2L248.1 352.4c-3.6 2.1-10 1.8-14.2-.6l-125.1-72.2c-.5-.3-1-.6-1.4-1 .6.7 1.4 1.4 2.4 2l125.1 72.2c4.2 2.4 10.5 2.7 14.2.6l201.5-116.3c3.2-1.8 3.2-4.8.4-7.2z" opacity=".6" fill="#fff"/><linearGradient id="SVGID_3_" gradientUnits="userSpaceOnUse" x1="388.855" y1="-278.357" x2="399.188" y2="-257.357" gradientTransform="matrix(1 0 0 -1 0 -64)"><stop offset=".346" stop-color="#8a8a8a"/><stop offset=".37" stop-color="#929292"/><stop offset=".458" stop-color="#adadad"/><stop offset=".555" stop-color="#c2c2c2"/><stop offset=".663" stop-color="#d0d0d0"/><stop offset=".793" stop-color="#d9d9d9"/><stop offset="1" stop-color="#dbdbdb"/></linearGradient><path d="M413.5 228s7.3-13.3-13-26.7c-20.3-13.3-39.7-6-36 3.3 3.7 9.4 49 23.4 49 23.4z" opacity=".29" fill="url(#SVGID_3_)"/><linearGradient id="SVGID_4_" gradientUnits="userSpaceOnUse" x1="146.614" y1="-329.45" x2="384.712" y2="-329.45" gradientTransform="matrix(1 0 0 -1 0 -64)"><stop offset=".346" stop-color="#8a8a8a"/><stop offset=".37" stop-color="#929292"/><stop offset=".458" stop-color="#adadad"/><stop offset=".555" stop-color="#c2c2c2"/><stop offset=".663" stop-color="#d0d0d0"/><stop offset=".793" stop-color="#d9d9d9"/><stop offset="1" stop-color="#dbdbdb"/></linearGradient><path d="M381.8 248.9l-35.7-20.6-51.8-29.9c-3.5-2-8.9-2.3-12-.5l-133.6 77.2c-3.1 1.8-2.7 4.9.9 6.9l51.8 29.9 35.7 20.6c3.5 2 8.9 2.3 12 .5l133.6-77.2c3-1.7 2.6-4.8-.9-6.9z" opacity=".47" fill="url(#SVGID_4_)"/><path d="M142.8 263.2V162.1c0-5.7 1.9-8.4 5.6-10.6L282 74.4c1.4-.8 2.6-1.1 3.6-.7 0 0-2.3-1.3-2.5-1.4-1-.4-2.2-.1-3.5.7L146 150.2c-3.7 2.2-5.6 4.9-5.6 10.6v101.1c0 2.7.7 4.2 1.9 4.8l2 1.1c-.9-.7-1.5-2.2-1.5-4.6z" fill="#cbdbf5"/><path class="st0" d="M236.7 330.5c3.5 2 8.9 2.3 12 .5l133.6-77.2c1.4-.8 2.1-1.9 2.1-3v-5.5c-.1 1.1-.7 2.1-2.1 2.8l-133.6 77.2c-3.1 1.8-8.4 1.5-12-.5v5.7z"/><path class="st12" d="M236.7 324.8l-87.5-50.5c-1.8-1-2.8-2.3-2.9-3.6v5.6c.1 1.3 1.1 2.6 2.9 3.6l87.5 50.5v-5.6z"/><path class="st13" d="M345.8 220.6l35.7 20.6c3.5 2 3.9 5.1.9 6.9l-133.6 77.2c-3.1 1.8-8.4 1.5-12-.5L201 304.2l144.8-83.6z"/><path class="st13" d="M201 304.2l-51.8-29.9c-3.5-2-3.9-5.1-.9-6.9L282 190.2c3.1-1.8 8.4-1.5 12 .5l51.8 29.9L201 304.2z"/><path class="st14" d="M178.8 274.3l-6.7 3.9c-.4.2-1.1.2-1.6-.1l-6.4-3.7c-.5-.3-.5-.7-.1-.9l6.7-3.9c.4-.2 1.1-.2 1.6.1l6.4 3.7c.5.2.6.6.1.9zm9.1-5.2l-6.7 3.9c-.4.2-1.1.2-1.6-.1l-6.4-3.7c-.5-.3-.5-.7-.1-.9l6.7-3.9c.4-.2 1.1-.2 1.6.1l6.4 3.7c.5.2.5.6.1.9zm9-5.3l-6.7 3.9c-.4.2-1.1.2-1.6-.1l-6.4-3.7c-.5-.3-.5-.7-.1-.9l6.7-3.9c.4-.2 1.1-.2 1.6.1l6.4 3.7c.5.3.6.7.1.9zm9.1-5.2l-6.7 3.9c-.4.2-1.1.2-1.6-.1l-6.4-3.7c-.5-.3-.5-.7-.1-.9l6.7-3.9c.4-.2 1.1-.2 1.6.1l6.4 3.7c.4.3.5.7.1.9zm9-5.2l-6.7 3.9c-.4.2-1.1.2-1.6-.1l-6.4-3.7c-.5-.3-.5-.7-.1-.9l6.7-3.9c.4-.2 1.1-.2 1.6.1l6.4 3.7c.5.2.5.6.1.9zm9.1-5.2l-6.7 3.9c-.4.2-1.1.2-1.6-.1l-6.4-3.7c-.5-.3-.5-.7-.1-.9l6.7-3.9c.4-.2 1.1-.2 1.6.1l6.4 3.7c.4.2.5.6.1.9zm9-5.3l-6.7 3.9c-.4.2-1.1.2-1.6-.1l-6.4-3.7c-.5-.3-.5-.7-.1-.9l6.7-3.9c.4-.2 1.1-.2 1.6.1l6.4 3.7c.5.3.5.7.1.9zm9.1-5.2l-6.7 3.9c-.4.2-1.1.2-1.6-.1l-6.4-3.7c-.5-.3-.5-.7-.1-.9l6.7-3.9c.4-.2 1.1-.2 1.6.1l6.4 3.7c.4.3.5.7.1.9zm9-5.2l-6.7 3.9c-.4.2-1.1.2-1.6-.1l-6.4-3.7c-.5-.3-.5-.7-.1-.9l6.7-3.9c.4-.2 1.1-.2 1.6.1l6.4 3.7c.5.2.5.6.1.9zm9.1-5.2l-6.7 3.9c-.4.2-1.1.2-1.6-.1l-6.4-3.7c-.5-.3-.5-.7-.1-.9l6.7-3.9c.4-.2 1.1-.2 1.6.1l6.4 3.7c.4.2.5.6.1.9zm9-5.3l-6.7 3.9c-.4.2-1.1.2-1.6-.1l-6.4-3.7c-.5-.3-.5-.7-.1-.9l6.7-3.9c.4-.2 1.1-.2 1.6.1l6.4 3.7c.5.3.5.7.1.9zm9.1-5.2l-6.7 3.9c-.4.2-1.1.2-1.6-.1l-6.4-3.7c-.5-.3-.5-.7-.1-.9l6.7-3.9c.4-.2 1.1-.2 1.6.1l6.4 3.7c.4.3.5.7.1.9zm9-5.2l-6.7 3.9c-.4.2-1.1.2-1.6-.1l-6.4-3.7c-.5-.3-.5-.7-.1-.9l6.7-3.9c.4-.2 1.1-.2 1.6.1l6.4 3.7c.5.2.5.7.1.9zm13.2-7.6l-10.8 6.2c-.4.2-1.1.2-1.6-.1l-6.4-3.7c-.5-.3-.5-.7-.1-.9l10.8-6.2c.4-.2 1.1-.2 1.6.1l6.4 3.7c.4.3.5.7.1.9zm-5.9 4.4l6.7-3.9c.4-.2 1.1-.2 1.6.1l6.4 3.7c.5.3.5.7.1.9l-6.7 3.9c-.4.2-1.1.2-1.6-.1l-6.4-3.7c-.4-.3-.5-.7-.1-.9zm-9 5.2l6.7-3.9c.4-.2 1.1-.2 1.6.1l6.4 3.7c.5.3.5.7.1.9l-6.7 3.9c-.4.2-1.1.2-1.6-.1l-6.4-3.7c-.5-.3-.5-.7-.1-.9zm-9 5.2l6.7-3.9c.4-.2 1.1-.2 1.6.1l6.4 3.7c.5.3.5.7.1.9l-6.7 3.9c-.4.2-1.1.2-1.6-.1l-6.4-3.7c-.5-.2-.6-.6-.1-.9zm-9.1 5.2l6.7-3.9c.4-.2 1.1-.2 1.6.1l6.4 3.7c.5.3.5.7.1.9l-6.7 3.9c-.4.2-1.1.2-1.6-.1l-6.4-3.7c-.5-.2-.5-.6-.1-.9zm-9 5.3l6.7-3.9c.4-.2 1.1-.2 1.6.1l6.4 3.7c.5.3.5.7.1.9l-6.7 3.9c-.4.2-1.1.2-1.6-.1l-6.4-3.7c-.5-.3-.6-.7-.1-.9zm-9.1 5.2l6.7-3.9c.4-.2 1.1-.2 1.6.1l6.4 3.7c.5.3.5.7.1.9l-6.7 3.9c-.4.2-1.1.2-1.6-.1l-6.4-3.7c-.5-.3-.5-.7-.1-.9zm-9 5.2l6.7-3.9c.4-.2 1.1-.2 1.6.1l6.4 3.7c.5.3.5.7.1.9l-6.7 3.9c-.4.2-1.1.2-1.6-.1l-6.4-3.7c-.5-.2-.5-.6-.1-.9zm-9.1 5.2l6.7-3.9c.4-.2 1.1-.2 1.6.1l6.4 3.7c.5.3.5.7.1.9l-6.7 3.9c-.4.2-1.1.2-1.6-.1l-6.4-3.7c-.4-.2-.5-.6-.1-.9zm-9 5.3l6.7-3.9c.4-.2 1.1-.2 1.6.1l6.4 3.7c.5.3.5.7.1.9l-6.7 3.9c-.4.2-1.1.2-1.6-.1l-6.4-3.7c-.5-.3-.5-.7-.1-.9zm-9.1 5.2l6.7-3.9c.4-.2 1.1-.2 1.6.1l6.4 3.7c.5.3.5.7.1.9l-6.7 3.9c-.4.2-1.1.2-1.6-.1l-6.4-3.7c-.4-.3-.5-.7-.1-.9zm-9 5.2l6.7-3.9c.4-.2 1.1-.2 1.6.1l6.4 3.7c.5.3.5.7.1.9l-6.7 3.9c-.4.2-1.1.2-1.6-.1l-6.4-3.7c-.5-.2-.5-.7-.1-.9zm-9.1 5.2l6.7-3.9c.4-.2 1.1-.2 1.6.1l6.4 3.7c.5.3.5.7.1.9l-6.7 3.9c-.4.2-1.1.2-1.6-.1l-6.4-3.7c-.4-.2-.5-.6-.1-.9zm-9 5.3l6.7-3.9c.4-.2 1.1-.2 1.6.1l6.4 3.7c.5.3.5.7.1.9l-6.7 3.9c-.4.2-1.1.2-1.6-.1l-6.4-3.7c-.5-.3-.5-.7-.1-.9zm-13.2 7.5l10.8-6.2c.4-.2 1.1-.2 1.6.1l6.4 3.7c.5.3.5.7.1.9l-10.8 6.2c-.4.2-1.1.2-1.6-.1l-6.4-3.7c-.4-.2-.5-.6-.1-.9zm124.2-61.3l13.2-7.6c.4-.2 1.1-.2 1.6.1l6.4 3.7c.5.3.5.7.1.9l-13.2 7.6c-.4.2-1.1.2-1.6-.1l-6.4-3.7c-.5-.2-.5-.6-.1-.9zm-115.1 66.5l13.2-7.6c.4-.2 1.1-.2 1.6.1l6.4 3.7c.5.3.5.7.1.9l-13.2 7.6c-.4.2-1.1.2-1.6-.1l-6.4-3.7c-.5-.3-.5-.7-.1-.9zm106.1-61.2l6.7-3.9c.4-.2 1.1-.2 1.6.1l6.4 3.7c.5.3.5.7.1.9l-6.7 3.9c-.4.2-1.1.2-1.6-.1l-6.4-3.7c-.5-.3-.6-.7-.1-.9zm-9.1 5.2l6.7-3.9c.4-.2 1.1-.2 1.6.1l6.4 3.7c.5.3.5.7.1.9l-6.7 3.9c-.4.2-1.1.2-1.6-.1l-6.4-3.7c-.4-.3-.5-.7-.1-.9zm-9 5.2l6.7-3.9c.4-.2 1.1-.2 1.6.1l6.4 3.7c.5.3.5.7.1.9l-6.7 3.9c-.4.2-1.1.2-1.6-.1l-6.4-3.7c-.5-.2-.5-.7-.1-.9zm-9.1 5.2l6.7-3.9c.4-.2 1.1-.2 1.6.1l6.4 3.7c.5.3.5.7.1.9l-6.7 3.9c-.4.2-1.1.2-1.6-.1l-6.4-3.7c-.4-.2-.5-.6-.1-.9zm-9 5.3l6.7-3.9c.4-.2 1.1-.2 1.6.1l6.4 3.7c.5.3.5.7.1.9l-6.7 3.9c-.4.2-1.1.2-1.6-.1l-6.4-3.7c-.5-.3-.5-.7-.1-.9zm-9.1 5.2l6.7-3.9c.4-.2 1.1-.2 1.6.1l6.4 3.7c.5.3.5.7.1.9l-6.7 3.9c-.4.2-1.1.2-1.6-.1l-6.4-3.7c-.4-.3-.5-.7-.1-.9zm-9 5.2l6.7-3.9c.4-.2 1.1-.2 1.6.1l6.4 3.7c.5.3.5.7.1.9l-6.7 3.9c-.4.2-1.1.2-1.6-.1l-6.4-3.7c-.5-.3-.5-.7-.1-.9zm-9.1 5.2l6.7-3.9c.4-.2 1.1-.2 1.6.1l6.4 3.7c.5.3.5.7.1.9l-6.7 3.9c-.4.2-1.1.2-1.6-.1l-6.4-3.7c-.4-.2-.5-.6-.1-.9zm-9 5.2l6.7-3.9c.4-.2 1.1-.2 1.6.1l6.4 3.7c.5.3.5.7.1.9l-6.7 3.9c-.4.2-1.1.2-1.6-.1l-6.4-3.7c-.5-.2-.5-.6-.1-.9zm-9.1 5.3l6.7-3.9c.4-.2 1.1-.2 1.6.1l6.4 3.7c.5.3.5.7.1.9l-6.7 3.9c-.4.2-1.1.2-1.6-.1l-6.4-3.7c-.4-.3-.5-.7-.1-.9zm-9 5.2l6.7-3.9c.4-.2 1.1-.2 1.6.1l6.4 3.7c.5.3.5.7.1.9l-6.7 3.9c-.4.2-1.1.2-1.6-.1l-6.4-3.7c-.5-.3-.5-.7-.1-.9zm104-49.7l17.7-10.2c.4-.2 1.1-.2 1.6.1l6.4 3.7c.5.3.5.7.1.9l-17.7 10.2c-.4.2-1.1.2-1.6-.1l-6.4-3.7c-.5-.2-.5-.6-.1-.9zm-9 5.2l6.7-3.9c.4-.2 1.1-.2 1.6.1l6.4 3.7c.5.3.5.7.1.9l-6.7 3.9c-.4.2-1.1.2-1.6-.1l-6.4-3.7c-.5-.2-.6-.6-.1-.9zm-9.1 5.3l6.7-3.9c.4-.2 1.1-.2 1.6.1l6.4 3.7c.5.3.5.7.1.9l-6.7 3.9c-.4.2-1.1.2-1.6-.1l-6.4-3.7c-.4-.3-.5-.7-.1-.9zm-9 5.2l6.7-3.9c.4-.2 1.1-.2 1.6.1l6.4 3.7c.5.3.5.7.1.9l-6.7 3.9c-.4.2-1.1.2-1.6-.1l-6.4-3.7c-.5-.3-.5-.7-.1-.9zm-9.1 5.2l6.7-3.9c.4-.2 1.1-.2 1.6.1l6.4 3.7c.5.3.5.7.1.9l-6.7 3.9c-.4.2-1.1.2-1.6-.1l-6.4-3.7c-.4-.2-.5-.7-.1-.9zm-9 5.2l6.7-3.9c.4-.2 1.1-.2 1.6.1l6.4 3.7c.5.3.5.7.1.9l-6.7 3.9c-.4.2-1.1.2-1.6-.1l-6.4-3.7c-.5-.2-.5-.6-.1-.9zm-9.1 5.3l6.7-3.9c.4-.2 1.1-.2 1.6.1l6.4 3.7c.5.3.5.7.1.9l-6.7 3.9c-.4.2-1.1.2-1.6-.1l-6.4-3.7c-.4-.3-.5-.7-.1-.9zm-9 5.2l6.7-3.9c.4-.2 1.1-.2 1.6.1l6.4 3.7c.5.3.5.7.1.9l-6.7 3.9c-.4.2-1.1.2-1.6-.1l-6.4-3.7c-.5-.3-.5-.7-.1-.9zm-9.1 5.2l6.7-3.9c.4-.2 1.1-.2 1.6.1l6.4 3.7c.5.3.5.7.1.9l-6.7 3.9c-.4.2-1.1.2-1.6-.1l-6.4-3.7c-.4-.2-.5-.7-.1-.9zm-9 5.2l6.7-3.9c.4-.2 1.1-.2 1.6.1l6.4 3.7c.5.3.5.7.1.9l-6.7 3.9c-.4.2-1.1.2-1.6-.1l-6.4-3.7c-.5-.2-.5-.6-.1-.9zm-9.1 5.3l6.7-3.9c.4-.2 1.1-.2 1.6.1l6.4 3.7c.5.3.5.7.1.9l-6.7 3.9c-.4.2-1.1.2-1.6-.1l-6.4-3.7c-.4-.3-.5-.7-.1-.9zM191.1 289l17.8-10.3c.4-.2 1.1-.2 1.6.1l6.4 3.7c.5.3.5.7.1.9l-17.8 10.3c-.4.2-1.1.2-1.6-.1l-6.4-3.7c-.5-.3-.5-.7-.1-.9zm47.2-16.9l42.9-24.8c.4-.2 1.1-.2 1.6.1l6.4 3.7c.5.3.5.7.1.9l-42.9 24.8c-.4.2-1.1.2-1.6-.1l-6.4-3.7c-.4-.3-.5-.7-.1-.9zm56.3-32.5l6.7-3.9c.4-.2 1.1-.2 1.6.1l6.4 3.7c.5.3.5.7.1.9l-6.7 3.9c-.4.2-1.1.2-1.6-.1l-6.4-3.7c-.5-.2-.5-.6-.1-.9zm-11 6.4l8.7-5c.4-.2 1.1-.2 1.6.1l6.4 3.7c.5.3.5.7.1.9l-8.7 5c-.4.2-1.1.2-1.6-.1l-6.4-3.7c-.5-.3-.6-.7-.1-.9zm-58.7 33.8l-6.7 3.9c-.4.2-.4.6.1.9l6.4 3.7c.5.3 1.2.3 1.6.1l6.7-3.9c.4-.2.4-.6-.1-.9l-6.4-3.7c-.4-.3-1.2-.3-1.6-.1zm11.1-6.3l-8.7 5c-.4.2-.4.6.1.9l6.4 3.7c.5.3 1.2.3 1.6.1l8.7-5c.4-.2.4-.6-.1-.9l-6.4-3.7c-.5-.3-1.2-.4-1.6-.1zm85.7-49.6l6.7-3.9c.4-.2 1.1-.2 1.6.1l6.4 3.7c.5.3.5.7.1.9l-6.7 3.9c-.4.2-1.1.2-1.6-.1l-6.4-3.7c-.4-.2-.5-.6-.1-.9zm-9 5.3l6.7-3.9c.4-.2 1.1-.2 1.6.1l6.4 3.7c.5.3.5.7.1.9l-6.7 3.9c-.4.2-1.1.2-1.6-.1l-6.4-3.7c-.5-.3-.5-.7-.1-.9zm-9.1 5.2l6.7-3.9c.4-.2 1.1-.2 1.6.1l6.4 3.7c.5.3.5.7.1.9l-6.7 3.9c-.4.2-1.1.2-1.6-.1l-6.4-3.7c-.4-.3-.5-.7-.1-.9zm-103.5 59.8l15.8-9.1c.4-.2 1.1-.2 1.6.1l6.4 3.7c.5.3.5.7.1.9l-15.8 9.1c-.4.2-1.1.2-1.6-.1l-6.4-3.7c-.5-.3-.5-.7-.1-.9zm-30.2-25.1l-6.7 3.9c-.4.2-1.1.2-1.6-.1l-3.2-1.8c-.5-.3-.5-.7-.1-.9l6.7-3.9c.4-.2 1.1-.2 1.6.1l3.2 1.8c.4.2.5.6.1.9zm9-5.2l-6.7 3.9c-.4.2-1.1.2-1.6-.1l-3.2-1.8c-.5-.3-.5-.7-.1-.9l6.7-3.9c.4-.2 1.1-.2 1.6.1l3.2 1.8c.5.2.5.6.1.9zm9.1-5.3l-6.7 3.9c-.4.2-1.1.2-1.6-.1l-3.2-1.8c-.5-.3-.5-.7-.1-.9l6.7-3.9c.4-.2 1.1-.2 1.6.1l3.2 1.8c.4.3.5.7.1.9zm9-5.2l-6.7 3.9c-.4.2-1.1.2-1.6-.1l-3.2-1.8c-.5-.3-.5-.7-.1-.9l6.7-3.9c.4-.2 1.1-.2 1.6.1l3.2 1.8c.5.3.5.7.1.9zm9-5.2l-6.7 3.9c-.4.2-1.1.2-1.6-.1l-3.2-1.8c-.5-.3-.5-.7-.1-.9l6.7-3.9c.4-.2 1.1-.2 1.6.1l3.2 1.8c.5.2.6.7.1.9zm9.1-5.2l-6.7 3.9c-.4.2-1.1.2-1.6-.1l-3.2-1.8c-.5-.3-.5-.7-.1-.9l6.7-3.9c.4-.2 1.1-.2 1.6.1l3.2 1.8c.5.2.5.6.1.9zm9-5.3l-6.7 3.9c-.4.2-1.1.2-1.6-.1l-3.2-1.8c-.5-.3-.5-.7-.1-.9l6.7-3.9c.4-.2 1.1-.2 1.6.1l3.2 1.8c.5.3.6.7.1.9zm9.1-5.2l-6.7 3.9c-.4.2-1.1.2-1.6-.1l-3.2-1.8c-.5-.3-.5-.7-.1-.9l6.7-3.9c.4-.2 1.1-.2 1.6.1l3.2 1.8c.4.3.5.7.1.9zm9-5.2l-6.7 3.9c-.4.2-1.1.2-1.6-.1l-3.2-1.8c-.5-.3-.5-.7-.1-.9l6.7-3.9c.4-.2 1.1-.2 1.6.1l3.2 1.8c.5.2.5.7.1.9zm9.1-5.2l-6.7 3.9c-.4.2-1.1.2-1.6-.1l-3.2-1.8c-.5-.3-.5-.7-.1-.9l6.7-3.9c.4-.2 1.1-.2 1.6.1l3.2 1.8c.4.2.5.6.1.9zm9-5.3l-6.7 3.9c-.4.2-1.1.2-1.6-.1l-3.2-1.8c-.5-.3-.5-.7-.1-.9l6.7-3.9c.4-.2 1.1-.2 1.6.1l3.2 1.8c.5.3.5.7.1.9zm9.1-5.2l-6.7 3.9c-.4.2-1.1.2-1.6-.1l-3.2-1.8c-.5-.3-.5-.7-.1-.9l6.7-3.9c.4-.2 1.1-.2 1.6.1l3.2 1.8c.4.3.5.7.1.9zm9-5.2l-6.7 3.9c-.4.2-1.1.2-1.6-.1l-3.2-1.8c-.5-.3-.5-.7-.1-.9l6.7-3.9c.4-.2 1.1-.2 1.6.1l3.2 1.8c.5.3.5.7.1.9zm13.2-7.6l-10.8 6.2c-.4.2-1.1.2-1.6-.1l-3.2-1.8c-.5-.3-.5-.7-.1-.9l10.8-6.2c.4-.2 1.1-.2 1.6.1l3.2 1.8c.4.3.5.7.1.9z"/><path class="st12" d="M325.4 279.8l-21.8 12.6c-.6.3-.6.9 0 1.2l23.9-13.8c-.6-.3-1.6-.3-2.1 0zm-52.2-82.7l-113 65.2-1.5-.9 113-65.2z"/><path d="M201 304.2l-51.8-29.9c-3.5-2-3.9-5.1-.9-6.9L282 190.2c3.1-1.8 8.4-1.5 12 .5l51.8 29.9L201 304.2z" opacity=".4" fill="#a0afd5"/><path class="st12" d="M142.8 162.1v101.1l-2.4-1.4V160.7z"/><path class="st16" d="M282 190.2l-133.6 77.2c-3.1 1.8-5.6.8-5.6-4.2V162.1c0-5.7 1.9-8.4 5.6-10.6L282 74.4c3.1-1.8 5.6-1 5.6 4.2v101.1c-.1 6.5-2.3 8.6-5.6 10.5z"/><path class="st14" d="M282.4 75L148 152.5c-2.5 1.4-4.5 4.9-4.5 7.7v104c0 2.8 2 4 4.5 2.6l134.4-77.6c2.5-1.4 4.5-4.9 4.5-7.7v-104c-.1-2.8-2.1-4-4.5-2.5z"/><path id="XMLID_1_" class="st16" d="M148.7 255.3v-97.2l133-76.8v97.2z"/><defs><path id="SVGID_5_" d="M148.7 255.3v-97.2l133-76.8v97.2z"/></defs><clipPath id="SVGID_6_"><use xlink:href="#SVGID_5_" overflow="visible"/></clipPath><g opacity=".1" clip-path="url(#SVGID_6_)"><path class="st0" d="M77.4 209.5c-2-1.9-1.1-4.8 1.9-6.4l128.1-67.9c1.3-.7 2.8-1 4.3-1l7.4-.1c-1.4 0-2.9.4-4.1 1l-128.1 68c-3 1.6-3.9 4.5-1.9 6.4h-7.6zm7.6.1l51.9 50.8c1.1 1.1 2.8 1.7 4.6 1.9l-7.4-.2h-.8c-1.8-.1-3.5-.8-4.6-1.9l-51.3-50.7 7.6.1z"/><path class="st13" d="M247.4 153.1l-23.1-17.6c-2.2-1.7-6.4-1.9-9.2-.3L87 203.2c-3 1.6-3.9 4.5-1.9 6.4l20.4 20 141.9-76.5z"/><path class="st13" d="M105.4 229.6l31.5 30.8c2.2 2.2 6.7 2.5 9.9.8L282 186.7c3-1.7 3.4-4.6.9-6.5l-35.5-27.1-142 76.5z"/><path class="st14" d="M143 243l-6.9 3.7c-.4.2-.5.6-.2.9l4 3.9c.3.3.9.3 1.3.1l6.9-3.8c.4-.2.5-.6.2-.9l-4-3.8c-.3-.3-.9-.3-1.3-.1zm9.2-5.1l-6.8 3.7c-.4.2-.5.6-.2.9l4 3.8c.3.3.9.3 1.3.1l6.9-3.8c.4-.2.5-.6.2-.9l-4.1-3.8c-.3-.1-.9-.2-1.3 0zm9.3-5l-6.8 3.7c-.4.2-.5.6-.2.9l4.1 3.8c.3.3.9.3 1.3.1l6.8-3.7c.4-.2.5-.6.2-.9l-4.1-3.8c-.4-.3-.9-.3-1.3-.1zm9.1-5l-6.8 3.7c-.4.2-.5.6-.2.9l4.1 3.8c.3.3.9.3 1.3.1l6.8-3.7c.4-.2.5-.6.2-.9l-4.1-3.7c-.3-.4-.8-.4-1.3-.2zm9.2-5l-6.8 3.7c-.4.2-.5.6-.2.9l4.1 3.7c.3.3.9.3 1.3.1l6.8-3.7c.4-.2.5-.6.2-.9L181 223c-.2-.3-.8-.3-1.2-.1zm9.1-5l-6.7 3.7c-.4.2-.5.6-.2.9l4.2 3.7c.3.3.9.3 1.3.1l6.8-3.7c.4-.2.5-.6.2-.9l-4.2-3.7c-.4-.3-1-.3-1.4-.1zm9.1-4.9l-6.7 3.7c-.4.2-.5.6-.2.9l4.2 3.7c.3.3.9.3 1.3.1l6.7-3.7c.4-.2.5-.6.2-.9l-4.2-3.7c-.3-.3-.9-.4-1.3-.1zm9-5l-6.7 3.6c-.4.2-.5.6-.2.9l4.2 3.7c.3.3.9.3 1.3.1l6.7-3.7c.4-.2.5-.6.2-.9l-4.3-3.6c-.2-.3-.8-.3-1.2-.1zm9-4.9l-6.7 3.6c-.4.2-.5.6-.2.9l4.3 3.6c.3.3.9.3 1.3.1l6.7-3.7c.4-.2.5-.6.2-.9l-4.3-3.6c-.3-.2-.8-.2-1.3 0zm9-4.9l-6.6 3.6c-.4.2-.5.6-.2.9l4.3 3.6c.3.3.9.3 1.3.1l6.7-3.6c.4-.2.5-.6.2-.9l-4.3-3.6c-.4-.3-1-.3-1.4-.1zm9-4.9l-6.6 3.6c-.4.2-.5.6-.2.9l4.3 3.6c.3.3.9.3 1.3.1l6.6-3.6c.4-.2.5-.6.1-.9l-4.4-3.5c-.2-.4-.7-.4-1.1-.2zm8.9-4.8l-6.6 3.6c-.4.2-.5.6-.2.9l4.4 3.5c.3.3.9.3 1.3.1l6.6-3.6c.4-.2.5-.6.1-.9l-4.4-3.5c-.2-.3-.8-.3-1.2-.1zm8.8-4.9l-6.6 3.6c-.4.2-.5.6-.1.9l4.4 3.5c.3.3.9.3 1.3.1l6.6-3.6c.4-.2.5-.6.1-.9l-4.4-3.5c-.3-.3-.9-.3-1.3-.1zm12.8-7l-10.5 5.7c-.4.2-.5.6-.1.9l4.4 3.5c.3.3.9.3 1.3.1l10.6-5.8c.4-.2.5-.6.1-.9l-4.5-3.4c-.3-.3-.9-.3-1.3-.1zm-7.1 3.1l6.5-3.6c.4-.2.5-.6.1-.8l-4.4-3.4c-.3-.2-.9-.3-1.3-.1l-6.5 3.5c-.4.2-.5.6-.1.8l4.4 3.4c.3.4.9.4 1.3.2zm-8.8 4.8l6.5-3.6c.4-.2.5-.6.1-.9l-4.4-3.4c-.3-.3-.9-.3-1.3-.1L243 180c-.4.2-.5.6-.1.9l4.4 3.5c.3.3.9.4 1.3.1zm-8.9 4.9l6.6-3.6c.4-.2.5-.6.1-.9l-4.3-3.5c-.3-.3-.9-.3-1.3-.1l-6.5 3.6c-.4.2-.5.6-.2.9l4.3 3.5c.3.3.9.3 1.3.1zm-8.9 4.8l6.6-3.6c.4-.2.5-.6.1-.9l-4.3-3.5c-.3-.3-.9-.3-1.3-.1l-6.6 3.6c-.4.2-.5.6-.2.9l4.3 3.5c.4.3 1 .4 1.4.1zm-8.9 4.9l6.6-3.6c.4-.2.5-.6.2-.9l-4.3-3.5c-.3-.3-.9-.3-1.3-.1l-6.6 3.6c-.4.2-.5.6-.2.9l4.3 3.5c.3.3.9.4 1.3.1zm-9 4.9l6.6-3.6c.4-.2.5-.6.2-.9l-4.3-3.5c-.3-.3-.9-.3-1.3-.1l-6.6 3.6c-.4.2-.5.6-.2.9l4.2 3.6c.4.2 1 .3 1.4 0zm-9 4.9l6.7-3.6c.4-.2.5-.6.2-.9l-4.2-3.6c-.3-.3-.9-.3-1.3-.1l-6.6 3.6c-.4.2-.5.6-.2.9l4.2 3.6c.2.3.8.4 1.2.1zm-9.1 5l6.7-3.7c.4-.2.5-.6.2-.9l-4.2-3.6c-.3-.3-.9-.3-1.3-.1l-6.7 3.6c-.4.2-.5.6-.2.9l4.2 3.6c.3.4.9.4 1.3.2zm-9.1 4.9l6.7-3.7c.4-.2.5-.6.2-.9l-4.2-3.6c-.3-.3-.9-.3-1.3-.1l-6.7 3.6c-.4.2-.5.6-.2.9l4.1 3.7c.4.3 1 .4 1.4.1zm-9.1 5l6.7-3.7c.4-.2.5-.6.2-.9l-4.1-3.7c-.3-.3-.9-.3-1.3-.1l-6.7 3.7c-.4.2-.5.6-.2.9l4.1 3.7c.3.3.9.3 1.3.1zm-9.2 5l6.8-3.7c.4-.2.5-.6.2-.9l-4.1-3.7c-.3-.3-.9-.3-1.3-.1l-6.7 3.7c-.4.2-.5.6-.2.9l4.1 3.7c.2.3.8.3 1.2.1zm-9.2 5l6.8-3.7c.4-.2.5-.6.2-.9l-4.1-3.7c-.3-.3-.9-.3-1.3-.1l-6.8 3.7c-.4.2-.5.6-.2.9l4 3.7c.5.3 1 .4 1.4.1zm-9.2 5.1l6.8-3.7c.4-.2.5-.6.2-.9l-4-3.7c-.3-.3-.9-.3-1.3-.1l-6.8 3.7c-.4.2-.5.6-.2.9l4 3.8c.3.2.9.2 1.3 0zm-13.5 7.3l11.1-6c.4-.2.5-.6.2-.9l-4-3.8c-.3-.3-.9-.3-1.3-.1l-11 6c-.4.2-.5.6-.2.9l4 3.8c.2.3.8.3 1.2.1zm109.4-67.8l12.8-7c.4-.2.5-.6.1-.8l-4.4-3.4c-.3-.2-.9-.3-1.3-.1l-12.8 6.9c-.4.2-.5.6-.1.8l4.3 3.4c.5.4 1 .4 1.4.2zm-114.8 62.4l13.5-7.3c.4-.2.5-.6.2-.9l-4-3.7c-.3-.3-.9-.3-1.3-.1l-13.4 7.3c-.4.2-.5.6-.2.9l3.9 3.8c.3.2.9.3 1.3 0zm106-57.6l6.5-3.5c.4-.2.5-.6.1-.8l-4.3-3.4c-.3-.3-.9-.3-1.3-.1l-6.5 3.5c-.4.2-.5.6-.2.8l4.3 3.4c.4.3 1 .3 1.4.1zm-8.8 4.8l6.6-3.6c.4-.2.5-.6.2-.9l-4.3-3.4c-.3-.3-.9-.3-1.3-.1l-6.5 3.5c-.4.2-.5.6-.2.9l4.2 3.5c.3.3.9.3 1.3.1zm-8.9 4.8l6.6-3.6c.4-.2.5-.6.2-.9l-4.2-3.5c-.3-.3-.9-.3-1.3-.1l-6.5 3.5c-.4.2-.5.6-.2.9l4.2 3.5c.2.4.8.4 1.2.2zm-9 4.9l6.6-3.6c.4-.2.5-.6.2-.9l-4.2-3.5c-.3-.3-.9-.3-1.3-.1l-6.6 3.6c-.4.2-.5.6-.2.9l4.2 3.5c.4.3.9.3 1.3.1zm-8.9 4.8l6.6-3.6c.4-.2.5-.6.2-.9l-4.2-3.5c-.3-.3-.9-.3-1.3-.1l-6.6 3.6c-.4.2-.5.6-.2.9l4.2 3.5c.3.3.9.4 1.3.1zm-9 4.9l6.7-3.6c.4-.2.5-.6.2-.9l-4.2-3.5c-.3-.3-.9-.3-1.3-.1l-6.6 3.6c-.4.2-.5.6-.2.9l4.1 3.6c.3.2.9.3 1.3 0zm-9.1 5l6.7-3.6c.4-.2.5-.6.2-.9l-4.1-3.6c-.3-.3-.9-.3-1.3-.1l-6.6 3.6c-.4.2-.5.6-.2.9l4.1 3.6c.3.2.8.3 1.2.1zm-9 4.9l6.7-3.6c.4-.2.5-.6.2-.9l-4.1-3.6c-.3-.3-.9-.3-1.3-.1l-6.7 3.6c-.4.2-.5.6-.2.9l4.1 3.6c.3.3.9.3 1.3.1zm-9.1 4.9l6.7-3.7c.4-.2.5-.6.2-.9l-4.1-3.6c-.3-.3-.9-.3-1.3-.1l-6.7 3.6c-.4.2-.5.6-.2.9l4 3.7c.4.3 1 .4 1.4.1zm-9.2 5l6.8-3.7c.4-.2.5-.6.2-.9l-4-3.7c-.3-.3-.9-.3-1.3-.1l-6.7 3.6c-.4.2-.5.6-.2.9l4 3.7c.2.4.8.4 1.2.2zm-9.1 5l6.8-3.7c.4-.2.5-.6.2-.9l-4-3.7c-.3-.3-.9-.3-1.3-.1l-6.8 3.7c-.4.2-.5.6-.2.9l4 3.7c.3.3.8.3 1.3.1zm88.5-56.2l17.1-9.3c.4-.2.5-.6.1-.8l-4.3-3.3c-.3-.2-.9-.3-1.3-.1l-17.1 9.2c-.4.2-.5.6-.2.8l4.2 3.4c.6.2 1.1.3 1.5.1zm-8.8 4.7l6.5-3.5c.4-.2.5-.6.2-.8l-4.2-3.4c-.3-.2-.9-.3-1.3-.1l-6.5 3.5c-.4.2-.5.6-.2.8l4.2 3.4c.4.3.9.3 1.3.1zm-8.8 4.8l6.5-3.5c.4-.2.5-.6.2-.8l-4.2-3.4c-.3-.2-.9-.3-1.3-.1l-6.5 3.5c-.4.2-.5.6-.2.8l4.2 3.4c.3.3.9.3 1.3.1zm-8.9 4.8l6.6-3.6c.4-.2.5-.6.2-.9l-4.2-3.4c-.3-.3-.9-.3-1.3-.1l-6.5 3.5c-.4.2-.5.6-.2.9l4.1 3.5c.4.3.9.3 1.3.1zm-8.9 4.8l6.6-3.6c.4-.2.5-.6.2-.9l-4.1-3.5c-.3-.3-.9-.3-1.3-.1l-6.6 3.5c-.4.2-.5.6-.2.9l4.1 3.5c.4.4.9.5 1.3.2zm-8.9 4.9l6.6-3.6c.4-.2.5-.6.2-.9l-4.1-3.5c-.3-.3-.9-.3-1.3-.1l-6.6 3.6c-.4.2-.5.6-.2.9l4.1 3.5c.3.3.9.3 1.3.1zm-9 4.8l6.6-3.6c.4-.2.5-.6.2-.9l-4.1-3.5c-.3-.3-.9-.3-1.3-.1l-6.6 3.6c-.4.2-.5.6-.2.9l4.1 3.5c.4.3.9.4 1.3.1zm-9 4.9l6.7-3.6c.4-.2.5-.6.2-.9l-4.1-3.5c-.3-.3-.9-.3-1.3-.1l-6.6 3.6c-.4.2-.5.6-.2.9l4 3.6c.4.2.9.3 1.3 0zm-9 4.9l6.7-3.6c.4-.2.5-.6.2-.9l-4-3.6c-.3-.3-.9-.3-1.3-.1l-6.7 3.6c-.4.2-.5.6-.2.9l4 3.6c.3.3.9.4 1.3.1zm-9.1 5l6.7-3.6c.4-.2.5-.6.2-.9l-4-3.6c-.3-.3-.9-.3-1.3-.1L149 215c-.4.2-.5.6-.2.9l4 3.6c.3.2.9.3 1.3.1zm-9.1 4.9l6.7-3.7c.4-.2.5-.6.2-.9l-4-3.6c-.3-.3-.9-.3-1.3-.1l-6.7 3.6c-.4.2-.5.6-.2.9l3.9 3.7c.4.3 1 .3 1.4.1zm-20.4 11l18-9.8c.4-.2.5-.6.2-.9l-3.9-3.7c-.3-.3-.9-.3-1.3-.1l-17.9 9.7c-.4.2-.5.6-.2.9l3.9 3.7c.2.4.8.5 1.2.2zm33-25.9l42.3-22.9c.4-.2.5-.6.2-.8l-4.1-3.4c-.3-.3-.9-.3-1.3-.1l-42.1 22.7c-.4.2-.5.6-.2.9l3.9 3.6c.3.2.9.2 1.3 0zm55.4-29.9l6.5-3.5c.4-.2.5-.6.2-.8l-4.2-3.4c-.3-.2-.9-.3-1.3-.1l-6.5 3.5c-.4.2-.5.6-.2.8l4.1 3.4c.4.3 1 .3 1.4.1zm-10.8 5.8l8.4-4.6c.4-.2.5-.6.2-.8l-4.1-3.4c-.3-.2-.9-.3-1.3-.1l-8.4 4.5c-.4.2-.5.6-.2.8l4.1 3.4c.4.4.9.4 1.3.2zm-58 31.3l-6.7 3.6c-.4.2-1 .2-1.3-.1l-3.9-3.6c-.3-.3-.2-.7.2-.9l6.7-3.6c.4-.2 1-.2 1.3.1l3.9 3.6c.3.3.2.7-.2.9zm11-5.9l-8.7 4.7c-.4.2-1 .2-1.3-.1l-3.9-3.6c-.3-.3-.2-.7.2-.9l8.6-4.6c.4-.2 1-.2 1.3.1l3.9 3.6c.4.1.3.5-.1.8zm84-45.4l6.4-3.5c.4-.2.5-.6.1-.8l-4.2-3.3c-.3-.2-.9-.3-1.3-.1l-6.4 3.4c-.4.2-.5.6-.1.8l4.2 3.3c.4.4.9.4 1.3.2zm-8.7 4.7l6.4-3.5c.4-.2.5-.6.1-.8l-4.2-3.3c-.3-.2-.9-.3-1.3-.1l-6.4 3.5c-.4.2-.5.6-.2.8l4.2 3.3c.4.3 1 .3 1.4.1zm-8.7 4.7l6.5-3.5c.4-.2.5-.6.2-.8l-4.2-3.3c-.3-.2-.9-.3-1.3-.1l-6.4 3.5c-.4.2-.5.6-.2.8l4.2 3.4c.2.2.8.2 1.2 0zm-102.6 55.4l15.9-8.6c.4-.2.5-.6.2-.9l-3.9-3.6c-.3-.3-.8-.3-1.3-.1l-15.9 8.6c-.4.2-.5.6-.2.9l3.8 3.7c.4.2 1 .3 1.4 0zm29.4 18.1l-6.9 3.8c-.4.2-.5.7-.2.9l2 1.9c.3.3.9.3 1.3.1l6.9-3.8c.4-.2.5-.7.2-.9l-2-1.9c-.3-.3-.9-.3-1.3-.1zm9.3-5.1l-6.9 3.8c-.4.2-.5.6-.2.9l2 1.9c.3.3.9.3 1.3.1l6.9-3.8c.4-.2.5-.6.2-.9l-2-1.9c-.3-.3-.8-.3-1.3-.1zm9.3-5.1l-6.8 3.8c-.4.2-.5.6-.2.9l2 1.9c.3.3.9.3 1.3.1l6.9-3.8c.4-.2.5-.6.2-.9l-2.1-1.9c-.3-.3-.9-.3-1.3-.1zm9.2-5l-6.8 3.7c-.4.2-.5.6-.2.9l2.1 1.9c.3.3.9.3 1.3.1l6.8-3.8c.4-.2.5-.6.2-.9l-2.1-1.9c-.3-.2-.8-.3-1.3 0zm9.2-5.1l-6.8 3.7c-.4.2-.5.6-.2.9l2.1 1.9c.3.3.9.3 1.3.1l6.8-3.7c.4-.2.5-.6.2-.9l-2.1-1.9c-.3-.3-.8-.3-1.3-.1zm9.2-5l-6.8 3.7c-.4.2-.5.6-.2.9l2.1 1.9c.3.3.9.3 1.3.1l6.8-3.7c.4-.2.5-.6.2-.9l-2.1-1.9c-.3-.3-.9-.3-1.3-.1zm9.1-5l-6.7 3.7c-.4.2-.5.6-.2.9l2.1 1.9c.3.3.9.3 1.3.1l6.8-3.7c.4-.2.5-.6.2-.9l-2.1-1.8c-.4-.4-1-.4-1.4-.2zm9.1-5l-6.7 3.7c-.4.2-.5.6-.2.9l2.1 1.8c.3.3.9.3 1.3.1l6.7-3.7c.4-.2.5-.6.2-.9l-2.1-1.8c-.3-.3-.9-.3-1.3-.1zm9.1-4.9l-6.7 3.7c-.4.2-.5.6-.2.9l2.1 1.8c.3.3.9.3 1.3.1l6.7-3.7c.4-.2.5-.6.2-.9l-2.2-1.8c-.2-.3-.8-.4-1.2-.1zm9-5l-6.7 3.6c-.4.2-.5.6-.2.9l2.2 1.8c.3.3.9.3 1.3.1l6.7-3.7c.4-.2.5-.6.2-.9l-2.2-1.8c-.3-.2-.9-.2-1.3 0zm9-4.9l-6.6 3.6c-.4.2-.5.6-.2.9l2.2 1.8c.3.3.9.3 1.3.1l6.7-3.6c.4-.2.5-.6.1-.9l-2.2-1.8c-.3-.3-.9-.3-1.3-.1zm8.9-4.9l-6.6 3.6c-.4.2-.5.6-.1.9l2.2 1.8c.3.3.9.3 1.3.1l6.6-3.6c.4-.2.5-.6.1-.9l-2.2-1.8c-.3-.3-.9-.3-1.3-.1zm8.9-4.9l-6.6 3.6c-.4.2-.5.6-.1.9l2.2 1.8c.3.3.9.3 1.3.1l6.6-3.6c.4-.2.5-.6.1-.9l-2.2-1.8c-.3-.3-.9-.3-1.3-.1zm12.9-7l-10.6 5.8c-.4.2-.5.6-.1.9l2.2 1.7c.3.3.9.3 1.3.1l10.6-5.8c.4-.2.5-.6.1-.9l-2.2-1.7c-.3-.3-.9-.3-1.3-.1z"/><path class="st12" d="M162.9 163.7L142 174.8c-.6.3-1.3.3-1.6 0l22.9-12.2c.4.3.2.8-.4 1.1zm107.9 27.8l-114.3 62.8 1 .9 114.4-62.9z"/><path d="M105.4 229.6l31.5 30.8c2.2 2.2 6.7 2.5 9.9.8L282 186.7c3-1.7 3.4-4.6.9-6.5l-35.5-27.1-142 76.5z" opacity=".5" fill="#a0afd5"/></g><path opacity=".2" fill="#eff6fc" d="M263.3 189.1l-84.2-48.6 102.6-59.2v97.2z"/><path class="st0" d="M322.2 262.5l-18.5-10.7c-1.1-.6-2.9-.6-4 0L255 277.6c-1.1.6-1.1 1.7 0 2.3l18.5 10.7 48.7-28.1zm-24 14.7l-24 13.8 10 5.8c1.1.6 2.9.6 4 0l22-12.7-12-6.9zm.8-.5l12 6.9 22-12.7c1.1-.6 1.1-1.7 0-2.3l-10-5.8-24 13.9z"/><path d="M255 278.6l44.7-25.8c1.1-.6 2.9-.6 4 0l17.6 10.2.9-.5-18.5-10.7c-1.1-.6-2.9-.6-4 0L255 277.6c-.8.5-1 1.1-.7 1.7.2-.3.4-.5.7-.7zm43.2-.4l11.1 6.4.9-.5-12-6.9-24 13.8.9.5zm24.7-14.3l10 5.8c.3.2.5.4.7.6.3-.6.1-1.2-.7-1.6l-10-5.8-24 13.8.9.5 23.1-13.3z" opacity=".6" fill="#a0afd5"/><path d="M413.9 225.4c-2.3-14.4-32.3-29.8-48.3-25.2-2.4.7-4.7 2.3-6.3 3.3-5.4 3.3-4.9 9.1 1.4 12.7l27 15.6c6.3 3.6 15.8 4 21.2.9l1.5-.8c2.9-1.8 4-4.1 3.5-6.5z" opacity=".4" fill="#1b1c63"/><path class="st14" d="M414.1 223.2c-.1 1.9-1.3 3.7-3.7 5.1l-1.5.8c-5.4 3.1-14.9 2.7-21.2-.9l-27-15.6c-3.3-1.9-5.1-4.4-5.2-6.7v2.3c.1 2.4 1.8 4.9 5.2 6.8l27 15.6c6.3 3.6 15.8 4 21.2.9l1.5-.8c2.4-1.4 3.6-3.2 3.7-5.2v-2.3z"/><path class="st12" d="M414.1 222.7c0 .2.6 3.4-5.1 6.4-5.4 3.1-14.9 2.7-21.2-.9l-27-15.6c-3.1-1.8-4.8-4-5.1-6.2.1 2.3 1.8 4.8 5.2 6.7l27 15.6c6.3 3.6 15.8 4 21.2.9l1.5-.8c2.4-1.4 3.6-3.2 3.7-5.2l-.2-.9z"/><path class="st13" d="M414 221.9c-2.3-14.4-32.3-29.8-48.3-25.2-2.4.7-4.7 2.3-6.3 3.3-5.4 3.3-4.9 9.1 1.4 12.7l27 15.6c6.3 3.6 15.8 4 21.2.9l1.5-.8c2.8-1.8 4-4.1 3.5-6.5z"/><path class="st22" d="M239.9 390.6c0-.1 0 0 0 0zm-.8 1.3l-59 34-59.1 34.2c-1.3.8-2.9.8-4.2 0l-89.1-51.5c-.5-.3-.8-.8-.8-1.4v2.2c0 .5.3 1.1.8 1.4l89.1 51.5c1.3.8 2.9.8 4.2 0l54.3-31.4s3.2-.4 5.9-1.9 3.8-3.7 3.8-3.7l54.1-31.2c.5-.3.8-.8.8-1.3v-2.2c0 .5-.3 1-.8 1.3z"/><path d="M239.1 389.2l-5.2-3v4.3L118.8 457l-86.3-49.8v-3.8l-4.9 2.5c-1.1.6-1.2 2.2-.1 2.8l89.1 51.5c1.3.8 2.9.8 4.2 0L180 426l59-34c1.1-.7 1.1-2.2.1-2.8z" fill="#529bde"/><path class="st22" d="M171.5 426.6l3.7 2.2s3.2-.4 5.9-1.9 3.8-3.7 3.8-3.7-3.4-2-3.7-2.2l-9.7 5.6z"/><path class="st22" d="M118.8 457l-86.2-49.8v.6l86.2 49.8 60.7-31.2 54.4-35.4v-.4l-55.5 32z"/><path class="st0" d="M32.6 399.2l67.1-20.9 76.7 44.3-57.6 26.5z"/><path class="st24" d="M118.8 457l57.6-29.9v-4.5l-57.6 26.5z"/><path class="st13" d="M118.8 457l-86.2-49.8v-8l86.2 49.9z"/><path class="st25" d="M118.8 457l-86.2-49.8v-.6l86.2 49.8zm0-1.2L32.6 406v-.6l86.2 49.8zm0-1.2l-86.2-49.8v-.6l86.2 49.8zm0-1.2l-86.2-49.9v-.6l86.2 49.8zm0-1.3l-86.2-49.8v-.6l86.2 49.8zm0-1.2l-86.2-49.8v-.6l86.2 49.8zm0-1.2l-86.2-49.9v-.6l86.2 49.9z"/><path class="st13" d="M118.8 457l57.6-29.4v-.4l-57.6 29.2zm0-1.2l57.6-29v-.4l-57.6 28.8zm0-1.2l57.6-28.6v-.3L118.8 454zm0-1.2l57.6-28.1v-.4l-57.6 27.8zm0-1.3l57.6-27.6v-.4l-57.6 27.4zm0-1.2l57.6-27.1v-.4l-57.6 26.9zm0-1.2l57.6-26.7v-.4l-57.6 26.5z"/><path class="st24" d="M176.4 422.6v4.5l57.5-36.5v-8z"/><path class="st12" d="M176.4 422.6l57.5-40-76.7-44.2-57.5 39.9z"/><path class="st13" d="M233.9 390.6l-57.5 37v-.4l57.5-37.2zm0-1.2l-57.5 37.4v-.4l57.5-37.7zm0-1.3L176.4 426v-.3l57.5-38.2zm0-1.2l-57.5 38.4v-.4l57.5-38.6zm0-1.2l-57.5 38.8v-.4l57.5-39zm0-1.3l-57.5 39.4v-.4l57.5-39.6zm0-1.2L176.4 423v-.4l57.5-40z"/><path class="st26" d="M176.4 422.6l-57.6 22.1"/><path class="st25" d="M118.8 444.7l-86.2-49.8 67.1-16.6 76.7 44.3"/><path class="st13" d="M118.8 445.4l-86.2-49.9v-.6l86.2 49.8z"/><path class="st24" d="M118.8 445.4l57.6-22.8-57.6 22.1z"/><path class="st13" d="M99.7 378.3l57.4-44.3 76.8 44.3-57.5 44.3z"/><path class="st26" d="M157.1 334l76.8 44.3m-57.5 44.3l-76.7-44.3m76.7 44.3l-76.7-44.3m134.2 0l-57.5 44.3"/><path class="st24" d="M233.9 378.9l-57.5 43.7 57.5-44.3z"/><linearGradient id="SVGID_7_" gradientUnits="userSpaceOnUse" x1="108.866" y1="-465.563" x2="170.592" y2="-465.563" gradientTransform="matrix(1 0 0 -1 0 -64)"><stop offset=".346" stop-color="#8a8a8a"/><stop offset=".37" stop-color="#929292"/><stop offset=".458" stop-color="#adadad"/><stop offset=".555" stop-color="#c2c2c2"/><stop offset=".663" stop-color="#d0d0d0"/><stop offset=".793" stop-color="#d9d9d9"/><stop offset="1" stop-color="#dbdbdb"/></linearGradient><path d="M170.1 415.9l-54.5-31.5c-.2-.1-.5-.2-.8-.1l-5.8-1.2h-.1c-.1 0-.1.1-.1.2l3.9 4.4c.1.3.2.6.5.7l54.4 31.4c.3.3.8.3 1.3 0 .9-.5 1.6-1.8 1.6-2.8.1-.5-.1-.9-.4-1.1z" opacity=".58" fill="url(#SVGID_7_)"/><path class="st28" d="M116.2 382.9l-5.2-1.1c-.2.2-.4.4-.6.7l3.6 4.1 2.2-3.7z"/><path class="st29" d="M111.1 381.9l-1.1-.2h-.1c-.1 0-.1.1-.1.2l.6.7c.3-.3.5-.6.7-.7z"/><path d="M116.6 382.9c-.3-.2-.7-.2-1.2.1-.9.5-1.6 1.8-1.6 2.8 0 .5.2.9.5 1.1l54.4 31.4 2.5-3.9-54.6-31.5z" fill="#00859f"/><ellipse transform="rotate(-59.689 169.853 416.4)" class="st28" cx="169.9" cy="416.4" rx="2.3" ry="1.3"/><path class="st31" d="M446.5 342.1l-82 47.3c-1.6.9-4.5.8-6.3-.3l-60.7-35c-1.9-1.1-2.1-2.7-.5-3.7l82-47.3c1.6-.9 4.5-.8 6.3.3l60.7 35c2 1.1 2.2 2.8.5 3.7z"/><path d="M297.1 350.4l58.6-33.8 14.7-8.5 7.3-4.2c2.2-1.8 5.6-1.9 8-.4l29.3 16.9 29.3 16.9 1.8 1.1c.6.4 1.2.8 1.5 1.5s0 1.5-.5 1.9c-.6.4-1.2.7-1.8 1.1l-7.3 4.2-14.7 8.5-58.6 33.8 58.5-33.9 14.6-8.5 7.3-4.2c.6-.4 1.3-.7 1.8-1.1s.7-1.1.5-1.7-.8-1-1.4-1.4l-1.8-1.1-29.3-16.9-29.3-17c-1.2-.7-2.6-1-3.9-1-.7 0-1.4.1-2 .4s-1.2.7-1.8 1l-7.3 4.2-14.7 8.4-58.8 33.8z" fill="#96847e"/><path class="st33" d="M445 339.7l-84.7 48.9c-.5.3-1.4.2-1.9-.1L298.7 354c-.6-.3-.6-.8-.1-1.1l84.7-48.9c.5-.3 1.4-.2 1.9.1l59.7 34.5c.6.3.6.8.1 1.1z"/><path class="st34" d="M328.6 361.1l-2 1.2c-.7.4-1.9.4-2.7-.1l-12.8-7.4c-.8-.5-.9-1.2-.2-1.6l2-1.2c.7-.4 1.9-.4 2.7.1l12.8 7.4c.8.4.9 1.1.2 1.6z"/><path class="st35" d="M313.6 356.2l4.5-2.7"/><path class="st36" d="M313.5 356.1l4.5-2.6"/><path class="st35" d="M317.5 358.4l4.5-2.6"/><path class="st36" d="M317.4 358.4l4.6-2.6"/><path class="st35" d="M321.4 360.7l4.6-2.6"/><path class="st36" d="M321.4 360.6l4.5-2.6"/><path class="st37" d="M310.9 353.1c.7-.4 1.4-.9 2.1-1.3.8-.3 1.7-.3 2.5.1l4.3 2.4 4.3 2.5c1.4.8 2.8 1.7 4.3 2.6l-8.6-5-4.3-2.5c-.7-.3-1.6-.4-2.4-.1-.8.5-1.5.9-2.2 1.3z"/><path class="st38" d="M328.6 361.1c-.7.4-1.4.8-2.2 1.2-.8.3-1.7.2-2.4-.1l-4.3-2.5-8.6-5c1.5.7 3 1.5 4.4 2.3 1.5.8 2.9 1.6 4.3 2.4l4.3 2.5c.7.3 1.5.4 2.2.2.8-.3 1.5-.7 2.3-1z"/><path class="st34" d="M361.3 379.9l-2 1.2c-.7.4-1.9.4-2.7-.1l-12.8-7.4c-.8-.5-.9-1.2-.2-1.6l2-1.2c.7-.4 1.9-.4 2.7.1l12.8 7.4c.8.4.9 1.1.2 1.6z"/><path class="st35" d="M346.3 375l4.6-2.7"/><path class="st36" d="M346.2 374.9l4.6-2.6"/><path class="st35" d="M350.3 377.2l4.5-2.6"/><path class="st36" d="M350.2 377.2l4.5-2.6"/><path class="st35" d="M354.2 379.5l4.5-2.6"/><path class="st36" d="M354.1 379.4l4.5-2.6"/><path class="st37" d="M343.6 371.9c.7-.4 1.4-.9 2.1-1.3.8-.3 1.7-.3 2.5.1l4.3 2.4 4.3 2.5c1.4.8 2.8 1.7 4.3 2.6l-8.6-5-4.3-2.5c-.7-.3-1.6-.4-2.4-.1-.7.5-1.4.9-2.2 1.3z"/><path class="st38" d="M361.3 379.9c-.7.4-1.4.8-2.2 1.2-.8.3-1.7.2-2.4-.1l-4.3-2.5-8.6-5c1.5.7 3 1.5 4.4 2.3 1.5.8 2.9 1.6 4.3 2.4l4.3 2.5c.7.3 1.5.4 2.2.2.8-.3 1.6-.7 2.3-1z"/><ellipse transform="rotate(-83.051 336.11 366.41)" class="st34" cx="336.1" cy="366.4" rx="4" ry="7.1"/><path class="st31" d="M337.9 365.3c1.2.7 1.3 1.7.3 2.3-1 .6-2.8.5-4-.2s-1.3-1.7-.3-2.3 2.8-.5 4 .2z"/><path class="st33" d="M337.9 365.4c1.2.7 1.3 1.7.3 2.3-1 .6-2.8.5-4-.2s-1.3-1.7-.3-2.3c1-.5 2.8-.5 4 .2z"/><path class="st37" d="M330.7 363.4c.7-.5 1.6-.8 2.4-1 .9-.2 1.7-.2 2.6-.2.9.1 1.7.2 2.6.5.8.2 1.7.6 2.4 1.1-1.5-.9-3.2-1.3-5-1.4-1.7 0-3.5.2-5 1zm10.7 6.2c-.7.5-1.6.8-2.4 1-.9.2-1.7.2-2.6.2-.9-.1-1.7-.2-2.6-.5-.8-.2-1.7-.6-2.4-1.1 1.5.9 3.2 1.3 5 1.4 1.7.1 3.5-.2 5-1z"/><path d="M447.6 340.5c0 .6-.3 1.2-1.1 1.6l-82 47.3c-1.6.9-4.5.8-6.3-.3l-60.7-35c-1-.6-1.5-1.3-1.5-2v1.7c0 .7.5 1.5 1.6 2l60.7 35c1.9 1.1 4.7 1.2 6.3.3l82-47.3c.8-.4 1.1-1 1.1-1.6l-.1-1.7z" fill="#4e5668"/><linearGradient id="SVGID_8_" gradientUnits="userSpaceOnUse" x1="408.8" y1="-374.7" x2="471.104" y2="-374.7" gradientTransform="matrix(1 0 0 -1 0 -64)"><stop offset=".346" stop-color="#8a8a8a"/><stop offset=".37" stop-color="#929292"/><stop offset=".458" stop-color="#adadad"/><stop offset=".555" stop-color="#c2c2c2"/><stop offset=".663" stop-color="#d0d0d0"/><stop offset=".793" stop-color="#d9d9d9"/><stop offset="1" stop-color="#dbdbdb"/></linearGradient><path d="M471 327.2c-.1-.1-.2-.3-.3-.4-.5-.6-1.1-1.2-1.5-1.5 0-.4-.2-.6-.4-.8l-8.6-5.2c3.2-3.7 1.6-8.8-4.5-12.3-5.9-3.4-14.2-4.4-20.6-2.8l-16.8-10.1c-.3-.2-.7-.2-1.1-.1l-8.1-1.7h-.1l-.1.1s-.1.1-.1.2v.1l5.5 6.2c.1.5.3.8.6 1l13.7 7.6c-4.3 3.8-2.9 9.3 3.7 13.1 6.8 3.9 16.9 4.6 23.4 1.9l10.6 5.9c.2.2.6.3 1.1.1.6.2 1.8.5 2.4.6.1 0 .3 0 .4-.1.2-.1.4-.3.5-.5.1-.1.1-.2.1-.3v-.1c0-.1.1-.3.1-.4.1-.3.1-.4.1-.5z" opacity=".29" fill="url(#SVGID_8_)"/><path class="st31" d="M455.6 305.9c7.4 4.3 8.2 10.8 1.8 14.5-6.4 3.7-17.7 3.2-25.1-1-7.4-4.3-8.2-10.8-1.8-14.5 6.5-3.7 17.7-3.3 25.1 1z"/><path class="st33" d="M461.6 313.4c0-6.4-6.9-14.2-17-15-10.9-.8-17.5 5.5-18.1 11.7-.3 3 1.7 6.3 6 8.8 7.4 4.3 18.5 4.7 24.9 1 2.9-1.7 4.3-4 4.2-6.5z"/><path class="st31" d="M451.6 310.3s3.7 2.3 3 10.9c1.4-.5 2.9-1.2 4.1-2.2 1-6.2-1.5-11.4-1.5-11.4l-5.6 2.7z"/><path class="st31" d="M459.2 309.5l-18.4-10.9c-2.5.2-4.7.9-6.6 1.7L455 312c.8-.3 1.6-.7 2.3-1.1.7-.5 1.4-.9 1.9-1.4zm-36.5-22.3l-8.8-1.8h-.1c-.1 0-.1.1-.1.2v.1l6 6.8 3-5.3z"/><path class="st33" d="M413.8 285.4l7.4 4.4 1.5-2.6-8.9-1.8c.1 0 .1 0 0 0z"/><path class="st33" d="M423.2 287.2c-.4-.3-1-.2-1.7.1-1.3.7-2.3 2.5-2.3 4 0 .7.3 1.3.7 1.5l51.5 28.4 2.4-3.7-50.6-30.3z"/><path class="st34" d="M472.5 319.4l1.2-1.8-50.5-30.4c-.4-.3-1-.3-1.7.1-.6.4-1.2 1-1.6 1.7l52.6 30.4z"/><path class="st31" d="M472.6 317.7c.9-.5 1.6-.1 1.6.9s-.7 2.2-1.6 2.7-1.6.1-1.6-.9c.1-1 .8-2.2 1.6-2.7z"/><path class="st33" d="M475.9 320.2c-.8-1-2.1-2.1-2.1-2.1-.2-.2-.6-.2-1 0-.7.4-1.3 1.4-1.3 2.2 0 .5.2.8.5.9 0 0 2 .6 2.8.7.1 0 .3 0 .4-.1.4-.2.8-.8.8-1.3 0-.1 0-.2-.1-.3z"/><path class="st34" d="M473.9 318.1c-.2-.2-.6-.2-1 0s-.7.6-.9 1l3.9 2.2c.1-.2.2-.5.2-.8 0-.1 0-.3-.1-.3-.9-1-2.1-2.1-2.1-2.1z"/><path class="st31" d="M431.7 302.1s2.5-1.8 3.9-1.9l15.4 8.3s-.6 1.1.3 1.7l.2.1-19.8-8.2z"/><path class="st33" d="M431.2 302.1s2.3-1.8 3.8-1.9l15.8 8.5s-.5 1.3.8 1.7l-.6 4.3-19.8-12.6z"/><path id="XMLID_2_" class="st41" d="M86.1 328.6V226.5l139.6-80.6V248z"/><path class="st42" d="M225.4 247.8l-4.9-3.5L81 324.8l4.8 3.8v-.2z"/><path class="st43" d="M81.2 223v102.1l4.9 3V226.7l-4.8-3.7z"/><path class="st44" d="M225.7 145.9l-4.9-3.5L81.3 223l4.8 3.7v-.2z"/><path id="XMLID_3_" class="st41" d="M246.2 235.7V133.6L385.8 53v102.1z"/><path class="st42" d="M385.5 154.8l-4.9-3.5-139.5 80.6 4.8 3.8v-.2z"/><path class="st43" d="M241.3 130.1v102.1l4.9 3V133.8l-4.8-3.7z"/><path class="st44" d="M385.8 53l-4.9-3.5-139.5 80.6 4.8 3.7v-.2z"/><ellipse transform="rotate(-59.689 169.853 416.4)" class="st29" cx="169.9" cy="416.4" rx=".7" ry=".4"/><linearGradient id="SVGID_9_" gradientUnits="userSpaceOnUse" x1="176.369" y1="-489.888" x2="183.166" y2="-489.888" gradientTransform="matrix(1 0 0 -1 0 -64)"><stop offset=".346" stop-color="#8a8a8a"/><stop offset=".37" stop-color="#929292"/><stop offset=".458" stop-color="#adadad"/><stop offset=".555" stop-color="#c2c2c2"/><stop offset=".663" stop-color="#d0d0d0"/><stop offset=".793" stop-color="#d9d9d9"/><stop offset="1" stop-color="#dbdbdb"/></linearGradient><path d="M176.4 427.6l6.7-4.1s.6 1.6-2.4 3.7c-1 .7-3 1.8-4.3.4z" opacity=".58" fill="url(#SVGID_9_)"/><linearGradient id="SVGID_10_" gradientUnits="userSpaceOnUse" x1="255.298" y1="816.224" x2="104.631" y2="911.557" gradientTransform="translate(0 -572)"><stop offset="0" stop-color="#7866af" stop-opacity=".4"/><stop offset=".673" stop-color="#d3c2b9" stop-opacity=".2"/></linearGradient><path d="M182.6 282.9l-9 5.2v5.8l-20.3 11.8.1 4.2-49.2 27.8 6.3 2.3v-.2l48.3-26.7-.2-4.2 20.5-11.8v-5.8l9.2-5.3c-2.1-.7-4-1.8-5.7-3.1z" fill="url(#SVGID_10_)"/><path d="M316.2 213.8l9-5.1-5.3-2.9-8.6 4.9c1.8.8 3.5 1.9 4.9 3.1z" opacity=".29" fill="#b5c4de"/><linearGradient id="SVGID_11_" gradientUnits="userSpaceOnUse" x1="323.126" y1="782.17" x2="370.46" y2="756.17" gradientTransform="translate(0 -572)"><stop offset=".183" stop-color="#d3c2b9"/><stop offset=".673" stop-color="#d3c2b9" stop-opacity=".2"/></linearGradient><path fill="url(#SVGID_11_)" d="M374 184.8l-5.2-3.1-45.6 25.8 5.3 3.1z"/><g class="st49"><path d="M127.9 217.8l3.6-2.1c.5-.3 1-.5 1.4-.6s.7-.2 1-.1c.2 0 .4.1.5.3.1.1.2.4.2.6 0 .2-.1.5-.2.7-.1.3-.2.5-.4.7s-.4.5-.6.7c-.2.2-.5.5-.8.7l2.1 1-1.7 1-1.9-.9-1.8 1-.1 2.1-1.4.8.1-5.9zm3.4 1c.5-.3.9-.6 1.2-1s.5-.7.5-1c0-.3-.1-.5-.4-.5-.3 0-.7.2-1.2.5l-2.1 1.2-.1 2 2.1-1.2zm8.7-2c-.6.4-1.2.6-1.7.7-.5.1-1 .2-1.3.1-.4-.1-.6-.2-.8-.5s-.3-.6-.3-1 .1-.9.4-1.4c.2-.5.5-1 .9-1.5s.9-1 1.4-1.4c.5-.5 1.1-.9 1.7-1.2.6-.4 1.2-.6 1.7-.7.5-.1 1-.2 1.3-.1.4.1.6.2.8.5s.3.6.3 1-.1.9-.4 1.4c-.2.5-.5 1-.9 1.5s-.9 1-1.4 1.4-1 .8-1.7 1.2zm.1-1c.4-.2.8-.5 1.1-.8l.9-.9c.2-.3.4-.7.6-1 .1-.3.2-.6.2-.9 0-.3 0-.5-.2-.7-.1-.2-.3-.3-.5-.3h-.9c-.3.1-.7.2-1.1.5-.4.2-.8.5-1.1.8l-.9.9c-.2.3-.4.7-.6 1-.1.3-.2.6-.2.9 0 .3 0 .5.2.7.1.2.3.3.5.3h.9c.3-.1.7-.2 1.1-.5zm9.3-4.4c-.5.3-1 .5-1.4.7-.4.1-.8.2-1.1.1-.3 0-.5-.2-.7-.4s-.2-.6-.2-1l.1-3.4 1.4-.8-.1 3.4c0 .6.2.9.5.9.4.1.9-.1 1.5-.4.6-.4 1.2-.8 1.5-1.3.4-.5.6-1 .6-1.6l.1-3.4 1.4-.8-.1 3.4c0 .4-.1.9-.3 1.3-.2.4-.4.8-.7 1.2s-.7.8-1.1 1.1c-.4.4-.8.7-1.4 1zm5.7-9.2l1.3-.8 4.2 1.6.1-4.1 1.4-.8-.2 5.9-1.2.7-4.4-1.6-.1 4.2-1.4.8.3-5.9zm9.3-5.3l3.1-1.7c.6-.4 1.2-.6 1.8-.8.5-.2 1-.2 1.4-.2s.7.2.9.4.3.6.3 1-.1.9-.4 1.4c-.2.5-.5 1-.9 1.5s-.9 1-1.4 1.4c-.5.5-1.1.9-1.8 1.2l-3.1 1.7.1-5.9zm2.8 3.3c.4-.2.8-.5 1.2-.8s.7-.6.9-.9c.3-.3.4-.6.6-1 .1-.3.2-.6.2-.9 0-.3 0-.5-.2-.7-.1-.2-.3-.3-.6-.3-.2 0-.5 0-.9.1-.3.1-.7.3-1.2.5l-1.6.9-.1 4.1 1.7-1zm14.3-12.1l-1.5 1.1-.3-.7 2.2-1.8 1-.6-.2 6-1.4.8.2-4.8z"/><path class="st50" d="M236.7 160.9l-44.1 25.6.2-5.6 44.1-25.7zm-117.2 67.5l-56.2 32.2.2-5.7 56.2-32.1z"/></g><g class="st49"><path d="M285.5 126.9l3.6-2.1c.5-.3 1-.5 1.4-.6s.7-.2 1-.1c.2 0 .4.1.5.3.1.1.2.4.2.6 0 .2-.1.5-.2.7-.1.3-.2.5-.4.7-.2.2-.4.5-.6.7s-.5.5-.8.7l2.1 1-1.7 1-1.9-.9-1.8 1-.1 2.1-1.4.8.1-5.9zm3.5 1c.5-.3.9-.6 1.2-1 .3-.4.5-.7.5-1 0-.3-.1-.5-.4-.5s-.7.2-1.2.5l-2.1 1.2-.1 2 2.1-1.2zm8.7-2c-.6.4-1.2.6-1.7.7s-1 .2-1.3.1c-.4-.1-.6-.2-.8-.5-.2-.3-.3-.6-.3-1s.1-.9.4-1.4c.2-.5.5-1 .9-1.5s.9-1 1.4-1.4 1.1-.9 1.7-1.2 1.2-.6 1.7-.7 1-.2 1.3-.1c.4.1.6.2.8.5.2.3.3.6.3 1s-.1.9-.4 1.4c-.2.5-.5 1-.9 1.5s-.9 1-1.4 1.4c-.5.4-1.1.8-1.7 1.2zm0-1c.4-.2.8-.5 1.1-.8l.9-.9c.2-.3.4-.7.6-1 .1-.3.2-.6.2-.9 0-.3 0-.5-.2-.7-.1-.2-.3-.3-.5-.3h-.9c-.3.1-.7.2-1.1.5-.4.2-.8.5-1.1.8l-.9.9c-.2.3-.4.7-.6 1-.1.3-.2.6-.2.9 0 .3 0 .5.2.7.1.2.3.3.5.3h.9c.4-.1.7-.2 1.1-.5zm9.4-4.4c-.5.3-1 .5-1.4.7-.4.1-.8.2-1.1.1-.3 0-.5-.2-.7-.4-.2-.2-.2-.6-.2-1l.1-3.4 1.4-.8-.1 3.4c0 .6.2.9.5.9.4.1.9-.1 1.5-.4.6-.4 1.2-.8 1.5-1.3.4-.5.6-1 .6-1.6l.1-3.4 1.4-.8-.1 3.4c0 .4-.1.9-.3 1.3s-.4.8-.7 1.2c-.3.4-.7.8-1.1 1.1-.4.4-.9.7-1.4 1zm5.7-9.2l1.3-.8 4.2 1.6.1-4.1 1.4-.8-.2 5.9-1.2.7-4.4-1.6-.1 4.2-1.4.8.3-5.9zm9.2-5.3l3.1-1.7c.6-.4 1.2-.6 1.8-.8.5-.2 1-.2 1.4-.2s.7.2.9.4c.2.2.3.6.3 1s-.1.9-.4 1.4c-.2.5-.5 1-.9 1.5s-.9 1-1.4 1.4c-.5.5-1.1.9-1.8 1.2l-3.1 1.7.1-5.9zm2.9 3.3c.4-.2.8-.5 1.2-.8.4-.3.7-.6.9-.9.3-.3.4-.6.6-1 .1-.3.2-.6.2-.9 0-.3 0-.5-.2-.7-.1-.2-.3-.3-.6-.3-.2 0-.5 0-.9.1-.3.1-.7.3-1.2.5l-1.6.9-.1 4.1 1.7-1z"/><path class="st50" d="M394.3 70l-44.1 25.6.2-5.6 44.1-25.7zm-117.2 67.5L221 169.7l.2-5.7 56.1-32.1z"/></g><path d="M336.6 102.8l2.2-3.1c.2-.3.4-.6.6-.8.2-.2.3-.4.4-.6s.2-.4.2-.5c0-.2.1-.3 0-.4 0-.3-.1-.5-.4-.6-.2-.1-.5 0-.8.2s-.6.4-.8.7c-.2.3-.5.7-.7 1.1l-.9-.2c.1-.3.3-.6.5-.8.2-.3.3-.5.5-.7l.6-.6c.2-.2.5-.4.8-.5.3-.2.6-.3.9-.3.3-.1.5 0 .7 0 .2.1.4.2.5.4.1.2.2.4.2.7 0 .3 0 .5-.1.7s-.2.5-.3.8c-.1.3-.3.6-.5.9s-.5.7-.7 1.1l-1.3 1.8 3.2-1.7.1 1-4.9 2.6v-1.2z" opacity=".5"/><path opacity=".82" fill="none" stroke="#c9dbec" stroke-linecap="round" stroke-miterlimit="10" d="M225 198.2l19.2-10.7"/><g opacity=".55"><linearGradient id="SVGID_12_" gradientUnits="userSpaceOnUse" x1="79.279" y1="-463.163" x2="98.879" y2="-463.163" gradientTransform="matrix(1 0 0 -1 0 -64)"><stop offset="0" stop-color="#b5b5b5"/><stop offset=".209" stop-color="#a3a3a3"/><stop offset=".627" stop-color="#747474"/><stop offset="1" stop-color="#454545"/></linearGradient><path d="M98.9 403.6l-4.5.6h-1.1c-.2 0-.6-.1-.9-.2-.1-.1-.7-.3-1.1-.9H90c-.2 0-.5-.1-.7-.2-.9-.3-1.6-.8-.9-1.3 1.1-.5 3.3-.3 3.3.8 1.3-.2 3.5-.4 4.1-.8.1-.1.2-.2.1-.4-.3-.4-1.7-.6-2.7-.7h-1c-.5 0-1 0-1.5.1l-2 .4-4.6.9c-.2 0-.5.1-.8.1-3.2.6-3.9-.1-3.9-.1-.1-.1-.1-.2-.1-.3.2-.5 1.6-.8 1.6-.8.9-.2 2-.3 2.8-.3.3 0 1.7-.1 2.8.1l.3-.1 2.9-.6 3.6-.8c-1.8-.2-3.6-1-3.5-2-1.5-.6-2.8-1.3-4.4-2-1.5-.7-4.1-1.3-5.4-.3-.3.3-.4 1 .5 1.2.4.1 1.1.2 1.2-.1 0-.1-.1-.3-.3-.3-.3 0-.5-.2-.5-.3 0-.1.3-.2.6-.2.4.1.6.3.7.5 0 .1.1.3 0 .4-.1.5-1 .5-1.7.3-1.2-.3-1.3-1.1-.7-1.6 1.6-1.1 4.3-.4 5.9.3 1.5.6 2.8 1.3 4.3 2 .2-.3.8-.5 1.4-.4s1.1.4.8.7c-.2.2-.6.2-1 .2-.3 0-.6-.1-.8-.2 0 .6.9 1.2 2 1.5.3.1.5.1.8.1h.4c.2 0 .4 0 .6.1h.1s.5.1.7.2c.5.2 0 .4-.3.5l-1.9.4.7.1c.3 0 .6.1.9.1.6.1 1.1.2 1.7.5 1.9.9.2 1.5-1.8 1.9 0 0-.9.2-1.9.2h-.5c.1.2.4.5.7.6.3.1.5.1.9.2.5 0 1.1 0 1.7-.1l3.3-.5.4.5zM85.6 401c-2 0-4.7.2-5.3.8 0 .1.1.1.2.1.6 0 1.6-.2 1.6-.2l3.1-.7h.4zm4.7-3.7c.4.2.9.2 1.3.1s.2-.4-.3-.4c-.4-.1-.9.1-1 .3zm.7 5.3v-.2c0-.2-.1-.4-.4-.5-.5-.2-1.1-.2-1.5 0-.3.1-.4.4.5.6.5.1 1 .1 1.4.1z" fill="url(#SVGID_12_)"/><linearGradient id="SVGID_13_" gradientUnits="userSpaceOnUse" x1="94.228" y1="-469.854" x2="106.337" y2="-469.854" gradientTransform="matrix(1 0 0 -1 0 -64)"><stop offset="0" stop-color="#b5b5b5"/><stop offset=".209" stop-color="#a3a3a3"/><stop offset=".627" stop-color="#747474"/><stop offset="1" stop-color="#454545"/></linearGradient><path d="M106.3 408.1c-2.8.4-7.4 1-8.9-.2-.3-.3-.5-.5-.4-.7 0-.2.2-.3.4-.5.4-.3 1.2-.6 1.9-.8-1.9.2-3.9.2-4.7-.4-.3-.2-.4-.4-.3-.6 0-.1.1-.3.3-.4.5-.4 1.6-.6 2.3-.8l2.9-.6s.5 0 .9.3-.2.4-.2.4c-2.2.5-2.7.6-3.5.8-.3.1-1.3.3-1.3.7 0 0 .1.3.7.5.8.1 2.1.1 3.2-.1.7-.1 1.3-.2 2-.3l3.1-.6s.7-.1 1.1.3-.3.5-.3.5c-2.7.6-4.2.9-5.1 1.1-.3.1-1.6.4-1.6.9 0 0 .1.4.9.6 1 .2 2.6.1 3.9-.1.8-.1 1.6-.2 2.5-.3l.2.3z" fill="url(#SVGID_13_)"/><linearGradient id="SVGID_14_" gradientUnits="userSpaceOnUse" x1="104.924" y1="-472.729" x2="113.958" y2="-472.729" gradientTransform="matrix(1 0 0 -1 0 -64)"><stop offset="0" stop-color="#b5b5b5"/><stop offset=".209" stop-color="#a3a3a3"/><stop offset=".627" stop-color="#747474"/><stop offset="1" stop-color="#454545"/></linearGradient><path d="M112.7 411.9c-4.5.6-6.4.4-7.1 0-2-1.2 1.6-2.4 1.6-2.4.9-.3 2.1-.6 3.5-.9 0 0 1.5-.2.7-.6-.4-.2-.8-.3-1.1-.5-1.2.2-2.7.5-4.6.7l-.2-.2s2.3-.3 4.5-.7c-.9-.7-1-1.4.4-1.9 1.1-.3 2.6-.4 3.6.4.4.4-.3.8-.9 1-.5.2-1.1.3-1.9.5.2.2.5.3.9.5.6.2 1.5.5 1.8.8.5.5-1.3.8-3.2 1.2-.3.1-2.9.6-3.8 1.4-.2.2-.3.4-.1.6.5.4 2.5.2 4 .1.9-.1 1.6-.2 1.6-.2l.3.2zm-.1-5.3c.2-.1 1.2-.4.6-.8-1.3-.5-3.1.5-2.5 1.2.8-.1 1.4-.3 1.9-.4z" fill="url(#SVGID_14_)"/><linearGradient id="SVGID_15_" gradientUnits="userSpaceOnUse" x1="108.079" y1="-479.861" x2="133.162" y2="-479.861" gradientTransform="matrix(1 0 0 -1 0 -64)"><stop offset="0" stop-color="#b5b5b5"/><stop offset=".209" stop-color="#a3a3a3"/><stop offset=".627" stop-color="#747474"/><stop offset="1" stop-color="#454545"/></linearGradient><path d="M131.9 420.1c-1.7.4-3.6-.2-5-.9s-2.6-1.5-4.1-2.1c-.3.3-1.4.6-2.1.1-.2-.1-.2-.3 0-.4.4-.3 1.3-.2 1.9 0 .1-1.1-2.5-2-4.4-1.7 0 0-3 .5-5.7.4-1.4 0-2.7-.3-3.5-.7-1-.7-1.1-1.6-.1-2.2 1.4-.9 4.6-1.5 7-.8 1.5.4 2 1.2.4 1.7-1.9.5-3.9-.3-4.4-.8 0-.1.1-.1.2 0s.3.2.7.3c1 .4 3.7.2 2.8-.4-2-.8-7.1.3-6.2 1.8.2.3 1.4 1.6 8.2.6h.2c2.2-.3 5.5.6 5.1 2.1 1.5.6 2.7 1.4 4.2 2.1 1.3.6 3 1.2 4.6.8.9-.2 1.7-1.2.4-1.6-.4-.1-1.1-.2-1.2.1 0 .1 0 .3.3.3.3.1.5.2.4.4 0 .1-.3.2-.6.2-.4-.1-.5-.3-.6-.5v-.4c.1-.4 1.1-.5 1.8-.3 1.6.4 1 1.6-.3 1.9zm-9.5-3.1c-.4-.1-.8-.3-1.3-.1-.5.1-.2.4.2.4s.7.1 1.1-.3z" fill="url(#SVGID_15_)"/><linearGradient id="SVGID_16_" gradientUnits="userSpaceOnUse" x1="111.525" y1="-483.1" x2="114.407" y2="-483.1" gradientTransform="matrix(1 0 0 -1 0 -64)"><stop offset="0" stop-color="#b5b5b5"/><stop offset=".209" stop-color="#a3a3a3"/><stop offset=".627" stop-color="#747474"/><stop offset="1" stop-color="#454545"/></linearGradient><path d="M113.2 418.4c.1 0 .1 0 0 0l.1.1-.7.3.9.5.7-.3-1.7.8.8-.4-.9-.5-.8.4 1.6-.9z" fill="url(#SVGID_16_)"/><linearGradient id="SVGID_17_" gradientUnits="userSpaceOnUse" x1="113.604" y1="-484.6" x2="116.076" y2="-484.6" gradientTransform="matrix(1 0 0 -1 0 -64)"><stop offset="0" stop-color="#b5b5b5"/><stop offset=".209" stop-color="#a3a3a3"/><stop offset=".627" stop-color="#747474"/><stop offset="1" stop-color="#454545"/></linearGradient><path d="M115.9 420c.1 0 .1 0 .1.1h.1l-1.1 1.1h-.1l.3-.3-.7-.4-.6.1 2-.6zm-.7.7l.6-.6-1.2.3.6.3z" fill="url(#SVGID_17_)"/><linearGradient id="SVGID_18_" gradientUnits="userSpaceOnUse" x1="115.853" y1="-485.7" x2="118.72" y2="-485.7" gradientTransform="matrix(1 0 0 -1 0 -64)"><stop offset="0" stop-color="#b5b5b5"/><stop offset=".209" stop-color="#a3a3a3"/><stop offset=".627" stop-color="#747474"/><stop offset="1" stop-color="#454545"/></linearGradient><path d="M117.5 421c.1 0 .1 0 0 0 .1 0 .1 0 0 0l.1.1-.6 1.2 1.4-.7-1.7.8h-.1l.6-1.2-1.4.7 1.7-.9z" fill="url(#SVGID_18_)"/><linearGradient id="SVGID_19_" gradientUnits="userSpaceOnUse" x1="118.113" y1="-486.991" x2="120.675" y2="-486.991" gradientTransform="matrix(1 0 0 -1 0 -64)"><stop offset="0" stop-color="#b5b5b5"/><stop offset=".209" stop-color="#a3a3a3"/><stop offset=".627" stop-color="#747474"/><stop offset="1" stop-color="#454545"/></linearGradient><path d="M119.8 422.3s.1 0 0 0c.1.1.2.1.2.1s.1 0 .1.1c0 0 .1 0 .1.1.2.1.3.2.3.3.1.1.1.2.1.2 0 .1 0 .2-.1.2-.1.1-.2.1-.3.2-.6.3-1.2.2-1.8-.1 0 0-.1 0-.1-.1 0 0-.1 0-.1-.1 0 0-.1 0-.1-.1 0 0-.1 0-.1-.1l1.8-.7zm-1.4.8c0 .1.1.1 0 0 .1.1.2.1.2.1.1.1.2.1.3.2.1 0 .2.1.3.1h.4c.1 0 .3-.1.4-.1.2-.1.4-.2.3-.4s-.1-.3-.4-.4c0 0-.1 0-.1-.1 0 0-.1 0-.1-.1l-1.3.7z" fill="url(#SVGID_19_)"/><linearGradient id="SVGID_20_" gradientUnits="userSpaceOnUse" x1="120.364" y1="-488.5" x2="123.525" y2="-488.5" gradientTransform="matrix(1 0 0 -1 0 -64)"><stop offset="0" stop-color="#b5b5b5"/><stop offset=".209" stop-color="#a3a3a3"/><stop offset=".627" stop-color="#747474"/><stop offset="1" stop-color="#454545"/></linearGradient><path d="M122.1 423.7c.1 0 .1 0 0 0 .1 0 .1 0 .1.1h.1l-.6.8 1.6-.2h.3l-1.6.9 1.4-.7-1.6.2.6-.8-1.5.6 1.2-.9z" fill="url(#SVGID_20_)"/><linearGradient id="SVGID_21_" gradientUnits="userSpaceOnUse" x1="122.771" y1="-490" x2="125.243" y2="-490" gradientTransform="matrix(1 0 0 -1 0 -64)"><stop offset="0" stop-color="#b5b5b5"/><stop offset=".209" stop-color="#a3a3a3"/><stop offset=".627" stop-color="#747474"/><stop offset="1" stop-color="#454545"/></linearGradient><path d="M125 425.4c.1 0 .1 0 0 0 .1 0 .1 0 .1.1h.1l-1.1 1.1h-.1l.3-.3-.7-.4-.6.1 2-.6zm-.7.8l.6-.6-1.2.3.6.3z" fill="url(#SVGID_21_)"/><linearGradient id="SVGID_22_" gradientUnits="userSpaceOnUse" x1="125.019" y1="-491.091" x2="127.581" y2="-491.091" gradientTransform="matrix(1 0 0 -1 0 -64)"><stop offset="0" stop-color="#b5b5b5"/><stop offset=".209" stop-color="#a3a3a3"/><stop offset=".627" stop-color="#747474"/><stop offset="1" stop-color="#454545"/></linearGradient><path d="M126.7 426.4s.1 0 0 0c.1.1.2.1.2.1s.1 0 .1.1c0 0 .1 0 .1.1.2.1.3.2.3.3.1.1.1.2.1.2 0 .1 0 .2-.1.2-.1.1-.2.1-.3.2-.6.3-1.2.2-1.8-.1 0 0-.1 0-.1-.1 0 0-.1 0-.1-.1 0 0-.1 0-.1-.1 0 0-.1 0-.1-.1l1.8-.7zm-1.4.9c.1 0 .1 0 0 0 .1.1.2.1.2.1.1.1.2.1.3.2.1 0 .2.1.3.1h.4c.2 0 .3-.1.4-.1.2-.1.4-.2.3-.4 0-.1-.1-.3-.4-.4 0 0-.1 0-.1-.1 0 0-.1 0-.1-.1l-1.3.7z" fill="url(#SVGID_22_)"/><linearGradient id="SVGID_23_" gradientUnits="userSpaceOnUse" x1="127.306" y1="-492.45" x2="129.93" y2="-492.45" gradientTransform="matrix(1 0 0 -1 0 -64)"><stop offset="0" stop-color="#b5b5b5"/><stop offset=".209" stop-color="#a3a3a3"/><stop offset=".627" stop-color="#747474"/><stop offset="1" stop-color="#454545"/></linearGradient><path d="M129 427.8l.9.6-.9-.4-.6.3.6.4-.6-.4-.7.3.8.5-.9-.6 1.4-.7z" fill="url(#SVGID_23_)"/><linearGradient id="SVGID_24_" gradientUnits="userSpaceOnUse" x1="96.808" y1="-474.298" x2="98.093" y2="-474.298" gradientTransform="matrix(1 0 0 -1 0 -64)"><stop offset="0" stop-color="#b5b5b5"/><stop offset=".209" stop-color="#a3a3a3"/><stop offset=".627" stop-color="#747474"/><stop offset="1" stop-color="#454545"/></linearGradient><path d="M98 410.5c.3-.3-.3-.7-.8-.5h-.1c-.3.1-.4.3-.1.5s.8.2 1 0z" fill="url(#SVGID_24_)"/><linearGradient id="SVGID_25_" gradientUnits="userSpaceOnUse" x1="94.85" y1="-473.1" x2="95.97" y2="-473.1" gradientTransform="matrix(1 0 0 -1 0 -64)"><stop offset="0" stop-color="#b5b5b5"/><stop offset=".209" stop-color="#a3a3a3"/><stop offset=".627" stop-color="#747474"/><stop offset="1" stop-color="#454545"/></linearGradient><path d="M95.8 408.9c-.5-.3-1.3.1-.8.4.5.3 1.3-.1.8-.4z" fill="url(#SVGID_25_)"/><linearGradient id="SVGID_26_" gradientUnits="userSpaceOnUse" x1="93.016" y1="-471.867" x2="93.749" y2="-471.867" gradientTransform="matrix(1 0 0 -1 0 -64)"><stop offset="0" stop-color="#b5b5b5"/><stop offset=".209" stop-color="#a3a3a3"/><stop offset=".627" stop-color="#747474"/><stop offset="1" stop-color="#454545"/></linearGradient><path d="M93.6 407.7c-.3-.1-.6-.1-.6.1 0 0 0 .1.1.2s.2.1.3.1c.3 0 .5-.2.2-.4z" fill="url(#SVGID_26_)"/><linearGradient id="SVGID_27_" gradientUnits="userSpaceOnUse" x1="98.93" y1="-475.5" x2="100.036" y2="-475.5" gradientTransform="matrix(1 0 0 -1 0 -64)"><stop offset="0" stop-color="#b5b5b5"/><stop offset=".209" stop-color="#a3a3a3"/><stop offset=".627" stop-color="#747474"/><stop offset="1" stop-color="#454545"/></linearGradient><path d="M99.9 411.3c.5.3-.3.7-.8.4-.5-.3.3-.7.8-.4z" fill="url(#SVGID_27_)"/><linearGradient id="SVGID_28_" gradientUnits="userSpaceOnUse" x1="101.165" y1="-476.728" x2="101.891" y2="-476.728" gradientTransform="matrix(1 0 0 -1 0 -64)"><stop offset="0" stop-color="#b5b5b5"/><stop offset=".209" stop-color="#a3a3a3"/><stop offset=".627" stop-color="#747474"/><stop offset="1" stop-color="#454545"/></linearGradient><path d="M101.8 412.6c.3.1 0 .3-.2.3-.1 0-.2 0-.3-.1-.1-.1-.1-.1-.1-.2 0 0 .3-.1.6 0z" fill="url(#SVGID_28_)"/><linearGradient id="SVGID_29_" gradientUnits="userSpaceOnUse" x1="114.769" y1="-481.5" x2="117.364" y2="-481.5" gradientTransform="matrix(1 0 0 -1 0 -64)"><stop offset="0" stop-color="#b5b5b5"/><stop offset=".209" stop-color="#a3a3a3"/><stop offset=".627" stop-color="#747474"/><stop offset="1" stop-color="#454545"/></linearGradient><path d="M115 417.5l.1.1s.1 0 .1.1l.1.1c.1 0 .2.1.2.1h.6s.1 0 .1-.1v-.2s-.1-.1-.1-.2l-.1-.1v-.2l.1-.1c.1-.1.3-.1.5-.1s.3.1.5.2c0 0 .1 0 .1.1 0 0 .1 0 .1.1l.1.1h-.2l-.1-.1s-.1-.1-.2-.1c-.1-.1-.3-.1-.4-.1h-.3s-.1 0-.1.1v.2l.1.1c0 .1.1.1.1.2 0 0 0 .1.1.1v.1l-.1.1c-.1 0-.2.1-.3.1h-.3c-.1 0-.2 0-.3-.1-.1 0-.2-.1-.3-.1-.1-.1-.2-.1-.2-.2l-.1-.1h.1c0-.1 0-.1.1-.1z" fill="url(#SVGID_29_)"/><linearGradient id="SVGID_30_" gradientUnits="userSpaceOnUse" x1="116.647" y1="-482.75" x2="117.052" y2="-482.75" gradientTransform="matrix(1 0 0 -1 0 -64)"><stop offset="0" stop-color="#b5b5b5"/><stop offset=".209" stop-color="#a3a3a3"/><stop offset=".627" stop-color="#747474"/><stop offset="1" stop-color="#454545"/></linearGradient><path d="M116.6 418.7c.1 0 .1-.1 0 0 .1-.1.2-.1.2-.1s.1 0 .1.1c0 0 .1 0 .1.1 0 0-.1 0-.1.1h-.1c0-.1 0-.1-.2-.2.1 0 .1 0 0 0z" fill="url(#SVGID_30_)"/><linearGradient id="SVGID_31_" gradientUnits="userSpaceOnUse" x1="118.879" y1="-483.9" x2="121.197" y2="-483.9" gradientTransform="matrix(1 0 0 -1 0 -64)"><stop offset="0" stop-color="#b5b5b5"/><stop offset=".209" stop-color="#a3a3a3"/><stop offset=".627" stop-color="#747474"/><stop offset="1" stop-color="#454545"/></linearGradient><path d="M120.9 419.6l-.3-.2.5.3-1.4.6c-.1 0-.1.1-.2.1h-.4c-.1 0-.1-.1-.2-.1l-.1-.1s-.1 0-.1-.1h.2l.1.1.1.1h.4l1.4-.7z" fill="url(#SVGID_31_)"/><linearGradient id="SVGID_32_" gradientUnits="userSpaceOnUse" x1="120.382" y1="-485.1" x2="122.855" y2="-485.1" gradientTransform="matrix(1 0 0 -1 0 -64)"><stop offset="0" stop-color="#b5b5b5"/><stop offset=".209" stop-color="#a3a3a3"/><stop offset=".627" stop-color="#747474"/><stop offset="1" stop-color="#454545"/></linearGradient><path d="M122.7 420.5c.1 0 .1 0 .1.1h.1l-1.1 1.1h-.1l.3-.3-.7-.4-.6.1 2-.6zm-.8.7l.6-.6-1.2.3.6.3z" fill="url(#SVGID_32_)"/><linearGradient id="SVGID_33_" gradientUnits="userSpaceOnUse" x1="122.594" y1="-486.3" x2="125.756" y2="-486.3" gradientTransform="matrix(1 0 0 -1 0 -64)"><stop offset="0" stop-color="#b5b5b5"/><stop offset=".209" stop-color="#a3a3a3"/><stop offset=".627" stop-color="#747474"/><stop offset="1" stop-color="#454545"/></linearGradient><path d="M124.4 421.5c.1 0 .1 0 .1.1h.1l-.6.8 1.6-.2h.3l-1.6.9 1.4-.7-1.6.2.6-.8-1.5.6 1.2-.9z" fill="url(#SVGID_33_)"/><linearGradient id="SVGID_34_" gradientUnits="userSpaceOnUse" x1="125.197" y1="-487.6" x2="127.821" y2="-487.6" gradientTransform="matrix(1 0 0 -1 0 -64)"><stop offset="0" stop-color="#b5b5b5"/><stop offset=".209" stop-color="#a3a3a3"/><stop offset=".627" stop-color="#747474"/><stop offset="1" stop-color="#454545"/></linearGradient><path d="M126.9 423l.9.6-.8-.5-.6.3.6.4-.6-.4-.7.3.8.5-.9-.6 1.3-.6z" fill="url(#SVGID_34_)"/><linearGradient id="SVGID_35_" gradientUnits="userSpaceOnUse" x1="127.03" y1="-488.8" x2="129.625" y2="-488.8" gradientTransform="matrix(1 0 0 -1 0 -64)"><stop offset="0" stop-color="#b5b5b5"/><stop offset=".209" stop-color="#a3a3a3"/><stop offset=".627" stop-color="#747474"/><stop offset="1" stop-color="#454545"/></linearGradient><path d="M127.2 424.8s.1 0 0 0l.1.1s.1 0 .1.1l.1.1c.1 0 .2.1.2.1h.6s.1 0 .1-.1v-.2s-.1-.1-.1-.2l-.1-.1v-.2l.1-.1c.1-.1.3-.1.5-.1s.3.1.5.2c0 0 .1 0 .1.1 0 0 .1 0 .1.1l.1.1h-.2l-.1-.1s-.1-.1-.2-.1c-.1-.1-.3-.1-.4-.1h-.3s-.1 0-.1.1v.2l.1.1c0 .1.1.1.1.2 0 0 0 .1.1.1v.1l-.1.1c-.1 0-.2.1-.3.1h-.3c-.1 0-.2 0-.3-.1-.1 0-.2-.1-.3-.1-.1-.1-.2-.1-.2-.2l-.1-.1h.1l.1-.1z" fill="url(#SVGID_35_)"/></g><path class="st50" d="M-759.4 176.3l-29 16.9.1-3.7 29-16.9zm-77.2 44.5l-37 21.2.1-3.7 37-21.2z" opacity=".19"/><g class="st49" opacity=".43"><path class="st50" d="M-598.7 83.1l-29.1 16.9.1-3.8 29.1-16.9zm-77.3 44.5l-37 21.2.2-3.8 37-21.2z"/></g></g><path class="st33" d="M145.5 265l-.1 1-2.8 1.8.6-5.3.9-.6-.5 4.3 1.9-1.2zm4.7-4.5c0 .5-.1.9-.3 1.3-.1.4-.3.8-.5 1.1-.2.3-.5.7-.7.9-.3.3-.6.5-.9.7-.3.2-.6.3-.8.3s-.4 0-.6-.1c-.2-.1-.3-.3-.4-.6-.1-.3-.1-.6 0-1.1 0-.5.1-.9.3-1.3s.3-.8.6-1.2c.2-.4.5-.7.7-1 .3-.3.5-.5.8-.7s.6-.3.8-.3.4 0 .6.1c.2.1.3.3.4.6v1.3zm-3.2 2v.7c0 .2.1.3.2.4.1.1.2.1.3.1s.3-.1.5-.2.3-.3.5-.4c.1-.2.3-.4.4-.6.1-.2.2-.4.3-.7.1-.2.1-.5.2-.8v-.7c0-.2-.1-.3-.2-.4-.1-.1-.2-.1-.3-.1s-.3.1-.5.2-.3.3-.5.4c-.1.2-.3.4-.4.6-.1.2-.2.4-.3.7-.2.3-.2.6-.2.8zm6.2-5.5c-.4.3-.8.6-1 1.1-.2.4-.4.9-.4 1.5v.7c0 .2.1.3.2.4.1.1.2.1.3.1s.3-.1.5-.2c.1-.1.2-.1.3-.2l.2-.2.2-1.8 1-.6-.3 2.6c-.1.1-.3.3-.6.5s-.6.5-.9.7c-.3.2-.6.3-.8.4-.2 0-.4 0-.6-.1-.2-.1-.3-.3-.3-.6-.1-.3-.1-.6 0-1.1 0-.4.1-.9.3-1.3.1-.4.3-.8.5-1.2.2-.4.5-.7.7-1 .3-.3.6-.5.8-.7.2-.1.4-.2.5-.3.2-.1.3-.1.4-.1h.5l-.4 1.1c-.1 0-.3 0-.4.1-.3 0-.5.1-.7.2zm6.1-2.2c0 .5-.1.9-.3 1.3-.1.4-.3.8-.5 1.1-.2.4-.5.7-.7.9-.3.3-.6.5-.9.7-.3.2-.6.3-.8.3s-.4 0-.6-.1c-.2-.1-.3-.3-.4-.6-.1-.3-.1-.6 0-1.1 0-.5.1-.9.3-1.3.2-.4.3-.8.6-1.2.2-.4.5-.7.7-1 .3-.3.5-.5.8-.7s.6-.3.8-.3.4 0 .6.1c.2.1.3.3.4.6v1.3zm-3.2 2v.7c0 .2.1.3.2.4.1.1.2.1.3.1s.3-.1.5-.2.3-.3.5-.4c.1-.2.3-.4.4-.6.1-.2.2-.4.3-.7.1-.2.1-.5.2-.8v-.7c0-.2-.1-.3-.2-.4-.1-.1-.2-.1-.3-.1s-.3.1-.5.2-.3.3-.5.4c-.1.2-.3.4-.4.6s-.2.4-.3.7c-.2.3-.2.6-.2.8zm7.2-7l-.1 1-1.3.8-.5 4.3-.9.6.5-4.3-1.3.8.1-1 3.5-2.2zm.1 4.9l.6-5.3 2.9-1.8-.1 1-1.9 1.2-.1 1 1.7-1.1-.1 1-1.7 1.1-.1 1.3 2-1.3-.1 1-3.1 1.9zm6.2-4c-.1-.2-.2-.4-.3-.7-.1-.2-.2-.4-.4-.5-.1.1-.1.3-.3.5l-.3.6-.3.6c-.1.2-.2.4-.2.5l-1.1.7c.2-.5.5-1.1.8-1.7.3-.6.6-1.2 1-1.9l-1.1-1.7 1.2-.7.6 1 1-2.1 1.1-.7-1.6 3.4c.3.3.5.7.7 1s.3.6.4.8l-1.2.9zm5.6-8.4l-.1 1-1.3.8-.5 4.3-1 .6.5-4.3-1.3.8.1-1 3.6-2.2zm-30.3 28.2c.1-.1.3-.2.3-.3.1-.1.1-.2.1-.3v-.2s0-.1-.1-.1h-.7l-.1-.1v-.3c0-.3.1-.5.3-.7l.6-.6c.1-.1.3-.1.4-.2h.2l-.2.5h-.2c-.1 0-.2.1-.3.1-.1.1-.2.2-.3.2-.1.1-.1.2-.1.3v.1s0 .1.1.1h.8c.1 0 .1.1.1.2v.3c0 .3-.1.5-.3.7s-.4.4-.7.6c-.1.1-.2.1-.3.1s-.1.1-.2.1h-.2l.2-.5h.2c.2.2.3.1.4 0zm3.4-2.2v.4l-1.4.9.3-2.8.4-.3-.3 2.4 1-.6zm3.3-2.9c0 .2-.1.5-.2.7l-.3.6c-.1.2-.2.4-.4.5l-.4.4c-.1.1-.3.2-.4.2-.1 0-.2 0-.3-.1s-.1-.2-.2-.3v-.6c0-.2.1-.5.2-.7l.3-.6c.1-.2.2-.4.4-.5l.4-.4c.1-.1.3-.1.4-.2.1 0 .2 0 .3.1s.1.2.2.3v.6zm-1.7 1.1v.4c0 .1 0 .2.1.2 0 .1.1.1.2.1s.2 0 .3-.1.2-.1.3-.2.2-.2.2-.3c.1-.1.1-.3.2-.4 0-.1.1-.3.1-.5v-.4c0-.1 0-.2-.1-.2 0-.1-.1-.1-.2-.1s-.2 0-.3.1-.2.1-.3.3c-.1.1-.2.2-.2.3-.1.1-.1.3-.2.4-.1.1-.1.2-.1.4zm4.1-3.6c-.2.1-.4.3-.6.6-.1.3-.2.5-.3.9v.4c0 .1 0 .2.1.2 0 .1.1.1.2.1s.2 0 .3-.1c.1 0 .1-.1.2-.1s.1-.1.1-.1l.1-1 .4-.3-.1 1.4-.3.3c-.1.1-.3.2-.5.3-.2.1-.3.2-.4.2-.1 0-.2 0-.3-.1s-.1-.2-.2-.3v-.6c0-.2.1-.5.2-.7l.3-.6c.1-.2.2-.4.4-.5.1-.2.3-.3.4-.4.1-.1.2-.1.3-.1s.1-.1.2-.1h.2l-.2.5h-.2c-.1 0-.2 0-.3.1zm3.2.3c0-.1 0-.2-.1-.3 0-.1 0-.2-.1-.3l-1 .6c0 .1-.1.3-.1.4s-.1.3-.1.4l-.4.3c.1-.4.2-.7.3-1l.3-.9c.1-.3.2-.5.3-.8s.2-.5.3-.8l.4-.2c.1.2.1.3.2.5 0 .2.1.3.1.5s.1.4.1.6.1.4.2.7l-.4.3zm-.5-1.9c-.1.2-.1.4-.2.6-.1.2-.2.5-.3.8l.7-.5c0-.2-.1-.4-.1-.6 0 0 0-.2-.1-.3zm3.5 0c-.1-.1-.1-.2-.2-.3-.1-.1-.1-.2-.2-.4-.1-.1-.2-.2-.2-.3-.1-.1-.2-.2-.2-.3l-.2 2-.4.3.3-2.8.3-.2c.1.1.2.1.2.2.1.1.2.2.2.3.1.1.2.2.2.3.1.1.1.2.2.3l.2-1.9.4-.3-.3 2.8-.3.3zm3.3-4.8l.4-.3-.3 2.8-.4.3.1-1.3-1 .6-.1 1.3-.4.3.3-2.8.4-.3-.1 1.1 1-.6.1-1.1zm1.4 1.8l.3-2.8 1.4-.9v.4l-1 .7-.1.7.9-.6v.4l-.9.6-.1.8 1.1-.7v.4l-1.6 1zm3.6-4.9c.3-.2.6-.3.7-.2.2 0 .2.2.2.5 0 .4-.2.7-.5 1.1l.1.1c0 .1.1.1.1.2s.1.1.1.2.1.2.1.2l-.5.3c0-.1-.1-.1-.1-.2s-.1-.1-.1-.2-.1-.1-.1-.2-.1-.1-.1-.1-.1 0-.1.1h-.1l-.2.1-.1 1.1-.4.3.3-2.8.3-.3c.2-.1.3-.2.4-.2zm0 .4c-.1.1-.2.1-.2.2l-.1.9.2-.1c.1-.1.2-.1.3-.2l.2-.2c.1-.1.1-.1.1-.2s.1-.2.1-.3v-.2l-.1-.1h-.2c-.2.1-.2.1-.3.2zm1.9 1l.3-2.8 1.4-.9v.4l-1 .7-.1.7.9-.6v.4l-.9.6-.1.8 1.1-.7v.4l-1.6 1zm-2.7-35.2l-3.1 5.1-2.4-1.7-1.4 2.3 7.6 5.6-5.4 9.1-1.3-.9 3.8-6.3-8.7-6.3-11.4 19 8.7 6.3 3.1-5.1 2.4 1.7 1.4-2.4-7.6-5.5 5.5-9.1 1.3.9-3.8 6.3 8.7 6.3 11.4-19-8.8-6.3zM150.9 242l5.3 3.8-1.7 2.8-6.5-4.7 8.6-14.2 1.3.9-7 11.4zm7.9-5l2.4-4 1.8 1.3-2.4 4-1.8-1.3zm5.3 3.8l6.9-11.5-5.3-3.8 1.7-2.8 6.5 4.7-8.6 14.2-1.2-.8z"/><path d="M305.9 173.4l-.1 1-2.8 1.8.6-5.3.9-.6-.5 4.3 1.9-1.2zm4.6-4.5c0 .5-.1.9-.3 1.3-.1.4-.3.8-.5 1.1s-.5.7-.7.9c-.3.3-.6.5-.9.7s-.6.3-.8.3c-.2 0-.4 0-.6-.1s-.3-.3-.4-.6-.1-.6 0-1.1c0-.5.1-.9.3-1.3.2-.4.3-.8.6-1.2.2-.4.5-.7.7-1 .3-.3.5-.5.8-.7s.6-.3.8-.3c.2 0 .4 0 .6.1s.3.3.4.6c.1.5.1.8 0 1.3zm-3.2 2v.7c0 .2.1.3.2.4.1.1.2.1.3.1.1 0 .3-.1.5-.2s.3-.3.5-.4c.1-.2.3-.4.4-.6.1-.2.2-.4.3-.7.1-.2.1-.5.2-.8v-.7c0-.2-.1-.3-.2-.4-.1-.1-.2-.1-.3-.1-.1 0-.3.1-.5.2s-.3.3-.5.4c-.1.2-.3.4-.4.6-.1.2-.2.4-.3.7-.1.3-.2.6-.2.8zm6.3-5.5c-.4.3-.8.6-1 1.1-.2.4-.4.9-.4 1.5v.7c0 .2.1.3.2.4.1.1.2.1.3.1.1 0 .3-.1.5-.2.1-.1.2-.1.3-.2l.2-.2.2-1.8 1-.6-.3 2.6c-.1.1-.3.3-.6.5s-.6.5-.9.7-.6.3-.8.4c-.2 0-.4 0-.6-.1s-.3-.3-.3-.6c-.1-.3-.1-.6 0-1.1 0-.4.1-.9.3-1.3.1-.4.3-.8.5-1.2s.5-.7.7-1c.3-.3.6-.5.8-.7.2-.1.4-.2.5-.3.2-.1.3-.1.4-.1h.5l-.4 1.1c-.1 0-.3 0-.4.1-.4 0-.5 0-.7.2zm6-2.2c0 .5-.1.9-.3 1.3-.1.4-.3.8-.5 1.1-.2.4-.5.7-.7.9-.3.3-.6.5-.9.7s-.6.3-.8.3c-.2 0-.4 0-.6-.1s-.3-.3-.4-.6-.1-.6 0-1.1c0-.5.1-.9.3-1.3.2-.4.3-.8.6-1.2.2-.4.5-.7.7-1 .3-.3.5-.5.8-.7s.6-.3.8-.3c.2 0 .4 0 .6.1s.3.3.4.6c.1.4.1.8 0 1.3zm-3.2 2v.7c0 .2.1.3.2.4.1.1.2.1.3.1.1 0 .3-.1.5-.2s.3-.3.5-.4c.1-.2.3-.4.4-.6.1-.2.2-.4.3-.7.1-.2.1-.5.2-.8s0-.5 0-.7-.1-.3-.2-.4c-.1-.1-.2-.1-.3-.1-.1 0-.3.1-.5.2s-.3.3-.5.4c-.1.2-.3.4-.4.6-.1.2-.2.4-.3.7-.1.3-.2.5-.2.8zm7.3-7.1l-.1 1-1.3.8-.5 4.3-.9.6.5-4.3-1.3.8.1-1 3.5-2.2zm0 5l.6-5.3 2.9-1.8-.1 1-1.9 1.2-.1 1 1.7-1.1-.1 1-1.7 1.1-.1 1.3 2-1.3-.1 1-3.1 1.9zm6.3-4c-.1-.2-.2-.4-.3-.7-.1-.2-.2-.4-.4-.5-.1.1-.1.3-.3.5l-.3.6-.3.6c-.1.2-.2.4-.2.5l-1.1.7c.2-.5.5-1.1.8-1.7.3-.6.6-1.2 1-1.9l-1.1-1.7 1.2-.7.6 1 1-2.1 1.1-.7-1.6 3.4c.3.3.5.7.7 1s.3.6.4.8l-1.2.9zm5.5-8.4l-.1 1-1.3.8-.5 4.3-1 .6.5-4.3-1.3.8.1-1 3.6-2.2z" fill="#00f"/><path d="M305.3 178.9c.1-.1.3-.2.3-.3.1-.1.1-.2.1-.3v-.2s0-.1-.1-.1h-.7l-.1-.1v-.3c0-.3.1-.5.3-.7l.6-.6c.1-.1.3-.1.4-.2h.2l-.2.5h-.2c-.1 0-.2.1-.3.1-.1.1-.2.2-.3.2-.1.1-.1.2-.1.3v.1s0 .1.1.1h.8c.1 0 .1.1.1.2v.3c0 .3-.1.5-.3.7-.2.2-.4.4-.7.6-.1.1-.2.1-.3.1-.1 0-.1.1-.2.1h-.2l.2-.5h.2c.1.1.2.1.4 0zm3.4-2.2v.4l-1.4.9.3-2.8.4-.3-.3 2.4 1-.6zm3.3-3c0 .2-.1.5-.2.7l-.3.6c-.1.2-.2.4-.4.5l-.4.4c-.1.1-.3.2-.4.2s-.2 0-.3-.1c-.1-.1-.1-.2-.2-.3v-.6c0-.2.1-.5.2-.7l.3-.6c.1-.2.2-.4.4-.5l.4-.4c.1-.1.3-.1.4-.2.1 0 .2 0 .3.1.1.1.1.2.2.3v.6zm-1.8 1.1v.4c0 .1 0 .2.1.2 0 .1.1.1.2.1s.2 0 .3-.1c.1-.1.2-.1.3-.2.1-.1.2-.2.2-.3.1-.1.1-.3.2-.4 0-.1.1-.3.1-.5v-.4c0-.1 0-.2-.1-.2 0-.1-.1-.1-.2-.1s-.2 0-.3.1c-.1.1-.2.1-.3.3-.1.1-.2.2-.2.3-.1.1-.1.3-.2.4s-.1.3-.1.4zm4.1-3.5c-.2.1-.4.3-.6.6-.1.3-.2.5-.3.9v.4c0 .1 0 .2.1.2 0 .1.1.1.2.1s.2 0 .3-.1c.1 0 .1-.1.2-.1s.1-.1.1-.1l.1-1 .4-.3-.1 1.4-.3.3c-.1.1-.3.2-.5.3s-.3.2-.4.2-.2 0-.3-.1c-.1-.1-.1-.2-.2-.3v-.6c0-.2.1-.5.2-.7l.3-.6c.1-.2.2-.4.4-.5.1-.2.3-.3.4-.4.1-.1.2-.1.3-.1.1 0 .1-.1.2-.1h.2l-.2.5h-.2c-.1 0-.2 0-.3.1zm3.2.3c0-.1 0-.2-.1-.3 0-.1 0-.2-.1-.3l-1 .6c0 .1-.1.3-.1.4 0 .1-.1.3-.1.4l-.4.3c.1-.4.2-.7.3-1l.3-.9c.1-.3.2-.5.3-.8.1-.3.2-.5.3-.8l.4-.2c.1.2.1.3.2.5 0 .2.1.3.1.5s.1.4.1.6c0 .2.1.4.2.7l-.4.3zm-.4-1.9c-.1.2-.1.4-.2.6-.1.2-.2.5-.3.8l.7-.5c0-.2-.1-.4-.1-.6-.1-.1-.1-.2-.1-.3zm3.4 0c-.1-.1-.1-.2-.2-.3s-.1-.2-.2-.4c-.1-.1-.2-.2-.2-.3-.1-.1-.2-.2-.2-.3l-.2 2-.4.3.3-2.8.3-.2c.1.1.2.1.2.2.1.1.2.2.2.3.1.1.2.2.2.3.1.1.1.2.2.3l.2-1.9.4-.3-.3 2.8-.3.3zm3.3-4.8l.4-.3-.3 2.8-.4.3.1-1.3-1 .6-.1 1.3-.4.3.3-2.8.4-.3-.1 1.1 1-.6.1-1.1zm1.5 1.8l.3-2.8 1.4-.9v.4l-1 .7-.1.7.9-.6v.4l-.9.6-.1.8 1.1-.7v.4l-1.6 1zm3.5-5c.3-.2.6-.3.7-.2.2 0 .2.2.2.5 0 .4-.2.7-.5 1.1l.1.1c0 .1.1.1.1.2s.1.1.1.2.1.2.1.2l-.5.3c0-.1-.1-.1-.1-.2s-.1-.1-.1-.2-.1-.1-.1-.2-.1-.1-.1-.1-.1 0-.1.1h-.1l-.2.1-.1 1.1-.4.3.3-2.8.3-.3c.1-.1.4-.1.4-.2zm0 .5c-.1.1-.2.1-.2.2l-.1.9.2-.1c.1-.1.2-.1.3-.2l.2-.2c.1-.1.1-.1.1-.2s.1-.2.1-.3v-.2l-.1-.1h-.2c-.1.1-.2.1-.3.2zm2 1l.3-2.8 1.4-.9v.4l-1 .7-.1.7.9-.6v.4l-.9.6-.1.8 1.1-.7v.4l-1.6 1z" fill="#bcbec0"/><path d="M328.1 128l-3.1 5.1-2.4-1.7-1.4 2.3 7.6 5.6-5.5 9.1-1.3-.9 3.8-6.3-8.7-6.3-11.4 19 8.7 6.3 3.1-5.1 2.4 1.7 1.4-2.4-7.6-5.5 5.5-9.1 1.3.9-3.8 6.3 8.7 6.3 11.4-19-8.7-6.3zm-16.9 22.4l5.3 3.8-1.7 2.8-6.5-4.7 8.6-14.2 1.3.9-7 11.4zm8-5l2.4-4 1.8 1.3-2.4 4-1.8-1.3zm5.2 3.8l6.9-11.5-5.3-3.8 1.7-2.8 6.5 4.7-8.6 14.2-1.2-.8z" fill="red"/><path d="M165 384.9l.7.2-2 1.2-3.6-1.1.7-.4 2.9.9 1.3-.8zm2.1-2.3c.3.1.5.2.7.3.2.1.3.2.3.4 0 .1 0 .3-.1.4s-.3.3-.5.4-.4.2-.7.3c-.3.1-.5.2-.8.2h-.9c-.3 0-.6-.1-.9-.2-.3-.1-.5-.2-.7-.3-.2-.1-.2-.2-.3-.4 0-.1 0-.3.1-.4s.2-.3.4-.4.4-.2.7-.3c.3-.1.5-.2.8-.2h.9c.4 0 .7.1 1 .2zm-2.3 1.4c.2.1.4.1.5.1h.5c.2 0 .3 0 .5-.1.2 0 .3-.1.4-.2l.2-.2v-.2c0-.1-.1-.1-.2-.2s-.3-.1-.4-.2c-.2-.1-.4-.1-.5-.1h-.5c-.2 0-.3 0-.5.1-.2 0-.3.1-.4.2l-.2.2v.2c0 .1.1.1.2.2s.2.1.4.2zm3.1-3c-.3.2-.4.4-.4.5.1.2.3.3.7.4.2.1.4.1.5.1h.5c.2 0 .3 0 .5-.1.2 0 .3-.1.4-.2.1 0 .1-.1.2-.1l.1-.1-1.3-.4.7-.4 1.8.5c0 .1-.1.2-.3.3-.1.1-.3.3-.6.4-.2.1-.5.3-.7.3-.3.1-.5.1-.8.2h-.9c-.3 0-.6-.1-.9-.2-.3-.1-.5-.2-.7-.3-.2-.1-.3-.2-.3-.4 0-.1 0-.3.1-.4s.2-.3.5-.4c.1-.1.3-.2.4-.2.1-.1.3-.1.4-.2.1 0 .2-.1.3-.1h.2l.5.3c-.2 0-.3.1-.5.2-.1.1-.3.2-.4.3zm5.5-2.4c.3.1.5.2.7.3.2.1.3.2.3.4 0 .1 0 .3-.1.4s-.3.3-.5.4-.4.2-.7.3c-.3.1-.5.2-.8.2h-.9c-.3 0-.6-.1-.9-.2-.3-.1-.5-.2-.7-.3-.2-.1-.2-.2-.3-.4 0-.1 0-.3.1-.4s.2-.3.4-.4.4-.2.7-.3c.3-.1.5-.2.8-.2h.9c.4 0 .7.1 1 .2zm-2.2 1.4c.2.1.4.1.5.1h.5c.2 0 .3 0 .5-.1.2 0 .3-.1.4-.2l.2-.2v-.2c0-.1-.1-.1-.2-.2s-.3-.1-.4-.2c-.2-.1-.4-.1-.5-.1h-.5c-.2 0-.3 0-.5.1-.2 0-.3.1-.4.2l-.2.2v.2l.2.2c.1.1.2.1.4.2zm3.1-3.7l.7.2-.9.6 2.9.9-.7.4-2.9-.9-.9.6-.7-.2 2.5-1.6zm4 .9l-3.6-1.1 2-1.3.7.2-1.3.8.7.2 1.2-.7.7.2-1.2.7.9.3 1.4-.9.7.2-2.2 1.4zm4.4-2.8h-.9c-.3 0-.6 0-.9.1 0 0 0 .1.1.2 0 .1.1.1.1.2s.1.1.2.2l.2.2-.8.5c-.2-.2-.3-.3-.4-.5-.1-.2-.3-.4-.4-.6l-2.8.1.8-.5h1.6l-.5-.7.8-.5.8 1.1c.6 0 1.2-.1 1.7-.1h1.2l-.8.3zm-.1-3.3l.7.2-.9.6 2.9.9-.7.4-2.9-.9-.9.6-.7-.2 2.5-1.6zM168.9 386c.1-.1.2-.1.2-.2 0 0 0-.1-.1-.1h-.5c-.1 0-.1 0-.2.1-.1 0-.2.1-.2.1-.1 0-.2 0-.2.1h-.5c-.2-.1-.3-.1-.3-.2s.1-.2.3-.3c.1-.1.2-.1.3-.2.1 0 .2-.1.3-.1l.2.1c-.1 0-.2 0-.3.1-.1 0-.2.1-.2.1-.1 0-.1.1-.1.1s0 .1.1.1h.4c.1 0 .1 0 .2-.1.1 0 .2-.1.3-.1s.2 0 .3-.1h.3c.1 0 .2 0 .3.1.2.1.3.1.3.2s-.1.2-.3.3c-.1 0-.1.1-.2.1s-.1.1-.2.1-.1 0-.2.1h-.1l-.2-.1c.1 0 .2 0 .3-.1-.2 0-.1 0 0-.1zm2.3-1.5l.3.1-1 .6-1.9-.6.3-.2 1.6.5.7-.4zm1.5-1.6c.2.1.3.1.4.2l.2.2c0 .1 0 .1-.1.2 0 .1-.1.1-.2.2s-.2.1-.4.2c-.1 0-.3.1-.4.1h-.5c-.2 0-.3 0-.5-.1s-.3-.1-.4-.2l-.2-.2c0-.1 0-.1.1-.2 0-.1.1-.1.2-.2s.2-.1.4-.2c.1 0 .3-.1.4-.1h.5c.2 0 .4.1.5.1zm-1.2.8c.1 0 .2.1.3.1h.3c.1 0 .2 0 .3-.1.1 0 .2-.1.2-.1.1 0 .1-.1.1-.1v-.1l-.1-.1c-.1 0-.2-.1-.3-.1s-.2-.1-.3-.1h-.3c-.1 0-.2 0-.3.1-.1 0-.2.1-.2.1-.1 0-.1.1-.1.1v.1l.1.1c.1 0 .2.1.3.1zm2.1-2c-.2.1-.2.2-.2.3 0 .1.2.2.4.2.1 0 .2.1.3.1h.3c.1 0 .2 0 .3-.1.1 0 .2-.1.3-.1s.1-.1.1-.1.1 0 .1-.1l-.7-.2.3-.2.9.3-.1.1c-.1.1-.2.1-.3.2s-.2.1-.4.2c-.1 0-.3.1-.4.1h-.5c-.2 0-.3 0-.5-.1-.2 0-.3-.1-.4-.2l-.2-.2v-.2c0-.1.1-.1.2-.2.1 0 .1-.1.2-.1s.1-.1.2-.1h.2l.2.1c-.1 0-.2 0-.3.1.2.1.1.2 0 .2zm4.1-1h-.6l-.7.4c.1 0 .1.1.2.1s.1.1.2.1l-.3.2c-.1-.1-.3-.2-.4-.3-.1-.1-.2-.2-.3-.2-.1-.1-.2-.2-.3-.2-.1-.1-.2-.1-.3-.2l.3-.2h1.2c.2 0 .4 0 .7.1.2 0 .5 0 .7.1l-.4.1zm-2-.2l.2.2c.1.1.2.1.3.2l.5-.3c-.2 0-.4 0-.6-.1h-.4zm4.1-1.1h-2.2l1.4.4-.3.2-1.9-.6.2-.1h2.1l-1.3-.4.3-.2 1.9.6-.2.1zm.2-2l.3-.2 1.9.6-.3.2-.9-.3-.7.4.9.3-.3.2-1.9-.6.3-.2.8.2.7-.4-.8-.2zm3.1-.1l-1.9-.6 1-.6.3.1-.7.5.5.1.6-.4.3.1-.6.4.6.2.8-.5.3.1-1.2.6zm.4-2.1c.2-.1.5-.2.7-.3h.7c.3.1.3.2.2.4h1.2l-.3.2h-1.2l-.1.1.7.2-.3.2-1.9-.6c.1 0 .1-.1.2-.2-.1.1 0 .1.1 0zm.3.1c-.1 0-.1.1-.2.1l.6.2.1-.1c.1 0 .1-.1.2-.1l.1-.1v-.1s-.1 0-.1-.1h-.4c-.1 0-.1 0-.2.1 0 0 0 .1-.1.1zm3.2-.5l-1.9-.6 1-.6.3.1-.7.5.5.1.6-.4.3.1-.6.4.6.2.8-.5.3.1-1.2.6zm-31.9-5.1l.4 1.9-4.2.5.2.9 13.7-1.6.8 3.4-2.3.3-.5-2.4-15.7 1.8 1.6 7 15.7-1.8-.4-1.9 4.2-.5-.2-.9-13.7 1.6-.8-3.4 2.3-.3.5 2.4 15.7-1.8-1.6-7-15.7 1.8zm-2.2 9.5l9.5-1.1.2 1-11.8 1.4-1.2-5.3 2.3-.3 1 4.3zm5.5-3.5l-.3-1.5 3.3-.4.3 1.5-3.3.4zm9.5-1.1l-1-4.3-9.5 1.1-.2-1L169 369l1.2 5.3-2.3.3z" fill="none" stroke="#616c84" stroke-miterlimit="10"/><path class="st33" d="M165 384.9l.7.2-2 1.2-3.6-1.1.7-.4 2.9.9 1.3-.8zm2.1-2.3c.3.1.5.2.7.3.2.1.3.2.3.4 0 .1 0 .3-.1.4s-.3.3-.5.4-.4.2-.7.3c-.3.1-.5.2-.8.2h-.9c-.3 0-.6-.1-.9-.2-.3-.1-.5-.2-.7-.3-.2-.1-.2-.2-.3-.4 0-.1 0-.3.1-.4s.2-.3.4-.4.4-.2.7-.3c.3-.1.5-.2.8-.2h.9c.4 0 .7.1 1 .2zm-2.3 1.4c.2.1.4.1.5.1h.5c.2 0 .3 0 .5-.1.2 0 .3-.1.4-.2l.2-.2v-.2c0-.1-.1-.1-.2-.2s-.3-.1-.4-.2c-.2-.1-.4-.1-.5-.1h-.5c-.2 0-.3 0-.5.1-.2 0-.3.1-.4.2l-.2.2v.2c0 .1.1.1.2.2s.2.1.4.2zm3.1-3c-.3.2-.4.4-.4.5.1.2.3.3.7.4.2.1.4.1.5.1h.5c.2 0 .3 0 .5-.1.2 0 .3-.1.4-.2.1 0 .1-.1.2-.1l.1-.1-1.3-.4.7-.4 1.8.5c0 .1-.1.2-.3.3-.1.1-.3.3-.6.4-.2.1-.5.3-.7.3-.3.1-.5.1-.8.2h-.9c-.3 0-.6-.1-.9-.2-.3-.1-.5-.2-.7-.3-.2-.1-.3-.2-.3-.4 0-.1 0-.3.1-.4s.2-.3.5-.4c.1-.1.3-.2.4-.2.1-.1.3-.1.4-.2.1 0 .2-.1.3-.1h.2l.5.3c-.2 0-.3.1-.5.2-.1.1-.3.2-.4.3zm5.5-2.4c.3.1.5.2.7.3.2.1.3.2.3.4 0 .1 0 .3-.1.4s-.3.3-.5.4-.4.2-.7.3c-.3.1-.5.2-.8.2h-.9c-.3 0-.6-.1-.9-.2-.3-.1-.5-.2-.7-.3-.2-.1-.2-.2-.3-.4 0-.1 0-.3.1-.4s.2-.3.4-.4.4-.2.7-.3c.3-.1.5-.2.8-.2h.9c.4 0 .7.1 1 .2zm-2.2 1.4c.2.1.4.1.5.1h.5c.2 0 .3 0 .5-.1.2 0 .3-.1.4-.2l.2-.2v-.2c0-.1-.1-.1-.2-.2s-.3-.1-.4-.2c-.2-.1-.4-.1-.5-.1h-.5c-.2 0-.3 0-.5.1-.2 0-.3.1-.4.2l-.2.2v.2l.2.2c.1.1.2.1.4.2zm3.1-3.7l.7.2-.9.6 2.9.9-.7.4-2.9-.9-.9.6-.7-.2 2.5-1.6zm4 .9l-3.6-1.1 2-1.3.7.2-1.3.8.7.2 1.2-.7.7.2-1.2.7.9.3 1.4-.9.7.2-2.2 1.4zm4.4-2.8h-.9c-.3 0-.6 0-.9.1 0 0 0 .1.1.2 0 .1.1.1.1.2s.1.1.2.2l.2.2-.8.5c-.2-.2-.3-.3-.4-.5-.1-.2-.3-.4-.4-.6l-2.8.1.8-.5h1.6l-.5-.7.8-.5.8 1.1c.6 0 1.2-.1 1.7-.1h1.2l-.8.3zm-.1-3.3l.7.2-.9.6 2.9.9-.7.4-2.9-.9-.9.6-.7-.2 2.5-1.6zM168.9 386c.1-.1.2-.1.2-.2 0 0 0-.1-.1-.1h-.5c-.1 0-.1 0-.2.1-.1 0-.2.1-.2.1-.1 0-.2 0-.2.1h-.5c-.2-.1-.3-.1-.3-.2s.1-.2.3-.3c.1-.1.2-.1.3-.2.1 0 .2-.1.3-.1l.2.1c-.1 0-.2 0-.3.1-.1 0-.2.1-.2.1-.1 0-.1.1-.1.1s0 .1.1.1h.4c.1 0 .1 0 .2-.1.1 0 .2-.1.3-.1s.2 0 .3-.1h.3c.1 0 .2 0 .3.1.2.1.3.1.3.2s-.1.2-.3.3c-.1 0-.1.1-.2.1s-.1.1-.2.1-.1 0-.2.1h-.1l-.2-.1c.1 0 .2 0 .3-.1-.2 0-.1 0 0-.1zm2.3-1.5l.3.1-1 .6-1.9-.6.3-.2 1.6.5.7-.4zm1.5-1.6c.2.1.3.1.4.2l.2.2c0 .1 0 .1-.1.2 0 .1-.1.1-.2.2s-.2.1-.4.2c-.1 0-.3.1-.4.1h-.5c-.2 0-.3 0-.5-.1s-.3-.1-.4-.2l-.2-.2c0-.1 0-.1.1-.2 0-.1.1-.1.2-.2s.2-.1.4-.2c.1 0 .3-.1.4-.1h.5c.2 0 .4.1.5.1zm-1.2.8c.1 0 .2.1.3.1h.3c.1 0 .2 0 .3-.1.1 0 .2-.1.2-.1.1 0 .1-.1.1-.1v-.1l-.1-.1c-.1 0-.2-.1-.3-.1s-.2-.1-.3-.1h-.3c-.1 0-.2 0-.3.1-.1 0-.2.1-.2.1-.1 0-.1.1-.1.1v.1l.1.1c.1 0 .2.1.3.1zm2.1-2c-.2.1-.2.2-.2.3 0 .1.2.2.4.2.1 0 .2.1.3.1h.3c.1 0 .2 0 .3-.1.1 0 .2-.1.3-.1s.1-.1.1-.1.1 0 .1-.1l-.7-.2.3-.2.9.3-.1.1c-.1.1-.2.1-.3.2s-.2.1-.4.2c-.1 0-.3.1-.4.1h-.5c-.2 0-.3 0-.5-.1-.2 0-.3-.1-.4-.2l-.2-.2v-.2c0-.1.1-.1.2-.2.1 0 .1-.1.2-.1s.1-.1.2-.1h.2l.2.1c-.1 0-.2 0-.3.1.2.1.1.2 0 .2zm4.1-1h-.6l-.7.4c.1 0 .1.1.2.1s.1.1.2.1l-.3.2c-.1-.1-.3-.2-.4-.3-.1-.1-.2-.2-.3-.2-.1-.1-.2-.2-.3-.2-.1-.1-.2-.1-.3-.2l.3-.2h1.2c.2 0 .4 0 .7.1.2 0 .5 0 .7.1l-.4.1zm-2-.2l.2.2c.1.1.2.1.3.2l.5-.3c-.2 0-.4 0-.6-.1h-.4zm4.1-1.1h-2.2l1.4.4-.3.2-1.9-.6.2-.1h2.1l-1.3-.4.3-.2 1.9.6-.2.1zm.2-2l.3-.2 1.9.6-.3.2-.9-.3-.7.4.9.3-.3.2-1.9-.6.3-.2.8.2.7-.4-.8-.2zm3.1-.1l-1.9-.6 1-.6.3.1-.7.5.5.1.6-.4.3.1-.6.4.6.2.8-.5.3.1-1.2.6zm.4-2.1c.2-.1.5-.2.7-.3h.7c.3.1.3.2.2.4h1.2l-.3.2h-1.2l-.1.1.7.2-.3.2-1.9-.6c.1 0 .1-.1.2-.2-.1.1 0 .1.1 0zm.3.1c-.1 0-.1.1-.2.1l.6.2.1-.1c.1 0 .1-.1.2-.1l.1-.1v-.1s-.1 0-.1-.1h-.4c-.1 0-.1 0-.2.1 0 0 0 .1-.1.1zm3.2-.5l-1.9-.6 1-.6.3.1-.7.5.5.1.6-.4.3.1-.6.4.6.2.8-.5.3.1-1.2.6zm-31.9-5.1l.4 1.9-4.2.5.2.9 13.7-1.6.8 3.4-2.3.3-.5-2.4-15.7 1.8 1.6 7 15.7-1.8-.4-1.9 4.2-.5-.2-.9-13.7 1.6-.8-3.4 2.3-.3.5 2.4 15.7-1.8-1.6-7-15.7 1.8zm-2.2 9.5l9.5-1.1.2 1-11.8 1.4-1.2-5.3 2.3-.3 1 4.3zm5.5-3.5l-.3-1.5 3.3-.4.3 1.5-3.3.4zm9.5-1.1l-1-4.3-9.5 1.1-.2-1L169 369l1.2 5.3-2.3.3z" opacity=".22"/></svg>