<svg xmlns="http://www.w3.org/2000/svg" width="18" height="26" viewBox="0 0 18 26">
  <g id="Group_2445" data-name="Group 2445" transform="translate(-152.061 -241)">
    <g id="Group_2413" data-name="Group 2413" transform="translate(152.061 241)">
      <g id="Group_2410" data-name="Group 2410" transform="translate(0 0)">
        <path id="Path_697" data-name="Path 697" d="M39.011,1.559,36.454,13.254l-2.557-.52L36.2,2.6H24.052l2.174,10.135-2.557.52L21.111,1.559A1.022,1.022,0,0,1,21.367.52,1.157,1.157,0,0,1,22.389,0H37.732a1.157,1.157,0,0,1,1.023.52A1.022,1.022,0,0,1,39.011,1.559Z" transform="translate(-21.061 0)" fill="#a2a2a2"/>
      </g>
      <g id="Group_2412" data-name="Group 2412" transform="translate(1.265 9.323)">
        <g id="Group_2411" data-name="Group 2411">
          <path id="Path_698" data-name="Path 698" d="M34.9,23.84c-.256,0-.384,0-.511-.13l-4.6-2.339-4.6,2.339a1.381,1.381,0,0,1-1.406-.13,1.188,1.188,0,0,1-.384-1.3L24.543,17.6l-2.3-3.378a1.2,1.2,0,0,1,0-1.3,1.338,1.338,0,0,1,1.151-.65h3.069l2.174-4.418a1.312,1.312,0,0,1,2.3,0l2.174,4.418h3.069a1.338,1.338,0,0,1,1.151.65,1.2,1.2,0,0,1,0,1.3l-2.3,3.378,1.151,4.678a1.188,1.188,0,0,1-.384,1.3A1.826,1.826,0,0,1,34.9,23.84Zm-5.114-5.2c.256,0,.384,0,.511.13l2.685,1.3L32.342,17.6a1.4,1.4,0,0,1,.128-1.04l1.279-1.819H32.342a1.228,1.228,0,0,1-1.151-.78l-1.406-2.859-1.406,2.859a1.469,1.469,0,0,1-1.151.78H25.822L27.1,16.563a.994.994,0,0,1,.128,1.04l-.639,2.469,2.685-1.3A.759.759,0,0,1,29.785,18.642Z" transform="translate(-22.05 -7.175)" fill="#a2a2a2"/>
        </g>
      </g>
    </g>
    <g id="Group_2416" data-name="Group 2416" transform="translate(159.399 244.508)">
      <path id="Path_699" data-name="Path 699" d="M30.252,6.078v.91h-3.2v-.78L28.59,4.779a.71.71,0,0,0,.384-.65c0-.26-.128-.39-.511-.39a1.1,1.1,0,0,0-.767.39L26.8,3.61a1.828,1.828,0,0,1,1.662-.91A1.365,1.365,0,0,1,30,4a1.766,1.766,0,0,1-.639,1.3l-.767.78Z" transform="translate(-26.8 -2.7)" fill="#a2a2a2"/>
    </g>
  </g>
</svg>
