<svg id="Group_2444" data-name="Group 2444" xmlns="http://www.w3.org/2000/svg" width="18" height="26" viewBox="0 0 18 26">
  <g id="Group_2405" data-name="Group 2405">
    <g id="Group_2402" data-name="Group 2402">
      <path id="Path_694" data-name="Path 694" d="M18,1.559,15.429,13.254l-2.571-.52L15.171,2.6H2.957L5.143,12.734l-2.571.52L0,1.559A1.411,1.411,0,0,1,.257.52,1.165,1.165,0,0,1,1.286,0H16.714a1.165,1.165,0,0,1,1.029.52A1.411,1.411,0,0,1,18,1.559Z" fill="#ffad17"/>
    </g>
    <g id="Group_2404" data-name="Group 2404" transform="translate(1.221 9.193)">
      <g id="Group_2403" data-name="Group 2403">
        <path id="Path_695" data-name="Path 695" d="M13.871,23.87c-.257,0-.386,0-.514-.13L8.729,21.4,4.1,23.74a1.4,1.4,0,0,1-1.414-.13,1.184,1.184,0,0,1-.386-1.3l1.157-4.678L1.143,14.254a1.191,1.191,0,0,1,0-1.3,1.235,1.235,0,0,1,1.157-.78H5.386L7.571,7.757a1.322,1.322,0,0,1,2.314,0l2.186,4.418h3.086a1.347,1.347,0,0,1,1.157.65,1.191,1.191,0,0,1,0,1.3L14,17.5l1.157,4.678a1.184,1.184,0,0,1-.386,1.3A1.7,1.7,0,0,1,13.871,23.87Zm-5.143-5.2c.257,0,.386,0,.514.13l2.7,1.3L11.3,17.633a1.762,1.762,0,0,1,.257-1.04l1.286-1.819H11.3a1.235,1.235,0,0,1-1.157-.78L8.729,11.136,7.314,13.994a1.235,1.235,0,0,1-1.157.78H4.743l1.286,1.819a3.262,3.262,0,0,1,.129,1.04L5.514,20.1l2.7-1.3C8.343,18.672,8.471,18.672,8.729,18.672Z" transform="translate(-0.95 -7.075)" fill="#ffad17"/>
      </g>
    </g>
  </g>
  <g id="Group_2406" data-name="Group 2406" transform="translate(7.071 2.599)">
    <line id="Line_3" data-name="Line 3" x1="3.857" fill="#767677"/>
  </g>
  <g id="Group_2407" data-name="Group 2407" transform="translate(7.071 2.599)">
    <line id="Line_4" data-name="Line 4" x1="3.857" fill="#767677"/>
  </g>
  <g id="Group_2408" data-name="Group 2408" transform="translate(7.843 3.638)">
    <path id="Path_696" data-name="Path 696" d="M8.029,2.8V6.958H6.871V3.71H6.1V2.8Z" transform="translate(-6.1 -2.8)" fill="#ffad17"/>
  </g>
</svg>
