<svg xmlns="http://www.w3.org/2000/svg" width="18" height="26"><g data-name="Group 2450"><g data-name="Group 2418"><path data-name="Path 700" d="M17.95 1.559l-2.557 11.695-2.554-.52 2.3-10.134H2.991l2.174 10.135-2.557.52L.05 1.559A1.022 1.022 0 0 1 .306.52 1.313 1.313 0 0 1 1.328 0h15.343a1.157 1.157 0 0 1 1.023.52 1.022 1.022 0 0 1 .256 1.039z" fill="#d4aa5f"/><g data-name="Group 2417"><path data-name="Path 701" d="M14.115 25.988c-.256 0-.384 0-.511-.13l-4.6-2.339-4.6 2.339a1.381 1.381 0 0 1-1.406-.13 1.188 1.188 0 0 1-.384-1.3l1.144-4.68-2.3-3.378a1.2 1.2 0 0 1 0-1.3 1.338 1.338 0 0 1 1.151-.65h3.069l2.174-4.418a1.312 1.312 0 0 1 2.3 0l2.174 4.418h3.069a1.338 1.338 0 0 1 1.151.65 1.2 1.2 0 0 1 0 1.3l-2.3 3.378 1.151 4.678a1.188 1.188 0 0 1-.384 1.3 1.826 1.826 0 0 1-.898.262zm-5.114-5.2c.256 0 .384 0 .511.13l2.685 1.3-.64-2.47a1.4 1.4 0 0 1 .128-1.04l1.279-1.819h-1.407a1.228 1.228 0 0 1-1.151-.78L9 13.25l-1.406 2.859a1.119 1.119 0 0 1-1.151.78H5.037l1.278 1.822a.994.994 0 0 1 .128 1.04l-.639 2.469 2.685-1.3A.759.759 0 0 1 9 20.79z" fill="#d4aa5f"/></g></g><g data-name="Group 2421"><path data-name="Path 702" d="M10.79 6.497c0 .65-.511 1.429-1.79 1.429a3 3 0 0 1-1.534-.388l.384-.91a2.04 2.04 0 0 0 1.151.39c.384 0 .639-.13.639-.39s-.128-.39-.639-.39H8.49v-.91l.767-.78H7.594v-.91h2.941v.78l-.895.91q1.15.194 1.15 1.169z" fill="#d4aa5f"/></g></g></svg>