<svg data-name="Group 2444" xmlns="http://www.w3.org/2000/svg" width="18" height="26"><g data-name="Group 2405"><g data-name="Group 2402"><path data-name="Path 694" d="M18 1.559l-2.571 11.695-2.571-.52L15.171 2.6H2.957l2.186 10.134-2.571.52L0 1.559A1.411 1.411 0 0 1 .257.52 1.165 1.165 0 0 1 1.286 0h15.428a1.165 1.165 0 0 1 1.029.52A1.411 1.411 0 0 1 18 1.559z" fill="#ffad17"/></g><g data-name="Group 2404"><g data-name="Group 2403"><path data-name="Path 695" d="M14.142 25.988c-.257 0-.386 0-.514-.13L9 23.518l-4.629 2.34a1.4 1.4 0 0 1-1.414-.13 1.184 1.184 0 0 1-.386-1.3l1.157-4.678-2.314-3.378a1.191 1.191 0 0 1 0-1.3 1.235 1.235 0 0 1 1.157-.78h3.086l2.185-4.417a1.322 1.322 0 0 1 2.314 0l2.186 4.418h3.086a1.347 1.347 0 0 1 1.157.65 1.191 1.191 0 0 1 0 1.3l-2.314 3.375 1.157 4.678a1.184 1.184 0 0 1-.386 1.3 1.7 1.7 0 0 1-.9.392zm-5.143-5.2c.257 0 .386 0 .514.13l2.7 1.3-.642-2.467a1.762 1.762 0 0 1 .257-1.04l1.286-1.819h-1.543a1.235 1.235 0 0 1-1.157-.78L9 13.254l-1.415 2.858a1.235 1.235 0 0 1-1.157.78H5.014L6.3 18.711a3.262 3.262 0 0 1 .129 1.04l-.644 2.467 2.7-1.3c.129-.128.257-.128.515-.128z" fill="#ffad17"/></g></g></g><g data-name="Group 2406"><path data-name="Line 3" fill="#767677" d="M10.928 2.599H7.071"/></g><g data-name="Group 2407"><path data-name="Line 4" fill="#767677" d="M10.928 2.599H7.071"/></g><g data-name="Group 2408"><path data-name="Path 696" d="M9.772 3.638v4.158H8.614V4.548h-.771v-.91z" fill="#ffad17"/></g></svg>