<svg xmlns="http://www.w3.org/2000/svg" width="18" height="26" viewBox="0 0 18 26">
  <g id="Group_2450" data-name="Group 2450" transform="translate(-175.161 -241)">
    <g id="Group_2418" data-name="Group 2418" transform="translate(175.161 241)">
      <path id="Path_700" data-name="Path 700" d="M62.111,1.559,59.554,13.254,57,12.734,59.3,2.6H47.152l2.174,10.135-2.557.52L44.211,1.559A1.022,1.022,0,0,1,44.467.52,1.313,1.313,0,0,1,45.489,0H60.832a1.157,1.157,0,0,1,1.023.52A1.022,1.022,0,0,1,62.111,1.559Z" transform="translate(-44.161 0)" fill="#d4aa5f"/>
      <g id="Group_2417" data-name="Group 2417" transform="translate(1.265 9.323)">
        <path id="Path_701" data-name="Path 701" d="M58,23.84c-.256,0-.384,0-.511-.13l-4.6-2.339-4.6,2.339a1.381,1.381,0,0,1-1.406-.13,1.188,1.188,0,0,1-.384-1.3L47.643,17.6l-2.3-3.378a1.2,1.2,0,0,1,0-1.3,1.338,1.338,0,0,1,1.151-.65h3.069l2.174-4.418a1.312,1.312,0,0,1,2.3,0l2.174,4.418h3.069a1.338,1.338,0,0,1,1.151.65,1.2,1.2,0,0,1,0,1.3l-2.3,3.378,1.151,4.678a1.188,1.188,0,0,1-.384,1.3A1.826,1.826,0,0,1,58,23.84Zm-5.114-5.2c.256,0,.384,0,.511.13l2.685,1.3L55.442,17.6a1.4,1.4,0,0,1,.128-1.04l1.279-1.819H55.442a1.228,1.228,0,0,1-1.151-.78l-1.406-2.859-1.406,2.859a1.119,1.119,0,0,1-1.151.78H48.922L50.2,16.563a.994.994,0,0,1,.128,1.04l-.639,2.469,2.685-1.3A.759.759,0,0,1,52.885,18.642Z" transform="translate(-45.15 -7.175)" fill="#d4aa5f"/>
      </g>
    </g>
    <g id="Group_2421" data-name="Group 2421" transform="translate(182.627 244.638)">
      <path id="Path_702" data-name="Path 702" d="M53.324,5.659c0,.65-.511,1.429-1.79,1.429A3,3,0,0,1,50,6.7l.384-.91a2.04,2.04,0,0,0,1.151.39c.384,0,.639-.13.639-.39s-.128-.39-.639-.39h-.511v-.91l.767-.78H50.128V2.8h2.941v.78l-.895.91Q53.324,4.684,53.324,5.659Z" transform="translate(-50 -2.8)" fill="#d4aa5f"/>
    </g>
  </g>
</svg>
