<svg version="1.1" id="Capa_1" xmlns="http://www.w3.org/2000/svg" x="0" y="0" viewBox="0 0 688 624" xml:space="preserve"><style>.st3{fill:#0795ff}</style><path d="M324.7 483.7c-27.4-12.1-49.9-32.1-64.9-58-13-22.3-19.9-47.7-19.9-73.5V144.1l13.2 2.7c10.6 2.2 21.4 3.2 32.2 3.2 29.8 0 59-8.3 84.4-23.9l14.1-8.7 14.1 8.7c25.4 15.7 54.6 23.9 84.5 23.9 10.8 0 21.6-1.1 32.2-3.2l13.2-2.7v208.1c0 25.8-6.9 51.2-19.9 73.5-12.1 20.6-29.2 37.9-49.7 50.1v.1l-3.6 2-2.2 1.2c-3.1 1.7-6.3 3.2-9.5 4.6l-59.1 25.9-59.1-25.9z" fill="#394c98"/><path d="M384.3 148.3l-.5-.3-.5.3c-29.5 18.2-63.4 27.8-98.1 27.8-6.5 0-13-.3-19.4-1v177.2c0 21.2 5.6 42.1 16.4 60.4 12.3 21.1 30.6 37.4 52.9 47.3l48.7 21.3 1.2-.5v-332c-.3-.3-.5-.4-.7-.5z" fill="#0782d7"/><path class="st3" d="M482.3 176.1c-34.4 0-68.1-9.5-97.4-27.4v332l47.6-20.9c1.6-.7 3.3-1.5 4.9-2.3l2.6-1.4c18.9-10.1 34.5-25.1 45.3-43.6 10.7-18.3 16.4-39.2 16.4-60.4V175c-6.4.7-12.9 1.1-19.4 1.1z"/><path d="M313.8 328l54.9 54.9 116.7-116.7-27.5-27.5-89.2 89.3-27.5-27.5-27.4 27.5z" fill="#e5e9ea"/><path class="st3" d="M574 444.3c-.8 0-1.5-.2-2.2-.7l-25.1-16.5c-1.8-1.2-2.4-3.7-1.1-5.5l16.5-25.1c.6-.9 1.5-1.5 2.5-1.7 1-.2 2.1 0 3 .6l25.1 16.5c1.8 1.2 2.4 3.7 1.1 5.5l-16.5 25.1c-.6.9-1.5 1.5-2.5 1.7-.2.1-.5.1-.8.1zm-19.5-21.6l18.4 12.1 12.1-18.4-18.4-12.1-12.1 18.4z"/><circle class="st3" cx="122.7" cy="363.4" r="5.4"/><path class="st3" d="M177.5 357.4c-1.1 0-2.2-.4-3-1.3l-27-30c-1.5-1.6-1.3-4.2.3-5.6 1.6-1.5 4.2-1.3 5.6.3l27 30c1.5 1.6 1.3 4.2-.3 5.6-.7.7-1.6 1-2.6 1z"/></svg>