<svg version="1.1" id="Capa_1" xmlns="http://www.w3.org/2000/svg" x="0" y="0" viewBox="0 0 900 712" xml:space="preserve"><style>.st1{fill:#e5e9ea}.st3{fill:#0795ff}.st12{fill:#88bde7}</style><circle class="st3" cx="764" cy="205" r="5.4"/><path d="M702.8 171.2c0-6.6-5.4-12.4-12.4-12.4H201.7c-6.6 0-12.4 5.4-12.4 12.4v287.7h513.2V171.2h.3zm0 0" fill="#394c98"/><path class="st1" d="M189.6 458.9v49.8c0 6.6 5.4 12.4 12.4 12.4h488.7c6.6 0 12.4-5.4 12.4-12.4v-49.8H189.6zm0 0"/><path class="st3" d="M214.5 184.4H678V434H214.5z"/><path d="M458.3 490c0 6.7-5.4 12.1-12.1 12.1-6.7 0-12.1-5.4-12.1-12.1 0-6.7 5.4-12 12.1-12 6.7 0 12.1 5.4 12.1 12zm0 0" opacity=".45" fill="#94a3bb"/><path fill="#dededf" d="M355.2 520.7h182v47.4h-182z"/><path class="st1" d="M543.4 568.2H349c-18.7 0-34.2 15.2-34.2 34.2h262.8c0-18.7-15.1-34.2-34.2-34.2zm80-311.2c0 2.5-2 4.5-4.5 4.5h-99c-2.5 0-4.5-2-4.5-4.5s2-4.5 4.5-4.5h99c2.5 0 4.5 2 4.5 4.5z"/><path class="st12" d="M501.1 257c0 2.5-2 4.5-4.5 4.5H273.5c-2.5 0-4.5-2-4.5-4.5s2-4.5 4.5-4.5h223.1c2.5 0 4.5 2 4.5 4.5z"/><path class="st1" d="M523.9 257.1c0 8.8-7.1 15.9-15.9 15.9s-15.9-7.1-15.9-15.9 7.1-15.9 15.9-15.9 15.9 7.1 15.9 15.9zm-22.8 0c0 3.8 3.1 6.9 6.9 6.9 3.8 0 6.9-3.1 6.9-6.9 0-3.8-3.1-6.9-6.9-6.9-3.8 0-6.9 3.1-6.9 6.9zm122.1 111.1c0 2.5-2 4.5-4.5 4.5H440c-2.5 0-4.5-2-4.5-4.5s2-4.5 4.5-4.5h178.8c2.4-.1 4.4 2 4.4 4.5z"/><path class="st12" d="M421.3 368.2c0 2.5-2 4.5-4.5 4.5H273.3c-2.5 0-4.5-2-4.5-4.5s2-4.5 4.5-4.5h143.5c2.5-.1 4.5 2 4.5 4.5z"/><path class="st1" d="M444.1 368.2c0 8.8-7.1 15.9-15.9 15.9s-15.9-7.1-15.9-15.9 7.1-15.9 15.9-15.9 15.9 7.1 15.9 15.9zm-22.8 0c0 3.8 3.1 6.9 6.9 6.9 3.8 0 6.9-3.1 6.9-6.9 0-3.8-3.1-6.9-6.9-6.9-3.8 0-6.9 3.1-6.9 6.9z"/><path class="st12" d="M345.8 310.7c0 2.5-2 4.5-4.5 4.5h-67.8c-2.5 0-4.5-2-4.5-4.5s2-4.5 4.5-4.5h67.8c2.5 0 4.5 2 4.5 4.5z"/><path class="st1" d="M623.4 310.7c0 2.5-2 4.5-4.5 4.5H371c-2.5 0-4.5-2-4.5-4.5s2-4.5 4.5-4.5h247.9c2.5 0 4.5 2 4.5 4.5z"/><path class="st1" d="M371.4 310.7c0 8.8-7.1 15.9-15.9 15.9s-15.9-7.1-15.9-15.9 7.1-15.9 15.9-15.9c8.8-.1 15.9 7.1 15.9 15.9zm-22.8 0c0 3.8 3.1 6.9 6.9 6.9 3.8 0 6.9-3.1 6.9-6.9 0-3.8-3.1-6.9-6.9-6.9-3.8-.1-6.9 3-6.9 6.9z"/><path class="st3" d="M132.5 361.8c-13.8 0-25-11.2-25-25s11.2-25 25-25 25 11.2 25 25-11.2 25-25 25zm0-42c-9.4 0-17 7.6-17 17s7.6 17 17 17 17-7.6 17-17-7.6-17-17-17zm639.5-7.3c-2.2 0-4-1.8-4-4v-30c0-2.2 1.8-4 4-4h26V245c0-2.2 1.8-4 4-4h30c2.2 0 4 1.8 4 4s-1.8 4-4 4h-26v29.5c0 2.2-1.8 4-4 4h-26v26c0 2.2-1.8 4-4 4zM77 420.1c-.7 0-1.3-.2-1.9-.6-.8-.5-1.3-1.3-1.5-2.2l-4.1-19.7c-.4-1.9.8-3.7 2.7-4.1l19.7-4.1c.9-.2 1.9 0 2.6.5.8.5 1.3 1.3 1.5 2.2l4.1 19.7c.4 1.9-.8 3.7-2.7 4.1L77.7 420c-.3.1-.5.1-.7.1zm0-20.5l2.7 12.8 12.8-2.7-2.6-12.7-12.9 2.6z"/></svg>