<?xml version="1.0" encoding="utf-8"?>
<!-- Generator: Adobe Illustrator 22.1.0, SVG Export Plug-In . SVG Version: 6.00 Build 0)  -->
<svg version="1.1" id="Capa_1" xmlns="http://www.w3.org/2000/svg" xmlns:xlink="http://www.w3.org/1999/xlink" x="0px" y="0px"
	 viewBox="0 0 688 624" style="enable-background:new 0 0 688 624;" xml:space="preserve">
<style type="text/css">
	.st0{fill:#5CB4FF;}
	.st1{fill:#E5E9EA;}
	.st2{fill:#C1C4C5;}
	.st3{fill:#0795FF;}
	.st4{fill:#394C98;}
	.st5{fill:#E0E0E0;}
	.st6{fill:#EEEEEE;}
	.st7{fill:#0783DE;}
	.st8{fill:none;stroke:#E5E9EA;stroke-width:4;stroke-miterlimit:10;}
	.st9{fill:#077DE8;}
	.st10{opacity:0.45;fill:#94A3BB;}
	.st11{fill:#DEDEDF;}
	.st12{fill:#88BDE7;}
	.st13{fill:#0782D7;}
	.st14{opacity:0.63;}
	.st15{fill:#94A3BB;}
	.st16{opacity:0.32;}
	.st17{clip-path:url(#SVGID_2_);}
	.st18{clip-path:url(#SVGID_4_);}
	.st19{fill:url(#XMLID_6_);}
	.st20{fill:url(#XMLID_7_);}
	.st21{fill:url(#XMLID_11_);}
	.st22{fill:#2B6CD7;}
	.st23{fill:#64C7F3;}
	.st24{fill:#6D6D6C;}
	.st25{fill:#076CD4;}
</style>
<g>
	<g>
		<path class="st4" d="M324.7,483.7c-27.4-12.1-49.9-32.1-64.9-58c-13-22.3-19.9-47.7-19.9-73.5V144.1l13.2,2.7
			c10.6,2.2,21.4,3.2,32.2,3.2c29.8,0,59-8.3,84.4-23.9l14.1-8.7l14.1,8.7c25.4,15.7,54.6,23.9,84.5,23.9c10.8,0,21.6-1.1,32.2-3.2
			l13.2-2.7v208.1c0,25.8-6.9,51.2-19.9,73.5c-12.1,20.6-29.2,37.9-49.7,50.1v0.1l-3.6,2l-2.2,1.2c-3.1,1.7-6.3,3.2-9.5,4.6
			l-59.1,25.9L324.7,483.7z"/>
		<path class="st13" d="M384.3,148.3l-0.5-0.3l-0.5,0.3c-29.5,18.2-63.4,27.8-98.1,27.8c-6.5,0-13-0.3-19.4-1v177.2
			c0,21.2,5.6,42.1,16.4,60.4c12.3,21.1,30.6,37.4,52.9,47.3l48.7,21.3l1.2-0.5v-332C384.7,148.5,384.5,148.4,384.3,148.3z"/>
		<path class="st3" d="M482.3,176.1c-34.4,0-68.1-9.5-97.4-27.4v332l47.6-20.9c1.6-0.7,3.3-1.5,4.9-2.3l2.6-1.4
			c18.9-10.1,34.5-25.1,45.3-43.6c10.7-18.3,16.4-39.2,16.4-60.4V175C495.3,175.7,488.8,176.1,482.3,176.1z"/>
		<path class="st1" d="M313.8,328l54.9,54.9l116.7-116.7l-27.5-27.5L368.7,328l-27.5-27.5L313.8,328z"/>
	</g>
	<g>
		<path class="st3" d="M574,444.3c-0.8,0-1.5-0.2-2.2-0.7l-25.1-16.5c-1.8-1.2-2.4-3.7-1.1-5.5l16.5-25.1c0.6-0.9,1.5-1.5,2.5-1.7
			c1-0.2,2.1,0,3,0.6l25.1,16.5c1.8,1.2,2.4,3.7,1.1,5.5l-16.5,25.1c-0.6,0.9-1.5,1.5-2.5,1.7C574.6,444.3,574.3,444.3,574,444.3z
			 M554.5,422.7l18.4,12.1l12.1-18.4l-18.4-12.1L554.5,422.7z"/>
	</g>
	<g>
		<circle class="st3" cx="122.7" cy="363.4" r="5.4"/>
	</g>
	<g>
		<path class="st3" d="M177.5,357.4c-1.1,0-2.2-0.4-3-1.3l-27-30c-1.5-1.6-1.3-4.2,0.3-5.6c1.6-1.5,4.2-1.3,5.6,0.3l27,30
			c1.5,1.6,1.3,4.2-0.3,5.6C179.4,357.1,178.5,357.4,177.5,357.4z"/>
	</g>
</g>
</svg>
