<svg version="1.1" id="Capa_1" xmlns="http://www.w3.org/2000/svg" xmlns:xlink="http://www.w3.org/1999/xlink" x="0" y="0" viewBox="0 0 632 636" xml:space="preserve"><style>.st3{fill:#0795ff}.st4{fill:#394c98}</style><path class="st4" d="M431.7 286.6c-4.1 0-7.9-1.7-10.9-4.9-10.2-10.9.8-25.1 8.9-35.4 1.3-1.7 2.5-3.3 3.7-4.8 2.1-2.9 6.2-3.5 9.1-1.4 2.9 2.1 3.5 6.2 1.4 9.1-1.2 1.7-2.6 3.4-3.9 5-4.6 5.9-12.3 15.8-9.7 18.6.8.8 1.2.8 1.4.8 2.3 0 6.1-2.8 11.1-8.2l.2-.2L564.9 129c16.4-18.6 13.6-22.2 13.5-22.3-.4-.4-.8-.7-1.8-.7h-.1c-1.8 0-8.5 1.2-21.5 15.4-21.1 23-98.8 111.1-99.6 112-2.4 2.7-6.5 2.9-9.2.6-2.7-2.4-2.9-6.5-.6-9.2.8-.9 78.6-89.1 99.7-112.2 12.2-13.3 22.4-19.7 31.3-19.6 4.6.1 8.5 1.9 11.4 5.2 9.3 10.7-1.1 25.3-13.6 39.5L452.4 274l-.1.1-.2.2c-3.4 4-11.2 12.3-20.4 12.3.1 0 0 0 0 0z"/><path class="st3" d="M475 519.9c-13.8 0-25-11.2-25-25s11.2-25 25-25 25 11.2 25 25-11.3 25-25 25zm0-42c-9.4 0-17 7.6-17 17s7.6 17 17 17 17-7.6 17-17-7.7-17-17-17zM232.6 289.5c-1.5 0-2.9-.8-3.6-2.3l-11.2-23.5-26.6 12.7c-2 1-4.4.1-5.3-1.9L174.7 251l-23.5 11.2c-2 1-4.4.1-5.3-1.9-1-2-.1-4.4 1.9-5.3l27.1-12.9c1-.5 2.1-.5 3.1-.2 1 .4 1.8 1.1 2.3 2l11.2 23.5 26.6-12.7c2-1 4.4-.1 5.3 1.9l12.9 27.1c1 2 .1 4.4-1.9 5.3-.7.3-1.3.5-1.8.5z"/><circle class="st3" cx="519" cy="443.9" r="5.4"/><path class="st3" d="M358 219.2L122 454.9c-5.5 5.5-5.5 14.4 0 19.9l114 114.1c5.5 5.5 14.4 5.5 19.9 0l231.8-234.3V219.2H358zm74 78.1c-12.3 0-22.3-10-22.3-22.3s10-22.3 22.3-22.3 22.3 10 22.3 22.3-10 22.3-22.3 22.3zm0 0"/><path d="M432 230.4c-24.6 0-44.6 19.9-44.6 44.6 0 24.6 19.9 44.6 44.6 44.6 24.6 0 44.6-19.9 44.6-44.6 0-24.7-20-44.6-44.6-44.6zm0 66.9c-12.3 0-22.3-10-22.3-22.3s10-22.3 22.3-22.3 22.3 10 22.3 22.3-10 22.3-22.3 22.3zm0 0" fill="#0782d7"/><defs><path id="SVGID_1_" d="M432 297.3c-12.3 0-22.3-10-22.3-22.3s10-22.3 22.3-22.3 22.3 10 22.3 22.3-10 22.3-22.3 22.3z"/></defs><clipPath id="SVGID_2_"><use xlink:href="#SVGID_1_" overflow="visible"/></clipPath><g clip-path="url(#SVGID_2_)"><path class="st4" d="M431.7 286.6c-4.1 0-7.9-1.7-10.9-4.9-10.2-10.9.8-25.1 8.9-35.4 1.3-1.7 2.5-3.3 3.7-4.8 2.1-2.9 6.2-3.5 9.1-1.4 2.9 2.1 3.5 6.2 1.4 9.1-1.2 1.7-2.6 3.4-3.9 5-4.6 5.9-12.3 15.8-9.7 18.6.8.8 1.2.8 1.4.8 2.3 0 6.1-2.8 11.1-8.2l.2-.2L564.9 129c16.4-18.6 13.6-22.2 13.5-22.3-.4-.4-.8-.7-1.8-.7h-.1c-1.8 0-8.5 1.2-21.5 15.4-21.1 23-98.8 111.1-99.6 112-2.4 2.7-6.5 2.9-9.2.6-2.7-2.4-2.9-6.5-.6-9.2.8-.9 78.6-89.1 99.7-112.2 12.2-13.3 22.4-19.7 31.3-19.6 4.6.1 8.5 1.9 11.4 5.2 9.3 10.7-1.1 25.3-13.6 39.5L452.4 274l-.1.1-.2.2c-3.4 4-11.2 12.3-20.4 12.3.1 0 0 0 0 0z"/></g><defs><path id="SVGID_3_" d="M358 219.2L122 454.9c-5.5 5.5-5.5 14.4 0 19.9l114 114.1c5.5 5.5 14.4 5.5 19.9 0l231.8-234.3V219.2H358zm74 78.1c-12.3 0-22.3-10-22.3-22.3s10-22.3 22.3-22.3 22.3 10 22.3 22.3-10 22.3-22.3 22.3zm0 0"/></defs><clipPath id="SVGID_4_"><use xlink:href="#SVGID_3_" overflow="visible"/></clipPath><g clip-path="url(#SVGID_4_)"><path class="st4" d="M432 286.9c-4.1 0-7.9-1.7-10.9-4.9-2.5-2.6-2.3-6.7.3-9.2s6.7-2.3 9.2.3c.8.8 1.2.8 1.4.8 2.3 0 6.1-2.8 11.1-8.3l.2-.2 121.5-136.6c16.3-18.6 13.6-22.2 13.4-22.4-.4-.4-.8-.7-1.8-.7-1.7 0-8.4 1-21.5 15.4-21 23.1-80.9 91.4-81.5 92.1-2.4 2.7-6.5 3-9.2.6-2.7-2.4-3-6.5-.6-9.2.6-.7 60.5-69.1 81.6-92.3 12.1-13.2 22.2-19.7 31.1-19.7h.2c4.6 0 8.5 1.8 11.4 5.2 9.3 10.6-1 25.3-13.5 39.5L452.9 274.1l-.1.1-.2.2c-3.7 4.1-11.4 12.4-20.6 12.5z"/></g><path class="st4" d="M122 454.9c-5.5 5.5-5.5 14.4 0 19.9l114 114.1c5.5 5.5 14.4 5.5 19.9 0l16.6-17L137.7 439 122 454.9z"/><path d="M206.2 464.7l31.4-31.4 8.3 8.3-22.4 22.4 8.8 8.8L252 453l8.3 8.3-19.7 19.7 16 16-9.1 9.1-41.3-41.4zm38.7-38.7l18.9-18.9c5.3-5.3 10.8-7.8 16.2-7.8 4.6 0 9.1 2 13.1 6 6.7 6.7 7.3 14.5 4 21.6l24.8 4.7-10.6 10.6L289 438l-7 7 13.2 13.2-9.1 9.1-41.2-41.3zm38.3 1.8c4.4-4.4 4.6-9.3 1-12.9-3.9-3.9-8.6-3.2-13 1.2l-9 9L274 437l9.2-9.2zm4.3-44.4l31.1-31.1 8.1 8.1-22.1 22.1 8.4 8.4 19.5-19.5 8.1 8.1-19.5 19.5 8.7 8.7 22.4-22.4 8.1 8.1-31.4 31.4-41.4-41.4zm39.5-39.5l31.1-31.1 8.1 8.1-22.1 22.1 8.4 8.4 19.5-19.5 8.1 8.1-19.5 19.5 8.7 8.7 22.4-22.4 8.1 8.1-31.4 31.4-41.4-41.4z" fill="#e5e9ea"/></svg>