<svg version="1.1" id="Capa_1" xmlns="http://www.w3.org/2000/svg" x="0" y="0" viewBox="0 0 824 720" xml:space="preserve"><style>.st3{fill:#0795ff}.st4{fill:#394c98}.st22{fill:#2b6cd7}.st24{fill:#6d6d6c}</style><path class="st3" d="M344.7 323.8c-.9 0-1.8-.3-2.6-.9-2-1.5-2.5-4.3-1-6.3l4.7-6.5c.8-1.2 2.2-1.8 3.6-1.9l8-.1c2.5-.1 4.5 2 4.6 4.4 0 2.5-2 4.5-4.4 4.6l-5.7.1-3.4 4.7c-1 1.3-2.4 1.9-3.8 1.9zM278 413.3c-.9 0-1.8-.3-2.6-.9-2-1.5-2.5-4.3-1-6.3l9.7-13.4c1.5-2 4.3-2.5 6.3-1s2.5 4.3 1 6.3l-9.7 13.4c-.9 1.3-2.3 1.9-3.7 1.9zm20.6-28.5c-.9 0-1.8-.3-2.6-.9-2-1.5-2.5-4.3-1-6.3l9.7-13.4c1.5-2 4.3-2.5 6.3-1s2.5 4.3 1 6.3l-9.7 13.4c-.9 1.3-2.3 1.9-3.7 1.9zm20.6-28.5c-.9 0-1.8-.3-2.6-.9-2-1.5-2.5-4.3-1-6.3l9.7-13.4c1.5-2 4.3-2.5 6.3-1s2.5 4.3 1 6.3l-9.7 13.4c-1 1.3-2.3 1.9-3.7 1.9zm185.2 61.2l-9.7-13.4c-1.5-2-1-4.8 1-6.3s4.8-1 6.3 1l9.7 13.4c1.5 2 1 4.8-1 6.3-.8.6-1.7.9-2.6.9-1.5-.1-2.8-.7-3.7-1.9zM483.8 389l-9.7-13.4c-1.5-2-1-4.8 1-6.3s4.8-1 6.3 1l9.7 13.4c1.5 2 1 4.8-1 6.3-.8.6-1.7.9-2.6.9-1.4-.1-2.8-.7-3.7-1.9zm-20.6-28.5l-9.7-13.4c-1.5-2-1-4.8 1-6.3s4.8-1 6.3 1l9.7 13.4c1.5 2 1 4.8-1 6.3-.8.6-1.7.9-2.6.9-1.4-.1-2.8-.7-3.7-1.9zm-190.4 76.3c-1.2 0-2.4-.5-3.3-1.5l-5.4-5.9c-1.4-1.6-1.6-3.9-.3-5.7l4.7-6.5c1.5-2 4.3-2.5 6.3-1s2.5 4.3 1 6.3l-2.5 3.5 2.9 3.2c1.7 1.8 1.6 4.7-.3 6.4-.9.8-2 1.2-3.1 1.2zm38.1 41.5c-1.2 0-2.4-.5-3.3-1.5l-9-9.8c-1.7-1.8-1.6-4.7.3-6.4 1.8-1.7 4.7-1.6 6.4.3l9 9.8c1.7 1.8 1.6 4.7-.3 6.4-.9.8-2 1.2-3.1 1.2zm-19-20.7c-1.2 0-2.4-.5-3.3-1.5l-9-9.8c-1.7-1.8-1.6-4.7.3-6.4 1.8-1.7 4.7-1.6 6.4.3l9 9.8c1.7 1.8 1.6 4.7-.3 6.4-.9.8-2 1.2-3.1 1.2zm42.5 37.6h-8c-1.3 0-2.5-.5-3.3-1.5l-5.4-5.9c-1.7-1.8-1.6-4.7.3-6.4 1.8-1.7 4.7-1.6 6.4.3l4.1 4.4h6c2.5 0 4.5 2 4.5 4.5s-2.1 4.6-4.6 4.6zm95.2 0h-14.9c-2.5 0-4.5-2-4.5-4.5s2-4.5 4.5-4.5h14.9c2.5 0 4.5 2 4.5 4.5s-2 4.5-4.5 4.5zm-31.7 0H383c-2.5 0-4.5-2-4.5-4.5s2-4.5 4.5-4.5h14.9c2.5 0 4.5 2 4.5 4.5s-2 4.5-4.5 4.5zm-31.7 0h-14.9c-2.5 0-4.5-2-4.5-4.5s2-4.5 4.5-4.5h14.9c2.5 0 4.5 2 4.5 4.5s-2 4.5-4.5 4.5zm88.2 0h-8c-2.5 0-4.5-2-4.5-4.5s2-4.5 4.5-4.5h5.2l2.2-4.7c1.1-2.2 3.8-3.2 6-2.1s3.2 3.8 2.1 6l-3.5 7.2c-.7 1.6-2.2 2.6-4 2.6zm10.8-22.5c-.7 0-1.3-.1-1.9-.4-2.2-1.1-3.2-3.8-2.1-6l6.5-13.5c1.1-2.2 3.8-3.2 6-2.1s3.2 3.8 2.1 6l-6.5 13.5c-.8 1.6-2.4 2.5-4.1 2.5zm13.9-28.7c-.7 0-1.3-.1-1.9-.4-2.2-1.1-3.2-3.8-2.1-6l6.5-13.5c1.1-2.2 3.8-3.2 6-2.1s3.2 3.8 2.1 6l-6.5 13.5c-.8 1.5-2.4 2.5-4.1 2.5z"/><path class="st3" d="M493 415.2c-.7 0-1.3-.1-1.9-.4-2.2-1.1-3.2-3.8-2.1-6l2.3-4.8-3.1-4.4c-1.4-2-1-4.8 1.1-6.3 2-1.4 4.8-1 6.3 1.1l4.6 6.5c.9 1.3 1.1 3.1.4 4.6l-3.5 7.2c-.9 1.5-2.5 2.5-4.1 2.5zm-56.9-92.5c-1.4 0-2.8-.7-3.7-1.9l-3.3-4.6-5.6.1c-2.5.1-4.5-2-4.6-4.4 0-2.5 2-4.5 4.4-4.6l8-.1c1.5 0 2.9.7 3.7 1.9l4.6 6.5c1.4 2 1 4.8-1.1 6.3-.6.5-1.5.8-2.4.8zm-55.8-5.8c-2.5 0-4.5-2-4.5-4.4 0-2.5 2-4.5 4.4-4.6l20.3-.3h.1c2.5 0 4.5 2 4.5 4.4 0 2.5-2 4.5-4.4 4.6l-20.4.3z"/><path class="st3" d="M325.7 298.8c20.2-16.6 41.8-27.5 46.2-29.7.5-.3.8-.8.8-1.3v-31.3c-4-2.6-6.5-7.1-6.5-12.2v-32.4c0-16.1 13.1-29.2 29.2-29.2h6.9c16.1 0 29.2 13.1 29.2 29.2v32.5c0 5-2.6 9.5-6.6 12.2v31.3c0 .6.3 1.1.8 1.3 4.5 2.2 26.1 13.2 46.2 29.7 3.7 3 5.7 7.4 5.7 12.1v10.3c19.6-20 31.6-47.4 31.6-77.6 0-61.3-49.7-111-111-111s-111 49.7-111 111c0 30.6 12.4 58.4 32.5 78.5V311c.2-4.7 2.3-9.2 6-12.2z"/><path class="st4" d="M477.8 321.2V311c0-4.7-2.1-9.1-5.7-12.1-20.1-16.5-41.8-27.5-46.2-29.7-.5-.3-.8-.8-.8-1.3v-31.3c4-2.6 6.6-7.1 6.6-12.2v-32.5c0-16.1-13.1-29.2-29.2-29.2h-6.9c-16.1 0-29.2 13.1-29.2 29.2v32.4c0 5.1 2.6 9.6 6.5 12.2v31.3c0 .6-.3 1.1-.8 1.3-4.4 2.1-26.1 13.1-46.2 29.7-3.7 3-5.7 7.4-5.7 12.2v11.2c17.1 17.1 39.8 28.7 65.1 31.7 4.6.5 9.2.8 14 .8 1.7 0 3.4-.1 5.1-.1 7.9-.5 16.4-2 24.8-4.1 18.5-5.4 35.3-15.6 48.6-29.3z"/><path class="st3" d="M475.7 537.8c20.2-16.6 41.8-27.5 46.2-29.7.5-.3.8-.8.8-1.3v-31.3c-4-2.6-6.5-7.1-6.5-12.2v-32.4c0-16.1 13.1-29.2 29.2-29.2h6.9c16.1 0 29.2 13.1 29.2 29.2v32.5c0 5-2.6 9.5-6.6 12.2v31.3c0 .6.3 1.1.8 1.3 4.5 2.2 26.1 13.2 46.2 29.7 3.7 3 5.7 7.4 5.7 12.1v10.3c19.6-20 31.6-47.4 31.6-77.6 0-61.3-49.7-111-111-111s-111 49.7-111 111c0 30.6 12.4 58.4 32.5 78.5V550c.2-4.7 2.3-9.2 6-12.2z"/><path class="st4" d="M627.8 560.2V550c0-4.7-2.1-9.1-5.7-12.1-20.1-16.5-41.8-27.5-46.2-29.7-.5-.3-.8-.8-.8-1.3v-31.3c4-2.6 6.6-7.1 6.6-12.2v-32.5c0-16.1-13.1-29.2-29.2-29.2h-6.9c-16.1 0-29.2 13.1-29.2 29.2v32.4c0 5.1 2.6 9.6 6.5 12.2v31.3c0 .6-.3 1.1-.8 1.3-4.4 2.1-26.1 13.1-46.2 29.7-3.7 3-5.7 7.4-5.7 12.2v11.2c17.1 17.1 39.8 28.7 65.1 31.7 4.6.5 9.2.8 14 .8 1.7 0 3.4-.1 5.1-.1 7.9-.5 16.4-2 24.8-4.1 18.5-5.4 35.3-15.6 48.6-29.3z"/><path class="st3" d="M158.7 537.8c20.2-16.6 41.8-27.5 46.2-29.7.5-.3.8-.8.8-1.3v-31.3c-4-2.6-6.5-7.1-6.5-12.2v-32.4c0-16.1 13.1-29.2 29.2-29.2h6.9c16.1 0 29.2 13.1 29.2 29.2v32.5c0 5-2.6 9.5-6.6 12.2v31.3c0 .6.3 1.1.8 1.3 4.5 2.2 26.1 13.2 46.2 29.7 3.7 3 5.7 7.4 5.7 12.1v10.3c19.6-20 31.6-47.4 31.6-77.6 0-61.3-49.7-111-111-111s-111 49.7-111 111c0 30.6 12.4 58.4 32.5 78.5V550c.2-4.7 2.3-9.2 6-12.2z"/><path class="st4" d="M310.8 560.2V550c0-4.7-2.1-9.1-5.7-12.1-20.1-16.5-41.8-27.5-46.2-29.7-.5-.3-.8-.8-.8-1.3v-31.3c4-2.6 6.6-7.1 6.6-12.2v-32.5c0-16.1-13.1-29.2-29.2-29.2h-6.9c-16.1 0-29.2 13.1-29.2 29.2v32.4c0 5.1 2.6 9.6 6.5 12.2v31.3c0 .6-.3 1.1-.8 1.3-4.4 2.1-26.1 13.1-46.2 29.7-3.7 3-5.7 7.4-5.7 12.2v11.2c17.1 17.1 39.8 28.7 65.1 31.7 4.6.5 9.2.8 14 .8 1.7 0 3.4-.1 5.1-.1 7.9-.5 16.4-2 24.8-4.1 18.5-5.4 35.3-15.6 48.6-29.3z"/><path class="st3" d="M250.3 299.4h-19.4c-1.1 0-2.1-.6-2.6-1.5l-9.7-16.8c-.5-.9-.5-2.1 0-3l9.7-16.8c.5-.9 1.5-1.5 2.6-1.5h19.4c1.1 0 2.1.6 2.6 1.5l9.7 16.8c.5.9.5 2.1 0 3l-9.7 16.8c-.6.9-1.6 1.5-2.6 1.5zm-17.7-6h16l8-13.8-8-13.8h-16l-8 13.8 8 13.8zM718 538h-33c-.9 0-1.7-.5-2.2-1.3s-.4-1.7 0-2.5l16.5-28.6c.4-.8 1.3-1.3 2.2-1.3s1.7.5 2.2 1.3l16.5 28.6c.4.8.4 1.7 0 2.5s-1.3 1.3-2.2 1.3zm-28.7-5h24.3l-12.2-21.1-12.1 21.1z"/><path d="M546 165.5h-75c-6.6 0-12 5.4-12 12V232c0 6.6 5.4 12 12 12h9v17l13.6-17H546c6.6 0 12-5.4 12-12v-54.5c0-6.6-5.4-12-12-12zm154 239h-75c-6.6 0-12 5.4-12 12V471c0 6.6 5.4 12 12 12h9v17l13.6-17H700c6.6 0 12-5.4 12-12v-54.5c0-6.6-5.4-12-12-12zm-541 0H84c-6.6 0-12 5.4-12 12V471c0 6.6 5.4 12 12 12h9v17l13.6-17H159c6.6 0 12-5.4 12-12v-54.5c0-6.6-5.4-12-12-12z" fill="#e5e9ea"/><g id="XMLID_8_"><g id="XMLID_10_"><linearGradient id="XMLID_6_" gradientUnits="userSpaceOnUse" x1="493.188" y1="-15305.706" x2="493.188" y2="-15271.753" gradientTransform="matrix(1 0 0 -1 0 -15088)"><stop offset="0" stop-color="#c41e51"/><stop offset=".041" stop-color="#be1c4e"/><stop offset=".324" stop-color="#99113c"/><stop offset=".587" stop-color="#7e0930"/><stop offset=".821" stop-color="#6e0428"/><stop offset="1" stop-color="#680225"/></linearGradient><path id="XMLID_30_" fill="url(#XMLID_6_)" d="M482.5 183v30.1h21.4V183z"/><linearGradient id="XMLID_7_" gradientUnits="userSpaceOnUse" x1="525.297" y1="-15259.688" x2="525.297" y2="-15297.913" gradientTransform="matrix(1 0 0 -1 0 -15088)"><stop offset="0" stop-color="#c41e51"/><stop offset=".041" stop-color="#be1c4e"/><stop offset=".324" stop-color="#99113c"/><stop offset=".587" stop-color="#7e0930"/><stop offset=".821" stop-color="#6e0428"/><stop offset="1" stop-color="#680225"/></linearGradient><path id="XMLID_29_" fill="url(#XMLID_7_)" d="M514.6 183v30.1H536V183z"/><linearGradient id="XMLID_11_" gradientUnits="userSpaceOnUse" x1="1635.723" y1="3457.641" x2="1635.723" y2="3526.298" gradientTransform="rotate(45.001 5078.377 497.528)"><stop offset="0" stop-color="#f58b1f"/><stop offset=".495" stop-color="#ed6723"/><stop offset="1" stop-color="#ee3e30"/></linearGradient><path id="XMLID_28_" fill="url(#XMLID_11_)" d="M514.6 183l-32.1 30.1H504l10.7-10.6L536 183z"/></g></g><path id="XMLID_9_" class="st22" d="M482.5 183v30.1h21.4V183z"/><path id="XMLID_24_" class="st22" d="M514.6 183v30.1H536V183z"/><path id="XMLID_26_" class="st4" d="M514.6 183l-32.1 30.1H504l10.7-10.6L536 183z"/><path class="st4" d="M491 220.5h1.6v5.8h3.6v1.5H491v-7.3zm5.7 3.7c0-2.1 1.6-3.8 3.9-3.8 2.2 0 3.8 1.7 3.8 3.8 0 2.1-1.6 3.8-3.9 3.8-2.2-.1-3.8-1.8-3.8-3.8zm6 0c0-1.2-.9-2.3-2.2-2.3-1.3 0-2.2 1-2.2 2.3 0 1.2.9 2.3 2.2 2.3s2.2-1.1 2.2-2.3zm3.1-3.7h3.3c.9 0 1.6.3 2.1.7.4.4.6 1 .6 1.7 0 1.2-.6 1.9-1.6 2.2l1.8 2.6h-1.9l-1.6-2.3h-1.2v2.3h-1.6v-7.2zm3.2 3.5c.8 0 1.2-.4 1.2-1 0-.7-.5-1-1.3-1h-1.6v2.1h1.7zm4.3-3.5h5.5v1.4h-3.9v1.5h3.4v1.4h-3.4v1.5h3.9v1.4h-5.5v-7.2zm6.9 0h1.7l1.9 3.1 1.9-3.1h1.7v7.3h-1.6V223l-2 3.1-2-3.1v4.7h-1.6v-7.2z" id="XMLID_58_"/><g id="XMLID_1_"><g id="XMLID_854_"><path id="XMLID_979_" class="st3" d="M671.5 425.1c-.3-.3-.5-.5-.7-.8.2.2.4.5.7.9.2.2-.2-.3 0-.1z"/><path id="XMLID_978_" class="st3" d="M671.1 424.8l-.6-.6c.2.3.5.5.7.8 0 0 .1.1-.1-.2z"/><path id="XMLID_977_" class="st3" d="M668.2 421.9h.1z"/><path id="XMLID_976_" class="st3" d="M671.2 425l.4.4c-.2-.1-.3-.2-.4-.4-.1 0-.1 0 0 0z"/><path id="XMLID_975_" class="st3" d="M671.1 425.1l.3.4c.3.4.3.3.3.4 0 0-.1-.2-.3-.4-.2-.2-.3-.4-.3-.4z"/><path id="XMLID_974_" class="st3" d="M668.3 421.8l-.5-.3.4.3h.1z"/><path id="XMLID_973_" class="st3" d="M667.3 421l-.3-.2.2.2z"/><path id="XMLID_972_" class="st3" d="M630.4 452.4h-.2c.1.1.2 0 .2 0z"/><path id="XMLID_968_" class="st3" d="M635.8 418.5l.3.2c.2-.2.5-.3.7-.3-.5 0-1.3-.2-1 .1z"/><path id="XMLID_967_" class="st3" d="M627.6 438.1c.1-.1.2-.2.4-.5l-.4.5z"/><path id="XMLID_966_" class="st3" d="M638.6 461.4c-.4-.3-.3 0-.4.1 0 0 .1 0 .2-.1h.2z"/><path id="XMLID_961_" class="st3" d="M655.3 415.5c-.4-.1-.6-.2-.9-.3.4.2.7.4.9.3z"/><path id="XMLID_960_" class="st3" d="M626.9 455.6c.2.1.3.1.4.1-.2-.1-.3-.2-.4-.1z"/><path id="XMLID_957_" class="st3" d="M654.4 415.2c-.3-.2-.7-.2-1.1-.1.1 0 .1 0 .2.1.3-.1.5-.1.9 0z"/><path id="XMLID_956_" class="st3" d="M662.9 418.1c.3.1.1 0 0 0z"/><path id="XMLID_951_" class="st3" d="M663.2 418.3c-.1-.1-.2-.1-.3-.2.1.1.2.1.3.2z"/><path id="XMLID_942_" class="st3" d="M663.2 418.2c.1 0 .1.1.2.1.1.1 0 0-.2-.1z"/><path id="XMLID_941_" class="st3" d="M662.6 417.9c.1.1.3.1.4.2 0 0-.1-.1 0 0-.2-.1-.3-.1-.4-.2z"/><path id="XMLID_940_" class="st3" d="M654.8 467.1c.3-.1.2-.1 0 0z"/><path id="XMLID_939_" class="st3" d="M633.9 425.8s0-.1 0 0z"/><path id="XMLID_930_" class="st3" d="M671.6 457.9c-1.1 1.4-2.6 2.7-3.7 3.7l.1-.1c-1 .9-.9.6-2.1 1.5-.2.2-.6.4-.9.6.3-.2-.7.3-.3 0-1.2.8-.6.4-1.3 1.1h-.3c-.3.2-.3.3-.9.6.5-.3-.5 0 .1-.3-.4.1-.7.2-1 .4-.1.1-.3.1-.4.2h-.5c.2 0 .4 0 .2.1s-.4.2-.6.2l.3-.2-.4.2c-.2 0-.3.1-.5 0-.6.6 1.3-.2 1 0 .4 0-.5.4-1 .6-.5.2-1-.2-2.2.1.1 0 .1-.1.2-.1-.5 0-.9.4-1.5.2-.3.3-.7.1-.8.4l.6-.1h.1c-.5.2-1 .5-1.9.4.1-.1.4-.2.6-.3-.3-.1-.6.2-.9.1.1-.3 1.4-.2 2-.6-.3-.1-.9.2-1 .1 0-.1.1-.1.2-.1h-.1c-.4 0 .3-.2-.2-.2.1 0 .3-.1.4-.1-.1 0-.3 0-.4-.1v.1c-.2 0 0-.1 0-.1l-.7.1h.7c-.1.2-.3.3-.2.5h-.9c-.1-.2-.2-.3-.3-.5 0 .1 0 .2-.4.3.1.1.3.1.4.2-.1 0-.2.1-.4.1v-.2c-.1 0-.4.1-.6.1l.4-.3c-.5.2-.9 0-1.4-.1.2-.1.4-.1.6-.1-.2-.4-.1 0-.4-.4.3.5-1 0-.7.4-.3-.4-.5-.2-.9-.7 0 .1.1.3-.2.2l-.1.1c.1.1.2.1.2.2h-.1c-.2-.1-.4-.1-.8-.1.2 0 .5.1.6.2-.1 0-.2.1-.3.1-.3-.1-.7-.3-.8-.4h-.2c0-.1 0-.2.2-.2l-.5-.1c-.2-.2-.6-.4-.8-.3-.2-.1-.6.2-.4 0h-.7v-.1c-.7-.2-1.6.1-2.1-.8-.2 0-.5 0-.8-.3v-.3c-.3 0-.7-.7-.9-.4.1-1-1.2-.8-1.5-1.3l-.2.4c-.1 0-.1-.1-.2-.1-.4-.5-1.5-.4-2.1-1v-.1c-.1-.4-.4-.6-.8-.7h-.1c-.3-.3-.6-.6-1-.9v-.4.3c-.1 0-.1-.1-.2-.1v-.5c.1.1.2.2.2.3.1-.4.3-1 0-.7l-.2.3v-.2c-.3-.2-.3.1-.4.4 0 0-.1.1-.1.2-.1.1-.2.1-.4 0 .2-.5-.6-.1-.2-.8h-.1c.1-.1.2-.2.1-.3-.5-.1-1.5-.3-1.6-1.2.3.1.3.3.5.5l-.1-.7c.9.2 1.1.7 1.1-.1-.5.4-.9 0-1.3-.5s-.7-.9-1.3-.6v-.5l.2.2c0-.8-.6-.3-1.1-.5-.1-.2-.2-.5-.4-.7 0-.2.1-.3.2-.2l-.6-.4c0-.1-.1-.2-.1-.3 0 0 .1 0 .2.1-.1-.1-.2-.3-.3-.4v-.5c-.1.1-.1.1-.2.1-.1-.1-.1-.2-.1-.2h-.1c.1-.2.1-.4-.3-.3.2-.2.3-.4.6-.3-.1-.1-.2-.2-.2-.3.1-.1 0-.2-.1-.3 0-.2-.1-.4-.5-.5v-.1c.2-.1.4 0 .5-.1 0 0-.1 0-.1-.1l.2-.2c.1 0 .1.1.2.1 0-.1-.1-.1-.2-.2.2-.5 0-.8.2-1.5-.2.2-.7 1.7-1.3 1.1 0-.2 0-.5-.4-.8.5-.1.3-.5.1-.9l.6-.1c-.3-.4-.6-.3-1-.5-.1-.6.4-.8.8-1 0-.9-.7.8-1-.3.2-.8-.2-1.3-.7-2.1.2-.6.4.1.6-.1l-.5-.4c0-.1.2-.1.3-.1-.1-.1-.2-.2-.3-.2.2-.1.4-.2.4-.3.1-.1.2.1.2.2.6-.7-.7-.1-.8-.6.3-.1.9.1.9-.3.3-.2-1.1-1-.5-1.5h.1l-.4-.8c.2-.2.2-.5-.2-.7.1 0 .1-.1.2 0-.1-.2-.2-.5-.3-.8l.2-.3c-.1.1-.2.1-.3.1l-.3-.3c.4 0 .6-.1.7-.3 0-.2 0-.4-.1-.6h.5l-.3-.1.8-1.1c-.1-.2-.1-.3-.2-.5.1-.4-.1-.7-.4-1 .1-.1.2 0 .3.1.1-.2.2-.3.3-.4 0 .2 0 .4-.1.5.2-.4.5-.2.5 0l-.1-1.5c.5.2.4-.1.8-.4-.3 0-.4-.2-.5-.4.2-.2.4-.4.5-.6v.1c.4-.2.4-.5.2-.8 0 0 .1.1.1.2 0-1 1.9-1.3 1.1-2.3.2-.3.4-.6.6-1 .1-.3.2-.5.3-.8.1-.1.2-.3.3-.4.2.2.3.4.4.5 0 0-.1-.2-.1-.5v-.2l.4-.4s0 .1.1.1c.2.4.4.7.4.7-.1-.6.1-.7.3-.9l-.5-.2.3-.3.1-.1c.1.2.1.4.1.6.3-.1.5-.3.7-.9-.1 0-.2 0-.4-.1.1-.1.3-.2.4-.3.1-.1.2-.1.2-.2.1 0 .3-.1.6-.1-.1 0-.2 0-.3-.2l.3-.3-.5-.3.2-.2c.2.2.5.6.5.7v-.5c.1-.1.1-.4.1-.5v-.2h.1c0 .1.1.1.2.2 0 .2-.1.5 0 .4l.2-.2h-.1v-.1c.2.1.3.2.5.2-.2-.1.7-.6.9-.8l-.5.1c.3-.2.4-.4.5-.6.1-.3.1-.5.2-.8.3-.1.6-.3.8-.5.1.3.4.5.7.4v-.9c.2-.1.3-.2.4-.2.2-.4.5-.6.8-.8-.2.6-.5 1.2-.7 1.6.5 0 .3.2.8-.1.3.1-.2.5-.3.6l1.4-.6c-.1-.2.1-.5.3-.7.2-.2.5-.4.4-.6l-.2.2c-.1.1-.3.2-.5.4l-.6.6c-.2-.3 0-1.2.6-1.7.2 0 .3 0 .5.1-.2-.1.1-.3.3-.5.2.2 0 .9.1 1 .1-.2.9-.7 1-.6l-.4.4c.6-.1.8-1 1.6-.8.3 0 .9.3.9.1-.2-.2-.4-.5-.6-.9.3-.1.5-.1.8-.2 0-.1-.2-.1 0-.3h.1l.6.2c.2-.1.2-.3.4-.3-.1.3-.5.7-.2.9 0-.1.2-.3.3-.4.3 0-.1.4.5.2 0-.4 1.2-.2.2-.4.6-.2.6-.1 1.3-.1-.2-.1.1-.5.5-.7.2 0 .5-.1.7-.1h.1s.1 0 .1.1h.8c.3 0 .5.1.7.1.5.1.9.1 1.5.1.1.1.6.2.4.3.2 0 .3-.1.7-.1.6.4-.8-.1-.3.3.1-.2.9-.1 1.5-.2-.1-.3-1.2-.2-1.7-.2 0-.4 1-.7 2.2-.6 1 .1.4.3.5.3.9.3 1.3.2 1.7.2.4 0 .7 0 1.4.4.5.4-.1.4 0 .5-.8-.2-1.1-.5-1.6-.6l.6.3c-.3 0-.8-.1-1-.2.5.3 2.9.9 4.2 1.6.2.1.7.2.5.1l-.4-.2c-.3-.3.8.2.3-.1.6.2 1.3.3 1.9.9l.1.2s-.4-.4-.6-.5c.3.1 1 .9 1.4.9l-.4-.4c.5.3 1.3.5 1.8 1.1-.2-.3-.1-.1-.5-.6.3.4-1.6-1.1-1.1-.5-.4-.5-.7-.6-1.3-1.1 0 .1.2.2-.4-.1h-.1l.2.2c-.3 0-1.2-.5-1.6-.6-.3-.2.2 0 0-.1l-.5-.1c0-.1-.8-.6 0-.3l-.7-.3c-.4-.3-1-.6-1.4-.7-.4-.2-1-.1-.6-.1l-1.2-.3c-.6-.2-1.3-.2-1.9-.3-.7-.1-1.3-.3-2.1-.5-.4 0-.9 0-1.6-.1l-.1-.2c-.5 0-1.7-.2-1.9 0-.3-.3-1-.4-1.7-.3-.7.1-1.5.3-2 .2v.3c-.7.1-1.3.3-2.1.6v.1h-.2c-.6.2-1.1.3-1.6.6-.3.1-.7.1-1 .2 0-.1.3-.2.5-.2-.4-.1-.8 0-1.1.1-.3.1-.6.4-.9.6l-.1.1c-.1 0-.1.1-.1.1-.5.4-1 .7-1.5.7-.2.3-.4.3-.7.4l.1-.1s-.1 0-.1.1h-.5.4c-.2.1-.5.3-.8.6l-.3-.3-.1.1c-.4.1-.1.3.2.4-.1.1-.2.3-.3.5-.3-.2-.4 0-.6.1-.1 0-.2.1-.4.2.1 0 0-.1.1-.1-.2 0-.3.1-.4.3h-.2c0 .1-.1.2-.1.3-.1 0-.1.1-.2.1v.2l-.3.3c-.2.2-.3.5-.3.7-.1.1-.1.2-.3.2-.4-.5.6-.7.7-1.4-.4-.1-.4.9-.7.3.3.9-.7.5-.7 1.3l-.2-.3c0 .1-.1.3-.2.5 0 0 0-.1-.1-.3 0-.1-.1-.3-.1-.3-.1.6-.9.4-1.1.9.7-.7.5.2 1 .1-.2.5-.4.5-.7.5v-.1.1c-.4-.1-.8-.3-1.3.3.2-.1.6-.2.5.1-.2.1-.6.3-.8.3-.5.7.4.2.4.6-.6-.1-.1.5-.2.8l-.3-.3c-.9.6.5.7-.3 1.2l-.3-.6-.1.5-.3-.4c0 .6-.2.7-.6 1 .3.1.5.3.5.6-.1.1-.1.2-.2.2-.3 0-.2-.3-.4.2-.2-.3-.4-.6.1-.6-.1-.1-.1-.3-.3-.4-.5.1-.5.7-.6.8l.2-.2.1 1.1c-.2 0-.3-.1-.3-.3-.1.2.1.4 0 .6-.3-.2-.6-.4-.6-.8l-.1.9c-.2 0-.6.2-.7 0-.4.4.1 1.4-.4 1.8.1.1.1.1.1.3-.3.5-.9.9-.7 1.7l-.8.2c0 .5.6 0 .8.3-.1.2-.2.5-.2.7-.2 0-.5-.2-.6-.1l.3.6c0 .1 0 .2-.1.2-.2.1-.2-.2-.3-.4-.1.3-.1.6 0 .8l-.4.2c-.5-.7-.1-1.1-.8-.8 1.3.4-.4 1.8 1 2.2l-.3.3v-.2c-.8.5.9.6.6 1.3-.1.2-.4.4-.5.2l.3.6c0 .2-.3.1-.2-.1v1c.2.1.5.5.7.6-.2.2-.1-.1-.3-.1l.3.5c-.4.2-.7-.2-.6-.6-1.4.4.3.4-.5 1.4l-.2-.5c-.8.3-.5.7-1 1.3.3-.2 1.2-1.1 1.6-.6-.1.2-.2.4.1.6-.5 0-.4.3-.3.7h-.7c.2.4.5.3.9.5 0 .4-.5.6-1 .7 0 .7.8-.6 1 .2-.2.6.1 1 .6 1.6-.2.4-.4 0-.6.2l.6.3c0 .1-.2.1-.2.1.3.3.7-.1.9.3h.1v.2c-.1.3-.5.8-.2 1.1-.1.1-.1.2-.2.3h-.2c.1 0 .1.1.1.1-.1.2-.2.4-.2.5-.1.1-.2-.1-.3-.3-.2 1.5.7 0 1.1.9-.3.3-.9 0-.8.7-.1.4 1.7 1.5 1.5 2.6.1-.3.3-.6.7-.2-.1.1-.3.2-.3.2s.2.2.5.3c.1.7 0 1.7.9 1.9 0 .1-.1.2-.1.2.4.3.9.9 1.4 1.2.1.1.2.2.3.4-.2.4.1.8.5 1.2h-.1.1c.1.1.3.2.4.3l-.6.2c.6-.1.6 0 .7.3l.2-.2c.1.1.2.2.3.2-.2.1-.3.1-.5 0 0 .2.1.5.6.6 0-.1.1-.2.2-.3 0 .1 0 .3-.2.4l1.2 1.2-.1.1c.2.3.5.5.7.6.1.1.1.1.2.1.3.1.6.1.9.2.1.2-.1.2-.2.2.1.1.1.2.2.2h-.1.1l.7.7c.1.4-.2.3.2.6 0 .3-.5.2-.6.1l.8.8c.3-.5 1.1 0 1.4-.4 0 0-.4 0-.7-.1-.3-.1-.7-.1-.7-.1.1-.2.4-.4.7-.5.2 0 .4.1.7.1l-.1.4c.1 0 .2.1.3.2l-.3.3c.1-.1.4 0 .6.1l.2.2-.5.1c.1.2.4.1.7.1.2.1.3.3.5.4.1.2.1.9.3.6 0-.1 0-.2.1-.4.3.2.6.3.9.4 0 0 0 .1.1.1h-.1c.9.1 1.7.8 2.5 1.2.8.4 1.5.6 2 .2h.4v.1l.1-.1h.6c-.1 0-.3-.1-.3-.1.2-.1.5-.1.7-.1-.1.2 0 .3.2.4-.2.1-.6.2-.1.3.1-.1.3-.1.3-.2.5.2 1.2.3 1.1.5 2.8.4 5.6.7 8.2.3l-.3-.3.9-.1c.2 0 .4.2-.3.3.4.1 1.1-.4 1.1-.4 1.3-.1-.4.5 0 .4l.5-.1h-.1c.4-.2.4-.3 1.2-.5.5-.1.3.1.5.1 0 0 .1 0 .3-.1l1.1-.3-.5-.1c.5-.2 1-.3.5-.4.4.1 1.4-.3 2.4-.7.9-.4 1.8-.9 2-1 .6-.4 1.1-.8 1.9-1.3-.2.1-.4 0 .3-.3 0 .2.3.1.6-.2.4-.3.8-.6 1.1-.7-.2.1.2-.2.5-.5.4-.3.7-.7.3-.4.5-.4.1 0 .5-.2 1-1 2.2-2.2 3.3-3.6.3-.2.2-.3.1-.3zm-42.7-25.3c-.1.1-.2.2-.2.4-.1-.1-.1-.3-.2-.5l.4.1zm-5.6 9.2c-.1-.1-.4-.4-.1-.5.6.2.3.3.1.5zm4.1-1.2c.2-.2.3 0 .5.1-.2.1-.3.1-.5.1v-.2zm1.7 9.6c0-.1 0-.2.1-.3.1.1.2.1.3.2-.2 0-.3 0-.4.1zm15.7 17.3c-.1-.3-.3-.4-.6-.4.1-.1.1-.1 0-.2.5.1 1.2.7.6.6zm2.1-1l.1-.3h-.1c.2-.1.4-.1.7.1-.3 0-.5.2-.7.2zm4.6.3c-.1 0-.1 0-.2.1 0 .1 0 .1.1.1h-.4l-.2-.2.6-.3c.2.1.1.2.1.3z"/><path id="XMLID_929_" class="st3" d="M660.1 416.9c-.4-.2-.2-.1 0 0z"/><path id="XMLID_928_" class="st3" d="M650.8 466.4c0 .1 0 .1 0 0 0 .1 0 .1 0 0z"/><path id="XMLID_926_" class="st3" d="M647.6 465.8c-.3-.2-.2-.1 0 0z"/><path id="XMLID_925_" class="st3" d="M638.1 461.5c0 .1 0 0 0 0h-.1l-.1-.1c.1 0 .2 0 .2.1z"/><path id="XMLID_924_" class="st3" d="M629.9 450.4c.1.1 0 0 0 0z"/><path id="XMLID_923_" class="st3" d="M629.7 450.1s-.1 0 0 0c-.1-.1-.1-.1 0 0z"/><path id="XMLID_922_" class="st3" d="M629 432.6c0-.1 0-.1 0 0 0-.1.1-.1.1-.1l-.1.1z"/><path id="XMLID_921_" class="st3" d="M640.7 418.5c0 .1-.1.2-.1.3-.1 0-.1-.2.1-.3z"/><path id="XMLID_920_" class="st3" d="M623.9 435.5v-.3c0 .1.1.1.1.1 0 .1 0 .1-.1.2z"/><path id="XMLID_919_" class="st3" d="M638.7 466.3s0-.1-.1-.1c.1 0 .1 0 .2.1h-.1z"/><path id="XMLID_918_" class="st3" d="M643.8 467.5c-.1-.1 0-.2.1-.2.2.2.1.2-.1.2z"/><path id="XMLID_917_" class="st3" d="M645.4 466.1c.2 0 .2.1.2.2-.1 0-.2-.1-.4-.1l.2-.1z"/><path id="XMLID_916_" class="st3" d="M656.1 466.9c.1 0 .2-.1.2-.1h.1c-.1 0-.2.1-.3.1z"/><path id="XMLID_915_" class="st3" d="M657.8 467.9h-.2c.4-.2.3-.1.2 0z"/><path id="XMLID_914_" class="st3" d="M630.7 453.4c0 .1.1.1 0 0z"/><path id="XMLID_913_" class="st3" d="M647.2 417.8c-.2 0-.3 0-.4-.1 0 .1.1.2.4.1z"/><path id="XMLID_912_" class="st3" d="M665.4 419.5l-.5-.3c.2.2.3.2.5.3-.1 0-.2-.1 0 0z"/><path id="XMLID_911_" class="st3" d="M669 423.1l.2.2c-.3-.3-.5-.4-.2-.2z"/><path id="XMLID_910_" class="st3" d="M666.2 420.6c.2 0-.2-.3-.6-.5 0 .1.3.3.6.5z"/><path id="XMLID_909_" class="st3" d="M666.3 420.7l.3.2c.1 0-.1-.1-.3-.2z"/><path id="XMLID_908_" class="st3" d="M662.3 417.7c.3 0-1.2-.4-.3 0 .2.1.2-.1.3 0z"/><path id="XMLID_907_" class="st3" d="M665.7 420.5v-.1l-.3-.1z"/><path id="XMLID_906_" class="st3" d="M663.6 419.2h.2c-.4-.2-.7-.4-.7-.4l.5.4z"/><path id="XMLID_905_" class="st3" d="M663.7 419.2c.2.1.3.2.5.2-.1 0-.3-.1-.5-.2z"/><path id="XMLID_904_" class="st3" d="M665 420.1l-.2-.1-.4-.3z"/><path id="XMLID_903_" class="st3" d="M656.4 416.5l-.7-.1c-.1.1.1.1.4.1.2.1.4.1.3 0z"/><path id="XMLID_902_" class="st3" d="M658.1 417.3l-.1.2h.3c-.1 0-.1-.1-.2-.2z"/><path id="XMLID_901_" class="st3" d="M656.4 417.2c-.1.1-1 .1-.2.2.1-.2.8-.1.2-.2z"/><path id="XMLID_900_" class="st3" d="M639.1 421.6c.1-.3-.6.1-.5-.1-.3.4-.6.5-.1.8.8-.3-.1-.5.6-.7z"/><path id="XMLID_899_" class="st3" d="M638.6 421.5c0-.1.1-.1.1-.2-.1.1-.1.1-.1.2z"/><path id="XMLID_898_" class="st3" d="M629.8 448.7l.3-.5h-.2c-.2.1-.2.2-.1.5z"/><path id="XMLID_897_" class="st3" d="M632 454.3v-.1l-.4.4z"/><path id="XMLID_896_" class="st3" d="M635.2 457.7c.4.3.1 1 .5.5-.1-.2-.3-.3-.5-.5z"/><path id="XMLID_895_" class="st3" d="M661.2 465.2c-.1 0-.1 0 0 0h-.3c.1.1-.3.2.3 0z"/><path id="XMLID_894_" class="st3" d="M661.1 465.2c.3 0-.2 0 0 0z"/><path id="XMLID_893_" class="st3" d="M660.1 465.3c-.3.1-.2.1 0 .2l.3-.1c-.2-.1-.4 0-.3-.1z"/><path id="XMLID_892_" class="st3" d="M659.8 465.7l.2-.1c-.1 0-.1 0-.2.1z"/><path id="XMLID_891_" class="st3" d="M660.1 465.6c0 .1 0 0 .2-.1l-.3.1c0 .1 0 .1.1 0z"/><path id="XMLID_890_" class="st3" d="M658.1 465.6c0 .1.1.1.2.2l.2-.1c-.2 0-.4 0-.4-.1z"/><path id="XMLID_889_" class="st3" d="M658.2 465.8l-.3.1c.3.1.4 0 .3-.1z"/><path id="XMLID_888_" class="st3" d="M656.9 465.6l-.3.2h.1z"/><path id="XMLID_887_" class="st3" d="M655.2 465.8c.2-.1.4-.1.7 0 .1-.1-.2-.2-.1-.3-.3.1-.4.2-.6.3z"/><path id="XMLID_886_" class="st3" d="M657 465.9l.2.2h.1c0-.1-.1-.2-.3-.2z"/><path id="XMLID_885_" class="st3" d="M657.2 466.1h-.3.3z"/><path id="XMLID_884_" class="st3" d="M658.9 466c-.2.1-.6.3-.1.3 0-.1-.2-.1.1-.3z"/><path id="XMLID_883_" class="st3" d="M657.6 466.2h.4s-.1-.1 0-.2l-.4.2z"/><path id="XMLID_882_" class="st3" d="M657.4 466.3l.2-.1h-.2z"/><path id="XMLID_881_" class="st3" d="M655.6 466.1c-.1.1-.3.1-.5.1h.6s.1-.1-.1-.1z"/><path id="XMLID_880_" class="st3" d="M653.1 466.3l.1.1v-.1z"/><path id="XMLID_879_" class="st3" d="M655.7 466.3c.2 0 .3 0 .3-.1 0 .1-.2.1-.3.1z"/><path id="XMLID_878_" class="st3" d="M654.4 466.1c.1 0 .2.1.3.1-.1-.1-.3-.2-.3-.1z"/><path id="XMLID_877_" class="st3" d="M656.3 466.1c-.1-.1-.1 0 0 0z"/><path id="XMLID_876_" class="st3" d="M656.3 466.1c-.1 0-.1.1-.2.1.1 0 .1 0 .2-.1z"/><path id="XMLID_875_" class="st3" d="M653.9 466.4h.1c-.2 0-.3-.1-.5-.3-.2.1-.3.2-.3.3h.7z"/><path id="XMLID_874_" class="st3" d="M653.1 465.9l-.3.4.3-.1z"/><path id="XMLID_873_" class="st3" d="M652.3 466l-.2.1.2.1z"/><path id="XMLID_872_" class="st3" d="M623.2 439.7h.2c-.1 0-.2-.1-.2 0z"/><path id="XMLID_871_" class="st3" d="M625.2 430.7l-.3-.4c-.2.4.1.3.3.4z"/><path id="XMLID_870_" class="st3" d="M644.8 465l-.4-.4c.2.3.3.7.4.4z"/><path id="XMLID_869_" class="st3" d="M628 439.3c-.1-.1-.2-.2-.3-.2.1.2.2.2.3.2z"/><path id="XMLID_868_" class="st3" d="M643.9 464.4s0 .1.1.1c.2 0 .3 0 .5.1-.2-.2-.4-.3-.6-.2z"/><path id="XMLID_867_" class="st3" d="M649.3 465.8c.2 0 0 0 0 0z"/><path id="XMLID_866_" class="st3" d="M649.5 466c-.1 0-.1-.1-.2-.1.1 0 .1 0 .2.1z"/><path id="XMLID_865_" class="st3" d="M649.5 465.9h.1c.1 0 .1-.1-.1 0z"/><path id="XMLID_864_" class="st3" d="M649.1 465.8c.1 0 .2 0 .3.1-.1-.1-.2-.1-.3-.1z"/><path id="XMLID_862_" class="st3" d="M630.1 423.4s0-.1 0 0c0-.1 0 0 0 0z"/><path id="XMLID_861_" class="st3" d="M625.2 430.8c0-.1 0-.1 0 0z"/><path id="XMLID_860_" class="st3" d="M650.9 465.9h-.3c.2 0 .2.1.3.1 0 0-.1-.1 0-.1z"/><path id="XMLID_859_" class="st3" d="M648.8 466c.1.1.1-.3.2-.2.1-.4-.9.3-.2.2z"/><path id="XMLID_858_" class="st3" d="M632.5 462.9c.3.6.5-.3.7.2.3-.1-.2-.5.1-.5-.5-.1-.5-.3-.8.3z"/><path id="XMLID_857_" class="st3" d="M622.2 442.9c.2-.1.2-.2.2-.3l-.4.3h.2z"/><path id="XMLID_856_" class="st3" d="M622.8 437.7v.1l.6-.1z"/><path id="XMLID_855_" class="st3" d="M623.2 433.3c-.1.2 0 .4-.1.6 0-.4.8-.4.1-.6z"/></g><g id="XMLID_817_"><path id="XMLID_831_" class="st4" d="M680.3 463.4c.8.3 1.5.7 1.5 1.6 0 .9-.6 1.4-1.5 1.4s-1.6-.6-1.6-1.5c0-.1.1-.1.1-.1.1 0 .1.1.1.1v.2c.1.4.2.7.5.9.2.1.5.2.7.2.7 0 1.2-.4 1.2-1.2 0-.8-.7-1.2-1.4-1.4-.7-.2-1.4-.5-1.4-1.4 0-.7.6-1.3 1.4-1.3.8 0 1.4.6 1.4 1.4 0 .1-.1.1-.1.1-.1 0-.1-.1-.1-.1v-.3c-.1-.5-.5-.8-1.1-.8-.6 0-1.1.4-1.1 1.1.1.7.8.9 1.4 1.1z"/><path id="XMLID_829_" class="st4" d="M684.2 463.5c.1 0 .1.1.1.1 0 .1-.1.1-.1.1h-.6v2.5c0 .1-.1.1-.1.1-.1 0-.1-.1-.1-.1v-2.5h-.6c-.1 0-.1-.1-.1-.1 0-.1.1-.1.1-.1h.6v-.9c0-.1.1-.1.1-.1.1 0 .1.1.1.1v.9h.6z"/><path id="XMLID_827_" class="st4" d="M687.5 463.6v2.6c0 .1-.1.1-.1.1-.1 0-.1-.1-.1-.1v-.5c-.2.4-.5.7-1 .7-.7 0-1.1-.6-1.1-1.3v-1.5c0-.1.1-.1.1-.1.1 0 .1.1.1.1v1.5c0 .5.3 1 .9 1 .8 0 1-.8 1-1.6v-1c0-.1.1-.1.1-.1 0 .1.1.2.1.2z"/><path id="XMLID_824_" class="st4" d="M691.3 461.2v5c0 .1-.1.1-.1.1-.1 0-.1-.1-.1-.1v-.5c-.2.4-.7.7-1.2.7-.8 0-1.4-.7-1.4-1.5s.6-1.5 1.4-1.5c.5 0 1 .3 1.2.8v-3c0-.1.1-.1.1-.1s.1 0 .1.1zm-.3 3.7c0-.6-.5-1.3-1.1-1.3-.7 0-1.1.6-1.1 1.3 0 .6.5 1.3 1.1 1.3.6 0 1.1-.6 1.1-1.3z"/><path id="XMLID_821_" class="st4" d="M692.5 462.8c-.1 0-.2-.1-.2-.2s.1-.2.2-.2.2.1.2.2c0 .2-.1.2-.2.2zm.1.8v2.6c0 .1-.1.1-.1.1-.1 0-.1-.1-.1-.1v-2.6c0-.1.1-.1.1-.1.1 0 .1.1.1.1z"/><path id="XMLID_818_" class="st4" d="M696.4 464.9c0 .8-.6 1.5-1.4 1.5s-1.4-.7-1.4-1.5.6-1.5 1.4-1.5 1.4.7 1.4 1.5zm-.2 0c0-.6-.5-1.2-1.1-1.2-.7 0-1.1.6-1.1 1.2s.5 1.3 1.1 1.3c.6 0 1.1-.6 1.1-1.3z"/></g><g id="XMLID_113_"><g id="XMLID_112_"><path id="XMLID_127_" class="st4" d="M663.9 425.6c-.1.1-.2.1-.3.1h-.8c-.2 0-.4.1-.7.2-.2.1-.5.2-.8.4-.3.2-.5.4-.8.7-.3.3-.5.6-.7 1-.2.4-.4.9-.6 1.5-.1.3-.2.7-.3 1.2-.1.5-.2 1.2-.3 1.8-.1.7-.2 1.4-.4 2.2-.1.8-.2 1.5-.3 2.3l-.3 2.1c-.1.7-.2 1.2-.2 1.7 0 .1-.1.2-.1.2-.1.1-.1.1-.2.1s-.2 0-.3-.1c-.1 0-.1-.1-.2-.2-.1-.3-.2-.8-.4-1.4-.2-.6-.4-1.2-.7-2-.3-.7-.5-1.5-.8-2.3-.3-.8-.6-1.6-.9-2.5-.3-.8-.6-1.6-.8-2.3-.3-.7-.5-1.4-.7-2 0 .4-.1.8-.2 1.3l-.3 1.5c-.1.5-.3 1.1-.5 1.7-.2.6-.4 1.2-.6 1.9-.4 1-.8 1.8-1.4 2.5-.5.7-1.1 1.3-1.6 1.8-.6.5-1.2.8-1.7 1.1-.6.3-1.1.5-1.7.6-.5.1-1 .2-1.4.3-.4 0-.7.1-1 .1-.8 0-1.5-.1-2.1-.3-.6-.2-1.2-.5-1.7-.9s-.8-.8-1.1-1.3c-.3-.5-.4-1.1-.4-1.7 0-.6.1-1.1.4-1.6.3-.5.6-.9 1-1.3s.9-.6 1.5-.8c.5-.2 1.1-.3 1.7-.3.5 0 .9 0 1.3.1s.7.2 1 .4.6.3.8.5c.2.2.4.3.5.5.1.2.2.3.3.4.1.1.1.2.1.2v.2c0 .1 0 .2-.1.3-.1.1-.2.1-.3.1-.2 0-.3-.1-.3-.2 0 0-.1-.1-.2-.3-.1-.2-.3-.4-.6-.6-.3-.2-.6-.4-1-.6-.4-.2-.9-.3-1.5-.3-.5 0-1 .1-1.4.2-.5.2-.9.4-1.2.7-.4.3-.6.6-.9 1-.2.4-.3.8-.3 1.3s.1 1 .4 1.4c.2.4.6.8 1 1.1.4.3.9.5 1.4.7.5.2 1.1.2 1.7.2.2 0 .5 0 .9-.1.4 0 .8-.1 1.3-.2s1-.3 1.5-.6 1.1-.6 1.6-1 1-1 1.5-1.6c.5-.6.9-1.4 1.2-2.4.4-1 .7-1.9.9-2.7.2-.9.4-1.6.5-2.3.1-.7.2-1.3.2-1.8v-1.2c0-.1 0-.2.1-.3.1-.1.2-.1.3-.1.2 0 .3.1.4.3 0 0 .1.2.2.5s.2.6.4 1.1c.2.4.3.9.6 1.5.2.6.4 1.2.7 1.8.2.6.5 1.3.7 2 .2.7.5 1.4.7 2 .2.7.5 1.3.7 1.9.2.6.4 1.2.6 1.7.1-.6.2-1.1.2-1.8.1-.6.2-1.2.3-1.9.1-.6.2-1.3.3-1.9.1-.6.2-1.2.3-1.7.1-.5.2-1 .3-1.4.1-.4.2-.8.2-1 .2-.6.4-1.2.7-1.7s.6-1 1-1.4c.4-.4.9-.7 1.4-.9.5-.2 1.1-.3 1.7-.3.2 0 .4 0 .5.1.1.1.2.2.2.3v.1c0 .3 0 .3-.1.4z"/><path id="XMLID_129_" class="st4" d="M662.8 431.3c0 .3-.1.6-.3.8-.2.2-.5.3-.8.3s-.6-.1-.8-.3c-.2-.2-.3-.5-.3-.8 0-.2 0-.3.1-.4.1-.1.1-.3.2-.4.1-.1.2-.2.4-.2.1-.1.3-.1.4-.1s.3 0 .4.1c.1.1.3.1.4.2.1.1.2.2.2.4.1.1.1.2.1.4zm-2 7.1c0-1.2.1-2.3.2-3.5 0-.1.1-.2.2-.3.1-.1.2-.1.3-.1.1 0 .2 0 .3.1.1.1.1.2.1.3v.4c0 .2 0 .5-.1.9 0 .3-.1.7-.1 1.1v1c0 .4 0 .8.1 1 .1.3.2.5.3.6.1.1.3.2.4.3.1 0 .3.1.4.1.2 0 .5-.1.7-.2.2-.2.5-.4.7-.7.3-.3.5-.6.8-1.1.3-.4.5-.9.8-1.4 0-.1.1-.1.2-.2.1 0 .2-.1.2-.1.1 0 .2 0 .3.1.1.1.1.2.1.3v.2c-.1.2-.2.4-.4.7-.1.3-.3.5-.5.8-.2.3-.4.6-.6.8-.2.3-.5.5-.7.8-.3.2-.5.4-.8.5-.3.1-.6.2-.8.2-.4 0-.7-.1-1-.2-.3-.2-.5-.4-.7-.6-.2-.3-.3-.6-.4-.9.1-.1 0-.5 0-.9zm1.3-7.1c0-.1 0-.2-.1-.3-.1-.1-.2-.1-.3-.1s-.2 0-.3.1c-.1.1-.1.2-.1.3 0 .1 0 .2.1.3.1.1.2.1.3.1s.2 0 .3-.1c.1-.1.1-.2.1-.3z"/><path id="XMLID_133_" class="st4" d="M674 437.5c0 .1-.1.3-.2.5s-.3.5-.5.8c-.2.3-.4.6-.7.9l-.9.9c-.4.3-.8.5-1.2.6-.4.2-.9.3-1.4.3-.5 0-.9-.1-1.2-.2-.4-.2-.7-.4-.9-.7-.3-.3-.4-.7-.6-1.1-.1-.4-.2-.9-.2-1.4 0-.5.1-.9.2-1.4s.3-.8.6-1.1c.2-.3.5-.6.8-.7.3-.2.7-.3 1-.3.3 0 .5 0 .7.1.2.1.4.2.6.4.1.2.3.3.4.5.1.2.1.4.1.6 0 .2 0 .3-.1.5 0 .2-.1.3-.2.4-.1.1-.1.2-.2.3-.1.1-.2.1-.3.1-.1 0-.2 0-.3-.1-.1-.1-.1-.2-.1-.3v-.2s.1-.1.1-.2.1-.1.1-.2v-.3c0-.2-.1-.3-.2-.5-.2-.1-.4-.2-.6-.2-.2 0-.4.1-.6.2-.2.1-.4.3-.5.6-.2.2-.3.5-.4.8-.1.3-.1.6-.1 1 0 .3 0 .6.1.9.1.3.2.6.4.8l.6.6c.2.1.5.2.9.2s.8-.1 1.2-.2c.4-.2.7-.4 1-.6s.6-.5.8-.8c.2-.3.4-.6.6-.8.2-.3.3-.5.4-.7.1-.2.1-.3.2-.4 0-.1.1-.1.2-.2.1 0 .2-.1.2-.1.1 0 .2 0 .3.1.1.1.1.2.1.3-.2.1-.2.2-.2.3z"/><path id="XMLID_135_" class="st4" d="M674.6 439.5c.2.2.4.4.7.6.3.1.6.2 1 .2s.8-.1 1.1-.3c.3-.2.6-.4.9-.7.3-.3.5-.7.7-1 .2-.4.4-.8.6-1.1 0-.1.1-.2.2-.2s.2-.1.2-.1c.1 0 .2 0 .3.1.1.1.1.2.1.3v.2c-.6 1.2-1.2 2.2-1.8 2.8-.7.6-1.4.9-2.2 1-.5 0-1-.1-1.4-.3-.4-.2-.7-.5-1-.8s-.4-.7-.6-1.1c-.1-.4-.2-.8-.2-1.2 0-.4.1-.8.2-1.1.1-.3.2-.7.4-.9.2-.3.4-.5.7-.6.3-.1.6-.2.9-.2.2 0 .4 0 .6.1.2.1.3.2.5.3.1.1.3.3.4.5.1.2.1.4.1.7 0 .3-.1.6-.2.9-.1.3-.3.6-.5.8-.2.3-.4.5-.7.7-.4.1-.7.2-1 .4zm-.3-.8c.3-.1.5-.2.7-.4.2-.2.4-.3.5-.5.1-.2.3-.4.3-.6.1-.2.1-.4.1-.6 0-.2-.1-.4-.2-.6-.1-.1-.3-.2-.4-.2-.2 0-.4.1-.6.2-.2.1-.3.3-.4.5-.1.2-.2.4-.2.6 0 .2-.1.5-.1.7v.5c.2.1.2.3.3.4z"/></g><g id="XMLID_114_"><path id="XMLID_115_" class="st4" d="M660.1 441.2c.2 0 .3.1.5.2.1.2.2.3.2.6s-.1.6-.4 1c-.2.4-.6.8-1 1.2-.1.4-.1.9-.2 1.4-.1.5-.1 1.1-.1 1.8 0 1 0 2-.1 2.9-.1 1-.2 1.9-.4 2.7-.2.8-.4 1.6-.8 2.3-.3.7-.8 1.3-1.3 1.8s-1.2.9-1.9 1.2c-.8.3-1.7.4-2.7.4-.9 0-1.6-.1-2.3-.3-.7-.2-1.3-.5-1.7-.8-.5-.4-.8-.8-1.1-1.3-.2-.5-.4-1-.4-1.6 0-.6.1-1.1.4-1.6.2-.5.6-.9 1-1.3s.9-.6 1.4-.8c.5-.2 1.1-.3 1.7-.3h.6c.1 0 .1.1.2.1.1.1.1.1.1.3 0 .1 0 .2-.1.3-.1.1-.2.1-.3.1h-.4c-.5 0-1 .1-1.4.2-.4.2-.8.4-1.2.7-.3.3-.6.6-.8 1-.2.4-.3.8-.3 1.2 0 .4.1.7.2 1.1.1.3.3.6.6.8.2.2.5.4.8.6.3.2.7.3 1 .4.4.1.7.2 1.1.2.4 0 .7.1 1 .1.9 0 1.7-.1 2.4-.4s1.2-.6 1.7-1.1c.5-.5.8-1 1.1-1.7.3-.7.5-1.4.7-2.2.2-.8.3-1.6.3-2.5.1-.9.1-1.8.1-2.8 0-.5 0-.9.1-1.4 0-.4.1-.8.1-1.2-.3.2-.6.3-1 .4-.3.1-.7.3-1 .4-.3.2-.7.3-1 .5l-.9.6c-.3.2-.5.4-.6.7-.2.3-.2.6-.2.9 0 .3.1.6.2.8.1.2.2.4.4.6.2.2.3.3.5.4.2.1.3.2.5.2.2.1.3.1.4.1h.2c.1 0 .2.1.2.1 0 .1.1.1.1.2s0 .2-.1.3c-.1.1-.2.1-.3.1h-.2c-.2-.1-.5-.1-.8-.3-.3-.1-.6-.3-.9-.5-.3-.2-.5-.5-.7-.9-.2-.3-.3-.8-.3-1.3 0-.4.1-.8.3-1.2.2-.3.5-.6.8-.9.3-.3.7-.5 1.2-.7.4-.2.9-.4 1.3-.6.4-.2.8-.4 1.2-.5s.7-.4.9-.6c.2-.9.4-1.5.7-1.9.1.1.4-.2.7-.2z"/><path id="XMLID_117_" class="st4" d="M664.7 454.5c.4 1.8.9 2.7 1.7 2.7.3 0 .6-.1.8-.3.3-.2.5-.5.7-.8.2-.3.4-.6.6-1 .2-.3.3-.6.4-.9.1-.2.2-.3.4-.3.1 0 .2 0 .3.1.1.1.1.2.1.3v.2c-.1.1-.1.3-.2.5s-.2.5-.4.7c-.2.3-.3.5-.5.8-.2.3-.4.5-.6.7-.2.2-.5.4-.7.5-.3.1-.5.2-.8.2-.5 0-1-.2-1.3-.5-.4-.4-.7-1-1-1.8-.4.8-.8 1.4-1.1 1.7-.4.4-.8.5-1.2.5-.2 0-.5 0-.7-.1-.2-.1-.4-.2-.6-.4-.2-.2-.3-.4-.4-.7-.1-.3-.2-.6-.2-1 0-.5.1-1 .3-1.5.2-.5.4-.8.7-1.2.3-.3.6-.6 1-.8.4-.2.7-.3 1.1-.3.1 0 .2 0 .3.1.1.1.1.2.1.3 0 .1 0 .2-.1.3-.1.1-.2.1-.3.2-.2 0-.5.1-.7.2-.3.1-.5.3-.7.5-.2.2-.4.5-.6.8s-.2.8-.2 1.2c0 .4.1.7.2.9.2.2.4.3.7.3.1 0 .3 0 .4-.1.1-.1.3-.2.5-.4s.3-.5.5-.8c.2-.4.4-.8.6-1.4-.1-.7-.3-1.5-.4-2.4-.1-.9-.2-1.9-.2-3V447c0-.5.1-1 .2-1.5s.2-1 .3-1.4c.1-.5.3-.9.4-1.2.2-.3.4-.6.6-.8.2-.2.5-.3.8-.3.3 0 .5.1.7.2.2.1.3.3.4.6l.3.9c.1.3.1.7.1 1.2 0 .9-.1 1.8-.2 2.7-.2.9-.3 1.8-.6 2.6-.2.8-.5 1.6-.7 2.3-.3 1.1-.6 1.7-.8 2.2zm1.4-9.4v-.6c0-.2 0-.4-.1-.6 0-.2-.1-.4-.2-.5-.1-.1-.2-.2-.3-.2-.2 0-.4.2-.5.5-.2.3-.3.8-.4 1.4-.1.6-.2 1.2-.3 1.9-.1.7-.1 1.4-.1 2.1 0 .7 0 1.4.1 2.1.1.7.1 1.3.2 1.8.2-.6.4-1.2.6-1.9.2-.6.4-1.3.5-2 .2-.7.3-1.3.4-2 0-.7.1-1.3.1-2z"/><path id="XMLID_120_" class="st4" d="M670.3 456.6c.2.2.4.4.6.5.3.1.6.2.9.2.4 0 .7-.1 1-.3.3-.2.6-.4.9-.7.3-.3.5-.6.7-1 .2-.4.4-.7.6-1.1 0-.1.1-.2.2-.2s.1-.1.2-.1.2 0 .3.1c.1.1.1.2.1.3v.2c-.5 1.2-1.1 2.1-1.8 2.7-.6.6-1.4.9-2.2.9-.5 0-1-.1-1.3-.3-.4-.2-.7-.5-.9-.8-.2-.3-.4-.7-.5-1.1-.1-.4-.2-.8-.2-1.2 0-.4 0-.8.1-1.1.1-.3.2-.6.4-.9.2-.2.4-.4.7-.6.3-.1.5-.2.8-.2.2 0 .4 0 .5.1.2.1.3.2.5.3.1.1.3.3.3.5.1.2.1.4.1.7 0 .3-.1.6-.2.9-.1.3-.3.5-.5.8-.2.2-.4.5-.7.7 0 .4-.3.6-.6.7zm-.3-.7c.2-.1.5-.2.7-.4.2-.2.4-.3.5-.5l.3-.6c.1-.2.1-.4.1-.6 0-.2-.1-.4-.2-.5-.1-.1-.3-.2-.4-.2-.2 0-.4.1-.5.2-.1.1-.3.3-.4.5-.1.2-.2.4-.2.6 0 .2-.1.5-.1.7v.4c.1.1.1.2.2.4z"/><path id="XMLID_123_" class="st4" d="M684.1 454.7c0 .1-.1.2-.2.4s-.2.4-.4.7c-.2.3-.3.5-.5.8-.2.3-.4.5-.7.8-.2.2-.5.4-.8.6-.3.2-.6.2-.9.2-.5 0-.8-.1-1.1-.4-.3-.3-.5-.7-.7-1.1-.3.4-.6.8-.9 1.1-.4.3-.7.4-1.1.4-.3 0-.6-.1-.8-.2-.2-.1-.4-.3-.6-.4-.2-.2-.3-.4-.4-.7-.1-.3-.1-.5-.1-.8 0-.6.1-1.1.3-1.6.2-.5.5-.9.8-1.2.3-.3.7-.5 1.1-.7.4-.2.8-.2 1.1-.2.2 0 .5 0 .7.1.2.1.4.1.5.2.1.1.3.2.3.2l.1.1c.1.1.1.2.1.3 0 .1 0 .2-.1.3-.1.1-.2.1-.3.1-.1 0-.2 0-.3-.1 0 0-.1 0-.1-.1-.1 0-.1-.1-.2-.1s-.2-.1-.3-.1c-.1 0-.3-.1-.4-.1-.2 0-.5.1-.8.2-.3.1-.5.3-.8.5-.2.2-.4.5-.6.9-.2.3-.2.8-.2 1.2v.5c0 .2.1.3.2.4l.3.3c.1.1.3.1.5.1.1 0 .3 0 .5-.1s.4-.2.5-.4c.2-.2.3-.4.5-.7.1-.3.2-.6.3-1.1 0-.1.1-.2.2-.3.1-.1.2-.1.3-.1.1 0 .2 0 .3.1.1.1.1.2.1.3v.6c0 .3.1.5.2.8.1.3.2.5.4.7.2.2.4.3.7.3.2 0 .4-.1.6-.2.2-.1.4-.2.5-.4.2-.2.3-.4.5-.6.2-.2.3-.4.4-.7.1-.2.2-.4.4-.6.1-.2.2-.4.3-.5 0-.1.1-.2.2-.2s.2-.1.2-.1c.1 0 .2 0 .3.1.1.1.1.2.1.3-.2.1-.2.1-.2.2z"/><path id="XMLID_125_" class="st4" d="M684.6 453.6c0 .1-.1.3-.2.4-.1.2-.1.3-.2.5-.1.1-.1.2-.2.3-.1.1-.2.1-.3.1-.1 0-.2 0-.3-.1-.1-.1-.1-.2-.1-.3v-.1s0-.1.1-.1c.2-.4.4-.7.5-1 .1-.3.2-.6.2-.9-.1-.2-.1-.3-.1-.5v-.4c0-.3.1-.5.2-.6.1-.2.3-.2.5-.2s.3.1.4.2c.1.2.2.3.2.6v.4c0 .1-.1.3-.1.5.2.4.4.8.5 1.2.2.3.3.7.5.9.1.3.3.6.3.8.1.3.1.5.1.8 0 .3-.1.6-.2.9-.1.3-.4.5-.7.8h.2c.4 0 .9-.1 1.2-.3.4-.2.7-.5 1-.8.3-.3.6-.7.8-1.1l.6-1.2c.1-.2.2-.3.3-.3.1 0 .2 0 .3.1.1.1.1.2.1.3v.2c-.1.2-.2.5-.3.7-.1.3-.3.5-.5.8-.2.3-.4.6-.7.8-.2.3-.5.5-.8.7-.3.2-.6.4-1 .5-.4.1-.8.2-1.2.2-.5 0-1-.1-1.5-.3-.4-.2-.8-.5-1.1-.9 0-.1-.1-.1-.1-.2s0-.2.1-.3c.1-.1.2-.1.3-.1.1 0 .2 0 .3.1l.1.1c.1.1.1.1.2.1s.1.1.2.1h.3c.2 0 .3 0 .5-.1l.3-.3c.1-.1.1-.2.2-.4 0-.1.1-.2.1-.3 0-.2 0-.4-.1-.6-.1-.2-.1-.4-.2-.6l-.3-.6c-.2-.1-.3-.3-.4-.5z"/></g></g></g><path class="st4" d="M97.8 464.9l-2.5-3.6h.8l2 3 2-3h.8l-2.5 3.6v2.4h-.7v-2.4zm2.9.1c0-1.2 1-2.3 2.3-2.3 1.3 0 2.3 1 2.3 2.3 0 1.2-1 2.3-2.3 2.3-1.3 0-2.3-1-2.3-2.3zm4 0c0-.9-.7-1.7-1.6-1.7-1 0-1.6.8-1.6 1.7s.7 1.7 1.6 1.7c.9.1 1.6-.7 1.6-1.7zm1.7.6v-2.7h.7v2.6c0 .8.4 1.3 1.2 1.3.8 0 1.3-.6 1.3-1.4v-2.5h.6v4.4h-.6v-.8c-.3.5-.8.9-1.5.9-1-.1-1.7-.8-1.7-1.8zm5.4-2.8h.7v1.2c.3-.7 1-1.3 1.8-1.2v.7h-.1c-1 0-1.8.7-1.8 2v1.8h-.7v-4.5zm7.7-.9h-2v-.6h4.7v.6h-2v5.4h-.7v-5.4zm2.4 4c0-.9.8-1.4 1.9-1.4.6 0 1 .1 1.4.2v-.1c0-.8-.5-1.2-1.3-1.2-.5 0-.9.1-1.3.3l-.2-.5c.5-.2 1-.4 1.6-.4.6 0 1.1.2 1.4.5.3.3.5.7.5 1.3v2.7h-.6v-.7c-.3.4-.8.8-1.6.8-1-.1-1.8-.5-1.8-1.5zm3.3-.3v-.4c-.3-.1-.8-.2-1.3-.2-.8 0-1.3.4-1.3.9 0 .6.5.9 1.1.9.8 0 1.5-.5 1.5-1.2zm2 2.4l.3-.5c.5.4 1.1.6 1.7.6 1 0 1.6-.5 1.6-1.6v-.5c-.4.5-.9.9-1.7.9-1.1 0-2.1-.8-2.1-2.1s1-2.1 2.1-2.1c.8 0 1.4.4 1.7.9v-.8h.7v3.6c0 .7-.2 1.2-.6 1.6-.4.4-1 .6-1.7.6-.8 0-1.5-.2-2-.6zm3.6-3.2c0-.9-.8-1.5-1.6-1.5s-1.5.6-1.5 1.5.7 1.5 1.5 1.5 1.6-.6 1.6-1.5zm2.1-3.8h.7v6.2h-.7V461zm2.2.1h.8v.7h-.8v-.7zm.1 1.7h.7v4.4h-.7v-4.4zm2.2 0h.7v.8c.3-.5.8-.9 1.5-.9 1.1 0 1.7.7 1.7 1.8v2.7h-.7v-2.6c0-.8-.4-1.3-1.2-1.3-.8 0-1.3.6-1.3 1.4v2.5h-.7v-4.4zm7.2 4c.6 0 1-.2 1.4-.6l.4.4c-.4.5-1 .8-1.8.8-1.2 0-2.2-.9-2.2-2.3 0-1.3.9-2.3 2.1-2.3 1.3 0 2.1 1 2.1 2.3v.2H143c.1.9.8 1.5 1.6 1.5zm1.3-2c-.1-.8-.5-1.5-1.4-1.5-.8 0-1.3.6-1.4 1.5h2.8z"/><path id="XMLID_89_" d="M102.7 447.7h-8.9c0 4.7 4 8.4 8.9 8.4h35.7l-8.6-8.4h-27.1z" fill="#64c7f3"/><path id="XMLID_82_" class="st22" d="M138.3 416.8h-35.7v8.4h44.6c.1-4.7-3.9-8.4-8.9-8.4z"/><path id="XMLID_87_" class="st4" d="M138.3 425.2v30.9c4.9 0 8.9-3.8 8.9-8.4v-22.5h-8.9z"/><path id="XMLID_74_" class="st3" d="M93.7 447.7h8.9v-30.9c-4.9 0-8.9 3.8-8.9 8.4v22.5z"/><path id="XMLID_65_" class="st24" d="M114.9 436c0 1.5-1.3 2.7-2.9 2.7s-2.9-1.2-2.9-2.7c0-1.5 1.3-2.7 2.9-2.7s2.9 1.2 2.9 2.7z"/><path id="XMLID_77_" class="st24" d="M124.6 436c0 1.5-1.3 2.7-2.9 2.7-1.6 0-2.9-1.2-2.9-2.7 0-1.5 1.3-2.7 2.9-2.7 1.6 0 2.9 1.2 2.9 2.7z"/><path id="XMLID_91_" class="st24" d="M134.3 436c0 1.5-1.3 2.7-2.9 2.7-1.6 0-2.9-1.2-2.9-2.7 0-1.5 1.3-2.7 2.9-2.7 1.6 0 2.9 1.2 2.9 2.7z"/></svg>