<svg version="1.1" id="Capa_1" xmlns="http://www.w3.org/2000/svg" x="0" y="0" viewBox="0 0 596 612" xml:space="preserve"><style>.st1{fill:#e5e9ea}.st3{fill:#0795ff}</style><path class="st3" d="M103.9 147.3c-.7 0-1.3-.2-1.9-.6-.8-.7-1.3-1.7-1.1-2.8l5.8-39.8c.2-1.1.9-2 1.9-2.4 1-.4 2.1-.2 3 .4l31.6 24.9c.8.7 1.3 1.7 1.1 2.8-.2 1.1-.9 2-1.9 2.4L105 147.1c-.3.2-.7.2-1.1.2zm8.1-37.2l-4.3 29.5 27.7-11-23.4-18.5zm415.6 367.8c-.8 0-1.5-.2-2.2-.7l-25.1-16.5c-1.8-1.2-2.4-3.7-1.1-5.5l16.5-25.1c.6-.9 1.5-1.5 2.5-1.7s2.1 0 3 .6l25.1 16.5c1.8 1.2 2.4 3.7 1.1 5.5L531 476.1c-.6.9-1.5 1.5-2.5 1.7-.3.1-.6.1-.9.1zm-19.5-21.6l18.4 12.1 12.1-18.4-18.4-12.1-12.1 18.4z"/><circle class="st3" cx="526.3" cy="357.8" r="5.4"/><circle cx="280.3" cy="342.1" r="198" fill="#394c98"/><circle class="st3" cx="280.3" cy="342.1" r="178"/><path class="st1" d="M359.2 255.1h-34.5l-15.3 70.2h20.3l5-23.3h14.5c13.8 0 25.4-8.5 28.5-23 3.4-16.4-8.3-23.9-18.5-23.9zm-15.1 33.5h-6.6l4.3-19.2h9.9c3.4 0 6 2 6.8 5-.4-.1-.8-.2-1.3-.2h-9.9l-3.2 14.4zm14.5-9.6c-1.2 5.2-6.2 9.4-11.2 9.6l2.4-10.5h9c-.1.3-.1.6-.2.9zm24.5 4.8c1.2-5.4.6-9.9-.9-13.4 3.3 3.9 5 9.6 3.3 17.2-3.1 14.5-14.7 23-28.5 23h-14.5l-5 23.3h-20.3l.8-3.8h17l5-23.3h14.5c14 .1 25.5-8.5 28.6-23zm-129.7 9.1c-2.2-2.9-5.5-4.8-10-5.9 5.7-2.9 8.2-7.8 7.5-14.7-.2-2.5-.9-4.7-2.1-6.5-1.2-1.8-2.7-3.3-4.7-4.5-2-1.1-4.1-2-6.5-2.6-2.3-.6-5-1-8-1.3V243h-8.8v14c-1.5 0-3.8 0-7 .1V243H205v14.4c-1.3 0-3.1.1-5.5.1l-12.1-.1v9.4h6.3c2.9 0 4.6 1.3 5.1 3.9v16.4c.4 0 .7 0 .9.1h-.9v23c-.3 1.9-1.4 2.9-3.3 2.9h-6.3l-1.8 10.4H205v14.6h8.8v-14.4c1.6 0 3.9.1 7 .1v14.3h8.8v-14.6c3.1-.2 5.9-.4 8.3-.9 2.4-.4 4.7-1.1 6.9-2 2.2-.9 4.1-2 5.5-3.3 1.5-1.3 2.7-3 3.7-5.1 1-2.1 1.6-4.4 1.9-7.1.5-5.3-.3-9.4-2.5-12.2zM214 267.4h2.3c1.2 0 2.3 0 3.1-.1.8 0 1.9 0 3.3.1s2.6.3 3.5.5c1 .2 2 .5 3.1.9s2.1 1 2.7 1.6c.7.6 1.3 1.4 1.7 2.4.5 1 .7 2.1.7 3.3 0 1.1-.2 2-.5 2.9-.3.9-.9 1.6-1.5 2.2-.7.6-1.4 1.1-2.1 1.5-.7.4-1.6.8-2.8 1.1-1.1.3-2.1.5-2.9.6-.8.2-1.9.3-3.1.3-1.3.1-2.2.1-2.9.1h-4.7l.1-17.4zm24 38.9c-.4.9-.8 1.6-1.4 2.3-.6.6-1.3 1.2-2.3 1.7-.9.5-1.8.9-2.7 1.2-.9.3-1.9.6-3.2.8-1.2.2-2.3.4-3.3.5-.9.1-2 .2-3.3.2-1.3.1-2.3.1-3 .1H214v-19.3c.3 0 1.2 0 2.7-.1 1.5 0 2.7-.1 3.7-.1s2.3.1 3.9.2c1.7.1 3.1.3 4.2.5s2.4.6 3.7 1.1 2.4 1.1 3.3 1.7c.8.7 1.5 1.6 2.1 2.6.6 1.1.9 2.3.9 3.7.1 1.1-.1 2-.5 2.9zm76.2 68s6.8 4.7 0 5.6c0 0-25.4 3-44.4 20.7 0 0-28.4 24.9-39.1 52.1 0 0-3.5 0-2.4-5.3 1.2-5.3 8.3-28.7 39.9-57.4.1 0 30.6-27.8 46-15.7m-80.8 3.6c.3 6.5 5.9 31.4 5.9 31.4 2.1 5 3.8 0 3.8 0 6.8-20.4-7.1-32.2-7.1-32.2-3.5-2.2-2.6.8-2.6.8m-55 17c2.5-.6 6.5-1 10.3-1 3.6 0 7.6.6 10.5 2.6 2.7 1.8 4.3 4.6 4.3 8.4 0 4.9-2.3 8.8-5.3 11.1-3.2 2.5-7.9 3.7-12.7 3.7-1.4 0-2.6-.2-3.5-.2l-2.7 14.2H171l7.4-38.8zm4.9 17.7c.9.2 1.8.3 3.3.3 5.1 0 8.4-3.2 8.4-7.2 0-3.8-2.7-5-6-5-1.6 0-2.8.1-3.5.2l-2.2 11.7zm37 21.1c.1-1.6.2-3.6.4-5.7h-.1c-2.7 4.8-6.4 6.3-9.8 6.3-5.2 0-8.7-4-8.7-10 0-9.7 6.5-20 20.6-20 3.5 0 7.1.6 9.5 1.4l-2.9 15c-.7 3.7-1.3 9.3-1.2 12.9h-7.8zm2.3-22.7c-.6-.1-1.4-.2-2.2-.2-5.5 0-9.5 6.7-9.5 12 0 2.8 1.1 4.8 3.5 4.8 2.5 0 5.8-2.9 7.1-9.9l1.1-6.7z"/><path class="st1" d="M273.7 434.4c-7.3 0-12.2-4.8-12.2-11.9 0-9.9 6.9-18.2 17.2-18.2 7.8 0 12.2 5.3 12.2 11.9 0 10.5-7.3 18.2-17.2 18.2zm1.1-6.5c4.6 0 7.2-6.8 7.2-11.6 0-2.7-1.2-5.5-4.5-5.5-4.9 0-7.3 7.1-7.3 11.5 0 3.4 1.7 5.6 4.6 5.6zm17.2 5.8l3.6-19.4c.7-3.6 1.2-6.8 1.5-9.3h7.5l-.5 4.8h.1c2.7-3.7 6.3-5.4 10.1-5.4 4.7 0 7.4 2.9 7.4 7.9 0 1.3-.2 3.4-.5 4.8l-3.2 16.7h-8.5l3-15.9c.2-1 .3-2.1.3-3.2 0-2.1-.7-3.5-2.9-3.5-2.8 0-5.9 3.5-7.2 9.8l-2.4 12.8H292zm55.8-1.6c-3.3 1.7-7.5 2.3-10.7 2.3-8.2 0-12.5-4.6-12.5-12.2 0-8.8 6.3-17.9 16.8-17.9 5.8 0 10 3.3 10 8.6 0 7.3-7.1 9.9-18.6 9.6 0 .8.3 2.1.9 2.9 1.1 1.5 3.1 2.2 5.5 2.2 3.1 0 5.8-.7 8.1-1.8l.5 6.3zm-4.3-19.2c0-1.4-1.2-2.4-3.1-2.4-3.9 0-6.2 3.3-6.8 5.9 6.6.1 9.9-.8 9.9-3.5zm32.2 19.2c-3.4 1.7-7.5 2.3-10.7 2.3-8.2 0-12.5-4.6-12.5-12.2 0-8.8 6.3-17.9 16.8-17.9 5.8 0 10 3.3 10 8.6 0 7.3-7.1 9.9-18.6 9.6 0 .8.3 2.1.9 2.9 1.1 1.5 3.1 2.2 5.5 2.2 3.1 0 5.8-.7 8.1-1.8l.5 6.3zm-4.3-19.2c0-1.4-1.2-2.4-3.1-2.4-3.9 0-6.2 3.3-6.8 5.9 6.6.1 9.9-.8 9.9-3.5zm8.1 20.8l3.3-17.1c.8-4.4 1.2-9.2 1.5-11.6h7.3c-.1 1.9-.3 3.9-.5 5.9h.2c2-3.9 5.2-6.6 9.1-6.6.6 0 1.1.1 1.6.1l-1.6 8.3c-.4-.1-.8-.1-1.3-.1-5.3 0-7.9 4.8-9 10.4l-2 10.7h-8.6z"/></svg>