<?xml version="1.0" encoding="utf-8"?>
<!-- Generator: Adobe Illustrator 22.1.0, SVG Export Plug-In . SVG Version: 6.00 Build 0)  -->
<svg version="1.1" id="Capa_1" xmlns="http://www.w3.org/2000/svg" xmlns:xlink="http://www.w3.org/1999/xlink" x="0px" y="0px"
	 viewBox="0 0 632 636" style="enable-background:new 0 0 632 636;" xml:space="preserve">
<style type="text/css">
	.st0{fill:#5CB4FF;}
	.st1{fill:#E5E9EA;}
	.st2{fill:#C1C4C5;}
	.st3{fill:#0795FF;}
	.st4{fill:#394C98;}
	.st5{fill:#E0E0E0;}
	.st6{fill:#EEEEEE;}
	.st7{fill:#0783DE;}
	.st8{fill:none;stroke:#E5E9EA;stroke-width:4;stroke-miterlimit:10;}
	.st9{fill:#077DE8;}
	.st10{opacity:0.45;fill:#94A3BB;}
	.st11{fill:#DEDEDF;}
	.st12{fill:#88BDE7;}
	.st13{fill:#0782D7;}
	.st14{opacity:0.63;}
	.st15{fill:#94A3BB;}
	.st16{opacity:0.32;}
	.st17{clip-path:url(#SVGID_2_);}
	.st18{clip-path:url(#SVGID_4_);}
	.st19{fill:url(#XMLID_6_);}
	.st20{fill:url(#XMLID_7_);}
	.st21{fill:url(#XMLID_11_);}
	.st22{fill:#2B6CD7;}
	.st23{fill:#64C7F3;}
	.st24{fill:#6D6D6C;}
	.st25{fill:#076CD4;}
</style>
<g>
	<g>
		<path class="st4" d="M431.7,286.6c-4.1,0-7.9-1.7-10.9-4.9c-10.2-10.9,0.8-25.1,8.9-35.4c1.3-1.7,2.5-3.3,3.7-4.8
			c2.1-2.9,6.2-3.5,9.1-1.4c2.9,2.1,3.5,6.2,1.4,9.1c-1.2,1.7-2.6,3.4-3.9,5c-4.6,5.9-12.3,15.8-9.7,18.6c0.8,0.8,1.2,0.8,1.4,0.8
			c2.3,0,6.1-2.8,11.1-8.2l0.2-0.2L564.9,129c16.4-18.6,13.6-22.2,13.5-22.3c-0.4-0.4-0.8-0.7-1.8-0.7c0,0,0,0-0.1,0
			c-1.8,0-8.5,1.2-21.5,15.4c-21.1,23-98.8,111.1-99.6,112c-2.4,2.7-6.5,2.9-9.2,0.6c-2.7-2.4-2.9-6.5-0.6-9.2
			c0.8-0.9,78.6-89.1,99.7-112.2c12.2-13.3,22.4-19.7,31.3-19.6c4.6,0.1,8.5,1.9,11.4,5.2c9.3,10.7-1.1,25.3-13.6,39.5l-122,136.3
			c0,0-0.1,0.1-0.1,0.1l-0.2,0.2C448.7,278.3,440.9,286.6,431.7,286.6C431.8,286.6,431.7,286.6,431.7,286.6z"/>
	</g>
	<g>
		<path class="st3" d="M475,519.9c-13.8,0-25-11.2-25-25s11.2-25,25-25c13.8,0,25,11.2,25,25S488.7,519.9,475,519.9z M475,477.9
			c-9.4,0-17,7.6-17,17s7.6,17,17,17s17-7.6,17-17S484.3,477.9,475,477.9z"/>
	</g>
	<g>
		<path class="st3" d="M232.6,289.5c-1.5,0-2.9-0.8-3.6-2.3l-11.2-23.5l-26.6,12.7c-2,1-4.4,0.1-5.3-1.9l-11.2-23.5l-23.5,11.2
			c-2,1-4.4,0.1-5.3-1.9c-1-2-0.1-4.4,1.9-5.3l27.1-12.9c1-0.5,2.1-0.5,3.1-0.2c1,0.4,1.8,1.1,2.3,2l11.2,23.5l26.6-12.7
			c2-1,4.4-0.1,5.3,1.9l12.9,27.1c1,2,0.1,4.4-1.9,5.3C233.7,289.3,233.1,289.5,232.6,289.5z"/>
	</g>
	<g>
		<circle class="st3" cx="519" cy="443.9" r="5.4"/>
	</g>
	<path class="st3" d="M358,219.2L122,454.9c-5.5,5.5-5.5,14.4,0,19.9L236,588.9c5.5,5.5,14.4,5.5,19.9,0l231.8-234.3V219.2H358z
		 M432,297.3c-12.3,0-22.3-10-22.3-22.3c0-12.3,10-22.3,22.3-22.3c12.3,0,22.3,10,22.3,22.3C454.3,287.3,444.3,297.3,432,297.3
		L432,297.3z M432,297.3"/>
	<path class="st13" d="M432,230.4c-24.6,0-44.6,19.9-44.6,44.6c0,24.6,19.9,44.6,44.6,44.6c24.6,0,44.6-19.9,44.6-44.6
		C476.6,250.3,456.6,230.4,432,230.4L432,230.4z M432,297.3c-12.3,0-22.3-10-22.3-22.3c0-12.3,10-22.3,22.3-22.3
		c12.3,0,22.3,10,22.3,22.3C454.3,287.3,444.3,297.3,432,297.3L432,297.3z M432,297.3"/>
	<g>
		<defs>
			<path id="SVGID_1_" d="M432,297.3c-12.3,0-22.3-10-22.3-22.3c0-12.3,10-22.3,22.3-22.3c12.3,0,22.3,10,22.3,22.3
				C454.3,287.3,444.3,297.3,432,297.3L432,297.3z"/>
		</defs>
		<clipPath id="SVGID_2_">
			<use xlink:href="#SVGID_1_"  style="overflow:visible;"/>
		</clipPath>
		<g class="st17">
			<path class="st4" d="M431.7,286.6c-4.1,0-7.9-1.7-10.9-4.9c-10.2-10.9,0.8-25.1,8.9-35.4c1.3-1.7,2.5-3.3,3.7-4.8
				c2.1-2.9,6.2-3.5,9.1-1.4c2.9,2.1,3.5,6.2,1.4,9.1c-1.2,1.7-2.6,3.4-3.9,5c-4.6,5.9-12.3,15.8-9.7,18.6c0.8,0.8,1.2,0.8,1.4,0.8
				c2.3,0,6.1-2.8,11.1-8.2l0.2-0.2L564.9,129c16.4-18.6,13.6-22.2,13.5-22.3c-0.4-0.4-0.8-0.7-1.8-0.7c0,0,0,0-0.1,0
				c-1.8,0-8.5,1.2-21.5,15.4c-21.1,23-98.8,111.1-99.6,112c-2.4,2.7-6.5,2.9-9.2,0.6c-2.7-2.4-2.9-6.5-0.6-9.2
				c0.8-0.9,78.6-89.1,99.7-112.2c12.2-13.3,22.4-19.7,31.3-19.6c4.6,0.1,8.5,1.9,11.4,5.2c9.3,10.7-1.1,25.3-13.6,39.5l-122,136.3
				c0,0-0.1,0.1-0.1,0.1l-0.2,0.2C448.7,278.3,440.9,286.6,431.7,286.6C431.8,286.6,431.7,286.6,431.7,286.6z"/>
		</g>
	</g>
	<g>
		<defs>
			<path id="SVGID_3_" d="M358,219.2L122,454.9c-5.5,5.5-5.5,14.4,0,19.9L236,588.9c5.5,5.5,14.4,5.5,19.9,0l231.8-234.3V219.2H358z
				 M432,297.3c-12.3,0-22.3-10-22.3-22.3c0-12.3,10-22.3,22.3-22.3c12.3,0,22.3,10,22.3,22.3C454.3,287.3,444.3,297.3,432,297.3
				L432,297.3z M432,297.3"/>
		</defs>
		<clipPath id="SVGID_4_">
			<use xlink:href="#SVGID_3_"  style="overflow:visible;"/>
		</clipPath>
		<g class="st18">
			<path class="st4" d="M432,286.9c-4.1,0-7.9-1.7-10.9-4.9c-2.5-2.6-2.3-6.7,0.3-9.2s6.7-2.3,9.2,0.3c0.8,0.8,1.2,0.8,1.4,0.8
				c2.3,0,6.1-2.8,11.1-8.3l0.2-0.2l121.5-136.6c16.3-18.6,13.6-22.2,13.4-22.4c-0.4-0.4-0.8-0.7-1.8-0.7c-1.7,0-8.4,1-21.5,15.4
				c-21,23.1-80.9,91.4-81.5,92.1c-2.4,2.7-6.5,3-9.2,0.6c-2.7-2.4-3-6.5-0.6-9.2c0.6-0.7,60.5-69.1,81.6-92.3
				c12.1-13.2,22.2-19.7,31.1-19.7c0.1,0,0.1,0,0.2,0c4.6,0,8.5,1.8,11.4,5.2c9.3,10.6-1,25.3-13.5,39.5L452.9,274.1
				c0,0-0.1,0.1-0.1,0.1l-0.2,0.2C448.9,278.5,441.2,286.8,432,286.9C432,286.9,432,286.9,432,286.9z"/>
		</g>
	</g>
	<path class="st4" d="M122,454.9c-5.5,5.5-5.5,14.4,0,19.9L236,588.9c5.5,5.5,14.4,5.5,19.9,0l16.6-17L137.7,439L122,454.9z"/>
	<g>
		<path class="st1" d="M206.2,464.7l31.4-31.4l8.3,8.3l-22.4,22.4l8.8,8.8L252,453l8.3,8.3L240.6,481l16,16l-9.1,9.1L206.2,464.7z"
			/>
		<path class="st1" d="M244.9,426l18.9-18.9c5.3-5.3,10.8-7.8,16.2-7.8c4.6,0,9.1,2,13.1,6c6.7,6.7,7.3,14.5,4,21.6l24.8,4.7
			l-10.6,10.6L289,438l-7,7l13.2,13.2l-9.1,9.1L244.9,426z M283.2,427.8c4.4-4.4,4.6-9.3,1-12.9c-3.9-3.9-8.6-3.2-13,1.2l-9,9
			L274,437L283.2,427.8z"/>
		<path class="st1" d="M287.5,383.4l31.1-31.1l8.1,8.1l-22.1,22.1l8.4,8.4l19.5-19.5l8.1,8.1l-19.5,19.5l8.7,8.7l22.4-22.4l8.1,8.1
			l-31.4,31.4L287.5,383.4z"/>
		<path class="st1" d="M327,343.9l31.1-31.1l8.1,8.1l-22.1,22.1l8.4,8.4l19.5-19.5l8.1,8.1l-19.5,19.5l8.7,8.7l22.4-22.4l8.1,8.1
			l-31.4,31.4L327,343.9z"/>
	</g>
</g>
</svg>
