<?xml version="1.0" encoding="utf-8"?>
<!-- Generator: Adobe Illustrator 22.1.0, SVG Export Plug-In . SVG Version: 6.00 Build 0)  -->
<svg version="1.1" id="Capa_1" xmlns="http://www.w3.org/2000/svg" xmlns:xlink="http://www.w3.org/1999/xlink" x="0px" y="0px"
	 viewBox="0 0 900 712" style="enable-background:new 0 0 900 712;" xml:space="preserve">
<style type="text/css">
	.st0{fill:#5CB4FF;}
	.st1{fill:#E5E9EA;}
	.st2{fill:#C1C4C5;}
	.st3{fill:#0795FF;}
	.st4{fill:#394C98;}
	.st5{fill:#E0E0E0;}
	.st6{fill:#EEEEEE;}
	.st7{fill:#0783DE;}
	.st8{fill:none;stroke:#E5E9EA;stroke-width:4;stroke-miterlimit:10;}
	.st9{fill:#077DE8;}
	.st10{opacity:0.45;fill:#94A3BB;}
	.st11{fill:#DEDEDF;}
	.st12{fill:#88BDE7;}
	.st13{fill:#0782D7;}
	.st14{opacity:0.63;}
	.st15{fill:#94A3BB;}
	.st16{opacity:0.32;}
	.st17{clip-path:url(#SVGID_2_);}
	.st18{clip-path:url(#SVGID_4_);}
	.st19{fill:url(#XMLID_6_);}
	.st20{fill:url(#XMLID_7_);}
	.st21{fill:url(#XMLID_11_);}
	.st22{fill:#2B6CD7;}
	.st23{fill:#64C7F3;}
	.st24{fill:#6D6D6C;}
	.st25{fill:#076CD4;}
</style>
<g>
	<g>
		<circle class="st3" cx="764" cy="205" r="5.4"/>
	</g>
	<g>
		<path class="st4" d="M702.8,171.2c0-6.6-5.4-12.4-12.4-12.4H201.7c-6.6,0-12.4,5.4-12.4,12.4v287.7h513.2V171.2H702.8z
			 M702.8,171.2"/>
		<path class="st1" d="M189.6,458.9v49.8c0,6.6,5.4,12.4,12.4,12.4h488.7c6.6,0,12.4-5.4,12.4-12.4v-49.8H189.6z M189.6,458.9"/>
		<rect x="214.5" y="184.4" class="st3" width="463.5" height="249.6"/>
		<path class="st10" d="M458.3,490c0,6.7-5.4,12.1-12.1,12.1c-6.7,0-12.1-5.4-12.1-12.1c0-6.7,5.4-12,12.1-12
			C452.9,478,458.3,483.4,458.3,490L458.3,490z M458.3,490"/>
		<rect x="355.2" y="520.7" class="st11" width="182" height="47.4"/>
		<path class="st1" d="M543.4,568.2H349c-18.7,0-34.2,15.2-34.2,34.2h262.8C577.6,583.7,562.5,568.2,543.4,568.2L543.4,568.2z
			 M543.4,568.2"/>
	</g>
	<g>
		<g>
			<path class="st1" d="M623.4,257c0,2.5-2,4.5-4.5,4.5h-99c-2.5,0-4.5-2-4.5-4.5c0-2.5,2-4.5,4.5-4.5h99
				C621.4,252.5,623.4,254.5,623.4,257z"/>
		</g>
		<g>
			<path class="st12" d="M501.1,257c0,2.5-2,4.5-4.5,4.5H273.5c-2.5,0-4.5-2-4.5-4.5c0-2.5,2-4.5,4.5-4.5h223.1
				C499.1,252.5,501.1,254.5,501.1,257z"/>
		</g>
		<g>
			<path class="st1" d="M523.9,257.1c0,8.8-7.1,15.9-15.9,15.9s-15.9-7.1-15.9-15.9s7.1-15.9,15.9-15.9S523.9,248.3,523.9,257.1z
				 M501.1,257.1c0,3.8,3.1,6.9,6.9,6.9c3.8,0,6.9-3.1,6.9-6.9c0-3.8-3.1-6.9-6.9-6.9C504.2,250.2,501.1,253.3,501.1,257.1z"/>
		</g>
	</g>
	<g>
		<g>
			<path class="st1" d="M623.2,368.2c0,2.5-2,4.5-4.5,4.5H440c-2.5,0-4.5-2-4.5-4.5s2-4.5,4.5-4.5h178.8
				C621.2,363.6,623.2,365.7,623.2,368.2z"/>
		</g>
		<g>
			<path class="st12" d="M421.3,368.2c0,2.5-2,4.5-4.5,4.5H273.3c-2.5,0-4.5-2-4.5-4.5s2-4.5,4.5-4.5h143.5
				C419.3,363.6,421.3,365.7,421.3,368.2z"/>
		</g>
		<g>
			<path class="st1" d="M444.1,368.2c0,8.8-7.1,15.9-15.9,15.9c-8.8,0-15.9-7.1-15.9-15.9c0-8.8,7.1-15.9,15.9-15.9
				C437,352.3,444.1,359.4,444.1,368.2z M421.3,368.2c0,3.8,3.1,6.9,6.9,6.9c3.8,0,6.9-3.1,6.9-6.9c0-3.8-3.1-6.9-6.9-6.9
				C424.4,361.3,421.3,364.4,421.3,368.2z"/>
		</g>
	</g>
	<g>
		<g>
			<path class="st12" d="M345.8,310.7c0,2.5-2,4.5-4.5,4.5h-67.8c-2.5,0-4.5-2-4.5-4.5c0-2.5,2-4.5,4.5-4.5h67.8
				C343.8,306.2,345.8,308.2,345.8,310.7z"/>
		</g>
		<g>
			<path class="st1" d="M623.4,310.7c0,2.5-2,4.5-4.5,4.5H371c-2.5,0-4.5-2-4.5-4.5c0-2.5,2-4.5,4.5-4.5h247.9
				C621.4,306.2,623.4,308.2,623.4,310.7z"/>
		</g>
		<g>
			<path class="st1" d="M371.4,310.7c0,8.8-7.1,15.9-15.9,15.9c-8.8,0-15.9-7.1-15.9-15.9c0-8.8,7.1-15.9,15.9-15.9
				C364.3,294.7,371.4,301.9,371.4,310.7z M348.6,310.7c0,3.8,3.1,6.9,6.9,6.9c3.8,0,6.9-3.1,6.9-6.9c0-3.8-3.1-6.9-6.9-6.9
				C351.7,303.7,348.6,306.8,348.6,310.7z"/>
		</g>
	</g>
	<g>
		<path class="st3" d="M132.5,361.8c-13.8,0-25-11.2-25-25s11.2-25,25-25c13.8,0,25,11.2,25,25S146.3,361.8,132.5,361.8z
			 M132.5,319.8c-9.4,0-17,7.6-17,17s7.6,17,17,17s17-7.6,17-17S141.9,319.8,132.5,319.8z"/>
	</g>
	<g>
		<path class="st3" d="M772,312.5c-2.2,0-4-1.8-4-4v-30c0-2.2,1.8-4,4-4h26V245c0-2.2,1.8-4,4-4h30c2.2,0,4,1.8,4,4s-1.8,4-4,4h-26
			v29.5c0,2.2-1.8,4-4,4h-26v26C776,310.7,774.2,312.5,772,312.5z"/>
	</g>
	<g>
		<path class="st3" d="M77,420.1c-0.7,0-1.3-0.2-1.9-0.6c-0.8-0.5-1.3-1.3-1.5-2.2l-4.1-19.7c-0.4-1.9,0.8-3.7,2.7-4.1l19.7-4.1
			c0.9-0.2,1.9,0,2.6,0.5c0.8,0.5,1.3,1.3,1.5,2.2l4.1,19.7c0.4,1.9-0.8,3.7-2.7,4.1L77.7,420C77.4,420.1,77.2,420.1,77,420.1z
			 M77,399.6l2.7,12.8l12.8-2.7L89.9,397L77,399.6z"/>
	</g>
</g>
</svg>
