<?xml version="1.0" encoding="utf-8"?>
<!-- Generator: Adobe Illustrator 22.1.0, SVG Export Plug-In . SVG Version: 6.00 Build 0)  -->
<svg version="1.1" id="Capa_1" xmlns="http://www.w3.org/2000/svg" xmlns:xlink="http://www.w3.org/1999/xlink" x="0px" y="0px"
	 viewBox="0 0 596 612" style="enable-background:new 0 0 596 612;" xml:space="preserve">
<style type="text/css">
	.st0{fill:#5CB4FF;}
	.st1{fill:#E5E9EA;}
	.st2{fill:#C1C4C5;}
	.st3{fill:#0795FF;}
	.st4{fill:#394C98;}
	.st5{fill:#E0E0E0;}
	.st6{fill:#EEEEEE;}
	.st7{fill:#0783DE;}
	.st8{fill:none;stroke:#E5E9EA;stroke-width:4;stroke-miterlimit:10;}
	.st9{fill:#077DE8;}
	.st10{opacity:0.45;fill:#94A3BB;}
	.st11{fill:#DEDEDF;}
	.st12{fill:#88BDE7;}
	.st13{fill:#0782D7;}
	.st14{opacity:0.63;}
	.st15{fill:#94A3BB;}
	.st16{opacity:0.32;}
	.st17{clip-path:url(#SVGID_2_);}
	.st18{clip-path:url(#SVGID_4_);}
	.st19{fill:url(#XMLID_6_);}
	.st20{fill:url(#XMLID_7_);}
	.st21{fill:url(#XMLID_11_);}
	.st22{fill:#2B6CD7;}
	.st23{fill:#64C7F3;}
	.st24{fill:#6D6D6C;}
	.st25{fill:#076CD4;}
</style>
<g>
	<g>
		<path class="st3" d="M103.9,147.3c-0.7,0-1.3-0.2-1.9-0.6c-0.8-0.7-1.3-1.7-1.1-2.8l5.8-39.8c0.2-1.1,0.9-2,1.9-2.4
			c1-0.4,2.1-0.2,3,0.4l31.6,24.9c0.8,0.7,1.3,1.7,1.1,2.8c-0.2,1.1-0.9,2-1.9,2.4L105,147.1C104.7,147.3,104.3,147.3,103.9,147.3z
			 M112,110.1l-4.3,29.5l27.7-11L112,110.1z"/>
	</g>
	<g>
		<path class="st3" d="M527.6,477.9c-0.8,0-1.5-0.2-2.2-0.7l-25.1-16.5c-1.8-1.2-2.4-3.7-1.1-5.5l16.5-25.1c0.6-0.9,1.5-1.5,2.5-1.7
			s2.1,0,3,0.6l25.1,16.5c1.8,1.2,2.4,3.7,1.1,5.5L531,476.1c-0.6,0.9-1.5,1.5-2.5,1.7C528.2,477.9,527.9,477.9,527.6,477.9z
			 M508.1,456.3l18.4,12.1l12.1-18.4l-18.4-12.1L508.1,456.3z"/>
	</g>
	<g>
		<circle class="st3" cx="526.3" cy="357.8" r="5.4"/>
	</g>
	<g>
		<circle class="st4" cx="280.3" cy="342.1" r="198"/>
		<circle class="st3" cx="280.3" cy="342.1" r="178"/>
		<path class="st1" d="M359.2,255.1h-34.5l-15.3,70.2h20.3l5-23.3h14.5c13.8,0,25.4-8.5,28.5-23
			C381.1,262.6,369.4,255.1,359.2,255.1L359.2,255.1z M344.1,288.6h-6.6l4.3-19.2h9.9c3.4,0,6,2,6.8,5c-0.4-0.1-0.8-0.2-1.3-0.2
			h-9.9L344.1,288.6z M358.6,279c-1.2,5.2-6.2,9.4-11.2,9.6l2.4-10.5h9C358.7,278.4,358.7,278.7,358.6,279L358.6,279z M383.1,283.8
			c1.2-5.4,0.6-9.9-0.9-13.4c3.3,3.9,5,9.6,3.3,17.2c-3.1,14.5-14.7,23-28.5,23h-14.5l-5,23.3h-20.3l0.8-3.8h17l5-23.3h14.5
			C368.5,306.9,380,298.3,383.1,283.8L383.1,283.8z M383.1,283.8"/>
		<g>
			<path class="st1" d="M253.4,292.9c-2.2-2.9-5.5-4.8-10-5.9c5.7-2.9,8.2-7.8,7.5-14.7c-0.2-2.5-0.9-4.7-2.1-6.5
				c-1.2-1.8-2.7-3.3-4.7-4.5c-2-1.1-4.1-2-6.5-2.6c-2.3-0.6-5-1-8-1.3V243h-8.8v14c-1.5,0-3.8,0-7,0.1V243h-8.8v14.4
				c-1.3,0-3.1,0.1-5.5,0.1l-12.1-0.1v9.4h6.3c2.9,0,4.6,1.3,5.1,3.9v16.4c0.4,0,0.7,0,0.9,0.1h-0.9v23c-0.3,1.9-1.4,2.9-3.3,2.9
				h-6.3l-1.8,10.4h11.4c0.7,0,1.8,0,3.1,0c1.4,0,2.4,0,3.1,0v14.6h8.8v-14.4c1.6,0,3.9,0.1,7,0.1v14.3h8.8v-14.6
				c3.1-0.2,5.9-0.4,8.3-0.9c2.4-0.4,4.7-1.1,6.9-2c2.2-0.9,4.1-2,5.5-3.3c1.5-1.3,2.7-3,3.7-5.1c1-2.1,1.6-4.4,1.9-7.1
				C256.4,299.8,255.6,295.7,253.4,292.9L253.4,292.9z M214,267.4c0.3,0,1,0,2.3,0c1.2,0,2.3,0,3.1-0.1c0.8,0,1.9,0,3.3,0.1
				c1.4,0.1,2.6,0.3,3.5,0.5c1,0.2,2,0.5,3.1,0.9c1.1,0.4,2.1,1,2.7,1.6c0.7,0.6,1.3,1.4,1.7,2.4c0.5,1,0.7,2.1,0.7,3.3
				c0,1.1-0.2,2-0.5,2.9c-0.3,0.9-0.9,1.6-1.5,2.2c-0.7,0.6-1.4,1.1-2.1,1.5c-0.7,0.4-1.6,0.8-2.8,1.1c-1.1,0.3-2.1,0.5-2.9,0.6
				c-0.8,0.2-1.9,0.3-3.1,0.3c-1.3,0.1-2.2,0.1-2.9,0.1c-0.6,0-1.5,0-2.7,0c-1.1,0-1.8,0-2,0L214,267.4L214,267.4z M238,306.3
				c-0.4,0.9-0.8,1.6-1.4,2.3c-0.6,0.6-1.3,1.2-2.3,1.7c-0.9,0.5-1.8,0.9-2.7,1.2c-0.9,0.3-1.9,0.6-3.2,0.8
				c-1.2,0.2-2.3,0.4-3.3,0.5c-0.9,0.1-2,0.2-3.3,0.2c-1.3,0.1-2.3,0.1-3,0.1c-0.7,0-1.6,0-2.7,0c-1.1,0-1.8,0-2.1,0v-19.3
				c0.3,0,1.2,0,2.7-0.1c1.5,0,2.7-0.1,3.7-0.1s2.3,0.1,3.9,0.2c1.7,0.1,3.1,0.3,4.2,0.5c1.1,0.2,2.4,0.6,3.7,1.1s2.4,1.1,3.3,1.7
				c0.8,0.7,1.5,1.6,2.1,2.6c0.6,1.1,0.9,2.3,0.9,3.7C238.6,304.5,238.4,305.4,238,306.3L238,306.3z M238,306.3"/>
		</g>
		<g>
			<path class="st1" d="M314.2,374.3c0,0,6.8,4.7,0,5.6c0,0-25.4,3-44.4,20.7c0,0-28.4,24.9-39.1,52.1c0,0-3.5,0-2.4-5.3
				c1.2-5.3,8.3-28.7,39.9-57.4C268.3,390,298.8,362.2,314.2,374.3 M233.4,377.9c0.3,6.5,5.9,31.4,5.9,31.4c2.1,5,3.8,0,3.8,0
				c6.8-20.4-7.1-32.2-7.1-32.2C232.5,374.9,233.4,377.9,233.4,377.9"/>
			<path class="st1" d="M178.4,394.9c2.5-0.6,6.5-1,10.3-1c3.6,0,7.6,0.6,10.5,2.6c2.7,1.8,4.3,4.6,4.3,8.4c0,4.9-2.3,8.8-5.3,11.1
				c-3.2,2.5-7.9,3.7-12.7,3.7c-1.4,0-2.6-0.2-3.5-0.2l-2.7,14.2H171L178.4,394.9z M183.3,412.6c0.9,0.2,1.8,0.3,3.3,0.3
				c5.1,0,8.4-3.2,8.4-7.2c0-3.8-2.7-5-6-5c-1.6,0-2.8,0.1-3.5,0.2L183.3,412.6z"/>
			<path class="st1" d="M220.3,433.7c0.1-1.6,0.2-3.6,0.4-5.7h-0.1c-2.7,4.8-6.4,6.3-9.8,6.3c-5.2,0-8.7-4-8.7-10
				c0-9.7,6.5-20,20.6-20c3.5,0,7.1,0.6,9.5,1.4l-2.9,15c-0.7,3.7-1.3,9.3-1.2,12.9H220.3z M222.6,411c-0.6-0.1-1.4-0.2-2.2-0.2
				c-5.5,0-9.5,6.7-9.5,12c0,2.8,1.1,4.8,3.5,4.8c2.5,0,5.8-2.9,7.1-9.9L222.6,411z"/>
			<path class="st1" d="M273.7,434.4c-7.3,0-12.2-4.8-12.2-11.9c0-9.9,6.9-18.2,17.2-18.2c7.8,0,12.2,5.3,12.2,11.9
				C290.9,426.7,283.6,434.4,273.7,434.4L273.7,434.4z M274.8,427.9c4.6,0,7.2-6.8,7.2-11.6c0-2.7-1.2-5.5-4.5-5.5
				c-4.9,0-7.3,7.1-7.3,11.5C270.2,425.7,271.9,427.9,274.8,427.9L274.8,427.9z"/>
			<path class="st1" d="M292,433.7l3.6-19.4c0.7-3.6,1.2-6.8,1.5-9.3h7.5l-0.5,4.8h0.1c2.7-3.7,6.3-5.4,10.1-5.4
				c4.7,0,7.4,2.9,7.4,7.9c0,1.3-0.2,3.4-0.5,4.8l-3.2,16.7h-8.5l3-15.9c0.2-1,0.3-2.1,0.3-3.2c0-2.1-0.7-3.5-2.9-3.5
				c-2.8,0-5.9,3.5-7.2,9.8l-2.4,12.8H292z"/>
			<path class="st1" d="M347.8,432.1c-3.3,1.7-7.5,2.3-10.7,2.3c-8.2,0-12.5-4.6-12.5-12.2c0-8.8,6.3-17.9,16.8-17.9
				c5.8,0,10,3.3,10,8.6c0,7.3-7.1,9.9-18.6,9.6c0,0.8,0.3,2.1,0.9,2.9c1.1,1.5,3.1,2.2,5.5,2.2c3.1,0,5.8-0.7,8.1-1.8L347.8,432.1z
				 M343.5,412.9c0-1.4-1.2-2.4-3.1-2.4c-3.9,0-6.2,3.3-6.8,5.9C340.2,416.5,343.5,415.6,343.5,412.9L343.5,412.9z"/>
			<path class="st1" d="M375.7,432.1c-3.4,1.7-7.5,2.3-10.7,2.3c-8.2,0-12.5-4.6-12.5-12.2c0-8.8,6.3-17.9,16.8-17.9
				c5.8,0,10,3.3,10,8.6c0,7.3-7.1,9.9-18.6,9.6c0,0.8,0.3,2.1,0.9,2.9c1.1,1.5,3.1,2.2,5.5,2.2c3.1,0,5.8-0.7,8.1-1.8L375.7,432.1z
				 M371.4,412.9c0-1.4-1.2-2.4-3.1-2.4c-3.9,0-6.2,3.3-6.8,5.9C368.1,416.5,371.4,415.6,371.4,412.9L371.4,412.9z"/>
			<path class="st1" d="M379.5,433.7l3.3-17.1c0.8-4.4,1.2-9.2,1.5-11.6h7.3c-0.1,1.9-0.3,3.9-0.5,5.9h0.2c2-3.9,5.2-6.6,9.1-6.6
				c0.6,0,1.1,0.1,1.6,0.1l-1.6,8.3c-0.4-0.1-0.8-0.1-1.3-0.1c-5.3,0-7.9,4.8-9,10.4l-2,10.7H379.5z"/>
		</g>
	</g>
</g>
</svg>
