<svg version="1.1" id="Capa_1" xmlns="http://www.w3.org/2000/svg" x="0" y="0" viewBox="0 0 1104 608" xml:space="preserve"><style>.st1{fill:#e5e9ea}.st3{fill:#0795ff}.st14{opacity:.63}.st15{fill:#94a3bb}.st16{opacity:.32}</style><path class="st3" d="M490.4 375.6c21.8-17.9 45.2-29.8 50-32.1.5-.3.9-.8.9-1.4v-33.9c-4.3-2.8-7.1-7.6-7.1-13.2v-35c0-17.4 14.2-31.6 31.6-31.6h7.5c17.4 0 31.6 14.2 31.6 31.6v35.2c0 5.5-2.8 10.3-7.1 13.2v33.9c0 .6.3 1.2.9 1.4 4.8 2.4 28.3 14.2 50 32.1 4 3.2 6.2 8 6.2 13.1V400c21.1-21.6 34.2-51.2 34.2-83.9 0-66.3-53.7-120-120-120s-120 53.7-120 120c0 33.1 13.4 63.1 35.1 84.9v-12.1c0-5.2 2.2-10.1 6.2-13.3z"/><path d="M654.9 399.9v-11.1c0-5-2.2-9.9-6.2-13.1-21.7-17.9-45.2-29.7-50-32.1-.5-.3-.9-.8-.9-1.4v-33.9c4.3-2.9 7.1-7.7 7.1-13.2V260c0-17.4-14.2-31.6-31.6-31.6h-7.5c-17.4 0-31.6 14.2-31.6 31.6v35.1c0 5.5 2.8 10.4 7.1 13.2v33.9c0 .6-.3 1.2-.9 1.4-4.8 2.3-28.2 14.2-50 32.1-4 3.2-6.2 8-6.2 13.2V401c18.5 18.5 43 31 70.4 34.3 4.9.5 10 .9 15.1.9 1.9 0 3.7-.1 5.6-.1 8.5-.5 17.8-2.2 26.8-4.4 20.3-6.1 38.4-17.1 52.8-31.8z" fill="#394c98"/><path class="st1" d="M750.1 363c17.2-14.1 35.6-23.4 39.4-25.3.4-.2.7-.6.7-1.1v-26.7c-3.4-2.2-5.6-6-5.6-10.4v-27.6c0-13.7 11.2-24.9 24.9-24.9h5.9c13.7 0 24.9 11.2 24.9 24.9v27.7c0 4.3-2.2 8.1-5.6 10.4v26.7c0 .5.3.9.7 1.1 3.8 1.9 22.3 11.2 39.4 25.3 3.1 2.5 4.9 6.3 4.9 10.3v8.7c16.7-17 26.9-40.3 26.9-66.1 0-52.2-42.3-94.5-94.5-94.5s-94.5 42.3-94.5 94.5c0 26.1 10.6 49.7 27.7 66.8v-9.5c-.1-4 1.7-7.8 4.8-10.3z"/><g class="st14"><path class="st15" d="M879.6 382v-8.7c0-4-1.8-7.8-4.9-10.3-17.1-14.1-35.6-23.4-39.4-25.3-.4-.2-.7-.6-.7-1.1v-26.7c3.4-2.3 5.6-6.1 5.6-10.4v-27.7c0-13.7-11.2-24.9-24.9-24.9h-5.9c-13.7 0-24.9 11.2-24.9 24.9v27.6c0 4.3 2.2 8.2 5.6 10.4v26.7c0 .5-.3.9-.7 1.1-3.8 1.8-22.2 11.2-39.4 25.3-3.1 2.5-4.9 6.3-4.9 10.4v9.5c14.6 14.6 33.9 24.4 55.4 27 3.9.4 7.9.7 11.9.7 1.5 0 2.9 0 4.4-.1 6.7-.4 14-1.7 21.1-3.5 16.1-4.6 30.4-13.3 41.7-24.9z"/></g><path class="st1" d="M256.8 363c17.2-14.1 35.6-23.4 39.4-25.3.4-.2.7-.6.7-1.1v-26.7c-3.4-2.2-5.6-6-5.6-10.4v-27.6c0-13.7 11.2-24.9 24.9-24.9h5.9c13.7 0 24.9 11.2 24.9 24.9v27.7c0 4.3-2.2 8.1-5.6 10.4v26.7c0 .5.3.9.7 1.1 3.8 1.9 22.3 11.2 39.4 25.3 3.1 2.5 4.9 6.3 4.9 10.3v8.7c16.7-17 26.9-40.3 26.9-66.1 0-52.2-42.3-94.5-94.5-94.5s-94.5 42.3-94.5 94.5c0 26.1 10.6 49.7 27.7 66.8v-9.5c-.1-4 1.7-7.8 4.8-10.3z"/><g class="st14"><path class="st15" d="M386.4 382v-8.7c0-4-1.8-7.8-4.9-10.3-17.1-14.1-35.6-23.4-39.4-25.3-.4-.2-.7-.6-.7-1.1v-26.7c3.4-2.3 5.6-6.1 5.6-10.4v-27.7c0-13.7-11.2-24.9-24.9-24.9h-5.9c-13.7 0-24.9 11.2-24.9 24.9v27.6c0 4.3 2.2 8.2 5.6 10.4v26.7c0 .5-.3.9-.7 1.1-3.8 1.8-22.2 11.2-39.4 25.3-3.1 2.5-4.9 6.3-4.9 10.4v9.5c14.6 14.6 33.9 24.4 55.4 27 3.9.4 7.9.7 11.9.7 1.5 0 2.9 0 4.4-.1 6.7-.4 14-1.7 21.1-3.5 16.1-4.6 30.4-13.3 41.7-24.9z"/></g><g class="st16"><path class="st1" d="M88.6 353.6c12-9.9 25-16.4 27.6-17.7.3-.2.5-.5.5-.8v-18.7c-2.4-1.5-3.9-4.2-3.9-7.3v-19.4c0-9.6 7.8-17.4 17.4-17.4h4.1c9.6 0 17.4 7.8 17.4 17.4v19.4c0 3-1.5 5.7-3.9 7.3v18.7c0 .3.2.6.5.8 2.7 1.3 15.6 7.9 27.6 17.7 2.2 1.8 3.4 4.4 3.4 7.2v6.1c11.7-11.9 18.9-28.3 18.9-46.3 0-36.6-29.6-66.2-66.2-66.2S65.8 284 65.8 320.6c0 18.3 7.4 34.8 19.4 46.8v-6.7c0-2.7 1.3-5.4 3.4-7.1z"/><g class="st14"><path class="st15" d="M179.4 366.9v-6.1c0-2.8-1.2-5.5-3.4-7.2-12-9.8-24.9-16.4-27.6-17.7-.3-.2-.5-.5-.5-.8v-18.7c2.4-1.6 3.9-4.2 3.9-7.3v-19.4c0-9.6-7.8-17.4-17.4-17.4h-4.1c-9.6 0-17.4 7.8-17.4 17.4v19.4c0 3 1.5 5.7 3.9 7.3v18.7c0 .3-.2.6-.5.8-2.6 1.3-15.6 7.8-27.6 17.7-2.2 1.8-3.4 4.4-3.4 7.3v6.7c10.2 10.2 23.7 17.1 38.8 18.9 2.7.3 5.5.5 8.3.5 1 0 2 0 3.1-.1 4.7-.3 9.8-1.2 14.8-2.4 11.2-3.4 21.2-9.5 29.1-17.6z"/></g></g><g class="st16"><path class="st1" d="M946.4 353.6c12-9.9 25-16.4 27.6-17.7.3-.2.5-.5.5-.8v-18.7c-2.4-1.5-3.9-4.2-3.9-7.3v-19.4c0-9.6 7.8-17.4 17.4-17.4h4.1c9.6 0 17.4 7.8 17.4 17.4v19.4c0 3-1.5 5.7-3.9 7.3v18.7c0 .3.2.6.5.8 2.7 1.3 15.6 7.9 27.6 17.7 2.2 1.8 3.4 4.4 3.4 7.2v6.1c11.7-11.9 18.9-28.3 18.9-46.3 0-36.6-29.6-66.2-66.2-66.2s-66.2 29.6-66.2 66.2c0 18.3 7.4 34.8 19.4 46.8v-6.7c0-2.7 1.2-5.4 3.4-7.1z"/><g class="st14"><path class="st15" d="M1037.1 366.9v-6.1c0-2.8-1.2-5.5-3.4-7.2-12-9.8-24.9-16.4-27.6-17.7-.3-.2-.5-.5-.5-.8v-18.7c2.4-1.6 3.9-4.2 3.9-7.3v-19.4c0-9.6-7.8-17.4-17.4-17.4H988c-9.6 0-17.4 7.8-17.4 17.4v19.4c0 3 1.5 5.7 3.9 7.3v18.7c0 .3-.2.6-.5.8-2.6 1.3-15.6 7.8-27.6 17.7-2.2 1.8-3.4 4.4-3.4 7.3v6.7c10.2 10.2 23.7 17.1 38.8 18.9 2.7.3 5.5.5 8.3.5 1 0 2 0 3.1-.1 4.7-.3 9.8-1.2 14.8-2.4 11.2-3.4 21.2-9.5 29.1-17.6z"/></g></g><path class="st3" d="M490.7 165.2h-23.6c-1.3 0-2.5-.7-3.2-1.8L452.2 143c-.7-1.1-.7-2.5 0-3.6L464 119c.6-1.1 1.9-1.8 3.2-1.8h23.6c1.3 0 2.5.7 3.2 1.8l11.8 20.4c.7 1.1.7 2.5 0 3.6L494 163.4c-.8 1.1-2 1.8-3.3 1.8zm-21.5-7.3h19.4l9.7-16.8-9.7-16.8h-19.4l-9.7 16.8 9.7 16.8z"/><circle class="st3" cx="538.9" cy="165.2" r="6.5"/><path class="st3" d="M413.1 534.9c-1.3 0-2.7-.3-3.9-1.1l-40-23.2a7.67 7.67 0 0 1-3.9-6.4c-.1-2.7 1.1-5.2 3.2-6.8l40-29.5c3.5-2.6 8.5-1.8 11 1.7 2.6 3.5 1.8 8.5-1.7 11l-30.3 22.3 29.6 17.1c3.8 2.2 5.1 7 2.9 10.8-1.5 2.7-4.1 4.1-6.9 4.1zm305.9 0c-2.4 0-4.8-1.1-6.4-3.2-2.6-3.5-1.8-8.5 1.7-11l30.3-22.3-29.6-17.2c-3.8-2.2-5.1-7-2.9-10.8 2.2-3.8 7-5.1 10.8-2.9l40 23.2c2.3 1.3 3.8 3.7 3.9 6.4.1 2.7-1.1 5.2-3.2 6.8l-40 29.5c-1.3 1-3 1.5-4.6 1.5z"/><path class="st1" d="M476.9 496.6h190.3v19.2H476.9zm0-26.9h190.3v19.2H476.9zm0 54.1h113.6v17.4H476.9z"/></svg>