<?xml version="1.0" encoding="utf-8"?>
<!-- Generator: Adobe Illustrator 22.1.0, SVG Export Plug-In . SVG Version: 6.00 Build 0)  -->
<svg version="1.1" id="Capa_1" xmlns="http://www.w3.org/2000/svg" xmlns:xlink="http://www.w3.org/1999/xlink" x="0px" y="0px"
	 viewBox="0 0 824 720" style="enable-background:new 0 0 824 720;" xml:space="preserve">
<style type="text/css">
	.st0{fill:#5CB4FF;}
	.st1{fill:#E5E9EA;}
	.st2{fill:#C1C4C5;}
	.st3{fill:#0795FF;}
	.st4{fill:#394C98;}
	.st5{fill:#E0E0E0;}
	.st6{fill:#EEEEEE;}
	.st7{fill:#0783DE;}
	.st8{fill:none;stroke:#E5E9EA;stroke-width:4;stroke-miterlimit:10;}
	.st9{fill:#077DE8;}
	.st10{opacity:0.45;fill:#94A3BB;}
	.st11{fill:#DEDEDF;}
	.st12{fill:#88BDE7;}
	.st13{fill:#0782D7;}
	.st14{opacity:0.63;}
	.st15{fill:#94A3BB;}
	.st16{opacity:0.32;}
	.st17{clip-path:url(#SVGID_2_);}
	.st18{clip-path:url(#SVGID_4_);}
	.st19{fill:url(#XMLID_6_);}
	.st20{fill:url(#XMLID_7_);}
	.st21{fill:url(#XMLID_11_);}
	.st22{fill:#2B6CD7;}
	.st23{fill:#64C7F3;}
	.st24{fill:#6D6D6C;}
	.st25{fill:#076CD4;}
</style>
<g>
	<g>
		<path class="st3" d="M344.7,323.8c-0.9,0-1.8-0.3-2.6-0.9c-2-1.5-2.5-4.3-1-6.3l4.7-6.5c0.8-1.2,2.2-1.8,3.6-1.9l8-0.1
			c2.5-0.1,4.5,2,4.6,4.4c0,2.5-2,4.5-4.4,4.6l-5.7,0.1l-3.4,4.7C347.5,323.2,346.1,323.8,344.7,323.8z"/>
	</g>
	<g>
		<path class="st3" d="M278,413.3c-0.9,0-1.8-0.3-2.6-0.9c-2-1.5-2.5-4.3-1-6.3l9.7-13.4c1.5-2,4.3-2.5,6.3-1c2,1.5,2.5,4.3,1,6.3
			l-9.7,13.4C280.8,412.7,279.4,413.3,278,413.3z M298.6,384.8c-0.9,0-1.8-0.3-2.6-0.9c-2-1.5-2.5-4.3-1-6.3l9.7-13.4
			c1.5-2,4.3-2.5,6.3-1c2,1.5,2.5,4.3,1,6.3l-9.7,13.4C301.4,384.2,300,384.8,298.6,384.8z M319.2,356.3c-0.9,0-1.8-0.3-2.6-0.9
			c-2-1.5-2.5-4.3-1-6.3l9.7-13.4c1.5-2,4.3-2.5,6.3-1c2,1.5,2.5,4.3,1,6.3l-9.7,13.4C321.9,355.7,320.6,356.3,319.2,356.3z"/>
	</g>
	<g>
		<path class="st3" d="M504.4,417.5l-9.7-13.4c-1.5-2-1-4.8,1-6.3c2-1.5,4.8-1,6.3,1l9.7,13.4c1.5,2,1,4.8-1,6.3
			c-0.8,0.6-1.7,0.9-2.6,0.9C506.6,419.3,505.3,418.7,504.4,417.5z M483.8,389l-9.7-13.4c-1.5-2-1-4.8,1-6.3c2-1.5,4.8-1,6.3,1
			l9.7,13.4c1.5,2,1,4.8-1,6.3c-0.8,0.6-1.7,0.9-2.6,0.9C486.1,390.8,484.7,390.2,483.8,389z M463.2,360.5l-9.7-13.4
			c-1.5-2-1-4.8,1-6.3c2-1.5,4.8-1,6.3,1l9.7,13.4c1.5,2,1,4.8-1,6.3c-0.8,0.6-1.7,0.9-2.6,0.9C465.5,362.3,464.1,361.7,463.2,360.5
			z"/>
	</g>
	<g>
		<path class="st3" d="M272.8,436.8c-1.2,0-2.4-0.5-3.3-1.5l-5.4-5.9c-1.4-1.6-1.6-3.9-0.3-5.7l4.7-6.5c1.5-2,4.3-2.5,6.3-1
			c2,1.5,2.5,4.3,1,6.3l-2.5,3.5l2.9,3.2c1.7,1.8,1.6,4.7-0.3,6.4C275,436.4,273.9,436.8,272.8,436.8z"/>
	</g>
	<g>
		<path class="st3" d="M310.9,478.3c-1.2,0-2.4-0.5-3.3-1.5l-9-9.8c-1.7-1.8-1.6-4.7,0.3-6.4c1.8-1.7,4.7-1.6,6.4,0.3l9,9.8
			c1.7,1.8,1.6,4.7-0.3,6.4C313.1,477.9,312,478.3,310.9,478.3z M291.9,457.6c-1.2,0-2.4-0.5-3.3-1.5l-9-9.8
			c-1.7-1.8-1.6-4.7,0.3-6.4c1.8-1.7,4.7-1.6,6.4,0.3l9,9.8c1.7,1.8,1.6,4.7-0.3,6.4C294.1,457.2,293,457.6,291.9,457.6z"/>
	</g>
	<g>
		<path class="st3" d="M334.4,495.2h-8c-1.3,0-2.5-0.5-3.3-1.5l-5.4-5.9c-1.7-1.8-1.6-4.7,0.3-6.4c1.8-1.7,4.7-1.6,6.4,0.3l4.1,4.4
			h6c2.5,0,4.5,2,4.5,4.5S336.9,495.2,334.4,495.2z"/>
	</g>
	<g>
		<path class="st3" d="M429.6,495.2h-14.9c-2.5,0-4.5-2-4.5-4.5s2-4.5,4.5-4.5h14.9c2.5,0,4.5,2,4.5,4.5S432.1,495.2,429.6,495.2z
			 M397.9,495.2H383c-2.5,0-4.5-2-4.5-4.5s2-4.5,4.5-4.5h14.9c2.5,0,4.5,2,4.5,4.5S400.4,495.2,397.9,495.2z M366.2,495.2h-14.9
			c-2.5,0-4.5-2-4.5-4.5s2-4.5,4.5-4.5h14.9c2.5,0,4.5,2,4.5,4.5S368.7,495.2,366.2,495.2z"/>
	</g>
	<g>
		<path class="st3" d="M454.4,495.2h-8c-2.5,0-4.5-2-4.5-4.5s2-4.5,4.5-4.5h5.2l2.2-4.7c1.1-2.2,3.8-3.2,6-2.1
			c2.2,1.1,3.2,3.8,2.1,6l-3.5,7.2C457.7,494.2,456.2,495.2,454.4,495.2z"/>
	</g>
	<g>
		<path class="st3" d="M465.2,472.7c-0.7,0-1.3-0.1-1.9-0.4c-2.2-1.1-3.2-3.8-2.1-6l6.5-13.5c1.1-2.2,3.8-3.2,6-2.1
			c2.2,1.1,3.2,3.8,2.1,6l-6.5,13.5C468.5,471.8,466.9,472.7,465.2,472.7z M479.1,444c-0.7,0-1.3-0.1-1.9-0.4
			c-2.2-1.1-3.2-3.8-2.1-6l6.5-13.5c1.1-2.2,3.8-3.2,6-2.1c2.2,1.1,3.2,3.8,2.1,6l-6.5,13.5C482.4,443,480.8,444,479.1,444z"/>
	</g>
	<g>
		<path class="st3" d="M493,415.2c-0.7,0-1.3-0.1-1.9-0.4c-2.2-1.1-3.2-3.8-2.1-6l2.3-4.8l-3.1-4.4c-1.4-2-1-4.8,1.1-6.3
			c2-1.4,4.8-1,6.3,1.1l4.6,6.5c0.9,1.3,1.1,3.1,0.4,4.6l-3.5,7.2C496.2,414.2,494.6,415.2,493,415.2z"/>
	</g>
	<g>
		<path class="st3" d="M436.1,322.7c-1.4,0-2.8-0.7-3.7-1.9l-3.3-4.6l-5.6,0.1c-2.5,0.1-4.5-2-4.6-4.4c0-2.5,2-4.5,4.4-4.6l8-0.1
			c1.5,0,2.9,0.7,3.7,1.9l4.6,6.5c1.4,2,1,4.8-1.1,6.3C437.9,322.4,437,322.7,436.1,322.7z"/>
	</g>
	<g>
		<path class="st3" d="M380.3,316.9c-2.5,0-4.5-2-4.5-4.4c0-2.5,2-4.5,4.4-4.6l20.3-0.3c0,0,0,0,0.1,0c2.5,0,4.5,2,4.5,4.4
			c0,2.5-2,4.5-4.4,4.6L380.3,316.9C380.3,316.9,380.3,316.9,380.3,316.9z"/>
	</g>
</g>
<g>
	<g>
		<g>
			<path class="st3" d="M325.7,298.8c20.2-16.6,41.8-27.5,46.2-29.7c0.5-0.3,0.8-0.8,0.8-1.3v-31.3c-4-2.6-6.5-7.1-6.5-12.2v-32.4
				c0-16.1,13.1-29.2,29.2-29.2h6.9c16.1,0,29.2,13.1,29.2,29.2v32.5c0,5-2.6,9.5-6.6,12.2v31.3c0,0.6,0.3,1.1,0.8,1.3
				c4.5,2.2,26.1,13.2,46.2,29.7c3.7,3,5.7,7.4,5.7,12.1v10.3c19.6-20,31.6-47.4,31.6-77.6c0-61.3-49.7-111-111-111
				s-111,49.7-111,111c0,30.6,12.4,58.4,32.5,78.5V311C319.9,306.3,322,301.8,325.7,298.8z"/>
		</g>
	</g>
	<g>
		<path class="st4" d="M477.8,321.2V311c0-4.7-2.1-9.1-5.7-12.1c-20.1-16.5-41.8-27.5-46.2-29.7c-0.5-0.3-0.8-0.8-0.8-1.3v-31.3
			c4-2.6,6.6-7.1,6.6-12.2v-32.5c0-16.1-13.1-29.2-29.2-29.2h-6.9c-16.1,0-29.2,13.1-29.2,29.2v32.4c0,5.1,2.6,9.6,6.5,12.2v31.3
			c0,0.6-0.3,1.1-0.8,1.3c-4.4,2.1-26.1,13.1-46.2,29.7c-3.7,3-5.7,7.4-5.7,12.2v11.2c17.1,17.1,39.8,28.7,65.1,31.7
			c4.6,0.5,9.2,0.8,14,0.8c1.7,0,3.4-0.1,5.1-0.1c7.9-0.5,16.4-2,24.8-4.1C447.7,345.1,464.5,334.9,477.8,321.2z"/>
	</g>
</g>
<g>
	<g>
		<g>
			<path class="st3" d="M475.7,537.8c20.2-16.6,41.8-27.5,46.2-29.7c0.5-0.3,0.8-0.8,0.8-1.3v-31.3c-4-2.6-6.5-7.1-6.5-12.2v-32.4
				c0-16.1,13.1-29.2,29.2-29.2h6.9c16.1,0,29.2,13.1,29.2,29.2v32.5c0,5-2.6,9.5-6.6,12.2v31.3c0,0.6,0.3,1.1,0.8,1.3
				c4.5,2.2,26.1,13.2,46.2,29.7c3.7,3,5.7,7.4,5.7,12.1v10.3c19.6-20,31.6-47.4,31.6-77.6c0-61.3-49.7-111-111-111
				s-111,49.7-111,111c0,30.6,12.4,58.4,32.5,78.5V550C469.9,545.3,472,540.8,475.7,537.8z"/>
		</g>
	</g>
	<g>
		<path class="st4" d="M627.8,560.2V550c0-4.7-2.1-9.1-5.7-12.1c-20.1-16.5-41.8-27.5-46.2-29.7c-0.5-0.3-0.8-0.8-0.8-1.3v-31.3
			c4-2.6,6.6-7.1,6.6-12.2v-32.5c0-16.1-13.1-29.2-29.2-29.2h-6.9c-16.1,0-29.2,13.1-29.2,29.2v32.4c0,5.1,2.6,9.6,6.5,12.2v31.3
			c0,0.6-0.3,1.1-0.8,1.3c-4.4,2.1-26.1,13.1-46.2,29.7c-3.7,3-5.7,7.4-5.7,12.2v11.2c17.1,17.1,39.8,28.7,65.1,31.7
			c4.6,0.5,9.2,0.8,14,0.8c1.7,0,3.4-0.1,5.1-0.1c7.9-0.5,16.4-2,24.8-4.1C597.7,584.1,614.5,573.9,627.8,560.2z"/>
	</g>
</g>
<g>
	<g>
		<g>
			<path class="st3" d="M158.7,537.8c20.2-16.6,41.8-27.5,46.2-29.7c0.5-0.3,0.8-0.8,0.8-1.3v-31.3c-4-2.6-6.5-7.1-6.5-12.2v-32.4
				c0-16.1,13.1-29.2,29.2-29.2h6.9c16.1,0,29.2,13.1,29.2,29.2v32.5c0,5-2.6,9.5-6.6,12.2v31.3c0,0.6,0.3,1.1,0.8,1.3
				c4.5,2.2,26.1,13.2,46.2,29.7c3.7,3,5.7,7.4,5.7,12.1v10.3c19.6-20,31.6-47.4,31.6-77.6c0-61.3-49.7-111-111-111
				c-61.3,0-111,49.7-111,111c0,30.6,12.4,58.4,32.5,78.5V550C152.9,545.3,155,540.8,158.7,537.8z"/>
		</g>
	</g>
	<g>
		<path class="st4" d="M310.8,560.2V550c0-4.7-2.1-9.1-5.7-12.1c-20.1-16.5-41.8-27.5-46.2-29.7c-0.5-0.3-0.8-0.8-0.8-1.3v-31.3
			c4-2.6,6.6-7.1,6.6-12.2v-32.5c0-16.1-13.1-29.2-29.2-29.2h-6.9c-16.1,0-29.2,13.1-29.2,29.2v32.4c0,5.1,2.6,9.6,6.5,12.2v31.3
			c0,0.6-0.3,1.1-0.8,1.3c-4.4,2.1-26.1,13.1-46.2,29.7c-3.7,3-5.7,7.4-5.7,12.2v11.2c17.1,17.1,39.8,28.7,65.1,31.7
			c4.6,0.5,9.2,0.8,14,0.8c1.7,0,3.4-0.1,5.1-0.1c7.9-0.5,16.4-2,24.8-4.1C280.7,584.1,297.5,573.9,310.8,560.2z"/>
	</g>
</g>
<g>
	<path class="st3" d="M250.3,299.4h-19.4c-1.1,0-2.1-0.6-2.6-1.5l-9.7-16.8c-0.5-0.9-0.5-2.1,0-3l9.7-16.8c0.5-0.9,1.5-1.5,2.6-1.5
		h19.4c1.1,0,2.1,0.6,2.6,1.5l9.7,16.8c0.5,0.9,0.5,2.1,0,3l-9.7,16.8C252.3,298.8,251.3,299.4,250.3,299.4z M232.6,293.4h16l8-13.8
		l-8-13.8h-16l-8,13.8L232.6,293.4z"/>
</g>
<g>
	<path class="st3" d="M718,538h-33c-0.9,0-1.7-0.5-2.2-1.3s-0.4-1.7,0-2.5l16.5-28.6c0.4-0.8,1.3-1.3,2.2-1.3s1.7,0.5,2.2,1.3
		l16.5,28.6c0.4,0.8,0.4,1.7,0,2.5S718.9,538,718,538z M689.3,533h24.3l-12.2-21.1L689.3,533z"/>
</g>
<path class="st1" d="M546,165.5h-75c-6.6,0-12,5.4-12,12V232c0,6.6,5.4,12,12,12h9v17l13.6-17H546c6.6,0,12-5.4,12-12v-54.5
	C558,170.9,552.6,165.5,546,165.5z"/>
<path class="st1" d="M700,404.5h-75c-6.6,0-12,5.4-12,12V471c0,6.6,5.4,12,12,12h9v17l13.6-17H700c6.6,0,12-5.4,12-12v-54.5
	C712,409.9,706.6,404.5,700,404.5z"/>
<path class="st1" d="M159,404.5H84c-6.6,0-12,5.4-12,12V471c0,6.6,5.4,12,12,12h9v17l13.6-17H159c6.6,0,12-5.4,12-12v-54.5
	C171,409.9,165.6,404.5,159,404.5z"/>
<g id="XMLID_8_">
	<g id="XMLID_10_">
		
			<linearGradient id="XMLID_6_" gradientUnits="userSpaceOnUse" x1="493.1876" y1="-15305.7061" x2="493.1876" y2="-15271.7529" gradientTransform="matrix(1 0 0 -1 0 -15088)">
			<stop  offset="0" style="stop-color:#C41E51"/>
			<stop  offset="4.115909e-02" style="stop-color:#BE1C4E"/>
			<stop  offset="0.3242" style="stop-color:#99113C"/>
			<stop  offset="0.5873" style="stop-color:#7E0930"/>
			<stop  offset="0.8206" style="stop-color:#6E0428"/>
			<stop  offset="1" style="stop-color:#680225"/>
		</linearGradient>
		<polygon id="XMLID_30_" class="st19" points="482.5,183 482.5,198.1 482.5,213.1 503.9,213.1 503.9,198.1 503.9,183 		"/>
		
			<linearGradient id="XMLID_7_" gradientUnits="userSpaceOnUse" x1="525.2969" y1="-15259.6875" x2="525.2969" y2="-15297.9131" gradientTransform="matrix(1 0 0 -1 0 -15088)">
			<stop  offset="0" style="stop-color:#C41E51"/>
			<stop  offset="4.115909e-02" style="stop-color:#BE1C4E"/>
			<stop  offset="0.3242" style="stop-color:#99113C"/>
			<stop  offset="0.5873" style="stop-color:#7E0930"/>
			<stop  offset="0.8206" style="stop-color:#6E0428"/>
			<stop  offset="1" style="stop-color:#680225"/>
		</linearGradient>
		<polygon id="XMLID_29_" class="st20" points="514.6,183 514.6,198.1 514.6,213.1 536,213.1 536,198.1 536,183 		"/>
		
			<linearGradient id="XMLID_11_" gradientUnits="userSpaceOnUse" x1="1635.7234" y1="3457.6409" x2="1635.7234" y2="3526.2983" gradientTransform="matrix(0.7071 0.7071 -0.7071 0.7071 1839.2585 -3445.1948)">
			<stop  offset="0" style="stop-color:#F58B1F"/>
			<stop  offset="0.4946" style="stop-color:#ED6723"/>
			<stop  offset="1" style="stop-color:#EE3E30"/>
		</linearGradient>
		<polygon id="XMLID_28_" class="st21" points="514.6,183 482.5,213.1 504,213.1 514.7,202.5 536,183 		"/>
	</g>
</g>
<polygon id="XMLID_9_" class="st22" points="482.5,183 482.5,198.1 482.5,213.1 503.9,213.1 503.9,198.1 503.9,183 "/>
<polygon id="XMLID_24_" class="st22" points="514.6,183 514.6,198.1 514.6,213.1 536,213.1 536,198.1 536,183 "/>
<polygon id="XMLID_26_" class="st4" points="514.6,183 482.5,213.1 504,213.1 514.7,202.5 536,183 "/>
<g id="XMLID_58_">
	<g>
		<path class="st4" d="M491,220.5h1.6v5.8h3.6v1.5H491V220.5z"/>
		<path class="st4" d="M496.7,224.2c0-2.1,1.6-3.8,3.9-3.8c2.2,0,3.8,1.7,3.8,3.8c0,2.1-1.6,3.8-3.9,3.8
			C498.3,227.9,496.7,226.2,496.7,224.2z M502.7,224.2c0-1.2-0.9-2.3-2.2-2.3c-1.3,0-2.2,1-2.2,2.3c0,1.2,0.9,2.3,2.2,2.3
			S502.7,225.4,502.7,224.2z"/>
		<path class="st4" d="M505.8,220.5h3.3c0.9,0,1.6,0.3,2.1,0.7c0.4,0.4,0.6,1,0.6,1.7c0,1.2-0.6,1.9-1.6,2.2l1.8,2.6h-1.9l-1.6-2.3
			h-1.2v2.3h-1.6V220.5z M509,224c0.8,0,1.2-0.4,1.2-1c0-0.7-0.5-1-1.3-1h-1.6v2.1H509z"/>
		<path class="st4" d="M513.3,220.5h5.5v1.4h-3.9v1.5h3.4v1.4h-3.4v1.5h3.9v1.4h-5.5V220.5z"/>
		<path class="st4" d="M520.2,220.5h1.7l1.9,3.1l1.9-3.1h1.7v7.3h-1.6V223l-2,3.1h0l-2-3.1v4.7h-1.6V220.5z"/>
	</g>
</g>
<g id="XMLID_1_">
	<g id="XMLID_854_">
		<path id="XMLID_979_" class="st3" d="M671.5,425.1c-0.3-0.3-0.5-0.5-0.7-0.8c0.2,0.2,0.4,0.5,0.7,0.9
			C671.7,425.4,671.3,424.9,671.5,425.1z"/>
		<path id="XMLID_978_" class="st3" d="M671.1,424.8c-0.2-0.2-0.4-0.4-0.6-0.6c0.2,0.3,0.5,0.5,0.7,0.8
			C671.2,425,671.3,425.1,671.1,424.8z"/>
		<polygon id="XMLID_977_" class="st3" points="668.2,421.9 668.3,421.9 668.3,421.9 		"/>
		<path id="XMLID_976_" class="st3" d="M671.2,425c0.2,0.2,0.3,0.3,0.4,0.4C671.4,425.3,671.3,425.2,671.2,425
			C671.1,425,671.1,425,671.2,425z"/>
		<path id="XMLID_975_" class="st3" d="M671.1,425.1l0.3,0.4l0,0c0.3,0.4,0.3,0.3,0.3,0.4c0,0-0.1-0.2-0.3-0.4
			C671.2,425.3,671.1,425.1,671.1,425.1z"/>
		<path id="XMLID_974_" class="st3" d="M668.3,421.8c0,0-0.5-0.3-0.5-0.3l0.4,0.3L668.3,421.8z"/>
		<polygon id="XMLID_973_" class="st3" points="667.3,421 667,420.8 667.2,421 		"/>
		<path id="XMLID_972_" class="st3" d="M630.4,452.4l-0.2,0C630.3,452.5,630.4,452.4,630.4,452.4z"/>
		<path id="XMLID_968_" class="st3" d="M635.8,418.5l0.3,0.2c0.2-0.2,0.5-0.3,0.7-0.3C636.3,418.4,635.5,418.2,635.8,418.5z"/>
		<path id="XMLID_967_" class="st3" d="M627.6,438.1c0.1-0.1,0.2-0.2,0.4-0.5L627.6,438.1z"/>
		<path id="XMLID_966_" class="st3" d="M638.6,461.4c-0.4-0.3-0.3,0-0.4,0.1c0,0,0.1,0,0.2-0.1C638.5,461.4,638.6,461.4,638.6,461.4
			z"/>
		<path id="XMLID_961_" class="st3" d="M655.3,415.5c-0.4-0.1-0.6-0.2-0.9-0.3C654.8,415.4,655.1,415.6,655.3,415.5z"/>
		<path id="XMLID_960_" class="st3" d="M626.9,455.6c0.2,0.1,0.3,0.1,0.4,0.1C627.1,455.6,627,455.5,626.9,455.6z"/>
		<path id="XMLID_957_" class="st3" d="M654.4,415.2c-0.3-0.2-0.7-0.2-1.1-0.1c0.1,0,0.1,0,0.2,0.1
			C653.8,415.1,654,415.1,654.4,415.2z"/>
		<path id="XMLID_956_" class="st3" d="M662.9,418.1C663.2,418.2,663,418.1,662.9,418.1L662.9,418.1z"/>
		<path id="XMLID_952_" class="st3" d="M650.6,416.3L650.6,416.3C650.6,416.3,650.6,416.3,650.6,416.3z"/>
		<path id="XMLID_951_" class="st3" d="M663.2,418.3c-0.1-0.1-0.2-0.1-0.3-0.2C663,418.2,663.1,418.2,663.2,418.3z"/>
		<path id="XMLID_942_" class="st3" d="M663.2,418.2c0.1,0,0.1,0.1,0.2,0.1C663.5,418.4,663.4,418.3,663.2,418.2z"/>
		<path id="XMLID_941_" class="st3" d="M662.6,417.9c0.1,0.1,0.3,0.1,0.4,0.2c0,0-0.1-0.1,0,0C662.8,418,662.7,418,662.6,417.9z"/>
		<path id="XMLID_940_" class="st3" d="M654.8,467.1C654.8,467.1,654.8,467.1,654.8,467.1C655.1,467,655,467,654.8,467.1z"/>
		<path id="XMLID_939_" class="st3" d="M633.9,425.8C633.9,425.8,633.9,425.7,633.9,425.8L633.9,425.8L633.9,425.8z"/>
		<path id="XMLID_930_" class="st3" d="M671.6,457.9c-1.1,1.4-2.6,2.7-3.7,3.7l0.1-0.1c-1,0.9-0.9,0.6-2.1,1.5l0,0
			c-0.2,0.2-0.6,0.4-0.9,0.6c0.3-0.2-0.7,0.3-0.3,0c-1.2,0.8-0.6,0.4-1.3,1.1l-0.3,0c-0.3,0.2-0.3,0.3-0.9,0.6c0,0,0,0,0,0
			c0.5-0.3-0.5,0,0.1-0.3c-0.4,0.1-0.7,0.2-1,0.4c-0.1,0.1-0.3,0.1-0.4,0.2c0,0-0.2,0-0.5,0c0.2,0,0.4,0,0.2,0.1c0,0,0,0,0,0
			c-0.2,0.1-0.4,0.2-0.6,0.2l0.3-0.2l-0.4,0.2c-0.2,0-0.3,0.1-0.5,0c-0.6,0.6,1.3-0.2,1,0c0.4,0-0.5,0.4-1,0.6
			c-0.5,0.2-1-0.2-2.2,0.1c0.1,0,0.1-0.1,0.2-0.1c-0.5,0-0.9,0.4-1.5,0.2c-0.3,0.3-0.7,0.1-0.8,0.4l0.6-0.1l0.1,0
			c-0.5,0.2-1,0.5-1.9,0.4c0.1-0.1,0.4-0.2,0.6-0.3c-0.3-0.1-0.6,0.2-0.9,0.1c0.1-0.3,1.4-0.2,2-0.6c-0.3-0.1-0.9,0.2-1,0.1
			c0-0.1,0.1-0.1,0.2-0.1c-0.1,0-0.1,0-0.1,0c0,0,0,0,0,0c0,0,0,0,0,0c-0.4,0,0.3-0.2-0.2-0.2c0.1,0,0.3-0.1,0.4-0.1
			c-0.1,0-0.3,0-0.4-0.1l0,0l0,0l0,0c0,0,0,0,0,0l0,0c0,0,0,0.1,0,0.1c-0.2,0,0-0.1,0-0.1c0,0,0,0,0,0l0,0l-0.7,0.1
			c0.2,0,0.3,0,0.7,0c-0.1,0.2-0.3,0.3-0.2,0.5c-0.1,0-0.3,0-0.4,0c-0.2,0-0.4,0-0.5,0c-0.1-0.2-0.2-0.3-0.3-0.5
			c0,0.1,0,0.2-0.4,0.3c0.1,0.1,0.3,0.1,0.4,0.2c-0.1,0-0.2,0.1-0.4,0.1l0-0.2c-0.1,0-0.4,0.1-0.6,0.1l0.4-0.3
			c-0.5,0.2-0.9,0-1.4-0.1c0.2-0.1,0.4-0.1,0.6-0.1c-0.2-0.4-0.1,0-0.4-0.4c0.3,0.5-1,0-0.7,0.4c0,0,0,0,0,0
			c-0.3-0.4-0.5-0.2-0.9-0.7c0,0.1,0.1,0.3-0.2,0.2c0,0-0.1,0.1-0.1,0.1c0,0,0,0,0,0l0,0c0,0,0,0,0,0c0.1,0.1,0.2,0.1,0.2,0.2
			c0,0,0,0-0.1,0c-0.2-0.1-0.4-0.1-0.8-0.1c0.2,0,0.5,0.1,0.6,0.2c-0.1,0-0.2,0.1-0.3,0.1c-0.3-0.1-0.7-0.3-0.8-0.4
			c-0.1,0-0.2,0-0.2,0c0-0.1,0-0.2,0.2-0.2l-0.5-0.1c-0.2-0.2-0.6-0.4-0.8-0.3c-0.2-0.1-0.6,0.2-0.4,0l-0.7,0l0-0.1
			c-0.7-0.2-1.6,0.1-2.1-0.8c-0.2,0-0.5,0-0.8-0.3l0-0.3c-0.3,0-0.7-0.7-0.9-0.4c0.1-1-1.2-0.8-1.5-1.3l-0.2,0.4
			c-0.1,0-0.1-0.1-0.2-0.1c-0.4-0.5-1.5-0.4-2.1-1c0,0,0-0.1,0-0.1c0,0,0,0,0,0l0,0c-0.1-0.4-0.4-0.6-0.8-0.7c0,0-0.1,0-0.1,0
			c-0.3-0.3-0.6-0.6-1-0.9c0,0,0,0,0,0c0,0,0,0,0,0c0,0,0,0,0-0.1c0-0.1,0-0.2,0-0.3c0,0.1,0,0.2,0,0.3c-0.1,0-0.1-0.1-0.2-0.1
			l0-0.5c0.1,0.1,0.2,0.2,0.2,0.3c0.1-0.4,0.3-1,0-0.7l-0.2,0.3l0-0.2c-0.3-0.2-0.3,0.1-0.4,0.4c0,0-0.1,0.1-0.1,0.2
			c-0.1,0.1-0.2,0.1-0.4,0c0.2-0.5-0.6-0.1-0.2-0.8c0,0-0.1,0-0.1,0c0.1-0.1,0.2-0.2,0.1-0.3c-0.5-0.1-1.5-0.3-1.6-1.2
			c0.3,0.1,0.3,0.3,0.5,0.5l-0.1-0.7c0.9,0.2,1.1,0.7,1.1-0.1c-0.5,0.4-0.9,0-1.3-0.5c-0.4-0.5-0.7-0.9-1.3-0.6l0-0.5
			c0.1,0.1,0.1,0.1,0.2,0.2c0-0.8-0.6-0.3-1.1-0.5c-0.1-0.2-0.2-0.5-0.4-0.7c0-0.2,0.1-0.3,0.2-0.2l-0.6-0.4c0-0.1-0.1-0.2-0.1-0.3
			c0,0,0.1,0,0.2,0.1c-0.1-0.1-0.2-0.3-0.3-0.4c0-0.2,0-0.3,0-0.5c-0.1,0.1-0.1,0.1-0.2,0.1c-0.1-0.1-0.1-0.2-0.1-0.2l0,0
			c0,0-0.1,0-0.1,0c0.1-0.2,0.1-0.4-0.3-0.3c0.2-0.2,0.3-0.4,0.6-0.3c-0.1-0.1-0.2-0.2-0.2-0.3c0.1-0.1,0-0.2-0.1-0.3
			c0-0.2-0.1-0.4-0.5-0.5c0,0,0,0,0-0.1c0.2-0.1,0.4,0,0.5-0.1c0,0-0.1,0-0.1-0.1c0.1-0.1,0.1-0.1,0.2-0.2c0.1,0,0.1,0.1,0.2,0.1
			c0-0.1-0.1-0.1-0.2-0.2c0.2-0.5,0-0.8,0.2-1.5c-0.2,0.2-0.7,1.7-1.3,1.1c0-0.2,0-0.5-0.4-0.8c0.5-0.1,0.3-0.5,0.1-0.9l0.6-0.1
			c-0.3-0.4-0.6-0.3-1-0.5c-0.1-0.6,0.4-0.8,0.8-1c0-0.9-0.7,0.8-1-0.3c0.2-0.8-0.2-1.3-0.7-2.1c0.2-0.6,0.4,0.1,0.6-0.1l-0.5-0.4
			c0-0.1,0.2-0.1,0.3-0.1c-0.1-0.1-0.2-0.2-0.3-0.2c0.2-0.1,0.4-0.2,0.4-0.3c0.1-0.1,0.2,0.1,0.2,0.2c0.6-0.7-0.7-0.1-0.8-0.6
			c0.3-0.1,0.9,0.1,0.9-0.3c0.3-0.2-1.1-1-0.5-1.5c0,0,0,0,0.1,0c-0.2-0.4-0.3-0.6-0.4-0.8c0.2-0.2,0.2-0.5-0.2-0.7
			c0.1,0,0.1-0.1,0.2,0c-0.1-0.2-0.2-0.5-0.3-0.8l0.2-0.3c-0.1,0.1-0.2,0.1-0.3,0.1c-0.1-0.1-0.2-0.2-0.3-0.3c0.4,0,0.6-0.1,0.7-0.3
			c0,0,0,0,0,0c0,0,0,0,0,0c0-0.2,0-0.4-0.1-0.6l0.5,0l-0.3-0.1l0.8-1.1c-0.1-0.2-0.1-0.3-0.2-0.5c0.1-0.4-0.1-0.7-0.4-1
			c0.1-0.1,0.2,0,0.3,0.1c0.1-0.2,0.2-0.3,0.3-0.4c0,0.2,0,0.4-0.1,0.5c0.2-0.4,0.5-0.2,0.5,0l-0.1-1.5c0.5,0.2,0.4-0.1,0.8-0.4
			c-0.3,0-0.4-0.2-0.5-0.4c0.2-0.2,0.4-0.4,0.5-0.6c0,0,0,0.1,0,0.1c0.4-0.2,0.4-0.5,0.2-0.8c0,0,0,0,0,0c0,0,0.1,0.1,0.1,0.2
			c0-1,1.9-1.3,1.1-2.3c0,0,0,0,0,0c0.2-0.3,0.4-0.6,0.6-1c0.1-0.3,0.2-0.5,0.3-0.8c0.1-0.1,0.2-0.3,0.3-0.4
			c0.2,0.2,0.3,0.4,0.4,0.5c0,0-0.1-0.2-0.1-0.5c0-0.1,0-0.1,0-0.2c0.1-0.1,0.3-0.3,0.4-0.4c0,0,0,0.1,0.1,0.1
			c0.2,0.4,0.4,0.7,0.4,0.7c-0.1-0.6,0.1-0.7,0.3-0.9l-0.5-0.2c0.1-0.1,0.2-0.2,0.3-0.3c0,0,0.1-0.1,0.1-0.1
			c0.1,0.2,0.1,0.4,0.1,0.6c0.3-0.1,0.5-0.3,0.7-0.9c-0.1,0-0.2,0-0.4-0.1c0.1-0.1,0.3-0.2,0.4-0.3c0.1-0.1,0.2-0.1,0.2-0.2
			c0.1,0,0.3-0.1,0.6-0.1c-0.1,0-0.2,0-0.3-0.2c0.1-0.1,0.2-0.2,0.3-0.3l-0.5-0.3l0.2-0.2c0.2,0.2,0.5,0.6,0.5,0.7c0,0,0-0.2,0-0.5
			c0.1-0.1,0.1-0.4,0.1-0.5c0-0.1,0-0.1,0-0.2c0,0,0.1,0,0.1,0c0,0.1,0.1,0.1,0.2,0.2c0,0.2-0.1,0.5,0,0.4c0,0,0.2-0.2,0.2-0.2
			l-0.1,0c0,0,0-0.1,0-0.1c0.2,0.1,0.3,0.2,0.5,0.2c-0.2-0.1,0.7-0.6,0.9-0.8l-0.5,0.1c0.3-0.2,0.4-0.4,0.5-0.6l0,0l0,0
			c0.1-0.3,0.1-0.5,0.2-0.8c0.3-0.1,0.6-0.3,0.8-0.5c0.1,0.3,0.4,0.5,0.7,0.4c0-0.2,0-0.5,0-0.9c0.2-0.1,0.3-0.2,0.4-0.2
			c0.2-0.4,0.5-0.6,0.8-0.8c-0.2,0.6-0.5,1.2-0.7,1.6c0.5,0,0.3,0.2,0.8-0.1c0.3,0.1-0.2,0.5-0.3,0.6l1.4-0.6
			c-0.1-0.2,0.1-0.5,0.3-0.7c0.2-0.2,0.5-0.4,0.4-0.6c0,0-0.1,0.1-0.2,0.2c-0.1,0.1-0.3,0.2-0.5,0.4c-0.3,0.3-0.6,0.6-0.6,0.6
			c-0.2-0.3,0-1.2,0.6-1.7c0.2,0,0.3,0,0.5,0.1c-0.2-0.1,0.1-0.3,0.3-0.5c0.2,0.2,0,0.9,0.1,1c0.1-0.2,0.9-0.7,1-0.6l-0.4,0.4
			c0.6-0.1,0.8-1,1.6-0.8c0.3,0,0.9,0.3,0.9,0.1c-0.2-0.2-0.4-0.5-0.6-0.9c0.3-0.1,0.5-0.1,0.8-0.2c0-0.1-0.2-0.1,0-0.3l0.1,0
			l0.6,0.2c0.2-0.1,0.2-0.3,0.4-0.3c-0.1,0.3-0.5,0.7-0.2,0.9c0-0.1,0.2-0.3,0.3-0.4c0.3,0-0.1,0.4,0.5,0.2c0-0.4,1.2-0.2,0.2-0.4
			c0.6-0.2,0.6-0.1,1.3-0.1c-0.2-0.1,0.1-0.5,0.5-0.7c0.2,0,0.5-0.1,0.7-0.1c0,0,0,0,0.1,0c0,0,0.1,0,0.1,0.1c0.3,0,0.6,0,0.8,0
			c0.3,0,0.5,0.1,0.7,0.1c0.5,0.1,0.9,0.1,1.5,0.1c0.1,0.1,0.6,0.2,0.4,0.3c0.2,0,0.3-0.1,0.7-0.1c0.6,0.4-0.8-0.1-0.3,0.3
			c0.1-0.2,0.9-0.1,1.5-0.2c-0.1-0.3-1.2-0.2-1.7-0.2c0-0.4,1-0.7,2.2-0.6c1,0.1,0.4,0.3,0.5,0.3c0.9,0.3,1.3,0.2,1.7,0.2
			c0.4,0,0.7,0,1.4,0.4c0.5,0.4-0.1,0.4,0,0.5c-0.8-0.2-1.1-0.5-1.6-0.6l0.6,0.3c-0.3,0-0.8-0.1-1-0.2c0.5,0.3,2.9,0.9,4.2,1.6
			c0.2,0.1,0.7,0.2,0.5,0.1l-0.4-0.2c-0.3-0.3,0.8,0.2,0.3-0.1c0.6,0.2,1.3,0.3,1.9,0.9l0.1,0.2c0,0-0.4-0.4-0.6-0.5
			c0.3,0.1,1,0.9,1.4,0.9l-0.4-0.4c0.5,0.3,1.3,0.5,1.8,1.1c-0.2-0.3-0.1-0.1-0.5-0.6c0.3,0.4-1.6-1.1-1.1-0.5
			c-0.4-0.5-0.7-0.6-1.3-1.1c0,0.1,0.2,0.2-0.4-0.1c0,0-0.1,0-0.1,0c0,0,0,0,0,0l0,0c0,0,0,0,0,0c0.1,0.1,0.2,0.2,0.2,0.2
			c-0.3,0-1.2-0.5-1.6-0.6c-0.3-0.2,0.2,0,0-0.1c0,0-0.5-0.1-0.5-0.1c0-0.1-0.8-0.6,0-0.3l-0.7-0.3c-0.4-0.3-1-0.6-1.4-0.7
			c-0.4-0.2-1-0.1-0.6-0.1l-1.2-0.3l0,0c-0.6-0.2-1.3-0.2-1.9-0.3c-0.7-0.1-1.3-0.3-2.1-0.5c-0.4,0-0.9,0-1.6-0.1l-0.1-0.2
			c-0.5,0-1.7-0.2-1.9,0c-0.3-0.3-1-0.4-1.7-0.3c-0.7,0.1-1.5,0.3-2,0.2l0,0.3c-0.7,0.1-1.3,0.3-2.1,0.6l0,0.1c-0.1,0-0.1,0-0.2,0
			c-0.6,0.2-1.1,0.3-1.6,0.6c-0.3,0.1-0.7,0.1-1,0.2c0-0.1,0.3-0.2,0.5-0.2c-0.4-0.1-0.8,0-1.1,0.1c-0.3,0.1-0.6,0.4-0.9,0.6
			c0,0-0.1,0.1-0.1,0.1c0,0,0,0,0,0c-0.1,0-0.1,0.1-0.1,0.1c-0.5,0.4-1,0.7-1.5,0.7c-0.2,0.3-0.4,0.3-0.7,0.4c0,0,0,0,0.1-0.1
			c0,0-0.1,0-0.1,0.1c-0.2,0-0.3,0-0.5,0c0.2,0,0.3,0,0.4,0c-0.2,0.1-0.5,0.3-0.8,0.6l-0.3-0.3c0,0,0,0-0.1,0.1
			c-0.4,0.1-0.1,0.3,0.2,0.4c-0.1,0.1-0.2,0.3-0.3,0.5c-0.3-0.2-0.4,0-0.6,0.1c-0.1,0-0.2,0.1-0.4,0.2c0.1,0,0-0.1,0.1-0.1
			c-0.2,0-0.3,0.1-0.4,0.3c-0.1,0-0.1,0-0.2,0c0,0.1-0.1,0.2-0.1,0.3c-0.1,0-0.1,0.1-0.2,0.1c0,0.1,0,0.2,0,0.2
			c-0.1,0.1-0.2,0.2-0.3,0.3c-0.2,0.2-0.3,0.5-0.3,0.7c-0.1,0.1-0.1,0.2-0.3,0.2c-0.4-0.5,0.6-0.7,0.7-1.4c-0.4-0.1-0.4,0.9-0.7,0.3
			c0.3,0.9-0.7,0.5-0.7,1.3l-0.2-0.3c0,0.1-0.1,0.3-0.2,0.5c0,0,0-0.1-0.1-0.3c0-0.1-0.1-0.3-0.1-0.3c-0.1,0.6-0.9,0.4-1.1,0.9
			c0.7-0.7,0.5,0.2,1,0.1c-0.2,0.5-0.4,0.5-0.7,0.5c0,0,0,0,0-0.1c0,0,0,0,0,0.1c-0.4-0.1-0.8-0.3-1.3,0.3c0.2-0.1,0.6-0.2,0.5,0.1
			c-0.2,0.1-0.6,0.3-0.8,0.3c-0.5,0.7,0.4,0.2,0.4,0.6c-0.6-0.1-0.1,0.5-0.2,0.8l-0.3-0.3c-0.9,0.6,0.5,0.7-0.3,1.2l-0.3-0.6
			l-0.1,0.5l-0.3-0.4c0,0.6-0.2,0.7-0.6,1c0.3,0.1,0.5,0.3,0.5,0.6c-0.1,0.1-0.1,0.2-0.2,0.2c-0.3,0-0.2-0.3-0.4,0.2
			c-0.2-0.3-0.4-0.6,0.1-0.6c-0.1-0.1-0.1-0.3-0.3-0.4c-0.5,0.1-0.5,0.7-0.6,0.8c0.1-0.1,0.1-0.1,0.2-0.2l0.1,1.1
			c-0.2,0-0.3-0.1-0.3-0.3c-0.1,0.2,0.1,0.4,0,0.6c-0.3-0.2-0.6-0.4-0.6-0.8l-0.1,0.9c-0.2,0-0.6,0.2-0.7,0
			c-0.4,0.4,0.1,1.4-0.4,1.8c0.1,0.1,0.1,0.1,0.1,0.3c-0.3,0.5-0.9,0.9-0.7,1.7l-0.8,0.2c0,0.5,0.6,0,0.8,0.3
			c-0.1,0.2-0.2,0.5-0.2,0.7c-0.2,0-0.5-0.2-0.6-0.1c0.1,0.2,0.2,0.4,0.3,0.6c0,0.1,0,0.2-0.1,0.2c-0.2,0.1-0.2-0.2-0.3-0.4
			c-0.1,0.3-0.1,0.6,0,0.8l-0.4,0.2c-0.5-0.7-0.1-1.1-0.8-0.8c1.3,0.4-0.4,1.8,1,2.2l-0.3,0.3c0-0.1,0-0.1,0-0.2
			c-0.8,0.5,0.9,0.6,0.6,1.3c-0.1,0.2-0.4,0.4-0.5,0.2l0.3,0.6c0,0.2-0.3,0.1-0.2-0.1c0,0,0,0.2,0,0.5c0,0.2,0,0.5,0,0.5l0,0
			c0.2,0.1,0.5,0.5,0.7,0.6c-0.2,0.2-0.1-0.1-0.3-0.1l0.3,0.5c-0.4,0.2-0.7-0.2-0.6-0.6c-1.4,0.4,0.3,0.4-0.5,1.4l-0.2-0.5
			c-0.8,0.3-0.5,0.7-1,1.3c0.3-0.2,1.2-1.1,1.6-0.6c-0.1,0.2-0.2,0.4,0.1,0.6c-0.5,0-0.4,0.3-0.3,0.7l-0.7,0
			c0.2,0.4,0.5,0.3,0.9,0.5c0,0.4-0.5,0.6-1,0.7c0,0.7,0.8-0.6,1,0.2c-0.2,0.6,0.1,1,0.6,1.6c-0.2,0.4-0.4,0-0.6,0.2l0.6,0.3
			c0,0.1-0.2,0.1-0.2,0.1c0.3,0.3,0.7-0.1,0.9,0.3c0.1,0,0.1,0,0.1,0c0,0.1,0,0.1,0,0.2c-0.1,0.3-0.5,0.8-0.2,1.1
			c-0.1,0.1-0.1,0.2-0.2,0.3c-0.1,0-0.2,0-0.2,0c0.1,0,0.1,0.1,0.1,0.1c-0.1,0.2-0.2,0.4-0.2,0.5c-0.1,0.1-0.2-0.1-0.3-0.3
			c-0.2,1.5,0.7,0,1.1,0.9c-0.3,0.3-0.9,0-0.8,0.7c-0.1,0.4,1.7,1.5,1.5,2.6c0.1-0.3,0.3-0.6,0.7-0.2c-0.1,0.1-0.3,0.2-0.3,0.2
			c0,0,0.2,0.2,0.5,0.3l0,0c0.1,0.7,0,1.7,0.9,1.9c0,0.1-0.1,0.2-0.1,0.2c0.4,0.3,0.9,0.9,1.4,1.2c0.1,0.1,0.2,0.2,0.3,0.4
			c-0.2,0.4,0.1,0.8,0.5,1.2c0,0-0.1,0-0.1,0c0,0,0,0,0.1,0c0.1,0.1,0.3,0.2,0.4,0.3c0,0,0,0,0,0l-0.6,0.2c0.6-0.1,0.6,0,0.7,0.3
			l0.2-0.2c0.1,0.1,0.2,0.2,0.3,0.2c-0.2,0.1-0.3,0.1-0.5,0c0,0.2,0.1,0.5,0.6,0.6c0-0.1,0.1-0.2,0.2-0.3c0,0.1,0,0.3-0.2,0.4
			l1.2,1.2l-0.1,0.1c0.2,0.3,0.5,0.5,0.7,0.6c0.1,0.1,0.1,0.1,0.2,0.1l0,0c0.3,0.1,0.6,0.1,0.9,0.2c0.1,0.2-0.1,0.2-0.2,0.2
			c0.1,0.1,0.1,0.2,0.2,0.2c-0.1,0-0.1,0-0.1,0c0,0,0.1,0,0.1,0c0.3,0.3,0.5,0.5,0.7,0.7c0,0,0,0,0,0c0.1,0.4-0.2,0.3,0.2,0.6
			c0,0.3-0.5,0.2-0.6,0.1l0.8,0.8c0.3-0.5,1.1,0,1.4-0.4c0,0-0.4,0-0.7-0.1c-0.3-0.1-0.7-0.1-0.7-0.1c0.1-0.2,0.4-0.4,0.7-0.5
			c0.2,0,0.4,0.1,0.7,0.1l-0.1,0.4c0.1,0,0.2,0.1,0.3,0.2c-0.1,0.1-0.2,0.2-0.3,0.3c0.1-0.1,0.4,0,0.6,0.1c0.1,0.1,0.1,0.1,0.2,0.2
			l-0.5,0.1c0.1,0.2,0.4,0.1,0.7,0.1c0.2,0.1,0.3,0.3,0.5,0.4c0.1,0.2,0.1,0.9,0.3,0.6c0-0.1,0-0.2,0.1-0.4c0.3,0.2,0.6,0.3,0.9,0.4
			c0,0,0,0.1,0.1,0.1c0,0,0,0-0.1,0c0.9,0.1,1.7,0.8,2.5,1.2c0.8,0.4,1.5,0.6,2,0.2c0,0,0.2,0,0.4,0c0,0,0,0,0,0.1
			c0,0,0.1-0.1,0.1-0.1c0.3,0,0.6,0,0.6,0c-0.1,0-0.3-0.1-0.3-0.1c0.2-0.1,0.5-0.1,0.7-0.1c-0.1,0.2,0,0.3,0.2,0.4
			c-0.2,0.1-0.6,0.2-0.1,0.3c0.1-0.1,0.3-0.1,0.3-0.2c0.5,0.2,1.2,0.3,1.1,0.5c2.8,0.4,5.6,0.7,8.2,0.3c0,0-0.3-0.3-0.3-0.3
			c0,0,0.9-0.1,0.9-0.1c0.2,0,0.4,0.2-0.3,0.3c0.4,0.1,1.1-0.4,1.1-0.4c1.3-0.1-0.4,0.5,0,0.4l0.5-0.1l-0.1,0
			c0.4-0.2,0.4-0.3,1.2-0.5c0.5-0.1,0.3,0.1,0.5,0.1c0,0,0.1,0,0.3-0.1l1.1-0.3l-0.5-0.1c0.5-0.2,1-0.3,0.5-0.4
			c0.4,0.1,1.4-0.3,2.4-0.7c0.9-0.4,1.8-0.9,2-1c0.6-0.4,1.1-0.8,1.9-1.3c-0.2,0.1-0.4,0,0.3-0.3c0,0.2,0.3,0.1,0.6-0.2
			c0.4-0.3,0.8-0.6,1.1-0.7c-0.2,0.1,0.2-0.2,0.5-0.5c0.4-0.3,0.7-0.7,0.3-0.4c0.5-0.4,0.1,0,0.5-0.2c1-1,2.2-2.2,3.3-3.6
			C671.8,458,671.7,457.9,671.6,457.9z M628.9,432.6c-0.1,0.1-0.2,0.2-0.2,0.4c-0.1-0.1-0.1-0.3-0.2-0.5L628.9,432.6z M623.3,441.8
			c-0.1-0.1-0.4-0.4-0.1-0.5C623.8,441.5,623.5,441.6,623.3,441.8z M627.4,440.6c0.2-0.2,0.3,0,0.5,0.1c-0.2,0.1-0.3,0.1-0.5,0.1
			C627.4,440.7,627.4,440.7,627.4,440.6z M629.1,450.2c0-0.1,0-0.2,0.1-0.3c0.1,0.1,0.2,0.1,0.3,0.2
			C629.3,450.1,629.2,450.1,629.1,450.2z M644.8,467.5L644.8,467.5c-0.1-0.3-0.3-0.4-0.6-0.4c0.1-0.1,0.1-0.1,0-0.2
			C644.7,467,645.4,467.6,644.8,467.5z M646.9,466.5l0.1-0.3c0,0-0.1,0-0.1,0c0.2-0.1,0.4-0.1,0.7,0.1c0,0,0,0,0,0
			C647.3,466.3,647.1,466.5,646.9,466.5z M651.5,466.8c-0.1,0-0.1,0-0.2,0.1c0,0.1,0,0.1,0.1,0.1c-0.1,0-0.3,0-0.4,0l-0.2-0.2
			c0.2-0.1,0.4-0.2,0.6-0.3C651.6,466.6,651.5,466.7,651.5,466.8z"/>
		<path id="XMLID_929_" class="st3" d="M660.1,416.9L660.1,416.9C659.7,416.7,659.9,416.8,660.1,416.9z"/>
		<path id="XMLID_928_" class="st3" d="M650.8,466.4C650.8,466.5,650.8,466.5,650.8,466.4C650.8,466.5,650.8,466.5,650.8,466.4
			C650.8,466.4,650.8,466.4,650.8,466.4z"/>
		<polygon id="XMLID_927_" class="st3" points="650.4,466.8 650.4,466.8 650.4,466.8 		"/>
		<path id="XMLID_926_" class="st3" d="M647.6,465.8L647.6,465.8C647.3,465.6,647.4,465.7,647.6,465.8z"/>
		<path id="XMLID_925_" class="st3" d="M638.1,461.5L638.1,461.5L638.1,461.5C638.1,461.5,638.1,461.5,638.1,461.5
			C638.1,461.5,638.1,461.5,638.1,461.5C638.1,461.6,638.1,461.5,638.1,461.5c0,0-0.1,0-0.1,0c0,0-0.1-0.1-0.1-0.1
			C638,461.4,638.1,461.4,638.1,461.5z"/>
		<path id="XMLID_924_" class="st3" d="M629.9,450.4L629.9,450.4C630,450.5,629.9,450.4,629.9,450.4z"/>
		<path id="XMLID_923_" class="st3" d="M629.7,450.1C629.7,450.1,629.6,450.1,629.7,450.1C629.6,450,629.6,450,629.7,450.1
			L629.7,450.1z"/>
		<path id="XMLID_922_" class="st3" d="M629,432.6C629,432.5,629,432.5,629,432.6c0-0.1,0.1-0.1,0.1-0.1
			C629.1,432.5,629,432.6,629,432.6z"/>
		<path id="XMLID_921_" class="st3" d="M640.7,418.5c0,0.1-0.1,0.2-0.1,0.3C640.5,418.8,640.5,418.6,640.7,418.5z"/>
		<path id="XMLID_920_" class="st3" d="M623.9,435.5c0-0.1,0-0.2,0-0.3c0,0.1,0.1,0.1,0.1,0.1C624,435.4,624,435.4,623.9,435.5z"/>
		<path id="XMLID_919_" class="st3" d="M638.7,466.3c0,0,0-0.1-0.1-0.1c0.1,0,0.1,0,0.2,0.1C638.8,466.3,638.8,466.3,638.7,466.3z"
			/>
		<path id="XMLID_918_" class="st3" d="M643.8,467.5c-0.1-0.1,0-0.2,0.1-0.2C644.1,467.5,644,467.5,643.8,467.5z"/>
		<path id="XMLID_917_" class="st3" d="M645.4,466.1c0.2,0,0.2,0.1,0.2,0.2c-0.1,0-0.2-0.1-0.4-0.1L645.4,466.1z"/>
		<path id="XMLID_916_" class="st3" d="M656.1,466.9L656.1,466.9c0.1,0,0.2-0.1,0.2-0.1l0.1,0C656.3,466.8,656.2,466.9,656.1,466.9z
			"/>
		<path id="XMLID_915_" class="st3" d="M657.8,467.9l-0.2,0C658,467.7,657.9,467.8,657.8,467.9z"/>
		<path id="XMLID_914_" class="st3" d="M630.7,453.4C630.7,453.5,630.8,453.5,630.7,453.4C630.7,453.4,630.7,453.4,630.7,453.4z"/>
		<path id="XMLID_913_" class="st3" d="M647.2,417.8c-0.2,0-0.3,0-0.4-0.1C646.8,417.8,646.9,417.9,647.2,417.8z"/>
		<path id="XMLID_912_" class="st3" d="M665.4,419.5l-0.5-0.3C665.1,419.4,665.2,419.4,665.4,419.5
			C665.3,419.5,665.2,419.4,665.4,419.5z"/>
		<path id="XMLID_911_" class="st3" d="M669,423.1c0.1,0.1,0.1,0.1,0.2,0.2l0,0C668.9,423,668.7,422.9,669,423.1z"/>
		<path id="XMLID_910_" class="st3" d="M666.2,420.6c0.2,0-0.2-0.3-0.6-0.5C665.6,420.2,665.9,420.4,666.2,420.6L666.2,420.6z"/>
		<path id="XMLID_909_" class="st3" d="M666.3,420.7l0.3,0.2C666.7,420.9,666.5,420.8,666.3,420.7z"/>
		<path id="XMLID_908_" class="st3" d="M662.3,417.7c0.3,0-1.2-0.4-0.3,0C662.2,417.8,662.2,417.6,662.3,417.7z"/>
		<polygon id="XMLID_907_" class="st3" points="665.7,420.5 665.7,420.4 665.4,420.3 		"/>
		<path id="XMLID_906_" class="st3" d="M663.6,419.2c0,0,0.1,0,0.2,0c-0.4-0.2-0.7-0.4-0.7-0.4L663.6,419.2z"/>
		<path id="XMLID_905_" class="st3" d="M663.7,419.2c0.2,0.1,0.3,0.2,0.5,0.2C664.1,419.4,663.9,419.3,663.7,419.2z"/>
		<polygon id="XMLID_904_" class="st3" points="665,420.1 664.8,420 664.4,419.7 		"/>
		<path id="XMLID_903_" class="st3" d="M656.4,416.5l-0.7-0.1c-0.1,0.1,0.1,0.1,0.4,0.1C656.3,416.6,656.5,416.6,656.4,416.5z"/>
		<path id="XMLID_902_" class="st3" d="M658.1,417.3l-0.1,0.2l0.3,0C658.2,417.5,658.2,417.4,658.1,417.3z"/>
		<path id="XMLID_901_" class="st3" d="M656.4,417.2c-0.1,0.1-1,0.1-0.2,0.2C656.3,417.2,657,417.3,656.4,417.2z"/>
		<path id="XMLID_900_" class="st3" d="M639.1,421.6c0.1-0.3-0.6,0.1-0.5-0.1c-0.3,0.4-0.6,0.5-0.1,0.8
			C639.3,422,638.4,421.8,639.1,421.6z"/>
		<path id="XMLID_899_" class="st3" d="M638.6,421.5c0-0.1,0.1-0.1,0.1-0.2C638.6,421.4,638.6,421.4,638.6,421.5z"/>
		<path id="XMLID_898_" class="st3" d="M629.8,448.7l0.3-0.5l-0.2,0C629.7,448.3,629.7,448.4,629.8,448.7z"/>
		<polygon id="XMLID_897_" class="st3" points="632,454.3 632,454.2 631.6,454.6 		"/>
		<path id="XMLID_896_" class="st3" d="M635.2,457.7c0.4,0.3,0.1,1,0.5,0.5C635.6,458,635.4,457.9,635.2,457.7z"/>
		<path id="XMLID_895_" class="st3" d="M661.2,465.2C661.1,465.2,661.1,465.2,661.2,465.2c-0.1,0-0.2,0-0.3,0
			C661,465.3,660.6,465.4,661.2,465.2z"/>
		<path id="XMLID_894_" class="st3" d="M661.1,465.2C661.4,465.2,660.9,465.2,661.1,465.2L661.1,465.2z"/>
		<path id="XMLID_893_" class="st3" d="M660.1,465.3c-0.3,0.1-0.2,0.1,0,0.2l0.3-0.1C660.2,465.3,660,465.4,660.1,465.3z"/>
		<path id="XMLID_892_" class="st3" d="M659.8,465.7l0.2-0.1C659.9,465.6,659.9,465.6,659.8,465.7z"/>
		<path id="XMLID_891_" class="st3" d="M660.1,465.6c0,0.1,0,0,0.2-0.1l-0.3,0.1C660,465.7,660,465.7,660.1,465.6z"/>
		<path id="XMLID_890_" class="st3" d="M658.1,465.6c0,0.1,0.1,0.1,0.2,0.2l0.2-0.1C658.3,465.7,658.1,465.7,658.1,465.6z"/>
		<path id="XMLID_889_" class="st3" d="M658.2,465.8l-0.3,0.1C658.2,466,658.3,465.9,658.2,465.8z"/>
		<polygon id="XMLID_888_" class="st3" points="656.9,465.6 656.6,465.8 656.7,465.8 		"/>
		<path id="XMLID_887_" class="st3" d="M655.2,465.8c0.2-0.1,0.4-0.1,0.7,0c0.1-0.1-0.2-0.2-0.1-0.3
			C655.5,465.6,655.4,465.7,655.2,465.8z"/>
		<path id="XMLID_886_" class="st3" d="M657,465.9l0.2,0.2c0,0,0.1,0,0.1,0C657.3,466,657.2,465.9,657,465.9z"/>
		<path id="XMLID_885_" class="st3" d="M657.2,466.1L657.2,466.1c-0.2,0-0.3,0-0.3,0C656.9,466.1,657,466.1,657.2,466.1z"/>
		<path id="XMLID_884_" class="st3" d="M658.9,466c-0.2,0.1-0.6,0.3-0.1,0.3C658.8,466.2,658.6,466.2,658.9,466z"/>
		<path id="XMLID_883_" class="st3" d="M657.6,466.2l0.4,0c0,0-0.1-0.1,0-0.2L657.6,466.2z"/>
		<polygon id="XMLID_882_" class="st3" points="657.4,466.3 657.6,466.2 657.4,466.2 		"/>
		<path id="XMLID_881_" class="st3" d="M655.6,466.1c-0.1,0.1-0.3,0.1-0.5,0.1c0.2,0,0.4,0,0.6,0
			C655.7,466.2,655.8,466.1,655.6,466.1z"/>
		<polygon id="XMLID_880_" class="st3" points="653.1,466.3 653.2,466.4 653.2,466.3 		"/>
		<path id="XMLID_879_" class="st3" d="M655.7,466.3c0.2,0,0.3,0,0.3-0.1C656,466.3,655.8,466.3,655.7,466.3
			C655.7,466.3,655.7,466.3,655.7,466.3z"/>
		<path id="XMLID_878_" class="st3" d="M654.4,466.1c0.1,0,0.2,0.1,0.3,0.1C654.6,466.1,654.4,466,654.4,466.1z"/>
		<path id="XMLID_877_" class="st3" d="M656.3,466.1L656.3,466.1C656.2,466,656.2,466.1,656.3,466.1z"/>
		<path id="XMLID_876_" class="st3" d="M656.3,466.1c-0.1,0-0.1,0.1-0.2,0.1C656.2,466.2,656.2,466.2,656.3,466.1
			C656.3,466.1,656.3,466.1,656.3,466.1z"/>
		<path id="XMLID_875_" class="st3" d="M653.9,466.4l0.1,0c-0.2,0-0.3-0.1-0.5-0.3c-0.2,0.1-0.3,0.2-0.3,0.3L653.9,466.4
			L653.9,466.4z"/>
		<polygon id="XMLID_874_" class="st3" points="653.1,465.9 652.8,466.3 653.1,466.2 		"/>
		<polygon id="XMLID_873_" class="st3" points="652.3,466 652.1,466.1 652.3,466.2 		"/>
		<path id="XMLID_872_" class="st3" d="M623.2,439.7l0.2,0C623.3,439.7,623.2,439.6,623.2,439.7z"/>
		<path id="XMLID_871_" class="st3" d="M625.2,430.7l-0.3-0.4C624.7,430.7,625,430.6,625.2,430.7z"/>
		<path id="XMLID_870_" class="st3" d="M644.8,465c-0.2-0.2-0.3-0.3-0.4-0.4C644.6,464.9,644.7,465.3,644.8,465z"/>
		<path id="XMLID_869_" class="st3" d="M628,439.3c-0.1-0.1-0.2-0.2-0.3-0.2C627.8,439.3,627.9,439.3,628,439.3z"/>
		<path id="XMLID_868_" class="st3" d="M643.9,464.4c0,0,0,0.1,0.1,0.1c0.2,0,0.3,0,0.5,0.1C644.3,464.4,644.1,464.3,643.9,464.4z"
			/>
		<path id="XMLID_867_" class="st3" d="M649.3,465.8C649.5,465.8,649.3,465.8,649.3,465.8L649.3,465.8z"/>
		<path id="XMLID_866_" class="st3" d="M649.5,466c-0.1,0-0.1-0.1-0.2-0.1C649.4,465.9,649.4,465.9,649.5,466z"/>
		<path id="XMLID_865_" class="st3" d="M649.5,465.9c0.1,0,0.1,0,0.1,0C649.7,465.9,649.7,465.8,649.5,465.9z"/>
		<path id="XMLID_864_" class="st3" d="M649.1,465.8c0.1,0,0.2,0,0.3,0.1c0,0,0,0,0,0C649.3,465.8,649.2,465.8,649.1,465.8z"/>
		<path id="XMLID_863_" class="st3" d="M630,459.3C630,459.3,630,459.3,630,459.3L630,459.3L630,459.3z"/>
		<path id="XMLID_862_" class="st3" d="M630.1,423.4C630.1,423.4,630.1,423.3,630.1,423.4C630.1,423.3,630.1,423.4,630.1,423.4z"/>
		<path id="XMLID_861_" class="st3" d="M625.2,430.8L625.2,430.8C625.2,430.7,625.2,430.7,625.2,430.8L625.2,430.8z"/>
		<path id="XMLID_860_" class="st3" d="M650.9,465.9l-0.3,0c0.2,0,0.2,0.1,0.3,0.1C650.9,466,650.8,465.9,650.9,465.9z"/>
		<path id="XMLID_859_" class="st3" d="M648.8,466c0.1,0.1,0.1-0.3,0.2-0.2C649.1,465.4,648.1,466.1,648.8,466z"/>
		<path id="XMLID_858_" class="st3" d="M632.5,462.9c0.3,0.6,0.5-0.3,0.7,0.2c0.3-0.1-0.2-0.5,0.1-0.5
			C632.8,462.5,632.8,462.3,632.5,462.9z"/>
		<path id="XMLID_857_" class="st3" d="M622.2,442.9c0.2-0.1,0.2-0.2,0.2-0.3l-0.4,0.3L622.2,442.9z"/>
		<polygon id="XMLID_856_" class="st3" points="622.8,437.7 622.8,437.8 623.4,437.7 		"/>
		<path id="XMLID_855_" class="st3" d="M623.2,433.3c-0.1,0.2,0,0.4-0.1,0.6C623.1,433.5,623.9,433.5,623.2,433.3z"/>
	</g>
	<g id="XMLID_817_">
		<path id="XMLID_831_" class="st4" d="M680.3,463.4c0.8,0.3,1.5,0.7,1.5,1.6c0,0.9-0.6,1.4-1.5,1.4c-0.9,0-1.6-0.6-1.6-1.5
			c0-0.1,0.1-0.1,0.1-0.1c0.1,0,0.1,0.1,0.1,0.1c0,0.1,0,0.2,0,0.2c0.1,0.4,0.2,0.7,0.5,0.9c0.2,0.1,0.5,0.2,0.7,0.2
			c0.7,0,1.2-0.4,1.2-1.2c0-0.8-0.7-1.2-1.4-1.4c-0.7-0.2-1.4-0.5-1.4-1.4c0-0.7,0.6-1.3,1.4-1.3c0.8,0,1.4,0.6,1.4,1.4
			c0,0.1-0.1,0.1-0.1,0.1c-0.1,0-0.1-0.1-0.1-0.1c0-0.1,0-0.2,0-0.3c-0.1-0.5-0.5-0.8-1.1-0.8l0,0c-0.6,0-1.1,0.4-1.1,1.1
			C679,463,679.7,463.2,680.3,463.4z"/>
		<path id="XMLID_829_" class="st4" d="M684.2,463.5c0.1,0,0.1,0.1,0.1,0.1c0,0.1-0.1,0.1-0.1,0.1h-0.6v2.5c0,0.1-0.1,0.1-0.1,0.1
			c-0.1,0-0.1-0.1-0.1-0.1v-2.5h-0.6c-0.1,0-0.1-0.1-0.1-0.1c0-0.1,0.1-0.1,0.1-0.1h0.6v-0.9c0-0.1,0.1-0.1,0.1-0.1
			c0.1,0,0.1,0.1,0.1,0.1v0.9H684.2z"/>
		<path id="XMLID_827_" class="st4" d="M687.5,463.6v0.8v1.8c0,0.1-0.1,0.1-0.1,0.1c-0.1,0-0.1-0.1-0.1-0.1v-0.5
			c-0.2,0.4-0.5,0.7-1,0.7c-0.7,0-1.1-0.6-1.1-1.3v-1.5c0-0.1,0.1-0.1,0.1-0.1c0.1,0,0.1,0.1,0.1,0.1v1.5c0,0.5,0.3,1,0.9,1
			c0.8,0,1-0.8,1-1.6v-1c0-0.1,0.1-0.1,0.1-0.1C687.4,463.5,687.5,463.6,687.5,463.6z"/>
		<path id="XMLID_824_" class="st4" d="M691.3,461.2v5c0,0.1-0.1,0.1-0.1,0.1c-0.1,0-0.1-0.1-0.1-0.1v-0.5c-0.2,0.4-0.7,0.7-1.2,0.7
			c-0.8,0-1.4-0.7-1.4-1.5s0.6-1.5,1.4-1.5c0.5,0,1,0.3,1.2,0.8v-3c0-0.1,0.1-0.1,0.1-0.1C691.2,461.1,691.3,461.1,691.3,461.2z
			 M691,464.9c0-0.6-0.5-1.3-1.1-1.3c-0.7,0-1.1,0.6-1.1,1.3c0,0.6,0.5,1.3,1.1,1.3C690.5,466.2,691,465.6,691,464.9z"/>
		<path id="XMLID_821_" class="st4" d="M692.5,462.8c-0.1,0-0.2-0.1-0.2-0.2c0-0.1,0.1-0.2,0.2-0.2c0.1,0,0.2,0.1,0.2,0.2
			C692.7,462.8,692.6,462.8,692.5,462.8z M692.6,463.6v2.6c0,0.1-0.1,0.1-0.1,0.1c-0.1,0-0.1-0.1-0.1-0.1v-2.6
			c0-0.1,0.1-0.1,0.1-0.1C692.6,463.5,692.6,463.6,692.6,463.6z"/>
		<path id="XMLID_818_" class="st4" d="M696.4,464.9c0,0.8-0.6,1.5-1.4,1.5s-1.4-0.7-1.4-1.5c0-0.8,0.6-1.5,1.4-1.5
			S696.4,464.1,696.4,464.9z M696.2,464.9c0-0.6-0.5-1.2-1.1-1.2c-0.7,0-1.1,0.6-1.1,1.2c0,0.6,0.5,1.3,1.1,1.3
			C695.7,466.2,696.2,465.6,696.2,464.9z"/>
	</g>
	<g id="XMLID_113_">
		<g id="XMLID_112_">
			<path id="XMLID_127_" class="st4" d="M663.9,425.6c-0.1,0.1-0.2,0.1-0.3,0.1c0,0,0,0-0.1,0c0,0-0.1,0-0.2,0c-0.1,0-0.3,0-0.5,0
				c-0.2,0-0.4,0.1-0.7,0.2c-0.2,0.1-0.5,0.2-0.8,0.4c-0.3,0.2-0.5,0.4-0.8,0.7c-0.3,0.3-0.5,0.6-0.7,1c-0.2,0.4-0.4,0.9-0.6,1.5
				c-0.1,0.3-0.2,0.7-0.3,1.2c-0.1,0.5-0.2,1.2-0.3,1.8c-0.1,0.7-0.2,1.4-0.4,2.2c-0.1,0.8-0.2,1.5-0.3,2.3
				c-0.1,0.7-0.2,1.4-0.3,2.1c-0.1,0.7-0.2,1.2-0.2,1.7c0,0.1-0.1,0.2-0.1,0.2c-0.1,0.1-0.1,0.1-0.2,0.1c-0.1,0-0.2,0-0.3-0.1
				c-0.1,0-0.1-0.1-0.2-0.2c-0.1-0.3-0.2-0.8-0.4-1.4c-0.2-0.6-0.4-1.2-0.7-2c-0.3-0.7-0.5-1.5-0.8-2.3c-0.3-0.8-0.6-1.6-0.9-2.5
				c-0.3-0.8-0.6-1.6-0.8-2.3c-0.3-0.7-0.5-1.4-0.7-2c0,0.4-0.1,0.8-0.2,1.3c-0.1,0.5-0.2,1-0.3,1.5c-0.1,0.5-0.3,1.1-0.5,1.7
				c-0.2,0.6-0.4,1.2-0.6,1.9c-0.4,1-0.8,1.8-1.4,2.5c-0.5,0.7-1.1,1.3-1.6,1.8c-0.6,0.5-1.2,0.8-1.7,1.1c-0.6,0.3-1.1,0.5-1.7,0.6
				c-0.5,0.1-1,0.2-1.4,0.3c-0.4,0-0.7,0.1-1,0.1c-0.8,0-1.5-0.1-2.1-0.3c-0.6-0.2-1.2-0.5-1.7-0.9c-0.5-0.4-0.8-0.8-1.1-1.3
				c-0.3-0.5-0.4-1.1-0.4-1.7c0-0.6,0.1-1.1,0.4-1.6c0.3-0.5,0.6-0.9,1-1.3c0.4-0.4,0.9-0.6,1.5-0.8c0.5-0.2,1.1-0.3,1.7-0.3
				c0.5,0,0.9,0,1.3,0.1c0.4,0.1,0.7,0.2,1,0.4s0.6,0.3,0.8,0.5c0.2,0.2,0.4,0.3,0.5,0.5c0.1,0.2,0.2,0.3,0.3,0.4
				c0.1,0.1,0.1,0.2,0.1,0.2c0,0.1,0,0.1,0,0.2c0,0.1,0,0.2-0.1,0.3c-0.1,0.1-0.2,0.1-0.3,0.1c-0.2,0-0.3-0.1-0.3-0.2
				c0,0-0.1-0.1-0.2-0.3c-0.1-0.2-0.3-0.4-0.6-0.6c-0.3-0.2-0.6-0.4-1-0.6c-0.4-0.2-0.9-0.3-1.5-0.3c-0.5,0-1,0.1-1.4,0.2
				c-0.5,0.2-0.9,0.4-1.2,0.7c-0.4,0.3-0.6,0.6-0.9,1c-0.2,0.4-0.3,0.8-0.3,1.3c0,0.5,0.1,1,0.4,1.4c0.2,0.4,0.6,0.8,1,1.1
				c0.4,0.3,0.9,0.5,1.4,0.7c0.5,0.2,1.1,0.2,1.7,0.2c0.2,0,0.5,0,0.9-0.1c0.4,0,0.8-0.1,1.3-0.2c0.5-0.1,1-0.3,1.5-0.6
				c0.5-0.3,1.1-0.6,1.6-1c0.5-0.4,1-1,1.5-1.6c0.5-0.6,0.9-1.4,1.2-2.4c0.4-1,0.7-1.9,0.9-2.7c0.2-0.9,0.4-1.6,0.5-2.3
				c0.1-0.7,0.2-1.3,0.2-1.8c0-0.5,0-0.8,0-1v-0.2c0-0.1,0-0.2,0.1-0.3c0.1-0.1,0.2-0.1,0.3-0.1c0.2,0,0.3,0.1,0.4,0.3
				c0,0,0.1,0.2,0.2,0.5c0.1,0.3,0.2,0.6,0.4,1.1c0.2,0.4,0.3,0.9,0.6,1.5c0.2,0.6,0.4,1.2,0.7,1.8c0.2,0.6,0.5,1.3,0.7,2
				c0.2,0.7,0.5,1.4,0.7,2c0.2,0.7,0.5,1.3,0.7,1.9c0.2,0.6,0.4,1.2,0.6,1.7c0.1-0.6,0.2-1.1,0.2-1.8c0.1-0.6,0.2-1.2,0.3-1.9
				c0.1-0.6,0.2-1.3,0.3-1.9c0.1-0.6,0.2-1.2,0.3-1.7c0.1-0.5,0.2-1,0.3-1.4c0.1-0.4,0.2-0.8,0.2-1c0.2-0.6,0.4-1.2,0.7-1.7
				s0.6-1,1-1.4c0.4-0.4,0.9-0.7,1.4-0.9c0.5-0.2,1.1-0.3,1.7-0.3c0.2,0,0.4,0,0.5,0.1c0.1,0.1,0.2,0.2,0.2,0.3v0.1
				C664,425.5,664,425.5,663.9,425.6z"/>
			<path id="XMLID_129_" class="st4" d="M662.8,431.3c0,0.3-0.1,0.6-0.3,0.8c-0.2,0.2-0.5,0.3-0.8,0.3s-0.6-0.1-0.8-0.3
				c-0.2-0.2-0.3-0.5-0.3-0.8c0-0.2,0-0.3,0.1-0.4c0.1-0.1,0.1-0.3,0.2-0.4c0.1-0.1,0.2-0.2,0.4-0.2c0.1-0.1,0.3-0.1,0.4-0.1
				s0.3,0,0.4,0.1c0.1,0.1,0.3,0.1,0.4,0.2c0.1,0.1,0.2,0.2,0.2,0.4C662.8,431,662.8,431.1,662.8,431.3z M660.8,438.4
				c0-1.2,0.1-2.3,0.2-3.5c0-0.1,0.1-0.2,0.2-0.3c0.1-0.1,0.2-0.1,0.3-0.1c0.1,0,0.2,0,0.3,0.1c0.1,0.1,0.1,0.2,0.1,0.3
				c0,0,0,0.2,0,0.4c0,0.2,0,0.5-0.1,0.9c0,0.3-0.1,0.7-0.1,1.1s0,0.7,0,1c0,0.4,0,0.8,0.1,1c0.1,0.3,0.2,0.5,0.3,0.6
				c0.1,0.1,0.3,0.2,0.4,0.3c0.1,0,0.3,0.1,0.4,0.1c0.2,0,0.5-0.1,0.7-0.2c0.2-0.2,0.5-0.4,0.7-0.7c0.3-0.3,0.5-0.6,0.8-1.1
				c0.3-0.4,0.5-0.9,0.8-1.4c0-0.1,0.1-0.1,0.2-0.2c0.1,0,0.2-0.1,0.2-0.1c0.1,0,0.2,0,0.3,0.1c0.1,0.1,0.1,0.2,0.1,0.3
				c0,0.1,0,0.1,0,0.2c-0.1,0.2-0.2,0.4-0.4,0.7c-0.1,0.3-0.3,0.5-0.5,0.8c-0.2,0.3-0.4,0.6-0.6,0.8c-0.2,0.3-0.5,0.5-0.7,0.8
				c-0.3,0.2-0.5,0.4-0.8,0.5c-0.3,0.1-0.6,0.2-0.8,0.2c-0.4,0-0.7-0.1-1-0.2c-0.3-0.2-0.5-0.4-0.7-0.6c-0.2-0.3-0.3-0.6-0.4-0.9
				C660.9,439.2,660.8,438.8,660.8,438.4z M662.1,431.3c0-0.1,0-0.2-0.1-0.3c-0.1-0.1-0.2-0.1-0.3-0.1s-0.2,0-0.3,0.1
				c-0.1,0.1-0.1,0.2-0.1,0.3c0,0.1,0,0.2,0.1,0.3c0.1,0.1,0.2,0.1,0.3,0.1s0.2,0,0.3-0.1C662.1,431.5,662.1,431.4,662.1,431.3z"/>
			<path id="XMLID_133_" class="st4" d="M674,437.5c0,0.1-0.1,0.3-0.2,0.5c-0.1,0.2-0.3,0.5-0.5,0.8c-0.2,0.3-0.4,0.6-0.7,0.9
				c-0.3,0.3-0.6,0.6-0.9,0.9c-0.4,0.3-0.8,0.5-1.2,0.6c-0.4,0.2-0.9,0.3-1.4,0.3c-0.5,0-0.9-0.1-1.2-0.2c-0.4-0.2-0.7-0.4-0.9-0.7
				c-0.3-0.3-0.4-0.7-0.6-1.1c-0.1-0.4-0.2-0.9-0.2-1.4c0-0.5,0.1-0.9,0.2-1.4s0.3-0.8,0.6-1.1c0.2-0.3,0.5-0.6,0.8-0.7
				c0.3-0.2,0.7-0.3,1-0.3c0.3,0,0.5,0,0.7,0.1c0.2,0.1,0.4,0.2,0.6,0.4c0.1,0.2,0.3,0.3,0.4,0.5c0.1,0.2,0.1,0.4,0.1,0.6
				c0,0.2,0,0.3-0.1,0.5c0,0.2-0.1,0.3-0.2,0.4c-0.1,0.1-0.1,0.2-0.2,0.3c-0.1,0.1-0.2,0.1-0.3,0.1c-0.1,0-0.2,0-0.3-0.1
				c-0.1-0.1-0.1-0.2-0.1-0.3c0-0.1,0-0.1,0-0.2c0,0,0.1-0.1,0.1-0.2c0-0.1,0.1-0.1,0.1-0.2c0-0.1,0-0.2,0-0.3
				c0-0.2-0.1-0.3-0.2-0.5c-0.2-0.1-0.4-0.2-0.6-0.2c-0.2,0-0.4,0.1-0.6,0.2c-0.2,0.1-0.4,0.3-0.5,0.6c-0.2,0.2-0.3,0.5-0.4,0.8
				c-0.1,0.3-0.1,0.6-0.1,1c0,0.3,0,0.6,0.1,0.9c0.1,0.3,0.2,0.6,0.4,0.8c0.2,0.2,0.4,0.4,0.6,0.6c0.2,0.1,0.5,0.2,0.9,0.2
				c0.4,0,0.8-0.1,1.2-0.2c0.4-0.2,0.7-0.4,1-0.6s0.6-0.5,0.8-0.8c0.2-0.3,0.4-0.6,0.6-0.8c0.2-0.3,0.3-0.5,0.4-0.7
				c0.1-0.2,0.1-0.3,0.2-0.4c0-0.1,0.1-0.1,0.2-0.2c0.1,0,0.2-0.1,0.2-0.1c0.1,0,0.2,0,0.3,0.1c0.1,0.1,0.1,0.2,0.1,0.3
				C674,437.3,674,437.4,674,437.5z"/>
			<path id="XMLID_135_" class="st4" d="M674.6,439.5c0.2,0.2,0.4,0.4,0.7,0.6c0.3,0.1,0.6,0.2,1,0.2c0.4,0,0.8-0.1,1.1-0.3
				c0.3-0.2,0.6-0.4,0.9-0.7c0.3-0.3,0.5-0.7,0.7-1c0.2-0.4,0.4-0.8,0.6-1.1c0-0.1,0.1-0.2,0.2-0.2c0.1,0,0.2-0.1,0.2-0.1
				c0.1,0,0.2,0,0.3,0.1c0.1,0.1,0.1,0.2,0.1,0.3c0,0,0,0.1,0,0.1c0,0,0,0.1,0,0.1c-0.6,1.2-1.2,2.2-1.8,2.8c-0.7,0.6-1.4,0.9-2.2,1
				c-0.5,0-1-0.1-1.4-0.3c-0.4-0.2-0.7-0.5-1-0.8s-0.4-0.7-0.6-1.1c-0.1-0.4-0.2-0.8-0.2-1.2c0-0.4,0.1-0.8,0.2-1.1
				c0.1-0.3,0.2-0.7,0.4-0.9c0.2-0.3,0.4-0.5,0.7-0.6c0.3-0.1,0.6-0.2,0.9-0.2c0.2,0,0.4,0,0.6,0.1c0.2,0.1,0.3,0.2,0.5,0.3
				c0.1,0.1,0.3,0.3,0.4,0.5c0.1,0.2,0.1,0.4,0.1,0.7c0,0.3-0.1,0.6-0.2,0.9c-0.1,0.3-0.3,0.6-0.5,0.8c-0.2,0.3-0.4,0.5-0.7,0.7
				C675.2,439.2,674.9,439.3,674.6,439.5z M674.3,438.7c0.3-0.1,0.5-0.2,0.7-0.4c0.2-0.2,0.4-0.3,0.5-0.5c0.1-0.2,0.3-0.4,0.3-0.6
				c0.1-0.2,0.1-0.4,0.1-0.6c0-0.2-0.1-0.4-0.2-0.6c-0.1-0.1-0.3-0.2-0.4-0.2c-0.2,0-0.4,0.1-0.6,0.2c-0.2,0.1-0.3,0.3-0.4,0.5
				c-0.1,0.2-0.2,0.4-0.2,0.6c0,0.2-0.1,0.5-0.1,0.7c0,0.1,0,0.3,0,0.5C674.2,438.4,674.2,438.6,674.3,438.7z"/>
		</g>
		<g id="XMLID_114_">
			<path id="XMLID_115_" class="st4" d="M660.1,441.2c0.2,0,0.3,0.1,0.5,0.2c0.1,0.2,0.2,0.3,0.2,0.6c0,0.3-0.1,0.6-0.4,1
				c-0.2,0.4-0.6,0.8-1,1.2c-0.1,0.4-0.1,0.9-0.2,1.4c-0.1,0.5-0.1,1.1-0.1,1.8c0,1,0,2-0.1,2.9c-0.1,1-0.2,1.9-0.4,2.7
				c-0.2,0.8-0.4,1.6-0.8,2.3c-0.3,0.7-0.8,1.3-1.3,1.8s-1.2,0.9-1.9,1.2c-0.8,0.3-1.7,0.4-2.7,0.4c-0.9,0-1.6-0.1-2.3-0.3
				c-0.7-0.2-1.3-0.5-1.7-0.8c-0.5-0.4-0.8-0.8-1.1-1.3c-0.2-0.5-0.4-1-0.4-1.6c0-0.6,0.1-1.1,0.4-1.6c0.2-0.5,0.6-0.9,1-1.3
				c0.4-0.4,0.9-0.6,1.4-0.8c0.5-0.2,1.1-0.3,1.7-0.3c0.1,0,0.2,0,0.3,0c0.1,0,0.2,0,0.3,0c0.1,0,0.1,0.1,0.2,0.1
				c0.1,0.1,0.1,0.1,0.1,0.3c0,0.1,0,0.2-0.1,0.3c-0.1,0.1-0.2,0.1-0.3,0.1c-0.1,0-0.1,0-0.2,0c-0.1,0-0.1,0-0.2,0
				c-0.5,0-1,0.1-1.4,0.2c-0.4,0.2-0.8,0.4-1.2,0.7c-0.3,0.3-0.6,0.6-0.8,1c-0.2,0.4-0.3,0.8-0.3,1.2c0,0.4,0.1,0.7,0.2,1.1
				c0.1,0.3,0.3,0.6,0.6,0.8c0.2,0.2,0.5,0.4,0.8,0.6c0.3,0.2,0.7,0.3,1,0.4c0.4,0.1,0.7,0.2,1.1,0.2c0.4,0,0.7,0.1,1,0.1
				c0.9,0,1.7-0.1,2.4-0.4s1.2-0.6,1.7-1.1c0.5-0.5,0.8-1,1.1-1.7c0.3-0.7,0.5-1.4,0.7-2.2c0.2-0.8,0.3-1.6,0.3-2.5
				c0.1-0.9,0.1-1.8,0.1-2.8c0-0.5,0-0.9,0.1-1.4c0-0.4,0.1-0.8,0.1-1.2c-0.3,0.2-0.6,0.3-1,0.4c-0.3,0.1-0.7,0.3-1,0.4
				c-0.3,0.2-0.7,0.3-1,0.5c-0.3,0.2-0.6,0.4-0.9,0.6c-0.3,0.2-0.5,0.4-0.6,0.7c-0.2,0.3-0.2,0.6-0.2,0.9c0,0.3,0.1,0.6,0.2,0.8
				c0.1,0.2,0.2,0.4,0.4,0.6c0.2,0.2,0.3,0.3,0.5,0.4c0.2,0.1,0.3,0.2,0.5,0.2c0.2,0.1,0.3,0.1,0.4,0.1c0.1,0,0.2,0,0.2,0
				c0.1,0,0.2,0.1,0.2,0.1c0,0.1,0.1,0.1,0.1,0.2c0,0.1,0,0.2-0.1,0.3c-0.1,0.1-0.2,0.1-0.3,0.1c0,0,0,0-0.1,0c0,0-0.1,0-0.1,0
				c-0.2-0.1-0.5-0.1-0.8-0.3c-0.3-0.1-0.6-0.3-0.9-0.5c-0.3-0.2-0.5-0.5-0.7-0.9c-0.2-0.3-0.3-0.8-0.3-1.3c0-0.4,0.1-0.8,0.3-1.2
				c0.2-0.3,0.5-0.6,0.8-0.9c0.3-0.3,0.7-0.5,1.2-0.7c0.4-0.2,0.9-0.4,1.3-0.6c0.4-0.2,0.8-0.4,1.2-0.5s0.7-0.4,0.9-0.6
				c0.2-0.9,0.4-1.5,0.7-1.9C659.5,441.5,659.8,441.2,660.1,441.2z"/>
			<path id="XMLID_117_" class="st4" d="M664.7,454.5c0.4,1.8,0.9,2.7,1.7,2.7c0.3,0,0.6-0.1,0.8-0.3c0.3-0.2,0.5-0.5,0.7-0.8
				c0.2-0.3,0.4-0.6,0.6-1c0.2-0.3,0.3-0.6,0.4-0.9c0.1-0.2,0.2-0.3,0.4-0.3c0.1,0,0.2,0,0.3,0.1c0.1,0.1,0.1,0.2,0.1,0.3
				c0,0.1,0,0.1,0,0.2c-0.1,0.1-0.1,0.3-0.2,0.5c-0.1,0.2-0.2,0.5-0.4,0.7c-0.2,0.3-0.3,0.5-0.5,0.8c-0.2,0.3-0.4,0.5-0.6,0.7
				c-0.2,0.2-0.5,0.4-0.7,0.5c-0.3,0.1-0.5,0.2-0.8,0.2c-0.5,0-1-0.2-1.3-0.5c-0.4-0.4-0.7-1-1-1.8c-0.4,0.8-0.8,1.4-1.1,1.7
				c-0.4,0.4-0.8,0.5-1.2,0.5c-0.2,0-0.5,0-0.7-0.1c-0.2-0.1-0.4-0.2-0.6-0.4c-0.2-0.2-0.3-0.4-0.4-0.7c-0.1-0.3-0.2-0.6-0.2-1
				c0-0.5,0.1-1,0.3-1.5c0.2-0.5,0.4-0.8,0.7-1.2c0.3-0.3,0.6-0.6,1-0.8c0.4-0.2,0.7-0.3,1.1-0.3c0.1,0,0.2,0,0.3,0.1
				c0.1,0.1,0.1,0.2,0.1,0.3c0,0.1,0,0.2-0.1,0.3c-0.1,0.1-0.2,0.1-0.3,0.2c-0.2,0-0.5,0.1-0.7,0.2c-0.3,0.1-0.5,0.3-0.7,0.5
				c-0.2,0.2-0.4,0.5-0.6,0.8s-0.2,0.8-0.2,1.2c0,0.4,0.1,0.7,0.2,0.9c0.2,0.2,0.4,0.3,0.7,0.3c0.1,0,0.3,0,0.4-0.1
				c0.1-0.1,0.3-0.2,0.5-0.4c0.2-0.2,0.3-0.5,0.5-0.8c0.2-0.4,0.4-0.8,0.6-1.4c-0.1-0.7-0.3-1.5-0.4-2.4c-0.1-0.9-0.2-1.9-0.2-3
				c0-0.5,0-1,0-1.5c0-0.5,0.1-1,0.2-1.5c0.1-0.5,0.2-1,0.3-1.4c0.1-0.5,0.3-0.9,0.4-1.2c0.2-0.3,0.4-0.6,0.6-0.8
				c0.2-0.2,0.5-0.3,0.8-0.3c0.3,0,0.5,0.1,0.7,0.2c0.2,0.1,0.3,0.3,0.4,0.6c0.1,0.3,0.2,0.6,0.3,0.9s0.1,0.7,0.1,1.2
				c0,0.9-0.1,1.8-0.2,2.7c-0.2,0.9-0.3,1.8-0.6,2.6c-0.2,0.8-0.5,1.6-0.7,2.3C665.2,453.4,664.9,454,664.7,454.5z M666.1,445.1
				c0-0.2,0-0.4,0-0.6c0-0.2,0-0.4-0.1-0.6c0-0.2-0.1-0.4-0.2-0.5c-0.1-0.1-0.2-0.2-0.3-0.2c-0.2,0-0.4,0.2-0.5,0.5
				c-0.2,0.3-0.3,0.8-0.4,1.4c-0.1,0.6-0.2,1.2-0.3,1.9c-0.1,0.7-0.1,1.4-0.1,2.1c0,0.7,0,1.4,0.1,2.1c0.1,0.7,0.1,1.3,0.2,1.8
				c0.2-0.6,0.4-1.2,0.6-1.9c0.2-0.6,0.4-1.3,0.5-2c0.2-0.7,0.3-1.3,0.4-2C666,446.4,666.1,445.8,666.1,445.1z"/>
			<path id="XMLID_120_" class="st4" d="M670.3,456.6c0.2,0.2,0.4,0.4,0.6,0.5c0.3,0.1,0.6,0.2,0.9,0.2c0.4,0,0.7-0.1,1-0.3
				c0.3-0.2,0.6-0.4,0.9-0.7c0.3-0.3,0.5-0.6,0.7-1c0.2-0.4,0.4-0.7,0.6-1.1c0-0.1,0.1-0.2,0.2-0.2c0.1,0,0.1-0.1,0.2-0.1
				c0.1,0,0.2,0,0.3,0.1c0.1,0.1,0.1,0.2,0.1,0.3c0,0,0,0.1,0,0.1c0,0,0,0.1,0,0.1c-0.5,1.2-1.1,2.1-1.8,2.7
				c-0.6,0.6-1.4,0.9-2.2,0.9c-0.5,0-1-0.1-1.3-0.3c-0.4-0.2-0.7-0.5-0.9-0.8c-0.2-0.3-0.4-0.7-0.5-1.1c-0.1-0.4-0.2-0.8-0.2-1.2
				c0-0.4,0-0.8,0.1-1.1c0.1-0.3,0.2-0.6,0.4-0.9c0.2-0.2,0.4-0.4,0.7-0.6c0.3-0.1,0.5-0.2,0.8-0.2c0.2,0,0.4,0,0.5,0.1
				c0.2,0.1,0.3,0.2,0.5,0.3c0.1,0.1,0.3,0.3,0.3,0.5c0.1,0.2,0.1,0.4,0.1,0.7c0,0.3-0.1,0.6-0.2,0.9c-0.1,0.3-0.3,0.5-0.5,0.8
				c-0.2,0.2-0.4,0.5-0.7,0.7C670.9,456.3,670.6,456.5,670.3,456.6z M670,455.9c0.2-0.1,0.5-0.2,0.7-0.4c0.2-0.2,0.4-0.3,0.5-0.5
				c0.1-0.2,0.2-0.4,0.3-0.6c0.1-0.2,0.1-0.4,0.1-0.6c0-0.2-0.1-0.4-0.2-0.5c-0.1-0.1-0.3-0.2-0.4-0.2c-0.2,0-0.4,0.1-0.5,0.2
				c-0.1,0.1-0.3,0.3-0.4,0.5c-0.1,0.2-0.2,0.4-0.2,0.6c0,0.2-0.1,0.5-0.1,0.7c0,0.1,0,0.3,0,0.4C669.9,455.6,669.9,455.7,670,455.9
				z"/>
			<path id="XMLID_123_" class="st4" d="M684.1,454.7c0,0.1-0.1,0.2-0.2,0.4c-0.1,0.2-0.2,0.4-0.4,0.7c-0.2,0.3-0.3,0.5-0.5,0.8
				c-0.2,0.3-0.4,0.5-0.7,0.8c-0.2,0.2-0.5,0.4-0.8,0.6c-0.3,0.2-0.6,0.2-0.9,0.2c-0.5,0-0.8-0.1-1.1-0.4c-0.3-0.3-0.5-0.7-0.7-1.1
				c-0.3,0.4-0.6,0.8-0.9,1.1c-0.4,0.3-0.7,0.4-1.1,0.4c-0.3,0-0.6-0.1-0.8-0.2c-0.2-0.1-0.4-0.3-0.6-0.4c-0.2-0.2-0.3-0.4-0.4-0.7
				c-0.1-0.3-0.1-0.5-0.1-0.8c0-0.6,0.1-1.1,0.3-1.6c0.2-0.5,0.5-0.9,0.8-1.2c0.3-0.3,0.7-0.5,1.1-0.7c0.4-0.2,0.8-0.2,1.1-0.2
				c0.2,0,0.5,0,0.7,0.1c0.2,0.1,0.4,0.1,0.5,0.2c0.1,0.1,0.3,0.2,0.3,0.2c0.1,0.1,0.1,0.1,0.1,0.1c0.1,0.1,0.1,0.2,0.1,0.3
				c0,0.1,0,0.2-0.1,0.3c-0.1,0.1-0.2,0.1-0.3,0.1c-0.1,0-0.2,0-0.3-0.1c0,0-0.1,0-0.1-0.1c-0.1,0-0.1-0.1-0.2-0.1
				c-0.1,0-0.2-0.1-0.3-0.1c-0.1,0-0.3-0.1-0.4-0.1c-0.2,0-0.5,0.1-0.8,0.2c-0.3,0.1-0.5,0.3-0.8,0.5c-0.2,0.2-0.4,0.5-0.6,0.9
				c-0.2,0.3-0.2,0.8-0.2,1.2c0,0.1,0,0.3,0,0.5c0,0.2,0.1,0.3,0.2,0.4c0.1,0.1,0.2,0.2,0.3,0.3c0.1,0.1,0.3,0.1,0.5,0.1
				c0.1,0,0.3,0,0.5-0.1c0.2-0.1,0.4-0.2,0.5-0.4c0.2-0.2,0.3-0.4,0.5-0.7c0.1-0.3,0.2-0.6,0.3-1.1c0-0.1,0.1-0.2,0.2-0.3
				c0.1-0.1,0.2-0.1,0.3-0.1c0.1,0,0.2,0,0.3,0.1c0.1,0.1,0.1,0.2,0.1,0.3c0,0.1,0,0.4,0,0.6c0,0.3,0.1,0.5,0.2,0.8
				c0.1,0.3,0.2,0.5,0.4,0.7c0.2,0.2,0.4,0.3,0.7,0.3c0.2,0,0.4-0.1,0.6-0.2c0.2-0.1,0.4-0.2,0.5-0.4c0.2-0.2,0.3-0.4,0.5-0.6
				c0.2-0.2,0.3-0.4,0.4-0.7c0.1-0.2,0.2-0.4,0.4-0.6c0.1-0.2,0.2-0.4,0.3-0.5c0-0.1,0.1-0.2,0.2-0.2c0.1,0,0.2-0.1,0.2-0.1
				c0.1,0,0.2,0,0.3,0.1c0.1,0.1,0.1,0.2,0.1,0.3C684.1,454.6,684.1,454.6,684.1,454.7z"/>
			<path id="XMLID_125_" class="st4" d="M684.6,453.6c0,0.1-0.1,0.3-0.2,0.4c-0.1,0.2-0.1,0.3-0.2,0.5c-0.1,0.1-0.1,0.2-0.2,0.3
				c-0.1,0.1-0.2,0.1-0.3,0.1c-0.1,0-0.2,0-0.3-0.1c-0.1-0.1-0.1-0.2-0.1-0.3c0,0,0-0.1,0-0.1c0,0,0-0.1,0.1-0.1
				c0.2-0.4,0.4-0.7,0.5-1c0.1-0.3,0.2-0.6,0.2-0.9c-0.1-0.2-0.1-0.3-0.1-0.5c0-0.1,0-0.3,0-0.4c0-0.3,0.1-0.5,0.2-0.6
				c0.1-0.2,0.3-0.2,0.5-0.2c0.2,0,0.3,0.1,0.4,0.2c0.1,0.2,0.2,0.3,0.2,0.6c0,0.1,0,0.3,0,0.4c0,0.1-0.1,0.3-0.1,0.5
				c0.2,0.4,0.4,0.8,0.5,1.2c0.2,0.3,0.3,0.7,0.5,0.9c0.1,0.3,0.3,0.6,0.3,0.8c0.1,0.3,0.1,0.5,0.1,0.8c0,0.3-0.1,0.6-0.2,0.9
				c-0.1,0.3-0.4,0.5-0.7,0.8c0,0,0.1,0,0.1,0c0,0,0.1,0,0.1,0c0.4,0,0.9-0.1,1.2-0.3c0.4-0.2,0.7-0.5,1-0.8
				c0.3-0.3,0.6-0.7,0.8-1.1c0.2-0.4,0.4-0.8,0.6-1.2c0.1-0.2,0.2-0.3,0.3-0.3c0.1,0,0.2,0,0.3,0.1c0.1,0.1,0.1,0.2,0.1,0.3
				c0,0.1,0,0.1,0,0.2c-0.1,0.2-0.2,0.5-0.3,0.7c-0.1,0.3-0.3,0.5-0.5,0.8c-0.2,0.3-0.4,0.6-0.7,0.8c-0.2,0.3-0.5,0.5-0.8,0.7
				c-0.3,0.2-0.6,0.4-1,0.5c-0.4,0.1-0.8,0.2-1.2,0.2c-0.5,0-1-0.1-1.5-0.3c-0.4-0.2-0.8-0.5-1.1-0.9c0-0.1-0.1-0.1-0.1-0.2
				c0-0.1,0-0.2,0.1-0.3c0.1-0.1,0.2-0.1,0.3-0.1c0.1,0,0.2,0,0.3,0.1c0,0,0,0,0.1,0.1s0.1,0.1,0.2,0.1c0.1,0,0.1,0.1,0.2,0.1
				c0.1,0,0.2,0,0.3,0c0.2,0,0.3,0,0.5-0.1c0.1-0.1,0.2-0.2,0.3-0.3c0.1-0.1,0.1-0.2,0.2-0.4c0-0.1,0.1-0.2,0.1-0.3
				c0-0.2,0-0.4-0.1-0.6c-0.1-0.2-0.1-0.4-0.2-0.6c-0.1-0.2-0.2-0.4-0.3-0.6C684.8,454,684.7,453.8,684.6,453.6z"/>
		</g>
	</g>
</g>
<g>
	<g>
		<path class="st4" d="M97.8,464.9l-2.5-3.6h0.8l2,3l2-3h0.8l-2.5,3.6v2.4h-0.7V464.9z"/>
		<path class="st4" d="M100.7,465c0-1.2,1-2.3,2.3-2.3c1.3,0,2.3,1,2.3,2.3c0,1.2-1,2.3-2.3,2.3C101.7,467.3,100.7,466.3,100.7,465z
			 M104.7,465c0-0.9-0.7-1.7-1.6-1.7c-1,0-1.6,0.8-1.6,1.7s0.7,1.7,1.6,1.7C104,466.8,104.7,466,104.7,465z"/>
		<path class="st4" d="M106.4,465.6v-2.7h0.7v2.6c0,0.8,0.4,1.3,1.2,1.3c0.8,0,1.3-0.6,1.3-1.4v-2.5h0.6v4.4h-0.6v-0.8
			c-0.3,0.5-0.8,0.9-1.5,0.9C107.1,467.3,106.4,466.6,106.4,465.6z"/>
		<path class="st4" d="M111.8,462.8h0.7v1.2c0.3-0.7,1-1.3,1.8-1.2v0.7h-0.1c-1,0-1.8,0.7-1.8,2v1.8h-0.7V462.8z"/>
		<path class="st4" d="M119.5,461.9h-2v-0.6h4.7v0.6h-2v5.4h-0.7V461.9z"/>
		<path class="st4" d="M121.9,465.9c0-0.9,0.8-1.4,1.9-1.4c0.6,0,1,0.1,1.4,0.2v-0.1c0-0.8-0.5-1.2-1.3-1.2c-0.5,0-0.9,0.1-1.3,0.3
			l-0.2-0.5c0.5-0.2,1-0.4,1.6-0.4c0.6,0,1.1,0.2,1.4,0.5c0.3,0.3,0.5,0.7,0.5,1.3v2.7h-0.6v-0.7c-0.3,0.4-0.8,0.8-1.6,0.8
			C122.7,467.3,121.9,466.9,121.9,465.9z M125.2,465.6v-0.4c-0.3-0.1-0.8-0.2-1.3-0.2c-0.8,0-1.3,0.4-1.3,0.9c0,0.6,0.5,0.9,1.1,0.9
			C124.5,466.8,125.2,466.3,125.2,465.6z"/>
		<path class="st4" d="M127.2,468l0.3-0.5c0.5,0.4,1.1,0.6,1.7,0.6c1,0,1.6-0.5,1.6-1.6V466c-0.4,0.5-0.9,0.9-1.7,0.9
			c-1.1,0-2.1-0.8-2.1-2.1s1-2.1,2.1-2.1c0.8,0,1.4,0.4,1.7,0.9v-0.8h0.7v3.6c0,0.7-0.2,1.2-0.6,1.6c-0.4,0.4-1,0.6-1.7,0.6
			C128.4,468.6,127.7,468.4,127.2,468z M130.8,464.8c0-0.9-0.8-1.5-1.6-1.5s-1.5,0.6-1.5,1.5c0,0.9,0.7,1.5,1.5,1.5
			C130,466.3,130.8,465.7,130.8,464.8z"/>
		<path class="st4" d="M132.9,461h0.7v6.2h-0.7V461z"/>
		<path class="st4" d="M135.1,461.1h0.8v0.7h-0.8V461.1z M135.2,462.8h0.7v4.4h-0.7V462.8z"/>
		<path class="st4" d="M137.4,462.8h0.7v0.8c0.3-0.5,0.8-0.9,1.5-0.9c1.1,0,1.7,0.7,1.7,1.8v2.7h-0.7v-2.6c0-0.8-0.4-1.3-1.2-1.3
			c-0.8,0-1.3,0.6-1.3,1.4v2.5h-0.7V462.8z"/>
		<path class="st4" d="M144.6,466.8c0.6,0,1-0.2,1.4-0.6l0.4,0.4c-0.4,0.5-1,0.8-1.8,0.8c-1.2,0-2.2-0.9-2.2-2.3
			c0-1.3,0.9-2.3,2.1-2.3c1.3,0,2.1,1,2.1,2.3c0,0.1,0,0.1,0,0.2H143C143.1,466.2,143.8,466.8,144.6,466.8z M145.9,464.8
			c-0.1-0.8-0.5-1.5-1.4-1.5c-0.8,0-1.3,0.6-1.4,1.5H145.9z"/>
	</g>
	<path id="XMLID_89_" class="st23" d="M102.7,447.7h-8.9l0,0c0,4.7,4,8.4,8.9,8.4h35.7l-8.6-8.4H102.7z"/>
	<path id="XMLID_82_" class="st22" d="M138.3,416.8h-35.7v8.4h44.6l0,0C147.3,420.5,143.3,416.8,138.3,416.8z"/>
	<path id="XMLID_87_" class="st4" d="M138.3,425.2v30.9l0,0c4.9,0,8.9-3.8,8.9-8.4v-22.5H138.3z"/>
	<path id="XMLID_74_" class="st3" d="M93.7,447.7h8.9v-30.9l0,0c-4.9,0-8.9,3.8-8.9,8.4V447.7z"/>
	<path id="XMLID_65_" class="st24" d="M114.9,436c0,1.5-1.3,2.7-2.9,2.7s-2.9-1.2-2.9-2.7c0-1.5,1.3-2.7,2.9-2.7
		S114.9,434.5,114.9,436z"/>
	<path id="XMLID_77_" class="st24" d="M124.6,436c0,1.5-1.3,2.7-2.9,2.7c-1.6,0-2.9-1.2-2.9-2.7c0-1.5,1.3-2.7,2.9-2.7
		C123.3,433.3,124.6,434.5,124.6,436z"/>
	<path id="XMLID_91_" class="st24" d="M134.3,436c0,1.5-1.3,2.7-2.9,2.7c-1.6,0-2.9-1.2-2.9-2.7c0-1.5,1.3-2.7,2.9-2.7
		C133,433.3,134.3,434.5,134.3,436z"/>
</g>
</svg>
