<?xml version="1.0" encoding="utf-8"?>
<!-- Generator: Adobe Illustrator 22.1.0, SVG Export Plug-In . SVG Version: 6.00 Build 0)  -->
<svg version="1.1" id="Capa_1" xmlns="http://www.w3.org/2000/svg" xmlns:xlink="http://www.w3.org/1999/xlink" x="0px" y="0px"
	 viewBox="0 0 1104 608" style="enable-background:new 0 0 1104 608;" xml:space="preserve">
<style type="text/css">
	.st0{fill:#5CB4FF;}
	.st1{fill:#E5E9EA;}
	.st2{fill:#C1C4C5;}
	.st3{fill:#0795FF;}
	.st4{fill:#394C98;}
	.st5{fill:#E0E0E0;}
	.st6{fill:#EEEEEE;}
	.st7{fill:#0783DE;}
	.st8{fill:none;stroke:#E5E9EA;stroke-width:4;stroke-miterlimit:10;}
	.st9{fill:#077DE8;}
	.st10{opacity:0.45;fill:#94A3BB;}
	.st11{fill:#DEDEDF;}
	.st12{fill:#88BDE7;}
	.st13{fill:#0782D7;}
	.st14{opacity:0.63;}
	.st15{fill:#94A3BB;}
	.st16{opacity:0.32;}
	.st17{clip-path:url(#SVGID_2_);}
	.st18{clip-path:url(#SVGID_4_);}
	.st19{fill:url(#XMLID_6_);}
	.st20{fill:url(#XMLID_7_);}
	.st21{fill:url(#XMLID_11_);}
	.st22{fill:#2B6CD7;}
	.st23{fill:#64C7F3;}
	.st24{fill:#6D6D6C;}
	.st25{fill:#076CD4;}
</style>
<g>
	<g>
		<g>
			<path class="st3" d="M490.4,375.6c21.8-17.9,45.2-29.8,50-32.1c0.5-0.3,0.9-0.8,0.9-1.4v-33.9c-4.3-2.8-7.1-7.6-7.1-13.2V260
				c0-17.4,14.2-31.6,31.6-31.6h7.5c17.4,0,31.6,14.2,31.6,31.6v35.2c0,5.5-2.8,10.3-7.1,13.2v33.9c0,0.6,0.3,1.2,0.9,1.4
				c4.8,2.4,28.3,14.2,50,32.1c4,3.2,6.2,8,6.2,13.1v11.1c21.1-21.6,34.2-51.2,34.2-83.9c0-66.3-53.7-120-120-120
				c-66.3,0-120,53.7-120,120c0,33.1,13.4,63.1,35.1,84.9v-12.1C484.2,383.7,486.4,378.8,490.4,375.6z"/>
		</g>
		<g>
			<path class="st4" d="M654.9,399.9v-11.1c0-5-2.2-9.9-6.2-13.1c-21.7-17.9-45.2-29.7-50-32.1c-0.5-0.3-0.9-0.8-0.9-1.4v-33.9
				c4.3-2.9,7.1-7.7,7.1-13.2V260c0-17.4-14.2-31.6-31.6-31.6h-7.5c-17.4,0-31.6,14.2-31.6,31.6v35.1c0,5.5,2.8,10.4,7.1,13.2v33.9
				c0,0.6-0.3,1.2-0.9,1.4c-4.8,2.3-28.2,14.2-50,32.1c-4,3.2-6.2,8-6.2,13.2v12.1c18.5,18.5,43,31,70.4,34.3
				c4.9,0.5,10,0.9,15.1,0.9c1.9,0,3.7-0.1,5.6-0.1c8.5-0.5,17.8-2.2,26.8-4.4C622.4,425.6,640.5,414.6,654.9,399.9z"/>
		</g>
	</g>
	<g>
		<g>
			<path class="st1" d="M750.1,363c17.2-14.1,35.6-23.4,39.4-25.3c0.4-0.2,0.7-0.6,0.7-1.1v-26.7c-3.4-2.2-5.6-6-5.6-10.4v-27.6
				c0-13.7,11.2-24.9,24.9-24.9h5.9c13.7,0,24.9,11.2,24.9,24.9v27.7c0,4.3-2.2,8.1-5.6,10.4v26.7c0,0.5,0.3,0.9,0.7,1.1
				c3.8,1.9,22.3,11.2,39.4,25.3c3.1,2.5,4.9,6.3,4.9,10.3v8.7c16.7-17,26.9-40.3,26.9-66.1c0-52.2-42.3-94.5-94.5-94.5
				c-52.2,0-94.5,42.3-94.5,94.5c0,26.1,10.6,49.7,27.7,66.8v-9.5C745.2,369.3,747,365.5,750.1,363z"/>
		</g>
		<g class="st14">
			<path class="st15" d="M879.6,382v-8.7c0-4-1.8-7.8-4.9-10.3c-17.1-14.1-35.6-23.4-39.4-25.3c-0.4-0.2-0.7-0.6-0.7-1.1v-26.7
				c3.4-2.3,5.6-6.1,5.6-10.4v-27.7c0-13.7-11.2-24.9-24.9-24.9h-5.9c-13.7,0-24.9,11.2-24.9,24.9v27.6c0,4.3,2.2,8.2,5.6,10.4v26.7
				c0,0.5-0.3,0.9-0.7,1.1c-3.8,1.8-22.2,11.2-39.4,25.3c-3.1,2.5-4.9,6.3-4.9,10.4v9.5c14.6,14.6,33.9,24.4,55.4,27
				c3.9,0.4,7.9,0.7,11.9,0.7c1.5,0,2.9,0,4.4-0.1c6.7-0.4,14-1.7,21.1-3.5C854,402.3,868.3,393.6,879.6,382z"/>
		</g>
	</g>
	<g>
		<g>
			<path class="st1" d="M256.8,363c17.2-14.1,35.6-23.4,39.4-25.3c0.4-0.2,0.7-0.6,0.7-1.1v-26.7c-3.4-2.2-5.6-6-5.6-10.4v-27.6
				c0-13.7,11.2-24.9,24.9-24.9h5.9c13.7,0,24.9,11.2,24.9,24.9v27.7c0,4.3-2.2,8.1-5.6,10.4v26.7c0,0.5,0.3,0.9,0.7,1.1
				c3.8,1.9,22.3,11.2,39.4,25.3c3.1,2.5,4.9,6.3,4.9,10.3v8.7c16.7-17,26.9-40.3,26.9-66.1c0-52.2-42.3-94.5-94.5-94.5
				s-94.5,42.3-94.5,94.5c0,26.1,10.6,49.7,27.7,66.8v-9.5C251.9,369.3,253.7,365.5,256.8,363z"/>
		</g>
		<g class="st14">
			<path class="st15" d="M386.4,382v-8.7c0-4-1.8-7.8-4.9-10.3c-17.1-14.1-35.6-23.4-39.4-25.3c-0.4-0.2-0.7-0.6-0.7-1.1v-26.7
				c3.4-2.3,5.6-6.1,5.6-10.4v-27.7c0-13.7-11.2-24.9-24.9-24.9h-5.9c-13.7,0-24.9,11.2-24.9,24.9v27.6c0,4.3,2.2,8.2,5.6,10.4v26.7
				c0,0.5-0.3,0.9-0.7,1.1c-3.8,1.8-22.2,11.2-39.4,25.3c-3.1,2.5-4.9,6.3-4.9,10.4v9.5c14.6,14.6,33.9,24.4,55.4,27
				c3.9,0.4,7.9,0.7,11.9,0.7c1.5,0,2.9,0,4.4-0.1c6.7-0.4,14-1.7,21.1-3.5C360.8,402.3,375.1,393.6,386.4,382z"/>
		</g>
	</g>
	<g class="st16">
		<g>
			<path class="st1" d="M88.6,353.6c12-9.9,25-16.4,27.6-17.7c0.3-0.2,0.5-0.5,0.5-0.8v-18.7c-2.4-1.5-3.9-4.2-3.9-7.3v-19.4
				c0-9.6,7.8-17.4,17.4-17.4h4.1c9.6,0,17.4,7.8,17.4,17.4v19.4c0,3-1.5,5.7-3.9,7.3v18.7c0,0.3,0.2,0.6,0.5,0.8
				c2.7,1.3,15.6,7.9,27.6,17.7c2.2,1.8,3.4,4.4,3.4,7.2v6.1c11.7-11.9,18.9-28.3,18.9-46.3c0-36.6-29.6-66.2-66.2-66.2
				c-36.6,0-66.2,29.6-66.2,66.2c0,18.3,7.4,34.8,19.4,46.8v-6.7C85.2,358,86.5,355.3,88.6,353.6z"/>
		</g>
		<g class="st14">
			<path class="st15" d="M179.4,366.9v-6.1c0-2.8-1.2-5.5-3.4-7.2c-12-9.8-24.9-16.4-27.6-17.7c-0.3-0.2-0.5-0.5-0.5-0.8v-18.7
				c2.4-1.6,3.9-4.2,3.9-7.3v-19.4c0-9.6-7.8-17.4-17.4-17.4h-4.1c-9.6,0-17.4,7.8-17.4,17.4v19.4c0,3,1.5,5.7,3.9,7.3v18.7
				c0,0.3-0.2,0.6-0.5,0.8c-2.6,1.3-15.6,7.8-27.6,17.7c-2.2,1.8-3.4,4.4-3.4,7.3v6.7c10.2,10.2,23.7,17.1,38.8,18.9
				c2.7,0.3,5.5,0.5,8.3,0.5c1,0,2,0,3.1-0.1c4.7-0.3,9.8-1.2,14.8-2.4C161.5,381.1,171.5,375,179.4,366.9z"/>
		</g>
	</g>
	<g class="st16">
		<g>
			<path class="st1" d="M946.4,353.6c12-9.9,25-16.4,27.6-17.7c0.3-0.2,0.5-0.5,0.5-0.8v-18.7c-2.4-1.5-3.9-4.2-3.9-7.3v-19.4
				c0-9.6,7.8-17.4,17.4-17.4h4.1c9.6,0,17.4,7.8,17.4,17.4v19.4c0,3-1.5,5.7-3.9,7.3v18.7c0,0.3,0.2,0.6,0.5,0.8
				c2.7,1.3,15.6,7.9,27.6,17.7c2.2,1.8,3.4,4.4,3.4,7.2v6.1c11.7-11.9,18.9-28.3,18.9-46.3c0-36.6-29.6-66.2-66.2-66.2
				s-66.2,29.6-66.2,66.2c0,18.3,7.4,34.8,19.4,46.8v-6.7C943,358,944.2,355.3,946.4,353.6z"/>
		</g>
		<g class="st14">
			<path class="st15" d="M1037.1,366.9v-6.1c0-2.8-1.2-5.5-3.4-7.2c-12-9.8-24.9-16.4-27.6-17.7c-0.3-0.2-0.5-0.5-0.5-0.8v-18.7
				c2.4-1.6,3.9-4.2,3.9-7.3v-19.4c0-9.6-7.8-17.4-17.4-17.4H988c-9.6,0-17.4,7.8-17.4,17.4v19.4c0,3,1.5,5.7,3.9,7.3v18.7
				c0,0.3-0.2,0.6-0.5,0.8c-2.6,1.3-15.6,7.8-27.6,17.7c-2.2,1.8-3.4,4.4-3.4,7.3v6.7c10.2,10.2,23.7,17.1,38.8,18.9
				c2.7,0.3,5.5,0.5,8.3,0.5c1,0,2,0,3.1-0.1c4.7-0.3,9.8-1.2,14.8-2.4C1019.2,381.1,1029.2,375,1037.1,366.9z"/>
		</g>
	</g>
	<g>
		<path class="st3" d="M490.7,165.2h-23.6c-1.3,0-2.5-0.7-3.2-1.8L452.2,143c-0.7-1.1-0.7-2.5,0-3.6l11.8-20.4
			c0.6-1.1,1.9-1.8,3.2-1.8h23.6c1.3,0,2.5,0.7,3.2,1.8l11.8,20.4c0.7,1.1,0.7,2.5,0,3.6l-11.8,20.4
			C493.2,164.5,492,165.2,490.7,165.2z M469.2,157.9h19.4l9.7-16.8l-9.7-16.8h-19.4l-9.7,16.8L469.2,157.9z"/>
	</g>
	<g>
		<circle class="st3" cx="538.9" cy="165.2" r="6.5"/>
	</g>
	<g>
		<path class="st3" d="M413.1,534.9c-1.3,0-2.7-0.3-3.9-1.1l-40-23.2c-2.3-1.3-3.8-3.7-3.9-6.4c-0.1-2.7,1.1-5.2,3.2-6.8l40-29.5
			c3.5-2.6,8.5-1.8,11,1.7c2.6,3.5,1.8,8.5-1.7,11l-30.3,22.3l29.6,17.1c3.8,2.2,5.1,7,2.9,10.8
			C418.5,533.5,415.9,534.9,413.1,534.9z"/>
	</g>
	<g>
		<path class="st3" d="M719,534.9c-2.4,0-4.8-1.1-6.4-3.2c-2.6-3.5-1.8-8.5,1.7-11l30.3-22.3L715,481.2c-3.8-2.2-5.1-7-2.9-10.8
			c2.2-3.8,7-5.1,10.8-2.9l40,23.2c2.3,1.3,3.8,3.7,3.9,6.4c0.1,2.7-1.1,5.2-3.2,6.8l-40,29.5C722.3,534.4,720.6,534.9,719,534.9z"
			/>
	</g>
	<rect x="476.9" y="496.6" class="st1" width="190.3" height="19.2"/>
	<rect x="476.9" y="469.7" class="st1" width="190.3" height="19.2"/>
	<rect x="476.9" y="523.8" class="st1" width="113.6" height="17.4"/>
</g>
</svg>
